<?xml version="1.0" standalone="no"?>
<!DOCTYPE svg PUBLIC "-//W3C//DTD SVG 1.1//EN" "http://www.w3.org/Graphics/SVG/1.1/DTD/svg11.dtd" >
<svg xmlns="http://www.w3.org/2000/svg" xmlns:xlink="http://www.w3.org/1999/xlink" version="1.1">
<metadata>
Created by FontForge 20201107 at Fri Oct 18 17:20:28 2024
 By 
(c) TIGHTYPE 2019
</metadata>
<defs>
<font id="Moderat-Medium-Italic" horiz-adv-x="1157" >
  <font-face 
    font-family="Moderat Medium Italic"
    font-weight="501"
    font-style="italic"
    font-stretch="normal"
    units-per-em="2048"
    panose-1="0 0 6 0 0 0 0 0 0 0"
    ascent="1638"
    descent="-410"
    x-height="1024"
    cap-height="1434"
    bbox="-299 -625 2459.9 1907"
    underline-thickness="102"
    underline-position="-204"
    slope="-12"
    unicode-range="U+0020-2793"
  />
<missing-glyph horiz-adv-x="1757" 
d="M1659 717q0 -151 -58 -287.5t-156.5 -235t-235 -156.5t-287.5 -58q-152 0 -289.5 59t-235.5 158.5t-155.5 235.5t-57.5 284q0 150 58.5 286.5t157 235.5t235.5 157t287 58q153 0 290 -59t235 -158t155 -235t57 -285zM537 1092v-93h90v-262h94v262h90v93h-274zM1032 1092
v-93h92v-262h93v262h92v93h-277zM922 166q146 0 271 71t199 193t78 266l-94 17q0 -123 -60.5 -227.5t-165 -165t-228.5 -60.5q-188 0 -320.5 133t-132.5 320l-94 -17q4 -144 78.5 -266t199 -193t269.5 -71z" />
    <glyph glyph-name="arrowleft" unicode="&#x3c;&#x2d;" horiz-adv-x="1662" 
d="M1524 809v-184h-1198l415 -416l-127 -127l-606 625v20l606 625l127 -127l-415 -416h1198z" />
    <glyph glyph-name="arrowright" unicode="&#x2d;&#x3e;" horiz-adv-x="1660" 
d="M1049 1352l604 -625v-20l-604 -625l-129 127l415 416h-1198v184h1198l-415 416z" />
    <glyph glyph-name="f_f" unicode="ff" horiz-adv-x="1406" 
d="M1397 1284q-62 0 -102.5 -33t-53.5 -96l-29 -131h250l-37 -168h-247l-183 -856h-209l183 856h-437l-184 -856h-207l183 856h-213l34 168h215l31 147q29 137 120.5 210t227.5 73q82 0 146 -22l-64 -160q-30 12 -69 12q-63 0 -103.5 -33t-52.5 -96l-29 -131h439l30 147
q29 137 120.5 210t227.5 73q99 0 179 -33l-70 -153q-41 16 -96 16z" />
    <glyph glyph-name="f_f_i" unicode="ffi" horiz-adv-x="1890" 
d="M1866 1024l-217 -1024h-209l182 856h-432l-184 -856h-209l182 856h-447l-184 -856h-207l183 856h-213l34 168h215l31 147q29 137 120.5 210t227.5 73q82 0 146 -22l-64 -160q-30 12 -69 12q-63 0 -103.5 -33t-52.5 -96l-29 -131h449l31 147q30 138 121.5 210.5
t228.5 72.5q81 0 145 -22l-63 -160q-30 12 -70 12q-63 0 -103.5 -33t-52.5 -96l-28 -131h641zM1823 1440q54 0 92.5 -38t38.5 -93q0 -54 -38.5 -93.5t-92.5 -39.5t-94.5 39.5t-40.5 93.5q0 55 40 93t95 38z" />
    <glyph glyph-name="f_f_j" unicode="ffj" horiz-adv-x="1882" 
d="M1874 1024l-252 -1186q-57 -268 -330 -268q-82 0 -168 22l35 158q51 -14 98 -14q75 0 111.5 35t50.5 94l211 991h-450l-183 -856h-209l183 856h-439l-184 -856h-207l183 856h-213l34 168h215l31 147q29 137 120.5 210t227.5 73q82 0 146 -22l-64 -160q-30 12 -69 12
q-63 0 -103.5 -33t-52.5 -96l-29 -131h441l30 147q29 137 120.5 210t227.5 73q80 0 148 -22l-66 -160q-30 12 -67 12q-130 0 -158 -129l-29 -131h660zM1831 1440q56 0 94.5 -38t38.5 -93q0 -54 -39 -93.5t-94 -39.5q-54 0 -93.5 39.5t-39.5 93.5q0 55 39 93t94 38z" />
    <glyph glyph-name="f_i" unicode="fi" horiz-adv-x="1232" 
d="M1208 1024l-217 -1024h-209l183 856h-433l-184 -856h-207l183 856h-213l34 168h215l31 147q29 137 120.5 210t227.5 73q82 0 146 -22l-64 -160q-30 12 -69 12q-63 0 -103.5 -33t-52.5 -96l-29 -131h641zM1165 1440q55 0 93 -38t38 -93t-38 -94t-93 -39q-54 0 -94.5 39.5
t-40.5 93.5q0 55 40 93t95 38z" />
    <glyph glyph-name="f_j" unicode="fj" horiz-adv-x="1232" 
d="M1227 1024l-252 -1186q-9 -39 -20.5 -70.5t-36.5 -70.5t-58.5 -65t-89 -44t-125.5 -18q-87 0 -168 22l33 158q51 -14 98 -14q135 0 162 129l211 991h-449l-184 -856h-207l183 856h-213l34 168h215l31 147q29 137 120.5 210t227.5 73q82 0 146 -22l-64 -160q-30 12 -69 12
q-63 0 -103.5 -33t-52.5 -96l-29 -131h660zM1184 1440q54 0 92.5 -38t38.5 -93q0 -54 -38.5 -93.5t-92.5 -39.5q-55 0 -95 39.5t-40 93.5q0 55 39.5 93t95.5 38z" />
    <glyph glyph-name=".notdef" horiz-adv-x="1757" 
d="M1659 717q0 -151 -58 -287.5t-156.5 -235t-235 -156.5t-287.5 -58q-152 0 -289.5 59t-235.5 158.5t-155.5 235.5t-57.5 284q0 150 58.5 286.5t157 235.5t235.5 157t287 58q153 0 290 -59t235 -158t155 -235t57 -285zM537 1092v-93h90v-262h94v262h90v93h-274zM1032 1092
v-93h92v-262h93v262h92v93h-277zM922 166q146 0 271 71t199 193t78 266l-94 17q0 -123 -60.5 -227.5t-165 -165t-228.5 -60.5q-188 0 -320.5 133t-132.5 320l-94 -17q4 -144 78.5 -266t199 -193t269.5 -71z" />
    <glyph glyph-name=".null" horiz-adv-x="0" 
 />
    <glyph glyph-name="nonmarkingreturn" horiz-adv-x="682" 
 />
    <glyph glyph-name="space" unicode=" " horiz-adv-x="552" 
 />
    <glyph glyph-name="exclam" unicode="!" horiz-adv-x="546" 
d="M362 1434h216l-252 -1028h-148zM195 -10q-56 0 -97 39.5t-41 93.5q0 56 41 95.5t97 39.5q55 0 94 -39t39 -96q0 -54 -39.5 -93.5t-93.5 -39.5z" />
    <glyph glyph-name="quotedbl" unicode="&#x22;" horiz-adv-x="751" 
d="M432 1184l-100 -293h-99l27 323q2 52 8 89.5t20.5 71.5t42 51.5t68.5 17.5q39 0 61.5 -20.5t22.5 -59.5q0 -10 -2 -21.5t-7.5 -29.5t-10 -32.5t-14.5 -45t-17 -51.5zM776 1184l-100 -293h-98l26 323q2 52 8 89.5t20.5 71.5t42 51.5t68.5 17.5q39 0 61.5 -20.5t22.5 -59.5
q0 -10 -2 -21.5t-7.5 -29.5t-10 -32.5t-14.5 -45t-17 -51.5z" />
    <glyph glyph-name="numbersign" unicode="#" horiz-adv-x="1439" 
d="M1430 811h-230l-135 -313h186l-34 -168h-226l-141 -330h-191l144 330h-387l-144 -330h-186l141 330h-190l35 168h229l135 313h-186l37 168h221l143 332h189l-144 -332h387l144 332h188l-143 -332h192zM874 498l136 313h-387l-136 -313h387z" />
    <glyph glyph-name="dollar" unicode="$" horiz-adv-x="1191" 
d="M1145 952h-201q13 153 -121 189l-84 -398l31 -12q262 -103 262 -317q0 -183 -121.5 -299t-332.5 -133l-35 -166h-172l37 172q-171 25 -253 129.5t-55 271.5h215q-18 -183 129 -221l93 432l-39 14q-114 44 -180 117t-66 174q0 170 121.5 286.5t318.5 135.5l35 168h172
l-37 -172q154 -27 231.5 -126t51.5 -245zM477 940q0 -78 105 -133l69 332q-78 -22 -126 -76t-48 -123zM805 381q0 94 -111 151l-78 -364q87 20 138 77t51 136z" />
    <glyph glyph-name="percent" unicode="%" horiz-adv-x="1787" 
d="M551 707q-128 0 -219.5 92t-91.5 221q0 128 92 219.5t219 91.5q128 0 220.5 -92t92.5 -219q0 -129 -92.5 -221t-220.5 -92zM1626 1311l-1169 -1311h-236l1168 1311h237zM551 872q64 0 104.5 41.5t40.5 106.5q0 63 -40.5 104t-104.5 41q-63 0 -104 -41t-41 -104
q0 -64 41 -106t104 -42zM1298 -20q-129 0 -220 91.5t-91 219.5q0 129 91 221t220 92q127 0 219.5 -92.5t92.5 -220.5q0 -127 -93 -219t-219 -92zM1296 145q64 0 106 41.5t42 104.5q0 64 -41.5 105.5t-106.5 41.5q-62 0 -102.5 -41.5t-40.5 -105.5q0 -63 40.5 -104.5
t102.5 -41.5z" />
    <glyph glyph-name="ampersand" unicode="&#x26;" horiz-adv-x="1425" 
d="M1360 694l-342 -362l237 -332h-227l-141 197q-107 -104 -216 -160.5t-247 -56.5q-146 0 -245 80t-99 202q0 40 9 79.5t21.5 70.5t36.5 64t42.5 55.5t51 50t49.5 41.5t52 36.5t45.5 29t40.5 24.5l59 35q-42 57 -66 94.5t-47.5 99t-23.5 117.5q0 167 127 281t316 114
q152 0 254 -80.5t102 -208.5q0 -42 -12.5 -83t-30.5 -73t-49 -66t-55.5 -56.5t-62.5 -50t-58 -40.5t-54 -34l-79 -49l172 -242l217 223h223zM651 848l2 -2l70 41q33 19 58 35.5t59 44t56.5 53.5t39 60t16.5 67q0 67 -49.5 104t-124.5 37q-99 0 -165 -64t-66 -159
q0 -36 16 -75t34 -67t54 -75zM453 154q91 0 170.5 45.5t162.5 134.5l-200 278l-62 -39q-104 -64 -148 -107q-85 -81 -85 -169q0 -63 44 -103t118 -40z" />
    <glyph glyph-name="quotesingle" unicode="'" horiz-adv-x="405" 
d="M432 1184l-100 -293h-99l27 323q2 52 8 89.5t20.5 71.5t42 51.5t68.5 17.5q39 0 61.5 -20.5t22.5 -59.5q0 -10 -2 -21.5t-7.5 -29.5t-10 -32.5t-14.5 -45t-17 -51.5z" />
    <glyph glyph-name="parenleft" unicode="(" horiz-adv-x="638" 
d="M805 1532q-96 -98 -184 -231t-162 -293t-118 -348.5t-44 -370.5q0 -312 129 -549l-135 -92q-80 119 -128 288t-48 359q0 356 156 715.5t413 613.5z" />
    <glyph glyph-name="parenright" unicode=")" horiz-adv-x="638" 
d="M-113 -260q96 98 184.5 231.5t162.5 293t118.5 348t44.5 370.5q0 309 -131 549l135 92q80 -119 128.5 -288.5t48.5 -358.5q0 -356 -155.5 -715.5t-412.5 -613.5z" />
    <glyph glyph-name="asterisk" unicode="*" horiz-adv-x="905" 
d="M905 1204l-213 -112l213 -113l-65 -117l-205 129l8 -241h-133l8 241l-205 -129l-67 117l213 113l-213 112l67 117l205 -129l-8 242h133l-8 -242l205 129z" />
    <glyph glyph-name="plus" unicode="+" 
d="M1073 659l-35 -172h-372l-78 -364h-185l78 364h-372l36 172h373l78 365h184l-78 -365h371z" />
    <glyph glyph-name="comma" unicode="," horiz-adv-x="518" 
d="M184 256q59 0 94 -37t35 -100q0 -106 -82.5 -218t-214.5 -184l-43 70q142 100 166 203q-44 2 -72 30.5t-28 79.5q0 68 40.5 112t104.5 44z" />
    <glyph glyph-name="hyphen" unicode="-" horiz-adv-x="913" 
d="M121 725h764l-39 -176h-762z" />
    <glyph glyph-name="period" unicode="." horiz-adv-x="503" 
d="M172 -10q-56 0 -96.5 39.5t-40.5 93.5q0 56 40.5 95.5t96.5 39.5q54 0 93.5 -39t39.5 -96q0 -54 -39.5 -93.5t-93.5 -39.5z" />
    <glyph glyph-name="slash" unicode="/" horiz-adv-x="1028" 
d="M1196 1536l-1075 -1638h-203l1077 1638h201z" />
    <glyph glyph-name="zero" unicode="0" horiz-adv-x="1265" 
d="M530 -20q-181 0 -286 117.5t-105 363.5q0 134 32 263.5t93 238.5t141.5 192.5t183.5 130.5t214 47q178 0 282.5 -117.5t104.5 -345.5q0 -177 -50.5 -340t-137 -284t-210 -193.5t-262.5 -72.5zM557 162q105 0 201 102t153.5 266t57.5 338q0 145 -52 214t-141 69
q-105 0 -201.5 -101.5t-154.5 -264.5t-58 -336q0 -148 52.5 -217.5t142.5 -69.5z" />
    <glyph glyph-name="one" unicode="1" horiz-adv-x="776" 
d="M285 0l192 907h-268l37 170h127q80 0 131 44.5t69 121.5l15 68h192l-278 -1311h-217z" />
    <glyph glyph-name="two" unicode="2" horiz-adv-x="1142" 
d="M541 428q-94 -57 -150.5 -116t-81.5 -134h625l-39 -178h-879l17 78q32 155 134.5 280t246.5 211l233 138q31 18 44 26t45 29t48.5 35t40.5 38.5t36.5 46t22 50t9.5 57.5q0 74 -45.5 119t-122.5 45q-75 0 -139 -38t-101.5 -91t-54.5 -111h-217q21 83 65 156t109 133.5
t159 95.5t204 35q166 0 266 -88t100 -241q0 -67 -27 -131t-61.5 -107t-85 -85t-80 -61t-63.5 -38z" />
    <glyph glyph-name="three" unicode="3" horiz-adv-x="1185" 
d="M870 676q77 -28 120.5 -94.5t43.5 -159.5q0 -185 -154 -313.5t-391 -128.5q-207 0 -313 107.5t-80 287.5h205q-7 -94 43.5 -155.5t163.5 -61.5q127 0 216 77t89 185q0 79 -55 124.5t-154 45.5h-119l33 164h113q113 0 191.5 72t78.5 173q0 77 -47.5 119.5t-130.5 42.5
q-90 0 -162 -49t-108 -141h-213q44 164 184 263t317 99q162 0 269.5 -82t107.5 -223q0 -118 -70.5 -205.5t-177.5 -134.5v-12z" />
    <glyph glyph-name="four" unicode="4" horiz-adv-x="1196" 
d="M1108 457l-35 -162h-227l-64 -295h-200l63 295h-616l22 104l783 912h229l-182 -854h227zM315 457h365l121 571h-15z" />
    <glyph glyph-name="five" unicode="5" horiz-adv-x="1171" 
d="M684 846q161 0 255.5 -95.5t94.5 -254.5q0 -105 -41.5 -199.5t-114 -164.5t-177.5 -111t-226 -41q-199 0 -303 109t-76 290h203q-12 -107 41.5 -168t155.5 -61q134 0 227.5 96.5t93.5 232.5q0 94 -52 149.5t-147 55.5q-75 0 -146 -35t-120 -98l-180 43l221 717h758
l-37 -176h-573l-121 -377q115 88 264 88z" />
    <glyph glyph-name="six" unicode="6" horiz-adv-x="1122" 
d="M666 831q153 0 247.5 -92t94.5 -247q0 -137 -69.5 -254t-194.5 -187.5t-277 -70.5q-178 0 -286.5 96.5t-108.5 259.5q0 67 20.5 139t47 125.5t68 114.5t66.5 91.5t60 70.5l379 434h266l-461 -504q68 24 148 24zM483 152q125 0 219.5 98t94.5 225q0 90 -52 144.5
t-145 54.5q-128 0 -219.5 -94.5t-91.5 -223.5q0 -92 50.5 -148t143.5 -56z" />
    <glyph glyph-name="seven" unicode="7" horiz-adv-x="1097" 
d="M295 1311h899l-27 -123q-131 -121 -235.5 -240t-201.5 -263.5t-173.5 -315.5t-132.5 -369h-217q57 198 127 364.5t152.5 301.5t168 242t191.5 214v11h-590z" />
    <glyph glyph-name="eight" unicode="8" horiz-adv-x="1185" 
d="M866 692q72 -30 119 -101.5t47 -172.5q0 -186 -150 -312t-380 -126q-189 0 -302.5 87t-113.5 228q0 129 90 241.5t225 155.5v13q-133 67 -133 225q0 110 63.5 202.5t174.5 146.5t244 54q163 0 265.5 -79.5t102.5 -213.5q0 -62 -23 -119t-61 -98.5t-80.5 -71t-87.5 -46.5
v-13zM737 1180q-106 0 -182 -73t-76 -171q0 -76 47.5 -118t122.5 -42q105 0 180.5 74t75.5 174q0 74 -46 115t-122 41zM516 141q125 0 212 84t87 199q0 81 -53 131.5t-148 50.5q-126 0 -214.5 -83t-88.5 -199q0 -87 57 -135t148 -48z" />
    <glyph glyph-name="nine" unicode="9" horiz-adv-x="1122" 
d="M717 1331q176 0 284.5 -96.5t108.5 -259.5q0 -67 -20.5 -139t-47 -125.5t-68 -114.5t-66.5 -91.5t-60 -70.5l-379 -434h-264l459 504q-70 -25 -148 -25q-152 0 -246 92.5t-94 247.5q0 137 69 254t194 187.5t278 70.5zM584 637q127 0 218 94.5t91 222.5q0 92 -51 148.5
t-144 56.5q-125 0 -218 -98t-93 -225q0 -90 51.5 -144.5t145.5 -54.5z" />
    <glyph glyph-name="colon" unicode=":" horiz-adv-x="503" 
d="M338 766q-56 0 -96.5 39.5t-40.5 93.5q0 56 40.5 95.5t96.5 39.5q54 0 93.5 -39t39.5 -96q0 -54 -39.5 -93.5t-93.5 -39.5zM172 -10q-56 0 -96.5 39.5t-40.5 93.5q0 56 40.5 95.5t96.5 39.5q54 0 93.5 -39t39.5 -96q0 -54 -39.5 -93.5t-93.5 -39.5z" />
    <glyph glyph-name="semicolon" unicode=";" horiz-adv-x="518" 
d="M346 766q-54 0 -94.5 39.5t-40.5 93.5q0 56 40 95.5t95 39.5q56 0 94.5 -39t38.5 -96q0 -54 -39 -93.5t-94 -39.5zM184 256q59 0 94 -37t35 -100q0 -106 -82.5 -218t-214.5 -184l-43 70q142 100 166 203q-44 2 -72 30.5t-28 79.5q0 68 40.5 112t104.5 44z" />
    <glyph glyph-name="less" unicode="&#x3c;" 
d="M883 25l-717 456l45 215l911 457l-51 -229l-672 -342v-13l527 -338z" />
    <glyph glyph-name="equal" unicode="=" 
d="M195 891h925l-39 -178h-923zM98 434h924l-37 -176h-924z" />
    <glyph glyph-name="greater" unicode="&#x3e;" 
d="M307 1153l717 -457l-45 -215l-911 -456l51 231l672 342v10l-527 338z" />
    <glyph glyph-name="question" unicode="?" horiz-adv-x="952" 
d="M311 502q28 123 81.5 208t174.5 164q117 76 168 132t51 135q0 65 -40 100t-115 35q-93 0 -152 -56.5t-86 -140.5h-196q13 54 34.5 103.5t59.5 100.5t86 88t119 60t155 23q153 0 243.5 -76.5t90.5 -208.5q0 -44 -11 -85.5t-24.5 -72.5t-41.5 -65t-46.5 -53.5t-55 -48
t-52 -39t-52.5 -35.5q-95 -62 -139.5 -126.5t-64.5 -156.5l-17 -81h-190zM334 -10q-56 0 -96.5 39.5t-40.5 93.5q0 56 40.5 95.5t96.5 39.5q54 0 93.5 -39t39.5 -96q0 -54 -39.5 -93.5t-93.5 -39.5z" />
    <glyph glyph-name="at" unicode="@" horiz-adv-x="2068" 
d="M1210 1454q218 0 390 -85.5t270 -245t98 -365.5q0 -210 -65 -381t-180.5 -268t-258.5 -97q-109 0 -181.5 45.5t-76.5 122.5q-120 -168 -327 -168q-144 0 -244 104t-100 267q0 160 71.5 302t192.5 227t258 85q93 0 162 -38t92 -105h14l47 129h156l-137 -651
q-17 -77 13.5 -116.5t96.5 -39.5q76 0 142 76.5t105.5 206t39.5 278.5q0 258 -160.5 404.5t-437.5 146.5q-173 0 -339.5 -81.5t-290 -214.5t-199.5 -312t-76 -365q0 -263 170.5 -422t441.5 -159q239 0 436 114l58 -141q-233 -137 -510 -137q-160 0 -302 50.5t-248 141.5
t-167.5 226.5t-61.5 296.5q0 154 40.5 304t112.5 278t175.5 237.5t224.5 186t264 120t291 43.5zM928 188q133 0 233.5 123t100.5 283q0 103 -55.5 163t-145.5 60q-132 0 -232 -122t-100 -283q0 -103 55 -163.5t144 -60.5z" />
    <glyph glyph-name="A" unicode="A" horiz-adv-x="1374" 
d="M991 0l-47 375h-557l-207 -375h-239l811 1434h264l198 -1434h-223zM485 557h437l-78 625h-15z" />
    <glyph glyph-name="B" unicode="B" horiz-adv-x="1269" 
d="M973 752q174 -78 174 -295q0 -203 -141 -330t-379 -127h-570l305 1434h525q176 0 271 -81t95 -218q0 -127 -78 -226t-202 -147v-10zM535 1257l-91 -432h308q119 0 197.5 74t78.5 186q0 81 -48.5 126.5t-129.5 45.5h-315zM625 176q134 0 218.5 77.5t84.5 195.5
q0 90 -54.5 145t-148.5 55h-319l-101 -473h320z" />
    <glyph glyph-name="C" unicode="C" horiz-adv-x="1554" 
d="M1442 444q-84 -215 -271.5 -339.5t-433.5 -124.5q-268 0 -425.5 155.5t-157.5 421.5q0 140 42.5 274.5t121 246t183 196.5t235.5 132.5t270 47.5q152 0 272.5 -54.5t190.5 -164t63 -256.5h-221q-9 126 -97 201t-227 75q-118 0 -230 -56.5t-194 -149t-132 -216.5t-50 -253
q0 -186 99 -294t276 -108q147 0 265 73t181 193h240z" />
    <glyph glyph-name="D" unicode="D" horiz-adv-x="1458" 
d="M809 1434q279 0 429.5 -143.5t150.5 -413.5q0 -179 -61.5 -339.5t-171 -279.5t-270.5 -188.5t-349 -69.5h-480l305 1434h447zM553 195q178 0 319 91t217 242.5t76 331.5q0 71 -13.5 128t-35.5 96t-54.5 68t-65.5 45t-74 26t-74.5 13t-71.5 3h-239l-224 -1044h240z" />
    <glyph glyph-name="E" unicode="E" horiz-adv-x="1202" 
d="M307 190h737l-40 -190h-947l305 1434h926l-39 -191h-717l-90 -422h625l-41 -186h-625z" />
    <glyph glyph-name="F" unicode="F" horiz-adv-x="1150" 
d="M1231 1235h-696l-93 -440h602l-40 -191h-603l-129 -604h-215l305 1434h910z" />
    <glyph glyph-name="G" unicode="G" horiz-adv-x="1622" 
d="M860 758h647l-159 -758h-172l8 156h-15q-202 -176 -462 -176q-257 0 -406 151.5t-149 411.5q0 142 43.5 278.5t124 249.5t188 199.5t243 135t281.5 48.5q242 0 384 -124.5t136 -313.5h-225q-11 107 -96.5 173t-222.5 66q-166 0 -312.5 -97.5t-232.5 -257.5t-86 -337
q0 -183 97 -286t284 -103q110 0 209 35t174.5 111t97.5 182l18 84h-397v172z" />
    <glyph glyph-name="H" unicode="H" horiz-adv-x="1429" 
d="M1245 1434h215l-305 -1434h-215l133 629h-667l-134 -629h-215l305 1434h216l-132 -611h668z" />
    <glyph glyph-name="I" unicode="I" horiz-adv-x="546" 
d="M578 1434l-306 -1434h-215l305 1434h216z" />
    <glyph glyph-name="J" unicode="J" horiz-adv-x="1114" 
d="M279 420q-18 -105 25.5 -173.5t141.5 -68.5q100 0 171.5 66t99.5 196l211 994h217l-213 -1002q-49 -221 -182.5 -336.5t-329.5 -115.5q-206 0 -303.5 121t-61.5 319h224z" />
    <glyph glyph-name="K" unicode="K" horiz-adv-x="1296" 
d="M895 0l-379 639h-108l-136 -639h-215l305 1434h216l-129 -600h108l578 600h251l-665 -705v-10l416 -719h-242z" />
    <glyph glyph-name="L" unicode="L" horiz-adv-x="1183" 
d="M309 195h733l-43 -195h-942l305 1434h211z" />
    <glyph glyph-name="M" unicode="M" horiz-adv-x="1812" 
d="M1843 1434l-305 -1434h-211l223 1049h-14l-588 -885h-227l-213 885h-16l-224 -1049h-211l305 1434h261l241 -1043h15l686 1043h278z" />
    <glyph glyph-name="N" unicode="N" horiz-adv-x="1505" 
d="M1325 1434h211l-305 -1434h-205l-518 1063h-14l-226 -1063h-211l305 1434h205l516 -1065h15z" />
    <glyph glyph-name="O" unicode="O" horiz-adv-x="1699" 
d="M764 -20q-273 0 -440.5 163.5t-167.5 429.5q0 168 69.5 329t185.5 282.5t277 195.5t334 74q274 0 441 -164.5t167 -431.5q0 -135 -44.5 -267t-126 -241t-187.5 -192.5t-238 -130.5t-270 -47zM778 178q122 0 238.5 56.5t201.5 147.5t137 212.5t52 245.5q0 186 -109 300.5
t-290 114.5q-123 0 -239.5 -56.5t-201 -148t-135.5 -212.5t-51 -246q0 -185 108.5 -299.5t288.5 -114.5z" />
    <glyph glyph-name="P" unicode="P" horiz-adv-x="1304" 
d="M883 1434q187 0 296 -98t109 -259q0 -227 -156.5 -376.5t-408.5 -149.5h-340l-117 -551h-209l305 1434h521zM729 741q150 0 242 85.5t92 215.5q0 97 -57.5 149t-157.5 52h-318l-106 -502h305z" />
    <glyph glyph-name="Q" unicode="Q" horiz-adv-x="1699" 
d="M1630 858q0 -193 -87.5 -372t-240.5 -306.5t-339 -175.5q42 -92 202 -92q66 0 152 16v-161q-89 -21 -205 -21q-306 0 -358 234q-269 3 -433.5 166t-164.5 427q0 168 69.5 329t185.5 282.5t277 195.5t334 74q274 0 441 -164.5t167 -431.5zM778 178q122 0 238.5 56.5
t201.5 147.5t137 212.5t52 245.5q0 186 -109 300.5t-290 114.5q-123 0 -239.5 -56.5t-201 -148t-135.5 -212.5t-51 -246q0 -185 108.5 -299.5t288.5 -114.5z" />
    <glyph glyph-name="R" unicode="R" horiz-adv-x="1284" 
d="M1268 1083q0 -166 -106 -293.5t-285 -171.5l223 -618h-219l-209 586h-279l-125 -586h-211l305 1434h506q187 0 293.5 -92.5t106.5 -258.5zM723 772q143 0 233.5 83t90.5 204q0 91 -58.5 139.5t-163.5 48.5h-290l-103 -475h291z" />
    <glyph glyph-name="S" unicode="S" horiz-adv-x="1249" 
d="M1100 442q0 -201 -154.5 -331.5t-404.5 -130.5q-230 0 -348 118t-87 322h209q-11 -122 53 -188t195 -66q137 0 224 72t87 182q0 49 -17.5 85t-61 62.5t-71.5 38.5t-93 34q-5 2 -8 3l-60 19q-289 93 -289 333q0 93 40.5 177t111.5 146.5t172 99t217 36.5q212 0 325.5 -116
t84.5 -296h-211q9 100 -44.5 163t-168.5 63q-124 0 -213.5 -71.5t-89.5 -170.5q0 -20 5 -38t10.5 -32t20.5 -28t23 -22.5t30.5 -20t31 -16t36.5 -15t34.5 -13t37.5 -12.5l49 -16q45 -14 81.5 -29.5t84 -47t80 -69t55.5 -96.5t23 -129z" />
    <glyph glyph-name="T" unicode="T" horiz-adv-x="1191" 
d="M1313 1434l-41 -195h-414l-262 -1239h-217l264 1239h-414l43 195h1041z" />
    <glyph glyph-name="U" unicode="U" horiz-adv-x="1468" 
d="M1499 1434l-188 -887q-59 -277 -237 -422t-433 -145q-125 0 -223 35.5t-163.5 106t-87 177t6.5 248.5l188 887h216l-187 -877q-38 -182 40.5 -280.5t236.5 -98.5t274.5 98t155.5 281l186 877h215z" />
    <glyph glyph-name="V" unicode="V" horiz-adv-x="1366" 
d="M1270 1434h243l-806 -1434h-265l-196 1434h221l149 -1147h17z" />
    <glyph glyph-name="W" unicode="W" horiz-adv-x="1853" 
d="M1786 1434h215l-623 -1434h-245l-82 1057h-15l-530 -1057h-246l-14 1434h203l-3 -1125h15l516 1022h235l78 -1022h15z" />
    <glyph glyph-name="X" unicode="X" horiz-adv-x="1304" 
d="M909 0l-221 559h-14l-459 -559h-274l616 739l-289 695h242l209 -519h14l432 519h265l-584 -695l301 -739h-238z" />
    <glyph glyph-name="Y" unicode="Y" horiz-adv-x="1351" 
d="M1229 1434h270l-682 -772l-141 -662h-215l141 662l-356 772h248l245 -537h15z" />
    <glyph glyph-name="Z" unicode="Z" horiz-adv-x="1273" 
d="M387 195h688l-43 -195h-1016l27 123l932 1106v10h-656l41 195h967l-27 -123l-913 -1106v-10z" />
    <glyph glyph-name="bracketleft" unicode="[" horiz-adv-x="612" 
d="M-16 -346l409 1929h395l-30 -151h-219l-346 -1627h219l-33 -151h-395z" />
    <glyph glyph-name="backslash" unicode="\" horiz-adv-x="1001" 
d="M266 1536h172l381 -1638h-174z" />
    <glyph glyph-name="bracketright" unicode="]" horiz-adv-x="612" 
d="M674 1583l-410 -1929h-397l33 151h217l346 1627h-217l30 151h398z" />
    <glyph glyph-name="asciicircum" unicode="^" 
d="M891 737l-141 486h-15l-350 -486h-227l497 697h242l199 -697h-205z" />
    <glyph glyph-name="underscore" unicode="_" horiz-adv-x="1048" 
d="M-33 0h897l-39 -178h-897z" />
    <glyph glyph-name="grave" unicode="`" horiz-adv-x="659" 
d="M541 1434l84 -297h-158l-100 297h174z" />
    <glyph glyph-name="a" unicode="a" horiz-adv-x="1243" 
d="M1010 1024h209l-220 -1024h-170l11 137h-15q-141 -157 -346 -157q-174 0 -281.5 112.5t-107.5 306.5q0 170 77.5 318.5t214.5 237.5t300 89q111 0 189 -42t112 -105zM532 162q102 0 190 62.5t138.5 165t50.5 216.5q0 121 -58.5 188.5t-162.5 67.5q-103 0 -192.5 -61.5
t-141 -163t-51.5 -215.5q0 -122 61 -191t166 -69z" />
    <glyph glyph-name="b" unicode="b" horiz-adv-x="1241" 
d="M760 1044q175 0 283 -110.5t108 -304.5q0 -170 -77 -319t-213.5 -239.5t-299.5 -90.5q-115 0 -192.5 47t-112.5 110h-14l-47 -137h-170l309 1454h209l-117 -549q135 139 334 139zM553 162q102 0 191.5 62t141.5 163.5t52 214.5q0 121 -61.5 190.5t-167.5 69.5
q-154 0 -266.5 -133t-112.5 -311q0 -121 58.5 -188.5t164.5 -67.5z" />
    <glyph glyph-name="c" unicode="c" horiz-adv-x="1183" 
d="M1067 342q-63 -168 -202 -265t-330 -97q-202 0 -323.5 117t-121.5 309q0 125 50 242.5t134 204.5t200.5 139t242.5 52q68 0 131 -14.5t117 -45t92.5 -74t59 -106t16.5 -136.5h-203q-2 80 -64.5 137t-163.5 57q-104 0 -197 -63t-147.5 -165t-54.5 -214q0 -120 65.5 -189
t188.5 -69q196 0 295 180h215z" />
    <glyph glyph-name="d" unicode="d" horiz-adv-x="1241" 
d="M1102 1454h207l-310 -1454h-170l11 137h-15q-141 -157 -346 -157q-174 0 -281.5 113t-107.5 308q0 127 45.5 244.5t123.5 205.5t188.5 140.5t234.5 52.5q112 0 189 -43.5t112 -105.5zM532 162q102 0 190 62.5t138.5 165t50.5 216.5q0 121 -58.5 188.5t-162.5 67.5
q-103 0 -192.5 -61.5t-141 -163t-51.5 -215.5q0 -122 61 -191t166 -69z" />
    <glyph glyph-name="e" unicode="e" horiz-adv-x="1177" 
d="M1059 459h-758q-25 -136 39.5 -222.5t196.5 -86.5q95 0 168 40t114 117h207q-64 -154 -194.5 -240.5t-311.5 -86.5q-193 0 -312.5 112.5t-119.5 292.5q0 132 48 253.5t128.5 210.5t193 142t236.5 53q175 0 286.5 -98.5t111.5 -281.5q0 -104 -33 -205zM680 874
q-116 0 -212.5 -78.5t-133.5 -189.5h557q23 119 -35 193.5t-176 74.5z" />
    <glyph glyph-name="f" unicode="f" horiz-adv-x="761" 
d="M750 1284q-62 0 -102 -33t-52 -96l-29 -131h248l-35 -168h-248l-184 -856h-207l183 856h-213l34 168h215l31 147q29 137 120.5 210t227.5 73q100 0 176 -33l-67 -153q-44 16 -98 16z" />
    <glyph glyph-name="g" unicode="g" horiz-adv-x="1116" 
d="M362 377q-86 -35 -86 -98q0 -37 32 -56.5t89 -19.5h195q153 0 237 -65t84 -189q0 -161 -144.5 -270t-375.5 -109q-115 0 -201 28.5t-134 78t-69 110t-16 131.5l201 145q-46 23 -71 63.5t-25 90.5q0 72 48.5 131.5t133.5 95.5q-72 78 -72 189q0 112 62.5 206.5t171 149.5
t237.5 55q140 0 232 -61q53 25 110 65t95 80l84 -129q-71 -64 -195 -118q31 -64 31 -138q0 -165 -137 -282t-334 -117q-99 0 -183 33zM645 889q-104 0 -179 -68.5t-75 -165.5q0 -70 47 -111.5t129 -41.5q103 0 175.5 68t72.5 167q0 71 -44.5 111.5t-125.5 40.5zM709 -78
q0 33 -14.5 56.5t-39 35.5t-51.5 17.5t-57 5.5h-185l-192 -137q5 -76 64 -123t180 -47q125 0 210 55t85 137z" />
    <glyph glyph-name="h" unicode="h" horiz-adv-x="1171" 
d="M760 1044q175 0 260 -109t43 -308l-133 -627h-209l127 590q28 134 -22.5 203t-155.5 69q-107 0 -196.5 -73t-119.5 -216l-121 -573h-208l309 1454h209l-119 -553h14q63 67 138.5 105t183.5 38z" />
    <glyph glyph-name="i" unicode="i" horiz-adv-x="473" 
d="M408 1176q-55 0 -95.5 39.5t-40.5 93.5q0 55 40 93t96 38q54 0 92.5 -38t38.5 -93q0 -54 -38.5 -93.5t-92.5 -39.5zM451 1024l-218 -1024h-208l217 1024h209z" />
    <glyph glyph-name="j" unicode="j" horiz-adv-x="475" 
d="M408 1176q-55 0 -95.5 39.5t-40.5 93.5q0 55 40 93t96 38q54 0 92.5 -38t38.5 -93q0 -54 -38.5 -93.5t-92.5 -39.5zM-266 -250q51 -14 98 -14q135 0 162 129l248 1159h209l-252 -1186q-9 -39 -20.5 -70.5t-36.5 -70.5t-59 -65t-89.5 -44t-126.5 -18q-85 0 -166 22z" />
    <glyph glyph-name="k" unicode="k" horiz-adv-x="1071" 
d="M1139 1024l-506 -412l289 -612h-213l-236 483l-166 -135l-74 -348h-208l309 1454h209l-176 -827h16l500 397h256z" />
    <glyph glyph-name="l" unicode="l" horiz-adv-x="473" 
d="M334 1454h209l-310 -1454h-208z" />
    <glyph glyph-name="m" unicode="m" horiz-adv-x="1712" 
d="M1341 1044q161 0 236.5 -95t38.5 -273l-143 -676h-209l135 639q23 110 -21 166.5t-129 56.5q-94 0 -168.5 -68t-97.5 -178l-131 -616h-209l133 629q24 111 -19.5 172t-125.5 61q-85 0 -163 -63t-103 -178l-132 -621h-208l217 1024h188l-6 -121h14q130 141 297 141
q115 0 175 -52t77 -122h10q138 174 344 174z" />
    <glyph glyph-name="n" unicode="n" horiz-adv-x="1171" 
d="M760 1044q175 0 260 -109t43 -308l-133 -627h-209l127 590q28 134 -22.5 203t-155.5 69q-107 0 -196.5 -73t-119.5 -216l-121 -573h-208l217 1024h188l-6 -123h14q63 67 138.5 105t183.5 38z" />
    <glyph glyph-name="o" unicode="o" horiz-adv-x="1259" 
d="M541 -20q-201 0 -325 120t-124 316q0 165 85.5 309.5t232 231.5t315.5 87q199 0 320.5 -119.5t121.5 -314.5q0 -164 -84 -309t-229 -233t-313 -88zM555 162q104 0 197.5 61t149.5 161.5t56 211.5q0 118 -67 192t-184 74q-105 0 -198.5 -60.5t-148.5 -160.5t-55 -211
q0 -119 67 -193.5t183 -74.5z" />
    <glyph glyph-name="p" unicode="p" horiz-adv-x="1241" 
d="M762 1044q174 0 281.5 -113t107.5 -308q0 -127 -45.5 -244.5t-123.5 -205.5t-188.5 -140.5t-234.5 -52.5q-111 0 -188.5 44t-110.5 105l-115 -539h-208l305 1434h170l-11 -137h15q141 157 346 157zM553 162q102 0 191.5 61.5t141.5 163t52 215.5q0 122 -62 191t-167 69
q-102 0 -190 -62.5t-138.5 -165t-50.5 -216.5q0 -121 58.5 -188.5t164.5 -67.5z" />
    <glyph glyph-name="q" unicode="q" horiz-adv-x="1241" 
d="M1047 1024h170l-304 -1434h-208l112 529q-139 -139 -336 -139q-175 0 -283 110.5t-108 304.5q0 170 77 319t213.5 239.5t299.5 90.5q115 0 192.5 -47t112.5 -110h14zM532 162q154 0 266.5 133t112.5 311q0 121 -58.5 188.5t-162.5 67.5q-155 0 -271 -133.5t-116 -306.5
q0 -121 61.5 -190.5t167.5 -69.5z" />
    <glyph glyph-name="r" unicode="r" horiz-adv-x="755" 
d="M756 1044h75l-45 -208q-50 6 -98 6q-134 0 -225 -93t-121 -233l-109 -516h-208l217 1024h188l-10 -143h14q67 84 138 123.5t184 39.5z" />
    <glyph glyph-name="s" unicode="s" horiz-adv-x="1001" 
d="M854 332q0 -163 -116 -257.5t-316 -94.5q-199 0 -293 91t-72 246h201q-11 -93 39 -135.5t141 -42.5q90 0 149.5 43t59.5 113q0 57 -41.5 87.5t-118.5 53.5l-55 17q-54 15 -96.5 34.5t-81 48t-59.5 70.5t-21 94q0 150 117.5 247t298.5 97q94 0 164.5 -25t109 -67.5
t54.5 -95t8 -111.5h-199q6 62 -35.5 101t-118.5 39q-82 0 -137 -45t-55 -111q0 -21 9.5 -38t19.5 -27t36 -21.5t40.5 -16.5t50.5 -16l49 -14q268 -76 268 -264z" />
    <glyph glyph-name="t" unicode="t" horiz-adv-x="763" 
d="M834 1024l-35 -168h-260l-123 -580q-12 -60 8.5 -94.5t95.5 -34.5q49 0 105 17l-35 -162q-90 -22 -154 -22q-57 0 -101.5 11.5t-71 32.5t-43.5 46.5t-22.5 57t-4.5 60.5t8 60l129 608h-219l34 168h72q88 0 134.5 34t64.5 120l26 125h191l-60 -279h261z" />
    <glyph glyph-name="u" unicode="u" horiz-adv-x="1171" 
d="M410 -20q-174 0 -259 109.5t-42 307.5l133 627h209l-127 -590q-28 -134 21.5 -203t154.5 -69q109 0 198 73t119 216l121 573h209l-217 -1024h-189l7 123h-15q-66 -68 -140 -105.5t-183 -37.5z" />
    <glyph glyph-name="v" unicode="v" horiz-adv-x="1116" 
d="M963 1024h223l-608 -1024h-254l-177 1024h209l127 -807h15z" />
    <glyph glyph-name="w" unicode="w" horiz-adv-x="1517" 
d="M1384 1024h203l-485 -1024h-236l-55 723h-14l-365 -723h-235l-50 1024h189l20 -784h15l362 712h223l60 -714h14z" />
    <glyph glyph-name="x" unicode="x" horiz-adv-x="1054" 
d="M680 0l-162 371h-16l-322 -371h-250l469 528l-225 496h225l150 -334h14l287 334h246l-430 -496l241 -528h-227z" />
    <glyph glyph-name="y" unicode="y" horiz-adv-x="1116" 
d="M1186 1024l-674 -1171q-17 -30 -24.5 -43t-32 -49t-44.5 -56t-56 -49.5t-72 -45.5t-86.5 -28t-106.5 -12q-79 0 -160 22l33 158q61 -14 107 -14q151 0 243 147l72 117h-59l-179 1024h207l133 -809h15l459 809h225z" />
    <glyph glyph-name="z" unicode="z" horiz-adv-x="1001" 
d="M324 164h501l-34 -164h-799l20 104l656 744v12h-465l33 164h761l-22 -104l-651 -744v-12z" />
    <glyph glyph-name="braceleft" unicode="{" horiz-adv-x="591" 
d="M449 848q-19 -85 -70 -139.5t-117 -83.5v-13q50 -28 78 -83.5t10 -139.5l-98 -461q-25 -123 88 -123h51l-35 -151h-75q-124 0 -179.5 64.5t-29.5 183.5l100 469q18 83 -8.5 127t-104.5 51l29 139q82 7 127 49.5t64 128.5l98 469q51 248 291 248h100l-33 -151h-51
q-50 0 -87 -30.5t-50 -92.5z" />
    <glyph glyph-name="bar" unicode="|" horiz-adv-x="524" 
d="M584 1577l-396 -1864h-190l395 1864h191z" />
    <glyph glyph-name="braceright" unicode="}" horiz-adv-x="589" 
d="M186 389q34 155 187 223v13q-50 28 -78 83.5t-10 139.5l98 461q25 123 -86 123h-51l33 151h75q124 0 180 -64.5t31 -183.5l-100 -469q-18 -84 7.5 -127.5t105.5 -50.5l-31 -139q-82 -7 -126 -49.5t-63 -128.5l-98 -469q-54 -248 -291 -248h-102l35 151h51q50 0 87 30.5
t50 92.5z" />
    <glyph glyph-name="asciitilde" unicode="~" 
d="M1159 739q-46 -155 -139 -255.5t-229 -100.5q-69 0 -122 21.5t-85 52.5t-60 61.5t-62.5 52t-76.5 21.5q-69 0 -116.5 -51t-73.5 -131h-170q48 156 140.5 256t229.5 100q68 0 120.5 -21.5t84.5 -52t60 -61.5t62.5 -52.5t76.5 -21.5q70 0 118 51.5t74 130.5h168z" />
    <glyph glyph-name="uni00A0" unicode="&#xa0;" horiz-adv-x="512" 
 />
    <glyph glyph-name="exclamdown" unicode="&#xa1;" horiz-adv-x="546" 
d="M356 1034q55 0 95.5 -39.5t40.5 -93.5q0 -57 -40 -96t-96 -39t-94.5 39t-38.5 96q0 54 39 93.5t94 39.5zM188 -410h-215l252 1028h146z" />
    <glyph glyph-name="cent" unicode="&#xa2;" horiz-adv-x="1101" 
d="M901 809q-2 62 -42.5 110.5t-110.5 65.5l-138 -649q138 23 217 162h205q-57 -149 -176 -239.5t-285 -100.5l-32 -156h-172l34 168q-139 32 -218 135.5t-79 253.5q0 221 146.5 394.5t361.5 207.5l33 152h172l-33 -152q143 -23 231 -113.5t81 -238.5h-195zM307 571
q0 -83 34 -141t99 -82l131 623q-113 -43 -188.5 -156t-75.5 -244z" />
    <glyph glyph-name="sterling" unicode="&#xa3;" horiz-adv-x="1253" 
d="M823 1149q-130 0 -217.5 -73t-87.5 -179q0 -26 8.5 -55.5t14.5 -43t28 -53t25 -45.5h418l-33 -153h-338v-12q0 -207 -252 -355v-10h655l-34 -170h-994l27 129q59 19 118.5 50.5t117.5 78t94.5 112t36.5 138.5q0 7 -1 20t-1 19h-277l35 153h184q-57 120 -57 199
q0 188 151 310t385 122q156 0 268.5 -64.5t147.5 -160.5l-170 -117q-70 160 -252 160z" />
    <glyph glyph-name="currency" unicode="&#xa4;" horiz-adv-x="1269" 
d="M1057 756q37 -70 37 -160q0 -187 -133 -336l122 -154l-157 -126l-121 155q-122 -67 -254 -67q-137 0 -236 77l-202 -165l-99 126l199 164q-37 70 -37 160q0 187 131 334l-121 154l154 126l125 -155q122 67 256 67q136 0 233 -75l199 163l104 -126zM373 461q0 -87 58 -146
t151 -59q120 0 217.5 95.5t97.5 213.5q0 86 -57.5 144.5t-149.5 58.5q-121 0 -219 -95t-98 -212z" />
    <glyph glyph-name="yen" unicode="&#xa5;" horiz-adv-x="1232" 
d="M1354 1311l-443 -484h260l-34 -163h-375l-43 -205h373l-33 -162h-375l-63 -297h-226l64 297h-373l33 162h375l43 205h-373l35 163h260l-240 484h236l217 -447h14l408 447h260z" />
    <glyph glyph-name="brokenbar" unicode="&#xa6;" horiz-adv-x="524" 
d="M393 1577h191l-154 -727h-190zM-2 -287l154 727h190l-154 -727h-190z" />
    <glyph glyph-name="section" unicode="&#xa7;" horiz-adv-x="1247" 
d="M819 201q70 -30 114 -85.5t44 -133.5q0 -180 -153.5 -296t-391.5 -116q-230 0 -341 116t-73 285h199q-16 -96 48 -159.5t194 -63.5q133 0 220 60.5t87 152.5q0 41 -23.5 70.5t-68.5 47.5t-85.5 27t-99.5 17q-176 28 -274 109.5t-98 207.5q0 125 84 224t227 147v12
q-70 30 -113 85t-43 134q0 180 153.5 296t391.5 116q152 0 256 -55.5t143.5 -146t14.5 -199.5h-201q16 98 -47.5 161.5t-194.5 63.5q-132 0 -219.5 -61.5t-87.5 -153.5q0 -34 18 -60.5t43 -42t66.5 -28.5t72 -18.5t77.5 -12.5q176 -28 274 -109.5t98 -207.5
q0 -127 -83.5 -225t-225.5 -146zM594 291q133 0 228.5 75.5t95.5 180.5q0 84 -78.5 135t-186.5 51q-132 0 -226.5 -76t-94.5 -180q0 -84 77 -135t185 -51z" />
    <glyph glyph-name="dieresis" unicode="&#xa8;" horiz-adv-x="968" 
d="M451 1133q-51 0 -87 36.5t-36 87.5t36 86t87 35t86.5 -35t35.5 -86t-35.5 -87.5t-86.5 -36.5zM838 1133q-50 0 -85.5 36.5t-35.5 87.5t35.5 86t85.5 35q51 0 85.5 -35t34.5 -86t-34.5 -87.5t-85.5 -36.5z" />
    <glyph glyph-name="copyright" unicode="&#xa9;" horiz-adv-x="1765" 
d="M928 -20q-202 0 -373 97.5t-271 267.5t-100 372t100 372t271 267.5t373 97.5q200 0 370.5 -97.5t270.5 -267.5t100 -372t-100 -372t-270.5 -267.5t-370.5 -97.5zM926 113q122 0 234 47.5t193.5 128t130 192.5t48.5 236t-48.5 236t-130 192.5t-193.5 128t-234 47.5
q-164 0 -303 -80.5t-220 -219.5t-81 -304t81 -304t220 -219.5t303 -80.5zM1239 592q-13 -118 -100 -182t-209 -64q-158 0 -249 100.5t-91 268.5q0 164 94.5 266t241.5 102q123 0 205 -61.5t98 -187.5h-160q-27 110 -143 110q-77 0 -124.5 -64.5t-47.5 -168.5
q0 -105 48.5 -165.5t131.5 -60.5q57 0 96 30t51 77h158z" />
    <glyph glyph-name="guillemotleft" unicode="&#xab;" horiz-adv-x="1134" 
d="M252 197l-184 413l360 414h238l-371 -422l180 -405h-223zM727 197l-184 413l360 414h238l-371 -422l180 -405h-223z" />
    <glyph glyph-name="logicalnot" unicode="&#xac;" 
d="M975 291h-180l82 393h-730l35 164h912z" />
    <glyph glyph-name="uni00AD" unicode="&#xad;" horiz-adv-x="913" 
d="M121 725h764l-39 -176h-762z" />
    <glyph glyph-name="registered" unicode="&#xae;" horiz-adv-x="1765" 
d="M928 1454q200 0 370.5 -97.5t270.5 -267.5t100 -372t-100 -372t-270.5 -267.5t-370.5 -97.5q-202 0 -373 97.5t-271 267.5t-100 372t100 372t271 267.5t373 97.5zM926 113q122 0 234 47.5t193.5 128t130 192.5t48.5 236t-48.5 236t-130 192.5t-193.5 128t-234 47.5
q-164 0 -303 -80.5t-220 -219.5t-81 -304t81 -304t220 -219.5t303 -80.5zM1186 856q0 -66 -33.5 -118.5t-93.5 -78.5l164 -301h-156l-145 271h-101v-271h-143v717h283q105 0 165 -59t60 -160zM821 950v-196h115q49 0 76.5 28t27.5 72t-27 70t-77 26h-115z" />
    <glyph glyph-name="macron" unicode="&#xaf;" horiz-adv-x="970" 
d="M340 1329h639l-31 -147h-639z" />
    <glyph glyph-name="degree" unicode="&#xb0;" horiz-adv-x="878" 
d="M569 793q-136 0 -233.5 96.5t-97.5 234.5q0 137 97.5 233.5t233.5 96.5q135 0 233.5 -96.5t98.5 -233.5q0 -138 -98.5 -234.5t-233.5 -96.5zM569 950q76 0 124 49t48 125q0 75 -48 123.5t-124 48.5q-74 0 -123 -48.5t-49 -123.5t49 -124.5t123 -49.5z" />
    <glyph glyph-name="plusminus" unicode="&#xb1;" 
d="M735 807h363l-35 -164h-363l-71 -340h-187l72 340h-362l32 164h365l72 336h186zM12 0l37 172h914l-37 -172h-914z" />
    <glyph glyph-name="uni00B2" unicode="&#xb2;" horiz-adv-x="802" 
d="M516 963q-99 -63 -110 -146h389v-119h-557v50q0 96 46.5 172.5t127.5 128.5l127 77q34 22 53 36.5t38 43.5t19 62q0 47 -34 77.5t-87 30.5q-64 0 -101 -40.5t-40 -92.5h-147q2 46 21 89.5t54 81t93 60.5t129 23q118 0 189 -60.5t71 -162.5q0 -45 -14 -83t-37 -63.5
t-43.5 -42t-42.5 -30.5q-5 -3 -7 -4z" />
    <glyph glyph-name="uni00B3" unicode="&#xb3;" horiz-adv-x="800" 
d="M680 1102q63 -21 99 -68.5t36 -113.5q0 -101 -84.5 -167.5t-218.5 -66.5q-131 0 -207.5 65t-85.5 177h143q10 -56 47 -88.5t103 -32.5q69 0 112.5 33t43.5 86q0 54 -41 86t-109 32h-80v109h76q59 0 95 30.5t36 84.5q0 51 -36.5 80.5t-96.5 29.5q-53 0 -91 -27t-50 -77
h-140q6 97 90 159t197 62t193 -60t80 -159q0 -112 -111 -166v-8z" />
    <glyph glyph-name="acute" unicode="&#xb4;" horiz-adv-x="659" 
d="M506 1434h190l-229 -297h-174z" />
    <glyph glyph-name="uni00B5" unicode="&#xb5;" horiz-adv-x="1171" 
d="M938 1024h209l-217 -1024h-189l7 123h-15q-66 -68 -140 -105.5t-183 -37.5q-106 0 -179 53l-94 -443h-200l305 1434h209l-127 -590q-28 -134 21.5 -203t154.5 -69q109 0 198 73t119 216z" />
    <glyph glyph-name="paragraph" unicode="&#xb6;" horiz-adv-x="1400" 
d="M207 967q0 93 41.5 179t110.5 149t164 101t198 38h801l-37 -183h-185l-264 -1251h-194l264 1251h-227l-265 -1251h-196l139 662q-154 0 -252 83.5t-98 221.5z" />
    <glyph glyph-name="periodcentered" unicode="&#xb7;" horiz-adv-x="423" 
d="M240 502q-55 0 -95.5 39.5t-40.5 93.5q0 57 40 97t96 40q55 0 94 -40t39 -97q0 -54 -39 -93.5t-94 -39.5z" />
    <glyph glyph-name="cedilla" unicode="&#xb8;" horiz-adv-x="698" 
d="M35 -295q51 -35 102 -35q48 0 81.5 28t33.5 69q0 26 -21.5 42.5t-62.5 16.5q-28 0 -74 -16l-55 57l133 153h109v-20l-80 -90q67 5 119.5 -34.5t52.5 -104.5q0 -91 -68 -146t-178 -55q-99 0 -152 45z" />
    <glyph glyph-name="uni00B9" unicode="&#xb9;" horiz-adv-x="544" 
d="M391 696v529h-172v116h80q54 0 80.5 28t26.5 77v39h131v-789h-146z" />
    <glyph glyph-name="guillemotright" unicode="&#xbb;" horiz-adv-x="1134" 
d="M446 1024l183 -414l-359 -413h-237l370 421l-180 406h223zM922 1024l182 -414l-359 -413h-237l371 421l-181 406h224z" />
    <glyph glyph-name="onequarter" unicode="&#xbc;" horiz-adv-x="1849" 
d="M504 645v529h-172v116h80q54 0 81 28t27 77v39h129v-789h-145zM1544 1434l-1024 -1434h-172l1024 1434h172zM1612 283v-109h-146v-174h-137v174h-383v72l375 542h145v-505h146zM1112 283h217v317h-8z" />
    <glyph glyph-name="onehalf" unicode="&#xbd;" horiz-adv-x="1972" 
d="M498 645v529h-172v116h80q54 0 80 28t26 77v39h131v-789h-145zM1538 1434l-1024 -1434h-170l1024 1434h170zM1419 264q-99 -61 -110 -145h389v-119h-557v49q0 96 46 172.5t126 128.5l129 78q27 18 39 27.5t32 28t28.5 39.5t8.5 46q0 48 -33 78.5t-87 30.5q-63 0 -100 -41
t-40 -92h-147q2 45 21 89t54 81.5t92 60.5t128 23q118 0 190 -61t72 -163q0 -45 -13.5 -82.5t-38.5 -64t-43 -41t-43 -30.5q-6 -3 -8 -5z" />
    <glyph glyph-name="threequarters" unicode="&#xbe;" horiz-adv-x="1970" 
d="M768 1051q63 -21 99 -69t36 -114q0 -101 -84.5 -167t-218.5 -66q-131 0 -207.5 65t-85.5 177h144q21 -121 149 -121q68 0 112 33t44 85q0 54 -41 86.5t-109 32.5h-80v109h74q59 0 96 30.5t37 84.5q0 50 -37 80t-96 30q-53 0 -92 -27.5t-49 -76.5h-140q4 97 88 159t199 62
q113 0 192 -60t79 -159q0 -112 -109 -166v-8zM1667 1434l-1024 -1434h-170l1024 1434h170zM1735 283v-109h-148v-174h-135v174h-383v72l373 542h145v-505h148zM1235 283h217v317h-10z" />
    <glyph glyph-name="questiondown" unicode="&#xbf;" horiz-adv-x="952" 
d="M596 1034q55 0 95 -39.5t40 -93.5q0 -57 -39.5 -96t-95.5 -39t-94.5 39t-38.5 96q0 54 39 93.5t94 39.5zM616 522q-26 -121 -80 -207t-174 -165q-117 -76 -168 -132t-51 -135q0 -65 39.5 -100t114.5 -35q93 0 152 56.5t86 140.5h198q-13 -54 -35 -104t-59.5 -100.5
t-86 -87.5t-119.5 -60t-154 -23q-154 0 -245 76.5t-91 208.5q0 44 10.5 85.5t25 73t41 64.5t46.5 53.5t55 48t53 39.5t53 35q94 62 139 127t64 156l16 81h191z" />
    <glyph glyph-name="Agrave" unicode="&#xc0;" horiz-adv-x="1374" 
d="M989 1546h-158l-100 297h172zM991 0l-47 375h-557l-207 -375h-239l811 1434h264l198 -1434h-223zM485 557h437l-78 625h-15z" />
    <glyph glyph-name="Aacute" unicode="&#xc1;" horiz-adv-x="1374" 
d="M1225 1843l-230 -297h-174l211 297h193zM752 1434h264l198 -1434h-223l-47 375h-557l-207 -375h-239zM485 557h437l-78 625h-15z" />
    <glyph glyph-name="Acircumflex" unicode="&#xc2;" horiz-adv-x="1374" 
d="M946 1718l-149 -170h-193l277 295h180l151 -295h-174l-77 170h-15zM991 0l-47 375h-557l-207 -375h-239l811 1434h264l198 -1434h-223zM485 557h437l-78 625h-15z" />
    <glyph glyph-name="Atilde" unicode="&#xc3;" horiz-adv-x="1374" 
d="M1184 1784h143q-31 -111 -95.5 -183.5t-158.5 -72.5q-44 0 -79 13.5t-57.5 32t-42 37.5t-42 32.5t-47.5 13.5q-83 0 -119 -113h-143q33 114 97 186t161 72q55 0 97 -20t62.5 -43.5t48 -43.5t58.5 -20q43 0 73.5 31.5t43.5 77.5zM752 1434h264l198 -1434h-223l-47 375
h-557l-207 -375h-239zM485 557h437l-78 625h-15z" />
    <glyph glyph-name="Adieresis" unicode="&#xc4;" horiz-adv-x="1374" 
d="M702 1561q-56 0 -95.5 39t-39.5 94q0 57 39.5 96t95.5 39t96 -39t40 -96q0 -55 -40 -94t-96 -39zM1180 1829q57 0 96 -39t39 -96q0 -56 -39 -94.5t-96 -38.5q-54 0 -93.5 39t-39.5 94q0 56 39.5 95.5t93.5 39.5zM752 1434h264l198 -1434h-223l-47 375h-557l-207 -375
h-239zM485 557h437l-78 625h-15z" />
    <glyph glyph-name="Aring" unicode="&#xc5;" horiz-adv-x="1374" 
d="M944 1511q-83 0 -142 59.5t-59 139.5t59 138.5t142 58.5t143 -58.5t60 -138.5t-60 -139.5t-143 -59.5zM946 1788q-34 0 -57 -23t-23 -55q0 -34 22.5 -58t57.5 -24q32 0 55 24t23 58q0 31 -23 54.5t-55 23.5zM991 0l-47 375h-557l-207 -375h-239l811 1434h264l198 -1434
h-223zM485 557h437l-78 625h-15z" />
    <glyph glyph-name="AE" unicode="&#xc6;" horiz-adv-x="2097" 
d="M2144 1243h-686l-90 -422h588l-41 -186h-586l-94 -445h704l-41 -190h-915l80 375h-537l-321 -375h-264l1226 1434h1016zM1102 557l133 625h-16l-537 -625h420z" />
    <glyph glyph-name="Ccedilla" unicode="&#xc7;" horiz-adv-x="1554" 
d="M987 1255q-118 0 -230 -56.5t-194 -149t-132 -216.5t-50 -253q0 -186 99 -294t276 -108q147 0 265 73t181 193h240q-82 -210 -262.5 -334t-417.5 -130l-64 -70q67 5 119.5 -34.5t52.5 -104.5q0 -91 -67.5 -146t-175.5 -55q-97 0 -154 45l59 90q54 -35 103 -35
q50 0 83.5 28t33.5 69q0 26 -22 42.5t-64 16.5q-28 0 -74 -16l-55 57l102 119q-227 28 -356 179t-129 392q0 140 42.5 274.5t121 246t183 196.5t235.5 132.5t270 47.5q152 0 272.5 -54.5t190.5 -164t63 -256.5h-221q-9 126 -97 201t-227 75z" />
    <glyph glyph-name="Egrave" unicode="&#xc8;" horiz-adv-x="1202" 
d="M844 1843l86 -297h-158l-100 297h172zM307 190h737l-40 -190h-947l305 1434h926l-39 -191h-717l-90 -422h625l-41 -186h-625z" />
    <glyph glyph-name="Eacute" unicode="&#xc9;" horiz-adv-x="1202" 
d="M975 1843h192l-229 -297h-174zM307 190h737l-40 -190h-947l305 1434h926l-39 -191h-717l-90 -422h625l-41 -186h-625z" />
    <glyph glyph-name="Ecircumflex" unicode="&#xca;" horiz-adv-x="1202" 
d="M739 1548h-192l276 295h181l151 -295h-174l-78 170h-14zM307 190h737l-40 -190h-947l305 1434h926l-39 -191h-717l-90 -422h625l-41 -186h-625z" />
    <glyph glyph-name="Edieresis" unicode="&#xcb;" horiz-adv-x="1202" 
d="M645 1561q-56 0 -95.5 39t-39.5 94q0 57 39.5 96t95.5 39t95.5 -39t39.5 -96q0 -55 -39.5 -94t-95.5 -39zM1122 1561q-54 0 -93.5 39t-39.5 94q0 56 39.5 95.5t93.5 39.5q57 0 96 -39t39 -96q0 -56 -39 -94.5t-96 -38.5zM307 190h737l-40 -190h-947l305 1434h926
l-39 -191h-717l-90 -422h625l-41 -186h-625z" />
    <glyph glyph-name="Igrave" unicode="&#xcc;" horiz-adv-x="546" 
d="M487 1843l86 -297h-157l-101 297h172zM578 1434l-306 -1434h-215l305 1434h216z" />
    <glyph glyph-name="Iacute" unicode="&#xcd;" horiz-adv-x="546" 
d="M618 1843h193l-229 -297h-174zM578 1434l-306 -1434h-215l305 1434h216z" />
    <glyph glyph-name="Icircumflex" unicode="&#xce;" horiz-adv-x="546" 
d="M383 1548h-193l277 295h180l152 -295h-174l-78 170h-15zM578 1434l-306 -1434h-215l305 1434h216z" />
    <glyph glyph-name="Idieresis" unicode="&#xcf;" horiz-adv-x="546" 
d="M289 1561q-56 0 -95.5 39t-39.5 94q0 57 39.5 96t95.5 39t95.5 -39t39.5 -96q0 -55 -39.5 -94t-95.5 -39zM766 1561q-54 0 -93.5 39t-39.5 94q0 56 39.5 95.5t93.5 39.5q57 0 96 -39t39 -96q0 -56 -39 -94.5t-96 -38.5zM578 1434l-306 -1434h-215l305 1434h216z" />
    <glyph glyph-name="Eth" unicode="&#xd0;" horiz-adv-x="1458" 
d="M809 1434q279 0 429.5 -143.5t150.5 -413.5q0 -179 -61.5 -339.5t-171 -279.5t-270.5 -188.5t-349 -69.5h-480l136 635h-236l33 162h237l135 637h447zM553 195q178 0 319 91t217 242.5t76 331.5q0 71 -13.5 128t-35.5 96t-54.5 68t-65.5 45t-74 26t-74.5 13t-71.5 3h-239
l-95 -442h363l-33 -162h-364l-95 -440h240z" />
    <glyph glyph-name="Ntilde" unicode="&#xd1;" horiz-adv-x="1505" 
d="M1391 1784q-31 -111 -95.5 -183.5t-158.5 -72.5q-44 0 -79.5 13.5t-58 32t-42 37.5t-42 32.5t-47.5 13.5q-82 0 -118 -113h-144q33 114 97 186t161 72q55 0 97 -20t62.5 -43.5t48 -43.5t58.5 -20q43 0 73.5 31.5t43.5 77.5h144zM1325 1434h211l-305 -1434h-205l-518 1063
h-14l-226 -1063h-211l305 1434h205l516 -1065h15z" />
    <glyph glyph-name="Ograve" unicode="&#xd2;" horiz-adv-x="1699" 
d="M1065 1843l86 -297h-158l-100 297h172zM764 -20q-273 0 -440.5 163.5t-167.5 429.5q0 168 69.5 329t185.5 282.5t277 195.5t334 74q274 0 441 -164.5t167 -431.5q0 -135 -44.5 -267t-126 -241t-187.5 -192.5t-238 -130.5t-270 -47zM778 178q122 0 238.5 56.5t201.5 147.5
t137 212.5t52 245.5q0 186 -109 300.5t-290 114.5q-123 0 -239.5 -56.5t-201 -148t-135.5 -212.5t-51 -246q0 -185 108.5 -299.5t288.5 -114.5z" />
    <glyph glyph-name="Oacute" unicode="&#xd3;" horiz-adv-x="1699" 
d="M1194 1843h192l-229 -297h-174zM764 -20q-273 0 -440.5 163.5t-167.5 429.5q0 168 69.5 329t185.5 282.5t277 195.5t334 74q274 0 441 -164.5t167 -431.5q0 -135 -44.5 -267t-126 -241t-187.5 -192.5t-238 -130.5t-270 -47zM778 178q122 0 238.5 56.5t201.5 147.5
t137 212.5t52 245.5q0 186 -109 300.5t-290 114.5q-123 0 -239.5 -56.5t-201 -148t-135.5 -212.5t-51 -246q0 -185 108.5 -299.5t288.5 -114.5z" />
    <glyph glyph-name="Ocircumflex" unicode="&#xd4;" horiz-adv-x="1699" 
d="M958 1548h-192l276 295h181l151 -295h-174l-78 170h-14zM764 -20q-273 0 -440.5 163.5t-167.5 429.5q0 168 69.5 329t185.5 282.5t277 195.5t334 74q274 0 441 -164.5t167 -431.5q0 -135 -44.5 -267t-126 -241t-187.5 -192.5t-238 -130.5t-270 -47zM778 178
q122 0 238.5 56.5t201.5 147.5t137 212.5t52 245.5q0 186 -109 300.5t-290 114.5q-123 0 -239.5 -56.5t-201 -148t-135.5 -212.5t-51 -246q0 -185 108.5 -299.5t288.5 -114.5z" />
    <glyph glyph-name="Otilde" unicode="&#xd5;" horiz-adv-x="1699" 
d="M1489 1784q-31 -111 -95.5 -183.5t-158.5 -72.5q-44 0 -79 13.5t-57.5 32t-42 37.5t-42 32.5t-47.5 13.5q-83 0 -119 -113h-143q33 114 97 186t161 72q55 0 97 -20t62.5 -43.5t48 -43.5t58.5 -20q43 0 73.5 31.5t43.5 77.5h143zM764 -20q-273 0 -440.5 163.5
t-167.5 429.5q0 168 69.5 329t185.5 282.5t277 195.5t334 74q274 0 441 -164.5t167 -431.5q0 -135 -44.5 -267t-126 -241t-187.5 -192.5t-238 -130.5t-270 -47zM778 178q122 0 238.5 56.5t201.5 147.5t137 212.5t52 245.5q0 186 -109 300.5t-290 114.5q-123 0 -239.5 -56.5
t-201 -148t-135.5 -212.5t-51 -246q0 -185 108.5 -299.5t288.5 -114.5z" />
    <glyph glyph-name="Odieresis" unicode="&#xd6;" horiz-adv-x="1699" 
d="M864 1561q-56 0 -95.5 39t-39.5 94q0 57 39.5 96t95.5 39t95.5 -39t39.5 -96q0 -55 -39.5 -94t-95.5 -39zM1341 1561q-54 0 -93.5 39t-39.5 94q0 56 39 95.5t94 39.5q57 0 96.5 -39t39.5 -96q0 -56 -39.5 -94.5t-96.5 -38.5zM764 -20q-273 0 -440.5 163.5t-167.5 429.5
q0 168 69.5 329t185.5 282.5t277 195.5t334 74q274 0 441 -164.5t167 -431.5q0 -135 -44.5 -267t-126 -241t-187.5 -192.5t-238 -130.5t-270 -47zM778 178q122 0 238.5 56.5t201.5 147.5t137 212.5t52 245.5q0 186 -109 300.5t-290 114.5q-123 0 -239.5 -56.5t-201 -148
t-135.5 -212.5t-51 -246q0 -185 108.5 -299.5t288.5 -114.5z" />
    <glyph glyph-name="multiply" unicode="&#xd7;" 
d="M1116 893l-399 -322l260 -319l-148 -121l-262 320l-399 -322l-100 125l399 321l-260 320l145 121l262 -322l402 324z" />
    <glyph glyph-name="Oslash" unicode="&#xd8;" horiz-adv-x="1699" 
d="M1675 1434l-174 -185q129 -160 129 -391q0 -135 -44.5 -267t-126 -241t-187.5 -192.5t-238 -130.5t-270 -47q-216 0 -369 104l-174 -184l-112 96l178 188q-131 156 -131 389q0 168 69.5 329t185.5 282.5t277 195.5t334 74q217 0 367 -104l172 182zM373 590
q0 -143 65 -246l807 854q-101 66 -235 66q-167 0 -315 -96.5t-235 -252t-87 -325.5zM1415 842q0 145 -65 248l-809 -852q100 -68 235 -68q124 0 242.5 57t205 149.5t139 215.5t52.5 250z" />
    <glyph glyph-name="Ugrave" unicode="&#xd9;" horiz-adv-x="1468" 
d="M950 1843l86 -297h-157l-101 297h172zM1499 1434l-188 -887q-59 -277 -237 -422t-433 -145q-125 0 -223 35.5t-163.5 106t-87 177t6.5 248.5l188 887h216l-187 -877q-38 -182 40.5 -280.5t236.5 -98.5t274.5 98t155.5 281l186 877h215z" />
    <glyph glyph-name="Uacute" unicode="&#xda;" horiz-adv-x="1468" 
d="M1079 1843h193l-230 -297h-174zM1499 1434l-188 -887q-59 -277 -237 -422t-433 -145q-125 0 -223 35.5t-163.5 106t-87 177t6.5 248.5l188 887h216l-187 -877q-38 -182 40.5 -280.5t236.5 -98.5t274.5 98t155.5 281l186 877h215z" />
    <glyph glyph-name="Ucircumflex" unicode="&#xdb;" horiz-adv-x="1468" 
d="M844 1548h-193l277 295h180l152 -295h-175l-77 170h-15zM1499 1434l-188 -887q-59 -277 -237 -422t-433 -145q-125 0 -223 35.5t-163.5 106t-87 177t6.5 248.5l188 887h216l-187 -877q-38 -182 40.5 -280.5t236.5 -98.5t274.5 98t155.5 281l186 877h215z" />
    <glyph glyph-name="Udieresis" unicode="&#xdc;" horiz-adv-x="1468" 
d="M750 1561q-56 0 -96 39t-40 94q0 57 40 96t96 39t95.5 -39t39.5 -96q0 -55 -39.5 -94t-95.5 -39zM1227 1561q-54 0 -93.5 39t-39.5 94q0 56 39 95.5t94 39.5q57 0 96 -39t39 -96q0 -56 -39 -94.5t-96 -38.5zM1499 1434l-188 -887q-59 -277 -237 -422t-433 -145
q-125 0 -223 35.5t-163.5 106t-87 177t6.5 248.5l188 887h216l-187 -877q-38 -182 40.5 -280.5t236.5 -98.5t274.5 98t155.5 281l186 877h215z" />
    <glyph glyph-name="Yacute" unicode="&#xdd;" horiz-adv-x="1351" 
d="M1020 1843h192l-229 -297h-174zM1229 1434h270l-682 -772l-141 -662h-215l141 662l-356 772h248l245 -537h15z" />
    <glyph glyph-name="Thorn" unicode="&#xde;" horiz-adv-x="1304" 
d="M825 1157q186 0 295 -97.5t109 -258.5q0 -227 -155.5 -377t-407.5 -150h-340l-60 -274h-209l305 1434h209l-59 -277h313zM670 465q150 0 242 85.5t92 215.5q0 97 -58 149t-158 52h-317l-106 -502h305z" />
    <glyph glyph-name="germandbls" unicode="&#xdf;" horiz-adv-x="1159" 
d="M840 760q90 -30 144 -100.5t54 -184.5q0 -220 -132 -357.5t-353 -137.5q-109 0 -199 28l35 162q77 -25 150 -25q129 0 215 93t86 233q0 188 -252 188h-94l34 166h80q134 0 220.5 82t86.5 211q0 75 -46.5 119.5t-133.5 44.5q-103 0 -180.5 -62.5t-103.5 -187.5l-220 -1032
h-206l217 1024q43 206 172.5 318t335.5 112q167 0 271.5 -81.5t104.5 -213.5q0 -133 -76.5 -234t-209.5 -155v-10z" />
    <glyph glyph-name="agrave" unicode="&#xe0;" horiz-adv-x="1243" 
d="M819 1137h-157l-101 297h172zM1010 1024h209l-220 -1024h-170l11 137h-15q-141 -157 -346 -157q-174 0 -281.5 112.5t-107.5 306.5q0 170 77.5 318.5t214.5 237.5t300 89q111 0 189 -42t112 -105zM532 162q102 0 190 62.5t138.5 165t50.5 216.5q0 121 -58.5 188.5
t-162.5 67.5q-103 0 -192.5 -61.5t-141 -163t-51.5 -215.5q0 -122 61 -191t166 -69z" />
    <glyph glyph-name="aacute" unicode="&#xe1;" horiz-adv-x="1243" 
d="M1057 1434l-230 -297h-174l211 297h193zM1010 1024h209l-220 -1024h-170l11 137h-15q-141 -157 -346 -157q-174 0 -281.5 112.5t-107.5 306.5q0 170 77.5 318.5t214.5 237.5t300 89q111 0 189 -42t112 -105zM532 162q102 0 190 62.5t138.5 165t50.5 216.5
q0 121 -58.5 188.5t-162.5 67.5q-103 0 -192.5 -61.5t-141 -163t-51.5 -215.5q0 -122 61 -191t166 -69z" />
    <glyph glyph-name="acircumflex" unicode="&#xe2;" horiz-adv-x="1243" 
d="M778 1309l-149 -170h-193l277 295h180l151 -295h-174l-77 170h-15zM1010 1024h209l-220 -1024h-170l11 137h-15q-141 -157 -346 -157q-174 0 -281.5 112.5t-107.5 306.5q0 170 77.5 318.5t214.5 237.5t300 89q111 0 189 -42t112 -105zM532 162q102 0 190 62.5t138.5 165
t50.5 216.5q0 121 -58.5 188.5t-162.5 67.5q-103 0 -192.5 -61.5t-141 -163t-51.5 -215.5q0 -122 61 -191t166 -69z" />
    <glyph glyph-name="atilde" unicode="&#xe3;" horiz-adv-x="1243" 
d="M635 1247q-84 0 -119 -112h-143q33 114 97 186t161 72q55 0 97 -20t62.5 -43.5t48 -43.5t58.5 -20q43 0 73.5 31t43.5 77h143q-31 -111 -95.5 -183.5t-158.5 -72.5q-44 0 -79 13.5t-57.5 32t-42 37.5t-42 32.5t-47.5 13.5zM1010 1024h209l-220 -1024h-170l11 137h-15
q-141 -157 -346 -157q-174 0 -281.5 112.5t-107.5 306.5q0 170 77.5 318.5t214.5 237.5t300 89q111 0 189 -42t112 -105zM532 162q102 0 190 62.5t138.5 165t50.5 216.5q0 121 -58.5 188.5t-162.5 67.5q-103 0 -192.5 -61.5t-141 -163t-51.5 -215.5q0 -122 61 -191t166 -69z
" />
    <glyph glyph-name="adieresis" unicode="&#xe4;" horiz-adv-x="1243" 
d="M573 1133q-51 0 -86.5 36.5t-35.5 87.5t35.5 86t86.5 35t86 -35t35 -86t-35 -87.5t-86 -36.5zM961 1133q-50 0 -86.5 36.5t-36.5 87.5q0 50 36.5 85.5t86.5 35.5q51 0 85.5 -35t34.5 -86t-34.5 -87.5t-85.5 -36.5zM1010 1024h209l-220 -1024h-170l11 137h-15
q-141 -157 -346 -157q-174 0 -281.5 112.5t-107.5 306.5q0 170 77.5 318.5t214.5 237.5t300 89q111 0 189 -42t112 -105zM532 162q102 0 190 62.5t138.5 165t50.5 216.5q0 121 -58.5 188.5t-162.5 67.5q-103 0 -192.5 -61.5t-141 -163t-51.5 -215.5q0 -122 61 -191t166 -69z
" />
    <glyph glyph-name="aring" unicode="&#xe5;" horiz-adv-x="1243" 
d="M774 1102q-83 0 -142 59t-59 139t59 138.5t142 58.5t143 -58.5t60 -138.5t-60 -139t-143 -59zM776 1378q-34 0 -57 -23t-23 -55q0 -34 22.5 -57.5t57.5 -23.5q32 0 55 23.5t23 57.5q0 31 -23 54.5t-55 23.5zM1010 1024h209l-220 -1024h-170l11 137h-15
q-141 -157 -346 -157q-174 0 -281.5 112.5t-107.5 306.5q0 170 77.5 318.5t214.5 237.5t300 89q111 0 189 -42t112 -105zM532 162q102 0 190 62.5t138.5 165t50.5 216.5q0 121 -58.5 188.5t-162.5 67.5q-103 0 -192.5 -61.5t-141 -163t-51.5 -215.5q0 -122 61 -191t166 -69z
" />
    <glyph glyph-name="ae" unicode="&#xe6;" horiz-adv-x="1533" 
d="M1411 455h-561q-65 -314 127 -314q43 0 81.5 13t76.5 52t57 101h192q-52 -164 -163 -245.5t-258 -81.5q-223 0 -283 165q-109 -165 -350 -165q-127 0 -206 62t-79 169q0 183 142 288t388 105h97l20 92q18 86 -12 134.5t-109 48.5q-80 0 -134.5 -42.5t-76.5 -121.5l-196 6
q41 155 150.5 239t269.5 84q97 0 167.5 -38.5t102.5 -110.5q127 149 301 149q59 0 110.5 -17.5t95.5 -54t69.5 -102.5t25.5 -155q0 -147 -45 -260zM1135 883q-80 0 -150 -70t-102 -209h370q30 148 -5 213.5t-113 65.5zM614 338l25 117h-88q-143 0 -223 -55t-80 -154
q0 -52 35.5 -78.5t95.5 -26.5q80 0 146 47t89 150z" />
    <glyph glyph-name="ccedilla" unicode="&#xe7;" horiz-adv-x="1183" 
d="M702 862q-104 0 -197 -63t-147.5 -165t-54.5 -214q0 -120 65.5 -189t188.5 -69q196 0 295 180h215q-61 -163 -194 -259.5t-316 -102.5l-63 -70q67 5 119.5 -34.5t52.5 -104.5q0 -91 -68 -146t-176 -55q-97 0 -154 45l60 90q54 -35 102 -35q50 0 83.5 28t33.5 69
q0 26 -22 42.5t-64 16.5q-28 0 -74 -16l-55 57l104 121q-160 28 -253 139.5t-93 278.5q0 125 50 242.5t134 204.5t200.5 139t242.5 52q68 0 131 -14.5t117 -45t92.5 -74t59 -106t16.5 -136.5h-203q-2 80 -64.5 137t-163.5 57z" />
    <glyph glyph-name="egrave" unicode="&#xe8;" horiz-adv-x="1177" 
d="M817 1137h-158l-100 297h172zM1059 459h-758q-25 -136 39.5 -222.5t196.5 -86.5q95 0 168 40t114 117h207q-64 -154 -194.5 -240.5t-311.5 -86.5q-193 0 -312.5 112.5t-119.5 292.5q0 132 48 253.5t128.5 210.5t193 142t236.5 53q175 0 286.5 -98.5t111.5 -281.5
q0 -104 -33 -205zM680 874q-116 0 -212.5 -78.5t-133.5 -189.5h557q23 119 -35 193.5t-176 74.5z" />
    <glyph glyph-name="eacute" unicode="&#xe9;" horiz-adv-x="1177" 
d="M1053 1434l-230 -297h-174l211 297h193zM1059 459h-758q-25 -136 39.5 -222.5t196.5 -86.5q95 0 168 40t114 117h207q-64 -154 -194.5 -240.5t-311.5 -86.5q-193 0 -312.5 112.5t-119.5 292.5q0 132 48 253.5t128.5 210.5t193 142t236.5 53q175 0 286.5 -98.5
t111.5 -281.5q0 -104 -33 -205zM680 874q-116 0 -212.5 -78.5t-133.5 -189.5h557q23 119 -35 193.5t-176 74.5z" />
    <glyph glyph-name="ecircumflex" unicode="&#xea;" horiz-adv-x="1177" 
d="M776 1309l-149 -170h-193l277 295h180l151 -295h-174l-77 170h-15zM1059 459h-758q-25 -136 39.5 -222.5t196.5 -86.5q95 0 168 40t114 117h207q-64 -154 -194.5 -240.5t-311.5 -86.5q-193 0 -312.5 112.5t-119.5 292.5q0 132 48 253.5t128.5 210.5t193 142t236.5 53
q175 0 286.5 -98.5t111.5 -281.5q0 -104 -33 -205zM680 874q-116 0 -212.5 -78.5t-133.5 -189.5h557q23 119 -35 193.5t-176 74.5z" />
    <glyph glyph-name="edieresis" unicode="&#xeb;" horiz-adv-x="1177" 
d="M571 1133q-51 0 -86.5 36.5t-35.5 87.5t35.5 86t86.5 35t86 -35t35 -86t-35 -87.5t-86 -36.5zM958 1133q-50 0 -86 36.5t-36 87.5t36 86t86 35q51 0 86 -35t35 -86t-35 -87.5t-86 -36.5zM1059 459h-758q-25 -136 39.5 -222.5t196.5 -86.5q95 0 168 40t114 117h207
q-64 -154 -194.5 -240.5t-311.5 -86.5q-193 0 -312.5 112.5t-119.5 292.5q0 132 48 253.5t128.5 210.5t193 142t236.5 53q175 0 286.5 -98.5t111.5 -281.5q0 -104 -33 -205zM680 874q-116 0 -212.5 -78.5t-133.5 -189.5h557q23 119 -35 193.5t-176 74.5z" />
    <glyph glyph-name="igrave" unicode="&#xec;" horiz-adv-x="473" 
d="M362 1434l87 -297h-158l-101 297h172zM451 1024l-218 -1024h-208l217 1024h209z" />
    <glyph glyph-name="iacute" unicode="&#xed;" horiz-adv-x="473" 
d="M494 1434h192l-229 -297h-174zM451 1024l-218 -1024h-208l217 1024h209z" />
    <glyph glyph-name="icircumflex" unicode="&#xee;" horiz-adv-x="473" 
d="M258 1139h-192l276 295h180l152 -295h-174l-78 170h-14zM451 1024l-218 -1024h-208l217 1024h209z" />
    <glyph glyph-name="idieresis" unicode="&#xef;" horiz-adv-x="473" 
d="M203 1133q-51 0 -87 36.5t-36 87.5t36 86t87 35t86 -35t35 -86t-35 -87.5t-86 -36.5zM590 1133q-50 0 -86.5 36.5t-36.5 87.5q0 50 36.5 85.5t86.5 35.5q51 0 86 -35t35 -86t-35 -87.5t-86 -36.5zM451 1024l-218 -1024h-208l217 1024h209z" />
    <glyph glyph-name="eth" unicode="&#xf0;" horiz-adv-x="1239" 
d="M1176 1239l-168 -49q129 -221 129 -461q0 -220 -77 -389.5t-221.5 -264.5t-336.5 -95q-177 0 -298.5 110t-121.5 279q0 154 73.5 283t203.5 204.5t288 75.5q97 0 177 -36t110 -89h16q-18 174 -119 334l-346 -101l-10 115l287 82q-85 105 -193 197h240q75 -69 131 -146
l225 66zM526 154q149 0 263 114.5t114 263.5q0 102 -70.5 164t-185.5 62q-151 0 -261 -109t-110 -260q0 -105 69 -170t181 -65z" />
    <glyph glyph-name="ntilde" unicode="&#xf1;" horiz-adv-x="1171" 
d="M1135 1374q-31 -111 -95.5 -183.5t-158.5 -72.5q-44 0 -79.5 13.5t-58 32t-42 37.5t-42 32.5t-47.5 13.5q-83 0 -118 -112h-144q33 114 97 186t161 72q55 0 97 -20t62.5 -43.5t48 -43.5t58.5 -20q43 0 73.5 31t43.5 77h144zM760 1044q175 0 260 -109t43 -308l-133 -627
h-209l127 590q28 134 -22.5 203t-155.5 69q-107 0 -196.5 -73t-119.5 -216l-121 -573h-208l217 1024h188l-6 -123h14q63 67 138.5 105t183.5 38z" />
    <glyph glyph-name="ograve" unicode="&#xf2;" horiz-adv-x="1259" 
d="M760 1434l86 -297h-158l-100 297h172zM541 -20q-201 0 -325 120t-124 316q0 165 85.5 309.5t232 231.5t315.5 87q199 0 320.5 -119.5t121.5 -314.5q0 -164 -84 -309t-229 -233t-313 -88zM555 162q104 0 197.5 61t149.5 161.5t56 211.5q0 118 -67 192t-184 74
q-105 0 -198.5 -60.5t-148.5 -160.5t-55 -211q0 -119 67 -193.5t183 -74.5z" />
    <glyph glyph-name="oacute" unicode="&#xf3;" horiz-adv-x="1259" 
d="M889 1434h192l-229 -297h-174zM541 -20q-201 0 -325 120t-124 316q0 165 85.5 309.5t232 231.5t315.5 87q199 0 320.5 -119.5t121.5 -314.5q0 -164 -84 -309t-229 -233t-313 -88zM555 162q104 0 197.5 61t149.5 161.5t56 211.5q0 118 -67 192t-184 74
q-105 0 -198.5 -60.5t-148.5 -160.5t-55 -211q0 -119 67 -193.5t183 -74.5z" />
    <glyph glyph-name="ocircumflex" unicode="&#xf4;" horiz-adv-x="1259" 
d="M655 1139h-192l276 295h181l151 -295h-174l-78 170h-14zM541 -20q-201 0 -325 120t-124 316q0 165 85.5 309.5t232 231.5t315.5 87q199 0 320.5 -119.5t121.5 -314.5q0 -164 -84 -309t-229 -233t-313 -88zM555 162q104 0 197.5 61t149.5 161.5t56 211.5q0 118 -67 192
t-184 74q-105 0 -198.5 -60.5t-148.5 -160.5t-55 -211q0 -119 67 -193.5t183 -74.5z" />
    <glyph glyph-name="otilde" unicode="&#xf5;" horiz-adv-x="1259" 
d="M1184 1374q-31 -111 -95.5 -183.5t-158.5 -72.5q-44 0 -79 13.5t-57.5 32t-42 37.5t-42 32.5t-47.5 13.5q-84 0 -119 -112h-144q33 114 97 186t161 72q45 0 81 -13t57.5 -31.5t40.5 -37.5t40.5 -32t47.5 -13q43 0 73 31t43 77h144zM541 -20q-201 0 -325 120t-124 316
q0 165 85.5 309.5t232 231.5t315.5 87q199 0 320.5 -119.5t121.5 -314.5q0 -164 -84 -309t-229 -233t-313 -88zM555 162q104 0 197.5 61t149.5 161.5t56 211.5q0 118 -67 192t-184 74q-105 0 -198.5 -60.5t-148.5 -160.5t-55 -211q0 -119 67 -193.5t183 -74.5z" />
    <glyph glyph-name="odieresis" unicode="&#xf6;" horiz-adv-x="1259" 
d="M600 1133q-51 0 -87 36.5t-36 87.5t36 86t87 35t86 -35t35 -86t-35 -87.5t-86 -36.5zM987 1133q-50 0 -86.5 36.5t-36.5 87.5q0 50 36.5 85.5t86.5 35.5q51 0 86 -35t35 -86t-35 -87.5t-86 -36.5zM541 -20q-201 0 -325 120t-124 316q0 165 85.5 309.5t232 231.5t315.5 87
q199 0 320.5 -119.5t121.5 -314.5q0 -164 -84 -309t-229 -233t-313 -88zM555 162q104 0 197.5 61t149.5 161.5t56 211.5q0 118 -67 192t-184 74q-105 0 -198.5 -60.5t-148.5 -160.5t-55 -211q0 -119 67 -193.5t183 -74.5z" />
    <glyph glyph-name="divide" unicode="&#xf7;" 
d="M670 803q-55 0 -95 39.5t-40 93.5q0 57 39.5 96t95.5 39t94.5 -39t38.5 -96q0 -54 -39 -93.5t-94 -39.5zM129 662h965l-37 -177h-967zM514 68q-56 0 -95.5 39t-39.5 94t39.5 95t95.5 40q55 0 94 -39.5t39 -95.5q0 -55 -38.5 -94t-94.5 -39z" />
    <glyph glyph-name="oslash" unicode="&#xf8;" horiz-adv-x="1259" 
d="M1231 1036l-148 -153q84 -114 84 -273q0 -164 -84.5 -309t-230.5 -233t-315 -88q-155 0 -261 71l-141 -145l-102 84l145 149q-86 116 -86 277q0 165 85.5 309.5t232 231.5t315.5 87q153 0 262 -73l143 147zM297 430q0 -76 29 -139l526 540q-61 39 -143 39
q-108 0 -203.5 -62t-152 -163.5t-56.5 -214.5zM967 600q0 72 -29 135l-526 -545q61 -36 141 -36q106 0 202.5 62.5t154 166t57.5 217.5z" />
    <glyph glyph-name="ugrave" unicode="&#xf9;" horiz-adv-x="1171" 
d="M713 1434l86 -297h-158l-100 297h172zM410 -20q-174 0 -259 109.5t-42 307.5l133 627h209l-127 -590q-28 -134 21.5 -203t154.5 -69q109 0 198 73t119 216l121 573h209l-217 -1024h-189l7 123h-15q-66 -68 -140 -105.5t-183 -37.5z" />
    <glyph glyph-name="uacute" unicode="&#xfa;" horiz-adv-x="1171" 
d="M842 1434h192l-229 -297h-174zM410 -20q-174 0 -259 109.5t-42 307.5l133 627h209l-127 -590q-28 -134 21.5 -203t154.5 -69q109 0 198 73t119 216l121 573h209l-217 -1024h-189l7 123h-15q-66 -68 -140 -105.5t-183 -37.5z" />
    <glyph glyph-name="ucircumflex" unicode="&#xfb;" horiz-adv-x="1171" 
d="M608 1139h-192l276 295h180l152 -295h-174l-78 170h-14zM410 -20q-174 0 -259 109.5t-42 307.5l133 627h209l-127 -590q-28 -134 21.5 -203t154.5 -69q109 0 198 73t119 216l121 573h209l-217 -1024h-189l7 123h-15q-66 -68 -140 -105.5t-183 -37.5z" />
    <glyph glyph-name="udieresis" unicode="&#xfc;" horiz-adv-x="1171" 
d="M553 1133q-51 0 -87 36.5t-36 87.5t36 86t87 35t86 -35t35 -86t-35 -87.5t-86 -36.5zM940 1133q-50 0 -86.5 36.5t-36.5 87.5q0 50 36.5 85.5t86.5 35.5q51 0 86 -35t35 -86t-35 -87.5t-86 -36.5zM410 -20q-174 0 -259 109.5t-42 307.5l133 627h209l-127 -590
q-28 -134 21.5 -203t154.5 -69q109 0 198 73t119 216l121 573h209l-217 -1024h-189l7 123h-15q-66 -68 -140 -105.5t-183 -37.5z" />
    <glyph glyph-name="yacute" unicode="&#xfd;" horiz-adv-x="1116" 
d="M815 1434h193l-230 -297h-174zM1186 1024l-674 -1171q-17 -30 -24.5 -43t-32 -49t-44.5 -56t-56 -49.5t-72 -45.5t-86.5 -28t-106.5 -12q-79 0 -160 22l33 158q61 -14 107 -14q151 0 243 147l72 117h-59l-179 1024h207l133 -809h15l459 809h225z" />
    <glyph glyph-name="thorn" unicode="&#xfe;" horiz-adv-x="1243" 
d="M764 1044q174 0 281.5 -113t107.5 -308q0 -127 -45.5 -244.5t-123.5 -205.5t-188.5 -140.5t-234.5 -52.5q-116 0 -190 49t-107 114l-117 -553h-208l395 1864h188l-119 -567h15q141 157 346 157zM555 162q102 0 191.5 61.5t141.5 163t52 215.5q0 122 -62 191t-167 69
q-102 0 -190 -62.5t-138.5 -165t-50.5 -216.5q0 -121 58.5 -188.5t164.5 -67.5z" />
    <glyph glyph-name="ydieresis" unicode="&#xff;" horiz-adv-x="1116" 
d="M526 1133q-51 0 -87 36.5t-36 87.5t36 86t87 35t86 -35t35 -86t-35 -87.5t-86 -36.5zM913 1133q-50 0 -86 36.5t-36 87.5t36 86t86 35q51 0 86 -35t35 -86t-35 -87.5t-86 -36.5zM1186 1024l-674 -1171q-17 -30 -24.5 -43t-32 -49t-44.5 -56t-56 -49.5t-72 -45.5
t-86.5 -28t-106.5 -12q-79 0 -160 22l33 158q61 -14 107 -14q151 0 243 147l72 117h-59l-179 1024h207l133 -809h15l459 809h225z" />
    <glyph glyph-name="Amacron" unicode="&#x100;" horiz-adv-x="1374" 
d="M629 1739h641l-31 -148h-641zM752 1434h264l198 -1434h-223l-47 375h-557l-207 -375h-239zM485 557h437l-78 625h-15z" />
    <glyph glyph-name="amacron" unicode="&#x101;" horiz-adv-x="1243" 
d="M1102 1329l-31 -147h-641l31 147h641zM1010 1024h209l-220 -1024h-170l11 137h-15q-141 -157 -346 -157q-174 0 -281.5 112.5t-107.5 306.5q0 170 77.5 318.5t214.5 237.5t300 89q111 0 189 -42t112 -105zM532 162q102 0 190 62.5t138.5 165t50.5 216.5
q0 121 -58.5 188.5t-162.5 67.5q-103 0 -192.5 -61.5t-141 -163t-51.5 -215.5q0 -122 61 -191t166 -69z" />
    <glyph glyph-name="Abreve" unicode="&#x102;" horiz-adv-x="1374" 
d="M913 1577q-122 0 -185.5 79.5t-39.5 186.5h156q-12 -58 13 -96.5t79 -38.5q57 0 97 38t52 97h166q-24 -108 -120 -187t-218 -79zM752 1434h264l198 -1434h-223l-47 375h-557l-207 -375h-239zM485 557h437l-78 625h-15z" />
    <glyph glyph-name="abreve" unicode="&#x103;" horiz-adv-x="1243" 
d="M745 1167q-121 0 -185 80t-40 187h156q-12 -58 13 -97t79 -39q57 0 97.5 38.5t52.5 97.5h165q-24 -108 -120 -187.5t-218 -79.5zM1010 1024h209l-220 -1024h-170l11 137h-15q-141 -157 -346 -157q-174 0 -281.5 112.5t-107.5 306.5q0 170 77.5 318.5t214.5 237.5t300 89
q111 0 189 -42t112 -105zM532 162q102 0 190 62.5t138.5 165t50.5 216.5q0 121 -58.5 188.5t-162.5 67.5q-103 0 -192.5 -61.5t-141 -163t-51.5 -215.5q0 -122 61 -191t166 -69z" />
    <glyph glyph-name="Aogonek" unicode="&#x104;" horiz-adv-x="1374" 
d="M1139 -231q47 0 96 12l-27 -123q-50 -16 -108 -16q-92 0 -150.5 40.5t-58.5 110.5q0 130 158 207h-58l-47 375h-557l-207 -375h-239l811 1434h264l198 -1434q-80 -25 -127 -69t-47 -97q0 -32 27 -48.5t72 -16.5zM485 557h437l-78 625h-15z" />
    <glyph glyph-name="aogonek" unicode="&#x105;" horiz-adv-x="1243" 
d="M827 -166q0 -32 27 -48.5t72 -16.5q46 0 96 12l-27 -123q-50 -16 -108 -16q-92 0 -150.5 40.5t-58.5 110.5q0 130 158 207h-7l11 137h-15q-141 -157 -346 -157q-174 0 -281.5 112.5t-107.5 306.5q0 170 77.5 318.5t214.5 237.5t300 89q111 0 189 -42t112 -105l27 127h209
l-220 -1022l2 -2q-80 -25 -127 -69t-47 -97zM532 162q102 0 190 62.5t138.5 165t50.5 216.5q0 121 -58.5 188.5t-162.5 67.5q-103 0 -192.5 -61.5t-141 -163t-51.5 -215.5q0 -122 61 -191t166 -69z" />
    <glyph glyph-name="Cacute" unicode="&#x106;" horiz-adv-x="1554" 
d="M1167 1843h193l-230 -297h-174zM1442 444q-84 -215 -271.5 -339.5t-433.5 -124.5q-268 0 -425.5 155.5t-157.5 421.5q0 140 42.5 274.5t121 246t183 196.5t235.5 132.5t270 47.5q152 0 272.5 -54.5t190.5 -164t63 -256.5h-221q-9 126 -97 201t-227 75q-118 0 -230 -56.5
t-194 -149t-132 -216.5t-50 -253q0 -186 99 -294t276 -108q147 0 265 73t181 193h240z" />
    <glyph glyph-name="cacute" unicode="&#x107;" horiz-adv-x="1183" 
d="M877 1434h192l-229 -297h-174zM1067 342q-63 -168 -202 -265t-330 -97q-202 0 -323.5 117t-121.5 309q0 125 50 242.5t134 204.5t200.5 139t242.5 52q68 0 131 -14.5t117 -45t92.5 -74t59 -106t16.5 -136.5h-203q-2 80 -64.5 137t-163.5 57q-104 0 -197 -63t-147.5 -165
t-54.5 -214q0 -120 65.5 -189t188.5 -69q196 0 295 180h215z" />
    <glyph glyph-name="Ccircumflex" unicode="&#x108;" horiz-adv-x="1554" 
d="M934 1548h-193l277 295h180l152 -295h-174l-78 170h-15zM1442 444q-84 -215 -271.5 -339.5t-433.5 -124.5q-268 0 -425.5 155.5t-157.5 421.5q0 140 42.5 274.5t121 246t183 196.5t235.5 132.5t270 47.5q152 0 272.5 -54.5t190.5 -164t63 -256.5h-221q-9 126 -97 201
t-227 75q-118 0 -230 -56.5t-194 -149t-132 -216.5t-50 -253q0 -186 99 -294t276 -108q147 0 265 73t181 193h240z" />
    <glyph glyph-name="ccircumflex" unicode="&#x109;" horiz-adv-x="1183" 
d="M643 1139h-192l276 295h180l152 -295h-174l-78 170h-14zM1067 342q-63 -168 -202 -265t-330 -97q-202 0 -323.5 117t-121.5 309q0 125 50 242.5t134 204.5t200.5 139t242.5 52q68 0 131 -14.5t117 -45t92.5 -74t59 -106t16.5 -136.5h-203q-2 80 -64.5 137t-163.5 57
q-104 0 -197 -63t-147.5 -165t-54.5 -214q0 -120 65.5 -189t188.5 -69q196 0 295 180h215z" />
    <glyph glyph-name="Cdotaccent" unicode="&#x10a;" horiz-adv-x="1554" 
d="M1083 1585q-55 0 -95 39.5t-40 93.5q0 55 39.5 93t95.5 38q54 0 92.5 -38t38.5 -93q0 -54 -38.5 -93.5t-92.5 -39.5zM1442 444q-84 -215 -271.5 -339.5t-433.5 -124.5q-268 0 -425.5 155.5t-157.5 421.5q0 140 42.5 274.5t121 246t183 196.5t235.5 132.5t270 47.5
q152 0 272.5 -54.5t190.5 -164t63 -256.5h-221q-9 126 -97 201t-227 75q-118 0 -230 -56.5t-194 -149t-132 -216.5t-50 -253q0 -186 99 -294t276 -108q147 0 265 73t181 193h240z" />
    <glyph glyph-name="cdotaccent" unicode="&#x10b;" horiz-adv-x="1183" 
d="M793 1176q-55 0 -95.5 39.5t-40.5 93.5q0 55 40 93t96 38q54 0 92.5 -38t38.5 -93q0 -54 -38.5 -93.5t-92.5 -39.5zM1067 342q-63 -168 -202 -265t-330 -97q-202 0 -323.5 117t-121.5 309q0 125 50 242.5t134 204.5t200.5 139t242.5 52q68 0 131 -14.5t117 -45t92.5 -74
t59 -106t16.5 -136.5h-203q-2 80 -64.5 137t-163.5 57q-104 0 -197 -63t-147.5 -165t-54.5 -214q0 -120 65.5 -189t188.5 -69q196 0 295 180h215z" />
    <glyph glyph-name="Ccaron" unicode="&#x10c;" horiz-adv-x="1554" 
d="M1221 1843h190l-274 -295h-183l-149 295h172l80 -170h12zM1442 444q-84 -215 -271.5 -339.5t-433.5 -124.5q-268 0 -425.5 155.5t-157.5 421.5q0 140 42.5 274.5t121 246t183 196.5t235.5 132.5t270 47.5q152 0 272.5 -54.5t190.5 -164t63 -256.5h-221q-9 126 -97 201
t-227 75q-118 0 -230 -56.5t-194 -149t-132 -216.5t-50 -253q0 -186 99 -294t276 -108q147 0 265 73t181 193h240z" />
    <glyph glyph-name="ccaron" unicode="&#x10d;" horiz-adv-x="1183" 
d="M930 1434h190l-274 -295h-182l-150 295h172l80 -170h12zM1067 342q-63 -168 -202 -265t-330 -97q-202 0 -323.5 117t-121.5 309q0 125 50 242.5t134 204.5t200.5 139t242.5 52q68 0 131 -14.5t117 -45t92.5 -74t59 -106t16.5 -136.5h-203q-2 80 -64.5 137t-163.5 57
q-104 0 -197 -63t-147.5 -165t-54.5 -214q0 -120 65.5 -189t188.5 -69q196 0 295 180h215z" />
    <glyph glyph-name="Dcaron" unicode="&#x10e;" horiz-adv-x="1458" 
d="M1110 1843h190l-274 -295h-182l-150 295h172l80 -170h12zM809 1434q279 0 429.5 -143.5t150.5 -413.5q0 -179 -61.5 -339.5t-171 -279.5t-270.5 -188.5t-349 -69.5h-480l305 1434h447zM553 195q178 0 319 91t217 242.5t76 331.5q0 71 -13.5 128t-35.5 96t-54.5 68
t-65.5 45t-74 26t-74.5 13t-71.5 3h-239l-224 -1044h240z" />
    <glyph glyph-name="dcaron" unicode="&#x10f;" horiz-adv-x="1241" 
d="M983 895l119 559h207l-310 -1454h-170l11 137h-15q-141 -157 -346 -157q-174 0 -281.5 113t-107.5 308q0 127 45.5 244.5t123.5 205.5t188.5 140.5t234.5 52.5q112 0 189 -43.5t112 -105.5zM1616 1450q56 0 90.5 -36t34.5 -97q0 -103 -79.5 -210.5t-205.5 -176.5l-41 67
q136 98 160 195q-43 2 -69.5 30t-26.5 78q0 66 38.5 108t98.5 42zM532 162q102 0 190 62.5t138.5 165t50.5 216.5q0 121 -58.5 188.5t-162.5 67.5q-103 0 -192.5 -61.5t-141 -163t-51.5 -215.5q0 -122 61 -191t166 -69z" />
    <glyph glyph-name="Dcroat" unicode="&#x110;" horiz-adv-x="1458" 
d="M809 1434q279 0 429.5 -143.5t150.5 -413.5q0 -179 -61.5 -339.5t-171 -279.5t-270.5 -188.5t-349 -69.5h-480l136 635h-236l33 162h237l135 637h447zM553 195q178 0 319 91t217 242.5t76 331.5q0 71 -13.5 128t-35.5 96t-54.5 68t-65.5 45t-74 26t-74.5 13t-71.5 3h-239
l-95 -442h363l-33 -162h-364l-95 -440h240z" />
    <glyph glyph-name="dcroat" unicode="&#x111;" horiz-adv-x="1241" 
d="M1491 1307l-33 -154h-213l-246 -1153h-170l11 137h-15q-141 -157 -346 -157q-174 0 -281.5 113t-107.5 308q0 127 45.5 244.5t123.5 205.5t188.5 140.5t234.5 52.5q112 0 189 -43.5t112 -105.5l55 258h-250l33 154h250l31 147h207l-31 -147h213zM532 162q102 0 190 62.5
t138.5 165t50.5 216.5q0 121 -58.5 188.5t-162.5 67.5q-103 0 -192.5 -61.5t-141 -163t-51.5 -215.5q0 -122 61 -191t166 -69z" />
    <glyph glyph-name="Emacron" unicode="&#x112;" horiz-adv-x="1202" 
d="M571 1739h641l-30 -148h-641zM307 190h737l-40 -190h-947l305 1434h926l-39 -191h-717l-90 -422h625l-41 -186h-625z" />
    <glyph glyph-name="emacron" unicode="&#x113;" horiz-adv-x="1177" 
d="M1098 1329l-31 -147h-641l31 147h641zM694 1044q175 0 286.5 -98.5t111.5 -281.5q0 -104 -33 -205h-758q-25 -136 39.5 -222.5t196.5 -86.5q95 0 168 40t114 117h207q-64 -154 -194.5 -240.5t-311.5 -86.5q-193 0 -312.5 112.5t-119.5 292.5q0 132 48 253.5t128.5 210.5
t193 142t236.5 53zM680 874q-116 0 -212.5 -78.5t-133.5 -189.5h557q23 119 -35 193.5t-176 74.5z" />
    <glyph glyph-name="Ebreve" unicode="&#x114;" horiz-adv-x="1202" 
d="M1194 1843q-24 -108 -120 -187t-218 -79t-185.5 79.5t-39.5 186.5h155q-12 -58 13 -96.5t80 -38.5q57 0 97 38t52 97h166zM307 190h737l-40 -190h-947l305 1434h926l-39 -191h-717l-90 -422h625l-41 -186h-625z" />
    <glyph glyph-name="ebreve" unicode="&#x115;" horiz-adv-x="1177" 
d="M743 1167q-121 0 -185 80t-40 187h156q-12 -58 13 -97t79 -39q57 0 97 38.5t52 97.5h166q-24 -108 -120 -187.5t-218 -79.5zM1059 459h-758q-25 -136 39.5 -222.5t196.5 -86.5q95 0 168 40t114 117h207q-64 -154 -194.5 -240.5t-311.5 -86.5q-193 0 -312.5 112.5
t-119.5 292.5q0 132 48 253.5t128.5 210.5t193 142t236.5 53q175 0 286.5 -98.5t111.5 -281.5q0 -104 -33 -205zM680 874q-116 0 -212.5 -78.5t-133.5 -189.5h557q23 119 -35 193.5t-176 74.5z" />
    <glyph glyph-name="Edotaccent" unicode="&#x116;" horiz-adv-x="1202" 
d="M889 1585q-55 0 -95 39.5t-40 93.5q0 55 39.5 93t95.5 38q54 0 92.5 -38t38.5 -93q0 -54 -38.5 -93.5t-92.5 -39.5zM307 190h737l-40 -190h-947l305 1434h926l-39 -191h-717l-90 -422h625l-41 -186h-625z" />
    <glyph glyph-name="edotaccent" unicode="&#x117;" horiz-adv-x="1177" 
d="M776 1176q-55 0 -95 39.5t-40 93.5q0 55 39.5 93t95.5 38q54 0 92.5 -38t38.5 -93q0 -54 -38.5 -93.5t-92.5 -39.5zM1059 459h-758q-25 -136 39.5 -222.5t196.5 -86.5q95 0 168 40t114 117h207q-64 -154 -194.5 -240.5t-311.5 -86.5q-193 0 -312.5 112.5t-119.5 292.5
q0 132 48 253.5t128.5 210.5t193 142t236.5 53q175 0 286.5 -98.5t111.5 -281.5q0 -104 -33 -205zM680 874q-116 0 -212.5 -78.5t-133.5 -189.5h557q23 119 -35 193.5t-176 74.5z" />
    <glyph glyph-name="Eogonek" unicode="&#x118;" horiz-adv-x="1202" 
d="M1249 1243h-717l-90 -422h625l-41 -186h-625l-94 -445h737l-40 -188l2 -2q-80 -25 -127.5 -69t-47.5 -97q0 -32 27 -48.5t72 -16.5q46 0 96 12l-27 -123q-50 -16 -108 -16q-92 0 -150.5 40.5t-58.5 110.5q0 130 158 207h-783l305 1434h926z" />
    <glyph glyph-name="eogonek" unicode="&#x119;" horiz-adv-x="1177" 
d="M1059 459h-758q-25 -136 39.5 -222.5t196.5 -86.5q95 0 168 40t114 117h207q-104 -248 -354 -309q-77 -27 -121.5 -70t-44.5 -94q0 -32 26.5 -48.5t71.5 -16.5q46 0 96 12l-26 -123q-50 -16 -109 -16q-92 0 -150.5 40.5t-58.5 110.5q0 117 121 189q-175 12 -282 122.5
t-107 280.5q0 132 48 253.5t128.5 210.5t193 142t236.5 53q175 0 286.5 -98.5t111.5 -281.5q0 -104 -33 -205zM680 874q-116 0 -212.5 -78.5t-133.5 -189.5h557q23 119 -35 193.5t-176 74.5z" />
    <glyph glyph-name="Ecaron" unicode="&#x11a;" horiz-adv-x="1202" 
d="M1028 1843h191l-275 -295h-182l-150 295h172l80 -170h13zM307 190h737l-40 -190h-947l305 1434h926l-39 -191h-717l-90 -422h625l-41 -186h-625z" />
    <glyph glyph-name="ecaron" unicode="&#x11b;" horiz-adv-x="1177" 
d="M829 1139h-182l-149 295h172l80 -170h12l151 170h191zM694 1044q175 0 286.5 -98.5t111.5 -281.5q0 -104 -33 -205h-758q-25 -136 39.5 -222.5t196.5 -86.5q95 0 168 40t114 117h207q-64 -154 -194.5 -240.5t-311.5 -86.5q-193 0 -312.5 112.5t-119.5 292.5
q0 132 48 253.5t128.5 210.5t193 142t236.5 53zM680 874q-116 0 -212.5 -78.5t-133.5 -189.5h557q23 119 -35 193.5t-176 74.5z" />
    <glyph glyph-name="Gcircumflex" unicode="&#x11c;" horiz-adv-x="1622" 
d="M928 1548h-193l277 295h180l151 -295h-174l-77 170h-15zM860 758h647l-159 -758h-172l8 156h-15q-202 -176 -462 -176q-257 0 -406 151.5t-149 411.5q0 142 43.5 278.5t124 249.5t188 199.5t243 135t281.5 48.5q242 0 384 -124.5t136 -313.5h-225q-11 107 -96.5 173
t-222.5 66q-166 0 -312.5 -97.5t-232.5 -257.5t-86 -337q0 -183 97 -286t284 -103q110 0 209 35t174.5 111t97.5 182l18 84h-397v172z" />
    <glyph glyph-name="gcircumflex" unicode="&#x11d;" horiz-adv-x="1116" 
d="M737 1309l-149 -170h-193l277 295h180l152 -295h-175l-77 170h-15zM362 377q-86 -35 -86 -98q0 -37 32 -56.5t89 -19.5h195q153 0 237 -65t84 -189q0 -161 -144.5 -270t-375.5 -109q-115 0 -201 28.5t-134 78t-69 110t-16 131.5l201 145q-46 23 -71 63.5t-25 90.5
q0 72 48.5 131.5t133.5 95.5q-72 78 -72 189q0 112 62.5 206.5t171 149.5t237.5 55q140 0 232 -61q53 25 110 65t95 80l84 -129q-71 -64 -195 -118q31 -64 31 -138q0 -165 -137 -282t-334 -117q-99 0 -183 33zM645 889q-104 0 -179 -68.5t-75 -165.5q0 -70 47 -111.5
t129 -41.5q103 0 175.5 68t72.5 167q0 71 -44.5 111.5t-125.5 40.5zM709 -78q0 33 -14.5 56.5t-39 35.5t-51.5 17.5t-57 5.5h-185l-192 -137q5 -76 64 -123t180 -47q125 0 210 55t85 137z" />
    <glyph glyph-name="Gbreve" unicode="&#x11e;" horiz-adv-x="1622" 
d="M1384 1843q-24 -108 -119.5 -187t-217.5 -79t-186 79.5t-40 186.5h156q-12 -58 13 -96.5t79 -38.5q57 0 97.5 38t52.5 97h165zM860 758h647l-159 -758h-172l8 156h-15q-202 -176 -462 -176q-257 0 -406 151.5t-149 411.5q0 142 43.5 278.5t124 249.5t188 199.5t243 135
t281.5 48.5q242 0 384 -124.5t136 -313.5h-225q-11 107 -96.5 173t-222.5 66q-166 0 -312.5 -97.5t-232.5 -257.5t-86 -337q0 -183 97 -286t284 -103q110 0 209 35t174.5 111t97.5 182l18 84h-397v172z" />
    <glyph glyph-name="gbreve" unicode="&#x11f;" horiz-adv-x="1116" 
d="M705 1167q-122 0 -186 80t-40 187h156q-12 -58 13 -97t79 -39q57 0 97.5 38.5t52.5 97.5h165q-24 -108 -119.5 -187.5t-217.5 -79.5zM362 377q-86 -35 -86 -98q0 -37 32 -56.5t89 -19.5h195q153 0 237 -65t84 -189q0 -161 -144.5 -270t-375.5 -109q-115 0 -201 28.5
t-134 78t-69 110t-16 131.5l201 145q-46 23 -71 63.5t-25 90.5q0 72 48.5 131.5t133.5 95.5q-72 78 -72 189q0 112 62.5 206.5t171 149.5t237.5 55q140 0 232 -61q53 25 110 65t95 80l84 -129q-71 -64 -195 -118q31 -64 31 -138q0 -165 -137 -282t-334 -117q-99 0 -183 33z
M645 889q-104 0 -179 -68.5t-75 -165.5q0 -70 47 -111.5t129 -41.5q103 0 175.5 68t72.5 167q0 71 -44.5 111.5t-125.5 40.5zM709 -78q0 33 -14.5 56.5t-39 35.5t-51.5 17.5t-57 5.5h-185l-192 -137q5 -76 64 -123t180 -47q125 0 210 55t85 137z" />
    <glyph glyph-name="Gdotaccent" unicode="&#x120;" horiz-adv-x="1622" 
d="M1077 1585q-55 0 -95 39.5t-40 93.5q0 55 39.5 93t95.5 38q54 0 92.5 -38t38.5 -93q0 -54 -38.5 -93.5t-92.5 -39.5zM860 758h647l-159 -758h-172l8 156h-15q-202 -176 -462 -176q-257 0 -406 151.5t-149 411.5q0 142 43.5 278.5t124 249.5t188 199.5t243 135t281.5 48.5
q242 0 384 -124.5t136 -313.5h-225q-11 107 -96.5 173t-222.5 66q-166 0 -312.5 -97.5t-232.5 -257.5t-86 -337q0 -183 97 -286t284 -103q110 0 209 35t174.5 111t97.5 182l18 84h-397v172z" />
    <glyph glyph-name="gdotaccent" unicode="&#x121;" horiz-adv-x="1116" 
d="M737 1176q-55 0 -95 39.5t-40 93.5q0 55 39.5 93t95.5 38q54 0 92.5 -38t38.5 -93q0 -54 -38.5 -93.5t-92.5 -39.5zM362 377q-86 -35 -86 -98q0 -37 32 -56.5t89 -19.5h195q153 0 237 -65t84 -189q0 -161 -144.5 -270t-375.5 -109q-115 0 -201 28.5t-134 78t-69 110
t-16 131.5l201 145q-46 23 -71 63.5t-25 90.5q0 72 48.5 131.5t133.5 95.5q-72 78 -72 189q0 112 62.5 206.5t171 149.5t237.5 55q140 0 232 -61q53 25 110 65t95 80l84 -129q-71 -64 -195 -118q31 -64 31 -138q0 -165 -137 -282t-334 -117q-99 0 -183 33zM645 889
q-104 0 -179 -68.5t-75 -165.5q0 -70 47 -111.5t129 -41.5q103 0 175.5 68t72.5 167q0 71 -44.5 111.5t-125.5 40.5zM709 -78q0 33 -14.5 56.5t-39 35.5t-51.5 17.5t-57 5.5h-185l-192 -137q5 -76 64 -123t180 -47q125 0 210 55t85 137z" />
    <glyph glyph-name="uni0122" unicode="&#x122;" horiz-adv-x="1622" 
d="M860 758h647l-159 -758h-172l8 156h-15q-202 -176 -462 -176q-257 0 -406 151.5t-149 411.5q0 142 43.5 278.5t124 249.5t188 199.5t243 135t281.5 48.5q242 0 384 -124.5t136 -313.5h-225q-11 107 -96.5 173t-222.5 66q-166 0 -312.5 -97.5t-232.5 -257.5t-86 -337
q0 -183 97 -286t284 -103q110 0 209 35t174.5 111t97.5 182l18 84h-397v172zM659 -117q59 0 95.5 -34.5t36.5 -92.5q0 -102 -83 -208t-216 -173l-43 64q144 98 167 194q-44 0 -72 28.5t-28 76.5q0 64 40 104.5t103 40.5z" />
    <glyph glyph-name="uni0123" unicode="&#x123;" horiz-adv-x="1116" 
d="M723 1141q-59 0 -95 34.5t-36 92.5q0 101 83.5 207t215.5 174l43 -64q-142 -96 -168 -194q45 0 73.5 -28t28.5 -77q0 -64 -41 -104.5t-104 -40.5zM362 377q-86 -35 -86 -98q0 -37 32 -56.5t89 -19.5h195q153 0 237 -65t84 -189q0 -161 -144.5 -270t-375.5 -109
q-115 0 -201 28.5t-134 78t-69 110t-16 131.5l201 145q-46 23 -71 63.5t-25 90.5q0 72 48.5 131.5t133.5 95.5q-72 78 -72 189q0 112 62.5 206.5t171 149.5t237.5 55q140 0 232 -61q53 25 110 65t95 80l84 -129q-71 -64 -195 -118q31 -64 31 -138q0 -165 -137 -282
t-334 -117q-99 0 -183 33zM645 889q-104 0 -179 -68.5t-75 -165.5q0 -70 47 -111.5t129 -41.5q103 0 175.5 68t72.5 167q0 71 -44.5 111.5t-125.5 40.5zM709 -78q0 33 -14.5 56.5t-39 35.5t-51.5 17.5t-57 5.5h-185l-192 -137q5 -76 64 -123t180 -47q125 0 210 55t85 137z
" />
    <glyph glyph-name="Hcircumflex" unicode="&#x124;" horiz-adv-x="1429" 
d="M819 1548h-192l276 295h180l152 -295h-174l-78 170h-14zM1245 1434h215l-305 -1434h-215l133 629h-667l-134 -629h-215l305 1434h216l-132 -611h668z" />
    <glyph glyph-name="hcircumflex" unicode="&#x125;" horiz-adv-x="1171" 
d="M350 1548h-192l276 295h180l152 -295h-174l-78 170h-14zM760 1044q175 0 260 -109t43 -308l-133 -627h-209l127 590q28 134 -22.5 203t-155.5 69q-107 0 -196.5 -73t-119.5 -216l-121 -573h-208l309 1454h209l-119 -553h14q63 67 138.5 105t183.5 38z" />
    <glyph glyph-name="Hbar" unicode="&#x126;" horiz-adv-x="1429" 
d="M1245 1434h215l-305 -1434h-215l133 629h-667l-134 -629h-215l305 1434h216l-50 -226h668zM1114 823l47 221h-667l-48 -221h668z" />
    <glyph glyph-name="hbar" unicode="&#x127;" horiz-adv-x="1171" 
d="M760 1044q175 0 260 -109t43 -308l-133 -627h-209l127 590q28 134 -22.5 203t-155.5 69q-107 0 -196.5 -73t-119.5 -216l-121 -573h-208l245 1151h-207l33 154h205l33 149h209l-33 -149h256l-33 -154h-256l-53 -250h14q63 67 138.5 105t183.5 38z" />
    <glyph glyph-name="Itilde" unicode="&#x128;" horiz-adv-x="546" 
d="M911 1784q-31 -111 -95.5 -183.5t-158.5 -72.5q-44 0 -79 13.5t-57.5 32t-42 37.5t-42 32.5t-47.5 13.5q-83 0 -119 -113h-143q33 114 97 186t161 72q55 0 97 -20t62.5 -43.5t48 -43.5t58.5 -20q43 0 73.5 31.5t43.5 77.5h143zM578 1434l-306 -1434h-215l305 1434h216z
" />
    <glyph glyph-name="itilde" unicode="&#x129;" horiz-adv-x="473" 
d="M786 1374q-31 -111 -95.5 -183.5t-158.5 -72.5q-44 0 -79 13.5t-57.5 32t-42 37.5t-42 32.5t-47.5 13.5q-84 0 -119 -112h-143q33 114 97 186t161 72q55 0 97 -20t62.5 -43.5t48 -43.5t58.5 -20q43 0 73.5 31t43.5 77h143zM451 1024l-218 -1024h-208l217 1024h209z" />
    <glyph glyph-name="Imacron" unicode="&#x12a;" horiz-adv-x="546" 
d="M215 1739h641l-31 -148h-641zM578 1434l-306 -1434h-215l305 1434h216z" />
    <glyph glyph-name="imacron" unicode="&#x12b;" horiz-adv-x="473" 
d="M90 1329h641l-31 -147h-641zM451 1024l-218 -1024h-208l217 1024h209z" />
    <glyph glyph-name="Ibreve" unicode="&#x12c;" horiz-adv-x="546" 
d="M838 1843q-24 -108 -120 -187t-218 -79t-186 79.5t-40 186.5h156q-12 -58 13 -96.5t79 -38.5q57 0 97.5 38t52.5 97h166zM578 1434l-306 -1434h-215l305 1434h216z" />
    <glyph glyph-name="ibreve" unicode="&#x12d;" horiz-adv-x="473" 
d="M713 1434q-24 -108 -120 -187.5t-218 -79.5q-121 0 -185 80t-40 187h155q-12 -58 13 -97t79 -39q57 0 97.5 38.5t52.5 97.5h166zM451 1024l-218 -1024h-208l217 1024h209z" />
    <glyph glyph-name="Iogonek" unicode="&#x12e;" horiz-adv-x="546" 
d="M98 -166q0 -32 27 -48.5t72 -16.5q47 0 96 12l-27 -123q-50 -16 -108 -16q-92 0 -150.5 40.5t-58.5 110.5q0 130 157 207h-49l305 1434h216l-306 -1434q-80 -25 -127 -69t-47 -97z" />
    <glyph glyph-name="iogonek" unicode="&#x12f;" horiz-adv-x="473" 
d="M408 1440q54 0 92.5 -38t38.5 -93q0 -54 -38.5 -93.5t-92.5 -39.5q-55 0 -95.5 39.5t-40.5 93.5q0 55 40 93t96 38zM233 0q-80 -25 -127 -69t-47 -97q0 -32 27 -48.5t72 -16.5q46 0 96 12l-27 -123q-50 -16 -108 -16q-92 0 -150.5 40.5t-58.5 110.5q0 130 158 207h-43
l217 1024h209z" />
    <glyph glyph-name="Idotaccent" unicode="&#x130;" horiz-adv-x="546" 
d="M532 1585q-55 0 -95 39.5t-40 93.5q0 55 39.5 93t95.5 38q54 0 93 -38t39 -93q0 -54 -39 -93.5t-93 -39.5zM578 1434l-306 -1434h-215l305 1434h216z" />
    <glyph glyph-name="dotlessi" unicode="&#x131;" horiz-adv-x="473" 
d="M451 1024l-218 -1024h-208l217 1024h209z" />
    <glyph glyph-name="IJ" unicode="&#x132;" horiz-adv-x="1638" 
d="M578 1434l-306 -1434h-215l305 1434h216zM803 420q-18 -105 26 -173.5t142 -68.5q100 0 170.5 66t99.5 196l211 994h217l-213 -1002q-49 -221 -182.5 -336.5t-329.5 -115.5q-206 0 -303 121t-61 319h223z" />
    <glyph glyph-name="ij" unicode="&#x133;" horiz-adv-x="964" 
d="M408 1176q-55 0 -95.5 39.5t-40.5 93.5q0 55 40 93t96 38q54 0 92.5 -38t38.5 -93q0 -54 -38.5 -93.5t-92.5 -39.5zM874 1176q-54 0 -94.5 39.5t-40.5 93.5q0 55 40 93t95 38q54 0 93 -38t39 -93q0 -54 -39 -93.5t-93 -39.5zM451 1024l-218 -1024h-208l217 1024h209z
M201 -250q54 -14 98 -14q134 0 164 129l246 1159h209l-252 -1186q-57 -268 -330 -268q-87 0 -168 22z" />
    <glyph glyph-name="Jcircumflex" unicode="&#x134;" horiz-adv-x="1114" 
d="M948 1548h-192l276 295h180l152 -295h-174l-78 170h-14zM279 420q-18 -105 25.5 -173.5t141.5 -68.5q100 0 171.5 66t99.5 196l211 994h217l-213 -1002q-49 -221 -182.5 -336.5t-329.5 -115.5q-206 0 -303.5 121t-61.5 319h224z" />
    <glyph glyph-name="jcircumflex" unicode="&#x135;" horiz-adv-x="475" 
d="M258 1139h-192l276 295h180l152 -295h-174l-78 170h-14zM-266 -250q51 -14 98 -14q135 0 162 129l248 1159h209l-252 -1186q-9 -39 -20.5 -70.5t-36.5 -70.5t-59 -65t-89.5 -44t-126.5 -18q-85 0 -166 22z" />
    <glyph glyph-name="uni0136" unicode="&#x136;" horiz-adv-x="1296" 
d="M895 0l-379 639h-108l-136 -639h-215l305 1434h216l-129 -600h108l578 600h251l-665 -705v-10l416 -719h-242zM530 -117q59 0 95.5 -34.5t36.5 -92.5q0 -101 -83.5 -207.5t-216.5 -173.5l-43 64q145 98 168 194q-44 0 -72 28.5t-28 76.5q0 64 40 104.5t103 40.5z" />
    <glyph glyph-name="uni0137" unicode="&#x137;" horiz-adv-x="1071" 
d="M1139 1024l-506 -412l289 -612h-213l-236 483l-166 -135l-74 -348h-208l309 1454h209l-176 -827h16l500 397h256zM410 -117q59 0 95 -34.5t36 -92.5q0 -102 -83 -208t-216 -173l-43 64q145 98 168 194q-44 0 -72.5 28.5t-28.5 76.5q0 64 40.5 104.5t103.5 40.5z" />
    <glyph glyph-name="Lacute" unicode="&#x139;" horiz-adv-x="1183" 
d="M606 1843h193l-230 -297h-174zM309 195h733l-43 -195h-942l305 1434h211z" />
    <glyph glyph-name="lacute" unicode="&#x13a;" horiz-adv-x="473" 
d="M582 1843h192l-229 -297h-174zM334 1454h209l-310 -1454h-208z" />
    <glyph glyph-name="uni013B" unicode="&#x13b;" horiz-adv-x="1183" 
d="M309 195h733l-43 -195h-942l305 1434h211zM469 -117q59 0 95 -34.5t36 -92.5q0 -102 -83 -208t-216 -173l-43 64q145 98 168 194q-44 0 -72 28.5t-28 76.5q0 64 40 104.5t103 40.5z" />
    <glyph glyph-name="uni013C" unicode="&#x13c;" horiz-adv-x="473" 
d="M334 1454h209l-310 -1454h-208zM78 -117q59 0 95 -34.5t36 -92.5q0 -102 -83 -208t-216 -173l-43 64q145 98 168 194q-44 0 -72.5 28.5t-28.5 76.5q0 64 40.5 104.5t103.5 40.5z" />
    <glyph glyph-name="Lcaron" unicode="&#x13d;" horiz-adv-x="1183" 
d="M885 1450q56 0 90.5 -36t34.5 -97q0 -103 -79.5 -210.5t-205.5 -176.5l-41 67q136 98 160 195q-43 2 -69.5 30t-26.5 78q0 66 38.5 108t98.5 42zM309 195h733l-43 -195h-942l305 1434h211z" />
    <glyph glyph-name="lcaron" unicode="&#x13e;" horiz-adv-x="473" 
d="M334 1454h209l-310 -1454h-208zM850 1450q56 0 90.5 -36t34.5 -97q0 -103 -79.5 -210.5t-205.5 -176.5l-41 67q136 98 160 195q-43 2 -69.5 30t-26.5 78q0 66 38.5 108t98.5 42z" />
    <glyph glyph-name="Ldot" unicode="&#x13f;" horiz-adv-x="1183" 
d="M309 195h733l-43 -195h-942l305 1434h211zM813 705q-54 0 -94.5 39.5t-40.5 93.5q0 55 40 93t95 38t93 -37.5t38 -93.5q0 -55 -38 -94t-93 -39z" />
    <glyph glyph-name="ldot" unicode="&#x140;" horiz-adv-x="473" 
d="M496 1585q-55 0 -95.5 39.5t-40.5 93.5q0 55 40 93t96 38q54 0 92.5 -38t38.5 -93q0 -54 -38.5 -93.5t-92.5 -39.5zM334 1454h209l-310 -1454h-208z" />
    <glyph glyph-name="Lslash" unicode="&#x141;" horiz-adv-x="1183" 
d="M309 195h733l-43 -195h-942l121 567l-352 -143l80 190l309 127l147 693h211l-127 -600l445 182l-82 -193l-399 -161z" />
    <glyph glyph-name="lslash" unicode="&#x142;" horiz-adv-x="473" 
d="M629 981l-39 -190l-209 -103l-148 -688h-208l122 575l-210 -102l40 189l209 102l148 690h209l-123 -575z" />
    <glyph glyph-name="Nacute" unicode="&#x143;" horiz-adv-x="1505" 
d="M1096 1843h192l-229 -297h-174zM1325 1434h211l-305 -1434h-205l-518 1063h-14l-226 -1063h-211l305 1434h205l516 -1065h15z" />
    <glyph glyph-name="nacute" unicode="&#x144;" horiz-adv-x="1171" 
d="M842 1434h192l-229 -297h-174zM760 1044q175 0 260 -109t43 -308l-133 -627h-209l127 590q28 134 -22.5 203t-155.5 69q-107 0 -196.5 -73t-119.5 -216l-121 -573h-208l217 1024h188l-6 -123h14q63 67 138.5 105t183.5 38z" />
    <glyph glyph-name="uni0145" unicode="&#x145;" horiz-adv-x="1505" 
d="M1325 1434h211l-305 -1434h-205l-518 1063h-14l-226 -1063h-211l305 1434h205l516 -1065h15zM592 -117q59 0 95 -34.5t36 -92.5q0 -102 -83 -208t-216 -173l-43 64q145 98 168 194q-44 0 -72 28.5t-28 76.5q0 64 40 104.5t103 40.5z" />
    <glyph glyph-name="uni0146" unicode="&#x146;" horiz-adv-x="1171" 
d="M760 1044q175 0 260 -109t43 -308l-133 -627h-209l127 590q28 134 -22.5 203t-155.5 69q-107 0 -196.5 -73t-119.5 -216l-121 -573h-208l217 1024h188l-6 -123h14q63 67 138.5 105t183.5 38zM424 -117q59 0 95 -34.5t36 -92.5q0 -102 -83 -208t-216 -173l-43 64
q145 98 168 194q-44 0 -72 28.5t-28 76.5q0 64 40 104.5t103 40.5z" />
    <glyph glyph-name="Ncaron" unicode="&#x147;" horiz-adv-x="1505" 
d="M1149 1843h190l-274 -295h-182l-150 295h172l80 -170h12zM1325 1434h211l-305 -1434h-205l-518 1063h-14l-226 -1063h-211l305 1434h205l516 -1065h15z" />
    <glyph glyph-name="ncaron" unicode="&#x148;" horiz-adv-x="1171" 
d="M895 1434h190l-274 -295h-182l-150 295h172l80 -170h12zM760 1044q175 0 260 -109t43 -308l-133 -627h-209l127 590q28 134 -22.5 203t-155.5 69q-107 0 -196.5 -73t-119.5 -216l-121 -573h-208l217 1024h188l-6 -123h14q63 67 138.5 105t183.5 38z" />
    <glyph glyph-name="Eng" unicode="&#x14a;" horiz-adv-x="1505" 
d="M854 -430q-79 0 -160 22l33 158q58 -14 102 -14q64 0 107.5 34.5t58.5 102.5l29 135l-516 1055h-14l-226 -1063h-211l305 1434h205l516 -1065h15l227 1065h211l-336 -1577q-31 -144 -124 -215.5t-222 -71.5z" />
    <glyph glyph-name="eng" unicode="&#x14b;" horiz-adv-x="1171" 
d="M760 1044q175 0 260 -109t43 -308l-164 -770q-31 -144 -124 -215.5t-222 -71.5q-79 0 -160 22l33 158q58 -14 102 -14q64 0 107.5 34.5t58.5 102.5l154 717q28 134 -22.5 203t-155.5 69q-107 0 -196.5 -73t-119.5 -216l-121 -573h-208l217 1024h188l-6 -123h14
q63 67 138.5 105t183.5 38z" />
    <glyph glyph-name="Omacron" unicode="&#x14c;" horiz-adv-x="1699" 
d="M791 1739h641l-31 -148h-641zM764 -20q-273 0 -440.5 163.5t-167.5 429.5q0 168 69.5 329t185.5 282.5t277 195.5t334 74q274 0 441 -164.5t167 -431.5q0 -135 -44.5 -267t-126 -241t-187.5 -192.5t-238 -130.5t-270 -47zM778 178q122 0 238.5 56.5t201.5 147.5
t137 212.5t52 245.5q0 186 -109 300.5t-290 114.5q-123 0 -239.5 -56.5t-201 -148t-135.5 -212.5t-51 -246q0 -185 108.5 -299.5t288.5 -114.5z" />
    <glyph glyph-name="omacron" unicode="&#x14d;" horiz-adv-x="1259" 
d="M485 1329h641l-30 -147h-641zM541 -20q-201 0 -325 120t-124 316q0 165 85.5 309.5t232 231.5t315.5 87q199 0 320.5 -119.5t121.5 -314.5q0 -164 -84 -309t-229 -233t-313 -88zM555 162q104 0 197.5 61t149.5 161.5t56 211.5q0 118 -67 192t-184 74q-105 0 -198.5 -60.5
t-148.5 -160.5t-55 -211q0 -119 67 -193.5t183 -74.5z" />
    <glyph glyph-name="Obreve" unicode="&#x14e;" horiz-adv-x="1699" 
d="M1413 1843q-24 -108 -120 -187t-218 -79t-185.5 79.5t-39.5 186.5h156q-12 -58 13 -96.5t79 -38.5q57 0 97 38t52 97h166zM764 -20q-273 0 -440.5 163.5t-167.5 429.5q0 168 69.5 329t185.5 282.5t277 195.5t334 74q274 0 441 -164.5t167 -431.5q0 -135 -44.5 -267
t-126 -241t-187.5 -192.5t-238 -130.5t-270 -47zM778 178q122 0 238.5 56.5t201.5 147.5t137 212.5t52 245.5q0 186 -109 300.5t-290 114.5q-123 0 -239.5 -56.5t-201 -148t-135.5 -212.5t-51 -246q0 -185 108.5 -299.5t288.5 -114.5z" />
    <glyph glyph-name="obreve" unicode="&#x14f;" horiz-adv-x="1259" 
d="M1110 1434q-24 -108 -120 -187.5t-218 -79.5q-121 0 -185 80t-40 187h155q-12 -58 13.5 -97t79.5 -39q57 0 97 38.5t52 97.5h166zM541 -20q-201 0 -325 120t-124 316q0 165 85.5 309.5t232 231.5t315.5 87q199 0 320.5 -119.5t121.5 -314.5q0 -164 -84 -309t-229 -233
t-313 -88zM555 162q104 0 197.5 61t149.5 161.5t56 211.5q0 118 -67 192t-184 74q-105 0 -198.5 -60.5t-148.5 -160.5t-55 -211q0 -119 67 -193.5t183 -74.5z" />
    <glyph glyph-name="Ohungarumlaut" unicode="&#x150;" horiz-adv-x="1699" 
d="M1001 1843h187l-197 -297h-174zM1335 1843h187l-199 -297h-172zM764 -20q-273 0 -440.5 163.5t-167.5 429.5q0 168 69.5 329t185.5 282.5t277 195.5t334 74q274 0 441 -164.5t167 -431.5q0 -135 -44.5 -267t-126 -241t-187.5 -192.5t-238 -130.5t-270 -47zM778 178
q122 0 238.5 56.5t201.5 147.5t137 212.5t52 245.5q0 186 -109 300.5t-290 114.5q-123 0 -239.5 -56.5t-201 -148t-135.5 -212.5t-51 -246q0 -185 108.5 -299.5t288.5 -114.5z" />
    <glyph glyph-name="ohungarumlaut" unicode="&#x151;" horiz-adv-x="1259" 
d="M698 1434h187l-197 -297h-174zM1032 1434h187l-199 -297h-172zM541 -20q-201 0 -325 120t-124 316q0 165 85.5 309.5t232 231.5t315.5 87q199 0 320.5 -119.5t121.5 -314.5q0 -164 -84 -309t-229 -233t-313 -88zM555 162q104 0 197.5 61t149.5 161.5t56 211.5
q0 118 -67 192t-184 74q-105 0 -198.5 -60.5t-148.5 -160.5t-55 -211q0 -119 67 -193.5t183 -74.5z" />
    <glyph glyph-name="OE" unicode="&#x152;" horiz-adv-x="2297" 
d="M2345 1243h-686l-90 -422h594l-41 -186h-592l-94 -445h704l-41 -190h-915l39 184q-99 -96 -226 -150t-262 -54q-261 0 -420 163.5t-159 429.5q0 168 66 329t176.5 282.5t264 195.5t318.5 74q152 0 271.5 -64.5t187.5 -179.5l49 224h895zM754 178q115 0 224.5 56.5
t189 147.5t127.5 212t48 246q0 186 -101.5 300.5t-270.5 114.5q-154 0 -291.5 -95t-218 -248t-80.5 -320q0 -184 102 -299t271 -115z" />
    <glyph glyph-name="oe" unicode="&#x153;" horiz-adv-x="1632" 
d="M1513 455h-563q-7 -33 -11 -63.5t-6 -68.5t5.5 -68.5t22.5 -57t44.5 -41.5t71.5 -15q67 0 126 38.5t89 127.5h193q-52 -166 -165 -246.5t-259 -80.5q-222 0 -293 153q-143 -153 -332 -153q-153 0 -251.5 106t-98.5 276q0 185 72 342t196.5 248.5t272.5 91.5
q96 0 173.5 -42t121.5 -121q137 163 325 163q61 0 113.5 -17.5t97 -54.5t70.5 -103.5t26 -155.5q0 -140 -41 -258zM1233 883q-82 0 -146.5 -70t-103.5 -209h371q30 147 -6 213t-115 66zM457 150q80 0 154 71t118.5 189t44.5 247q0 103 -42.5 160t-119.5 57
q-81 0 -154.5 -70.5t-118 -188t-44.5 -246.5q0 -104 42.5 -161.5t119.5 -57.5z" />
    <glyph glyph-name="Racute" unicode="&#x154;" horiz-adv-x="1284" 
d="M1190 1843l-229 -297h-175l211 297h193zM1268 1083q0 -166 -106 -293.5t-285 -171.5l223 -618h-219l-209 586h-279l-125 -586h-211l305 1434h506q187 0 293.5 -92.5t106.5 -258.5zM723 772q143 0 233.5 83t90.5 204q0 91 -58.5 139.5t-163.5 48.5h-290l-103 -475h291z
" />
    <glyph glyph-name="racute" unicode="&#x155;" horiz-adv-x="755" 
d="M680 1434h192l-229 -297h-174zM756 1044h75l-45 -208q-50 6 -98 6q-134 0 -225 -93t-121 -233l-109 -516h-208l217 1024h188l-10 -143h14q67 84 138 123.5t184 39.5z" />
    <glyph glyph-name="uni0156" unicode="&#x156;" horiz-adv-x="1284" 
d="M1268 1083q0 -166 -106 -293.5t-285 -171.5l223 -618h-219l-209 586h-279l-125 -586h-211l305 1434h506q187 0 293.5 -92.5t106.5 -258.5zM723 772q143 0 233.5 83t90.5 204q0 91 -58.5 139.5t-163.5 48.5h-290l-103 -475h291zM516 -117q59 0 95 -34.5t36 -92.5
q0 -102 -83 -208t-216 -173l-43 64q145 98 168 194q-44 0 -72 28.5t-28 76.5q0 64 40 104.5t103 40.5z" />
    <glyph glyph-name="uni0157" unicode="&#x157;" horiz-adv-x="755" 
d="M756 1044h75l-45 -208q-50 6 -98 6q-134 0 -225 -93t-121 -233l-109 -516h-208l217 1024h188l-10 -143h14q67 84 138 123.5t184 39.5zM76 -117q59 0 95 -34.5t36 -92.5q0 -102 -83 -208t-216 -173l-43 64q145 98 168 194q-44 0 -72.5 28.5t-28.5 76.5q0 64 40.5 104.5
t103.5 40.5z" />
    <glyph glyph-name="Rcaron" unicode="&#x158;" horiz-adv-x="1284" 
d="M967 1548h-183l-149 295h172l80 -170h12l152 170h190zM1268 1083q0 -166 -106 -293.5t-285 -171.5l223 -618h-219l-209 586h-279l-125 -586h-211l305 1434h506q187 0 293.5 -92.5t106.5 -258.5zM723 772q143 0 233.5 83t90.5 204q0 91 -58.5 139.5t-163.5 48.5h-290
l-103 -475h291z" />
    <glyph glyph-name="rcaron" unicode="&#x159;" horiz-adv-x="755" 
d="M733 1434h191l-275 -295h-182l-150 295h172l80 -170h13zM756 1044h75l-45 -208q-50 6 -98 6q-134 0 -225 -93t-121 -233l-109 -516h-208l217 1024h188l-10 -143h14q67 84 138 123.5t184 39.5z" />
    <glyph glyph-name="Sacute" unicode="&#x15a;" horiz-adv-x="1249" 
d="M981 1843h193l-230 -297h-174zM1100 442q0 -201 -154.5 -331.5t-404.5 -130.5q-230 0 -348 118t-87 322h209q-11 -122 53 -188t195 -66q137 0 224 72t87 182q0 49 -17.5 85t-61 62.5t-71.5 38.5t-93 34q-5 2 -8 3l-60 19q-289 93 -289 333q0 93 40.5 177t111.5 146.5
t172 99t217 36.5q212 0 325.5 -116t84.5 -296h-211q9 100 -44.5 163t-168.5 63q-124 0 -213.5 -71.5t-89.5 -170.5q0 -20 5 -38t10.5 -32t20.5 -28t23 -22.5t30.5 -20t31 -16t36.5 -15t34.5 -13t37.5 -12.5l49 -16q45 -14 81.5 -29.5t84 -47t80 -69t55.5 -96.5t23 -129z" />
    <glyph glyph-name="sacute" unicode="&#x15b;" horiz-adv-x="1001" 
d="M737 1434h193l-230 -297h-174zM854 332q0 -163 -116 -257.5t-316 -94.5q-199 0 -293 91t-72 246h201q-11 -93 39 -135.5t141 -42.5q90 0 149.5 43t59.5 113q0 57 -41.5 87.5t-118.5 53.5l-55 17q-54 15 -96.5 34.5t-81 48t-59.5 70.5t-21 94q0 150 117.5 247t298.5 97
q94 0 164.5 -25t109 -67.5t54.5 -95t8 -111.5h-199q6 62 -35.5 101t-118.5 39q-82 0 -137 -45t-55 -111q0 -21 9.5 -38t19.5 -27t36 -21.5t40.5 -16.5t50.5 -16l49 -14q268 -76 268 -264z" />
    <glyph glyph-name="Scircumflex" unicode="&#x15c;" horiz-adv-x="1249" 
d="M745 1548h-192l276 295h181l151 -295h-174l-78 170h-14zM1100 442q0 -201 -154.5 -331.5t-404.5 -130.5q-230 0 -348 118t-87 322h209q-11 -122 53 -188t195 -66q137 0 224 72t87 182q0 49 -17.5 85t-61 62.5t-71.5 38.5t-93 34q-5 2 -8 3l-60 19q-289 93 -289 333
q0 93 40.5 177t111.5 146.5t172 99t217 36.5q212 0 325.5 -116t84.5 -296h-211q9 100 -44.5 163t-168.5 63q-124 0 -213.5 -71.5t-89.5 -170.5q0 -20 5 -38t10.5 -32t20.5 -28t23 -22.5t30.5 -20t31 -16t36.5 -15t34.5 -13t37.5 -12.5l49 -16q45 -14 81.5 -29.5t84 -47
t80 -69t55.5 -96.5t23 -129z" />
    <glyph glyph-name="scircumflex" unicode="&#x15d;" horiz-adv-x="1001" 
d="M502 1139h-193l277 295h180l152 -295h-175l-77 170h-15zM854 332q0 -163 -116 -257.5t-316 -94.5q-199 0 -293 91t-72 246h201q-11 -93 39 -135.5t141 -42.5q90 0 149.5 43t59.5 113q0 57 -41.5 87.5t-118.5 53.5l-55 17q-54 15 -96.5 34.5t-81 48t-59.5 70.5t-21 94
q0 150 117.5 247t298.5 97q94 0 164.5 -25t109 -67.5t54.5 -95t8 -111.5h-199q6 62 -35.5 101t-118.5 39q-82 0 -137 -45t-55 -111q0 -21 9.5 -38t19.5 -27t36 -21.5t40.5 -16.5t50.5 -16l49 -14q268 -76 268 -264z" />
    <glyph glyph-name="Scedilla" unicode="&#x15e;" horiz-adv-x="1249" 
d="M1225 1042h-211q9 100 -44.5 163t-168.5 63q-124 0 -213.5 -71.5t-89.5 -170.5q0 -20 5 -38t10.5 -32t20.5 -28t23 -22.5t30.5 -20t31 -16t36.5 -15t34.5 -13t37.5 -12.5l49 -16q45 -14 81.5 -29.5t84 -47t80 -69t55.5 -96.5t23 -129q0 -192 -145 -322t-380 -140l-63 -70
q67 5 119.5 -34.5t52.5 -104.5q0 -91 -68 -146t-176 -55q-96 0 -153 45l59 90q54 -35 103 -35t82.5 28t33.5 69q0 26 -22 42.5t-64 16.5q-27 0 -73 -16l-56 57l103 117q-189 23 -282 138t-65 298h209q-11 -122 53 -188t195 -66q137 0 224 72t87 182q0 49 -17.5 85t-61 62.5
t-71.5 38.5t-93 34q-5 2 -8 3l-60 19q-289 93 -289 333q0 93 40.5 177t111.5 146.5t172 99t217 36.5q212 0 325.5 -116t84.5 -296z" />
    <glyph glyph-name="scedilla" unicode="&#x15f;" horiz-adv-x="1001" 
d="M926 745h-199q6 62 -35.5 101t-118.5 39q-82 0 -137 -45t-55 -111q0 -21 9.5 -38t19.5 -27t36 -21.5t40.5 -16.5t50.5 -16l49 -14q268 -76 268 -264q0 -156 -106.5 -249.5t-292.5 -102.5l-64 -70q67 5 119.5 -34.5t52.5 -104.5q0 -91 -68 -146t-176 -55q-96 0 -153 45
l59 90q54 -35 103 -35t82.5 28t33.5 69q0 26 -22 42.5t-64 16.5q-27 0 -73 -16l-56 57l103 119q-154 20 -224 108t-51 223h201q-11 -93 39 -135.5t141 -42.5q90 0 149.5 43t59.5 113q0 57 -41.5 87.5t-118.5 53.5l-55 17q-54 15 -96.5 34.5t-81 48t-59.5 70.5t-21 94
q0 150 117.5 247t298.5 97q94 0 164.5 -25t109 -67.5t54.5 -95t8 -111.5z" />
    <glyph glyph-name="Scaron" unicode="&#x160;" horiz-adv-x="1249" 
d="M1034 1843h191l-275 -295h-182l-150 295h173l79 -170h13zM1100 442q0 -201 -154.5 -331.5t-404.5 -130.5q-230 0 -348 118t-87 322h209q-11 -122 53 -188t195 -66q137 0 224 72t87 182q0 49 -17.5 85t-61 62.5t-71.5 38.5t-93 34q-5 2 -8 3l-60 19q-289 93 -289 333
q0 93 40.5 177t111.5 146.5t172 99t217 36.5q212 0 325.5 -116t84.5 -296h-211q9 100 -44.5 163t-168.5 63q-124 0 -213.5 -71.5t-89.5 -170.5q0 -20 5 -38t10.5 -32t20.5 -28t23 -22.5t30.5 -20t31 -16t36.5 -15t34.5 -13t37.5 -12.5l49 -16q45 -14 81.5 -29.5t84 -47
t80 -69t55.5 -96.5t23 -129z" />
    <glyph glyph-name="scaron" unicode="&#x161;" horiz-adv-x="1001" 
d="M791 1434h190l-274 -295h-183l-149 295h172l80 -170h12zM854 332q0 -163 -116 -257.5t-316 -94.5q-199 0 -293 91t-72 246h201q-11 -93 39 -135.5t141 -42.5q90 0 149.5 43t59.5 113q0 57 -41.5 87.5t-118.5 53.5l-55 17q-54 15 -96.5 34.5t-81 48t-59.5 70.5t-21 94
q0 150 117.5 247t298.5 97q94 0 164.5 -25t109 -67.5t54.5 -95t8 -111.5h-199q6 62 -35.5 101t-118.5 39q-82 0 -137 -45t-55 -111q0 -21 9.5 -38t19.5 -27t36 -21.5t40.5 -16.5t50.5 -16l49 -14q268 -76 268 -264z" />
    <glyph glyph-name="uni0162" unicode="&#x162;" horiz-adv-x="1191" 
d="M596 0h-45l-82 -90q67 5 119.5 -34.5t52.5 -104.5q0 -91 -68 -146t-176 -55q-96 0 -153 45l59 90q54 -35 103 -35t82.5 28t33.5 69q0 26 -22 42.5t-64 16.5q-28 0 -74 -16l-55 57l115 133h-43l264 1239h-414l43 195h1041l-41 -195h-414z" />
    <glyph glyph-name="uni0163" unicode="&#x163;" horiz-adv-x="763" 
d="M539 856l-123 -580q-12 -60 8.5 -94.5t95.5 -34.5q49 0 105 17l-35 -162q-90 -22 -154 -22h-20l-64 -70q67 5 119.5 -34.5t52.5 -104.5q0 -91 -67.5 -146t-175.5 -55q-97 0 -154 45l59 90q54 -35 103 -35q50 0 83.5 28t33.5 69q0 26 -22.5 42.5t-64.5 16.5q-27 0 -73 -16
l-56 57l117 133q-55 22 -83.5 65.5t-29 89.5t6.5 93l129 608h-219l34 168h72q88 0 134.5 34t64.5 120l26 125h191l-60 -279h261l-35 -168h-260z" />
    <glyph glyph-name="Tcaron" unicode="&#x164;" horiz-adv-x="1191" 
d="M909 1548h-182l-149 295h172l79 -170h13l151 170h191zM1313 1434l-41 -195h-414l-262 -1239h-217l264 1239h-414l43 195h1041z" />
    <glyph glyph-name="tcaron" unicode="&#x165;" horiz-adv-x="763" 
d="M989 1591q54 0 86.5 -31.5t32.5 -86.5q0 -95 -75 -193.5t-195 -161.5l-41 62q132 90 153 178q-41 2 -66.5 27.5t-25.5 70.5q0 60 37 97.5t94 37.5zM834 1024l-35 -168h-260l-123 -580q-12 -60 8.5 -94.5t95.5 -34.5q49 0 105 17l-35 -162q-90 -22 -154 -22
q-57 0 -101.5 11.5t-71 32.5t-43.5 46.5t-22.5 57t-4.5 60.5t8 60l129 608h-219l34 168h72q88 0 134.5 34t64.5 120l26 125h191l-60 -279h261z" />
    <glyph glyph-name="Tbar" unicode="&#x166;" horiz-adv-x="1191" 
d="M1272 1239h-414l-96 -459h299l-33 -162h-301l-131 -618h-217l131 618h-297l33 162h299l98 459h-414l43 195h1041z" />
    <glyph glyph-name="tbar" unicode="&#x167;" horiz-adv-x="763" 
d="M799 856h-260l-50 -231h250l-32 -154h-250l-41 -195q-12 -60 8.5 -94.5t95.5 -34.5q49 0 105 17l-35 -162q-90 -22 -154 -22q-57 0 -101.5 11.5t-71 32.5t-43.5 46.5t-22.5 57t-4.5 60.5t8 60l47 223h-211l33 154h211l49 231h-219l34 168h72q88 0 134.5 34t64.5 120
l26 125h191l-60 -279h261z" />
    <glyph glyph-name="Utilde" unicode="&#x168;" horiz-adv-x="1468" 
d="M1374 1784q-31 -111 -95.5 -183.5t-158.5 -72.5q-44 0 -79 13.5t-57.5 32t-42 37.5t-42 32.5t-47.5 13.5q-83 0 -119 -113h-143q33 114 97 186t161 72q55 0 97 -20t62.5 -43.5t48 -43.5t58.5 -20q43 0 73.5 31.5t43.5 77.5h143zM1499 1434l-188 -887q-59 -277 -237 -422
t-433 -145q-125 0 -223 35.5t-163.5 106t-87 177t6.5 248.5l188 887h216l-187 -877q-38 -182 40.5 -280.5t236.5 -98.5t274.5 98t155.5 281l186 877h215z" />
    <glyph glyph-name="utilde" unicode="&#x169;" horiz-adv-x="1171" 
d="M1137 1374q-31 -111 -95.5 -183.5t-158.5 -72.5q-44 0 -79.5 13.5t-58 32t-42 37.5t-42 32.5t-47.5 13.5q-83 0 -118 -112h-144q33 114 97 186t161 72q45 0 81 -13t57.5 -31.5t40.5 -37.5t41 -32t47 -13q43 0 73 31t43 77h144zM410 -20q-174 0 -259 109.5t-42 307.5
l133 627h209l-127 -590q-28 -134 21.5 -203t154.5 -69q109 0 198 73t119 216l121 573h209l-217 -1024h-189l7 123h-15q-66 -68 -140 -105.5t-183 -37.5z" />
    <glyph glyph-name="Umacron" unicode="&#x16a;" horiz-adv-x="1468" 
d="M676 1739h641l-31 -148h-641zM1499 1434l-188 -887q-59 -277 -237 -422t-433 -145q-125 0 -223 35.5t-163.5 106t-87 177t6.5 248.5l188 887h216l-187 -877q-38 -182 40.5 -280.5t236.5 -98.5t274.5 98t155.5 281l186 877h215z" />
    <glyph glyph-name="umacron" unicode="&#x16b;" horiz-adv-x="1171" 
d="M438 1329h641l-30 -147h-641zM410 -20q-174 0 -259 109.5t-42 307.5l133 627h209l-127 -590q-28 -134 21.5 -203t154.5 -69q109 0 198 73t119 216l121 573h209l-217 -1024h-189l7 123h-15q-66 -68 -140 -105.5t-183 -37.5z" />
    <glyph glyph-name="Ubreve" unicode="&#x16c;" horiz-adv-x="1468" 
d="M1298 1843q-24 -108 -119.5 -187t-217.5 -79t-186 79.5t-40 186.5h156q-12 -58 13 -96.5t79 -38.5q57 0 97.5 38t52.5 97h165zM1499 1434l-188 -887q-59 -277 -237 -422t-433 -145q-125 0 -223 35.5t-163.5 106t-87 177t6.5 248.5l188 887h216l-187 -877
q-38 -182 40.5 -280.5t236.5 -98.5t274.5 98t155.5 281l186 877h215z" />
    <glyph glyph-name="ubreve" unicode="&#x16d;" horiz-adv-x="1171" 
d="M1063 1434q-24 -108 -120 -187.5t-218 -79.5q-121 0 -185 80t-40 187h155q-12 -58 13.5 -97t79.5 -39q57 0 97 38.5t52 97.5h166zM410 -20q-174 0 -259 109.5t-42 307.5l133 627h209l-127 -590q-28 -134 21.5 -203t154.5 -69q109 0 198 73t119 216l121 573h209
l-217 -1024h-189l7 123h-15q-66 -68 -140 -105.5t-183 -37.5z" />
    <glyph glyph-name="Uring" unicode="&#x16e;" horiz-adv-x="1468" 
d="M989 1511q-83 0 -142 59.5t-59 139.5t59 138.5t142 58.5t143 -58.5t60 -138.5t-60 -139.5t-143 -59.5zM991 1628q32 0 55 24t23 58q0 31 -23 54.5t-55 23.5q-34 0 -57 -23t-23 -55q0 -34 22.5 -58t57.5 -24zM1499 1434l-188 -887q-59 -277 -237 -422t-433 -145
q-125 0 -223 35.5t-163.5 106t-87 177t6.5 248.5l188 887h216l-187 -877q-38 -182 40.5 -280.5t236.5 -98.5t274.5 98t155.5 281l186 877h215z" />
    <glyph glyph-name="uring" unicode="&#x16f;" horiz-adv-x="1171" 
d="M754 1102q-83 0 -142 59t-59 139t59 138.5t142 58.5t142.5 -58.5t59.5 -138.5t-59.5 -139t-142.5 -59zM756 1219q32 0 55 23.5t23 57.5q0 31 -23 54.5t-55 23.5q-34 0 -57 -23t-23 -55q0 -34 22.5 -57.5t57.5 -23.5zM410 -20q-174 0 -259 109.5t-42 307.5l133 627h209
l-127 -590q-28 -134 21.5 -203t154.5 -69q109 0 198 73t119 216l121 573h209l-217 -1024h-189l7 123h-15q-66 -68 -140 -105.5t-183 -37.5z" />
    <glyph glyph-name="Uhungarumlaut" unicode="&#x170;" horiz-adv-x="1468" 
d="M887 1843h186l-196 -297h-175zM1221 1843h186l-199 -297h-172zM1499 1434l-188 -887q-59 -277 -237 -422t-433 -145q-125 0 -223 35.5t-163.5 106t-87 177t6.5 248.5l188 887h216l-187 -877q-38 -182 40.5 -280.5t236.5 -98.5t274.5 98t155.5 281l186 877h215z" />
    <glyph glyph-name="uhungarumlaut" unicode="&#x171;" horiz-adv-x="1171" 
d="M649 1434h187l-197 -297h-174zM983 1434h186l-198 -297h-172zM410 -20q-174 0 -259 109.5t-42 307.5l133 627h209l-127 -590q-28 -134 21.5 -203t154.5 -69q109 0 198 73t119 216l121 573h209l-217 -1024h-189l7 123h-15q-66 -68 -140 -105.5t-183 -37.5z" />
    <glyph glyph-name="Uogonek" unicode="&#x172;" horiz-adv-x="1468" 
d="M1284 1434h215l-188 -887q-49 -226 -178 -365.5t-318 -183.5q-78 -25 -124 -68.5t-46 -95.5q0 -32 26.5 -48.5t71.5 -16.5q47 0 97 12l-27 -123q-50 -16 -108 -16q-92 0 -150.5 40.5t-58.5 110.5q0 116 120 187q-119 4 -212 41t-155.5 108t-82.5 175.5t8 242.5l188 887
h216l-187 -877q-38 -182 40.5 -280.5t236.5 -98.5t274.5 98t155.5 281z" />
    <glyph glyph-name="uogonek" unicode="&#x173;" horiz-adv-x="1171" 
d="M756 -166q0 -32 26.5 -48.5t71.5 -16.5q46 0 96 12l-26 -123q-50 -16 -109 -16q-92 0 -150.5 40.5t-58.5 110.5q0 130 158 207h-23l7 123h-15q-66 -68 -140 -105.5t-183 -37.5q-174 0 -259 109.5t-42 307.5l133 627h209l-127 -590q-28 -134 21.5 -203t154.5 -69
q109 0 198 73t119 216l121 573h209l-217 -1024q-80 -25 -127 -69t-47 -97z" />
    <glyph glyph-name="Wcircumflex" unicode="&#x174;" horiz-adv-x="1853" 
d="M1036 1548h-192l276 295h180l152 -295h-174l-78 170h-14zM1786 1434h215l-623 -1434h-245l-82 1057h-15l-530 -1057h-246l-14 1434h203l-3 -1125h15l516 1022h235l78 -1022h15z" />
    <glyph glyph-name="wcircumflex" unicode="&#x175;" horiz-adv-x="1517" 
d="M780 1139h-192l276 295h180l152 -295h-174l-78 170h-14zM1384 1024h203l-485 -1024h-236l-55 723h-14l-365 -723h-235l-50 1024h189l20 -784h15l362 712h223l60 -714h14z" />
    <glyph glyph-name="Ycircumflex" unicode="&#x176;" horiz-adv-x="1351" 
d="M786 1548h-192l276 295h181l151 -295h-174l-78 170h-14zM1229 1434h270l-682 -772l-141 -662h-215l141 662l-356 772h248l245 -537h15z" />
    <glyph glyph-name="ycircumflex" unicode="&#x177;" horiz-adv-x="1116" 
d="M580 1139h-193l277 295h180l151 -295h-174l-78 170h-14zM1186 1024l-674 -1171q-17 -30 -24.5 -43t-32 -49t-44.5 -56t-56 -49.5t-72 -45.5t-86.5 -28t-106.5 -12q-79 0 -160 22l33 158q61 -14 107 -14q151 0 243 147l72 117h-59l-179 1024h207l133 -809h15l459 809h225z
" />
    <glyph glyph-name="Ydieresis" unicode="&#x178;" horiz-adv-x="1351" 
d="M690 1561q-56 0 -95.5 39t-39.5 94q0 57 39.5 96t95.5 39t95.5 -39t39.5 -96q0 -55 -39.5 -94t-95.5 -39zM1167 1561q-54 0 -93.5 39t-39.5 94q0 56 39 95.5t94 39.5q57 0 96.5 -39t39.5 -96q0 -56 -39.5 -94.5t-96.5 -38.5zM1229 1434h270l-682 -772l-141 -662h-215
l141 662l-356 772h248l245 -537h15z" />
    <glyph glyph-name="Zacute" unicode="&#x179;" horiz-adv-x="1273" 
d="M991 1843h193l-230 -297h-174zM387 195h688l-43 -195h-1016l27 123l932 1106v10h-656l41 195h967l-27 -123l-913 -1106v-10z" />
    <glyph glyph-name="zacute" unicode="&#x17a;" horiz-adv-x="1001" 
d="M766 1434h192l-229 -297h-174zM324 164h501l-34 -164h-799l20 104l656 744v12h-465l33 164h761l-22 -104l-651 -744v-12z" />
    <glyph glyph-name="Zdotaccent" unicode="&#x17b;" horiz-adv-x="1273" 
d="M907 1585q-55 0 -95 39.5t-40 93.5q0 55 39.5 93t95.5 38q54 0 92.5 -38t38.5 -93q0 -54 -38.5 -93.5t-92.5 -39.5zM387 195h688l-43 -195h-1016l27 123l932 1106v10h-656l41 195h967l-27 -123l-913 -1106v-10z" />
    <glyph glyph-name="zdotaccent" unicode="&#x17c;" horiz-adv-x="1001" 
d="M680 1176q-55 0 -95 39.5t-40 93.5q0 55 39.5 93t95.5 38q54 0 92.5 -38t38.5 -93q0 -54 -38.5 -93.5t-92.5 -39.5zM324 164h501l-34 -164h-799l20 104l656 744v12h-465l33 164h761l-22 -104l-651 -744v-12z" />
    <glyph glyph-name="Zcaron" unicode="&#x17d;" horiz-adv-x="1273" 
d="M1044 1843h191l-274 -295h-183l-149 295h172l80 -170h12zM387 195h688l-43 -195h-1016l27 123l932 1106v10h-656l41 195h967l-27 -123l-913 -1106v-10z" />
    <glyph glyph-name="zcaron" unicode="&#x17e;" horiz-adv-x="1001" 
d="M819 1434h191l-275 -295h-182l-150 295h172l80 -170h13zM324 164h501l-34 -164h-799l20 104l656 744v12h-465l33 164h761l-22 -104l-651 -744v-12z" />
    <glyph glyph-name="florin" unicode="&#x192;" horiz-adv-x="1110" 
d="M1001 1331q69 0 126.5 -21t91.5 -55l-99 -139q-43 49 -116 49q-56 0 -95.5 -30t-66.5 -99l-101 -258h277l-33 -151h-303l-147 -379q-52 -133 -146.5 -200.5t-218.5 -67.5q-71 0 -128 20.5t-89 54.5l96 140q44 -50 119 -50q112 0 164 129l137 353h-258l31 151h284l111 285
q51 134 145.5 201t218.5 67z" />
    <glyph glyph-name="uni01CD" unicode="&#x1cd;" horiz-adv-x="1374" 
d="M1001 1548h-182l-149 295h172l80 -170h12l151 170h191zM752 1434h264l198 -1434h-223l-47 375h-557l-207 -375h-239zM485 557h437l-78 625h-15z" />
    <glyph glyph-name="uni01CE" unicode="&#x1ce;" horiz-adv-x="1243" 
d="M834 1139h-183l-149 295h172l80 -170h12l152 170h190zM1010 1024h209l-220 -1024h-170l11 137h-15q-141 -157 -346 -157q-174 0 -281.5 112.5t-107.5 306.5q0 170 77.5 318.5t214.5 237.5t300 89q111 0 189 -42t112 -105zM532 162q102 0 190 62.5t138.5 165t50.5 216.5
q0 121 -58.5 188.5t-162.5 67.5q-103 0 -192.5 -61.5t-141 -163t-51.5 -215.5q0 -122 61 -191t166 -69z" />
    <glyph glyph-name="uni01CF" unicode="&#x1cf;" horiz-adv-x="546" 
d="M672 1843h190l-274 -295h-182l-150 295h172l80 -170h12zM578 1434l-306 -1434h-215l305 1434h216z" />
    <glyph glyph-name="uni01D0" unicode="&#x1d0;" horiz-adv-x="473" 
d="M547 1434h190l-274 -295h-182l-150 295h172l80 -170h12zM451 1024l-218 -1024h-208l217 1024h209z" />
    <glyph glyph-name="uni01D1" unicode="&#x1d1;" horiz-adv-x="1699" 
d="M1247 1843h191l-275 -295h-182l-150 295h173l79 -170h13zM764 -20q-273 0 -440.5 163.5t-167.5 429.5q0 168 69.5 329t185.5 282.5t277 195.5t334 74q274 0 441 -164.5t167 -431.5q0 -135 -44.5 -267t-126 -241t-187.5 -192.5t-238 -130.5t-270 -47zM778 178
q122 0 238.5 56.5t201.5 147.5t137 212.5t52 245.5q0 186 -109 300.5t-290 114.5q-123 0 -239.5 -56.5t-201 -148t-135.5 -212.5t-51 -246q0 -185 108.5 -299.5t288.5 -114.5z" />
    <glyph glyph-name="uni01D2" unicode="&#x1d2;" horiz-adv-x="1259" 
d="M942 1434h191l-275 -295h-182l-150 295h172l80 -170h13zM541 -20q-201 0 -325 120t-124 316q0 165 85.5 309.5t232 231.5t315.5 87q199 0 320.5 -119.5t121.5 -314.5q0 -164 -84 -309t-229 -233t-313 -88zM555 162q104 0 197.5 61t149.5 161.5t56 211.5q0 118 -67 192
t-184 74q-105 0 -198.5 -60.5t-148.5 -160.5t-55 -211q0 -119 67 -193.5t183 -74.5z" />
    <glyph glyph-name="uni01D3" unicode="&#x1d3;" horiz-adv-x="1468" 
d="M1133 1843h190l-274 -295h-183l-149 295h172l80 -170h12zM1499 1434l-188 -887q-59 -277 -237 -422t-433 -145q-125 0 -223 35.5t-163.5 106t-87 177t6.5 248.5l188 887h216l-187 -877q-38 -182 40.5 -280.5t236.5 -98.5t274.5 98t155.5 281l186 877h215z" />
    <glyph glyph-name="uni01D4" unicode="&#x1d4;" horiz-adv-x="1171" 
d="M895 1434h190l-274 -295h-182l-150 295h172l80 -170h12zM410 -20q-174 0 -259 109.5t-42 307.5l133 627h209l-127 -590q-28 -134 21.5 -203t154.5 -69q109 0 198 73t119 216l121 573h209l-217 -1024h-189l7 123h-15q-66 -68 -140 -105.5t-183 -37.5z" />
    <glyph glyph-name="uni01E2" unicode="&#x1e2;" horiz-adv-x="2097" 
d="M2060 1739l-30 -148h-641l30 148h641zM2144 1243h-686l-90 -422h588l-41 -186h-586l-94 -445h704l-41 -190h-915l80 375h-537l-321 -375h-264l1226 1434h1016zM1102 557l133 625h-16l-537 -625h420z" />
    <glyph glyph-name="uni01E3" unicode="&#x1e3;" horiz-adv-x="1533" 
d="M1249 1329l-30 -147h-641l30 147h641zM1411 455h-561q-65 -314 127 -314q43 0 81.5 13t76.5 52t57 101h192q-52 -164 -163 -245.5t-258 -81.5q-223 0 -283 165q-109 -165 -350 -165q-127 0 -206 62t-79 169q0 183 142 288t388 105h97l20 92q18 86 -12 134.5t-109 48.5
q-80 0 -134.5 -42.5t-76.5 -121.5l-196 6q41 155 150.5 239t269.5 84q97 0 167.5 -38.5t102.5 -110.5q127 149 301 149q59 0 110.5 -17.5t95.5 -54t69.5 -102.5t25.5 -155q0 -147 -45 -260zM1135 883q-80 0 -150 -70t-102 -209h370q30 148 -5 213.5t-113 65.5zM614 338
l25 117h-88q-143 0 -223 -55t-80 -154q0 -52 35.5 -78.5t95.5 -26.5q80 0 146 47t89 150z" />
    <glyph glyph-name="Gcaron" unicode="&#x1e6;" horiz-adv-x="1622" 
d="M1217 1843h190l-274 -295h-183l-149 295h172l80 -170h12zM860 758h647l-159 -758h-172l8 156h-15q-202 -176 -462 -176q-257 0 -406 151.5t-149 411.5q0 142 43.5 278.5t124 249.5t188 199.5t243 135t281.5 48.5q242 0 384 -124.5t136 -313.5h-225q-11 107 -96.5 173
t-222.5 66q-166 0 -312.5 -97.5t-232.5 -257.5t-86 -337q0 -183 97 -286t284 -103q110 0 209 35t174.5 111t97.5 182l18 84h-397v172z" />
    <glyph glyph-name="gcaron" unicode="&#x1e7;" horiz-adv-x="1116" 
d="M791 1139h-183l-149 295h172l80 -170h12l151 170h191zM362 377q-86 -35 -86 -98q0 -37 32 -56.5t89 -19.5h195q153 0 237 -65t84 -189q0 -161 -144.5 -270t-375.5 -109q-115 0 -201 28.5t-134 78t-69 110t-16 131.5l201 145q-46 23 -71 63.5t-25 90.5q0 72 48.5 131.5
t133.5 95.5q-72 78 -72 189q0 112 62.5 206.5t171 149.5t237.5 55q140 0 232 -61q53 25 110 65t95 80l84 -129q-71 -64 -195 -118q31 -64 31 -138q0 -165 -137 -282t-334 -117q-99 0 -183 33zM645 889q-104 0 -179 -68.5t-75 -165.5q0 -70 47 -111.5t129 -41.5
q103 0 175.5 68t72.5 167q0 71 -44.5 111.5t-125.5 40.5zM709 -78q0 33 -14.5 56.5t-39 35.5t-51.5 17.5t-57 5.5h-185l-192 -137q5 -76 64 -123t180 -47q125 0 210 55t85 137z" />
    <glyph glyph-name="uni01EA" unicode="&#x1ea;" horiz-adv-x="1699" 
d="M934 -2q-77 -25 -122.5 -68.5t-45.5 -95.5q0 -32 26.5 -48.5t71.5 -16.5q48 0 97 12l-27 -123q-50 -16 -109 -16q-92 0 -150.5 40.5t-58.5 110.5q0 115 121 187q-263 9 -422 171.5t-159 421.5q0 168 69.5 329t185.5 282.5t277 195.5t334 74q274 0 441 -164.5t167 -431.5
q0 -197 -92 -380t-251.5 -310.5t-352.5 -169.5zM381 592q0 -185 108.5 -299.5t288.5 -114.5q122 0 238.5 56.5t201.5 147.5t137 212.5t52 245.5q0 186 -109 300.5t-290 114.5q-123 0 -239.5 -56.5t-201 -148t-135.5 -212.5t-51 -246z" />
    <glyph glyph-name="uni01EB" unicode="&#x1eb;" horiz-adv-x="1259" 
d="M682 -4q-75 -25 -119.5 -68t-44.5 -94q0 -32 26.5 -48.5t71.5 -16.5q48 0 97 12l-27 -123q-50 -16 -108 -16q-92 0 -150.5 40.5t-58.5 110.5q0 118 123 189q-182 15 -291 132.5t-109 301.5q0 165 85.5 309.5t232 231.5t315.5 87q199 0 320.5 -119.5t121.5 -314.5
q0 -140 -63.5 -269t-174.5 -220t-247 -125zM305 430q0 -119 67 -193.5t183 -74.5q104 0 197.5 61t149.5 161.5t56 211.5q0 118 -67 192t-184 74q-105 0 -198.5 -60.5t-148.5 -160.5t-55 -211z" />
    <glyph glyph-name="uni01F4" unicode="&#x1f4;" horiz-adv-x="1622" 
d="M1163 1843h193l-230 -297h-174zM860 758h647l-159 -758h-172l8 156h-15q-202 -176 -462 -176q-257 0 -406 151.5t-149 411.5q0 142 43.5 278.5t124 249.5t188 199.5t243 135t281.5 48.5q242 0 384 -124.5t136 -313.5h-225q-11 107 -96.5 173t-222.5 66
q-166 0 -312.5 -97.5t-232.5 -257.5t-86 -337q0 -183 97 -286t284 -103q110 0 209 35t174.5 111t97.5 182l18 84h-397v172z" />
    <glyph glyph-name="uni01F5" unicode="&#x1f5;" horiz-adv-x="1116" 
d="M1014 1434l-230 -297h-174l211 297h193zM362 377q-86 -35 -86 -98q0 -37 32 -56.5t89 -19.5h195q153 0 237 -65t84 -189q0 -161 -144.5 -270t-375.5 -109q-115 0 -201 28.5t-134 78t-69 110t-16 131.5l201 145q-46 23 -71 63.5t-25 90.5q0 72 48.5 131.5t133.5 95.5
q-72 78 -72 189q0 112 62.5 206.5t171 149.5t237.5 55q140 0 232 -61q53 25 110 65t95 80l84 -129q-71 -64 -195 -118q31 -64 31 -138q0 -165 -137 -282t-334 -117q-99 0 -183 33zM645 889q-104 0 -179 -68.5t-75 -165.5q0 -70 47 -111.5t129 -41.5q103 0 175.5 68t72.5 167
q0 71 -44.5 111.5t-125.5 40.5zM709 -78q0 33 -14.5 56.5t-39 35.5t-51.5 17.5t-57 5.5h-185l-192 -137q5 -76 64 -123t180 -47q125 0 210 55t85 137z" />
    <glyph glyph-name="uni01F8" unicode="&#x1f8;" horiz-adv-x="1505" 
d="M967 1843l86 -297h-158l-100 297h172zM1325 1434h211l-305 -1434h-205l-518 1063h-14l-226 -1063h-211l305 1434h205l516 -1065h15z" />
    <glyph glyph-name="uni01F9" unicode="&#x1f9;" horiz-adv-x="1171" 
d="M711 1434l86 -297h-158l-100 297h172zM760 1044q175 0 260 -109t43 -308l-133 -627h-209l127 590q28 134 -22.5 203t-155.5 69q-107 0 -196.5 -73t-119.5 -216l-121 -573h-208l217 1024h188l-6 -123h14q63 67 138.5 105t183.5 38z" />
    <glyph glyph-name="AEacute" unicode="&#x1fc;" horiz-adv-x="2097" 
d="M2015 1843l-229 -297h-174l211 297h192zM2144 1243h-686l-90 -422h588l-41 -186h-586l-94 -445h704l-41 -190h-915l80 375h-537l-321 -375h-264l1226 1434h1016zM1102 557l133 625h-16l-537 -625h420z" />
    <glyph glyph-name="aeacute" unicode="&#x1fd;" horiz-adv-x="1533" 
d="M1204 1434l-229 -297h-174l211 297h192zM1411 455h-561q-65 -314 127 -314q43 0 81.5 13t76.5 52t57 101h192q-52 -164 -163 -245.5t-258 -81.5q-223 0 -283 165q-109 -165 -350 -165q-127 0 -206 62t-79 169q0 183 142 288t388 105h97l20 92q18 86 -12 134.5t-109 48.5
q-80 0 -134.5 -42.5t-76.5 -121.5l-196 6q41 155 150.5 239t269.5 84q97 0 167.5 -38.5t102.5 -110.5q127 149 301 149q59 0 110.5 -17.5t95.5 -54t69.5 -102.5t25.5 -155q0 -147 -45 -260zM1135 883q-80 0 -150 -70t-102 -209h370q30 148 -5 213.5t-113 65.5zM614 338
l25 117h-88q-143 0 -223 -55t-80 -154q0 -52 35.5 -78.5t95.5 -26.5q80 0 146 47t89 150z" />
    <glyph glyph-name="Oslashacute" unicode="&#x1fe;" horiz-adv-x="1699" 
d="M1386 1843l-229 -297h-174l211 297h192zM1675 1434l-174 -185q129 -160 129 -391q0 -135 -44.5 -267t-126 -241t-187.5 -192.5t-238 -130.5t-270 -47q-216 0 -369 104l-174 -184l-112 96l178 188q-131 156 -131 389q0 168 69.5 329t185.5 282.5t277 195.5t334 74
q217 0 367 -104l172 182zM373 590q0 -143 65 -246l807 854q-101 66 -235 66q-167 0 -315 -96.5t-235 -252t-87 -325.5zM1415 842q0 145 -65 248l-809 -852q100 -68 235 -68q124 0 242.5 57t205 149.5t139 215.5t52.5 250z" />
    <glyph glyph-name="oslashacute" unicode="&#x1ff;" horiz-adv-x="1259" 
d="M1081 1434l-229 -297h-174l211 297h192zM1231 1036l-148 -153q84 -114 84 -273q0 -164 -84.5 -309t-230.5 -233t-315 -88q-155 0 -261 71l-141 -145l-102 84l145 149q-86 116 -86 277q0 165 85.5 309.5t232 231.5t315.5 87q153 0 262 -73l143 147zM297 430q0 -76 29 -139
l526 540q-61 39 -143 39q-108 0 -203.5 -62t-152 -163.5t-56.5 -214.5zM967 600q0 72 -29 135l-526 -545q61 -36 141 -36q106 0 202.5 62.5t154 166t57.5 217.5z" />
    <glyph glyph-name="uni0218" unicode="&#x218;" horiz-adv-x="1249" 
d="M1100 442q0 -201 -154.5 -331.5t-404.5 -130.5q-230 0 -348 118t-87 322h209q-11 -122 53 -188t195 -66q137 0 224 72t87 182q0 49 -17.5 85t-61 62.5t-71.5 38.5t-93 34q-5 2 -8 3l-60 19q-289 93 -289 333q0 93 40.5 177t111.5 146.5t172 99t217 36.5q212 0 325.5 -116
t84.5 -296h-211q9 100 -44.5 163t-168.5 63q-124 0 -213.5 -71.5t-89.5 -170.5q0 -20 5 -38t10.5 -32t20.5 -28t23 -22.5t30.5 -20t31 -16t36.5 -15t34.5 -13t37.5 -12.5l49 -16q45 -14 81.5 -29.5t84 -47t80 -69t55.5 -96.5t23 -129zM477 -117q59 0 95 -34.5t36 -92.5
q0 -102 -83 -208t-216 -173l-43 64q145 98 168 194q-44 0 -72 28.5t-28 76.5q0 64 40 104.5t103 40.5z" />
    <glyph glyph-name="uni0219" unicode="&#x219;" horiz-adv-x="1001" 
d="M854 332q0 -163 -116 -257.5t-316 -94.5q-199 0 -293 91t-72 246h201q-11 -93 39 -135.5t141 -42.5q90 0 149.5 43t59.5 113q0 57 -41.5 87.5t-118.5 53.5l-55 17q-54 15 -96.5 34.5t-81 48t-59.5 70.5t-21 94q0 150 117.5 247t298.5 97q94 0 164.5 -25t109 -67.5
t54.5 -95t8 -111.5h-199q6 62 -35.5 101t-118.5 39q-82 0 -137 -45t-55 -111q0 -21 9.5 -38t19.5 -27t36 -21.5t40.5 -16.5t50.5 -16l49 -14q268 -76 268 -264zM356 -117q59 0 95 -34.5t36 -92.5q0 -102 -83 -208t-216 -173l-43 64q145 98 168 194q-44 0 -72 28.5t-28 76.5
q0 64 40 104.5t103 40.5z" />
    <glyph glyph-name="uni021A" unicode="&#x21a;" horiz-adv-x="1191" 
d="M1313 1434l-41 -195h-414l-262 -1239h-217l264 1239h-414l43 195h1041zM436 -117q59 0 95 -34.5t36 -92.5q0 -102 -83 -208t-216 -173l-43 64q145 98 168 194q-44 0 -72 28.5t-28 76.5q0 64 40 104.5t103 40.5z" />
    <glyph glyph-name="uni021B" unicode="&#x21b;" horiz-adv-x="763" 
d="M834 1024l-35 -168h-260l-123 -580q-12 -60 8.5 -94.5t95.5 -34.5q49 0 105 17l-35 -162q-90 -22 -154 -22q-57 0 -101.5 11.5t-71 32.5t-43.5 46.5t-22.5 57t-4.5 60.5t8 60l129 608h-219l34 168h72q88 0 134.5 34t64.5 120l26 125h191l-60 -279h261zM317 -117
q59 0 95.5 -34.5t36.5 -92.5q0 -102 -83 -208t-216 -173l-44 64q145 98 168 194q-44 0 -72 28.5t-28 76.5q0 64 40 104.5t103 40.5z" />
    <glyph glyph-name="uni021E" unicode="&#x21e;" horiz-adv-x="1429" 
d="M1108 1843h190l-274 -295h-182l-150 295h172l80 -170h12zM1245 1434h215l-305 -1434h-215l133 629h-667l-134 -629h-215l305 1434h216l-132 -611h668z" />
    <glyph glyph-name="uni0226" unicode="&#x226;" horiz-adv-x="1374" 
d="M946 1585q-55 0 -95 39.5t-40 93.5q0 55 39.5 93t95.5 38q54 0 92.5 -38t38.5 -93q0 -54 -38.5 -93.5t-92.5 -39.5zM991 0l-47 375h-557l-207 -375h-239l811 1434h264l198 -1434h-223zM485 557h437l-78 625h-15z" />
    <glyph glyph-name="uni0227" unicode="&#x227;" horiz-adv-x="1243" 
d="M778 1176q-55 0 -95 39.5t-40 93.5q0 55 39.5 93t95.5 38q54 0 92.5 -38t38.5 -93q0 -54 -38.5 -93.5t-92.5 -39.5zM1010 1024h209l-220 -1024h-170l11 137h-15q-141 -157 -346 -157q-174 0 -281.5 112.5t-107.5 306.5q0 170 77.5 318.5t214.5 237.5t300 89
q111 0 189 -42t112 -105zM532 162q102 0 190 62.5t138.5 165t50.5 216.5q0 121 -58.5 188.5t-162.5 67.5q-103 0 -192.5 -61.5t-141 -163t-51.5 -215.5q0 -122 61 -191t166 -69z" />
    <glyph glyph-name="uni0228" unicode="&#x228;" horiz-adv-x="1202" 
d="M1249 1243h-717l-90 -422h625l-41 -186h-625l-94 -445h737l-40 -190h-408l-82 -90q67 5 119.5 -34.5t52.5 -104.5q0 -91 -68 -146t-176 -55q-96 0 -153 45l59 90q54 -35 103 -35t82.5 28t33.5 69q0 26 -22 42.5t-64 16.5q-27 0 -73 -16l-56 57l115 133h-410l305 1434h926
z" />
    <glyph glyph-name="uni0229" unicode="&#x229;" horiz-adv-x="1177" 
d="M1059 459h-758q-25 -136 39.5 -222.5t196.5 -86.5q95 0 168 40t114 117h207q-63 -149 -187 -235t-296 -92l-64 -70q67 5 119.5 -34.5t52.5 -104.5q0 -91 -67.5 -146t-175.5 -55q-97 0 -154 45l59 90q54 -35 103 -35t82.5 28t33.5 69q0 26 -22 42.5t-64 16.5
q-27 0 -73 -16l-56 57l105 121q-153 28 -243.5 134.5t-90.5 262.5q0 132 48 253.5t128.5 210.5t193 142t236.5 53q175 0 286.5 -98.5t111.5 -281.5q0 -104 -33 -205zM680 874q-116 0 -212.5 -78.5t-133.5 -189.5h557q23 119 -35 193.5t-176 74.5z" />
    <glyph glyph-name="uni022E" unicode="&#x22e;" horiz-adv-x="1699" 
d="M1108 1585q-55 0 -95 39.5t-40 93.5q0 55 39.5 93t95.5 38q54 0 92.5 -38t38.5 -93q0 -54 -38.5 -93.5t-92.5 -39.5zM764 -20q-273 0 -440.5 163.5t-167.5 429.5q0 168 69.5 329t185.5 282.5t277 195.5t334 74q274 0 441 -164.5t167 -431.5q0 -135 -44.5 -267t-126 -241
t-187.5 -192.5t-238 -130.5t-270 -47zM778 178q122 0 238.5 56.5t201.5 147.5t137 212.5t52 245.5q0 186 -109 300.5t-290 114.5q-123 0 -239.5 -56.5t-201 -148t-135.5 -212.5t-51 -246q0 -185 108.5 -299.5t288.5 -114.5z" />
    <glyph glyph-name="uni022F" unicode="&#x22f;" horiz-adv-x="1259" 
d="M805 1176q-55 0 -95 39.5t-40 93.5q0 55 39.5 93t95.5 38q54 0 92.5 -38t38.5 -93q0 -54 -38.5 -93.5t-92.5 -39.5zM541 -20q-201 0 -325 120t-124 316q0 165 85.5 309.5t232 231.5t315.5 87q199 0 320.5 -119.5t121.5 -314.5q0 -164 -84 -309t-229 -233t-313 -88z
M555 162q104 0 197.5 61t149.5 161.5t56 211.5q0 118 -67 192t-184 74q-105 0 -198.5 -60.5t-148.5 -160.5t-55 -211q0 -119 67 -193.5t183 -74.5z" />
    <glyph glyph-name="uni0232" unicode="&#x232;" horiz-adv-x="1351" 
d="M616 1739h641l-30 -148h-641zM1229 1434h270l-682 -772l-141 -662h-215l141 662l-356 772h248l245 -537h15z" />
    <glyph glyph-name="uni0233" unicode="&#x233;" horiz-adv-x="1116" 
d="M412 1329h641l-31 -147h-641zM1186 1024l-674 -1171q-17 -30 -24.5 -43t-32 -49t-44.5 -56t-56 -49.5t-72 -45.5t-86.5 -28t-106.5 -12q-79 0 -160 22l33 158q61 -14 107 -14q151 0 243 147l72 117h-59l-179 1024h207l133 -809h15l459 809h225z" />
    <glyph glyph-name="uni0237" unicode="&#x237;" horiz-adv-x="475" 
d="M-266 -250q51 -14 98 -14q135 0 162 129l248 1159h209l-252 -1186q-9 -39 -20.5 -70.5t-36.5 -70.5t-59 -65t-89.5 -44t-126.5 -18q-85 0 -166 22z" />
    <glyph glyph-name="circumflex" unicode="&#x2c6;" horiz-adv-x="937" 
d="M492 1139h-193l274 295h183l151 -295h-174l-80 170h-12z" />
    <glyph glyph-name="caron" unicode="&#x2c7;" horiz-adv-x="937" 
d="M778 1434h191l-275 -295h-180l-152 295h173l79 -170h13z" />
    <glyph glyph-name="breve" unicode="&#x2d8;" horiz-adv-x="894" 
d="M926 1434q-22 -108 -119 -187.5t-219 -79.5q-121 0 -184.5 80t-41.5 187h156q-12 -58 13.5 -97t80.5 -39t95.5 38.5t52.5 97.5h166z" />
    <glyph glyph-name="dotaccent" unicode="&#x2d9;" horiz-adv-x="602" 
d="M473 1176q-55 0 -95 39.5t-40 93.5q0 55 39.5 93t95.5 38q54 0 92.5 -38t38.5 -93q0 -54 -38.5 -93.5t-92.5 -39.5z" />
    <glyph glyph-name="ring" unicode="&#x2da;" horiz-adv-x="743" 
d="M539 1102q-83 0 -142 59t-59 139t59 138.5t142 58.5t142.5 -58.5t59.5 -138.5t-59.5 -139t-142.5 -59zM541 1219q32 0 54.5 23.5t22.5 57.5q0 31 -22.5 54.5t-54.5 23.5q-34 0 -57 -23t-23 -55q0 -34 22.5 -57.5t57.5 -23.5z" />
    <glyph glyph-name="ogonek" unicode="&#x2db;" horiz-adv-x="679" 
d="M289 45l49 -45q-79 -25 -126.5 -69t-47.5 -97q0 -32 27.5 -48.5t72.5 -16.5q48 0 94 12l-24 -123q-50 -16 -109 -16q-93 0 -151 40.5t-58 110.5q0 44 18.5 82t44 62t64.5 46t67.5 33.5t66.5 24.5q8 3 12 4z" />
    <glyph glyph-name="tilde" unicode="&#x2dc;" horiz-adv-x="1064" 
d="M1083 1374q-31 -111 -95.5 -183.5t-158.5 -72.5q-44 0 -79 13.5t-57.5 32t-42 37.5t-42 32.5t-47.5 13.5q-84 0 -119 -112h-143q33 114 97 186t161 72q55 0 97 -20t62.5 -43.5t48 -43.5t58.5 -20q43 0 73.5 31t43.5 77h143z" />
    <glyph glyph-name="hungarumlaut" unicode="&#x2dd;" horiz-adv-x="964" 
d="M479 1434h187l-197 -297h-174zM813 1434h186l-198 -297h-172z" />
    <glyph glyph-name="uni1E02" unicode="&#x1e02;" horiz-adv-x="1269" 
d="M901 1585q-55 0 -95 39.5t-40 93.5q0 55 39.5 93t95.5 38q54 0 92.5 -38t38.5 -93q0 -54 -38.5 -93.5t-92.5 -39.5zM973 752q174 -78 174 -295q0 -203 -141 -330t-379 -127h-570l305 1434h525q176 0 271 -81t95 -218q0 -127 -78 -226t-202 -147v-10zM535 1257l-91 -432
h308q119 0 197.5 74t78.5 186q0 81 -48.5 126.5t-129.5 45.5h-315zM625 176q134 0 218.5 77.5t84.5 195.5q0 90 -54.5 145t-148.5 55h-319l-101 -473h320z" />
    <glyph glyph-name="uni1E03" unicode="&#x1e03;" horiz-adv-x="1241" 
d="M494 1585q-55 0 -95.5 39.5t-40.5 93.5q0 55 40 93t96 38q54 0 92.5 -38t38.5 -93q0 -54 -38.5 -93.5t-92.5 -39.5zM760 1044q175 0 283 -110.5t108 -304.5q0 -170 -77 -319t-213.5 -239.5t-299.5 -90.5q-115 0 -192.5 47t-112.5 110h-14l-47 -137h-170l309 1454h209
l-117 -549q135 139 334 139zM553 162q102 0 191.5 62t141.5 163.5t52 214.5q0 121 -61.5 190.5t-167.5 69.5q-154 0 -266.5 -133t-112.5 -311q0 -121 58.5 -188.5t164.5 -67.5z" />
    <glyph glyph-name="uni1E0A" unicode="&#x1e0a;" horiz-adv-x="1458" 
d="M971 1585q-55 0 -95 39.5t-40 93.5q0 55 39.5 93t95.5 38q54 0 92.5 -38t38.5 -93q0 -54 -38.5 -93.5t-92.5 -39.5zM809 1434q279 0 429.5 -143.5t150.5 -413.5q0 -179 -61.5 -339.5t-171 -279.5t-270.5 -188.5t-349 -69.5h-480l305 1434h447zM553 195q178 0 319 91
t217 242.5t76 331.5q0 71 -13.5 128t-35.5 96t-54.5 68t-65.5 45t-74 26t-74.5 13t-71.5 3h-239l-224 -1044h240z" />
    <glyph glyph-name="uni1E0B" unicode="&#x1e0b;" horiz-adv-x="1241" 
d="M1266 1849q54 0 92.5 -38t38.5 -93q0 -54 -38.5 -93.5t-92.5 -39.5q-55 0 -95.5 39.5t-40.5 93.5q0 55 40 93t96 38zM983 895l119 559h207l-310 -1454h-170l11 137h-15q-141 -157 -346 -157q-174 0 -281.5 113t-107.5 308q0 127 45.5 244.5t123.5 205.5t188.5 140.5
t234.5 52.5q112 0 189 -43.5t112 -105.5zM532 162q102 0 190 62.5t138.5 165t50.5 216.5q0 121 -58.5 188.5t-162.5 67.5q-103 0 -192.5 -61.5t-141 -163t-51.5 -215.5q0 -122 61 -191t166 -69z" />
    <glyph glyph-name="uni1E10" unicode="&#x1e10;" horiz-adv-x="1458" 
d="M809 1434q279 0 429.5 -143.5t150.5 -413.5q0 -179 -61.5 -339.5t-171 -279.5t-270.5 -188.5t-349 -69.5h-480l305 1434h447zM553 195q178 0 319 91t217 242.5t76 331.5q0 71 -13.5 128t-35.5 96t-54.5 68t-65.5 45t-74 26t-74.5 13t-71.5 3h-239l-224 -1044h240z
M551 -117q59 0 95 -34.5t36 -92.5q0 -102 -83 -208t-216 -173l-43 64q145 98 168 194q-44 0 -72 28.5t-28 76.5q0 64 40 104.5t103 40.5z" />
    <glyph glyph-name="uni1E11" unicode="&#x1e11;" horiz-adv-x="1241" 
d="M1102 1454h207l-310 -1454h-170l11 137h-15q-141 -157 -346 -157q-174 0 -281.5 113t-107.5 308q0 127 45.5 244.5t123.5 205.5t188.5 140.5t234.5 52.5q112 0 189 -43.5t112 -105.5zM532 162q102 0 190 62.5t138.5 165t50.5 216.5q0 121 -58.5 188.5t-162.5 67.5
q-103 0 -192.5 -61.5t-141 -163t-51.5 -215.5q0 -122 61 -191t166 -69zM461 -117q59 0 95 -34.5t36 -92.5q0 -102 -83 -208t-216 -173l-43 64q145 98 168 194q-44 0 -72.5 28.5t-28.5 76.5q0 64 40.5 104.5t103.5 40.5z" />
    <glyph glyph-name="uni1E1E" unicode="&#x1e1e;" horiz-adv-x="1150" 
d="M881 1585q-55 0 -95.5 39.5t-40.5 93.5q0 55 40 93t96 38q54 0 92.5 -38t38.5 -93q0 -54 -38.5 -93.5t-92.5 -39.5zM1231 1235h-696l-93 -440h602l-40 -191h-603l-129 -604h-215l305 1434h910z" />
    <glyph glyph-name="uni1E1F" unicode="&#x1e1f;" horiz-adv-x="761" 
d="M745 1585q-55 0 -95 39.5t-40 93.5q0 55 39.5 93t95.5 38q54 0 93 -38t39 -93q0 -54 -39 -93.5t-93 -39.5zM750 1284q-62 0 -102 -33t-52 -96l-29 -131h248l-35 -168h-248l-184 -856h-207l183 856h-213l34 168h215l31 147q29 137 120.5 210t227.5 73q100 0 176 -33
l-67 -153q-44 16 -98 16z" />
    <glyph glyph-name="uni1E20" unicode="&#x1e20;" horiz-adv-x="1622" 
d="M760 1739h641l-31 -148h-641zM860 758h647l-159 -758h-172l8 156h-15q-202 -176 -462 -176q-257 0 -406 151.5t-149 411.5q0 142 43.5 278.5t124 249.5t188 199.5t243 135t281.5 48.5q242 0 384 -124.5t136 -313.5h-225q-11 107 -96.5 173t-222.5 66q-166 0 -312.5 -97.5
t-232.5 -257.5t-86 -337q0 -183 97 -286t284 -103q110 0 209 35t174.5 111t97.5 182l18 84h-397v172z" />
    <glyph glyph-name="uni1E22" unicode="&#x1e22;" horiz-adv-x="1429" 
d="M969 1585q-55 0 -95 39.5t-40 93.5q0 55 39.5 93t95.5 38q54 0 92.5 -38t38.5 -93q0 -54 -38.5 -93.5t-92.5 -39.5zM1245 1434h215l-305 -1434h-215l133 629h-667l-134 -629h-215l305 1434h216l-132 -611h668z" />
    <glyph glyph-name="uni1E23" unicode="&#x1e23;" horiz-adv-x="1171" 
d="M500 1585q-55 0 -95 39.5t-40 93.5q0 55 39.5 93t95.5 38q54 0 92.5 -38t38.5 -93q0 -54 -38.5 -93.5t-92.5 -39.5zM760 1044q175 0 260 -109t43 -308l-133 -627h-209l127 590q28 134 -22.5 203t-155.5 69q-107 0 -196.5 -73t-119.5 -216l-121 -573h-208l309 1454h209
l-119 -553h14q63 67 138.5 105t183.5 38z" />
    <glyph glyph-name="uni1E26" unicode="&#x1e26;" horiz-adv-x="1429" 
d="M725 1561q-56 0 -95.5 39t-39.5 94q0 57 39.5 96t95.5 39t95.5 -39t39.5 -96q0 -55 -39.5 -94t-95.5 -39zM1202 1561q-54 0 -93.5 39t-39.5 94q0 56 39.5 95.5t93.5 39.5q57 0 96 -39t39 -96q0 -56 -39 -94.5t-96 -38.5zM1245 1434h215l-305 -1434h-215l133 629h-667
l-134 -629h-215l305 1434h216l-132 -611h668z" />
    <glyph glyph-name="uni1E27" unicode="&#x1e27;" horiz-adv-x="1171" 
d="M295 1542q-51 0 -87 37t-36 88t36 86t87 35t86 -35t35 -86t-35 -88t-86 -37zM682 1542q-50 0 -86.5 37t-36.5 88q0 50 36.5 85.5t86.5 35.5q51 0 86 -35t35 -86t-35 -88t-86 -37zM760 1044q175 0 260 -109t43 -308l-133 -627h-209l127 590q28 134 -22.5 203t-155.5 69
q-107 0 -196.5 -73t-119.5 -216l-121 -573h-208l309 1454h209l-119 -553h14q63 67 138.5 105t183.5 38z" />
    <glyph glyph-name="uni1E28" unicode="&#x1e28;" horiz-adv-x="1429" 
d="M1245 1434h215l-305 -1434h-215l133 629h-667l-134 -629h-43l-82 -90q67 5 119.5 -34.5t52.5 -104.5q0 -91 -67.5 -146t-175.5 -55q-97 0 -154 45l60 90q54 -35 102 -35q50 0 83.5 28t33.5 69q0 26 -22 42.5t-64 16.5q-28 0 -74 -16l-55 57l114 133h-43l305 1434h216
l-132 -611h668z" />
    <glyph glyph-name="uni1E29" unicode="&#x1e29;" horiz-adv-x="1171" 
d="M760 1044q175 0 260 -109t43 -308l-133 -627h-209l127 590q28 134 -22.5 203t-155.5 69q-107 0 -196.5 -73t-119.5 -216l-121 -573h-36l-82 -90q67 5 119.5 -34.5t52.5 -104.5q0 -91 -68 -146t-176 -55q-97 0 -154 45l60 90q54 -35 102 -35q50 0 83.5 28t33.5 69
q0 26 -22 42.5t-64 16.5q-28 0 -74 -16l-55 57l115 133h-43l309 1454h209l-119 -553h14q63 67 138.5 105t183.5 38z" />
    <glyph glyph-name="uni1E40" unicode="&#x1e40;" horiz-adv-x="1812" 
d="M1165 1585q-55 0 -95 39.5t-40 93.5q0 55 39.5 93t95.5 38q54 0 92.5 -38t38.5 -93q0 -54 -38.5 -93.5t-92.5 -39.5zM1843 1434l-305 -1434h-211l223 1049h-14l-588 -885h-227l-213 885h-16l-224 -1049h-211l305 1434h261l241 -1043h15l686 1043h278z" />
    <glyph glyph-name="uni1E41" unicode="&#x1e41;" horiz-adv-x="1712" 
d="M1028 1176q-55 0 -95 39.5t-40 93.5q0 55 39.5 93t95.5 38q54 0 92.5 -38t38.5 -93q0 -54 -38.5 -93.5t-92.5 -39.5zM1341 1044q161 0 236.5 -95t38.5 -273l-143 -676h-209l135 639q23 110 -21 166.5t-129 56.5q-94 0 -168.5 -68t-97.5 -178l-131 -616h-209l133 629
q24 111 -19.5 172t-125.5 61q-85 0 -163 -63t-103 -178l-132 -621h-208l217 1024h188l-6 -121h14q130 141 297 141q115 0 175 -52t77 -122h10q138 174 344 174z" />
    <glyph glyph-name="uni1E44" unicode="&#x1e44;" horiz-adv-x="1505" 
d="M1012 1585q-55 0 -95 39.5t-40 93.5q0 55 39.5 93t95.5 38q54 0 92.5 -38t38.5 -93q0 -54 -38.5 -93.5t-92.5 -39.5zM1325 1434h211l-305 -1434h-205l-518 1063h-14l-226 -1063h-211l305 1434h205l516 -1065h15z" />
    <glyph glyph-name="uni1E45" unicode="&#x1e45;" horiz-adv-x="1171" 
d="M756 1176q-55 0 -95 39.5t-40 93.5q0 55 39.5 93t95.5 38q54 0 92.5 -38t38.5 -93q0 -54 -38.5 -93.5t-92.5 -39.5zM760 1044q175 0 260 -109t43 -308l-133 -627h-209l127 590q28 134 -22.5 203t-155.5 69q-107 0 -196.5 -73t-119.5 -216l-121 -573h-208l217 1024h188
l-6 -123h14q63 67 138.5 105t183.5 38z" />
    <glyph glyph-name="uni1E56" unicode="&#x1e56;" horiz-adv-x="1304" 
d="M913 1585q-55 0 -95 39.5t-40 93.5q0 55 39.5 93t95.5 38q54 0 92.5 -38t38.5 -93q0 -54 -38.5 -93.5t-92.5 -39.5zM883 1434q187 0 296 -98t109 -259q0 -227 -156.5 -376.5t-408.5 -149.5h-340l-117 -551h-209l305 1434h521zM729 741q150 0 242 85.5t92 215.5
q0 97 -57.5 149t-157.5 52h-318l-106 -502h305z" />
    <glyph glyph-name="uni1E57" unicode="&#x1e57;" horiz-adv-x="1241" 
d="M893 1176q-55 0 -95 39.5t-40 93.5q0 55 39.5 93t95.5 38q54 0 92.5 -38t38.5 -93q0 -54 -38.5 -93.5t-92.5 -39.5zM762 1044q174 0 281.5 -113t107.5 -308q0 -127 -45.5 -244.5t-123.5 -205.5t-188.5 -140.5t-234.5 -52.5q-111 0 -188.5 44t-110.5 105l-115 -539h-208
l305 1434h170l-11 -137h15q141 157 346 157zM553 162q102 0 191.5 61.5t141.5 163t52 215.5q0 122 -62 191t-167 69q-102 0 -190 -62.5t-138.5 -165t-50.5 -216.5q0 -121 58.5 -188.5t164.5 -67.5z" />
    <glyph glyph-name="uni1E58" unicode="&#x1e58;" horiz-adv-x="1284" 
d="M913 1585q-55 0 -95 39.5t-40 93.5q0 55 39.5 93t95.5 38q54 0 92.5 -38t38.5 -93q0 -54 -38.5 -93.5t-92.5 -39.5zM1268 1083q0 -166 -106 -293.5t-285 -171.5l223 -618h-219l-209 586h-279l-125 -586h-211l305 1434h506q187 0 293.5 -92.5t106.5 -258.5zM723 772
q143 0 233.5 83t90.5 204q0 91 -58.5 139.5t-163.5 48.5h-290l-103 -475h291z" />
    <glyph glyph-name="uni1E59" unicode="&#x1e59;" horiz-adv-x="755" 
d="M596 1176q-55 0 -95 39.5t-40 93.5q0 55 39.5 93t95.5 38q54 0 92.5 -38t38.5 -93q0 -54 -38.5 -93.5t-92.5 -39.5zM756 1044h75l-45 -208q-50 6 -98 6q-134 0 -225 -93t-121 -233l-109 -516h-208l217 1024h188l-10 -143h14q67 84 138 123.5t184 39.5z" />
    <glyph glyph-name="uni1E60" unicode="&#x1e60;" horiz-adv-x="1249" 
d="M895 1585q-55 0 -95 39.5t-40 93.5q0 55 39.5 93t95.5 38q54 0 92.5 -38t38.5 -93q0 -54 -38.5 -93.5t-92.5 -39.5zM1100 442q0 -201 -154.5 -331.5t-404.5 -130.5q-230 0 -348 118t-87 322h209q-11 -122 53 -188t195 -66q137 0 224 72t87 182q0 49 -17.5 85t-61 62.5
t-71.5 38.5t-93 34q-5 2 -8 3l-60 19q-289 93 -289 333q0 93 40.5 177t111.5 146.5t172 99t217 36.5q212 0 325.5 -116t84.5 -296h-211q9 100 -44.5 163t-168.5 63q-124 0 -213.5 -71.5t-89.5 -170.5q0 -20 5 -38t10.5 -32t20.5 -28t23 -22.5t30.5 -20t31 -16t36.5 -15
t34.5 -13t37.5 -12.5l49 -16q45 -14 81.5 -29.5t84 -47t80 -69t55.5 -96.5t23 -129z" />
    <glyph glyph-name="uni1E61" unicode="&#x1e61;" horiz-adv-x="1001" 
d="M651 1176q-55 0 -95 39.5t-40 93.5q0 55 39.5 93t95.5 38q54 0 92.5 -38t38.5 -93q0 -54 -38.5 -93.5t-92.5 -39.5zM854 332q0 -163 -116 -257.5t-316 -94.5q-199 0 -293 91t-72 246h201q-11 -93 39 -135.5t141 -42.5q90 0 149.5 43t59.5 113q0 57 -41.5 87.5
t-118.5 53.5l-55 17q-54 15 -96.5 34.5t-81 48t-59.5 70.5t-21 94q0 150 117.5 247t298.5 97q94 0 164.5 -25t109 -67.5t54.5 -95t8 -111.5h-199q6 62 -35.5 101t-118.5 39q-82 0 -137 -45t-55 -111q0 -21 9.5 -38t19.5 -27t36 -21.5t40.5 -16.5t50.5 -16l49 -14
q268 -76 268 -264z" />
    <glyph glyph-name="uni1E7C" unicode="&#x1e7c;" horiz-adv-x="1366" 
d="M1323 1784q-31 -111 -95.5 -183.5t-158.5 -72.5q-44 0 -79 13.5t-57.5 32t-42 37.5t-42 32.5t-47.5 13.5q-83 0 -119 -113h-143q33 114 97 186t161 72q55 0 97 -20t62.5 -43.5t48 -43.5t58.5 -20q43 0 73.5 31.5t43.5 77.5h143zM1270 1434h243l-806 -1434h-265l-196 1434
h221l149 -1147h17z" />
    <glyph glyph-name="uni1E7D" unicode="&#x1e7d;" horiz-adv-x="1116" 
d="M1110 1374q-31 -111 -95.5 -183.5t-158.5 -72.5q-44 0 -79 13.5t-57.5 32t-42 37.5t-42 32.5t-47.5 13.5q-84 0 -119 -112h-143q33 114 97 186t161 72q55 0 97 -20t62.5 -43.5t48 -43.5t58.5 -20q43 0 73.5 31t43.5 77h143zM963 1024h223l-608 -1024h-254l-177 1024h209
l127 -807h15z" />
    <glyph glyph-name="Wgrave" unicode="&#x1e80;" horiz-adv-x="1853" 
d="M1143 1843l86 -297h-158l-100 297h172zM1786 1434h215l-623 -1434h-245l-82 1057h-15l-530 -1057h-246l-14 1434h203l-3 -1125h15l516 1022h235l78 -1022h15z" />
    <glyph glyph-name="wgrave" unicode="&#x1e81;" horiz-adv-x="1517" 
d="M887 1434l86 -297h-158l-100 297h172zM1384 1024h203l-485 -1024h-236l-55 723h-14l-365 -723h-235l-50 1024h189l20 -784h15l362 712h223l60 -714h14z" />
    <glyph glyph-name="Wacute" unicode="&#x1e82;" horiz-adv-x="1853" 
d="M1272 1843h192l-229 -297h-174zM1786 1434h215l-623 -1434h-245l-82 1057h-15l-530 -1057h-246l-14 1434h203l-3 -1125h15l516 1022h235l78 -1022h15z" />
    <glyph glyph-name="wacute" unicode="&#x1e83;" horiz-adv-x="1517" 
d="M1016 1434h192l-229 -297h-174zM1384 1024h203l-485 -1024h-236l-55 723h-14l-365 -723h-235l-50 1024h189l20 -784h15l362 712h223l60 -714h14z" />
    <glyph glyph-name="Wdieresis" unicode="&#x1e84;" horiz-adv-x="1853" 
d="M942 1561q-56 0 -95.5 39t-39.5 94q0 57 39.5 96t95.5 39t95.5 -39t39.5 -96q0 -55 -39.5 -94t-95.5 -39zM1419 1561q-54 0 -93.5 39t-39.5 94q0 56 39 95.5t94 39.5q57 0 96 -39t39 -96q0 -56 -39 -94.5t-96 -38.5zM1786 1434h215l-623 -1434h-245l-82 1057h-15
l-530 -1057h-246l-14 1434h203l-3 -1125h15l516 1022h235l78 -1022h15z" />
    <glyph glyph-name="wdieresis" unicode="&#x1e85;" horiz-adv-x="1517" 
d="M727 1133q-51 0 -87 36.5t-36 87.5t36 86t87 35t86 -35t35 -86t-35 -87.5t-86 -36.5zM1114 1133q-50 0 -86.5 36.5t-36.5 87.5q0 50 36.5 85.5t86.5 35.5q51 0 86 -35t35 -86t-35 -87.5t-86 -36.5zM1384 1024h203l-485 -1024h-236l-55 723h-14l-365 -723h-235l-50 1024
h189l20 -784h15l362 712h223l60 -714h14z" />
    <glyph glyph-name="uni1E8C" unicode="&#x1e8c;" horiz-adv-x="1304" 
d="M668 1561q-56 0 -96 39t-40 94q0 57 40 96t96 39t95.5 -39t39.5 -96q0 -55 -39.5 -94t-95.5 -39zM1145 1561q-54 0 -93.5 39t-39.5 94q0 56 39 95.5t94 39.5q57 0 96 -39t39 -96q0 -56 -39 -94.5t-96 -38.5zM909 0l-221 559h-14l-459 -559h-274l616 739l-289 695h242
l209 -519h14l432 519h265l-584 -695l301 -739h-238z" />
    <glyph glyph-name="uni1E8D" unicode="&#x1e8d;" horiz-adv-x="1054" 
d="M494 1133q-51 0 -87 36.5t-36 87.5t36 86t87 35t85.5 -35t34.5 -86t-34.5 -87.5t-85.5 -36.5zM881 1133q-50 0 -86.5 36.5t-36.5 87.5q0 50 36.5 85.5t86.5 35.5q51 0 85.5 -35t34.5 -86t-34.5 -87.5t-85.5 -36.5zM680 0l-162 371h-16l-322 -371h-250l469 528l-225 496
h225l150 -334h14l287 334h246l-430 -496l241 -528h-227z" />
    <glyph glyph-name="uni1E90" unicode="&#x1e90;" horiz-adv-x="1273" 
d="M758 1548h-193l277 295h180l152 -295h-175l-77 170h-15zM387 195h688l-43 -195h-1016l27 123l932 1106v10h-656l41 195h967l-27 -123l-913 -1106v-10z" />
    <glyph glyph-name="uni1E97" unicode="&#x1e97;" horiz-adv-x="763" 
d="M397 1411q-51 0 -87 37t-36 88t36 86t87 35t86 -35t35 -86t-35 -88t-86 -37zM784 1411q-50 0 -86 37t-36 88t36 86t86 35q51 0 86 -35t35 -86t-35 -88t-86 -37zM834 1024l-35 -168h-260l-123 -580q-12 -60 8.5 -94.5t95.5 -34.5q49 0 105 17l-35 -162q-90 -22 -154 -22
q-57 0 -101.5 11.5t-71 32.5t-43.5 46.5t-22.5 57t-4.5 60.5t8 60l129 608h-219l34 168h72q88 0 134.5 34t64.5 120l26 125h191l-60 -279h261z" />
    <glyph glyph-name="uni1E98" unicode="&#x1e98;" horiz-adv-x="1517" 
d="M926 1102q-83 0 -142 59t-59 139t59 138.5t142 58.5t142.5 -58.5t59.5 -138.5t-59.5 -139t-142.5 -59zM928 1219q32 0 55 23.5t23 57.5q0 31 -23 54.5t-55 23.5q-34 0 -57 -23t-23 -55q0 -34 22.5 -57.5t57.5 -23.5zM1384 1024h203l-485 -1024h-236l-55 723h-14
l-365 -723h-235l-50 1024h189l20 -784h15l362 712h223l60 -714h14z" />
    <glyph glyph-name="uni1E99" unicode="&#x1e99;" horiz-adv-x="1116" 
d="M727 1102q-83 0 -142 59t-59 139t59 138.5t142 58.5t143 -58.5t60 -138.5t-60 -139t-143 -59zM729 1219q32 0 55 23.5t23 57.5q0 31 -23 54.5t-55 23.5q-34 0 -57 -23t-23 -55q0 -34 22.5 -57.5t57.5 -23.5zM1186 1024l-674 -1171q-17 -30 -24.5 -43t-32 -49t-44.5 -56
t-56 -49.5t-72 -45.5t-86.5 -28t-106.5 -12q-79 0 -160 22l33 158q61 -14 107 -14q151 0 243 147l72 117h-59l-179 1024h207l133 -809h15l459 809h225z" />
    <glyph glyph-name="uni1E9E" unicode="&#x1e9e;" horiz-adv-x="2480" 
d="M1100 442q0 -201 -154.5 -331.5t-404.5 -130.5q-230 0 -348 118t-87 322h209q-11 -122 53 -188t195 -66q137 0 224 72t87 182q0 49 -17.5 85t-61 62.5t-71.5 38.5t-93 34q-5 2 -8 3l-60 19q-289 93 -289 333q0 93 40.5 177t111.5 146.5t172 99t217 36.5q212 0 325.5 -116
t84.5 -296h-211q9 100 -44.5 163t-168.5 63q-124 0 -213.5 -71.5t-89.5 -170.5q0 -20 5 -38t10.5 -32t20.5 -28t23 -22.5t30.5 -20t31 -16t36.5 -15t34.5 -13t37.5 -12.5l49 -16q45 -14 81.5 -29.5t84 -47t80 -69t55.5 -96.5t23 -129zM2329 442q0 -201 -155 -331.5
t-405 -130.5q-230 0 -347.5 117.5t-86.5 322.5h209q-11 -122 53 -188t195 -66q137 0 224 72t87 182q0 29 -8.5 54.5t-18.5 43.5t-33.5 36t-38 27.5t-49 23.5t-49.5 19t-55 19l-59 19q-289 93 -289 333q0 93 40.5 177t111.5 146.5t172 99t217 36.5q212 0 325.5 -116
t84.5 -296h-211q9 100 -44.5 163t-168.5 63q-124 0 -214 -72t-90 -170q0 -42 18 -74.5t53.5 -54.5t68 -35.5t80.5 -29.5q7 -2 10 -3l49 -16q45 -14 81.5 -29.5t84 -47t80 -69t55.5 -96.5t23 -129z" />
    <glyph glyph-name="uni1EA0" unicode="&#x1ea0;" horiz-adv-x="1374" 
d="M1214 0h-223l-47 375h-557l-207 -375h-239l811 1434h264zM485 557h437l-78 625h-15zM522 -152q54 0 92.5 -38t38.5 -95q0 -54 -38.5 -92.5t-92.5 -38.5q-56 0 -95.5 38.5t-39.5 92.5q0 56 39.5 94.5t95.5 38.5z" />
    <glyph glyph-name="uni1EA1" unicode="&#x1ea1;" horiz-adv-x="1243" 
d="M1010 1024h209l-220 -1024h-170l11 137h-15q-141 -157 -346 -157q-174 0 -281.5 112.5t-107.5 306.5q0 170 77.5 318.5t214.5 237.5t300 89q111 0 189 -42t112 -105zM532 162q102 0 190 62.5t138.5 165t50.5 216.5q0 121 -58.5 188.5t-162.5 67.5q-103 0 -192.5 -61.5
t-141 -163t-51.5 -215.5q0 -122 61 -191t166 -69zM455 -152q55 0 93 -38t38 -95q0 -54 -38.5 -92.5t-92.5 -38.5q-56 0 -96 38.5t-40 92.5q0 56 40 94.5t96 38.5z" />
    <glyph glyph-name="uni1EB8" unicode="&#x1eb8;" horiz-adv-x="1202" 
d="M307 190h737l-40 -190h-947l305 1434h926l-39 -191h-717l-90 -422h625l-41 -186h-625zM473 -416q-56 0 -95.5 38.5t-39.5 92.5q0 56 39.5 94.5t95.5 38.5q55 0 93 -38t38 -95q0 -54 -38.5 -92.5t-92.5 -38.5z" />
    <glyph glyph-name="uni1EB9" unicode="&#x1eb9;" horiz-adv-x="1177" 
d="M1059 459h-758q-25 -136 39.5 -222.5t196.5 -86.5q95 0 168 40t114 117h207q-64 -154 -194.5 -240.5t-311.5 -86.5q-193 0 -312.5 112.5t-119.5 292.5q0 132 48 253.5t128.5 210.5t193 142t236.5 53q175 0 286.5 -98.5t111.5 -281.5q0 -104 -33 -205zM680 874
q-116 0 -212.5 -78.5t-133.5 -189.5h557q23 119 -35 193.5t-176 74.5zM438 -152q54 0 92.5 -38t38.5 -95q0 -54 -38.5 -92.5t-92.5 -38.5q-56 0 -95.5 38.5t-39.5 92.5q0 56 39.5 94.5t95.5 38.5z" />
    <glyph glyph-name="uni1EBC" unicode="&#x1ebc;" horiz-adv-x="1202" 
d="M1268 1784q-31 -111 -95.5 -183.5t-158.5 -72.5q-44 0 -79.5 13.5t-58 32t-42 37.5t-42 32.5t-47.5 13.5q-82 0 -118 -113h-144q33 114 97 186t161 72q45 0 81 -13t57.5 -32t40.5 -37.5t41 -31.5t47 -13q43 0 73 31.5t43 77.5h144zM307 190h737l-40 -190h-947l305 1434
h926l-39 -191h-717l-90 -422h625l-41 -186h-625z" />
    <glyph glyph-name="uni1EBD" unicode="&#x1ebd;" horiz-adv-x="1177" 
d="M633 1247q-84 0 -119 -112h-143q33 114 97 186t161 72q55 0 97 -20t62.5 -43.5t48 -43.5t58.5 -20q43 0 73.5 31t43.5 77h143q-31 -111 -95.5 -183.5t-158.5 -72.5q-44 0 -79 13.5t-57.5 32t-42 37.5t-42 32.5t-47.5 13.5zM694 1044q175 0 286.5 -98.5t111.5 -281.5
q0 -104 -33 -205h-758q-25 -136 39.5 -222.5t196.5 -86.5q95 0 168 40t114 117h207q-64 -154 -194.5 -240.5t-311.5 -86.5q-193 0 -312.5 112.5t-119.5 292.5q0 132 48 253.5t128.5 210.5t193 142t236.5 53zM680 874q-116 0 -212.5 -78.5t-133.5 -189.5h557
q23 119 -35 193.5t-176 74.5z" />
    <glyph glyph-name="uni1ECA" unicode="&#x1eca;" horiz-adv-x="546" 
d="M578 1434l-306 -1434h-215l305 1434h216zM109 -416q-56 0 -96 38.5t-40 92.5q0 56 40 94.5t96 38.5q55 0 93 -38t38 -95q0 -54 -38.5 -92.5t-92.5 -38.5z" />
    <glyph glyph-name="uni1ECB" unicode="&#x1ecb;" horiz-adv-x="473" 
d="M408 1176q-55 0 -95.5 39.5t-40.5 93.5q0 55 40 93t96 38q54 0 92.5 -38t38.5 -93q0 -54 -38.5 -93.5t-92.5 -39.5zM451 1024l-218 -1024h-208l217 1024h209zM72 -416q-56 0 -95.5 38.5t-39.5 92.5q0 56 39.5 94.5t95.5 38.5q54 0 92.5 -38t38.5 -95q0 -54 -38.5 -92.5
t-92.5 -38.5z" />
    <glyph glyph-name="uni1ECC" unicode="&#x1ecc;" horiz-adv-x="1699" 
d="M764 -20q-273 0 -440.5 163.5t-167.5 429.5q0 168 69.5 329t185.5 282.5t277 195.5t334 74q274 0 441 -164.5t167 -431.5q0 -135 -44.5 -267t-126 -241t-187.5 -192.5t-238 -130.5t-270 -47zM778 178q122 0 238.5 56.5t201.5 147.5t137 212.5t52 245.5q0 186 -109 300.5
t-290 114.5q-123 0 -239.5 -56.5t-201 -148t-135.5 -212.5t-51 -246q0 -185 108.5 -299.5t288.5 -114.5zM684 -416q-56 0 -95.5 38.5t-39.5 92.5q0 56 39.5 94.5t95.5 38.5q54 0 92.5 -38t38.5 -95q0 -54 -38.5 -92.5t-92.5 -38.5z" />
    <glyph glyph-name="uni1ECD" unicode="&#x1ecd;" horiz-adv-x="1259" 
d="M541 -20q-201 0 -325 120t-124 316q0 165 85.5 309.5t232 231.5t315.5 87q199 0 320.5 -119.5t121.5 -314.5q0 -164 -84 -309t-229 -233t-313 -88zM555 162q104 0 197.5 61t149.5 161.5t56 211.5q0 118 -67 192t-184 74q-105 0 -198.5 -60.5t-148.5 -160.5t-55 -211
q0 -119 67 -193.5t183 -74.5zM467 -416q-56 0 -95.5 38.5t-39.5 92.5q0 56 39.5 94.5t95.5 38.5q55 0 93 -38t38 -95q0 -54 -38.5 -92.5t-92.5 -38.5z" />
    <glyph glyph-name="uni1EE4" unicode="&#x1ee4;" horiz-adv-x="1468" 
d="M1499 1434l-188 -887q-59 -277 -237 -422t-433 -145q-125 0 -223 35.5t-163.5 106t-87 177t6.5 248.5l188 887h216l-187 -877q-38 -182 40.5 -280.5t236.5 -98.5t274.5 98t155.5 281l186 877h215zM569 -416q-56 0 -95.5 38.5t-39.5 92.5q0 56 39.5 94.5t95.5 38.5
q55 0 93 -38t38 -95q0 -54 -38.5 -92.5t-92.5 -38.5z" />
    <glyph glyph-name="uni1EE5" unicode="&#x1ee5;" horiz-adv-x="1171" 
d="M410 -20q-174 0 -259 109.5t-42 307.5l133 627h209l-127 -590q-28 -134 21.5 -203t154.5 -69q109 0 198 73t119 216l121 573h209l-217 -1024h-189l7 123h-15q-66 -68 -140 -105.5t-183 -37.5zM420 -416q-56 0 -95.5 38.5t-39.5 92.5q0 56 39.5 94.5t95.5 38.5
q54 0 92.5 -38t38.5 -95q0 -54 -38.5 -92.5t-92.5 -38.5z" />
    <glyph glyph-name="Ygrave" unicode="&#x1ef2;" horiz-adv-x="1351" 
d="M891 1843l86 -297h-158l-100 297h172zM1229 1434h270l-682 -772l-141 -662h-215l141 662l-356 772h248l245 -537h15z" />
    <glyph glyph-name="ygrave" unicode="&#x1ef3;" horiz-adv-x="1116" 
d="M686 1434l86 -297h-158l-100 297h172zM1186 1024l-674 -1171q-17 -30 -24.5 -43t-32 -49t-44.5 -56t-56 -49.5t-72 -45.5t-86.5 -28t-106.5 -12q-79 0 -160 22l33 158q61 -14 107 -14q151 0 243 147l72 117h-59l-179 1024h207l133 -809h15l459 809h225z" />
    <glyph glyph-name="uni1EF8" unicode="&#x1ef8;" horiz-adv-x="1351" 
d="M1315 1784q-31 -111 -95.5 -183.5t-158.5 -72.5q-44 0 -79 13.5t-57.5 32t-42 37.5t-42 32.5t-47.5 13.5q-83 0 -119 -113h-144q33 114 97 186t161 72q45 0 81 -13t57.5 -32t40.5 -37.5t41 -31.5t47 -13q43 0 73 31.5t43 77.5h144zM1229 1434h270l-682 -772l-141 -662
h-215l141 662l-356 772h248l245 -537h15z" />
    <glyph glyph-name="uni1EF9" unicode="&#x1ef9;" horiz-adv-x="1116" 
d="M1110 1374q-31 -111 -95.5 -183.5t-158.5 -72.5q-44 0 -79 13.5t-57.5 32t-42 37.5t-42 32.5t-47.5 13.5q-84 0 -119 -112h-143q33 114 97 186t161 72q55 0 97 -20t62.5 -43.5t48 -43.5t58.5 -20q43 0 73.5 31t43.5 77h143zM1186 1024l-674 -1171q-17 -30 -24.5 -43
t-32 -49t-44.5 -56t-56 -49.5t-72 -45.5t-86.5 -28t-106.5 -12q-79 0 -160 22l33 158q61 -14 107 -14q151 0 243 147l72 117h-59l-179 1024h207l133 -809h15l459 809h225z" />
    <glyph glyph-name="uni200B" unicode="&#x200b;" horiz-adv-x="0" 
 />
    <glyph glyph-name="endash" unicode="&#x2013;" horiz-adv-x="1294" 
d="M121 721h1143l-35 -168h-1145z" />
    <glyph glyph-name="emdash" unicode="&#x2014;" horiz-adv-x="1677" 
d="M119 717h1526l-33 -160h-1526z" />
    <glyph glyph-name="quoteleft" unicode="&#x2018;" horiz-adv-x="473" 
d="M346 936q-57 0 -91 36t-34 97q0 104 79.5 212t207.5 179l41 -67q-136 -97 -160 -197q43 -2 69.5 -30.5t26.5 -78.5q0 -67 -38.5 -109t-100.5 -42z" />
    <glyph glyph-name="quoteright" unicode="&#x2019;" horiz-adv-x="473" 
d="M418 1452q56 0 90.5 -36t34.5 -97q0 -104 -80 -212t-209 -179l-41 67q138 96 162 199q-43 0 -71 29t-28 80q0 66 40 107.5t102 41.5z" />
    <glyph glyph-name="quotesinglbase" unicode="&#x201a;" horiz-adv-x="501" 
d="M176 248q57 0 91 -36t34 -97q0 -104 -79.5 -212t-207.5 -179l-41 67q136 97 160 199q-43 0 -69.5 28.5t-26.5 79.5q0 66 39 108t100 42z" />
    <glyph glyph-name="quotedblleft" unicode="&#x201c;" horiz-adv-x="817" 
d="M350 936q-56 0 -90.5 36t-34.5 97q0 104 80 212t209 179l41 -67q-137 -96 -162 -197q43 -2 71 -31t28 -78q0 -67 -40 -109t-102 -42zM694 936q-56 0 -90.5 36t-34.5 97q0 104 79.5 212t207.5 179l43 -67q-137 -96 -162 -197q43 -2 71 -31t28 -78q0 -67 -40 -109t-102 -42
z" />
    <glyph glyph-name="quotedblright" unicode="&#x201d;" horiz-adv-x="817" 
d="M418 1452q56 0 90.5 -36t34.5 -97q0 -104 -80 -212t-209 -179l-41 67q138 96 162 199q-43 0 -71 29t-28 80q0 66 40 107.5t102 41.5zM762 1452q57 0 91 -36t34 -97q0 -104 -79.5 -212t-207.5 -179l-41 67q136 97 160 199q-42 0 -69 29t-27 80q0 66 38.5 107.5t100.5 41.5
z" />
    <glyph glyph-name="quotedblbase" unicode="&#x201e;" horiz-adv-x="845" 
d="M176 248q57 0 91 -36t34 -97q0 -104 -79.5 -212t-207.5 -179l-41 67q136 97 160 199q-43 0 -69.5 28.5t-26.5 79.5q0 66 39 108t100 42zM520 248q56 0 90.5 -36t34.5 -97q0 -104 -79.5 -212t-207.5 -179l-43 67q138 96 162 199q-43 0 -69.5 28.5t-26.5 79.5q0 66 39 108
t100 42z" />
    <glyph glyph-name="dagger" unicode="&#x2020;" horiz-adv-x="1210" 
d="M1163 1067l-39 -178h-344l-188 -889h-191l189 889h-344l39 178h344l78 367h190l-80 -367h346z" />
    <glyph glyph-name="daggerdbl" unicode="&#x2021;" horiz-adv-x="1210" 
d="M1124 889h-344l-73 -344h344l-37 -178h-344l-78 -367h-191l78 367h-344l37 178h344l74 344h-344l39 178h344l78 367h190l-78 -367h344z" />
    <glyph glyph-name="bullet" unicode="&#x2022;" horiz-adv-x="423" 
d="M240 502q-55 0 -95.5 39.5t-40.5 93.5q0 57 40 97t96 40q55 0 94 -40t39 -97q0 -54 -39 -93.5t-94 -39.5z" />
    <glyph glyph-name="ellipsis" unicode="&#x2026;" horiz-adv-x="1466" 
d="M172 -10q-56 0 -96.5 39.5t-40.5 93.5q0 56 40.5 95.5t96.5 39.5q54 0 93.5 -39t39.5 -96q0 -54 -39.5 -93.5t-93.5 -39.5zM653 -10q-56 0 -96.5 39.5t-40.5 93.5q0 56 40.5 95.5t96.5 39.5q55 0 94 -39t39 -96q0 -54 -39.5 -93.5t-93.5 -39.5zM1135 -10q-56 0 -97 39.5
t-41 93.5q0 56 41 95.5t97 39.5q55 0 94 -39t39 -96q0 -54 -39.5 -93.5t-93.5 -39.5z" />
    <glyph glyph-name="perthousand" unicode="&#x2030;" horiz-adv-x="2222" 
d="M551 707q-128 0 -219.5 92t-91.5 221q0 128 92 219.5t219 91.5q128 0 220.5 -92t92.5 -219q0 -129 -92.5 -221t-220.5 -92zM1389 1311h237l-1169 -1311h-236zM551 1165q-63 0 -104 -41t-41 -104q0 -64 41 -106t104 -42q64 0 104.5 41.5t40.5 106.5q0 63 -40.5 104
t-104.5 41zM1755 604q128 0 220.5 -92t92.5 -221q0 -127 -92.5 -219t-220.5 -92q-137 0 -229 102q-43 -48 -103 -75t-125 -27q-129 0 -220 91.5t-91 219.5q0 129 91 221t220 92q65 0 125 -27t103 -75q92 102 229 102zM1296 145q64 0 106 41.5t42 104.5q0 64 -41.5 105.5
t-106.5 41.5q-62 0 -102.5 -41.5t-40.5 -105.5q0 -63 40.5 -104.5t102.5 -41.5zM1755 145q64 0 105 41.5t41 104.5q0 65 -41 106t-105 41q-63 0 -104 -41.5t-41 -105.5q0 -63 41 -104.5t104 -41.5z" />
    <glyph glyph-name="guilsinglleft" unicode="&#x2039;" horiz-adv-x="659" 
d="M254 197l-184 413l360 414h238l-371 -422l180 -405h-223z" />
    <glyph glyph-name="guilsinglright" unicode="&#x203a;" horiz-adv-x="659" 
d="M446 1024l183 -414l-359 -413h-237l370 421l-180 406h223z" />
    <glyph glyph-name="uni2042" unicode="&#x2042;" horiz-adv-x="1734" 
d="M1094 862l-203 127l6 -239h-133l8 241l-205 -129l-65 117l213 113l-213 112l65 117l205 -129l-8 242h133l-8 -242l205 129l67 -117l-213 -112l213 -113zM680 571l65 -116l-213 -113l213 -113l-65 -116l-205 129l8 -242h-135l10 242l-204 -129l-68 116l213 113l-213 113
l68 116l204 -129l-10 242h135l-8 -242zM1575 455l-213 -113l213 -113l-66 -116l-204 129l8 -242h-133l8 242l-205 -129l-65 116l212 113l-212 113l65 116l205 -129l-8 242h133l-8 -242l204 129z" />
    <glyph glyph-name="fraction" unicode="&#x2044;" horiz-adv-x="638" 
d="M963 1434l-1024 -1434h-170l1024 1434h170z" />
    <glyph glyph-name="uni2051" unicode="&#x2051;" horiz-adv-x="1083" 
d="M913 1245l-213 -112l213 -113l-65 -117l-205 129l8 -241h-133l8 241l-204 -129l-68 117l213 113l-213 112l68 117l204 -129l-8 242h133l-8 -242l205 129zM848 530l65 -116l-213 -113l213 -113l-65 -116l-205 129l8 -242h-133l8 242l-204 -129l-68 116l213 113l-213 113
l68 116l204 -129l-8 242h133l-8 -242z" />
    <glyph glyph-name="uni2070" unicode="&#x2070;" horiz-adv-x="804" 
d="M535 686q-143 0 -229.5 104t-86.5 302q0 195 85 299t228 104q142 0 226 -104.5t84 -303.5q0 -196 -83 -298.5t-224 -102.5zM535 807q73 0 116 70t43 213q0 142 -44.5 212t-117.5 70t-117 -69t-44 -213q0 -145 45 -214t119 -69z" />
    <glyph glyph-name="uni2074" unicode="&#x2074;" horiz-adv-x="770" 
d="M799 979v-109h-148v-174h-135v174h-383v72l373 543h145v-506h148zM299 979h217v317h-10z" />
    <glyph glyph-name="uni2075" unicode="&#x2075;" horiz-adv-x="790" 
d="M549 1208q118 0 189 -73.5t71 -184.5q0 -120 -82.5 -192t-214.5 -72q-125 0 -201 65.5t-84 178.5h140q6 -61 46 -95t101 -34q69 0 111.5 39.5t42.5 105.5q0 67 -41 111.5t-111 44.5q-44 0 -82.5 -20.5t-58.5 -55.5l-129 29l43 430h485v-119h-362l-23 -207q60 49 160 49z
" />
    <glyph glyph-name="uni2076" unicode="&#x2076;" horiz-adv-x="749" 
d="M510 1200q110 0 183 -70.5t73 -181.5q0 -119 -81 -190.5t-210 -71.5q-131 0 -211 74t-80 198q0 126 107 273l180 254h174l-231 -305q41 20 96 20zM477 801q68 0 108 42t40 107q0 62 -40 103t-108 41q-70 0 -109.5 -41t-39.5 -103q0 -64 40.5 -106.5t108.5 -42.5z" />
    <glyph glyph-name="uni2077" unicode="&#x2077;" horiz-adv-x="681" 
d="M250 1485h571v-84q-271 -299 -303 -705h-147q19 223 83 379.5t167 282.5v8h-371v119z" />
    <glyph glyph-name="uni2078" unicode="&#x2078;" horiz-adv-x="802" 
d="M672 1112q58 -21 99.5 -73.5t41.5 -129.5q0 -99 -79 -161t-216 -62q-136 0 -217.5 62.5t-81.5 162.5q0 77 43 129t100 72v6q-112 51 -112 166q0 95 75.5 153t194.5 58q117 0 190.5 -56.5t73.5 -152.5q0 -119 -112 -168v-6zM520 1391q-59 0 -95 -29.5t-36 -81.5
t36.5 -82.5t92.5 -30.5t91.5 30t35.5 83q0 52 -34.5 81.5t-90.5 29.5zM518 795q64 0 106 34.5t42 90.5q0 59 -39.5 96t-108.5 37q-70 0 -110.5 -37t-40.5 -94q0 -58 42.5 -92.5t108.5 -34.5z" />
    <glyph glyph-name="uni2079" unicode="&#x2079;" horiz-adv-x="747" 
d="M496 981q-110 0 -183 70.5t-73 181.5q0 119 81 190.5t209 71.5q133 0 213 -74t80 -198q0 -76 -29 -140t-77 -133l-182 -254h-173l232 305q-41 -20 -98 -20zM530 1380q-69 0 -109 -42t-40 -107q0 -62 40 -103t107 -41q70 0 111 41t41 103q0 64 -41 106.5t-109 42.5z" />
    <glyph glyph-name="uni2080" unicode="&#x2080;" horiz-adv-x="804" 
d="M342 -215q-143 0 -229 103.5t-86 301.5q0 196 85.5 300t227.5 104t225.5 -104.5t83.5 -303.5q0 -196 -83 -298.5t-224 -102.5zM342 -94q73 0 116.5 69.5t43.5 212.5t-44.5 213t-117.5 70t-117.5 -69.5t-44.5 -213.5t45 -213t119 -69z" />
    <glyph glyph-name="uni2081" unicode="&#x2081;" horiz-adv-x="544" 
d="M199 -205v529h-172v116h79q54 0 80.5 28t26.5 77v39h131v-789h-145z" />
    <glyph glyph-name="uni2082" unicode="&#x2082;" horiz-adv-x="802" 
d="M324 59q-100 -64 -111 -145h389v-119h-557v49q0 96 46.5 172.5t127.5 128.5l127 78q26 17 40 27.5t33.5 29t28.5 39.5t9 46q0 47 -34 77.5t-87 30.5q-64 0 -101 -40.5t-40 -92.5h-148q3 99 81 176.5t216 77.5q118 0 189 -60.5t71 -162.5q0 -38 -11.5 -72.5t-24 -55
t-38 -43.5t-35.5 -30t-34 -23z" />
    <glyph glyph-name="uni2083" unicode="&#x2083;" horiz-adv-x="800" 
d="M487 201q63 -21 99.5 -69t36.5 -114q0 -101 -85 -167t-219 -66q-131 0 -207 65t-85 177h143q21 -121 149 -121q69 0 112.5 33t43.5 86q0 54 -40.5 86t-108.5 32h-80v109h76q59 0 95 30.5t36 84.5q0 51 -36.5 80.5t-97.5 29.5q-53 0 -91 -27t-50 -77h-139q6 97 90 159
t197 62t192.5 -60t79.5 -159q0 -112 -111 -166v-8z" />
    <glyph glyph-name="uni2084" unicode="&#x2084;" horiz-adv-x="770" 
d="M606 78v-109h-147v-174h-135v174h-383v72l372 543h146v-506h147zM106 78h218v317h-11z" />
    <glyph glyph-name="uni2085" unicode="&#x2085;" horiz-adv-x="790" 
d="M356 307q118 0 189 -73.5t71 -184.5q0 -120 -82.5 -192t-214.5 -72q-125 0 -200.5 65.5t-83.5 178.5h139q6 -60 46.5 -94.5t101.5 -34.5q69 0 111 39.5t42 105.5q0 67 -40.5 111.5t-110.5 44.5q-45 0 -83.5 -20.5t-58.5 -55.5l-129 29l43 430h486v-119h-363l-22 -207
q60 49 159 49z" />
    <glyph glyph-name="uni2086" unicode="&#x2086;" horiz-adv-x="749" 
d="M317 299q110 0 183 -70.5t73 -181.5q0 -119 -80.5 -190.5t-209.5 -71.5q-131 0 -211 74t-80 198q0 128 106 273l181 254h174l-232 -305q41 20 96 20zM285 -100q67 0 107 42t40 107q0 62 -39.5 103t-107.5 41q-70 0 -110 -41t-40 -103q0 -64 41 -106.5t109 -42.5z" />
    <glyph glyph-name="uni2087" unicode="&#x2087;" horiz-adv-x="681" 
d="M57 584h572v-84q-271 -299 -303 -705h-148q19 223 83 379.5t167 282.5v8h-371v119z" />
    <glyph glyph-name="uni2088" unicode="&#x2088;" horiz-adv-x="802" 
d="M479 211q58 -21 100 -73.5t42 -129.5q0 -99 -79 -161t-216 -62q-136 0 -217.5 62.5t-81.5 162.5q0 77 43 129t100 72v6q-113 52 -113 166q0 95 76 153t195 58q117 0 190.5 -57t73.5 -152q0 -118 -113 -168v-6zM328 489q-59 0 -95 -29t-36 -81t36.5 -82.5t92.5 -30.5
t91.5 30t35.5 83q0 52 -34 81t-91 29zM326 -106q64 0 105.5 34t41.5 90q0 59 -39 96.5t-108 37.5q-70 0 -111 -37.5t-41 -94.5t43 -91.5t109 -34.5z" />
    <glyph glyph-name="uni2089" unicode="&#x2089;" horiz-adv-x="747" 
d="M303 80q-110 0 -183 70.5t-73 181.5q0 118 81.5 190t209.5 72q133 0 213 -74t80 -198q0 -53 -18 -107t-38 -87.5t-51 -78.5l-182 -254h-172l231 305q-41 -20 -98 -20zM338 479q-69 0 -109.5 -42t-40.5 -107q0 -62 40.5 -103t107.5 -41q70 0 110.5 41t40.5 103
q0 64 -40.5 106.5t-108.5 42.5z" />
    <glyph glyph-name="Euro" unicode="&#x20ac;" horiz-adv-x="1316" 
d="M1036 1157q-139 0 -255.5 -65t-194.5 -181h592l-68 -155h-602q-30 -88 -39 -195h526l-65 -153h-455q22 -120 108.5 -185t239.5 -65q193 0 334 86l19 -162q-171 -102 -381 -102q-226 0 -366.5 115t-162.5 313h-176l35 153h141q6 95 35 195h-135l33 155h163
q100 194 278 307t400 113q113 0 213 -26.5t156 -65.5l-96 -160q-129 78 -277 78z" />
    <glyph glyph-name="uni2113" unicode="&#x2113;" horiz-adv-x="942" 
d="M426 520l-35 -162q-25 -113 25.5 -163t154.5 -50q81 0 166 29l-35 -162q-83 -32 -190 -32q-167 0 -252 93t-47 273l27 123q-91 -19 -181 -31l35 160q112 21 182 41l76 356q33 155 125 245.5t228 90.5q113 0 182 -64.5t69 -164.5q0 -198 -139 -346.5t-391 -235.5zM524 975
l-57 -266q152 68 233.5 160t81.5 200q0 47 -25 77t-71 30q-57 0 -99.5 -52t-62.5 -149z" />
    <glyph glyph-name="trademark" unicode="&#x2122;" horiz-adv-x="1624" 
d="M788 1303h-206l-123 -586h-148l123 586h-205l27 131h561zM1550 1434h187l-152 -717h-143l96 457h-6l-262 -375h-140l-98 375h-8l-96 -457h-144l152 717h164l125 -471h8z" />
    <glyph glyph-name="uni2153" unicode="&#x2153;" horiz-adv-x="1947" 
d="M504 645v529h-172v116h80q54 0 81 28t27 77v39h129v-789h-145zM1542 1434l-1024 -1434h-170l1024 1434h170zM1581 406q63 -21 99 -69t36 -114q0 -101 -84.5 -167t-218.5 -66q-131 0 -207.5 64.5t-85.5 176.5h144q21 -120 149 -120q68 0 112 33t44 85q0 54 -41 86.5
t-109 32.5h-80v109h74q59 0 96 30t37 84q0 50 -37 80.5t-96 30.5q-53 0 -92 -27.5t-49 -76.5h-142q6 98 90 159.5t199 61.5q112 0 191.5 -60t79.5 -159q0 -110 -109 -166v-8z" />
    <glyph glyph-name="uni2154" unicode="&#x2154;" horiz-adv-x="2105" 
d="M590 909q-101 -64 -109 -145h387v-119h-557v49q0 96 46.5 172.5t127.5 128.5l127 78q27 17 40.5 27t33 28.5t28.5 39.5t9 46q0 48 -33.5 78.5t-87.5 30.5q-63 0 -100 -41t-39 -92h-150q3 99 81 176.5t216 77.5q118 0 189 -60.5t71 -162.5q0 -38 -11.5 -72.5t-24 -55
t-38 -43.5t-35.5 -30t-34 -23zM1702 1434l-1026 -1434h-170l1024 1434h172zM1739 406q63 -21 99 -69t36 -114q0 -101 -84.5 -167t-218.5 -66q-131 0 -207.5 64.5t-85.5 176.5h143q21 -120 150 -120q68 0 110.5 33t42.5 85q0 54 -40 86.5t-107 32.5h-80v109h74q59 0 95 30
t36 84q0 51 -36 81t-95 30q-53 0 -92 -27.5t-49 -76.5h-142q6 98 90 159.5t199 61.5q112 0 191 -60t79 -159q0 -111 -108 -166v-8z" />
    <glyph glyph-name="arrowup" unicode="&#x2191;" horiz-adv-x="1470" 
d="M1452 899l-127 -129l-416 418v-1200h-184v1200l-418 -418l-125 129l625 604h18z" />
    <glyph glyph-name="arrowdown" unicode="&#x2193;" horiz-adv-x="1470" 
d="M1245 651l127 -127l-624 -606h-19l-627 606l127 127l416 -415v1198h184v-1198z" />
    <glyph glyph-name="arrowboth" unicode="&#x2194;" horiz-adv-x="2107" 
d="M1493 1352l606 -625v-20l-606 -625l-129 127l418 416h-1368l415 -416l-127 -127l-606 625v20l606 625l127 -127l-415 -416h1368l-418 416z" />
    <glyph glyph-name="arrowupdn" unicode="&#x2195;" horiz-adv-x="1609" 
d="M938 80l416 414l127 -127l-627 -607h-20l-625 607l127 127l416 -416v1239l-416 -416l-127 127l625 606h20l627 -606l-127 -127l-416 414v-1235z" />
    <glyph glyph-name="uni2196" unicode="&#x2196;" horiz-adv-x="1282" 
d="M1290 231l-137 -135l-846 848v-604h-170v893l19 16h893v-170h-609z" />
    <glyph glyph-name="uni2197" unicode="&#x2197;" horiz-adv-x="1282" 
d="M1126 1249l19 -16v-893h-170v604l-846 -848l-137 135l852 848h-611v170h893z" />
    <glyph glyph-name="uni2198" unicode="&#x2198;" horiz-adv-x="1513" 
d="M1192 1153h170v-893l-16 -18h-893v170h604l-848 848l135 135l848 -850v608z" />
    <glyph glyph-name="uni2199" unicode="&#x2199;" horiz-adv-x="1515" 
d="M1307 1260l-848 -848h604v-170h-893l-16 18v893h170v-608l847 850z" />
    <glyph glyph-name="partialdiff" unicode="&#x2202;" horiz-adv-x="1288" 
d="M1227 993q0 -294 -83 -522t-243 -359.5t-375 -131.5q-177 0 -298.5 110t-121.5 279q0 153 75.5 282.5t206.5 205t286 75.5q122 0 217.5 -53t122.5 -127h14q19 164 6.5 280t-74.5 179t-176 63q-107 0 -188.5 -60t-118.5 -135h-188q32 95 102.5 178.5t181 140t234.5 56.5
q201 0 310.5 -121.5t109.5 -339.5zM551 154q149 0 263 114.5t114 263.5q0 102 -70.5 164t-185.5 62q-151 0 -261 -109t-110 -260q0 -105 69 -170t181 -65z" />
    <glyph glyph-name="emptyset" unicode="&#x2205;" horiz-adv-x="1638" 
d="M1647 1214l-181 -147q78 -131 78 -283q0 -155 -68.5 -303t-180.5 -257.5t-263 -176.5t-309 -67q-235 0 -395 153l-189 -153l-84 116l183 150q-78 134 -78 284q0 154 68.5 301.5t181 257t263.5 176t308 66.5q236 0 397 -151l185 151zM346 549q0 -99 39 -182l846 692
q-109 98 -275 98q-152 0 -294 -87t-229 -228.5t-87 -292.5zM1358 764q0 99 -39 182l-848 -694q112 -98 272 -98q115 0 228 52t197.5 136t137 196t52.5 226z" />
    <glyph glyph-name="product" unicode="&#x220f;" horiz-adv-x="1390" 
d="M1423 1434l-305 -1434h-219l266 1245h-626l-265 -1245h-217l305 1434h1061z" />
    <glyph glyph-name="summation" unicode="&#x2211;" horiz-adv-x="1163" 
d="M305 1311l27 123h917l-37 -170h-626l-2 -11l336 -493l-21 -96l-528 -484l-2 -10h632l-36 -170h-949l27 123l653 606v10z" />
    <glyph glyph-name="minus" unicode="&#x2212;" 
d="M176 662h871l-37 -177h-873z" />
    <glyph glyph-name="radical" unicode="&#x221a;" horiz-adv-x="1425" 
d="M1548 1434l-39 -179h-249l-707 -1255h-264l-142 1024h222l94 -737h16l637 1147h432z" />
    <glyph glyph-name="infinity" unicode="&#x221e;" horiz-adv-x="1671" 
d="M1315 1053q121 0 210 -84.5t89 -212.5q0 -173 -127 -302.5t-297 -129.5q-239 0 -340 223h-12q-106 -121 -204.5 -172t-203.5 -51q-121 0 -210 84.5t-89 212.5q0 113 58.5 213t157 159.5t210.5 59.5q240 0 340 -224h12q105 120 203 172t203 52zM475 489q153 0 309 199
q-70 199 -225 199q-95 0 -168.5 -75t-73.5 -169q0 -69 46 -111.5t112 -42.5zM1186 489q95 0 169.5 75t74.5 169q0 69 -46 111.5t-114 42.5q-154 0 -307 -199q67 -199 223 -199z" />
    <glyph glyph-name="integral" unicode="&#x222b;" horiz-adv-x="1107" 
d="M1028 1454q68 0 124 -22.5t89 -61.5l-96 -143q-46 55 -117 55q-54 0 -98 -33t-66 -102l-413 -1294q-44 -138 -144 -210.5t-225 -72.5q-71 0 -127.5 23.5t-87.5 60.5l96 143q42 -55 119 -55q53 0 97.5 33.5t66.5 101.5l413 1294q44 140 144 211.5t225 71.5z" />
    <glyph glyph-name="approxequal" unicode="&#x2248;" horiz-adv-x="1206" 
d="M1208 965q-22 -74 -54 -136t-77 -113.5t-105.5 -80.5t-131.5 -29q-58 0 -105.5 15.5t-76 39t-56.5 51t-49.5 51t-52 39t-66.5 15.5q-69 0 -117.5 -52t-72.5 -132h-170q22 74 54.5 136t77.5 113t106 80t132 29q58 0 104.5 -15.5t75 -39t56.5 -51t49 -51t51.5 -39
t65.5 -15.5q71 0 119.5 52.5t74.5 132.5h168zM1161 512q-22 -74 -54 -136t-77 -113t-105.5 -80t-131.5 -29q-58 0 -105.5 15.5t-76 39t-56.5 51t-49.5 51t-52 39t-66.5 15.5q-68 0 -116 -52t-74 -133h-170q22 74 54.5 136t77.5 113.5t106 80.5t132 29q58 0 104.5 -15.5
t75 -39t56.5 -51t49.5 -51t52 -39t66.5 -15.5q69 0 117.5 52t74.5 132h168z" />
    <glyph glyph-name="notequal" unicode="&#x2260;" 
d="M1081 713h-295l-233 -279h469l-37 -176h-579l-179 -213l-102 72l117 141h-181l37 176h291l232 279h-463l37 178h575l180 217l105 -74l-121 -143h186z" />
    <glyph glyph-name="lessequal" unicode="&#x2264;" 
d="M983 268l-840 346l52 240l987 344l-43 -197l-772 -268v-14l655 -266zM926 0h-914l37 172h914z" />
    <glyph glyph-name="greaterequal" unicode="&#x2265;" 
d="M268 1198l840 -344l-51 -242l-987 -344l43 197l774 270v13l-658 268zM12 0l37 172h914l-37 -172h-914z" />
    <glyph glyph-name="lozenge" unicode="&#x25ca;" horiz-adv-x="1249" 
d="M637 1167l575 -594l-575 -593l-576 593zM637 911l-315 -338l315 -337l319 337z" />
    <glyph glyph-name="smileface" unicode="&#x263a;" horiz-adv-x="1757" 
d="M1659 717q0 -151 -58 -287.5t-156.5 -235t-235 -156.5t-287.5 -58q-152 0 -289.5 59t-235.5 158.5t-155.5 235.5t-57.5 284q0 150 58.5 286.5t157 235.5t235.5 157t287 58q153 0 290 -59t235 -158t155 -235t57 -285zM537 1092v-93h90v-262h94v262h90v93h-274zM1032 1092
v-93h92v-262h93v262h92v93h-277zM922 166q146 0 271 71t199 193t78 266l-94 17q0 -123 -60.5 -227.5t-165 -165t-228.5 -60.5q-188 0 -320.5 133t-132.5 320l-94 -17q4 -144 78.5 -266t199 -193t269.5 -71z" />
    <glyph glyph-name="uni2731" unicode="&#x2731;" 
d="M1059 731l-318 -158l250 -157l-108 -140l-242 168l-63 -321h-162l73 321l-313 -168l-49 140l317 157l-251 158l110 139l242 -168l63 322h162l-74 -322l314 168z" />
    <glyph glyph-name="uni2780" unicode="&#x2780;" horiz-adv-x="1765" 
d="M928 -20q-202 0 -373 97.5t-271 267.5t-100 372t100 372t271 267.5t373 97.5q200 0 370.5 -97.5t270.5 -267.5t100 -372t-100 -372t-270.5 -267.5t-370.5 -97.5zM926 113q122 0 234 47.5t193.5 128t130 192.5t48.5 236t-48.5 236t-130 192.5t-193.5 128t-234 47.5
q-164 0 -303 -80.5t-220 -219.5t-81 -304t81 -304t220 -219.5t303 -80.5zM870 322v528h-172v117h80q54 0 80.5 27.5t26.5 76.5v39h131v-788h-146z" />
    <glyph glyph-name="uni2781" unicode="&#x2781;" horiz-adv-x="1765" 
d="M928 -20q-202 0 -373 97.5t-271 267.5t-100 372t100 372t271 267.5t373 97.5q200 0 370.5 -97.5t270.5 -267.5t100 -372t-100 -372t-270.5 -267.5t-370.5 -97.5zM926 113q122 0 234 47.5t193.5 128t130 192.5t48.5 236t-48.5 236t-130 192.5t-193.5 128t-234 47.5
q-164 0 -303 -80.5t-220 -219.5t-81 -304t81 -304t220 -219.5t303 -80.5zM922 602q-100 -64 -111 -145h389v-119h-557v49q0 96 46.5 172.5t127.5 128.5l127 78q27 17 40.5 27t33 28.5t28.5 39.5t9 46q0 47 -34.5 78t-86.5 31q-64 0 -101 -40.5t-40 -92.5h-148q3 99 81 176.5
t216 77.5q118 0 189 -61t71 -163q0 -38 -11.5 -72.5t-24 -54.5t-38.5 -43.5t-35 -29.5t-34 -23z" />
    <glyph glyph-name="uni2782" unicode="&#x2782;" horiz-adv-x="1765" 
d="M928 -20q-202 0 -373 97.5t-271 267.5t-100 372t100 372t271 267.5t373 97.5q200 0 370.5 -97.5t270.5 -267.5t100 -372t-100 -372t-270.5 -267.5t-370.5 -97.5zM926 113q122 0 234 47.5t193.5 128t130 192.5t48.5 236t-48.5 236t-130 192.5t-193.5 128t-234 47.5
q-164 0 -303 -80.5t-220 -219.5t-81 -304t81 -304t220 -219.5t303 -80.5zM1087 727q63 -21 99.5 -68.5t36.5 -113.5q0 -101 -84.5 -167.5t-218.5 -66.5q-131 0 -207.5 65t-85.5 177h143q10 -56 47 -88.5t103 -32.5q69 0 112 33t43 86q0 54 -40.5 86.5t-108.5 32.5h-80v108
h76q59 0 95 30.5t36 84.5q0 51 -36.5 81t-96.5 30q-52 0 -91 -27.5t-51 -77.5h-139q6 97 90 159t197 62t192.5 -60t79.5 -159q0 -112 -111 -166v-8z" />
    <glyph glyph-name="uni2783" unicode="&#x2783;" horiz-adv-x="1765" 
d="M928 -20q-202 0 -373 97.5t-271 267.5t-100 372t100 372t271 267.5t373 97.5q200 0 370.5 -97.5t270.5 -267.5t100 -372t-100 -372t-270.5 -267.5t-370.5 -97.5zM926 113q122 0 234 47.5t193.5 128t130 192.5t48.5 236t-48.5 236t-130 192.5t-193.5 128t-234 47.5
q-164 0 -303 -80.5t-220 -219.5t-81 -304t81 -304t220 -219.5t303 -80.5zM1233 604v-108h-148v-174h-135v174h-383v71l373 543h145v-506h148zM733 604h217v318h-10z" />
    <glyph glyph-name="uni2784" unicode="&#x2784;" horiz-adv-x="1765" 
d="M928 -20q-202 0 -373 97.5t-271 267.5t-100 372t100 372t271 267.5t373 97.5q200 0 370.5 -97.5t270.5 -267.5t100 -372t-100 -372t-270.5 -267.5t-370.5 -97.5zM926 113q122 0 234 47.5t193.5 128t130 192.5t48.5 236t-48.5 236t-130 192.5t-193.5 128t-234 47.5
q-164 0 -303 -80.5t-220 -219.5t-81 -304t81 -304t220 -219.5t303 -80.5zM948 817q118 0 189 -73.5t71 -184.5q0 -120 -82.5 -192t-214.5 -72q-125 0 -200.5 65.5t-83.5 178.5h139q6 -61 46 -95t101 -34q69 0 111.5 39.5t42.5 105.5q0 67 -41 111.5t-111 44.5
q-44 0 -82.5 -20.5t-58.5 -55.5l-129 29l43 430h486v-119h-363l-23 -207q60 49 160 49z" />
    <glyph glyph-name="uni2785" unicode="&#x2785;" horiz-adv-x="1765" 
d="M928 -20q-202 0 -373 97.5t-271 267.5t-100 372t100 372t271 267.5t373 97.5q200 0 370.5 -97.5t270.5 -267.5t100 -372t-100 -372t-270.5 -267.5t-370.5 -97.5zM926 113q122 0 234 47.5t193.5 128t130 192.5t48.5 236t-48.5 236t-130 192.5t-193.5 128t-234 47.5
q-164 0 -303 -80.5t-220 -219.5t-81 -304t81 -304t220 -219.5t303 -80.5zM954 825q110 0 183 -70.5t73 -181.5q0 -119 -80.5 -190.5t-209.5 -71.5q-131 0 -211 74.5t-80 198.5q0 127 106 272l180 254h175l-232 -305q41 20 96 20zM922 426q67 0 107 42t40 107q0 62 -39.5 103
t-107.5 41q-70 0 -110 -41t-40 -103q0 -64 41 -106.5t109 -42.5z" />
    <glyph glyph-name="uni2786" unicode="&#x2786;" horiz-adv-x="1765" 
d="M928 -20q-202 0 -373 97.5t-271 267.5t-100 372t100 372t271 267.5t373 97.5q200 0 370.5 -97.5t270.5 -267.5t100 -372t-100 -372t-270.5 -267.5t-370.5 -97.5zM926 113q122 0 234 47.5t193.5 128t130 192.5t48.5 236t-48.5 236t-130 192.5t-193.5 128t-234 47.5
q-164 0 -303 -80.5t-220 -219.5t-81 -304t81 -304t220 -219.5t303 -80.5zM643 1094h571v-84q-271 -299 -303 -705h-147q19 223 83 379.5t167 282.5v8h-371v119z" />
    <glyph glyph-name="uni2787" unicode="&#x2787;" horiz-adv-x="1765" 
d="M928 -20q-202 0 -373 97.5t-271 267.5t-100 372t100 372t271 267.5t373 97.5q200 0 370.5 -97.5t270.5 -267.5t100 -372t-100 -372t-270.5 -267.5t-370.5 -97.5zM926 113q122 0 234 47.5t193.5 128t130 192.5t48.5 236t-48.5 236t-130 192.5t-193.5 128t-234 47.5
q-164 0 -303 -80.5t-220 -219.5t-81 -304t81 -304t220 -219.5t303 -80.5zM1081 737q58 -21 100 -73t42 -129q0 -99 -79 -161.5t-216 -62.5q-136 0 -217.5 63t-81.5 163q0 76 43 128t100 72v6q-113 52 -113 166q0 95 76 153t195 58q117 0 190.5 -57t73.5 -152
q0 -118 -113 -168v-6zM930 1016q-59 0 -95 -29.5t-36 -81.5t36.5 -82t92.5 -30t91.5 29.5t35.5 82.5q0 52 -34.5 81.5t-90.5 29.5zM928 420q64 0 105.5 34.5t41.5 90.5q0 59 -39 96t-108 37q-70 0 -111 -37t-41 -94t43 -92t109 -35z" />
    <glyph glyph-name="uni2788" unicode="&#x2788;" horiz-adv-x="1765" 
d="M928 -20q-202 0 -373 97.5t-271 267.5t-100 372t100 372t271 267.5t373 97.5q200 0 370.5 -97.5t270.5 -267.5t100 -372t-100 -372t-270.5 -267.5t-370.5 -97.5zM926 113q122 0 234 47.5t193.5 128t130 192.5t48.5 236t-48.5 236t-130 192.5t-193.5 128t-234 47.5
q-164 0 -303 -80.5t-220 -219.5t-81 -304t81 -304t220 -219.5t303 -80.5zM899 608q-110 0 -183 70.5t-73 181.5q0 118 81.5 190t209.5 72q133 0 213 -74t80 -198q0 -53 -18.5 -107t-37.5 -87t-51 -78l-182 -254h-172l231 305q-43 -21 -98 -21zM934 1008q-69 0 -109.5 -42.5
t-40.5 -107.5q0 -62 40.5 -102.5t107.5 -40.5q70 0 110.5 40.5t40.5 102.5q0 65 -40.5 107.5t-108.5 42.5z" />
    <glyph glyph-name="uni2789" unicode="&#x2789;" horiz-adv-x="1765" 
d="M928 -20q-202 0 -373 97.5t-271 267.5t-100 372t100 372t271 267.5t373 97.5q200 0 370.5 -97.5t270.5 -267.5t100 -372t-100 -372t-270.5 -267.5t-370.5 -97.5zM926 113q122 0 234 47.5t193.5 128t130 192.5t48.5 236t-48.5 236t-130 192.5t-193.5 128t-234 47.5
q-164 0 -303 -80.5t-220 -219.5t-81 -304t81 -304t220 -219.5t303 -80.5zM1118 352q-116 0 -188 93.5t-72 271.5q0 173 72 267.5t186 94.5q115 0 185.5 -94.5t70.5 -271.5q0 -175 -70 -268t-184 -93zM627 360v469h-140v111h64q43 0 66.5 25.5t23.5 72.5v33h115v-711h-129z
M1116 469q55 0 88 59t33 187q0 248 -121 248q-55 0 -89 -58t-34 -188q0 -132 34 -190t89 -58z" />
    <glyph glyph-name="uni278A" unicode="&#x278a;" horiz-adv-x="1765" 
d="M928 -20q200 0 370.5 97.5t270.5 267.5t100 372t-100 372t-270.5 267.5t-370.5 97.5q-202 0 -373 -97.5t-271 -267.5t-100 -372t100 -372t271 -267.5t373 -97.5zM870 322v528h-172v117h80q54 0 80.5 27.5t26.5 76.5v39h131v-788h-146z" />
    <glyph glyph-name="uni278B" unicode="&#x278b;" horiz-adv-x="1765" 
d="M928 -20q200 0 370.5 97.5t270.5 267.5t100 372t-100 372t-270.5 267.5t-370.5 97.5q-202 0 -373 -97.5t-271 -267.5t-100 -372t100 -372t271 -267.5t373 -97.5zM922 602q-100 -64 -111 -145h389v-119h-557v49q0 96 46.5 172.5t127.5 128.5l127 78q27 17 40.5 27t33 28.5
t28.5 39.5t9 46q0 47 -34.5 78t-86.5 31q-64 0 -101 -40.5t-40 -92.5h-148q3 99 81 176.5t216 77.5q118 0 189 -61t71 -163q0 -38 -11.5 -72.5t-24 -54.5t-38.5 -43.5t-35 -29.5t-34 -23z" />
    <glyph glyph-name="uni278C" unicode="&#x278c;" horiz-adv-x="1765" 
d="M928 -20q200 0 370.5 97.5t270.5 267.5t100 372t-100 372t-270.5 267.5t-370.5 97.5q-202 0 -373 -97.5t-271 -267.5t-100 -372t100 -372t271 -267.5t373 -97.5zM1087 727q63 -21 99.5 -68.5t36.5 -113.5q0 -101 -84.5 -167.5t-218.5 -66.5q-131 0 -207.5 65t-85.5 177
h143q10 -56 47 -88.5t103 -32.5q69 0 112 33t43 86q0 54 -40.5 86.5t-108.5 32.5h-80v108h76q59 0 95 30.5t36 84.5q0 51 -36.5 81t-96.5 30q-52 0 -91 -27.5t-51 -77.5h-139q6 97 90 159t197 62t192.5 -60t79.5 -159q0 -112 -111 -166v-8z" />
    <glyph glyph-name="uni278D" unicode="&#x278d;" horiz-adv-x="1765" 
d="M928 -20q200 0 370.5 97.5t270.5 267.5t100 372t-100 372t-270.5 267.5t-370.5 97.5q-202 0 -373 -97.5t-271 -267.5t-100 -372t100 -372t271 -267.5t373 -97.5zM1233 604v-108h-148v-174h-135v174h-383v71l373 543h145v-506h148zM733 604h217v318h-10z" />
    <glyph glyph-name="uni278E" unicode="&#x278e;" horiz-adv-x="1765" 
d="M928 -20q200 0 370.5 97.5t270.5 267.5t100 372t-100 372t-270.5 267.5t-370.5 97.5q-202 0 -373 -97.5t-271 -267.5t-100 -372t100 -372t271 -267.5t373 -97.5zM948 817q118 0 189 -73.5t71 -184.5q0 -120 -82.5 -192t-214.5 -72q-125 0 -200.5 65.5t-83.5 178.5h139
q6 -61 46 -95t101 -34q69 0 111.5 39.5t42.5 105.5q0 67 -41 111.5t-111 44.5q-44 0 -82.5 -20.5t-58.5 -55.5l-129 29l43 430h486v-119h-363l-23 -207q60 49 160 49z" />
    <glyph glyph-name="uni278F" unicode="&#x278f;" horiz-adv-x="1765" 
d="M928 -20q200 0 370.5 97.5t270.5 267.5t100 372t-100 372t-270.5 267.5t-370.5 97.5q-202 0 -373 -97.5t-271 -267.5t-100 -372t100 -372t271 -267.5t373 -97.5zM954 825q110 0 183 -70.5t73 -181.5q0 -119 -80.5 -190.5t-209.5 -71.5q-131 0 -211 74.5t-80 198.5
q0 127 106 272l180 254h175l-232 -305q41 20 96 20zM922 426q67 0 107 42t40 107q0 62 -39.5 103t-107.5 41q-70 0 -110 -41t-40 -103q0 -64 41 -106.5t109 -42.5z" />
    <glyph glyph-name="uni2790" unicode="&#x2790;" horiz-adv-x="1765" 
d="M928 -20q200 0 370.5 97.5t270.5 267.5t100 372t-100 372t-270.5 267.5t-370.5 97.5q-202 0 -373 -97.5t-271 -267.5t-100 -372t100 -372t271 -267.5t373 -97.5zM643 1094h571v-84q-271 -299 -303 -705h-147q19 223 83 379.5t167 282.5v8h-371v119z" />
    <glyph glyph-name="uni2791" unicode="&#x2791;" horiz-adv-x="1765" 
d="M928 -20q200 0 370.5 97.5t270.5 267.5t100 372t-100 372t-270.5 267.5t-370.5 97.5q-202 0 -373 -97.5t-271 -267.5t-100 -372t100 -372t271 -267.5t373 -97.5zM1081 737q58 -21 100 -73t42 -129q0 -99 -79 -161.5t-216 -62.5q-136 0 -217.5 63t-81.5 163q0 76 43 128
t100 72v6q-113 52 -113 166q0 95 76 153t195 58q117 0 190.5 -57t73.5 -152q0 -118 -113 -168v-6zM930 1016q-59 0 -95 -29.5t-36 -81.5t36.5 -82t92.5 -30t91.5 29.5t35.5 82.5q0 52 -34.5 81.5t-90.5 29.5zM928 420q64 0 105.5 34.5t41.5 90.5q0 59 -39 96t-108 37
q-70 0 -111 -37t-41 -94t43 -92t109 -35z" />
    <glyph glyph-name="uni2792" unicode="&#x2792;" horiz-adv-x="1765" 
d="M928 -20q200 0 370.5 97.5t270.5 267.5t100 372t-100 372t-270.5 267.5t-370.5 97.5q-202 0 -373 -97.5t-271 -267.5t-100 -372t100 -372t271 -267.5t373 -97.5zM899 608q-110 0 -183 70.5t-73 181.5q0 118 81.5 190t209.5 72q133 0 213 -74t80 -198q0 -53 -18.5 -107
t-37.5 -87t-51 -78l-182 -254h-172l231 305q-43 -21 -98 -21zM934 1008q-69 0 -109.5 -42.5t-40.5 -107.5q0 -62 40.5 -102.5t107.5 -40.5q70 0 110.5 40.5t40.5 102.5q0 65 -40.5 107.5t-108.5 42.5z" />
    <glyph glyph-name="uni2793" unicode="&#x2793;" horiz-adv-x="1765" 
d="M928 -20q200 0 370.5 97.5t270.5 267.5t100 372t-100 372t-270.5 267.5t-370.5 97.5q-202 0 -373 -97.5t-271 -267.5t-100 -372t100 -372t271 -267.5t373 -97.5zM1118 352q-116 0 -188 93.5t-72 271.5q0 173 72 267.5t186 94.5q115 0 185.5 -94.5t70.5 -271.5
q0 -175 -70 -268t-184 -93zM627 360v469h-140v111h64q43 0 66.5 25.5t23.5 72.5v33h115v-711h-129zM1116 469q55 0 88 59t33 187q0 248 -121 248q-55 0 -89 -58t-34 -188q0 -132 34 -190t89 -58z" />
    <glyph glyph-name="Aacute.ss01" horiz-adv-x="1374" 
d="M1161 1843l-200 -297h-105l193 297h112zM991 0l-47 375h-557l-207 -375h-239l811 1434h264l198 -1434h-223zM485 557h437l-78 625h-15z" />
    <glyph glyph-name="Abreve.ss01" horiz-adv-x="1374" 
d="M920 1591q-62 0 -107 24t-65.5 61t-28.5 81.5t4 85.5h90q-15 -75 18 -122.5t101 -47.5t118 47t68 123h101q-20 -94 -101 -173t-198 -79zM752 1434h264l198 -1434h-223l-47 375h-557l-207 -375h-239zM485 557h437l-78 625h-15z" />
    <glyph glyph-name="uni01CD.ss01" horiz-adv-x="1374" 
d="M969 1573h-105l-159 270h106l111 -190h6l190 190h123zM752 1434h264l198 -1434h-223l-47 375h-557l-207 -375h-239zM485 557h437l-78 625h-15z" />
    <glyph glyph-name="Acircumflex.ss01" horiz-adv-x="1374" 
d="M961 1763l-191 -190h-123l273 270h106l158 -270h-107l-110 190h-6zM991 0l-47 375h-557l-207 -375h-239l811 1434h264l198 -1434h-223zM485 557h437l-78 625h-15z" />
    <glyph glyph-name="Agrave.ss01" horiz-adv-x="1374" 
d="M954 1546h-92l-71 297h98zM991 0l-47 375h-557l-207 -375h-239l811 1434h264l198 -1434h-223zM485 557h437l-78 625h-15z" />
    <glyph glyph-name="Amacron.ss01" horiz-adv-x="1374" 
d="M629 1708h626l-16 -84h-629zM752 1434h264l198 -1434h-223l-47 375h-557l-207 -375h-239zM485 557h437l-78 625h-15z" />
    <glyph glyph-name="Aogonek.ss01" horiz-adv-x="1374" 
d="M1128 -260q48 0 97 12l-17 -80q-44 -14 -94 -14q-79 0 -133.5 35t-54.5 102q0 135 174 205h-109l-47 375h-557l-207 -375h-239l811 1434h264l198 -1434q-88 -29 -140 -80t-52 -108q0 -36 30 -54t76 -18zM485 557h437l-78 625h-15z" />
    <glyph glyph-name="Aring.ss01" horiz-adv-x="1374" 
d="M948 1536q-78 0 -134 53t-56 131t56 131.5t134 53.5q76 0 131.5 -53.5t55.5 -131.5t-55.5 -131t-131.5 -53zM948 1829q-45 0 -75.5 -31t-30.5 -78t30.5 -77.5t75.5 -30.5q44 0 74.5 31t30.5 77q0 47 -31 78t-74 31zM991 0l-47 375h-557l-207 -375h-239l811 1434h264
l198 -1434h-223zM485 557h437l-78 625h-15z" />
    <glyph glyph-name="Atilde.ss01" horiz-adv-x="1374" 
d="M807 1686q-46 0 -80 -35t-51 -86h-86q69 204 217 204q51 0 88.5 -21t56.5 -45.5t46.5 -45.5t60.5 -21q47 0 81 34t50 85h86q-26 -88 -81 -146.5t-134 -58.5q-41 0 -73 14t-52.5 34t-38.5 40t-40.5 34t-49.5 14zM752 1434h264l198 -1434h-223l-47 375h-557l-207 -375h-239
zM485 557h437l-78 625h-15z" />
    <glyph glyph-name="AEacute.ss01" horiz-adv-x="2097" 
d="M1954 1843l-201 -297h-104l192 297h113zM2144 1243h-686l-90 -422h588l-41 -186h-586l-94 -445h704l-41 -190h-915l80 375h-537l-321 -375h-264l1226 1434h1016zM1102 557l133 625h-16l-537 -625h420z" />
    <glyph glyph-name="uni01E2.ss01" horiz-adv-x="2097" 
d="M2048 1708l-16 -84h-629l18 84h627zM2144 1243h-686l-90 -422h588l-41 -186h-586l-94 -445h704l-41 -190h-915l80 375h-537l-321 -375h-264l1226 1434h1016zM1102 557l133 625h-16l-537 -625h420z" />
    <glyph glyph-name="Cacute.ss01" horiz-adv-x="1554" 
d="M1186 1843h112l-200 -297h-105zM1442 444q-84 -215 -271.5 -339.5t-433.5 -124.5q-268 0 -425.5 155.5t-157.5 421.5q0 140 42.5 274.5t121 246t183 196.5t235.5 132.5t270 47.5q152 0 272.5 -54.5t190.5 -164t63 -256.5h-221q-9 126 -97 201t-227 75q-118 0 -230 -56.5
t-194 -149t-132 -216.5t-50 -253q0 -186 99 -294t276 -108q147 0 265 73t181 193h240z" />
    <glyph glyph-name="Ccaron.ss01" horiz-adv-x="1554" 
d="M1253 1843h123l-272 -270h-105l-159 270h106l111 -190h6zM1442 444q-84 -215 -271.5 -339.5t-433.5 -124.5q-268 0 -425.5 155.5t-157.5 421.5q0 140 42.5 274.5t121 246t183 196.5t235.5 132.5t270 47.5q152 0 272.5 -54.5t190.5 -164t63 -256.5h-221q-9 126 -97 201
t-227 75q-118 0 -230 -56.5t-194 -149t-132 -216.5t-50 -253q0 -186 99 -294t276 -108q147 0 265 73t181 193h240z" />
    <glyph glyph-name="Ccedilla.ss01" horiz-adv-x="1554" 
d="M987 1255q-118 0 -230 -56.5t-194 -149t-132 -216.5t-50 -253q0 -186 99 -294t276 -108q147 0 265 73t181 193h240q-84 -214 -269.5 -338.5t-429.5 -125.5l-67 -72q66 5 119 -32.5t53 -104.5q0 -89 -66 -145t-168 -56q-84 0 -133 39l45 63q47 -28 95 -28q62 0 103.5 35.5
t41.5 89.5q0 34 -27.5 54.5t-83.5 20.5q-37 0 -82 -18l-32 37l114 121q-234 25 -367.5 177t-133.5 396q0 140 42.5 274.5t121 246t183 196.5t235.5 132.5t270 47.5q152 0 272.5 -54.5t190.5 -164t63 -256.5h-221q-9 126 -97 201t-227 75z" />
    <glyph glyph-name="Ccircumflex.ss01" horiz-adv-x="1554" 
d="M905 1573h-123l273 270h106l158 -270h-107l-110 190h-6zM1442 444q-84 -215 -271.5 -339.5t-433.5 -124.5q-268 0 -425.5 155.5t-157.5 421.5q0 140 42.5 274.5t121 246t183 196.5t235.5 132.5t270 47.5q152 0 272.5 -54.5t190.5 -164t63 -256.5h-221q-9 126 -97 201
t-227 75q-118 0 -230 -56.5t-194 -149t-132 -216.5t-50 -253q0 -186 99 -294t276 -108q147 0 265 73t181 193h240z" />
    <glyph glyph-name="Eth.ss01" horiz-adv-x="1458" 
d="M809 1434q279 0 429.5 -143.5t150.5 -413.5q0 -179 -61.5 -339.5t-171 -279.5t-270.5 -188.5t-349 -69.5h-480l144 674h-236l17 84h237l143 676h447zM553 195q178 0 319 91t217 242.5t76 331.5q0 71 -13.5 128t-35.5 96t-54.5 68t-65.5 45t-74 26t-74.5 13t-71.5 3h-239
l-103 -481h363l-17 -84h-364l-103 -479h240z" />
    <glyph glyph-name="Dcaron.ss01" horiz-adv-x="1458" 
d="M1143 1843h123l-273 -270h-104l-160 270h107l110 -190h6zM809 1434q279 0 429.5 -143.5t150.5 -413.5q0 -179 -61.5 -339.5t-171 -279.5t-270.5 -188.5t-349 -69.5h-480l305 1434h447zM553 195q178 0 319 91t217 242.5t76 331.5q0 71 -13.5 128t-35.5 96t-54.5 68
t-65.5 45t-74 26t-74.5 13t-71.5 3h-239l-224 -1044h240z" />
    <glyph glyph-name="Dcroat.ss01" horiz-adv-x="1458" 
d="M809 1434q279 0 429.5 -143.5t150.5 -413.5q0 -179 -61.5 -339.5t-171 -279.5t-270.5 -188.5t-349 -69.5h-480l144 674h-236l17 84h237l143 676h447zM553 195q178 0 319 91t217 242.5t76 331.5q0 71 -13.5 128t-35.5 96t-54.5 68t-65.5 45t-74 26t-74.5 13t-71.5 3h-239
l-103 -481h363l-17 -84h-364l-103 -479h240z" />
    <glyph glyph-name="Eacute.ss01" horiz-adv-x="1202" 
d="M991 1843h113l-201 -297h-104zM307 190h737l-40 -190h-947l305 1434h926l-39 -191h-717l-90 -422h625l-41 -186h-625z" />
    <glyph glyph-name="Ebreve.ss01" horiz-adv-x="1202" 
d="M1159 1843q-20 -94 -101 -173t-198 -79q-81 0 -131.5 41t-64 97t-0.5 114h90q-15 -75 18 -122.5t100 -47.5q68 0 119 47t68 123h100zM307 190h737l-40 -190h-947l305 1434h926l-39 -191h-717l-90 -422h625l-41 -186h-625z" />
    <glyph glyph-name="Ecaron.ss01" horiz-adv-x="1202" 
d="M1061 1843h123l-273 -270h-104l-160 270h107l110 -190h6zM307 190h737l-40 -190h-947l305 1434h926l-39 -191h-717l-90 -422h625l-41 -186h-625z" />
    <glyph glyph-name="uni0228.ss01" horiz-adv-x="1202" 
d="M1249 1243h-717l-90 -422h625l-41 -186h-625l-94 -445h737l-40 -190h-424l-88 -92q66 5 119 -32.5t53 -104.5q0 -89 -66 -145t-168 -56q-84 0 -133 39l45 63q47 -28 94 -28q62 0 104 35.5t42 89.5q0 34 -27.5 54.5t-83.5 20.5q-37 0 -82 -18l-33 37l131 137h-430
l305 1434h926z" />
    <glyph glyph-name="Ecircumflex.ss01" horiz-adv-x="1202" 
d="M711 1573h-123l272 270h107l157 -270h-106l-111 190h-6zM307 190h737l-40 -190h-947l305 1434h926l-39 -191h-717l-90 -422h625l-41 -186h-625z" />
    <glyph glyph-name="Egrave.ss01" horiz-adv-x="1202" 
d="M831 1843l66 -297h-92l-72 297h98zM307 190h737l-40 -190h-947l305 1434h926l-39 -191h-717l-90 -422h625l-41 -186h-625z" />
    <glyph glyph-name="Emacron.ss01" horiz-adv-x="1202" 
d="M571 1708h627l-16 -84h-629zM307 190h737l-40 -190h-947l305 1434h926l-39 -191h-717l-90 -422h625l-41 -186h-625z" />
    <glyph glyph-name="Eogonek.ss01" horiz-adv-x="1202" 
d="M1249 1243h-717l-90 -422h625l-41 -186h-625l-94 -445h737l-40 -190q-88 -29 -140.5 -80t-52.5 -108q0 -36 30.5 -54t76.5 -18t96 12l-17 -80q-44 -14 -94 -14q-79 0 -133.5 35t-54.5 102q0 135 174 205h-832l305 1434h926z" />
    <glyph glyph-name="uni1EBC.ss01" horiz-adv-x="1202" 
d="M1219 1755q-26 -88 -81 -146.5t-134 -58.5q-41 0 -73 14t-52.5 34t-38.5 40t-40.5 34t-49.5 14q-46 0 -80.5 -35t-51.5 -86h-86q69 204 218 204q41 0 73 -13.5t52 -33t37 -39.5t39.5 -33.5t49.5 -13.5q47 0 81.5 34t50.5 85h86zM307 190h737l-40 -190h-947l305 1434h926
l-39 -191h-717l-90 -422h625l-41 -186h-625z" />
    <glyph glyph-name="uni01F4.ss01" horiz-adv-x="1622" 
d="M1180 1843h112l-200 -297h-105zM860 758h647l-159 -758h-172l8 156h-15q-202 -176 -462 -176q-257 0 -406 151.5t-149 411.5q0 142 43.5 278.5t124 249.5t188 199.5t243 135t281.5 48.5q242 0 384 -124.5t136 -313.5h-225q-11 107 -96.5 173t-222.5 66
q-166 0 -312.5 -97.5t-232.5 -257.5t-86 -337q0 -183 97 -286t284 -103q110 0 209 35t174.5 111t97.5 182l18 84h-397v172z" />
    <glyph glyph-name="Gbreve.ss01" horiz-adv-x="1622" 
d="M1350 1843q-20 -94 -101 -173t-198 -79q-62 0 -107 24t-65.5 61t-28.5 81.5t4 85.5h90q-15 -75 18.5 -122.5t100.5 -47.5q68 0 118 47t68 123h101zM860 758h647l-159 -758h-172l8 156h-15q-202 -176 -462 -176q-257 0 -406 151.5t-149 411.5q0 142 43.5 278.5t124 249.5
t188 199.5t243 135t281.5 48.5q242 0 384 -124.5t136 -313.5h-225q-11 107 -96.5 173t-222.5 66q-166 0 -312.5 -97.5t-232.5 -257.5t-86 -337q0 -183 97 -286t284 -103q110 0 209 35t174.5 111t97.5 182l18 84h-397v172z" />
    <glyph glyph-name="Gcaron.ss01" horiz-adv-x="1622" 
d="M1249 1843h123l-272 -270h-105l-159 270h106l111 -190h6zM860 758h647l-159 -758h-172l8 156h-15q-202 -176 -462 -176q-257 0 -406 151.5t-149 411.5q0 142 43.5 278.5t124 249.5t188 199.5t243 135t281.5 48.5q242 0 384 -124.5t136 -313.5h-225q-11 107 -96.5 173
t-222.5 66q-166 0 -312.5 -97.5t-232.5 -257.5t-86 -337q0 -183 97 -286t284 -103q110 0 209 35t174.5 111t97.5 182l18 84h-397v172z" />
    <glyph glyph-name="Gcircumflex.ss01" horiz-adv-x="1622" 
d="M901 1573h-123l273 270h106l158 -270h-107l-110 190h-6zM860 758h647l-159 -758h-172l8 156h-15q-202 -176 -462 -176q-257 0 -406 151.5t-149 411.5q0 142 43.5 278.5t124 249.5t188 199.5t243 135t281.5 48.5q242 0 384 -124.5t136 -313.5h-225q-11 107 -96.5 173
t-222.5 66q-166 0 -312.5 -97.5t-232.5 -257.5t-86 -337q0 -183 97 -286t284 -103q110 0 209 35t174.5 111t97.5 182l18 84h-397v172z" />
    <glyph glyph-name="uni0122.ss01" horiz-adv-x="1622" 
d="M860 758h647l-159 -758h-172l8 156h-15q-202 -176 -462 -176q-257 0 -406 151.5t-149 411.5q0 142 43.5 278.5t124 249.5t188 199.5t243 135t281.5 48.5q242 0 384 -124.5t136 -313.5h-225q-11 107 -96.5 173t-222.5 66q-166 0 -312.5 -97.5t-232.5 -257.5t-86 -337
q0 -183 97 -286t284 -103q110 0 209 35t174.5 111t97.5 182l18 84h-397v172zM659 -117q59 0 95.5 -34.5t36.5 -92.5q0 -211 -297 -372l-35 57q6 5 28 20t30.5 21t28.5 20.5t29.5 23t25.5 22.5t26 25.5t20.5 26t18.5 29.5q-16 -4 -39 -4q-50 0 -80.5 37t-30.5 78q0 63 40 103
t103 40z" />
    <glyph glyph-name="uni1E20.ss01" horiz-adv-x="1622" 
d="M760 1708h626l-16 -84h-629zM860 758h647l-159 -758h-172l8 156h-15q-202 -176 -462 -176q-257 0 -406 151.5t-149 411.5q0 142 43.5 278.5t124 249.5t188 199.5t243 135t281.5 48.5q242 0 384 -124.5t136 -313.5h-225q-11 107 -96.5 173t-222.5 66q-166 0 -312.5 -97.5
t-232.5 -257.5t-86 -337q0 -183 97 -286t284 -103q110 0 209 35t174.5 111t97.5 182l18 84h-397v172z" />
    <glyph glyph-name="Hbar.ss01" horiz-adv-x="1429" 
d="M1245 1434h215l-305 -1434h-215l133 629h-667l-134 -629h-215l305 1434h216l-58 -265h668zM1114 823l55 260h-667l-56 -260h668z" />
    <glyph glyph-name="uni021E.ss01" horiz-adv-x="1429" 
d="M1141 1843h123l-273 -270h-104l-160 270h107l110 -190h6zM1245 1434h215l-305 -1434h-215l133 629h-667l-134 -629h-215l305 1434h216l-132 -611h668z" />
    <glyph glyph-name="uni1E28.ss01" horiz-adv-x="1429" 
d="M1245 1434h215l-305 -1434h-215l133 629h-667l-134 -629h-61l-88 -92q66 5 119 -32.5t53 -104.5q0 -89 -66 -145t-168 -56q-84 0 -133 39l45 63q47 -28 95 -28q62 0 103.5 35.5t41.5 89.5q0 34 -27.5 54.5t-83.5 20.5q-37 0 -82 -18l-32 37l131 137h-62l305 1434h216
l-132 -611h668z" />
    <glyph glyph-name="Hcircumflex.ss01" horiz-adv-x="1429" 
d="M793 1573h-123l272 270h107l157 -270h-106l-111 190h-6zM1245 1434h215l-305 -1434h-215l133 629h-667l-134 -629h-215l305 1434h216l-132 -611h668z" />
    <glyph glyph-name="Iacute.ss01" horiz-adv-x="546" 
d="M635 1843h113l-201 -297h-105zM578 1434l-306 -1434h-215l305 1434h216z" />
    <glyph glyph-name="Ibreve.ss01" horiz-adv-x="546" 
d="M805 1843q-20 -94 -101 -173t-198 -79q-62 0 -107 24t-65.5 61t-28.5 81.5t4 85.5h90q-15 -75 18 -122.5t101 -47.5t119 47t68 123h100zM578 1434l-306 -1434h-215l305 1434h216z" />
    <glyph glyph-name="uni01CF.ss01" horiz-adv-x="546" 
d="M705 1843h122l-272 -270h-104l-160 270h106l111 -190h6zM578 1434l-306 -1434h-215l305 1434h216z" />
    <glyph glyph-name="Icircumflex.ss01" horiz-adv-x="546" 
d="M356 1573h-123l273 270h106l158 -270h-106l-111 190h-6zM578 1434l-306 -1434h-215l305 1434h216z" />
    <glyph glyph-name="Igrave.ss01" horiz-adv-x="546" 
d="M475 1843l66 -297h-92l-72 297h98zM578 1434l-306 -1434h-215l305 1434h216z" />
    <glyph glyph-name="Imacron.ss01" horiz-adv-x="546" 
d="M215 1708h627l-17 -84h-628zM578 1434l-306 -1434h-215l305 1434h216z" />
    <glyph glyph-name="Iogonek.ss01" horiz-adv-x="546" 
d="M80 -188q0 -36 30 -54t76 -18q48 0 97 12l-17 -80q-44 -14 -94 -14q-79 0 -133.5 35t-54.5 102q0 135 174 205h-101l305 1434h216l-306 -1434q-88 -29 -140 -80t-52 -108z" />
    <glyph glyph-name="Itilde.ss01" horiz-adv-x="546" 
d="M862 1755q-26 -88 -81 -146.5t-134 -58.5q-41 0 -73 14t-52.5 34t-38.5 40t-40.5 34t-49.5 14q-46 0 -80 -35t-51 -86h-86q69 204 217 204q51 0 88.5 -21t56.5 -45.5t46.5 -45.5t60.5 -21q47 0 81 34t50 85h86zM578 1434l-306 -1434h-215l305 1434h216z" />
    <glyph glyph-name="Jcircumflex.ss01" horiz-adv-x="1114" 
d="M922 1573h-123l272 270h107l157 -270h-106l-111 190h-6zM279 420q-18 -105 25.5 -173.5t141.5 -68.5q100 0 171.5 66t99.5 196l211 994h217l-213 -1002q-49 -221 -182.5 -336.5t-329.5 -115.5q-206 0 -303.5 121t-61.5 319h224z" />
    <glyph glyph-name="uni0136.ss01" horiz-adv-x="1296" 
d="M895 0l-379 639h-108l-136 -639h-215l305 1434h216l-129 -600h108l578 600h251l-665 -705v-10l416 -719h-242zM530 -117q59 0 95.5 -34.5t36.5 -92.5q0 -211 -297 -372l-35 57q6 5 28 20t30.5 21t28.5 20.5t29.5 23t25.5 22.5t26 25.5t20.5 26t18.5 29.5q-16 -4 -39 -4
q-50 0 -80.5 37t-30.5 78q0 63 40 103t103 40z" />
    <glyph glyph-name="Lacute.ss01" horiz-adv-x="1183" 
d="M625 1843h112l-200 -297h-105zM309 195h733l-43 -195h-942l305 1434h211z" />
    <glyph glyph-name="Lcaron.ss01" horiz-adv-x="1183" 
d="M885 1450q56 0 90.5 -36t34.5 -97q0 -62 -26 -121.5t-69.5 -107t-91.5 -84.5t-102 -66l-33 51q158 108 203 199q-16 -4 -39 -4q-46 0 -75 37t-29 79q0 66 38.5 108t98.5 42zM309 195h733l-43 -195h-942l305 1434h211z" />
    <glyph glyph-name="uni013B.ss01" horiz-adv-x="1183" 
d="M309 195h733l-43 -195h-942l305 1434h211zM469 -117q59 0 95 -34.5t36 -92.5q0 -211 -297 -372l-35 57q6 5 28 20t30.5 21t28.5 20.5t29.5 23t25.5 22.5t26 25.5t20.5 26t18.5 29.5q-16 -4 -39 -4q-50 0 -80 36.5t-30 78.5q0 63 40 103t103 40z" />
    <glyph glyph-name="Lslash.ss01" horiz-adv-x="1183" 
d="M309 195h733l-43 -195h-942l125 584l-260 -117l21 104l260 115l159 748h211l-137 -643l408 180l-23 -103l-407 -182z" />
    <glyph glyph-name="Nacute.ss01" horiz-adv-x="1505" 
d="M1114 1843h113l-201 -297h-104zM1325 1434h211l-305 -1434h-205l-518 1063h-14l-226 -1063h-211l305 1434h205l516 -1065h15z" />
    <glyph glyph-name="Ncaron.ss01" horiz-adv-x="1505" 
d="M1184 1843h123l-273 -270h-104l-160 270h107l110 -190h6zM1325 1434h211l-305 -1434h-205l-518 1063h-14l-226 -1063h-211l305 1434h205l516 -1065h15z" />
    <glyph glyph-name="uni0145.ss01" horiz-adv-x="1505" 
d="M1325 1434h211l-305 -1434h-205l-518 1063h-14l-226 -1063h-211l305 1434h205l516 -1065h15zM592 -117q59 0 95 -34.5t36 -92.5q0 -211 -297 -372l-35 57q6 5 28 20t30.5 21t28.5 20.5t29.5 23t25.5 22.5t26 25.5t20.5 26t18.5 29.5q-16 -4 -39 -4q-50 0 -80 36.5
t-30 78.5q0 63 40 103t103 40z" />
    <glyph glyph-name="uni01F8.ss01" horiz-adv-x="1505" 
d="M954 1843l66 -297h-92l-72 297h98zM1325 1434h211l-305 -1434h-205l-518 1063h-14l-226 -1063h-211l305 1434h205l516 -1065h15z" />
    <glyph glyph-name="Ntilde.ss01" horiz-adv-x="1505" 
d="M1341 1755q-26 -88 -81 -146.5t-134 -58.5q-41 0 -73 14t-52.5 34t-38.5 40t-40.5 34t-49.5 14q-46 0 -80 -35t-51 -86h-86q69 204 217 204q51 0 88.5 -21t56.5 -45.5t46.5 -45.5t60.5 -21q47 0 81 34t50 85h86zM1325 1434h211l-305 -1434h-205l-518 1063h-14l-226 -1063
h-211l305 1434h205l516 -1065h15z" />
    <glyph glyph-name="Oacute.ss01" horiz-adv-x="1699" 
d="M1210 1843h113l-201 -297h-104zM764 -20q-273 0 -440.5 163.5t-167.5 429.5q0 168 69.5 329t185.5 282.5t277 195.5t334 74q274 0 441 -164.5t167 -431.5q0 -135 -44.5 -267t-126 -241t-187.5 -192.5t-238 -130.5t-270 -47zM778 178q122 0 238.5 56.5t201.5 147.5
t137 212.5t52 245.5q0 186 -109 300.5t-290 114.5q-123 0 -239.5 -56.5t-201 -148t-135.5 -212.5t-51 -246q0 -185 108.5 -299.5t288.5 -114.5z" />
    <glyph glyph-name="Obreve.ss01" horiz-adv-x="1699" 
d="M1380 1843q-20 -94 -101 -173t-198 -79q-81 0 -131.5 41t-64 97t-0.5 114h90q-15 -75 18 -122.5t101 -47.5t118 47t68 123h100zM764 -20q-273 0 -440.5 163.5t-167.5 429.5q0 168 69.5 329t185.5 282.5t277 195.5t334 74q274 0 441 -164.5t167 -431.5q0 -135 -44.5 -267
t-126 -241t-187.5 -192.5t-238 -130.5t-270 -47zM778 178q122 0 238.5 56.5t201.5 147.5t137 212.5t52 245.5q0 186 -109 300.5t-290 114.5q-123 0 -239.5 -56.5t-201 -148t-135.5 -212.5t-51 -246q0 -185 108.5 -299.5t288.5 -114.5z" />
    <glyph glyph-name="uni01D1.ss01" horiz-adv-x="1699" 
d="M1280 1843h123l-273 -270h-104l-160 270h107l110 -190h7zM764 -20q-273 0 -440.5 163.5t-167.5 429.5q0 168 69.5 329t185.5 282.5t277 195.5t334 74q274 0 441 -164.5t167 -431.5q0 -135 -44.5 -267t-126 -241t-187.5 -192.5t-238 -130.5t-270 -47zM778 178
q122 0 238.5 56.5t201.5 147.5t137 212.5t52 245.5q0 186 -109 300.5t-290 114.5q-123 0 -239.5 -56.5t-201 -148t-135.5 -212.5t-51 -246q0 -185 108.5 -299.5t288.5 -114.5z" />
    <glyph glyph-name="Ocircumflex.ss01" horiz-adv-x="1699" 
d="M932 1573h-123l272 270h107l158 -270h-107l-111 190h-6zM764 -20q-273 0 -440.5 163.5t-167.5 429.5q0 168 69.5 329t185.5 282.5t277 195.5t334 74q274 0 441 -164.5t167 -431.5q0 -135 -44.5 -267t-126 -241t-187.5 -192.5t-238 -130.5t-270 -47zM778 178
q122 0 238.5 56.5t201.5 147.5t137 212.5t52 245.5q0 186 -109 300.5t-290 114.5q-123 0 -239.5 -56.5t-201 -148t-135.5 -212.5t-51 -246q0 -185 108.5 -299.5t288.5 -114.5z" />
    <glyph glyph-name="Ograve.ss01" horiz-adv-x="1699" 
d="M1051 1843l65 -297h-92l-72 297h99zM764 -20q-273 0 -440.5 163.5t-167.5 429.5q0 168 69.5 329t185.5 282.5t277 195.5t334 74q274 0 441 -164.5t167 -431.5q0 -135 -44.5 -267t-126 -241t-187.5 -192.5t-238 -130.5t-270 -47zM778 178q122 0 238.5 56.5t201.5 147.5
t137 212.5t52 245.5q0 186 -109 300.5t-290 114.5q-123 0 -239.5 -56.5t-201 -148t-135.5 -212.5t-51 -246q0 -185 108.5 -299.5t288.5 -114.5z" />
    <glyph glyph-name="Ohungarumlaut.ss01" horiz-adv-x="1699" 
d="M1059 1843h110l-190 -297h-100zM1346 1843h110l-192 -297h-99zM764 -20q-273 0 -440.5 163.5t-167.5 429.5q0 168 69.5 329t185.5 282.5t277 195.5t334 74q274 0 441 -164.5t167 -431.5q0 -135 -44.5 -267t-126 -241t-187.5 -192.5t-238 -130.5t-270 -47zM778 178
q122 0 238.5 56.5t201.5 147.5t137 212.5t52 245.5q0 186 -109 300.5t-290 114.5q-123 0 -239.5 -56.5t-201 -148t-135.5 -212.5t-51 -246q0 -185 108.5 -299.5t288.5 -114.5z" />
    <glyph glyph-name="Omacron.ss01" horiz-adv-x="1699" 
d="M791 1708h626l-16 -84h-629zM764 -20q-273 0 -440.5 163.5t-167.5 429.5q0 168 69.5 329t185.5 282.5t277 195.5t334 74q274 0 441 -164.5t167 -431.5q0 -135 -44.5 -267t-126 -241t-187.5 -192.5t-238 -130.5t-270 -47zM778 178q122 0 238.5 56.5t201.5 147.5t137 212.5
t52 245.5q0 186 -109 300.5t-290 114.5q-123 0 -239.5 -56.5t-201 -148t-135.5 -212.5t-51 -246q0 -185 108.5 -299.5t288.5 -114.5z" />
    <glyph glyph-name="uni01EA.ss01" horiz-adv-x="1699" 
d="M936 -2q-86 -29 -137 -79.5t-51 -106.5q0 -36 30 -54t76 -18t96 12l-16 -80q-44 -14 -94 -14q-80 0 -134.5 35t-54.5 102q0 119 129 185h-16q-273 0 -440.5 163.5t-167.5 429.5q0 168 69.5 329t185.5 282.5t277 195.5t334 74q274 0 441 -164.5t167 -431.5
q0 -197 -92 -380t-251 -310.5t-351 -169.5zM381 592q0 -185 108.5 -299.5t288.5 -114.5q122 0 238.5 56.5t201.5 147.5t137 212.5t52 245.5q0 186 -109 300.5t-290 114.5q-123 0 -239.5 -56.5t-201 -148t-135.5 -212.5t-51 -246z" />
    <glyph glyph-name="Oslash.ss01" horiz-adv-x="1699" 
d="M1651 1454l-172 -180q151 -164 151 -416q0 -135 -44.5 -267t-126 -241t-187.5 -192.5t-238 -130.5t-270 -47q-237 0 -395 124l-174 -182l-62 53l174 185q-151 160 -151 413q0 168 69.5 329t185.5 282.5t277 195.5t334 74q235 0 393 -123l170 178zM381 592q0 -160 82 -268
l801 847q-105 84 -256 84q-123 0 -239.5 -56.5t-201 -148t-135.5 -212.5t-51 -246zM1407 840q0 156 -84 270l-803 -846q103 -86 258 -86q122 0 238.5 56.5t201.5 147.5t137 212.5t52 245.5z" />
    <glyph glyph-name="Oslashacute.ss01" horiz-adv-x="1699" 
d="M1323 1843l-201 -297h-104l192 297h113zM1651 1454l-172 -180q151 -164 151 -416q0 -135 -44.5 -267t-126 -241t-187.5 -192.5t-238 -130.5t-270 -47q-237 0 -395 124l-174 -182l-62 53l174 185q-151 160 -151 413q0 168 69.5 329t185.5 282.5t277 195.5t334 74
q235 0 393 -123l170 178zM381 592q0 -160 82 -268l801 847q-105 84 -256 84q-123 0 -239.5 -56.5t-201 -148t-135.5 -212.5t-51 -246zM1407 840q0 156 -84 270l-803 -846q103 -86 258 -86q122 0 238.5 56.5t201.5 147.5t137 212.5t52 245.5z" />
    <glyph glyph-name="Otilde.ss01" horiz-adv-x="1699" 
d="M1438 1755q-26 -88 -81 -146.5t-134 -58.5q-41 0 -73 14t-52.5 34t-38.5 40t-40.5 34t-49.5 14q-46 0 -80 -35t-51 -86h-86q69 204 217 204q51 0 88.5 -21t56.5 -45.5t46.5 -45.5t60.5 -21q47 0 81 34t50 85h86zM764 -20q-273 0 -440.5 163.5t-167.5 429.5
q0 168 69.5 329t185.5 282.5t277 195.5t334 74q274 0 441 -164.5t167 -431.5q0 -135 -44.5 -267t-126 -241t-187.5 -192.5t-238 -130.5t-270 -47zM778 178q122 0 238.5 56.5t201.5 147.5t137 212.5t52 245.5q0 186 -109 300.5t-290 114.5q-123 0 -239.5 -56.5t-201 -148
t-135.5 -212.5t-51 -246q0 -185 108.5 -299.5t288.5 -114.5z" />
    <glyph glyph-name="Racute.ss01" horiz-adv-x="1284" 
d="M1128 1843l-200 -297h-105l193 297h112zM1268 1083q0 -166 -106 -293.5t-285 -171.5l223 -618h-219l-209 586h-279l-125 -586h-211l305 1434h506q187 0 293.5 -92.5t106.5 -258.5zM723 772q143 0 233.5 83t90.5 204q0 91 -58.5 139.5t-163.5 48.5h-290l-103 -475h291z
" />
    <glyph glyph-name="Rcaron.ss01" horiz-adv-x="1284" 
d="M934 1573h-105l-159 270h106l111 -190h6l190 190h123zM1268 1083q0 -166 -106 -293.5t-285 -171.5l223 -618h-219l-209 586h-279l-125 -586h-211l305 1434h506q187 0 293.5 -92.5t106.5 -258.5zM723 772q143 0 233.5 83t90.5 204q0 91 -58.5 139.5t-163.5 48.5h-290
l-103 -475h291z" />
    <glyph glyph-name="uni0156.ss01" horiz-adv-x="1284" 
d="M1268 1083q0 -166 -106 -293.5t-285 -171.5l223 -618h-219l-209 586h-279l-125 -586h-211l305 1434h506q187 0 293.5 -92.5t106.5 -258.5zM723 772q143 0 233.5 83t90.5 204q0 91 -58.5 139.5t-163.5 48.5h-290l-103 -475h291zM516 -117q59 0 95 -34.5t36 -92.5
q0 -211 -297 -372l-35 57q6 5 28 20t30.5 21t28.5 20.5t29.5 23t25.5 22.5t26 25.5t20.5 26t18.5 29.5q-16 -4 -39 -4q-50 0 -80 36.5t-30 78.5q0 63 40 103t103 40z" />
    <glyph glyph-name="Sacute.ss01" horiz-adv-x="1249" 
d="M997 1843h113l-201 -297h-104zM1100 442q0 -201 -154.5 -331.5t-404.5 -130.5q-230 0 -348 118t-87 322h209q-11 -122 53 -188t195 -66q137 0 224 72t87 182q0 49 -17.5 85t-61 62.5t-71.5 38.5t-93 34q-5 2 -8 3l-60 19q-289 93 -289 333q0 93 40.5 177t111.5 146.5
t172 99t217 36.5q212 0 325.5 -116t84.5 -296h-211q9 100 -44.5 163t-168.5 63q-124 0 -213.5 -71.5t-89.5 -170.5q0 -20 5 -38t10.5 -32t20.5 -28t23 -22.5t30.5 -20t31 -16t36.5 -15t34.5 -13t37.5 -12.5l49 -16q45 -14 81.5 -29.5t84 -47t80 -69t55.5 -96.5t23 -129z" />
    <glyph glyph-name="Scaron.ss01" horiz-adv-x="1249" 
d="M1067 1843h123l-272 -270h-105l-160 270h107l110 -190h7zM1100 442q0 -201 -154.5 -331.5t-404.5 -130.5q-230 0 -348 118t-87 322h209q-11 -122 53 -188t195 -66q137 0 224 72t87 182q0 49 -17.5 85t-61 62.5t-71.5 38.5t-93 34q-5 2 -8 3l-60 19q-289 93 -289 333
q0 93 40.5 177t111.5 146.5t172 99t217 36.5q212 0 325.5 -116t84.5 -296h-211q9 100 -44.5 163t-168.5 63q-124 0 -213.5 -71.5t-89.5 -170.5q0 -20 5 -38t10.5 -32t20.5 -28t23 -22.5t30.5 -20t31 -16t36.5 -15t34.5 -13t37.5 -12.5l49 -16q45 -14 81.5 -29.5t84 -47
t80 -69t55.5 -96.5t23 -129z" />
    <glyph glyph-name="Scedilla.ss01" horiz-adv-x="1249" 
d="M1225 1042h-211q9 100 -44.5 163t-168.5 63q-124 0 -213.5 -71.5t-89.5 -170.5q0 -20 5 -38t10.5 -32t20.5 -28t23 -22.5t30.5 -20t31 -16t36.5 -15t34.5 -13t37.5 -12.5l49 -16q45 -14 81.5 -29.5t84 -47t80 -69t55.5 -96.5t23 -129q0 -97 -39 -181t-108.5 -145.5
t-171 -97.5t-222.5 -38l-70 -72q66 5 119.5 -32.5t53.5 -104.5q0 -89 -66 -145t-168 -56q-84 0 -133 39l45 63q47 -28 94 -28q62 0 104 35.5t42 89.5q0 34 -27.5 54.5t-83.5 20.5q-37 0 -82 -18l-33 37l115 121q-197 19 -294 133.5t-69 302.5h209q-11 -122 53 -188t195 -66
q137 0 224 72t87 182q0 49 -17.5 85t-61 62.5t-71.5 38.5t-93 34q-5 2 -8 3l-60 19q-289 93 -289 333q0 93 40.5 177t111.5 146.5t172 99t217 36.5q212 0 325.5 -116t84.5 -296z" />
    <glyph glyph-name="Scircumflex.ss01" horiz-adv-x="1249" 
d="M719 1573h-123l272 270h107l158 -270h-107l-111 190h-6zM1100 442q0 -201 -154.5 -331.5t-404.5 -130.5q-230 0 -348 118t-87 322h209q-11 -122 53 -188t195 -66q137 0 224 72t87 182q0 49 -17.5 85t-61 62.5t-71.5 38.5t-93 34q-5 2 -8 3l-60 19q-289 93 -289 333
q0 93 40.5 177t111.5 146.5t172 99t217 36.5q212 0 325.5 -116t84.5 -296h-211q9 100 -44.5 163t-168.5 63q-124 0 -213.5 -71.5t-89.5 -170.5q0 -20 5 -38t10.5 -32t20.5 -28t23 -22.5t30.5 -20t31 -16t36.5 -15t34.5 -13t37.5 -12.5l49 -16q45 -14 81.5 -29.5t84 -47
t80 -69t55.5 -96.5t23 -129z" />
    </font>
</defs>
</svg>
