<?xml version="1.0" standalone="no"?>
<!DOCTYPE svg PUBLIC "-//W3C//DTD SVG 1.1//EN" "http://www.w3.org/Graphics/SVG/1.1/DTD/svg11.dtd" >
<svg xmlns="http://www.w3.org/2000/svg" xmlns:xlink="http://www.w3.org/1999/xlink" version="1.1">
<metadata>
Created by FontForge 20201107 at Fri Oct 18 17:20:30 2024
 By 
(c) TIGHTYPE 2019
</metadata>
<defs>
<font id="Moderat-Regular-Italic" horiz-adv-x="1134" >
  <font-face 
    font-family="Moderat"
    font-weight="401"
    font-style="italic"
    font-stretch="normal"
    units-per-em="2048"
    panose-1="0 0 5 0 0 0 0 0 0 0"
    ascent="1638"
    descent="-410"
    x-height="1024"
    cap-height="1434"
    bbox="-287 -596 2439.05 1907"
    underline-thickness="102"
    underline-position="-204"
    slope="-12"
    unicode-range="U+0020-2793"
  />
<missing-glyph horiz-adv-x="1775" 
d="M1669 717q0 -151 -58 -287.5t-156.5 -235t-235 -156.5t-287.5 -58q-152 0 -289 59t-235 158.5t-155.5 235.5t-57.5 284q0 150 58 286.5t157 235.5t235.5 157t286.5 58q153 0 290 -59t235 -158t155 -235t57 -285zM547 1092v-93h90v-262h94v262h90v93h-274zM1042 1092v-93
h93v-262h92v262h92v93h-277zM932 166q146 0 271 71t199.5 193t78.5 266l-95 17q0 -123 -60.5 -227.5t-165 -165t-228.5 -60.5q-188 0 -320.5 133t-132.5 320l-94 -17q4 -144 78.5 -266t199 -193t269.5 -71z" />
    <glyph glyph-name="arrowleft" unicode="&#x3c;&#x2d;" horiz-adv-x="1669" 
d="M1528 797v-160h-1237l432 -432l-113 -113l-598 617v16l598 616l113 -112l-432 -432h1237z" />
    <glyph glyph-name="arrowright" unicode="&#x2d;&#x3e;" horiz-adv-x="1669" 
d="M1059 1341l598 -616v-16l-598 -617l-113 113l432 432h-1237v160h1237l-432 432z" />
    <glyph glyph-name="f_f" unicode="ff" horiz-adv-x="1363" 
d="M1362 1305q-128 0 -156 -129l-32 -152h241l-31 -145h-241l-187 -879h-180l187 879h-455l-189 -879h-178l187 879h-209l31 145h210l35 168q26 126 111 194t211 68q81 0 141 -22l-57 -140q-35 13 -74 13q-64 0 -104 -33.5t-52 -95.5l-32 -152h456l35 168
q28 127 112.5 194.5t211.5 67.5q96 0 164 -31l-62 -133q-46 15 -94 15z" />
    <glyph glyph-name="f_f_i" unicode="ffi" horiz-adv-x="1845" 
d="M1810 1024l-217 -1024h-178l187 879h-449l-188 -879h-179l187 879h-465l-189 -879h-178l187 879h-209l31 145h210l35 168q26 126 111 194t211 68q81 0 141 -22l-57 -140q-35 13 -74 13q-64 0 -104 -33.5t-52 -95.5l-32 -152h467l34 168q28 126 112 194t210 68
q80 0 141 -22l-57 -140q-32 13 -74 13q-64 0 -103.5 -33.5t-51.5 -95.5l-33 -152h626zM1784 1423q48 0 82.5 -33.5t34.5 -82.5t-34.5 -84t-82.5 -35q-50 0 -85.5 35t-35.5 84t35.5 82.5t85.5 33.5z" />
    <glyph glyph-name="f_f_j" unicode="ffj" horiz-adv-x="1839" 
d="M1825 1024l-254 -1202q-55 -252 -307 -252q-79 0 -156 22l29 138q58 -15 98 -15q132 0 160 129l221 1035h-471l-187 -879h-180l187 879h-457l-189 -879h-178l187 879h-209l31 145h210l35 168q26 126 111 194t211 68q81 0 141 -22l-57 -140q-35 13 -74 13
q-64 0 -104 -33.5t-52 -95.5l-32 -152h458l35 168q28 127 112.5 194.5t211.5 67.5q78 0 139 -22l-57 -140q-32 13 -72 13q-130 0 -158 -129l-32 -152h649zM1798 1423q48 0 82.5 -33.5t34.5 -82.5t-34.5 -84t-82.5 -35q-50 0 -85.5 35t-35.5 84t35.5 82.5t85.5 33.5z" />
    <glyph glyph-name="f_i" unicode="fi" horiz-adv-x="1200" 
d="M1165 1024l-217 -1024h-178l186 879h-448l-189 -879h-178l187 879h-209l31 145h210l35 168q26 126 111 194t211 68q81 0 141 -22l-57 -140q-35 13 -74 13q-64 0 -104 -33.5t-52 -95.5l-32 -152h626zM1139 1423q48 0 82 -33.5t34 -82.5t-34.5 -84t-81.5 -35
q-50 0 -85.5 35t-35.5 84t35.5 82.5t85.5 33.5z" />
    <glyph glyph-name="f_j" unicode="fj" horiz-adv-x="1200" 
d="M1188 1024l-256 -1202q-55 -252 -305 -252q-81 0 -158 22l31 138q54 -15 96 -15q136 0 160 129l221 1035h-469l-189 -879h-178l187 879h-209l31 145h210l35 168q26 126 111 194t211 68q81 0 141 -22l-57 -140q-35 13 -74 13q-64 0 -104 -33.5t-52 -95.5l-32 -152h649z
M1159 1423q50 0 84.5 -33.5t34.5 -82.5t-35 -84t-84 -35q-50 0 -85.5 35t-35.5 84t35.5 82.5t85.5 33.5z" />
    <glyph glyph-name=".notdef" horiz-adv-x="1775" 
d="M1669 717q0 -151 -58 -287.5t-156.5 -235t-235 -156.5t-287.5 -58q-152 0 -289 59t-235 158.5t-155.5 235.5t-57.5 284q0 150 58 286.5t157 235.5t235.5 157t286.5 58q153 0 290 -59t235 -158t155 -235t57 -285zM547 1092v-93h90v-262h94v262h90v93h-274zM1042 1092v-93
h93v-262h92v262h92v93h-277zM932 166q146 0 271 71t199.5 193t78.5 266l-95 17q0 -123 -60.5 -227.5t-165 -165t-228.5 -60.5q-188 0 -320.5 133t-132.5 320l-94 -17q4 -144 78.5 -266t199 -193t269.5 -71z" />
    <glyph glyph-name=".null" horiz-adv-x="0" 
 />
    <glyph glyph-name="nonmarkingreturn" horiz-adv-x="682" 
 />
    <glyph glyph-name="space" unicode=" " horiz-adv-x="552" 
 />
    <glyph glyph-name="exclam" unicode="!" horiz-adv-x="544" 
d="M375 1434h188l-250 -1037h-127zM190 -10q-51 0 -87.5 35.5t-36.5 85.5q0 52 36 87t88 35q50 0 85.5 -35t35.5 -87q0 -49 -35.5 -85t-85.5 -36z" />
    <glyph glyph-name="quotedbl" unicode="&#x22;" horiz-adv-x="727" 
d="M420 1202l-94 -291h-86l30 320q3 49 8.5 83.5t18.5 66t37.5 47.5t60.5 16q33 0 52.5 -18.5t19.5 -53.5q0 -5 -1 -11.5t-3 -16t-4.5 -18t-7 -24t-8.5 -27.5t-11 -34t-12 -39zM752 1202l-95 -291h-88l31 320q3 49 8.5 83.5t18.5 66t37.5 47.5t60.5 16q34 0 54 -18.5
t20 -53.5q0 -5 -1 -11.5t-3 -16t-4.5 -18t-7 -24t-8.5 -27.5t-11 -34t-12 -39z" />
    <glyph glyph-name="numbersign" unicode="#" horiz-adv-x="1425" 
d="M1411 823h-229l-146 -338h191l-31 -145h-221l-148 -340h-163l147 340h-408l-147 -340h-162l148 340h-197l31 145h227l146 338h-189l31 146h221l147 342h162l-147 -342h407l148 342h164l-148 -342h197zM872 485l146 338h-408l-145 -338h407z" />
    <glyph glyph-name="dollar" unicode="$" horiz-adv-x="1185" 
d="M1135 958h-177q8 83 -27.5 138.5t-117.5 72.5l-92 -436l33 -12q260 -99 260 -313q0 -183 -122.5 -297.5t-330.5 -128.5l-35 -166h-149l37 170q-168 22 -251 124.5t-57 268.5h189q-10 -99 28.5 -160t122.5 -78l99 469l-35 15q-246 95 -246 286q0 167 121 283t313 135
l35 166h150l-37 -170q155 -22 234.5 -121t54.5 -246zM457 942q0 -50 31 -86t96 -68l80 377q-90 -20 -148.5 -82t-58.5 -141zM819 381q0 110 -135 174l-88 -416q102 19 162.5 84t60.5 158z" />
    <glyph glyph-name="percent" unicode="%" horiz-adv-x="1781" 
d="M561 711q-128 0 -219.5 91t-91.5 218q0 128 92 219.5t219 91.5q126 0 217.5 -92t91.5 -219t-91.5 -218t-217.5 -91zM1608 1311l-1170 -1311h-209l1172 1311h207zM559 858q72 0 118 45.5t46 116.5t-46 117.5t-118 46.5q-69 0 -114.5 -46.5t-45.5 -117.5q0 -70 45.5 -116
t114.5 -46zM1284 -20q-128 0 -219.5 92t-91.5 219t91.5 218t219.5 91q127 0 219 -91t92 -218t-92.5 -219t-218.5 -92zM1282 127q72 0 118 46.5t46 117.5t-46 116.5t-118 45.5q-68 0 -114 -46t-46 -116t46 -117t114 -47z" />
    <glyph glyph-name="ampersand" unicode="&#x26;" horiz-adv-x="1415" 
d="M1333 690l-327 -362l237 -328h-201l-149 209q-108 -108 -219 -168.5t-250 -60.5q-143 0 -238.5 78.5t-95.5 199.5q0 51 14.5 100t35 86.5t54 75.5t61 63t67.5 53t61.5 41t54.5 32l64 39q-43 56 -69.5 96t-50.5 102t-24 119q0 164 123.5 276.5t306.5 112.5
q146 0 245.5 -79.5t99.5 -205.5q0 -57 -24.5 -112.5t-54.5 -93t-84 -82t-82.5 -63.5t-80.5 -52l-80 -51l191 -264l221 239h194zM641 836l2 -2l72 45q35 21 60 37t63.5 46t63 57.5t43 64.5t18.5 73q0 71 -54 111.5t-133 40.5q-107 0 -177.5 -69t-70.5 -171q0 -38 18.5 -81
t35.5 -69t59 -83zM446 131q96 0 182.5 51t176.5 148l-215 299l-68 -43q-107 -66 -151 -107q-99 -91 -99 -190q0 -69 47 -113.5t127 -44.5z" />
    <glyph glyph-name="quotesingle" unicode="'" horiz-adv-x="395" 
d="M420 1202l-94 -291h-86l30 320q3 49 8.5 83.5t18.5 66t37.5 47.5t60.5 16q33 0 52.5 -18.5t19.5 -53.5q0 -5 -1 -11.5t-3 -16t-4.5 -18t-7 -24t-8.5 -27.5t-11 -34t-12 -39z" />
    <glyph glyph-name="parenleft" unicode="(" horiz-adv-x="630" 
d="M795 1538q-101 -102 -192 -240t-163.5 -299.5t-115.5 -348t-43 -365.5q0 -314 133 -549l-117 -82q-79 114 -125.5 280.5t-46.5 356.5q0 355 154.5 716.5t408.5 610.5z" />
    <glyph glyph-name="parenright" unicode=")" horiz-adv-x="630" 
d="M-111 -266q101 102 192 240t163.5 299.5t115.5 348t43 365.5q0 312 -131 549l117 82q78 -114 124 -281t46 -356q0 -356 -154 -717t-409 -610z" />
    <glyph glyph-name="asterisk" unicode="*" horiz-adv-x="911" 
d="M903 1212l-217 -116l217 -117l-59 -105l-211 130l6 -246h-119l6 243l-211 -127l-59 105l217 117l-217 116l59 105l211 -129l-6 246h119l-6 -246l211 129z" />
    <glyph glyph-name="plus" unicode="+" 
d="M1053 647l-33 -147h-375l-80 -377h-159l79 377h-376l32 147h377l80 377h160l-80 -377h375z" />
    <glyph glyph-name="comma" unicode="," horiz-adv-x="507" 
d="M176 229q54 0 86.5 -33t32.5 -90q0 -99 -77 -201.5t-200 -170.5l-38 63q134 95 155 193q-41 2 -66.5 28.5t-25.5 71.5q0 61 37 100t96 39z" />
    <glyph glyph-name="hyphen" unicode="-" horiz-adv-x="913" 
d="M125 715h752l-33 -156h-752z" />
    <glyph glyph-name="period" unicode="." horiz-adv-x="493" 
d="M164 -10q-51 0 -88 36t-37 85q0 52 36.5 87t88.5 35q50 0 85.5 -35t35.5 -87q0 -49 -35.5 -85t-85.5 -36z" />
    <glyph glyph-name="slash" unicode="/" horiz-adv-x="1015" 
d="M1180 1536l-1082 -1638h-176l1084 1638h174z" />
    <glyph glyph-name="zero" unicode="0" horiz-adv-x="1257" 
d="M524 -20q-174 0 -275.5 116t-101.5 359q0 134 32 264t91.5 240t139 194.5t181 132t210.5 47.5q171 0 272 -116.5t101 -344.5q0 -140 -31.5 -274t-90.5 -245t-138 -195t-179.5 -131t-210.5 -47zM547 137q111 0 212.5 106t162.5 275.5t61 349.5q0 156 -55.5 232t-149.5 76
q-112 0 -214 -106t-163 -275.5t-61 -350.5q0 -157 56 -232t151 -75z" />
    <glyph glyph-name="one" unicode="1" horiz-adv-x="757" 
d="M285 0l198 934h-258l33 147h121q73 0 123 44t65 116l17 70h166l-279 -1311h-186z" />
    <glyph glyph-name="two" unicode="2" 
d="M526 432q-200 -119 -250 -276h635l-32 -156h-852l14 72q32 152 135.5 276t245.5 209l227 137q115 69 162 111q100 90 100 192q0 80 -49 129.5t-133 49.5q-62 0 -118 -23.5t-95 -62t-66 -82t-40 -88.5h-187q22 83 65.5 155t107.5 131t155 93t197 34q160 0 256 -87t96 -236
q0 -49 -15 -96.5t-37 -84.5t-55 -74t-60 -61t-62 -49t-51.5 -35t-37.5 -22z" />
    <glyph glyph-name="three" unicode="3" horiz-adv-x="1173" 
d="M846 676q77 -26 121.5 -94t44.5 -162q0 -184 -150.5 -312t-380.5 -128q-197 0 -299.5 103t-79.5 279h177q-7 -99 45.5 -164t171.5 -65q135 0 231 83.5t96 199.5q0 84 -57 133t-160 49h-121l31 145h111q117 0 199.5 80t82.5 189q0 81 -50.5 126.5t-137.5 45.5
q-94 0 -171 -53.5t-116 -151.5h-182q43 161 179.5 257.5t305.5 96.5q156 0 257.5 -81.5t101.5 -219.5q0 -120 -72.5 -210t-177.5 -136v-10z" />
    <glyph glyph-name="four" unicode="4" horiz-adv-x="1171" 
d="M1075 440l-31 -141h-227l-63 -299h-172l63 299h-608l18 90l776 922h201l-184 -871h227zM285 440h389l135 625h-14z" />
    <glyph glyph-name="five" unicode="5" horiz-adv-x="1165" 
d="M672 840q159 0 251.5 -94t92.5 -252q0 -141 -69.5 -258t-195.5 -186.5t-282 -69.5q-193 0 -292 107.5t-73 283.5h175q-13 -114 43 -179t165 -65q144 0 243 103t99 249q0 102 -54.5 161.5t-153.5 59.5q-82 0 -158.5 -38t-128.5 -105l-154 35l223 719h732l-31 -154h-576
l-131 -409q119 92 275 92z" />
    <glyph glyph-name="six" unicode="6" horiz-adv-x="1112" 
d="M651 827q151 0 244.5 -92t93.5 -246q0 -135 -68.5 -251.5t-191 -187t-270.5 -70.5q-170 0 -274.5 96t-104.5 256q0 66 20 136t45 122t66 112t65 90t60 72l381 447h229l-459 -514q77 30 164 30zM473 131q133 0 233.5 104.5t100.5 241.5q0 95 -55 153t-154 58
q-136 0 -234 -101t-98 -237q0 -98 55 -158.5t152 -60.5z" />
    <glyph glyph-name="seven" unicode="7" horiz-adv-x="1091" 
d="M305 1311h875l-21 -105q-140 -129 -246 -249t-202.5 -265t-172 -316t-132.5 -376h-187q58 202 128 370t154.5 306t172.5 248t200 223v8h-602z" />
    <glyph glyph-name="eight" unicode="8" horiz-adv-x="1177" 
d="M848 694q72 -31 119 -103.5t47 -174.5q0 -183 -147.5 -309.5t-368.5 -126.5q-183 0 -292.5 87t-109.5 226q0 129 90.5 242.5t225.5 158.5v11q-60 28 -96.5 85.5t-36.5 141.5q0 166 136.5 283.5t332.5 117.5q156 0 255 -78.5t99 -210.5q0 -118 -76 -208.5t-178 -130.5v-11
zM737 1198q-114 0 -195 -78t-81 -182q0 -81 51.5 -125.5t130.5 -44.5q113 0 194 78.5t81 185.5q0 78 -50 122t-131 44zM508 121q132 0 225.5 90t93.5 211q0 87 -55.5 140.5t-157.5 53.5q-134 0 -229.5 -88.5t-95.5 -210.5q0 -94 61 -145t158 -51z" />
    <glyph glyph-name="nine" unicode="9" horiz-adv-x="1112" 
d="M715 1331q170 0 274.5 -96t104.5 -256q0 -81 -26 -163t-73 -157t-79 -117t-78 -96l-381 -446h-230l459 514q-79 -31 -164 -31q-152 0 -245 92t-93 246q0 101 41 194.5t110.5 163t169 111t210.5 41.5zM575 623q136 0 234 101t98 237q0 98 -55 158.5t-152 60.5
q-133 0 -233 -104.5t-100 -241.5q0 -95 54 -153t154 -58z" />
    <glyph glyph-name="colon" unicode=":" horiz-adv-x="493" 
d="M334 791q-51 0 -88 35.5t-37 84.5q0 52 36.5 87.5t88.5 35.5q50 0 85.5 -35.5t35.5 -87.5q0 -49 -35.5 -84.5t-85.5 -35.5zM164 -10q-51 0 -88 36t-37 85q0 52 36.5 87t88.5 35q50 0 85.5 -35t35.5 -87q0 -49 -35.5 -85t-85.5 -36z" />
    <glyph glyph-name="semicolon" unicode=";" horiz-adv-x="507" 
d="M344 791q-50 0 -86.5 35.5t-36.5 84.5q0 52 36.5 87.5t86.5 35.5q51 0 86 -35.5t35 -87.5q0 -50 -35 -85t-86 -35zM176 229q54 0 86.5 -33t32.5 -90q0 -99 -77 -201.5t-200 -170.5l-38 63q134 95 155 193q-41 2 -66.5 28.5t-25.5 71.5q0 61 37 100t96 39z" />
    <glyph glyph-name="less" unicode="&#x3c;" horiz-adv-x="1136" 
d="M860 33l-690 461l39 186l887 461l-43 -199l-684 -362v-11l528 -358z" />
    <glyph glyph-name="equal" unicode="=" 
d="M193 877h901l-31 -154h-903zM96 424h903l-32 -152h-901z" />
    <glyph glyph-name="greater" unicode="&#x3e;" 
d="M307 1141l690 -461l-39 -186l-886 -461l43 198l684 363v10l-529 359z" />
    <glyph glyph-name="question" unicode="?" horiz-adv-x="940" 
d="M319 498q27 126 80 210.5t172 163.5q59 40 92.5 65.5t68 61t49 72t14.5 80.5q0 71 -42 109t-124 38q-100 0 -162 -61.5t-90 -149.5h-174q13 52 34.5 100t58.5 98t84 86.5t115.5 59.5t149.5 23q149 0 235.5 -75t86.5 -203q0 -59 -18 -112t-44 -91t-65.5 -74.5t-72 -60.5
t-72.5 -51q-7 -5 -11 -7q-93 -62 -137 -131t-64 -164l-20 -88h-164zM326 -10q-51 0 -88 36t-37 85q0 52 36.5 87t88.5 35q50 0 85 -35t35 -87q0 -50 -35.5 -85.5t-84.5 -35.5z" />
    <glyph glyph-name="at" unicode="@" horiz-adv-x="2074" 
d="M1214 1454q217 0 387.5 -84.5t267.5 -243.5t97 -366q0 -211 -63.5 -382t-176.5 -268.5t-253 -97.5q-107 0 -177.5 46.5t-70.5 127.5q-55 -74 -139.5 -124t-200.5 -50q-143 0 -242.5 103t-99.5 266q0 160 72.5 302t193.5 227t256 85q96 0 167.5 -40.5t94.5 -112.5h14
l48 139h139l-142 -662q-18 -81 15 -122t102 -41q80 0 151 80.5t112.5 216t41.5 290.5q0 265 -165 415.5t-447 150.5q-175 0 -345 -84t-296.5 -221t-204.5 -321t-78 -374q0 -180 82 -316.5t222 -207t317 -70.5q239 0 444 117l54 -123q-237 -139 -512 -139q-157 0 -296 50
t-243.5 141t-165.5 226.5t-61 297.5q0 229 89 444.5t237 374t352 254.5t423 96zM926 168q92 0 174.5 60t132 160t49.5 210q0 109 -59 174.5t-154 65.5q-92 0 -174.5 -59.5t-132 -160t-49.5 -212.5q0 -109 59 -173.5t154 -64.5z" />
    <glyph glyph-name="A" unicode="A" horiz-adv-x="1335" 
d="M981 0l-49 391h-565l-215 -391h-207l805 1434h229l195 -1434h-193zM453 551h458l-82 663h-12z" />
    <glyph glyph-name="B" unicode="B" horiz-adv-x="1257" 
d="M952 748q174 -78 174 -293q0 -201 -139.5 -328t-372.5 -127h-544l305 1434h502q173 0 265.5 -80t92.5 -217q0 -129 -79 -229.5t-204 -149.5v-10zM524 1280l-98 -465h317q126 0 211.5 80.5t85.5 200.5q0 88 -51.5 136t-140.5 48h-324zM614 154q143 0 233.5 83t90.5 209
q0 97 -58.5 156.5t-158.5 59.5h-328l-108 -508h329z" />
    <glyph glyph-name="C" unicode="C" horiz-adv-x="1548" 
d="M1425 436q-83 -208 -267.5 -332t-424.5 -124q-262 0 -415.5 154.5t-153.5 418.5q0 175 67 340.5t179.5 288.5t269.5 197.5t328 74.5q149 0 266 -54.5t184.5 -162t63.5 -252.5h-191q-8 135 -100 216t-240 81q-163 0 -310 -100t-235 -265t-88 -346q0 -194 103.5 -306.5
t286.5 -112.5q154 0 278.5 77.5t194.5 206.5h204z" />
    <glyph glyph-name="D" unicode="D" horiz-adv-x="1454" 
d="M801 1434q281 0 427 -142t146 -413q0 -144 -38.5 -276.5t-113 -241.5t-176.5 -190t-235.5 -126t-284.5 -45h-456l305 1434h426zM539 168q187 0 335.5 95.5t228 254t79.5 348.5q0 105 -29 182.5t-70.5 118t-102 64.5t-106.5 29.5t-102 5.5h-248l-233 -1098h248z" />
    <glyph glyph-name="E" unicode="E" horiz-adv-x="1200" 
d="M287 166h743l-35 -166h-925l305 1434h905l-35 -166h-723l-98 -459h635l-35 -162h-635z" />
    <glyph glyph-name="F" unicode="F" horiz-adv-x="1136" 
d="M1217 1262h-693l-100 -474h602l-35 -163h-602l-133 -625h-186l305 1434h878z" />
    <glyph glyph-name="G" unicode="G" horiz-adv-x="1617" 
d="M858 745h631l-160 -745h-147l12 166h-14q-29 -25 -53 -44t-71.5 -48t-94.5 -47.5t-114.5 -32.5t-139.5 -14q-254 0 -399.5 150.5t-145.5 408.5q0 177 68.5 344.5t184 293t278.5 201.5t341 76q232 0 370.5 -121t135.5 -307h-192q-12 115 -100.5 185.5t-233.5 70.5
q-130 0 -252 -60.5t-211 -160t-143 -232.5t-54 -272q0 -191 101.5 -300.5t292.5 -109.5q113 0 216 37t183.5 118.5t103.5 195.5l21 98h-414v149z" />
    <glyph glyph-name="H" unicode="H" horiz-adv-x="1427" 
d="M1262 1434h184l-305 -1434h-185l136 641h-701l-135 -641h-186l305 1434h186l-133 -625h698z" />
    <glyph glyph-name="I" unicode="I" horiz-adv-x="542" 
d="M561 1434l-305 -1434h-186l305 1434h186z" />
    <glyph glyph-name="J" unicode="J" horiz-adv-x="1101" 
d="M252 412q-20 -112 27 -186t153 -74q105 0 182 71t107 213l213 998h186l-215 -1008q-46 -218 -177 -332t-318 -114q-198 0 -291.5 120t-59.5 312h193z" />
    <glyph glyph-name="K" unicode="K" horiz-adv-x="1275" 
d="M903 0l-399 651h-111l-137 -651h-186l305 1434h186l-131 -615h109l604 615h221l-682 -705v-10l430 -719h-209z" />
    <glyph glyph-name="L" unicode="L" horiz-adv-x="1179" 
d="M289 168h737l-37 -168h-919l305 1434h182z" />
    <glyph glyph-name="M" unicode="M" horiz-adv-x="1798" 
d="M1815 1434l-306 -1434h-182l236 1102h-15l-620 -938h-201l-225 938h-15l-235 -1102h-182l305 1434h227l250 -1076h14l705 1076h244z" />
    <glyph glyph-name="N" unicode="N" horiz-adv-x="1511" 
d="M1348 1434h182l-305 -1434h-181l-540 1118h-15l-237 -1118h-182l305 1434h182l539 -1119h14z" />
    <glyph glyph-name="O" unicode="O" horiz-adv-x="1697" 
d="M760 -20q-266 0 -430 163t-164 426q0 134 44 266t124 242.5t185.5 195.5t236.5 133t268 48q266 0 431 -164.5t165 -427.5q0 -170 -70 -332t-186 -282.5t-275 -194t-329 -73.5zM772 152q127 0 248.5 59.5t210 155.5t142.5 222.5t54 256.5q0 195 -113.5 315.5t-301.5 120.5
q-127 0 -248.5 -59.5t-209.5 -156t-142 -223.5t-54 -257q0 -193 113 -313.5t301 -120.5z" />
    <glyph glyph-name="P" unicode="P" horiz-adv-x="1296" 
d="M879 1434q181 0 287 -95.5t106 -255.5q0 -144 -68 -261t-195.5 -186t-291.5 -69h-346l-121 -567h-180l305 1434h504zM721 733q160 0 259 92t99 230q0 104 -61.5 158.5t-167.5 54.5h-330l-114 -535h315z" />
    <glyph glyph-name="Q" unicode="Q" horiz-adv-x="1697" 
d="M1620 862q0 -196 -89.5 -377.5t-245 -309.5t-343.5 -173q39 -104 205 -104q71 0 149 16v-141q-87 -21 -194 -21q-293 0 -340 228h-2q-266 0 -430 163t-164 426q0 134 44 266t124 242.5t185.5 195.5t236.5 133t268 48q266 0 431 -164.5t165 -427.5zM772 152
q127 0 248.5 59.5t210 155.5t142.5 222.5t54 256.5q0 195 -113.5 315.5t-301.5 120.5q-127 0 -248.5 -59.5t-209.5 -156t-142 -223.5t-54 -257q0 -193 113 -313.5t301 -120.5z" />
    <glyph glyph-name="R" unicode="R" horiz-adv-x="1275" 
d="M1251 1090q0 -168 -109 -295t-294 -168l239 -627h-190l-225 602h-291l-129 -602h-182l305 1434h485q183 0 287 -90t104 -254zM713 764q155 0 251.5 88.5t96.5 218.5q0 98 -63 149.5t-177 51.5h-299l-108 -508h299z" />
    <glyph glyph-name="S" unicode="S" horiz-adv-x="1243" 
d="M1081 436q0 -197 -151 -326.5t-395 -129.5q-220 0 -335 114.5t-87 315.5h182q-11 -129 56 -199t202 -70q148 0 242 78.5t94 198.5q0 25 -5.5 47.5t-12 39.5t-22 33.5t-25.5 27t-34.5 23.5t-35.5 19t-41 17.5t-40 15t-44 14.5l-51 17q-44 15 -80.5 31t-77.5 44.5
t-68.5 61.5t-46 83t-18.5 109q0 122 68 225.5t190.5 165.5t271.5 62q204 0 314 -114.5t81 -290.5h-180q11 107 -46.5 175t-180.5 68q-133 0 -230.5 -79t-97.5 -185q0 -31 8.5 -57.5t27.5 -46.5t37.5 -34.5t49 -28t51 -21t54.5 -19.5q8 -3 12 -4l43 -14q45 -15 80 -29.5
t83.5 -45.5t80 -68t54.5 -95.5t23 -128.5z" />
    <glyph glyph-name="T" unicode="T" horiz-adv-x="1177" 
d="M1292 1434l-35 -168h-415l-269 -1266h-186l270 1266h-415l37 168h1013z" />
    <glyph glyph-name="U" unicode="U" horiz-adv-x="1470" 
d="M1487 1434l-191 -893q-57 -272 -231.5 -416.5t-423.5 -144.5q-123 0 -219 35.5t-159.5 106t-84 175.5t7.5 244l189 893h186l-186 -881q-41 -194 40.5 -297.5t246.5 -103.5q166 0 288.5 103t163.5 298l186 881h187z" />
    <glyph glyph-name="V" unicode="V" horiz-adv-x="1349" 
d="M1280 1434h211l-811 -1434h-229l-201 1434h190l160 -1190h14z" />
    <glyph glyph-name="W" unicode="W" horiz-adv-x="1832" 
d="M1790 1434h184l-624 -1434h-215l-86 1096h-15l-553 -1096h-215l-16 1434h176v-1172h12l541 1069h209l82 -1069h14z" />
    <glyph glyph-name="X" unicode="X" horiz-adv-x="1267" 
d="M901 0l-229 582h-15l-477 -582h-235l614 739l-287 695h207l217 -541h15l450 541h228l-582 -695l299 -739h-205z" />
    <glyph glyph-name="Y" unicode="Y" horiz-adv-x="1327" 
d="M1235 1434h235l-677 -756l-144 -678h-186l145 678l-358 756h215l260 -553h12z" />
    <glyph glyph-name="Z" unicode="Z" horiz-adv-x="1263" 
d="M346 168h703l-37 -168h-985l22 104l959 1151v11h-670l37 168h938l-23 -105l-944 -1151v-10z" />
    <glyph glyph-name="bracketleft" unicode="[" horiz-adv-x="602" 
d="M-4 -346l410 1929h370l-28 -133h-213l-355 -1663h213l-26 -133h-371z" />
    <glyph glyph-name="backslash" unicode="\" horiz-adv-x="991" 
d="M270 1536h150l387 -1638h-152z" />
    <glyph glyph-name="bracketright" unicode="]" horiz-adv-x="602" 
d="M651 1583l-409 -1929h-371l29 133h213l354 1663h-213l27 133h370z" />
    <glyph glyph-name="asciicircum" unicode="^" 
d="M891 737l-148 516h-12l-371 -516h-196l493 697h215l199 -697h-180z" />
    <glyph glyph-name="underscore" unicode="_" horiz-adv-x="1052" 
d="M-27 0h891l-35 -154h-890z" />
    <glyph glyph-name="grave" unicode="`" horiz-adv-x="659" 
d="M532 1434l78 -297h-137l-94 297h153z" />
    <glyph glyph-name="a" unicode="a" horiz-adv-x="1236" 
d="M1022 1024h180l-219 -1024h-147l14 145h-12q-151 -165 -355 -165q-174 0 -279.5 112t-105.5 305q0 170 77.5 319t213.5 238.5t297 89.5q118 0 197 -47.5t108 -115.5zM524 137q80 0 155 39.5t128.5 105t86 153t32.5 179.5q0 129 -62 201t-174 72q-108 0 -202.5 -66
t-149.5 -175t-55 -230q0 -130 64 -204.5t177 -74.5z" />
    <glyph glyph-name="b" unicode="b" horiz-adv-x="1234" 
d="M752 1044q173 0 279 -110t106 -303q0 -127 -45.5 -246.5t-123 -208.5t-187 -142.5t-230.5 -53.5q-118 0 -195.5 49.5t-113.5 115.5h-13l-47 -145h-147l309 1454h178l-121 -565q142 155 351 155zM545 137q108 0 203 66t150.5 175t55.5 230q0 129 -64.5 204t-178.5 75
q-106 0 -199 -66t-147 -175.5t-54 -233.5q0 -130 62 -202.5t172 -72.5z" />
    <glyph glyph-name="c" unicode="c" horiz-adv-x="1175" 
d="M1051 334q-65 -164 -200.5 -259t-320.5 -95q-198 0 -315 115.5t-117 305.5q0 168 83 316t226.5 237.5t309.5 89.5q114 0 205.5 -40t147.5 -125t50 -201h-174q-2 86 -66.5 147.5t-172.5 61.5q-110 0 -209 -67t-158 -176.5t-59 -229.5q0 -127 69.5 -202t198.5 -75
q206 0 315 197h187z" />
    <glyph glyph-name="d" unicode="d" horiz-adv-x="1234" 
d="M1114 1454h178l-309 -1454h-147l14 145h-12q-151 -165 -355 -165q-174 0 -279.5 112.5t-105.5 306.5q0 170 77 318t213 237.5t298 89.5q119 0 195.5 -48.5t109.5 -116.5zM524 137q80 0 155 39.5t128.5 105t86 153t32.5 179.5q0 129 -62 201t-174 72q-108 0 -202.5 -66
t-149.5 -175t-55 -230q0 -130 64 -204.5t177 -74.5z" />
    <glyph glyph-name="e" unicode="e" horiz-adv-x="1169" 
d="M1047 469h-764q-28 -154 38 -248t207 -94q100 0 178.5 44t120.5 128h181q-66 -152 -193 -235.5t-301 -83.5q-187 0 -302.5 111t-115.5 290q0 177 80 330t218 243t300 90q169 0 277 -98t108 -276q0 -110 -32 -201zM682 897q-125 0 -228.5 -87t-140.5 -210h590
q26 132 -34.5 214.5t-186.5 82.5z" />
    <glyph glyph-name="f" unicode="f" horiz-adv-x="729" 
d="M727 1305q-64 0 -104 -33.5t-52 -95.5l-32 -152h239l-30 -145h-240l-189 -879h-178l187 879h-209l31 145h210l35 168q26 126 111 194t211 68q96 0 164 -31l-60 -133q-47 15 -94 15z" />
    <glyph glyph-name="g" unicode="g" horiz-adv-x="1099" 
d="M354 381q-96 -42 -96 -111q0 -37 31.5 -57t91.5 -20h197q149 0 232 -64t83 -186q0 -158 -142 -265.5t-366 -107.5q-112 0 -194.5 28.5t-128 78.5t-65.5 111t-15 132l206 148q-102 48 -102 155q0 71 47.5 129t130.5 94q-65 75 -65 185q0 170 133.5 291.5t322.5 121.5
q138 0 228 -65q51 23 107.5 63t94.5 80l76 -114q-90 -77 -198 -123q30 -59 30 -137q0 -166 -133 -285t-323 -119q-108 0 -183 37zM643 907q-109 0 -188.5 -76t-79.5 -180q0 -76 48.5 -123t133.5 -47q108 0 186 76t78 184q0 77 -47 121.5t-131 44.5zM715 -82q0 38 -16 64.5
t-43 40t-55 19t-60 5.5h-183l-206 -147q5 -85 64 -137t187 -52q132 0 222 60t90 147z" />
    <glyph glyph-name="h" unicode="h" horiz-adv-x="1148" 
d="M737 1044q170 0 253 -106t42 -301l-135 -637h-178l127 604q31 140 -20 211.5t-158 71.5q-112 0 -205 -76.5t-125 -226.5l-125 -584h-178l309 1454h178l-116 -553h12q42 44 79.5 71.5t101 49.5t138.5 22z" />
    <glyph glyph-name="i" unicode="i" horiz-adv-x="464" 
d="M403 1188q-50 0 -85 35t-35 84t35 82.5t85 33.5q48 0 82.5 -33.5t34.5 -82.5t-34.5 -84t-82.5 -35zM430 1024l-217 -1024h-178l217 1024h178z" />
    <glyph glyph-name="j" unicode="j" horiz-adv-x="466" 
d="M403 1188q-50 0 -85 35t-35 84t35 82.5t85 33.5q48 0 82.5 -33.5t34.5 -82.5t-34.5 -84t-82.5 -35zM-258 -270q58 -15 98 -15q132 0 160 129l252 1180h178l-254 -1202q-55 -252 -305 -252q-81 0 -158 22z" />
    <glyph glyph-name="k" unicode="k" horiz-adv-x="1046" 
d="M1112 1024l-506 -414l289 -610h-186l-242 498l-178 -146l-76 -352h-178l309 1454h178l-180 -858h14l533 428h223z" />
    <glyph glyph-name="l" unicode="l" horiz-adv-x="464" 
d="M344 1454h178l-309 -1454h-178z" />
    <glyph glyph-name="m" unicode="m" horiz-adv-x="1697" 
d="M1321 1044q156 0 231.5 -93.5t38.5 -268.5l-145 -682h-180l139 651q25 115 -22 175.5t-136 60.5q-100 0 -179.5 -73t-104.5 -189l-134 -625h-180l135 637q26 120 -19.5 185t-133.5 65q-89 0 -173 -67.5t-110 -190.5l-135 -629h-178l217 1024h162l-8 -123h12
q128 143 297 143q116 0 176.5 -54t75.5 -126h10q55 77 141 128.5t203 51.5z" />
    <glyph glyph-name="n" unicode="n" horiz-adv-x="1148" 
d="M737 1044q170 0 253 -106t42 -301l-135 -637h-178l127 604q31 140 -20 211.5t-158 71.5q-112 0 -205 -76.5t-125 -226.5l-125 -584h-178l217 1024h162l-8 -123h12q42 44 79.5 71.5t101 49.5t138.5 22z" />
    <glyph glyph-name="o" unicode="o" horiz-adv-x="1255" 
d="M535 -20q-195 0 -315 120t-120 314q0 164 84 309t228.5 233t310.5 88q194 0 313 -119.5t119 -312.5q0 -164 -83.5 -309.5t-227.5 -234t-309 -88.5zM547 137q110 0 209.5 65.5t159 173t59.5 226.5q0 125 -71.5 205t-194.5 80q-110 0 -208.5 -65t-157 -172t-58.5 -226
q0 -128 69.5 -207.5t192.5 -79.5z" />
    <glyph glyph-name="p" unicode="p" horiz-adv-x="1234" 
d="M752 1044q175 0 280 -112t105 -307q0 -170 -76.5 -318t-212.5 -237.5t-299 -89.5q-118 0 -195 49t-110 116l-119 -555h-178l305 1434h147l-14 -145h14q144 165 353 165zM545 137q108 0 203 66t150.5 175t55.5 230q0 130 -65 204.5t-178 74.5q-80 0 -155 -39.5
t-128.5 -105t-86 -153t-32.5 -179.5q0 -129 62.5 -201t173.5 -72z" />
    <glyph glyph-name="q" unicode="q" horiz-adv-x="1234" 
d="M1053 1024h147l-305 -1434h-178l117 545q-58 -65 -147 -110t-204 -45q-173 0 -279 110t-106 303q0 127 46 246.5t124 208.5t187.5 142.5t230.5 53.5q117 0 195 -50t112 -115h15zM524 137q107 0 199.5 66t146.5 175.5t54 233.5q0 130 -62 202.5t-172 72.5q-108 0 -203 -66
t-150.5 -175t-55.5 -230q0 -129 64.5 -204t178.5 -75z" />
    <glyph glyph-name="r" unicode="r" horiz-adv-x="729" 
d="M731 1044h70l-37 -180q-31 4 -92 4q-127 0 -220 -92t-124 -239l-115 -537h-178l217 1024h162l-13 -141h15q64 81 134 121t181 40z" />
    <glyph glyph-name="s" unicode="s" horiz-adv-x="983" 
d="M827 326q0 -159 -113 -252.5t-304 -93.5t-280 90.5t-67 240.5h173q-11 -100 41 -145t147 -45q97 0 161 48t64 126q0 32 -14 57.5t-41 43.5t-52 29.5t-61 23.5l-51 16q-246 72 -246 242q0 147 114.5 242t285.5 95q90 0 157 -25t103.5 -67t51 -93t7.5 -107h-172
q8 68 -35.5 109.5t-124.5 41.5q-88 0 -149.5 -49.5t-61.5 -122.5q0 -12 2.5 -22.5t6 -19t11 -16.5t13 -13.5t17.5 -12.5t18.5 -10.5t22.5 -9.5t23 -9t25 -9.5t25 -8.5l41 -12q54 -17 97 -38t82.5 -51.5t61 -74.5t21.5 -98z" />
    <glyph glyph-name="t" unicode="t" horiz-adv-x="733" 
d="M803 1024l-33 -145h-254l-131 -623q-28 -129 100 -129q52 0 105 16l-29 -141q-86 -22 -143 -22q-51 0 -91 10.5t-65 29t-41.5 42t-22.5 52.5t-6 57.5t7 59.5l137 648h-217l31 145h69q88 0 132.5 32.5t64.5 119.5l26 127h164l-59 -279h256z" />
    <glyph glyph-name="u" unicode="u" horiz-adv-x="1148" 
d="M412 -20q-170 0 -253 106t-42 301l135 637h178l-127 -604q-31 -140 20 -211.5t158 -71.5q113 0 205.5 76t124.5 227l125 584h178l-217 -1024h-162l8 123h-12q-42 -44 -79.5 -71.5t-101 -49.5t-138.5 -22z" />
    <glyph glyph-name="v" unicode="v" horiz-adv-x="1087" 
d="M961 1024h192l-606 -1024h-223l-172 1024h180l131 -838h12z" />
    <glyph glyph-name="w" unicode="w" horiz-adv-x="1474" 
d="M1364 1024h178l-479 -1024h-209l-57 752h-15l-383 -752h-206l-41 1024h161l19 -817h14l377 743h199l61 -743h14z" />
    <glyph glyph-name="x" unicode="x" horiz-adv-x="1021" 
d="M674 0l-170 391h-15l-339 -391h-216l469 530l-223 494h195l153 -352h15l299 352h213l-424 -494l239 -530h-196z" />
    <glyph glyph-name="y" unicode="y" horiz-adv-x="1087" 
d="M1153 1024l-682 -1184q-18 -31 -23.5 -41t-30 -46t-42.5 -54t-52.5 -47t-68 -43.5t-81.5 -26.5t-101 -12q-75 0 -152 22l29 138q66 -15 106 -15q149 0 244 152l82 133h-53l-176 1024h178l137 -838h14l475 838h197z" />
    <glyph glyph-name="z" unicode="z" horiz-adv-x="985" 
d="M287 143h510l-31 -143h-768l20 90l674 780v11h-475l31 143h729l-21 -90l-669 -780v-11z" />
    <glyph glyph-name="braceleft" unicode="{" horiz-adv-x="577" 
d="M430 846q-34 -155 -182 -221v-13q50 -28 77 -82.5t9 -138.5l-103 -475q-13 -66 12 -97.5t79 -31.5h47l-29 -133h-66q-121 0 -173 63.5t-27 182.5l102 477q18 84 -8 128.5t-102 51.5l24 123q82 7 127 50.5t64 129.5l100 477q51 246 281 246h90l-31 -133h-47
q-53 0 -92 -32.5t-52 -98.5z" />
    <glyph glyph-name="bar" unicode="|" horiz-adv-x="526" 
d="M573 1577l-395 -1864h-168l396 1864h167z" />
    <glyph glyph-name="braceright" unicode="}" horiz-adv-x="577" 
d="M193 391q34 155 182 221v13q-50 28 -77 82.5t-9 138.5l102 475q25 129 -90 129h-47l29 133h65q121 0 173.5 -63.5t27.5 -182.5l-103 -477q-18 -84 8.5 -128.5t102.5 -51.5l-25 -123q-82 -7 -126.5 -50.5t-63.5 -129.5l-100 -477q-51 -246 -281 -246h-90l31 133h47
q53 0 91.5 32.5t51.5 98.5z" />
    <glyph glyph-name="asciitilde" unicode="~" 
d="M1135 731q-21 -69 -52 -127.5t-74 -107t-102 -76t-127 -27.5q-49 0 -90 12t-68.5 31t-51.5 41.5t-44.5 45.5t-41.5 42t-48 31t-59 12q-72 0 -123 -53.5t-78 -136.5h-147q22 69 53 127.5t74 107t101.5 76t125.5 27.5q57 0 103 -16t74 -40t55.5 -51.5t49 -51.5t52.5 -40
t67 -16q74 0 125.5 54t77.5 136h148z" />
    <glyph glyph-name="uni00A0" unicode="&#xa0;" horiz-adv-x="512" 
 />
    <glyph glyph-name="exclamdown" unicode="&#xa1;" horiz-adv-x="544" 
d="M358 1034q51 0 87 -35.5t36 -85.5q0 -52 -36 -87t-87 -35q-50 0 -85 35t-35 87q0 50 35.5 85.5t84.5 35.5zM172 -410h-186l250 1037h126z" />
    <glyph glyph-name="cent" unicode="&#xa2;" horiz-adv-x="1091" 
d="M915 817q0 70 -47.5 126t-128.5 69l-149 -703q162 20 250 183h178q-60 -148 -179.5 -237.5t-281.5 -98.5l-33 -154h-151l35 166q-138 31 -216.5 134.5t-78.5 254.5q0 145 66.5 276.5t182.5 219t256 108.5l33 152h152l-33 -150q142 -20 230.5 -109.5t82.5 -236.5h-168z
M285 567q0 -93 39.5 -157.5t115.5 -90.5l144 678q-127 -42 -213 -164t-86 -266z" />
    <glyph glyph-name="sterling" unicode="&#xa3;" horiz-adv-x="1243" 
d="M821 1171q-137 0 -229 -77t-92 -191q0 -27 8.5 -58t16 -48.5t27.5 -56t26 -50.5h419l-28 -135h-353q2 -10 2 -29q0 -105 -67.5 -200.5t-188.5 -165.5v-10h662l-31 -150h-966l22 113q59 18 120.5 52t119.5 83t94.5 116.5t36.5 141.5q0 17 -4 49h-273l29 135h195
q-21 45 -31 68.5t-20.5 64.5t-10.5 78q0 186 148 308t374 122q152 0 258.5 -66t139.5 -161l-150 -98q-28 73 -90 119t-164 46z" />
    <glyph glyph-name="currency" unicode="&#xa4;" horiz-adv-x="1271" 
d="M1051 764q41 -74 41 -168q0 -187 -142 -346l125 -154l-137 -110l-123 155q-124 -73 -264 -73q-142 0 -242 84l-203 -166l-86 110l201 164q-41 77 -41 170q0 190 139 342l-122 156l133 110l127 -155q121 73 264 73q141 0 242 -82l200 164l90 -110zM350 455
q0 -95 63 -159.5t165 -64.5q129 0 235.5 105.5t106.5 232.5q0 94 -62.5 159t-161.5 65q-132 0 -239 -104.5t-107 -233.5z" />
    <glyph glyph-name="yen" unicode="&#xa5;" horiz-adv-x="1210" 
d="M1325 1311l-457 -496h275l-31 -145h-375l-47 -213h377l-31 -146h-377l-65 -311h-195l66 311h-375l29 146h377l47 213h-377l31 145h274l-248 496h203l231 -465h15l428 465h225z" />
    <glyph glyph-name="brokenbar" unicode="&#xa6;" horiz-adv-x="526" 
d="M406 1577h167l-153 -727h-168zM10 -287l154 727h168l-154 -727h-168z" />
    <glyph glyph-name="section" unicode="&#xa7;" horiz-adv-x="1241" 
d="M797 197q72 -30 116.5 -86t44.5 -134q0 -177 -150 -292t-382 -115q-91 0 -166 21t-123.5 58t-80 86.5t-36.5 106.5t7 119h174q-18 -99 45.5 -167t202.5 -68q141 0 234 66.5t93 166.5q0 30 -11.5 54.5t-35.5 41.5t-47 29t-61.5 21.5t-63 14t-65.5 11.5
q-170 27 -266.5 107.5t-96.5 205.5q0 126 84.5 225.5t230.5 149.5v8q-71 30 -115 86.5t-44 135.5q0 116 68.5 209t190 144.5t273.5 51.5q91 0 165.5 -21t123.5 -57.5t81 -86t37 -107t-7 -119.5h-175q18 99 -45 167t-202 68q-140 0 -234 -66t-94 -167q0 -26 10 -48.5
t24.5 -37.5t40.5 -28.5t46.5 -21t55 -15t54 -11t54.5 -8.5q169 -27 266.5 -108.5t97.5 -206.5q0 -128 -85.5 -226.5t-231.5 -146.5zM590 276q138 0 239 81.5t101 191.5q0 90 -82.5 144.5t-194.5 54.5q-137 0 -238.5 -81.5t-101.5 -191.5q0 -90 82.5 -144.5t194.5 -54.5z" />
    <glyph glyph-name="dieresis" unicode="&#xa8;" horiz-adv-x="960" 
d="M453 1143q-46 0 -79.5 33t-33.5 79q0 47 33.5 80t79.5 33t78 -33t32 -80q0 -46 -32 -79t-78 -33zM827 1143q-46 0 -79 33t-33 79q0 47 33 80t79 33t78.5 -33t32.5 -80q0 -46 -32.5 -79t-78.5 -33z" />
    <glyph glyph-name="copyright" unicode="&#xa9;" horiz-adv-x="1775" 
d="M932 -20q-200 0 -369.5 97.5t-268.5 267.5t-99 372t99 372t268.5 267.5t369.5 97.5q149 0 285 -57.5t235 -156t158 -235.5t59 -288t-59 -288t-158 -235.5t-235 -156t-285 -57.5zM930 98q124 0 238 49.5t197 132.5t132 197.5t49 239.5q0 167 -83 309.5t-225 225.5t-308 83
q-165 0 -306.5 -83t-224 -225.5t-82.5 -309.5q0 -125 49 -239.5t131 -197.5t195.5 -132.5t237.5 -49.5zM1239 586q-13 -113 -99 -176.5t-204 -63.5q-155 0 -245.5 101t-90.5 268q0 163 93 265.5t239 102.5q119 0 200 -61t97 -184h-142q-31 120 -155 120q-84 0 -135.5 -68.5
t-51.5 -176.5q0 -112 52.5 -177t140.5 -65q62 0 105 32t55 83h141z" />
    <glyph glyph-name="guillemotleft" unicode="&#xab;" horiz-adv-x="1101" 
d="M252 197l-180 413l356 414h207l-367 -422l176 -405h-192zM717 197l-180 413l356 414h207l-369 -422l178 -405h-192z" />
    <glyph glyph-name="logicalnot" unicode="&#xac;" horiz-adv-x="1136" 
d="M956 297h-157l84 397h-733l30 144h891z" />
    <glyph glyph-name="uni00AD" unicode="&#xad;" horiz-adv-x="913" 
d="M125 715h752l-33 -156h-752z" />
    <glyph glyph-name="registered" unicode="&#xae;" horiz-adv-x="1775" 
d="M932 1454q149 0 285 -57.5t235 -156t158 -235.5t59 -288t-59 -288t-158 -235.5t-235 -156t-285 -57.5q-200 0 -369.5 97.5t-268.5 267.5t-99 372t99 372t268.5 267.5t369.5 97.5zM930 98q124 0 238 49.5t197 132.5t132 197.5t49 239.5q0 167 -83 309.5t-225 225.5
t-308 83q-165 0 -306.5 -83t-224 -225.5t-82.5 -309.5q0 -125 49 -239.5t131 -197.5t195.5 -132.5t237.5 -49.5zM1186 860q0 -68 -35.5 -119.5t-97.5 -76.5l170 -306h-142l-153 279h-107v-279h-129v717h271q104 0 163.5 -58t59.5 -157zM821 963v-213h119q54 0 84.5 30
t30.5 78t-30 76.5t-85 28.5h-119z" />
    <glyph glyph-name="macron" unicode="&#xaf;" horiz-adv-x="974" 
d="M350 1321h619l-29 -131h-616z" />
    <glyph glyph-name="degree" unicode="&#xb0;" horiz-adv-x="880" 
d="M571 805q-133 0 -229 94.5t-96 228.5q0 136 96 231t229 95t230.5 -95.5t97.5 -230.5q0 -134 -97.5 -228.5t-230.5 -94.5zM571 942q82 0 134.5 53t52.5 133q0 82 -52 134.5t-135 52.5q-80 0 -133 -53t-53 -134q0 -80 53.5 -133t132.5 -53z" />
    <glyph glyph-name="plusminus" unicode="&#xb1;" 
d="M709 786h366l-31 -141h-366l-76 -358h-162l76 358h-366l30 141h367l76 357h161zM12 0l31 150h895l-31 -150h-895z" />
    <glyph glyph-name="uni00B2" unicode="&#xb2;" horiz-adv-x="796" 
d="M508 965q-108 -68 -117 -160h395v-107h-544v47q0 182 174 297l125 78q28 18 42 29t34.5 30.5t30 42t9.5 48.5q0 53 -36.5 86t-94.5 33q-68 0 -107.5 -44.5t-41.5 -99.5h-133q5 99 80.5 175.5t207.5 76.5q115 0 185.5 -60t70.5 -161q0 -38 -12 -72t-24.5 -54.5
t-38.5 -43.5t-35.5 -30t-34.5 -23z" />
    <glyph glyph-name="uni00B3" unicode="&#xb3;" horiz-adv-x="794" 
d="M668 1102q63 -21 100 -70t37 -117q0 -99 -83 -164t-214 -65q-126 0 -200 63t-83 173h127q10 -59 48.5 -93t107.5 -34q72 0 118 35t46 92t-42 93t-112 36h-80v98h74q61 0 99 32.5t38 88.5q0 55 -38.5 88t-100.5 33q-57 0 -97.5 -29.5t-52.5 -83.5h-124q7 96 88 156.5
t190 60.5q111 0 186.5 -60t75.5 -159q0 -109 -108 -168v-6z" />
    <glyph glyph-name="acute" unicode="&#xb4;" horiz-adv-x="659" 
d="M512 1434h170l-221 -297h-154z" />
    <glyph glyph-name="uni00B5" unicode="&#xb5;" horiz-adv-x="1148" 
d="M936 1024h178l-217 -1024h-162l8 123h-12q-42 -44 -79.5 -71.5t-101 -49.5t-138.5 -22q-117 0 -195 63l-98 -453h-172l305 1434h178l-127 -604q-31 -140 20 -211.5t158 -71.5q113 0 205.5 76t124.5 227z" />
    <glyph glyph-name="paragraph" unicode="&#xb6;" horiz-adv-x="1380" 
d="M213 967q0 93 41.5 179t110.5 149t164 101t198 38h768l-33 -160h-188l-268 -1274h-170l268 1274h-238l-268 -1274h-174l139 662q-154 0 -252 83.5t-98 221.5z" />
    <glyph glyph-name="periodcentered" unicode="&#xb7;" horiz-adv-x="411" 
d="M233 514q-51 0 -86.5 35.5t-35.5 85.5q0 52 35.5 88.5t86.5 36.5t86 -36t35 -89q0 -50 -35 -85.5t-86 -35.5z" />
    <glyph glyph-name="cedilla" unicode="&#xb8;" horiz-adv-x="712" 
d="M43 -305q53 -33 98 -33q53 0 89 30.5t36 74.5q0 29 -23.5 47t-68.5 18q-30 0 -76 -16l-49 51l139 153h99v-20l-84 -90q66 5 118 -35t52 -106q0 -90 -66.5 -144.5t-173.5 -54.5q-95 0 -145 43z" />
    <glyph glyph-name="uni00B9" unicode="&#xb9;" horiz-adv-x="528" 
d="M387 696v545h-166v102h78q51 0 76.5 27.5t25.5 73.5v41h115v-789h-129z" />
    <glyph glyph-name="guillemotright" unicode="&#xbb;" horiz-adv-x="1101" 
d="M424 1024l180 -414l-356 -413h-209l369 421l-179 406h195zM887 1024l180 -414l-356 -413h-207l368 421l-178 406h193z" />
    <glyph glyph-name="onequarter" unicode="&#xbc;" horiz-adv-x="1841" 
d="M512 645v545h-166v102h78q50 0 76 27.5t26 73.5v41h115v-789h-129zM1530 1434l-1020 -1434h-154l1020 1434h154zM1591 274v-98h-145v-176h-121v176h-379v64l369 548h131v-514h145zM1094 274h231v347h-8z" />
    <glyph glyph-name="onehalf" unicode="&#xbd;" horiz-adv-x="1970" 
d="M504 645v545h-166v102h78q50 0 76 27.5t26 73.5v41h115v-789h-129zM1522 1434l-1020 -1434h-152l1020 1434h152zM1405 266q-106 -69 -115 -160h393v-106h-542v47q0 183 172 297l127 78q27 18 41.5 28.5t34.5 30t29 42t9 48.5q0 53 -36.5 86t-94.5 33q-68 0 -107 -43.5
t-42 -99.5h-131q2 45 20.5 89t52.5 81t90.5 59.5t125.5 22.5q115 0 184.5 -60t69.5 -161q0 -44 -13 -81t-39 -65.5t-41 -41t-44 -31.5q-5 -3 -7 -5z" />
    <glyph glyph-name="threequarters" unicode="&#xbe;" horiz-adv-x="1966" 
d="M764 1051q63 -21 100 -70t37 -117q0 -99 -83 -164t-214 -65q-126 0 -199.5 62.5t-82.5 172.5h127q21 -127 155 -127q72 0 118 35t46 92q0 58 -41.5 93.5t-112.5 35.5h-79v99h73q61 0 99 32.5t38 88.5q0 55 -38.5 87.5t-100.5 32.5q-57 0 -97 -29t-52 -83h-125
q7 96 88 156.5t190 60.5q111 0 186.5 -60t75.5 -159q0 -109 -108 -168v-6zM1655 1434l-1020 -1434h-152l1020 1434h152zM1716 274v-98h-145v-176h-121v176h-379v64l369 548h131v-514h145zM1219 274h231v347h-10z" />
    <glyph glyph-name="questiondown" unicode="&#xbf;" horiz-adv-x="940" 
d="M590 1034q51 0 87 -35.5t36 -85.5q0 -52 -36 -87t-87 -35t-86 35t-35 87q0 50 35 85.5t86 35.5zM596 526q-27 -125 -80.5 -209.5t-171.5 -164.5q-59 -39 -93.5 -65.5t-67.5 -61t-47.5 -71.5t-14.5 -81q0 -71 41.5 -109t122.5 -38q100 0 163 62t91 149h172
q-16 -66 -47 -126t-82 -116.5t-132 -90.5t-182 -34q-147 0 -233 75t-86 203q0 38 6.5 73.5t22 67t29 56t40.5 52t42 43t48.5 40t45.5 33t46 31.5q94 62 138.5 131t64.5 164l19 88h165z" />
    <glyph glyph-name="Agrave" unicode="&#xc0;" horiz-adv-x="1335" 
d="M961 1546h-140l-92 297h152zM981 0l-49 391h-565l-215 -391h-207l805 1434h229l195 -1434h-193zM453 551h458l-82 663h-12z" />
    <glyph glyph-name="Aacute" unicode="&#xc1;" horiz-adv-x="1335" 
d="M1188 1843l-221 -297h-154l205 297h170zM750 1434h229l195 -1434h-193l-49 391h-565l-215 -391h-207zM453 551h458l-82 663h-12z" />
    <glyph glyph-name="Acircumflex" unicode="&#xc2;" horiz-adv-x="1335" 
d="M932 1731l-158 -177h-170l268 289h160l148 -289h-154l-82 177h-12zM750 1434h229l195 -1434h-193l-49 391h-565l-215 -391h-207zM453 551h458l-82 663h-12z" />
    <glyph glyph-name="Atilde" unicode="&#xc3;" horiz-adv-x="1335" 
d="M1163 1776h127q-29 -105 -90 -173.5t-151 -68.5q-43 0 -77 13.5t-56 32t-41.5 37.5t-41.5 32.5t-47 13.5q-86 0 -120 -113h-129q33 108 93.5 176t151.5 68q44 0 79 -13.5t56 -33t39 -38.5t39.5 -32.5t46.5 -13.5q44 0 75 32.5t46 80.5zM750 1434h229l195 -1434h-193
l-49 391h-565l-215 -391h-207zM453 551h458l-82 663h-12z" />
    <glyph glyph-name="Adieresis" unicode="&#xc4;" horiz-adv-x="1335" 
d="M688 1569q-51 0 -88 36t-37 87t37 87t88 36q50 0 86.5 -36t36.5 -87t-36.5 -87t-86.5 -36zM1157 1815q51 0 87 -36t36 -87t-36 -87t-87 -36q-50 0 -85.5 36t-35.5 87t35.5 87t85.5 36zM750 1434h229l195 -1434h-193l-49 391h-565l-215 -391h-207zM453 551h458l-82 663
h-12z" />
    <glyph glyph-name="Aring" unicode="&#xc5;" horiz-adv-x="1335" 
d="M926 1518q-81 0 -139 57.5t-58 136.5q0 80 58 137.5t139 57.5q80 0 138 -58t58 -137q0 -78 -58.5 -136t-137.5 -58zM928 1800q-38 0 -63 -26t-25 -62q0 -37 25 -63.5t63 -26.5q34 0 59 26.5t25 63.5q0 35 -25 61.5t-59 26.5zM981 0l-49 391h-565l-215 -391h-207l805 1434
h229l195 -1434h-193zM453 551h458l-82 663h-12z" />
    <glyph glyph-name="AE" unicode="&#xc6;" horiz-adv-x="2066" 
d="M2109 1268h-692l-98 -459h598l-35 -162h-598l-100 -481h710l-34 -166h-893l82 391h-543l-334 -391h-227l1220 1434h979zM1083 551l140 663h-13l-567 -663h440z" />
    <glyph glyph-name="Ccedilla" unicode="&#xc7;" horiz-adv-x="1548" 
d="M991 1282q-163 0 -310 -100t-235 -265t-88 -346q0 -194 103.5 -306.5t286.5 -112.5q154 0 278.5 77.5t194.5 206.5h204q-80 -203 -259.5 -326.5t-411.5 -129.5l-64 -70q66 5 118 -35t52 -106q0 -90 -66 -144.5t-173 -54.5q-45 0 -85 12.5t-61 30.5l53 82q57 -33 101 -33
q53 0 89 30.5t36 74.5q0 29 -23.5 47t-68.5 18q-30 0 -76 -16l-49 51l106 119q-224 26 -351.5 176t-127.5 391q0 175 67 340.5t179.5 288.5t269.5 197.5t328 74.5q149 0 266 -54.5t184.5 -162t63.5 -252.5h-191q-8 135 -100 216t-240 81z" />
    <glyph glyph-name="Egrave" unicode="&#xc8;" horiz-adv-x="1200" 
d="M844 1843l80 -297h-140l-92 297h152zM287 166h743l-35 -166h-925l305 1434h905l-35 -166h-723l-98 -459h635l-35 -162h-635z" />
    <glyph glyph-name="Eacute" unicode="&#xc9;" horiz-adv-x="1200" 
d="M981 1843h170l-221 -297h-154zM287 166h743l-35 -166h-925l305 1434h905l-35 -166h-723l-98 -459h635l-35 -162h-635z" />
    <glyph glyph-name="Ecircumflex" unicode="&#xca;" horiz-adv-x="1200" 
d="M737 1554h-170l269 289h159l148 -289h-154l-82 177h-12zM287 166h743l-35 -166h-925l305 1434h905l-35 -166h-723l-98 -459h635l-35 -162h-635z" />
    <glyph glyph-name="Edieresis" unicode="&#xcb;" horiz-adv-x="1200" 
d="M649 1569q-51 0 -88 36t-37 87t37 87t88 36q50 0 86.5 -36t36.5 -87t-36.5 -87t-86.5 -36zM1118 1569q-50 0 -85.5 36t-35.5 87t35.5 87t85.5 36q51 0 87 -36t36 -87t-36 -87t-87 -36zM287 166h743l-35 -166h-925l305 1434h905l-35 -166h-723l-98 -459h635l-35 -162h-635
z" />
    <glyph glyph-name="Igrave" unicode="&#xcc;" horiz-adv-x="542" 
d="M483 1843l80 -297h-139l-92 297h151zM561 1434l-305 -1434h-186l305 1434h186z" />
    <glyph glyph-name="Iacute" unicode="&#xcd;" horiz-adv-x="542" 
d="M621 1843h170l-222 -297h-153zM561 1434l-305 -1434h-186l305 1434h186z" />
    <glyph glyph-name="Icircumflex" unicode="&#xce;" horiz-adv-x="542" 
d="M377 1554h-170l268 289h160l147 -289h-153l-82 177h-12zM561 1434l-305 -1434h-186l305 1434h186z" />
    <glyph glyph-name="Idieresis" unicode="&#xcf;" horiz-adv-x="542" 
d="M291 1569q-51 0 -88 36t-37 87t37 87t88 36q50 0 86.5 -36t36.5 -87t-36.5 -87t-86.5 -36zM760 1569q-50 0 -85.5 36t-35.5 87t35.5 87t85.5 36q51 0 87 -36t36 -87t-36 -87t-87 -36zM561 1434l-305 -1434h-186l305 1434h186z" />
    <glyph glyph-name="Eth" unicode="&#xd0;" horiz-adv-x="1454" 
d="M801 1434q281 0 427 -142t146 -413q0 -144 -38.5 -276.5t-113 -241.5t-176.5 -190t-235.5 -126t-284.5 -45h-456l137 645h-238l29 141h240l137 648h426zM539 168q187 0 335.5 95.5t228 254t79.5 348.5q0 105 -29 182.5t-70.5 118t-102 64.5t-106.5 29.5t-102 5.5h-248
l-102 -480h362l-28 -141h-363l-102 -477h248z" />
    <glyph glyph-name="Ntilde" unicode="&#xd1;" horiz-adv-x="1511" 
d="M1378 1776q-29 -105 -90 -173.5t-151 -68.5q-43 0 -77 13.5t-56 32t-41.5 37.5t-41.5 32.5t-47 13.5q-86 0 -120 -113h-129q33 108 93.5 176t151.5 68q44 0 79 -13.5t56 -33t39 -38.5t39.5 -32.5t46.5 -13.5q44 0 75 32.5t46 80.5h127zM1348 1434h182l-305 -1434h-181
l-540 1118h-15l-237 -1118h-182l305 1434h182l539 -1119h14z" />
    <glyph glyph-name="Ograve" unicode="&#xd2;" horiz-adv-x="1697" 
d="M1061 1843l80 -297h-140l-92 297h152zM760 -20q-266 0 -430 163t-164 426q0 134 44 266t124 242.5t185.5 195.5t236.5 133t268 48q266 0 431 -164.5t165 -427.5q0 -170 -70 -332t-186 -282.5t-275 -194t-329 -73.5zM772 152q127 0 248.5 59.5t210 155.5t142.5 222.5
t54 256.5q0 195 -113.5 315.5t-301.5 120.5q-127 0 -248.5 -59.5t-209.5 -156t-142 -223.5t-54 -257q0 -193 113 -313.5t301 -120.5z" />
    <glyph glyph-name="Oacute" unicode="&#xd3;" horiz-adv-x="1697" 
d="M1198 1843h170l-221 -297h-154zM760 -20q-266 0 -430 163t-164 426q0 134 44 266t124 242.5t185.5 195.5t236.5 133t268 48q266 0 431 -164.5t165 -427.5q0 -170 -70 -332t-186 -282.5t-275 -194t-329 -73.5zM772 152q127 0 248.5 59.5t210 155.5t142.5 222.5t54 256.5
q0 195 -113.5 315.5t-301.5 120.5q-127 0 -248.5 -59.5t-209.5 -156t-142 -223.5t-54 -257q0 -193 113 -313.5t301 -120.5z" />
    <glyph glyph-name="Ocircumflex" unicode="&#xd4;" horiz-adv-x="1697" 
d="M954 1554h-170l269 289h159l148 -289h-154l-82 177h-12zM760 -20q-266 0 -430 163t-164 426q0 134 44 266t124 242.5t185.5 195.5t236.5 133t268 48q266 0 431 -164.5t165 -427.5q0 -170 -70 -332t-186 -282.5t-275 -194t-329 -73.5zM772 152q127 0 248.5 59.5t210 155.5
t142.5 222.5t54 256.5q0 195 -113.5 315.5t-301.5 120.5q-127 0 -248.5 -59.5t-209.5 -156t-142 -223.5t-54 -257q0 -193 113 -313.5t301 -120.5z" />
    <glyph glyph-name="Otilde" unicode="&#xd5;" horiz-adv-x="1697" 
d="M1470 1776q-29 -105 -90 -173.5t-151 -68.5q-43 0 -77 13.5t-56 32t-41 37.5t-41 32.5t-47 13.5q-87 0 -121 -113h-129q33 108 94 176t152 68q44 0 79 -13.5t56 -33t39 -38.5t39.5 -32.5t46.5 -13.5q44 0 74.5 32.5t45.5 80.5h127zM760 -20q-266 0 -430 163t-164 426
q0 134 44 266t124 242.5t185.5 195.5t236.5 133t268 48q266 0 431 -164.5t165 -427.5q0 -170 -70 -332t-186 -282.5t-275 -194t-329 -73.5zM772 152q127 0 248.5 59.5t210 155.5t142.5 222.5t54 256.5q0 195 -113.5 315.5t-301.5 120.5q-127 0 -248.5 -59.5t-209.5 -156
t-142 -223.5t-54 -257q0 -193 113 -313.5t301 -120.5z" />
    <glyph glyph-name="Odieresis" unicode="&#xd6;" horiz-adv-x="1697" 
d="M868 1569q-51 0 -88 36t-37 87t37 87t88 36q50 0 86.5 -36t36.5 -87t-36.5 -87t-86.5 -36zM1337 1569q-50 0 -85 36t-35 87t35 87t85 36q51 0 87 -36t36 -87t-36 -87t-87 -36zM760 -20q-266 0 -430 163t-164 426q0 134 44 266t124 242.5t185.5 195.5t236.5 133t268 48
q266 0 431 -164.5t165 -427.5q0 -170 -70 -332t-186 -282.5t-275 -194t-329 -73.5zM772 152q127 0 248.5 59.5t210 155.5t142.5 222.5t54 256.5q0 195 -113.5 315.5t-301.5 120.5q-127 0 -248.5 -59.5t-209.5 -156t-142 -223.5t-54 -257q0 -193 113 -313.5t301 -120.5z" />
    <glyph glyph-name="multiply" unicode="&#xd7;" 
d="M1096 901l-408 -332l264 -327l-127 -105l-264 330l-405 -330l-90 109l405 329l-262 328l125 105l264 -328l410 332z" />
    <glyph glyph-name="Oslash" unicode="&#xd8;" horiz-adv-x="1697" 
d="M1663 1444l-176 -189q133 -158 133 -393q0 -170 -70 -332t-186 -282.5t-275 -194t-329 -73.5q-219 0 -367 108l-172 -182l-100 84l176 188q-131 156 -131 391q0 134 44 266t124 242.5t185.5 195.5t236.5 133t268 48q214 0 365 -108l172 184zM352 584q0 -154 74 -267
l840 897q-107 74 -252 74q-129 0 -252 -60.5t-212.5 -158t-143.5 -226t-54 -259.5zM1434 848q0 158 -76 270l-840 -897q105 -76 252 -76q129 0 252 60t212.5 157t144.5 225.5t55 260.5z" />
    <glyph glyph-name="Ugrave" unicode="&#xd9;" horiz-adv-x="1470" 
d="M946 1843l80 -297h-139l-92 297h151zM1487 1434l-191 -893q-57 -272 -231.5 -416.5t-423.5 -144.5q-123 0 -219 35.5t-159.5 106t-84 175.5t7.5 244l189 893h186l-186 -881q-41 -194 40.5 -297.5t246.5 -103.5q166 0 288.5 103t163.5 298l186 881h187z" />
    <glyph glyph-name="Uacute" unicode="&#xda;" horiz-adv-x="1470" 
d="M1083 1843h170l-221 -297h-153zM1487 1434l-191 -893q-57 -272 -231.5 -416.5t-423.5 -144.5q-123 0 -219 35.5t-159.5 106t-84 175.5t7.5 244l189 893h186l-186 -881q-41 -194 40.5 -297.5t246.5 -103.5q166 0 288.5 103t163.5 298l186 881h187z" />
    <glyph glyph-name="Ucircumflex" unicode="&#xdb;" horiz-adv-x="1470" 
d="M840 1554h-170l268 289h160l147 -289h-153l-82 177h-13zM1487 1434l-191 -893q-57 -272 -231.5 -416.5t-423.5 -144.5q-123 0 -219 35.5t-159.5 106t-84 175.5t7.5 244l189 893h186l-186 -881q-41 -194 40.5 -297.5t246.5 -103.5q166 0 288.5 103t163.5 298l186 881h187z
" />
    <glyph glyph-name="Udieresis" unicode="&#xdc;" horiz-adv-x="1470" 
d="M754 1569q-51 0 -88 36t-37 87t37 87t88 36q50 0 86.5 -36t36.5 -87t-36.5 -87t-86.5 -36zM1223 1569q-50 0 -85.5 36t-35.5 87t35.5 87t85.5 36q51 0 87 -36t36 -87t-36 -87t-87 -36zM1487 1434l-191 -893q-57 -272 -231.5 -416.5t-423.5 -144.5q-123 0 -219 35.5
t-159.5 106t-84 175.5t7.5 244l189 893h186l-186 -881q-41 -194 40.5 -297.5t246.5 -103.5q166 0 288.5 103t163.5 298l186 881h187z" />
    <glyph glyph-name="Yacute" unicode="&#xdd;" horiz-adv-x="1327" 
d="M1012 1843h170l-221 -297h-154zM1235 1434h235l-677 -756l-144 -678h-186l145 678l-358 756h215l260 -553h12z" />
    <glyph glyph-name="Thorn" unicode="&#xde;" horiz-adv-x="1296" 
d="M819 1149q181 0 287 -95t106 -255q0 -144 -68 -261t-195.5 -186t-291.5 -69h-348l-59 -283h-180l305 1434h180l-61 -285h325zM662 449q160 0 258 91.5t98 229.5q0 104 -62 158.5t-168 54.5h-329l-113 -534h316z" />
    <glyph glyph-name="germandbls" unicode="&#xdf;" horiz-adv-x="1138" 
d="M813 758q89 -29 143 -98.5t54 -184.5q0 -219 -129.5 -357t-341.5 -138q-105 0 -197 30l31 140q80 -25 155 -25q132 0 222 99.5t90 246.5q0 201 -267 201h-90l31 145h78q145 0 237.5 87.5t92.5 225.5q0 80 -49 127.5t-140 47.5q-107 0 -190 -67.5t-111 -199.5l-221 -1038
h-176l219 1032q42 200 168.5 311t322.5 111q160 0 259.5 -81t99.5 -210q0 -134 -77.5 -237t-213.5 -158v-10z" />
    <glyph glyph-name="agrave" unicode="&#xe0;" horiz-adv-x="1236" 
d="M807 1137h-139l-93 297h152zM1022 1024h180l-219 -1024h-147l14 145h-12q-151 -165 -355 -165q-174 0 -279.5 112t-105.5 305q0 170 77.5 319t213.5 238.5t297 89.5q118 0 197 -47.5t108 -115.5zM524 137q80 0 155 39.5t128.5 105t86 153t32.5 179.5q0 129 -62 201
t-174 72q-108 0 -202.5 -66t-149.5 -175t-55 -230q0 -130 64 -204.5t177 -74.5z" />
    <glyph glyph-name="aacute" unicode="&#xe1;" horiz-adv-x="1236" 
d="M1034 1434l-221 -297h-154l205 297h170zM1022 1024h180l-219 -1024h-147l14 145h-12q-151 -165 -355 -165q-174 0 -279.5 112t-105.5 305q0 170 77.5 319t213.5 238.5t297 89.5q118 0 197 -47.5t108 -115.5zM524 137q80 0 155 39.5t128.5 105t86 153t32.5 179.5
q0 129 -62 201t-174 72q-108 0 -202.5 -66t-149.5 -175t-55 -230q0 -130 64 -204.5t177 -74.5z" />
    <glyph glyph-name="acircumflex" unicode="&#xe2;" horiz-adv-x="1236" 
d="M778 1321l-157 -176h-170l268 289h160l147 -289h-154l-81 176h-13zM1022 1024h180l-219 -1024h-147l14 145h-12q-151 -165 -355 -165q-174 0 -279.5 112t-105.5 305q0 170 77.5 319t213.5 238.5t297 89.5q118 0 197 -47.5t108 -115.5zM524 137q80 0 155 39.5t128.5 105
t86 153t32.5 179.5q0 129 -62 201t-174 72q-108 0 -202.5 -66t-149.5 -175t-55 -230q0 -130 64 -204.5t177 -74.5z" />
    <glyph glyph-name="atilde" unicode="&#xe3;" horiz-adv-x="1236" 
d="M633 1253q-87 0 -121 -112h-129q33 108 93.5 175.5t152.5 67.5q44 0 79 -13.5t56 -33t39 -38.5t39.5 -32.5t46.5 -13.5q44 0 75 32.5t46 80.5h127q-29 -105 -90.5 -173.5t-151.5 -68.5q-43 0 -77 13.5t-56 32t-41 37.5t-41 32.5t-47 13.5zM1022 1024h180l-219 -1024h-147
l14 145h-12q-151 -165 -355 -165q-174 0 -279.5 112t-105.5 305q0 170 77.5 319t213.5 238.5t297 89.5q118 0 197 -47.5t108 -115.5zM524 137q80 0 155 39.5t128.5 105t86 153t32.5 179.5q0 129 -62 201t-174 72q-108 0 -202.5 -66t-149.5 -175t-55 -230q0 -130 64 -204.5
t177 -74.5z" />
    <glyph glyph-name="adieresis" unicode="&#xe4;" horiz-adv-x="1236" 
d="M578 1143q-46 0 -79.5 33t-33.5 79q0 47 33.5 80t79.5 33t78 -33t32 -80q0 -46 -32 -79t-78 -33zM950 1143q-44 0 -77 33t-33 79q0 47 32.5 80t77.5 33q46 0 78.5 -33t32.5 -80q0 -46 -32.5 -79t-78.5 -33zM1022 1024h180l-219 -1024h-147l14 145h-12
q-151 -165 -355 -165q-174 0 -279.5 112t-105.5 305q0 170 77.5 319t213.5 238.5t297 89.5q118 0 197 -47.5t108 -115.5zM524 137q80 0 155 39.5t128.5 105t86 153t32.5 179.5q0 129 -62 201t-174 72q-108 0 -202.5 -66t-149.5 -175t-55 -230q0 -130 64 -204.5t177 -74.5z
" />
    <glyph glyph-name="aring" unicode="&#xe5;" horiz-adv-x="1236" 
d="M772 1108q-81 0 -139 58t-58 137q0 80 57.5 137t139.5 57q80 0 138.5 -57.5t58.5 -136.5q0 -78 -59 -136.5t-138 -58.5zM774 1391q-38 0 -63 -26t-25 -62q0 -37 25 -64t63 -27q34 0 59 27t25 64q0 35 -25 61.5t-59 26.5zM1022 1024h180l-219 -1024h-147l14 145h-12
q-151 -165 -355 -165q-174 0 -279.5 112t-105.5 305q0 170 77.5 319t213.5 238.5t297 89.5q118 0 197 -47.5t108 -115.5zM524 137q80 0 155 39.5t128.5 105t86 153t32.5 179.5q0 129 -62 201t-174 72q-108 0 -202.5 -66t-149.5 -175t-55 -230q0 -130 64 -204.5t177 -74.5z
" />
    <glyph glyph-name="ae" unicode="&#xe6;" horiz-adv-x="1505" 
d="M1380 465h-557q-69 -344 129 -344q71 0 134 41t94 135h166q-50 -160 -158 -238.5t-248 -78.5q-217 0 -270 172q-108 -172 -344 -172q-122 0 -198.5 60.5t-76.5 164.5q0 184 142 288.5t387 104.5h90l22 100q19 94 -11.5 147.5t-115.5 53.5q-84 0 -141.5 -45t-79.5 -129
l-172 4q40 151 146 233t260 82q96 0 163.5 -40t96.5 -115q127 155 299 155q57 0 106 -17t90 -52.5t64.5 -99.5t23.5 -150q0 -145 -41 -260zM1118 903q-81 0 -156 -77t-112 -228h393q34 162 -4 233.5t-121 71.5zM612 334l29 131h-80q-159 0 -246.5 -60t-87.5 -172
q0 -55 37.5 -83.5t100.5 -28.5q38 0 74.5 11t71.5 34.5t61.5 66.5t39.5 101z" />
    <glyph glyph-name="ccedilla" unicode="&#xe7;" horiz-adv-x="1175" 
d="M707 887q-110 0 -209 -67t-158 -176.5t-59 -229.5q0 -127 69.5 -202t198.5 -75q206 0 315 197h187q-63 -159 -194 -254.5t-308 -99.5l-64 -70q66 5 118 -35t52 -106q0 -90 -66 -144.5t-173 -54.5q-45 0 -85 12.5t-61 30.5l54 82q57 -33 100 -33q53 0 89 30.5t36 74.5
q0 29 -23.5 47t-68.5 18q-30 0 -76 -16l-49 51l108 119q-159 26 -250.5 137.5t-91.5 277.5q0 168 83 316t226.5 237.5t309.5 89.5q114 0 205.5 -40t147.5 -125t50 -201h-174q-2 86 -66.5 147.5t-172.5 61.5z" />
    <glyph glyph-name="egrave" unicode="&#xe8;" horiz-adv-x="1169" 
d="M805 1137h-139l-93 297h152zM1047 469h-764q-28 -154 38 -248t207 -94q100 0 178.5 44t120.5 128h181q-66 -152 -193 -235.5t-301 -83.5q-187 0 -302.5 111t-115.5 290q0 177 80 330t218 243t300 90q169 0 277 -98t108 -276q0 -110 -32 -201zM682 897q-125 0 -228.5 -87
t-140.5 -210h590q26 132 -34.5 214.5t-186.5 82.5z" />
    <glyph glyph-name="eacute" unicode="&#xe9;" horiz-adv-x="1169" 
d="M1032 1434l-221 -297h-154l205 297h170zM1047 469h-764q-28 -154 38 -248t207 -94q100 0 178.5 44t120.5 128h181q-66 -152 -193 -235.5t-301 -83.5q-187 0 -302.5 111t-115.5 290q0 177 80 330t218 243t300 90q169 0 277 -98t108 -276q0 -110 -32 -201zM682 897
q-125 0 -228.5 -87t-140.5 -210h590q26 132 -34.5 214.5t-186.5 82.5z" />
    <glyph glyph-name="ecircumflex" unicode="&#xea;" horiz-adv-x="1169" 
d="M776 1321l-158 -176h-169l268 289h160l147 -289h-154l-82 176h-12zM1047 469h-764q-28 -154 38 -248t207 -94q100 0 178.5 44t120.5 128h181q-66 -152 -193 -235.5t-301 -83.5q-187 0 -302.5 111t-115.5 290q0 177 80 330t218 243t300 90q169 0 277 -98t108 -276
q0 -110 -32 -201zM682 897q-125 0 -228.5 -87t-140.5 -210h590q26 132 -34.5 214.5t-186.5 82.5z" />
    <glyph glyph-name="edieresis" unicode="&#xeb;" horiz-adv-x="1169" 
d="M575 1143q-46 0 -79 33t-33 79q0 47 33 80t79 33t78.5 -33t32.5 -80q0 -46 -32.5 -79t-78.5 -33zM948 1143q-44 0 -77 33t-33 79q0 47 32.5 80t77.5 33q46 0 78.5 -33t32.5 -80q0 -46 -32.5 -79t-78.5 -33zM1047 469h-764q-28 -154 38 -248t207 -94q100 0 178.5 44
t120.5 128h181q-66 -152 -193 -235.5t-301 -83.5q-187 0 -302.5 111t-115.5 290q0 177 80 330t218 243t300 90q169 0 277 -98t108 -276q0 -110 -32 -201zM682 897q-125 0 -228.5 -87t-140.5 -210h590q26 132 -34.5 214.5t-186.5 82.5z" />
    <glyph glyph-name="igrave" unicode="&#xec;" horiz-adv-x="464" 
d="M356 1434l80 -297h-139l-92 297h151zM430 1024l-217 -1024h-178l217 1024h178z" />
    <glyph glyph-name="iacute" unicode="&#xed;" horiz-adv-x="464" 
d="M494 1434h170l-222 -297h-153zM430 1024l-217 -1024h-178l217 1024h178z" />
    <glyph glyph-name="icircumflex" unicode="&#xee;" horiz-adv-x="464" 
d="M250 1145h-170l268 289h160l147 -289h-153l-82 176h-12zM430 1024l-217 -1024h-178l217 1024h178z" />
    <glyph glyph-name="idieresis" unicode="&#xef;" horiz-adv-x="464" 
d="M207 1143q-46 0 -79.5 33t-33.5 79q0 47 33.5 80t79.5 33t78 -33t32 -80q0 -46 -32 -79t-78 -33zM580 1143q-44 0 -77.5 33.5t-33.5 78.5q0 47 33 80t78 33q46 0 78 -33t32 -80q0 -46 -32 -79t-78 -33zM430 1024l-217 -1024h-178l217 1024h178z" />
    <glyph glyph-name="eth" unicode="&#xf0;" horiz-adv-x="1230" 
d="M1157 1245l-172 -51q133 -217 133 -467q0 -219 -75.5 -388t-217 -264t-329.5 -95q-171 0 -289.5 107.5t-118.5 274.5q0 115 44 219.5t118.5 180.5t179 121t221.5 45q99 0 180 -39.5t113 -95.5h12q-17 185 -125 356l-346 -105l-10 103l293 88q-79 101 -197 199h209
q84 -73 144 -152l223 66zM518 131q155 0 275 123t120 281q0 109 -74 175t-192 66q-159 0 -275 -117t-116 -278q0 -112 72.5 -181t189.5 -69z" />
    <glyph glyph-name="ntilde" unicode="&#xf1;" horiz-adv-x="1148" 
d="M1108 1366q-29 -105 -90.5 -173.5t-151.5 -68.5q-43 0 -77 13.5t-56 32t-41 37.5t-41 32.5t-47 13.5q-87 0 -121 -112h-129q33 108 93.5 175.5t152.5 67.5q44 0 79 -13.5t56 -33t39 -38.5t39.5 -32.5t46.5 -13.5q44 0 75 32.5t46 80.5h127zM737 1044q170 0 253 -106
t42 -301l-135 -637h-178l127 604q31 140 -20 211.5t-158 71.5q-112 0 -205 -76.5t-125 -226.5l-125 -584h-178l217 1024h162l-8 -123h12q42 44 79.5 71.5t101 49.5t138.5 22z" />
    <glyph glyph-name="ograve" unicode="&#xf2;" horiz-adv-x="1255" 
d="M754 1434l80 -297h-140l-92 297h152zM535 -20q-195 0 -315 120t-120 314q0 164 84 309t228.5 233t310.5 88q194 0 313 -119.5t119 -312.5q0 -164 -83.5 -309.5t-227.5 -234t-309 -88.5zM547 137q110 0 209.5 65.5t159 173t59.5 226.5q0 125 -71.5 205t-194.5 80
q-110 0 -208.5 -65t-157 -172t-58.5 -226q0 -128 69.5 -207.5t192.5 -79.5z" />
    <glyph glyph-name="oacute" unicode="&#xf3;" horiz-adv-x="1255" 
d="M891 1434h170l-221 -297h-154zM535 -20q-195 0 -315 120t-120 314q0 164 84 309t228.5 233t310.5 88q194 0 313 -119.5t119 -312.5q0 -164 -83.5 -309.5t-227.5 -234t-309 -88.5zM547 137q110 0 209.5 65.5t159 173t59.5 226.5q0 125 -71.5 205t-194.5 80
q-110 0 -208.5 -65t-157 -172t-58.5 -226q0 -128 69.5 -207.5t192.5 -79.5z" />
    <glyph glyph-name="ocircumflex" unicode="&#xf4;" horiz-adv-x="1255" 
d="M649 1145h-170l269 289h159l148 -289h-154l-82 176h-12zM535 -20q-195 0 -315 120t-120 314q0 164 84 309t228.5 233t310.5 88q194 0 313 -119.5t119 -312.5q0 -164 -83.5 -309.5t-227.5 -234t-309 -88.5zM547 137q110 0 209.5 65.5t159 173t59.5 226.5q0 125 -71.5 205
t-194.5 80q-110 0 -208.5 -65t-157 -172t-58.5 -226q0 -128 69.5 -207.5t192.5 -79.5z" />
    <glyph glyph-name="otilde" unicode="&#xf5;" horiz-adv-x="1255" 
d="M1165 1366q-29 -105 -90 -173.5t-151 -68.5q-43 0 -77 13.5t-56 32t-41 37.5t-41 32.5t-47 13.5q-87 0 -121 -112h-129q33 108 93.5 175.5t151.5 67.5q44 0 79 -13.5t56.5 -33t39.5 -38.5t39.5 -32.5t46.5 -13.5q44 0 74.5 32.5t45.5 80.5h127zM535 -20q-195 0 -315 120
t-120 314q0 164 84 309t228.5 233t310.5 88q194 0 313 -119.5t119 -312.5q0 -164 -83.5 -309.5t-227.5 -234t-309 -88.5zM547 137q110 0 209.5 65.5t159 173t59.5 226.5q0 125 -71.5 205t-194.5 80q-110 0 -208.5 -65t-157 -172t-58.5 -226q0 -128 69.5 -207.5t192.5 -79.5z
" />
    <glyph glyph-name="odieresis" unicode="&#xf6;" horiz-adv-x="1255" 
d="M604 1143q-46 0 -79 33t-33 79q0 47 33 80t79 33t78.5 -33t32.5 -80q0 -46 -32.5 -79t-78.5 -33zM977 1143q-45 0 -78 33.5t-33 78.5q0 47 33 80t78 33q46 0 78 -33t32 -80q0 -46 -32 -79t-78 -33zM535 -20q-195 0 -315 120t-120 314q0 164 84 309t228.5 233t310.5 88
q194 0 313 -119.5t119 -312.5q0 -164 -83.5 -309.5t-227.5 -234t-309 -88.5zM547 137q110 0 209.5 65.5t159 173t59.5 226.5q0 125 -71.5 205t-194.5 80q-110 0 -208.5 -65t-157 -172t-58.5 -226q0 -128 69.5 -207.5t192.5 -79.5z" />
    <glyph glyph-name="divide" unicode="&#xf7;" 
d="M659 813q-50 0 -86 36.5t-36 84.5q0 52 35.5 88.5t86.5 36.5t86 -36t35 -89q0 -48 -35.5 -84.5t-85.5 -36.5zM121 649h954l-33 -151h-954zM504 80q-51 0 -87 35.5t-36 85.5q0 51 36 87t87 36q50 0 85.5 -36t35.5 -87q0 -49 -35.5 -85t-85.5 -36z" />
    <glyph glyph-name="oslash" unicode="&#xf8;" horiz-adv-x="1255" 
d="M1223 1040l-152 -155q84 -117 84 -273q0 -122 -50.5 -238.5t-134 -202.5t-199 -138.5t-239.5 -52.5q-153 0 -260 75l-143 -147l-92 74l149 155q-86 113 -86 277t84 309t228.5 233t310.5 88q154 0 264 -77l143 147zM276 424q0 -90 35 -158l559 580q-65 47 -159 47
q-113 0 -214 -66t-161 -174.5t-60 -228.5zM981 604q0 81 -33 152l-559 -580q64 -45 156 -45q112 0 213.5 66.5t162 176t60.5 230.5z" />
    <glyph glyph-name="ugrave" unicode="&#xf9;" horiz-adv-x="1148" 
d="M698 1434l80 -297h-139l-92 297h151zM412 -20q-170 0 -253 106t-42 301l135 637h178l-127 -604q-31 -140 20 -211.5t158 -71.5q113 0 205.5 76t124.5 227l125 584h178l-217 -1024h-162l8 123h-12q-42 -44 -79.5 -71.5t-101 -49.5t-138.5 -22z" />
    <glyph glyph-name="uacute" unicode="&#xfa;" horiz-adv-x="1148" 
d="M836 1434h170l-222 -297h-153zM412 -20q-170 0 -253 106t-42 301l135 637h178l-127 -604q-31 -140 20 -211.5t158 -71.5q113 0 205.5 76t124.5 227l125 584h178l-217 -1024h-162l8 123h-12q-42 -44 -79.5 -71.5t-101 -49.5t-138.5 -22z" />
    <glyph glyph-name="ucircumflex" unicode="&#xfb;" horiz-adv-x="1148" 
d="M592 1145h-170l268 289h160l147 -289h-153l-82 176h-12zM412 -20q-170 0 -253 106t-42 301l135 637h178l-127 -604q-31 -140 20 -211.5t158 -71.5q113 0 205.5 76t124.5 227l125 584h178l-217 -1024h-162l8 123h-12q-42 -44 -79.5 -71.5t-101 -49.5t-138.5 -22z" />
    <glyph glyph-name="udieresis" unicode="&#xfc;" horiz-adv-x="1148" 
d="M549 1143q-46 0 -79.5 33t-33.5 79q0 47 33.5 80t79.5 33t78 -33t32 -80q0 -46 -32 -79t-78 -33zM922 1143q-44 0 -77.5 33.5t-33.5 78.5q0 47 33 80t78 33q46 0 78 -33t32 -80q0 -46 -32 -79t-78 -33zM412 -20q-170 0 -253 106t-42 301l135 637h178l-127 -604
q-31 -140 20 -211.5t158 -71.5q113 0 205.5 76t124.5 227l125 584h178l-217 -1024h-162l8 123h-12q-42 -44 -79.5 -71.5t-101 -49.5t-138.5 -22z" />
    <glyph glyph-name="yacute" unicode="&#xfd;" horiz-adv-x="1087" 
d="M805 1434h170l-221 -297h-154zM1153 1024l-682 -1184q-18 -31 -23.5 -41t-30 -46t-42.5 -54t-52.5 -47t-68 -43.5t-81.5 -26.5t-101 -12q-75 0 -152 22l29 138q66 -15 106 -15q149 0 244 152l82 133h-53l-176 1024h178l137 -838h14l475 838h197z" />
    <glyph glyph-name="thorn" unicode="&#xfe;" horiz-adv-x="1236" 
d="M754 1044q175 0 280 -112t105 -307q0 -170 -76.5 -318t-212.5 -237.5t-299 -89.5q-65 0 -119 17t-89.5 45t-58 57t-36.5 61l-121 -570h-178l395 1864h164l-121 -575h14q144 165 353 165zM547 137q108 0 203 66t150.5 175t55.5 230q0 130 -65 204.5t-178 74.5
q-80 0 -155 -39.5t-128.5 -105t-86 -153t-32.5 -179.5q0 -129 62.5 -201t173.5 -72z" />
    <glyph glyph-name="ydieresis" unicode="&#xff;" horiz-adv-x="1087" 
d="M518 1143q-46 0 -79 33t-33 79q0 47 33 80t79 33t78.5 -33t32.5 -80q0 -46 -32.5 -79t-78.5 -33zM891 1143q-45 0 -78 33.5t-33 78.5q0 47 33 80t78 33q46 0 78 -33t32 -80q0 -46 -32 -79t-78 -33zM1153 1024l-682 -1184q-18 -31 -23.5 -41t-30 -46t-42.5 -54t-52.5 -47
t-68 -43.5t-81.5 -26.5t-101 -12q-75 0 -152 22l29 138q66 -15 106 -15q149 0 244 152l82 133h-53l-176 1024h178l137 -838h14l475 838h197z" />
    <glyph glyph-name="Amacron" unicode="&#x100;" horiz-adv-x="1335" 
d="M621 1731h616l-27 -132h-616zM750 1434h229l195 -1434h-193l-49 391h-565l-215 -391h-207zM453 551h458l-82 663h-12z" />
    <glyph glyph-name="amacron" unicode="&#x101;" horiz-adv-x="1236" 
d="M1083 1321l-26 -131h-617l27 131h616zM1022 1024h180l-219 -1024h-147l14 145h-12q-151 -165 -355 -165q-174 0 -279.5 112t-105.5 305q0 170 77.5 319t213.5 238.5t297 89.5q118 0 197 -47.5t108 -115.5zM524 137q80 0 155 39.5t128.5 105t86 153t32.5 179.5
q0 129 -62 201t-174 72q-108 0 -202.5 -66t-149.5 -175t-55 -230q0 -130 64 -204.5t177 -74.5z" />
    <glyph glyph-name="Abreve" unicode="&#x102;" horiz-adv-x="1335" 
d="M895 1579q-118 0 -177 79.5t-38 184.5h139q-14 -62 13 -103.5t83 -41.5q58 0 101 41t57 104h148q-23 -105 -115 -184.5t-211 -79.5zM750 1434h229l195 -1434h-193l-49 391h-565l-215 -391h-207zM453 551h458l-82 663h-12z" />
    <glyph glyph-name="abreve" unicode="&#x103;" horiz-adv-x="1236" 
d="M741 1169q-118 0 -177 80t-38 185h140q-14 -62 13 -104t83 -42q58 0 101 41.5t57 104.5h147q-23 -105 -115 -185t-211 -80zM1022 1024h180l-219 -1024h-147l14 145h-12q-151 -165 -355 -165q-174 0 -279.5 112t-105.5 305q0 170 77.5 319t213.5 238.5t297 89.5
q118 0 197 -47.5t108 -115.5zM524 137q80 0 155 39.5t128.5 105t86 153t32.5 179.5q0 129 -62 201t-174 72q-108 0 -202.5 -66t-149.5 -175t-55 -230q0 -130 64 -204.5t177 -74.5z" />
    <glyph glyph-name="Aogonek" unicode="&#x104;" horiz-adv-x="1335" 
d="M1096 -240q40 0 94 13l-25 -113q-41 -14 -102 -14q-89 0 -145 38.5t-56 108.5q0 134 162 207h-43l-49 391h-565l-215 -391h-207l805 1434h229l195 -1434q-81 -27 -130 -73t-49 -99q0 -34 28 -51t73 -17zM453 551h458l-82 663h-12z" />
    <glyph glyph-name="aogonek" unicode="&#x105;" horiz-adv-x="1236" 
d="M805 -172q0 -34 27.5 -51t72.5 -17q40 0 94 13l-24 -113q-41 -14 -103 -14q-89 0 -144.5 38.5t-55.5 108.5q0 131 164 209l14 143h-12q-151 -165 -355 -165q-174 0 -279.5 112t-105.5 305q0 170 77.5 319t213.5 238.5t297 89.5q118 0 197 -47.5t108 -115.5l31 143h180
l-219 -1024q-81 -27 -129.5 -73t-48.5 -99zM524 137q80 0 155 39.5t128.5 105t86 153t32.5 179.5q0 129 -62 201t-174 72q-108 0 -202.5 -66t-149.5 -175t-55 -230q0 -130 64 -204.5t177 -74.5z" />
    <glyph glyph-name="Cacute" unicode="&#x106;" horiz-adv-x="1548" 
d="M1171 1843h170l-221 -297h-153zM1425 436q-83 -208 -267.5 -332t-424.5 -124q-262 0 -415.5 154.5t-153.5 418.5q0 175 67 340.5t179.5 288.5t269.5 197.5t328 74.5q149 0 266 -54.5t184.5 -162t63.5 -252.5h-191q-8 135 -100 216t-240 81q-163 0 -310 -100t-235 -265
t-88 -346q0 -194 103.5 -306.5t286.5 -112.5q154 0 278.5 77.5t194.5 206.5h204z" />
    <glyph glyph-name="cacute" unicode="&#x107;" horiz-adv-x="1175" 
d="M879 1434h170l-222 -297h-153zM1051 334q-65 -164 -200.5 -259t-320.5 -95q-198 0 -315 115.5t-117 305.5q0 168 83 316t226.5 237.5t309.5 89.5q114 0 205.5 -40t147.5 -125t50 -201h-174q-2 86 -66.5 147.5t-172.5 61.5q-110 0 -209 -67t-158 -176.5t-59 -229.5
q0 -127 69.5 -202t198.5 -75q206 0 315 197h187z" />
    <glyph glyph-name="Ccircumflex" unicode="&#x108;" horiz-adv-x="1548" 
d="M928 1554h-170l268 289h160l147 -289h-153l-82 177h-13zM1425 436q-83 -208 -267.5 -332t-424.5 -124q-262 0 -415.5 154.5t-153.5 418.5q0 175 67 340.5t179.5 288.5t269.5 197.5t328 74.5q149 0 266 -54.5t184.5 -162t63.5 -252.5h-191q-8 135 -100 216t-240 81
q-163 0 -310 -100t-235 -265t-88 -346q0 -194 103.5 -306.5t286.5 -112.5q154 0 278.5 77.5t194.5 206.5h204z" />
    <glyph glyph-name="ccircumflex" unicode="&#x109;" horiz-adv-x="1175" 
d="M635 1145h-170l268 289h160l147 -289h-153l-82 176h-12zM1051 334q-65 -164 -200.5 -259t-320.5 -95q-198 0 -315 115.5t-117 305.5q0 168 83 316t226.5 237.5t309.5 89.5q114 0 205.5 -40t147.5 -125t50 -201h-174q-2 86 -66.5 147.5t-172.5 61.5q-110 0 -209 -67
t-158 -176.5t-59 -229.5q0 -127 69.5 -202t198.5 -75q206 0 315 197h187z" />
    <glyph glyph-name="Cdotaccent" unicode="&#x10a;" horiz-adv-x="1548" 
d="M1081 1597q-50 0 -85 35t-35 84t35 83t85 34q48 0 82.5 -34t34.5 -83t-34.5 -84t-82.5 -35zM1425 436q-83 -208 -267.5 -332t-424.5 -124q-262 0 -415.5 154.5t-153.5 418.5q0 175 67 340.5t179.5 288.5t269.5 197.5t328 74.5q149 0 266 -54.5t184.5 -162t63.5 -252.5
h-191q-8 135 -100 216t-240 81q-163 0 -310 -100t-235 -265t-88 -346q0 -194 103.5 -306.5t286.5 -112.5q154 0 278.5 77.5t194.5 206.5h204z" />
    <glyph glyph-name="cdotaccent" unicode="&#x10b;" horiz-adv-x="1175" 
d="M788 1188q-50 0 -85 35t-35 84t35 82.5t85 33.5q48 0 82.5 -33.5t34.5 -82.5t-34.5 -84t-82.5 -35zM1051 334q-65 -164 -200.5 -259t-320.5 -95q-198 0 -315 115.5t-117 305.5q0 168 83 316t226.5 237.5t309.5 89.5q114 0 205.5 -40t147.5 -125t50 -201h-174
q-2 86 -66.5 147.5t-172.5 61.5q-110 0 -209 -67t-158 -176.5t-59 -229.5q0 -127 69.5 -202t198.5 -75q206 0 315 197h187z" />
    <glyph glyph-name="Ccaron" unicode="&#x10c;" horiz-adv-x="1548" 
d="M1223 1843h170l-269 -289h-159l-148 289h154l84 -176h10zM1425 436q-83 -208 -267.5 -332t-424.5 -124q-262 0 -415.5 154.5t-153.5 418.5q0 175 67 340.5t179.5 288.5t269.5 197.5t328 74.5q149 0 266 -54.5t184.5 -162t63.5 -252.5h-191q-8 135 -100 216t-240 81
q-163 0 -310 -100t-235 -265t-88 -346q0 -194 103.5 -306.5t286.5 -112.5q154 0 278.5 77.5t194.5 206.5h204z" />
    <glyph glyph-name="ccaron" unicode="&#x10d;" horiz-adv-x="1175" 
d="M932 1434h170l-268 -289h-160l-148 289h154l84 -177h10zM1051 334q-65 -164 -200.5 -259t-320.5 -95q-198 0 -315 115.5t-117 305.5q0 168 83 316t226.5 237.5t309.5 89.5q114 0 205.5 -40t147.5 -125t50 -201h-174q-2 86 -66.5 147.5t-172.5 61.5q-110 0 -209 -67
t-158 -176.5t-59 -229.5q0 -127 69.5 -202t198.5 -75q206 0 315 197h187z" />
    <glyph glyph-name="Dcaron" unicode="&#x10e;" horiz-adv-x="1454" 
d="M1114 1843h170l-268 -289h-160l-147 289h153l84 -176h10zM801 1434q281 0 427 -142t146 -413q0 -144 -38.5 -276.5t-113 -241.5t-176.5 -190t-235.5 -126t-284.5 -45h-456l305 1434h426zM539 168q187 0 335.5 95.5t228 254t79.5 348.5q0 105 -29 182.5t-70.5 118
t-102 64.5t-106.5 29.5t-102 5.5h-248l-233 -1098h248z" />
    <glyph glyph-name="dcaron" unicode="&#x10f;" horiz-adv-x="1234" 
d="M991 879l123 575h178l-309 -1454h-147l14 145h-12q-151 -165 -355 -165q-174 0 -279.5 112.5t-105.5 306.5q0 170 77 318t213 237.5t298 89.5q119 0 195.5 -48.5t109.5 -116.5zM1604 1450q51 0 81.5 -33t30.5 -88q0 -95 -73.5 -195t-190.5 -165l-37 61q130 94 150 189
q-39 0 -62.5 26t-23.5 70q0 60 34.5 97.5t90.5 37.5zM524 137q80 0 155 39.5t128.5 105t86 153t32.5 179.5q0 129 -62 201t-174 72q-108 0 -202.5 -66t-149.5 -175t-55 -230q0 -130 64 -204.5t177 -74.5z" />
    <glyph glyph-name="Dcroat" unicode="&#x110;" horiz-adv-x="1454" 
d="M801 1434q281 0 427 -142t146 -413q0 -144 -38.5 -276.5t-113 -241.5t-176.5 -190t-235.5 -126t-284.5 -45h-456l137 645h-238l29 141h240l137 648h426zM539 168q187 0 335.5 95.5t228 254t79.5 348.5q0 105 -29 182.5t-70.5 118t-102 64.5t-106.5 29.5t-102 5.5h-248
l-102 -480h362l-28 -141h-363l-102 -477h248z" />
    <glyph glyph-name="dcroat" unicode="&#x111;" horiz-adv-x="1234" 
d="M1468 1296l-28 -135h-209l-248 -1161h-147l14 145h-12q-151 -165 -355 -165q-174 0 -279.5 112.5t-105.5 306.5q0 170 77 318t213 237.5t298 89.5q119 0 195.5 -48.5t109.5 -116.5l62 282h-242l27 135h243l33 158h178l-32 -158h208zM524 137q80 0 155 39.5t128.5 105
t86 153t32.5 179.5q0 129 -62 201t-174 72q-108 0 -202.5 -66t-149.5 -175t-55 -230q0 -130 64 -204.5t177 -74.5z" />
    <glyph glyph-name="Emacron" unicode="&#x112;" horiz-adv-x="1200" 
d="M584 1731h616l-26 -132h-617zM287 166h743l-35 -166h-925l305 1434h905l-35 -166h-723l-98 -459h635l-35 -162h-635z" />
    <glyph glyph-name="emacron" unicode="&#x113;" horiz-adv-x="1169" 
d="M1081 1321l-26 -131h-617l27 131h616zM694 1044q169 0 277 -98t108 -276q0 -110 -32 -201h-764q-28 -154 38 -248t207 -94q100 0 178.5 44t120.5 128h181q-66 -152 -193 -235.5t-301 -83.5q-187 0 -302.5 111t-115.5 290q0 177 80 330t218 243t300 90zM682 897
q-125 0 -228.5 -87t-140.5 -210h590q26 132 -34.5 214.5t-186.5 82.5z" />
    <glyph glyph-name="Ebreve" unicode="&#x114;" horiz-adv-x="1200" 
d="M1184 1843q-23 -105 -115 -184.5t-211 -79.5q-118 0 -177 79.5t-38 184.5h139q-14 -62 13.5 -103.5t83.5 -41.5q58 0 100.5 41t56.5 104h148zM287 166h743l-35 -166h-925l305 1434h905l-35 -166h-723l-98 -459h635l-35 -162h-635z" />
    <glyph glyph-name="ebreve" unicode="&#x115;" horiz-adv-x="1169" 
d="M739 1169q-118 0 -177 80t-38 185h140q-14 -62 13 -104t83 -42q58 0 101 41.5t57 104.5h147q-23 -105 -115 -185t-211 -80zM1047 469h-764q-28 -154 38 -248t207 -94q100 0 178.5 44t120.5 128h181q-66 -152 -193 -235.5t-301 -83.5q-187 0 -302.5 111t-115.5 290
q0 177 80 330t218 243t300 90q169 0 277 -98t108 -276q0 -110 -32 -201zM682 897q-125 0 -228.5 -87t-140.5 -210h590q26 132 -34.5 214.5t-186.5 82.5z" />
    <glyph glyph-name="Edotaccent" unicode="&#x116;" horiz-adv-x="1200" 
d="M891 1597q-50 0 -85.5 35t-35.5 84t35.5 83t85.5 34q48 0 82.5 -34t34.5 -83t-34.5 -84t-82.5 -35zM287 166h743l-35 -166h-925l305 1434h905l-35 -166h-723l-98 -459h635l-35 -162h-635z" />
    <glyph glyph-name="edotaccent" unicode="&#x117;" horiz-adv-x="1169" 
d="M772 1188q-50 0 -85.5 35t-35.5 84t35.5 82.5t85.5 33.5q48 0 82.5 -33.5t34.5 -82.5t-34.5 -84t-82.5 -35zM1047 469h-764q-28 -154 38 -248t207 -94q100 0 178.5 44t120.5 128h181q-66 -152 -193 -235.5t-301 -83.5q-187 0 -302.5 111t-115.5 290q0 177 80 330t218 243
t300 90q169 0 277 -98t108 -276q0 -110 -32 -201zM682 897q-125 0 -228.5 -87t-140.5 -210h590q26 132 -34.5 214.5t-186.5 82.5z" />
    <glyph glyph-name="Eogonek" unicode="&#x118;" horiz-adv-x="1200" 
d="M1245 1268h-723l-98 -459h635l-35 -162h-635l-102 -481h743l-35 -166q-81 -27 -129.5 -73t-48.5 -99q0 -34 28 -51t73 -17q40 0 94 13l-25 -113q-41 -14 -102 -14q-89 0 -145 38.5t-56 108.5q0 134 162 207h-776l305 1434h905z" />
    <glyph glyph-name="eogonek" unicode="&#x119;" horiz-adv-x="1169" 
d="M1047 469h-764q-28 -154 38 -248t207 -94q100 0 178.5 44t120.5 128h181q-50 -116 -137 -193t-205 -108q-78 -27 -125 -72.5t-47 -97.5q0 -34 27.5 -51t72.5 -17q40 0 94 13l-24 -113q-41 -14 -103 -14q-89 0 -145 38.5t-56 108.5q0 118 123 187q-175 10 -281 120.5
t-106 280.5q0 177 80 330t218 243t300 90q169 0 277 -98t108 -276q0 -110 -32 -201zM682 897q-125 0 -228.5 -87t-140.5 -210h590q26 132 -34.5 214.5t-186.5 82.5z" />
    <glyph glyph-name="Ecaron" unicode="&#x11a;" horiz-adv-x="1200" 
d="M1032 1843h170l-268 -289h-160l-147 289h153l84 -176h10zM287 166h743l-35 -166h-925l305 1434h905l-35 -166h-723l-98 -459h635l-35 -162h-635z" />
    <glyph glyph-name="ecaron" unicode="&#x11b;" horiz-adv-x="1169" 
d="M817 1145h-160l-147 289h154l84 -177h10l157 177h170zM694 1044q169 0 277 -98t108 -276q0 -110 -32 -201h-764q-28 -154 38 -248t207 -94q100 0 178.5 44t120.5 128h181q-66 -152 -193 -235.5t-301 -83.5q-187 0 -302.5 111t-115.5 290q0 177 80 330t218 243t300 90z
M682 897q-125 0 -228.5 -87t-140.5 -210h590q26 132 -34.5 214.5t-186.5 82.5z" />
    <glyph glyph-name="Gcircumflex" unicode="&#x11c;" horiz-adv-x="1617" 
d="M926 1554h-170l268 289h160l147 -289h-153l-82 177h-13zM858 745h631l-160 -745h-147l12 166h-14q-29 -25 -53 -44t-71.5 -48t-94.5 -47.5t-114.5 -32.5t-139.5 -14q-254 0 -399.5 150.5t-145.5 408.5q0 177 68.5 344.5t184 293t278.5 201.5t341 76q232 0 370.5 -121
t135.5 -307h-192q-12 115 -100.5 185.5t-233.5 70.5q-130 0 -252 -60.5t-211 -160t-143 -232.5t-54 -272q0 -191 101.5 -300.5t292.5 -109.5q113 0 216 37t183.5 118.5t103.5 195.5l21 98h-414v149z" />
    <glyph glyph-name="gcircumflex" unicode="&#x11d;" horiz-adv-x="1099" 
d="M733 1321l-158 -176h-169l268 289h160l147 -289h-154l-82 176h-12zM354 381q-96 -42 -96 -111q0 -37 31.5 -57t91.5 -20h197q149 0 232 -64t83 -186q0 -158 -142 -265.5t-366 -107.5q-112 0 -194.5 28.5t-128 78.5t-65.5 111t-15 132l206 148q-102 48 -102 155
q0 71 47.5 129t130.5 94q-65 75 -65 185q0 170 133.5 291.5t322.5 121.5q138 0 228 -65q51 23 107.5 63t94.5 80l76 -114q-90 -77 -198 -123q30 -59 30 -137q0 -166 -133 -285t-323 -119q-108 0 -183 37zM643 907q-109 0 -188.5 -76t-79.5 -180q0 -76 48.5 -123t133.5 -47
q108 0 186 76t78 184q0 77 -47 121.5t-131 44.5zM715 -82q0 38 -16 64.5t-43 40t-55 19t-60 5.5h-183l-206 -147q5 -85 64 -137t187 -52q132 0 222 60t90 147z" />
    <glyph glyph-name="Gbreve" unicode="&#x11e;" horiz-adv-x="1617" 
d="M1372 1843q-23 -105 -114.5 -184.5t-210.5 -79.5q-118 0 -177.5 79.5t-38.5 184.5h140q-14 -62 13 -103.5t83 -41.5q58 0 101 41t57 104h147zM858 745h631l-160 -745h-147l12 166h-14q-29 -25 -53 -44t-71.5 -48t-94.5 -47.5t-114.5 -32.5t-139.5 -14
q-254 0 -399.5 150.5t-145.5 408.5q0 177 68.5 344.5t184 293t278.5 201.5t341 76q232 0 370.5 -121t135.5 -307h-192q-12 115 -100.5 185.5t-233.5 70.5q-130 0 -252 -60.5t-211 -160t-143 -232.5t-54 -272q0 -191 101.5 -300.5t292.5 -109.5q113 0 216 37t183.5 118.5
t103.5 195.5l21 98h-414v149z" />
    <glyph glyph-name="gbreve" unicode="&#x11f;" horiz-adv-x="1099" 
d="M698 1169q-118 0 -177 80t-38 185h140q-14 -62 13 -104t83 -42q58 0 101 41.5t57 104.5h147q-23 -105 -115 -185t-211 -80zM354 381q-96 -42 -96 -111q0 -37 31.5 -57t91.5 -20h197q149 0 232 -64t83 -186q0 -158 -142 -265.5t-366 -107.5q-112 0 -194.5 28.5t-128 78.5
t-65.5 111t-15 132l206 148q-102 48 -102 155q0 71 47.5 129t130.5 94q-65 75 -65 185q0 170 133.5 291.5t322.5 121.5q138 0 228 -65q51 23 107.5 63t94.5 80l76 -114q-90 -77 -198 -123q30 -59 30 -137q0 -166 -133 -285t-323 -119q-108 0 -183 37zM643 907
q-109 0 -188.5 -76t-79.5 -180q0 -76 48.5 -123t133.5 -47q108 0 186 76t78 184q0 77 -47 121.5t-131 44.5zM715 -82q0 38 -16 64.5t-43 40t-55 19t-60 5.5h-183l-206 -147q5 -85 64 -137t187 -52q132 0 222 60t90 147z" />
    <glyph glyph-name="Gdotaccent" unicode="&#x120;" horiz-adv-x="1617" 
d="M1079 1597q-50 0 -85.5 35t-35.5 84t35.5 83t85.5 34q48 0 82.5 -34t34.5 -83t-34.5 -84t-82.5 -35zM858 745h631l-160 -745h-147l12 166h-14q-29 -25 -53 -44t-71.5 -48t-94.5 -47.5t-114.5 -32.5t-139.5 -14q-254 0 -399.5 150.5t-145.5 408.5q0 177 68.5 344.5
t184 293t278.5 201.5t341 76q232 0 370.5 -121t135.5 -307h-192q-12 115 -100.5 185.5t-233.5 70.5q-130 0 -252 -60.5t-211 -160t-143 -232.5t-54 -272q0 -191 101.5 -300.5t292.5 -109.5q113 0 216 37t183.5 118.5t103.5 195.5l21 98h-414v149z" />
    <glyph glyph-name="gdotaccent" unicode="&#x121;" horiz-adv-x="1099" 
d="M729 1188q-50 0 -85.5 35t-35.5 84t35.5 82.5t85.5 33.5q48 0 82.5 -33.5t34.5 -82.5t-34.5 -84t-82.5 -35zM354 381q-96 -42 -96 -111q0 -37 31.5 -57t91.5 -20h197q149 0 232 -64t83 -186q0 -158 -142 -265.5t-366 -107.5q-112 0 -194.5 28.5t-128 78.5t-65.5 111
t-15 132l206 148q-102 48 -102 155q0 71 47.5 129t130.5 94q-65 75 -65 185q0 170 133.5 291.5t322.5 121.5q138 0 228 -65q51 23 107.5 63t94.5 80l76 -114q-90 -77 -198 -123q30 -59 30 -137q0 -166 -133 -285t-323 -119q-108 0 -183 37zM643 907q-109 0 -188.5 -76
t-79.5 -180q0 -76 48.5 -123t133.5 -47q108 0 186 76t78 184q0 77 -47 121.5t-131 44.5zM715 -82q0 38 -16 64.5t-43 40t-55 19t-60 5.5h-183l-206 -147q5 -85 64 -137t187 -52q132 0 222 60t90 147z" />
    <glyph glyph-name="uni0122" unicode="&#x122;" horiz-adv-x="1617" 
d="M858 745h631l-160 -745h-147l12 166h-14q-29 -25 -53 -44t-71.5 -48t-94.5 -47.5t-114.5 -32.5t-139.5 -14q-254 0 -399.5 150.5t-145.5 408.5q0 177 68.5 344.5t184 293t278.5 201.5t341 76q232 0 370.5 -121t135.5 -307h-192q-12 115 -100.5 185.5t-233.5 70.5
q-130 0 -252 -60.5t-211 -160t-143 -232.5t-54 -272q0 -191 101.5 -300.5t292.5 -109.5q113 0 216 37t183.5 118.5t103.5 195.5l21 98h-414v149zM662 -123q54 0 86 -31.5t32 -85.5q0 -95 -76.5 -193t-199.5 -163l-39 59q135 92 158 187q-41 0 -67 26t-26 68q0 59 37 96
t95 37z" />
    <glyph glyph-name="uni0123" unicode="&#x123;" horiz-adv-x="1099" 
d="M715 1147q-54 0 -86.5 31.5t-32.5 85.5q0 95 77 193t199 163l39 -59q-134 -91 -157 -187q41 0 66.5 -25.5t25.5 -68.5q0 -60 -37 -96.5t-94 -36.5zM354 381q-96 -42 -96 -111q0 -37 31.5 -57t91.5 -20h197q149 0 232 -64t83 -186q0 -158 -142 -265.5t-366 -107.5
q-112 0 -194.5 28.5t-128 78.5t-65.5 111t-15 132l206 148q-102 48 -102 155q0 71 47.5 129t130.5 94q-65 75 -65 185q0 170 133.5 291.5t322.5 121.5q138 0 228 -65q51 23 107.5 63t94.5 80l76 -114q-90 -77 -198 -123q30 -59 30 -137q0 -166 -133 -285t-323 -119
q-108 0 -183 37zM643 907q-109 0 -188.5 -76t-79.5 -180q0 -76 48.5 -123t133.5 -47q108 0 186 76t78 184q0 77 -47 121.5t-131 44.5zM715 -82q0 38 -16 64.5t-43 40t-55 19t-60 5.5h-183l-206 -147q5 -85 64 -137t187 -52q132 0 222 60t90 147z" />
    <glyph glyph-name="Hcircumflex" unicode="&#x124;" horiz-adv-x="1427" 
d="M815 1554h-170l268 289h160l148 -289h-154l-82 177h-12zM1262 1434h184l-305 -1434h-185l136 641h-701l-135 -641h-186l305 1434h186l-133 -625h698z" />
    <glyph glyph-name="hcircumflex" unicode="&#x125;" horiz-adv-x="1148" 
d="M340 1554h-170l268 289h160l147 -289h-153l-82 177h-12zM737 1044q170 0 253 -106t42 -301l-135 -637h-178l127 604q31 140 -20 211.5t-158 71.5q-112 0 -205 -76.5t-125 -226.5l-125 -584h-178l309 1454h178l-116 -553h12q42 44 79.5 71.5t101 49.5t138.5 22z" />
    <glyph glyph-name="Hbar" unicode="&#x126;" horiz-adv-x="1427" 
d="M1262 1434h184l-305 -1434h-185l136 641h-701l-135 -641h-186l305 1434h186l-51 -244h698zM1126 809l52 238h-699l-51 -238h698z" />
    <glyph glyph-name="hbar" unicode="&#x127;" horiz-adv-x="1148" 
d="M737 1044q170 0 253 -106t42 -301l-135 -637h-178l127 604q31 140 -20 211.5t-158 71.5q-112 0 -205 -76.5t-125 -226.5l-125 -584h-178l248 1161h-205l28 135h205l33 158h178l-33 -158h246l-26 -135h-248l-55 -260h12q42 44 79.5 71.5t101 49.5t138.5 22z" />
    <glyph glyph-name="Itilde" unicode="&#x128;" horiz-adv-x="542" 
d="M895 1776q-29 -105 -90.5 -173.5t-151.5 -68.5q-43 0 -77 13.5t-56 32t-41 37.5t-41 32.5t-47 13.5q-87 0 -121 -113h-129q33 108 94 176t152 68q44 0 79 -13.5t56 -33t39 -38.5t39.5 -32.5t46.5 -13.5q44 0 75 32.5t46 80.5h127zM561 1434l-305 -1434h-186l305 1434h186
z" />
    <glyph glyph-name="itilde" unicode="&#x129;" horiz-adv-x="464" 
d="M766 1366q-29 -105 -90.5 -173.5t-151.5 -68.5q-43 0 -77 13.5t-56 32t-41 37.5t-41 32.5t-47 13.5q-87 0 -121 -112h-129q33 108 93.5 175.5t152.5 67.5q44 0 79 -13.5t56 -33t39 -38.5t39.5 -32.5t46.5 -13.5q44 0 75 32.5t46 80.5h127zM430 1024l-217 -1024h-178
l217 1024h178z" />
    <glyph glyph-name="Imacron" unicode="&#x12a;" horiz-adv-x="542" 
d="M223 1731h617l-27 -132h-616zM561 1434l-305 -1434h-186l305 1434h186z" />
    <glyph glyph-name="imacron" unicode="&#x12b;" horiz-adv-x="464" 
d="M96 1321h617l-27 -131h-616zM430 1024l-217 -1024h-178l217 1024h178z" />
    <glyph glyph-name="Ibreve" unicode="&#x12c;" horiz-adv-x="542" 
d="M823 1843q-23 -105 -114.5 -184.5t-210.5 -79.5q-118 0 -177 79.5t-38 184.5h139q-14 -62 13 -103.5t83 -41.5q58 0 101 41t57 104h147zM561 1434l-305 -1434h-186l305 1434h186z" />
    <glyph glyph-name="ibreve" unicode="&#x12d;" horiz-adv-x="464" 
d="M696 1434q-23 -105 -114.5 -185t-210.5 -80q-118 0 -177 80t-38 185h139q-14 -62 13 -104t83 -42q58 0 101 41.5t57 104.5h147zM430 1024l-217 -1024h-178l217 1024h178z" />
    <glyph glyph-name="Iogonek" unicode="&#x12e;" horiz-adv-x="542" 
d="M78 -172q0 -34 27.5 -51t72.5 -17q40 0 94 13l-24 -113q-41 -14 -103 -14q-89 0 -144.5 38.5t-55.5 108.5q0 134 161 207h-36l305 1434h186l-305 -1434q-81 -27 -129.5 -73t-48.5 -99z" />
    <glyph glyph-name="iogonek" unicode="&#x12f;" horiz-adv-x="464" 
d="M403 1423q48 0 82.5 -33.5t34.5 -82.5t-34.5 -84t-82.5 -35q-50 0 -85 35t-35 84t35 82.5t85 33.5zM213 0q-81 -27 -129.5 -73t-48.5 -99q0 -34 27.5 -51t72.5 -17q40 0 94 13l-24 -113q-41 -14 -103 -14q-89 0 -144.5 38.5t-55.5 108.5q0 134 161 207h-28l217 1024h178z
" />
    <glyph glyph-name="Idotaccent" unicode="&#x130;" horiz-adv-x="542" 
d="M530 1597q-50 0 -85 35t-35 84t35 83t85 34q48 0 82.5 -34t34.5 -83t-34.5 -84t-82.5 -35zM561 1434l-305 -1434h-186l305 1434h186z" />
    <glyph glyph-name="dotlessi" unicode="&#x131;" horiz-adv-x="464" 
d="M430 1024l-217 -1024h-178l217 1024h178z" />
    <glyph glyph-name="IJ" unicode="&#x132;" horiz-adv-x="1624" 
d="M561 1434l-305 -1434h-186l305 1434h186zM772 412q-20 -112 27 -186t153 -74q105 0 182 71t107 213l213 998h186l-215 -1008q-46 -218 -177 -332t-318 -114q-198 0 -291 120t-59 312h192z" />
    <glyph glyph-name="ij" unicode="&#x133;" horiz-adv-x="948" 
d="M403 1188q-50 0 -85 35t-35 84t35 82.5t85 33.5q48 0 82.5 -33.5t34.5 -82.5t-34.5 -84t-82.5 -35zM858 1188q-50 0 -85.5 35t-35.5 84t35.5 82.5t85.5 33.5t84.5 -33.5t34.5 -82.5t-34.5 -84t-84.5 -35zM430 1024l-217 -1024h-178l217 1024h178zM199 -270q54 -15 98 -15
q132 0 160 129l250 1180h180l-256 -1202q-55 -252 -305 -252q-83 0 -156 22z" />
    <glyph glyph-name="Jcircumflex" unicode="&#x134;" horiz-adv-x="1101" 
d="M936 1554h-170l268 289h160l147 -289h-153l-82 177h-12zM252 412q-20 -112 27 -186t153 -74q105 0 182 71t107 213l213 998h186l-215 -1008q-46 -218 -177 -332t-318 -114q-198 0 -291.5 120t-59.5 312h193z" />
    <glyph glyph-name="jcircumflex" unicode="&#x135;" horiz-adv-x="466" 
d="M250 1145h-170l268 289h160l147 -289h-153l-82 176h-12zM-258 -270q58 -15 98 -15q132 0 160 129l252 1180h178l-254 -1202q-55 -252 -305 -252q-81 0 -158 22z" />
    <glyph glyph-name="uni0136" unicode="&#x136;" horiz-adv-x="1275" 
d="M903 0l-399 651h-111l-137 -651h-186l305 1434h186l-131 -615h109l604 615h221l-682 -705v-10l430 -719h-209zM526 -123q54 0 86.5 -31.5t32.5 -85.5q0 -95 -76.5 -193t-199.5 -163l-39 59q134 91 157 187q-41 0 -66.5 25.5t-25.5 68.5q0 60 36.5 96.5t94.5 36.5z" />
    <glyph glyph-name="uni0137" unicode="&#x137;" horiz-adv-x="1046" 
d="M1112 1024l-506 -414l289 -610h-186l-242 498l-178 -146l-76 -352h-178l309 1454h178l-180 -858h14l533 428h223zM403 -123q54 0 86.5 -31.5t32.5 -85.5q0 -95 -76.5 -193t-199.5 -163l-39 59q135 92 158 187q-41 0 -67 26t-26 68q0 60 37 96.5t94 36.5z" />
    <glyph glyph-name="Lacute" unicode="&#x139;" horiz-adv-x="1179" 
d="M612 1843h170l-221 -297h-153zM289 168h737l-37 -168h-919l305 1434h182z" />
    <glyph glyph-name="lacute" unicode="&#x13a;" horiz-adv-x="464" 
d="M582 1843h170l-222 -297h-153zM344 1454h178l-309 -1454h-178z" />
    <glyph glyph-name="uni013B" unicode="&#x13b;" horiz-adv-x="1179" 
d="M289 168h737l-37 -168h-919l305 1434h182zM475 -123q54 0 86.5 -31.5t32.5 -85.5q0 -95 -76.5 -193t-200.5 -163l-38 59q134 91 157 187q-41 0 -66.5 25.5t-25.5 68.5q0 60 37 96.5t94 36.5z" />
    <glyph glyph-name="uni013C" unicode="&#x13c;" horiz-adv-x="464" 
d="M344 1454h178l-309 -1454h-178zM76 -123q54 0 86.5 -31.5t32.5 -85.5q0 -95 -76.5 -193t-200.5 -163l-39 59q135 92 158 187q-41 0 -66.5 25.5t-25.5 68.5q0 60 36.5 96.5t94.5 36.5z" />
    <glyph glyph-name="Lcaron" unicode="&#x13d;" horiz-adv-x="1179" 
d="M874 1450q51 0 82 -33t31 -88q0 -95 -73.5 -195t-190.5 -165l-37 61q130 94 150 189q-39 0 -62.5 26t-23.5 70q0 60 34.5 97.5t89.5 37.5zM289 168h737l-37 -168h-919l305 1434h182z" />
    <glyph glyph-name="lcaron" unicode="&#x13e;" horiz-adv-x="464" 
d="M344 1454h178l-309 -1454h-178zM836 1450q51 0 81.5 -33t30.5 -88q0 -95 -73.5 -195t-190.5 -165l-37 61q130 94 150 189q-39 0 -62.5 26t-23.5 70q0 60 34.5 97.5t90.5 37.5z" />
    <glyph glyph-name="Ldot" unicode="&#x13f;" horiz-adv-x="1179" 
d="M289 168h737l-37 -168h-919l305 1434h182zM799 715q-50 0 -85.5 35t-35.5 84t35.5 82.5t85.5 33.5t84.5 -33.5t34.5 -82.5q0 -50 -35 -84.5t-84 -34.5z" />
    <glyph glyph-name="ldot" unicode="&#x140;" horiz-adv-x="464" 
d="M492 1597q-50 0 -85.5 35t-35.5 84t35.5 83t85.5 34q48 0 82 -34t34 -83t-34.5 -84t-81.5 -35zM344 1454h178l-309 -1454h-178z" />
    <glyph glyph-name="Lslash" unicode="&#x141;" horiz-adv-x="1179" 
d="M289 168h737l-37 -168h-919l123 578l-355 -148l70 168l317 131l150 705h182l-131 -621l440 182l-73 -170l-400 -166z" />
    <glyph glyph-name="lslash" unicode="&#x142;" horiz-adv-x="464" 
d="M608 963l-37 -168l-211 -105l-147 -690h-178l127 594l-213 -105l37 166l211 105l147 694h178l-127 -596z" />
    <glyph glyph-name="Nacute" unicode="&#x143;" horiz-adv-x="1511" 
d="M1106 1843h170l-221 -297h-154zM1348 1434h182l-305 -1434h-181l-540 1118h-15l-237 -1118h-182l305 1434h182l539 -1119h14z" />
    <glyph glyph-name="nacute" unicode="&#x144;" horiz-adv-x="1148" 
d="M834 1434h170l-222 -297h-153zM737 1044q170 0 253 -106t42 -301l-135 -637h-178l127 604q31 140 -20 211.5t-158 71.5q-112 0 -205 -76.5t-125 -226.5l-125 -584h-178l217 1024h162l-8 -123h12q42 44 79.5 71.5t101 49.5t138.5 22z" />
    <glyph glyph-name="uni0145" unicode="&#x145;" horiz-adv-x="1511" 
d="M1348 1434h182l-305 -1434h-181l-540 1118h-15l-237 -1118h-182l305 1434h182l539 -1119h14zM598 -123q54 0 86.5 -31.5t32.5 -85.5q0 -95 -76.5 -193t-200.5 -163l-39 59q135 92 158 187q-41 0 -66.5 25.5t-25.5 68.5q0 60 36.5 96.5t94.5 36.5z" />
    <glyph glyph-name="uni0146" unicode="&#x146;" horiz-adv-x="1148" 
d="M737 1044q170 0 253 -106t42 -301l-135 -637h-178l127 604q31 140 -20 211.5t-158 71.5q-112 0 -205 -76.5t-125 -226.5l-125 -584h-178l217 1024h162l-8 -123h12q42 44 79.5 71.5t101 49.5t138.5 22zM416 -123q54 0 86.5 -31.5t32.5 -85.5q0 -95 -76.5 -193t-200.5 -163
l-39 59q135 92 158 187q-41 0 -66.5 25.5t-25.5 68.5q0 60 36.5 96.5t94.5 36.5z" />
    <glyph glyph-name="Ncaron" unicode="&#x147;" horiz-adv-x="1511" 
d="M1157 1843h170l-268 -289h-160l-147 289h153l84 -176h10zM1348 1434h182l-305 -1434h-181l-540 1118h-15l-237 -1118h-182l305 1434h182l539 -1119h14z" />
    <glyph glyph-name="ncaron" unicode="&#x148;" horiz-adv-x="1148" 
d="M887 1434h170l-269 -289h-159l-148 289h154l84 -177h10zM737 1044q170 0 253 -106t42 -301l-135 -637h-178l127 604q31 140 -20 211.5t-158 71.5q-112 0 -205 -76.5t-125 -226.5l-125 -584h-178l217 1024h162l-8 -123h12q42 44 79.5 71.5t101 49.5t138.5 22z" />
    <glyph glyph-name="Eng" unicode="&#x14a;" horiz-adv-x="1511" 
d="M868 -430q-74 0 -147 22l29 138q62 -15 100 -15q64 0 106.5 35.5t57.5 102.5l30 147l-540 1118h-15l-237 -1118h-182l305 1434h182l539 -1119h14l238 1119h182l-340 -1596q-28 -134 -115 -201t-207 -67z" />
    <glyph glyph-name="eng" unicode="&#x14b;" horiz-adv-x="1148" 
d="M737 1044q170 0 253 -106t42 -301l-170 -799q-28 -134 -113.5 -201t-205.5 -67q-73 0 -150 22l29 138q66 -15 102 -15q64 0 106.5 35.5t55.5 102.5l160 751q31 140 -20 211.5t-158 71.5q-112 0 -205 -76.5t-125 -226.5l-125 -584h-178l217 1024h162l-8 -123h12
q42 44 79.5 71.5t101 49.5t138.5 22z" />
    <glyph glyph-name="Omacron" unicode="&#x14c;" horiz-adv-x="1697" 
d="M801 1731h616l-26 -132h-617zM760 -20q-266 0 -430 163t-164 426q0 134 44 266t124 242.5t185.5 195.5t236.5 133t268 48q266 0 431 -164.5t165 -427.5q0 -170 -70 -332t-186 -282.5t-275 -194t-329 -73.5zM772 152q127 0 248.5 59.5t210 155.5t142.5 222.5t54 256.5
q0 195 -113.5 315.5t-301.5 120.5q-127 0 -248.5 -59.5t-209.5 -156t-142 -223.5t-54 -257q0 -193 113 -313.5t301 -120.5z" />
    <glyph glyph-name="omacron" unicode="&#x14d;" horiz-adv-x="1255" 
d="M494 1321h616l-27 -131h-616zM535 -20q-195 0 -315 120t-120 314q0 164 84 309t228.5 233t310.5 88q194 0 313 -119.5t119 -312.5q0 -164 -83.5 -309.5t-227.5 -234t-309 -88.5zM547 137q110 0 209.5 65.5t159 173t59.5 226.5q0 125 -71.5 205t-194.5 80
q-110 0 -208.5 -65t-157 -172t-58.5 -226q0 -128 69.5 -207.5t192.5 -79.5z" />
    <glyph glyph-name="Obreve" unicode="&#x14e;" horiz-adv-x="1697" 
d="M1401 1843q-23 -105 -115 -184.5t-211 -79.5q-118 0 -177 79.5t-38 184.5h139q-14 -62 13.5 -103.5t83.5 -41.5q58 0 100.5 41t56.5 104h148zM760 -20q-266 0 -430 163t-164 426q0 134 44 266t124 242.5t185.5 195.5t236.5 133t268 48q266 0 431 -164.5t165 -427.5
q0 -170 -70 -332t-186 -282.5t-275 -194t-329 -73.5zM772 152q127 0 248.5 59.5t210 155.5t142.5 222.5t54 256.5q0 195 -113.5 315.5t-301.5 120.5q-127 0 -248.5 -59.5t-209.5 -156t-142 -223.5t-54 -257q0 -193 113 -313.5t301 -120.5z" />
    <glyph glyph-name="obreve" unicode="&#x14f;" horiz-adv-x="1255" 
d="M1096 1434q-23 -105 -115 -185t-211 -80q-118 0 -177 80t-38 185h139q-14 -62 13.5 -104t83.5 -42q58 0 100.5 41t56.5 105h148zM535 -20q-195 0 -315 120t-120 314q0 164 84 309t228.5 233t310.5 88q194 0 313 -119.5t119 -312.5q0 -164 -83.5 -309.5t-227.5 -234
t-309 -88.5zM547 137q110 0 209.5 65.5t159 173t59.5 226.5q0 125 -71.5 205t-194.5 80q-110 0 -208.5 -65t-157 -172t-58.5 -226q0 -128 69.5 -207.5t192.5 -79.5z" />
    <glyph glyph-name="Ohungarumlaut" unicode="&#x150;" horiz-adv-x="1697" 
d="M1018 1843h166l-195 -297h-153zM1333 1843h164l-194 -297h-152zM760 -20q-266 0 -430 163t-164 426q0 134 44 266t124 242.5t185.5 195.5t236.5 133t268 48q266 0 431 -164.5t165 -427.5q0 -170 -70 -332t-186 -282.5t-275 -194t-329 -73.5zM772 152q127 0 248.5 59.5
t210 155.5t142.5 222.5t54 256.5q0 195 -113.5 315.5t-301.5 120.5q-127 0 -248.5 -59.5t-209.5 -156t-142 -223.5t-54 -257q0 -193 113 -313.5t301 -120.5z" />
    <glyph glyph-name="ohungarumlaut" unicode="&#x151;" horiz-adv-x="1255" 
d="M713 1434h166l-195 -297h-154zM1028 1434h164l-195 -297h-151zM535 -20q-195 0 -315 120t-120 314q0 164 84 309t228.5 233t310.5 88q194 0 313 -119.5t119 -312.5q0 -164 -83.5 -309.5t-227.5 -234t-309 -88.5zM547 137q110 0 209.5 65.5t159 173t59.5 226.5
q0 125 -71.5 205t-194.5 80q-110 0 -208.5 -65t-157 -172t-58.5 -226q0 -128 69.5 -207.5t192.5 -79.5z" />
    <glyph glyph-name="OE" unicode="&#x152;" horiz-adv-x="2304" 
d="M2349 1268h-692l-98 -459h604l-35 -162h-604l-103 -481h713l-35 -166h-895l47 213q-106 -109 -240.5 -171t-279.5 -62q-254 0 -409.5 163t-155.5 426q0 134 42 266t118.5 242.5t176.5 195.5t225 133t255 48q160 0 282.5 -73.5t188.5 -202.5l55 256h875zM748 152
q121 0 235.5 59.5t198 155.5t134 222.5t50.5 256.5q0 195 -107 315.5t-284 120.5q-121 0 -235.5 -59.5t-197.5 -156t-133.5 -223.5t-50.5 -257q0 -193 107 -313.5t283 -120.5z" />
    <glyph glyph-name="oe" unicode="&#x153;" horiz-adv-x="1609" 
d="M1485 465h-557q-8 -35 -12.5 -67.5t-7 -74t5 -75.5t22.5 -64t46 -46.5t75 -16.5q71 0 133.5 41t93.5 135h166q-50 -162 -159 -239.5t-247 -77.5q-223 0 -282 170q-69 -81 -156 -125.5t-182 -44.5q-146 0 -238 103.5t-92 272.5q0 138 41.5 265t111 220t167 148t204.5 55
q98 0 175 -46.5t116 -133.5q134 180 326 180q58 0 108 -17t92 -53t66.5 -100t24.5 -151q0 -140 -41 -258zM1223 903q-86 0 -155.5 -76.5t-109.5 -228.5h392q33 163 -5 234t-122 71zM442 127q84 0 161.5 75.5t125 201t47.5 262.5q0 110 -45 170.5t-125 60.5
q-85 0 -162.5 -75.5t-124.5 -200.5t-47 -263q0 -109 44.5 -170t125.5 -61z" />
    <glyph glyph-name="Racute" unicode="&#x154;" horiz-adv-x="1275" 
d="M1171 1843l-221 -297h-153l204 297h170zM1251 1090q0 -168 -109 -295t-294 -168l239 -627h-190l-225 602h-291l-129 -602h-182l305 1434h485q183 0 287 -90t104 -254zM713 764q155 0 251.5 88.5t96.5 218.5q0 98 -63 149.5t-177 51.5h-299l-108 -508h299z" />
    <glyph glyph-name="racute" unicode="&#x155;" horiz-adv-x="729" 
d="M676 1434h170l-221 -297h-154zM731 1044h70l-37 -180q-31 4 -92 4q-127 0 -220 -92t-124 -239l-115 -537h-178l217 1024h162l-13 -141h15q64 81 134 121t181 40z" />
    <glyph glyph-name="uni0156" unicode="&#x156;" horiz-adv-x="1275" 
d="M1251 1090q0 -168 -109 -295t-294 -168l239 -627h-190l-225 602h-291l-129 -602h-182l305 1434h485q183 0 287 -90t104 -254zM713 764q155 0 251.5 88.5t96.5 218.5q0 98 -63 149.5t-177 51.5h-299l-108 -508h299zM518 -123q54 0 86.5 -31.5t32.5 -85.5q0 -95 -76.5 -193
t-200.5 -163l-38 59q134 91 157 187q-41 0 -66.5 25.5t-25.5 68.5q0 60 36.5 96.5t94.5 36.5z" />
    <glyph glyph-name="uni0157" unicode="&#x157;" horiz-adv-x="729" 
d="M731 1044h70l-37 -180q-31 4 -92 4q-127 0 -220 -92t-124 -239l-115 -537h-178l217 1024h162l-13 -141h15q64 81 134 121t181 40zM74 -123q54 0 86.5 -31.5t32.5 -85.5q0 -95 -76.5 -193t-200.5 -163l-39 59q135 92 158 187q-41 0 -66.5 25.5t-25.5 68.5q0 60 36.5 96.5
t94.5 36.5z" />
    <glyph glyph-name="Rcaron" unicode="&#x158;" horiz-adv-x="1275" 
d="M954 1554h-159l-148 289h154l84 -176h10l158 176h170zM1251 1090q0 -168 -109 -295t-294 -168l239 -627h-190l-225 602h-291l-129 -602h-182l305 1434h485q183 0 287 -90t104 -254zM713 764q155 0 251.5 88.5t96.5 218.5q0 98 -63 149.5t-177 51.5h-299l-108 -508h299z
" />
    <glyph glyph-name="rcaron" unicode="&#x159;" horiz-adv-x="729" 
d="M729 1434h170l-268 -289h-160l-147 289h153l84 -177h10zM731 1044h70l-37 -180q-31 4 -92 4q-127 0 -220 -92t-124 -239l-115 -537h-178l217 1024h162l-13 -141h15q64 81 134 121t181 40z" />
    <glyph glyph-name="Sacute" unicode="&#x15a;" horiz-adv-x="1243" 
d="M985 1843h170l-221 -297h-154zM1081 436q0 -197 -151 -326.5t-395 -129.5q-220 0 -335 114.5t-87 315.5h182q-11 -129 56 -199t202 -70q148 0 242 78.5t94 198.5q0 25 -5.5 47.5t-12 39.5t-22 33.5t-25.5 27t-34.5 23.5t-35.5 19t-41 17.5t-40 15t-44 14.5l-51 17
q-44 15 -80.5 31t-77.5 44.5t-68.5 61.5t-46 83t-18.5 109q0 122 68 225.5t190.5 165.5t271.5 62q204 0 314 -114.5t81 -290.5h-180q11 107 -46.5 175t-180.5 68q-133 0 -230.5 -79t-97.5 -185q0 -31 8.5 -57.5t27.5 -46.5t37.5 -34.5t49 -28t51 -21t54.5 -19.5q8 -3 12 -4
l43 -14q45 -15 80 -29.5t83.5 -45.5t80 -68t54.5 -95.5t23 -128.5z" />
    <glyph glyph-name="sacute" unicode="&#x15b;" horiz-adv-x="983" 
d="M733 1434h170l-221 -297h-154zM827 326q0 -159 -113 -252.5t-304 -93.5t-280 90.5t-67 240.5h173q-11 -100 41 -145t147 -45q97 0 161 48t64 126q0 32 -14 57.5t-41 43.5t-52 29.5t-61 23.5l-51 16q-246 72 -246 242q0 147 114.5 242t285.5 95q90 0 157 -25t103.5 -67
t51 -93t7.5 -107h-172q8 68 -35.5 109.5t-124.5 41.5q-88 0 -149.5 -49.5t-61.5 -122.5q0 -12 2.5 -22.5t6 -19t11 -16.5t13 -13.5t17.5 -12.5t18.5 -10.5t22.5 -9.5t23 -9t25 -9.5t25 -8.5l41 -12q54 -17 97 -38t82.5 -51.5t61 -74.5t21.5 -98z" />
    <glyph glyph-name="Scircumflex" unicode="&#x15c;" horiz-adv-x="1243" 
d="M741 1554h-170l269 289h159l148 -289h-154l-82 177h-12zM1081 436q0 -197 -151 -326.5t-395 -129.5q-220 0 -335 114.5t-87 315.5h182q-11 -129 56 -199t202 -70q148 0 242 78.5t94 198.5q0 25 -5.5 47.5t-12 39.5t-22 33.5t-25.5 27t-34.5 23.5t-35.5 19t-41 17.5
t-40 15t-44 14.5l-51 17q-44 15 -80.5 31t-77.5 44.5t-68.5 61.5t-46 83t-18.5 109q0 122 68 225.5t190.5 165.5t271.5 62q204 0 314 -114.5t81 -290.5h-180q11 107 -46.5 175t-180.5 68q-133 0 -230.5 -79t-97.5 -185q0 -31 8.5 -57.5t27.5 -46.5t37.5 -34.5t49 -28t51 -21
t54.5 -19.5q8 -3 12 -4l43 -14q45 -15 80 -29.5t83.5 -45.5t80 -68t54.5 -95.5t23 -128.5z" />
    <glyph glyph-name="scircumflex" unicode="&#x15d;" horiz-adv-x="983" 
d="M489 1145h-170l269 289h160l147 -289h-154l-82 176h-12zM827 326q0 -159 -113 -252.5t-304 -93.5t-280 90.5t-67 240.5h173q-11 -100 41 -145t147 -45q97 0 161 48t64 126q0 32 -14 57.5t-41 43.5t-52 29.5t-61 23.5l-51 16q-246 72 -246 242q0 147 114.5 242t285.5 95
q90 0 157 -25t103.5 -67t51 -93t7.5 -107h-172q8 68 -35.5 109.5t-124.5 41.5q-88 0 -149.5 -49.5t-61.5 -122.5q0 -12 2.5 -22.5t6 -19t11 -16.5t13 -13.5t17.5 -12.5t18.5 -10.5t22.5 -9.5t23 -9t25 -9.5t25 -8.5l41 -12q54 -17 97 -38t82.5 -51.5t61 -74.5t21.5 -98z" />
    <glyph glyph-name="Scedilla" unicode="&#x15e;" horiz-adv-x="1243" 
d="M1212 1049h-180q11 107 -46.5 175t-180.5 68q-133 0 -230.5 -79t-97.5 -185q0 -31 8.5 -57.5t27.5 -46.5t37.5 -34.5t49 -28t51 -21t54.5 -19.5q8 -3 12 -4l43 -14q45 -15 80 -29.5t83.5 -45.5t80 -68t54.5 -95.5t23 -128.5q0 -190 -141.5 -318t-372.5 -138l-63 -70
q66 5 118 -35t52 -106q0 -90 -66.5 -144.5t-173.5 -54.5q-95 0 -145 43l53 82q57 -33 100 -33q53 0 89 30.5t36 74.5q0 29 -23.5 47t-68.5 18q-30 0 -76 -16l-49 51l107 117q-184 21 -276 132.5t-68 293.5h182q-11 -129 56 -199t202 -70q148 0 242 78.5t94 198.5
q0 25 -5.5 47.5t-12 39.5t-22 33.5t-25.5 27t-34.5 23.5t-35.5 19t-41 17.5t-40 15t-44 14.5l-51 17q-44 15 -80.5 31t-77.5 44.5t-68.5 61.5t-46 83t-18.5 109q0 122 68 225.5t190.5 165.5t271.5 62q204 0 314 -114.5t81 -290.5z" />
    <glyph glyph-name="scedilla" unicode="&#x15f;" horiz-adv-x="983" 
d="M903 752h-172q8 68 -35.5 109.5t-124.5 41.5q-88 0 -149.5 -49.5t-61.5 -122.5q0 -12 2.5 -22.5t6 -19t11 -16.5t13 -13.5t17.5 -12.5t18.5 -10.5t22.5 -9.5t23 -9t25 -9.5t25 -8.5l41 -12q54 -17 97 -38t82.5 -51.5t61 -74.5t21.5 -98q0 -153 -105 -245.5t-286 -100.5
l-63 -70q66 5 118 -35t52 -106q0 -90 -66.5 -144.5t-173.5 -54.5q-95 0 -145 43l53 82q57 -33 100 -33q53 0 89 30.5t36 74.5q0 29 -23.5 47t-68.5 18q-30 0 -76 -16l-49 51l107 119q-149 20 -215.5 107t-47.5 218h173q-11 -100 41 -145t147 -45q97 0 161 48t64 126
q0 32 -14 57.5t-41 43.5t-52 29.5t-61 23.5l-51 16q-246 72 -246 242q0 147 114.5 242t285.5 95q90 0 157 -25t103.5 -67t51 -93t7.5 -107z" />
    <glyph glyph-name="Scaron" unicode="&#x160;" horiz-adv-x="1243" 
d="M1036 1843h170l-268 -289h-160l-147 289h153l84 -176h11zM1081 436q0 -197 -151 -326.5t-395 -129.5q-220 0 -335 114.5t-87 315.5h182q-11 -129 56 -199t202 -70q148 0 242 78.5t94 198.5q0 25 -5.5 47.5t-12 39.5t-22 33.5t-25.5 27t-34.5 23.5t-35.5 19t-41 17.5
t-40 15t-44 14.5l-51 17q-44 15 -80.5 31t-77.5 44.5t-68.5 61.5t-46 83t-18.5 109q0 122 68 225.5t190.5 165.5t271.5 62q204 0 314 -114.5t81 -290.5h-180q11 107 -46.5 175t-180.5 68q-133 0 -230.5 -79t-97.5 -185q0 -31 8.5 -57.5t27.5 -46.5t37.5 -34.5t49 -28t51 -21
t54.5 -19.5q8 -3 12 -4l43 -14q45 -15 80 -29.5t83.5 -45.5t80 -68t54.5 -95.5t23 -128.5z" />
    <glyph glyph-name="scaron" unicode="&#x161;" horiz-adv-x="983" 
d="M784 1434h170l-268 -289h-160l-147 289h153l84 -177h11zM827 326q0 -159 -113 -252.5t-304 -93.5t-280 90.5t-67 240.5h173q-11 -100 41 -145t147 -45q97 0 161 48t64 126q0 32 -14 57.5t-41 43.5t-52 29.5t-61 23.5l-51 16q-246 72 -246 242q0 147 114.5 242t285.5 95
q90 0 157 -25t103.5 -67t51 -93t7.5 -107h-172q8 68 -35.5 109.5t-124.5 41.5q-88 0 -149.5 -49.5t-61.5 -122.5q0 -12 2.5 -22.5t6 -19t11 -16.5t13 -13.5t17.5 -12.5t18.5 -10.5t22.5 -9.5t23 -9t25 -9.5t25 -8.5l41 -12q54 -17 97 -38t82.5 -51.5t61 -74.5t21.5 -98z" />
    <glyph glyph-name="uni0162" unicode="&#x162;" horiz-adv-x="1177" 
d="M573 0h-34l-82 -90q66 5 118 -35t52 -106q0 -90 -66.5 -144.5t-173.5 -54.5q-95 0 -145 43l53 82q57 -33 100 -33q53 0 89 30.5t36 74.5q0 29 -23.5 47t-68.5 18q-30 0 -76 -16l-49 51l121 133h-37l270 1266h-415l37 168h1013l-35 -168h-415z" />
    <glyph glyph-name="uni0163" unicode="&#x163;" horiz-adv-x="733" 
d="M516 879l-131 -623q-28 -129 100 -129q52 0 105 16l-29 -141q-86 -22 -143 -22h-23l-63 -70q66 5 118 -35t52 -106q0 -90 -66.5 -144.5t-173.5 -54.5q-95 0 -145 43l53 82q57 -33 100 -33q53 0 89 30.5t36 74.5q0 29 -23.5 47t-68.5 18q-30 0 -76 -16l-49 51l121 133
q-72 28 -93.5 91t-6.5 140l137 648h-217l31 145h69q88 0 132.5 32.5t64.5 119.5l26 127h164l-59 -279h256l-33 -145h-254z" />
    <glyph glyph-name="Tcaron" unicode="&#x164;" horiz-adv-x="1177" 
d="M893 1554h-160l-147 289h153l84 -176h11l157 176h170zM1292 1434l-35 -168h-415l-269 -1266h-186l270 1266h-415l37 168h1013z" />
    <glyph glyph-name="tcaron" unicode="&#x165;" horiz-adv-x="733" 
d="M965 1575q51 0 80.5 -30.5t29.5 -82.5q0 -89 -71.5 -182.5t-184.5 -153.5l-37 58q124 82 148 174q-39 2 -62.5 25.5t-23.5 64.5q0 57 34 92t87 35zM803 1024l-33 -145h-254l-131 -623q-28 -129 100 -129q52 0 105 16l-29 -141q-86 -22 -143 -22q-51 0 -91 10.5t-65 29
t-41.5 42t-22.5 52.5t-6 57.5t7 59.5l137 648h-217l31 145h69q88 0 132.5 32.5t64.5 119.5l26 127h164l-59 -279h256z" />
    <glyph glyph-name="Tbar" unicode="&#x166;" horiz-adv-x="1177" 
d="M1257 1266h-415l-103 -488h299l-28 -141h-301l-136 -637h-186l135 637h-299l29 141h301l104 488h-415l37 168h1013z" />
    <glyph glyph-name="tbar" unicode="&#x167;" horiz-adv-x="733" 
d="M770 879h-254l-55 -258h239l-26 -136h-240l-49 -229q-28 -129 100 -129q52 0 105 16l-29 -141q-86 -22 -143 -22q-51 0 -91 10.5t-65 29t-41.5 42t-22.5 52.5t-6 57.5t7 59.5l53 254h-209l29 136h209l55 258h-217l31 145h69q88 0 132.5 32.5t64.5 119.5l26 127h164
l-59 -279h256z" />
    <glyph glyph-name="Utilde" unicode="&#x168;" horiz-adv-x="1470" 
d="M1358 1776q-29 -105 -90.5 -173.5t-151.5 -68.5q-43 0 -77 13.5t-56 32t-41 37.5t-41 32.5t-47 13.5q-87 0 -121 -113h-129q33 108 94 176t152 68q44 0 79 -13.5t56 -33t39 -38.5t39.5 -32.5t46.5 -13.5q44 0 75 32.5t46 80.5h127zM1487 1434l-191 -893
q-57 -272 -231.5 -416.5t-423.5 -144.5q-123 0 -219 35.5t-159.5 106t-84 175.5t7.5 244l189 893h186l-186 -881q-41 -194 40.5 -297.5t246.5 -103.5q166 0 288.5 103t163.5 298l186 881h187z" />
    <glyph glyph-name="utilde" unicode="&#x169;" horiz-adv-x="1148" 
d="M1110 1366q-29 -105 -90.5 -173.5t-151.5 -68.5q-43 0 -77 13.5t-56 32t-41 37.5t-41 32.5t-47 13.5q-87 0 -121 -112h-129q33 108 93.5 175.5t152.5 67.5q44 0 79 -13.5t56 -33t39 -38.5t39.5 -32.5t46.5 -13.5q44 0 75 32.5t46 80.5h127zM412 -20q-170 0 -253 106
t-42 301l135 637h178l-127 -604q-31 -140 20 -211.5t158 -71.5q113 0 205.5 76t124.5 227l125 584h178l-217 -1024h-162l8 123h-12q-42 -44 -79.5 -71.5t-101 -49.5t-138.5 -22z" />
    <glyph glyph-name="Umacron" unicode="&#x16a;" horiz-adv-x="1470" 
d="M686 1731h617l-27 -132h-617zM1487 1434l-191 -893q-57 -272 -231.5 -416.5t-423.5 -144.5q-123 0 -219 35.5t-159.5 106t-84 175.5t7.5 244l189 893h186l-186 -881q-41 -194 40.5 -297.5t246.5 -103.5q166 0 288.5 103t163.5 298l186 881h187z" />
    <glyph glyph-name="umacron" unicode="&#x16b;" horiz-adv-x="1148" 
d="M438 1321h617l-27 -131h-616zM412 -20q-170 0 -253 106t-42 301l135 637h178l-127 -604q-31 -140 20 -211.5t158 -71.5q113 0 205.5 76t124.5 227l125 584h178l-217 -1024h-162l8 123h-12q-42 -44 -79.5 -71.5t-101 -49.5t-138.5 -22z" />
    <glyph glyph-name="Ubreve" unicode="&#x16c;" horiz-adv-x="1470" 
d="M1286 1843q-23 -105 -114.5 -184.5t-210.5 -79.5q-118 0 -177.5 79.5t-38.5 184.5h140q-14 -62 13 -103.5t83 -41.5q58 0 101 41t57 104h147zM1487 1434l-191 -893q-57 -272 -231.5 -416.5t-423.5 -144.5q-123 0 -219 35.5t-159.5 106t-84 175.5t7.5 244l189 893h186
l-186 -881q-41 -194 40.5 -297.5t246.5 -103.5q166 0 288.5 103t163.5 298l186 881h187z" />
    <glyph glyph-name="ubreve" unicode="&#x16d;" horiz-adv-x="1148" 
d="M1038 1434q-23 -105 -114.5 -185t-210.5 -80q-118 0 -177 80t-38 185h139q-14 -62 13 -104t83 -42q58 0 101 41.5t57 104.5h147zM412 -20q-170 0 -253 106t-42 301l135 637h178l-127 -604q-31 -140 20 -211.5t158 -71.5q113 0 205.5 76t124.5 227l125 584h178l-217 -1024
h-162l8 123h-12q-42 -44 -79.5 -71.5t-101 -49.5t-138.5 -22z" />
    <glyph glyph-name="Uring" unicode="&#x16e;" horiz-adv-x="1470" 
d="M991 1518q-81 0 -138.5 57.5t-57.5 136.5q0 80 57.5 137.5t138.5 57.5q80 0 138.5 -58t58.5 -137q0 -78 -59 -136t-138 -58zM993 1622q34 0 59 26.5t25 63.5q0 35 -25 61.5t-59 26.5q-38 0 -63 -26t-25 -62q0 -37 25 -63.5t63 -26.5zM1487 1434l-191 -893
q-57 -272 -231.5 -416.5t-423.5 -144.5q-123 0 -219 35.5t-159.5 106t-84 175.5t7.5 244l189 893h186l-186 -881q-41 -194 40.5 -297.5t246.5 -103.5q166 0 288.5 103t163.5 298l186 881h187z" />
    <glyph glyph-name="uring" unicode="&#x16f;" horiz-adv-x="1148" 
d="M743 1108q-81 0 -138.5 58t-57.5 137q0 80 57.5 137t138.5 57q80 0 138.5 -57.5t58.5 -136.5q0 -78 -59 -136.5t-138 -58.5zM745 1212q34 0 59 27t25 64q0 35 -25 61.5t-59 26.5q-38 0 -63 -26t-25 -62q0 -37 25 -64t63 -27zM412 -20q-170 0 -253 106t-42 301l135 637
h178l-127 -604q-31 -140 20 -211.5t158 -71.5q113 0 205.5 76t124.5 227l125 584h178l-217 -1024h-162l8 123h-12q-42 -44 -79.5 -71.5t-101 -49.5t-138.5 -22z" />
    <glyph glyph-name="Uhungarumlaut" unicode="&#x170;" horiz-adv-x="1470" 
d="M905 1843h166l-194 -297h-154zM1221 1843h163l-194 -297h-152zM1487 1434l-191 -893q-57 -272 -231.5 -416.5t-423.5 -144.5q-123 0 -219 35.5t-159.5 106t-84 175.5t7.5 244l189 893h186l-186 -881q-41 -194 40.5 -297.5t246.5 -103.5q166 0 288.5 103t163.5 298
l186 881h187z" />
    <glyph glyph-name="uhungarumlaut" unicode="&#x171;" horiz-adv-x="1148" 
d="M657 1434h166l-194 -297h-154zM973 1434h164l-195 -297h-151zM412 -20q-170 0 -253 106t-42 301l135 637h178l-127 -604q-31 -140 20 -211.5t158 -71.5q113 0 205.5 76t124.5 227l125 584h178l-217 -1024h-162l8 123h-12q-42 -44 -79.5 -71.5t-101 -49.5t-138.5 -22z" />
    <glyph glyph-name="Uogonek" unicode="&#x172;" horiz-adv-x="1470" 
d="M1300 1434h187l-191 -893q-46 -224 -175 -363t-316 -180q-78 -28 -124 -73t-46 -97q0 -34 27.5 -51t72.5 -17q40 0 94 13l-24 -113q-41 -14 -103 -14q-89 0 -144.5 38.5t-55.5 108.5q0 116 123 187q-119 2 -212 38.5t-154 107t-80.5 174.5t7.5 241l189 893h186l-186 -881
q-41 -194 40.5 -297.5t246.5 -103.5q166 0 288.5 103t163.5 298z" />
    <glyph glyph-name="uogonek" unicode="&#x173;" horiz-adv-x="1148" 
d="M719 -172q0 -34 27.5 -51t72.5 -17q40 0 94 13l-24 -113q-41 -14 -103 -14q-89 0 -144.5 38.5t-55.5 108.5q0 134 162 207h-13l8 123h-12q-42 -44 -79.5 -71.5t-101 -49.5t-138.5 -22q-170 0 -253 106t-42 301l135 637h178l-127 -604q-31 -140 20 -211.5t158 -71.5
q113 0 205.5 76t124.5 227l125 584h178l-217 -1024q-81 -27 -129.5 -73t-48.5 -99z" />
    <glyph glyph-name="Wcircumflex" unicode="&#x174;" horiz-adv-x="1832" 
d="M1022 1554h-170l268 289h160l147 -289h-153l-82 177h-12zM1790 1434h184l-624 -1434h-215l-86 1096h-15l-553 -1096h-215l-16 1434h176v-1172h12l541 1069h209l82 -1069h14z" />
    <glyph glyph-name="wcircumflex" unicode="&#x175;" horiz-adv-x="1474" 
d="M754 1145h-170l268 289h160l147 -289h-153l-82 176h-13zM1364 1024h178l-479 -1024h-209l-57 752h-15l-383 -752h-206l-41 1024h161l19 -817h14l377 743h199l61 -743h14z" />
    <glyph glyph-name="Ycircumflex" unicode="&#x176;" horiz-adv-x="1327" 
d="M768 1554h-170l268 289h160l148 -289h-154l-82 177h-12zM1235 1434h235l-677 -756l-144 -678h-186l145 678l-358 756h215l260 -553h12z" />
    <glyph glyph-name="ycircumflex" unicode="&#x177;" horiz-adv-x="1087" 
d="M561 1145h-170l268 289h160l148 -289h-154l-82 176h-12zM1153 1024l-682 -1184q-18 -31 -23.5 -41t-30 -46t-42.5 -54t-52.5 -47t-68 -43.5t-81.5 -26.5t-101 -12q-75 0 -152 22l29 138q66 -15 106 -15q149 0 244 152l82 133h-53l-176 1024h178l137 -838h14l475 838h197z
" />
    <glyph glyph-name="Ydieresis" unicode="&#x178;" horiz-adv-x="1327" 
d="M682 1569q-51 0 -88 36t-37 87t37 87t88 36q50 0 86.5 -36t36.5 -87t-36.5 -87t-86.5 -36zM1151 1569q-50 0 -85.5 36t-35.5 87t35.5 87t85.5 36q51 0 87 -36t36 -87t-36 -87t-87 -36zM1235 1434h235l-677 -756l-144 -678h-186l145 678l-358 756h215l260 -553h12z" />
    <glyph glyph-name="Zacute" unicode="&#x179;" horiz-adv-x="1263" 
d="M995 1843h170l-221 -297h-153zM346 168h703l-37 -168h-985l22 104l959 1151v11h-670l37 168h938l-23 -105l-944 -1151v-10z" />
    <glyph glyph-name="zacute" unicode="&#x17a;" horiz-adv-x="985" 
d="M764 1434h170l-221 -297h-154zM287 143h510l-31 -143h-768l20 90l674 780v11h-475l31 143h729l-21 -90l-669 -780v-11z" />
    <glyph glyph-name="Zdotaccent" unicode="&#x17b;" horiz-adv-x="1263" 
d="M905 1597q-50 0 -85.5 35t-35.5 84t35.5 83t85.5 34q48 0 82.5 -34t34.5 -83t-34.5 -84t-82.5 -35zM346 168h703l-37 -168h-985l22 104l959 1151v11h-670l37 168h938l-23 -105l-944 -1151v-10z" />
    <glyph glyph-name="zdotaccent" unicode="&#x17c;" horiz-adv-x="985" 
d="M674 1188q-50 0 -85.5 35t-35.5 84t35.5 82.5t85.5 33.5q48 0 82.5 -33.5t34.5 -82.5t-34.5 -84t-82.5 -35zM287 143h510l-31 -143h-768l20 90l674 780v11h-475l31 143h729l-21 -90l-669 -780v-11z" />
    <glyph glyph-name="Zcaron" unicode="&#x17d;" horiz-adv-x="1263" 
d="M1049 1843h170l-269 -289h-159l-148 289h154l84 -176h10zM346 168h703l-37 -168h-985l22 104l959 1151v11h-670l37 168h938l-23 -105l-944 -1151v-10z" />
    <glyph glyph-name="zcaron" unicode="&#x17e;" horiz-adv-x="985" 
d="M817 1434h170l-268 -289h-160l-147 289h153l84 -177h10zM287 143h510l-31 -143h-768l20 90l674 780v11h-475l31 143h729l-21 -90l-669 -780v-11z" />
    <glyph glyph-name="florin" unicode="&#x192;" horiz-adv-x="1089" 
d="M989 1331q65 0 119 -21.5t86 -56.5l-90 -120q-47 53 -117 53q-115 0 -166 -135l-106 -279h278l-28 -135h-303l-152 -395q-102 -262 -348 -262q-67 0 -121 21t-84 56l90 121q43 -53 117 -53q116 0 168 135l143 377h-262l27 135h288l113 297q100 262 348 262z" />
    <glyph glyph-name="uni01CD" unicode="&#x1cd;" horiz-adv-x="1335" 
d="M973 1554h-160l-147 289h153l84 -176h10l158 176h170zM750 1434h229l195 -1434h-193l-49 391h-565l-215 -391h-207zM453 551h458l-82 663h-12z" />
    <glyph glyph-name="uni01CE" unicode="&#x1ce;" horiz-adv-x="1236" 
d="M819 1145h-160l-147 289h154l84 -177h10l158 177h169zM1022 1024h180l-219 -1024h-147l14 145h-12q-151 -165 -355 -165q-174 0 -279.5 112t-105.5 305q0 170 77.5 319t213.5 238.5t297 89.5q118 0 197 -47.5t108 -115.5zM524 137q80 0 155 39.5t128.5 105t86 153
t32.5 179.5q0 129 -62 201t-174 72q-108 0 -202.5 -66t-149.5 -175t-55 -230q0 -130 64 -204.5t177 -74.5z" />
    <glyph glyph-name="uni01CF" unicode="&#x1cf;" horiz-adv-x="542" 
d="M674 1843h170l-269 -289h-159l-148 289h154l84 -176h10zM561 1434l-305 -1434h-186l305 1434h186z" />
    <glyph glyph-name="uni01D0" unicode="&#x1d0;" horiz-adv-x="464" 
d="M547 1434h170l-268 -289h-160l-148 289h154l84 -177h10zM430 1024l-217 -1024h-178l217 1024h178z" />
    <glyph glyph-name="uni01D1" unicode="&#x1d1;" horiz-adv-x="1697" 
d="M1251 1843h170l-268 -289h-160l-147 289h153l84 -176h11zM760 -20q-266 0 -430 163t-164 426q0 134 44 266t124 242.5t185.5 195.5t236.5 133t268 48q266 0 431 -164.5t165 -427.5q0 -170 -70 -332t-186 -282.5t-275 -194t-329 -73.5zM772 152q127 0 248.5 59.5
t210 155.5t142.5 222.5t54 256.5q0 195 -113.5 315.5t-301.5 120.5q-127 0 -248.5 -59.5t-209.5 -156t-142 -223.5t-54 -257q0 -193 113 -313.5t301 -120.5z" />
    <glyph glyph-name="uni01D2" unicode="&#x1d2;" horiz-adv-x="1255" 
d="M944 1434h170l-268 -289h-160l-147 289h153l84 -177h10zM535 -20q-195 0 -315 120t-120 314q0 164 84 309t228.5 233t310.5 88q194 0 313 -119.5t119 -312.5q0 -164 -83.5 -309.5t-227.5 -234t-309 -88.5zM547 137q110 0 209.5 65.5t159 173t59.5 226.5q0 125 -71.5 205
t-194.5 80q-110 0 -208.5 -65t-157 -172t-58.5 -226q0 -128 69.5 -207.5t192.5 -79.5z" />
    <glyph glyph-name="uni01D3" unicode="&#x1d3;" horiz-adv-x="1470" 
d="M1137 1843h170l-269 -289h-159l-148 289h154l84 -176h10zM1487 1434l-191 -893q-57 -272 -231.5 -416.5t-423.5 -144.5q-123 0 -219 35.5t-159.5 106t-84 175.5t7.5 244l189 893h186l-186 -881q-41 -194 40.5 -297.5t246.5 -103.5q166 0 288.5 103t163.5 298l186 881h187
z" />
    <glyph glyph-name="uni01D4" unicode="&#x1d4;" horiz-adv-x="1148" 
d="M889 1434h170l-268 -289h-160l-148 289h154l84 -177h10zM412 -20q-170 0 -253 106t-42 301l135 637h178l-127 -604q-31 -140 20 -211.5t158 -71.5q113 0 205.5 76t124.5 227l125 584h178l-217 -1024h-162l8 123h-12q-42 -44 -79.5 -71.5t-101 -49.5t-138.5 -22z" />
    <glyph glyph-name="uni01E2" unicode="&#x1e2;" horiz-adv-x="2066" 
d="M2028 1731l-27 -132h-617l27 132h617zM2109 1268h-692l-98 -459h598l-35 -162h-598l-100 -481h710l-34 -166h-893l82 391h-543l-334 -391h-227l1220 1434h979zM1083 551l140 663h-13l-567 -663h440z" />
    <glyph glyph-name="uni01E3" unicode="&#x1e3;" horiz-adv-x="1505" 
d="M1221 1321l-27 -131h-616l26 131h617zM1380 465h-557q-69 -344 129 -344q71 0 134 41t94 135h166q-50 -160 -158 -238.5t-248 -78.5q-217 0 -270 172q-108 -172 -344 -172q-122 0 -198.5 60.5t-76.5 164.5q0 184 142 288.5t387 104.5h90l22 100q19 94 -11.5 147.5
t-115.5 53.5q-84 0 -141.5 -45t-79.5 -129l-172 4q40 151 146 233t260 82q96 0 163.5 -40t96.5 -115q127 155 299 155q57 0 106 -17t90 -52.5t64.5 -99.5t23.5 -150q0 -145 -41 -260zM1118 903q-81 0 -156 -77t-112 -228h393q34 162 -4 233.5t-121 71.5zM612 334l29 131h-80
q-159 0 -246.5 -60t-87.5 -172q0 -55 37.5 -83.5t100.5 -28.5q38 0 74.5 11t71.5 34.5t61.5 66.5t39.5 101z" />
    <glyph glyph-name="Gcaron" unicode="&#x1e6;" horiz-adv-x="1617" 
d="M1223 1843h170l-269 -289h-159l-148 289h154l84 -176h10zM858 745h631l-160 -745h-147l12 166h-14q-29 -25 -53 -44t-71.5 -48t-94.5 -47.5t-114.5 -32.5t-139.5 -14q-254 0 -399.5 150.5t-145.5 408.5q0 177 68.5 344.5t184 293t278.5 201.5t341 76q232 0 370.5 -121
t135.5 -307h-192q-12 115 -100.5 185.5t-233.5 70.5q-130 0 -252 -60.5t-211 -160t-143 -232.5t-54 -272q0 -191 101.5 -300.5t292.5 -109.5q113 0 216 37t183.5 118.5t103.5 195.5l21 98h-414v149z" />
    <glyph glyph-name="gcaron" unicode="&#x1e7;" horiz-adv-x="1099" 
d="M774 1145h-160l-147 289h154l84 -177h10l157 177h170zM354 381q-96 -42 -96 -111q0 -37 31.5 -57t91.5 -20h197q149 0 232 -64t83 -186q0 -158 -142 -265.5t-366 -107.5q-112 0 -194.5 28.5t-128 78.5t-65.5 111t-15 132l206 148q-102 48 -102 155q0 71 47.5 129
t130.5 94q-65 75 -65 185q0 170 133.5 291.5t322.5 121.5q138 0 228 -65q51 23 107.5 63t94.5 80l76 -114q-90 -77 -198 -123q30 -59 30 -137q0 -166 -133 -285t-323 -119q-108 0 -183 37zM643 907q-109 0 -188.5 -76t-79.5 -180q0 -76 48.5 -123t133.5 -47q108 0 186 76
t78 184q0 77 -47 121.5t-131 44.5zM715 -82q0 38 -16 64.5t-43 40t-55 19t-60 5.5h-183l-206 -147q5 -85 64 -137t187 -52q132 0 222 60t90 147z" />
    <glyph glyph-name="uni01EA" unicode="&#x1ea;" horiz-adv-x="1697" 
d="M924 -2q-78 -28 -124 -73t-46 -97q0 -34 27.5 -51t72.5 -17q40 0 94 13l-24 -113q-41 -14 -103 -14q-89 0 -144.5 38.5t-55.5 108.5q0 117 122 187q-260 6 -418.5 168t-158.5 421q0 134 44 266t124 242.5t185.5 195.5t236.5 133t268 48q266 0 431 -164.5t165 -427.5
q0 -200 -92.5 -384t-252 -311.5t-351.5 -168.5zM358 586q0 -193 113 -313.5t301 -120.5q127 0 248.5 59.5t210 155.5t142.5 222.5t54 256.5q0 195 -113.5 315.5t-301.5 120.5q-127 0 -248.5 -59.5t-209.5 -156t-142 -223.5t-54 -257z" />
    <glyph glyph-name="uni01EB" unicode="&#x1eb;" horiz-adv-x="1255" 
d="M676 -2q-78 -28 -124 -73t-46 -97q0 -34 27.5 -51t72.5 -17q40 0 94 13l-24 -113q-41 -14 -103 -14q-89 0 -144.5 38.5t-55.5 108.5q0 117 125 189q-180 12 -289 130t-109 302q0 164 84 309t228.5 233t310.5 88q194 0 313 -119.5t119 -312.5q0 -213 -137 -387t-342 -227z
M285 424q0 -128 69.5 -207.5t192.5 -79.5q110 0 209.5 65.5t159 173t59.5 226.5q0 125 -71.5 205t-194.5 80q-110 0 -208.5 -65t-157 -172t-58.5 -226z" />
    <glyph glyph-name="uni01F4" unicode="&#x1f4;" horiz-adv-x="1617" 
d="M1169 1843h170l-221 -297h-153zM858 745h631l-160 -745h-147l12 166h-14q-29 -25 -53 -44t-71.5 -48t-94.5 -47.5t-114.5 -32.5t-139.5 -14q-254 0 -399.5 150.5t-145.5 408.5q0 177 68.5 344.5t184 293t278.5 201.5t341 76q232 0 370.5 -121t135.5 -307h-192
q-12 115 -100.5 185.5t-233.5 70.5q-130 0 -252 -60.5t-211 -160t-143 -232.5t-54 -272q0 -191 101.5 -300.5t292.5 -109.5q113 0 216 37t183.5 118.5t103.5 195.5l21 98h-414v149z" />
    <glyph glyph-name="uni01F5" unicode="&#x1f5;" horiz-adv-x="1099" 
d="M989 1434l-221 -297h-154l205 297h170zM354 381q-96 -42 -96 -111q0 -37 31.5 -57t91.5 -20h197q149 0 232 -64t83 -186q0 -158 -142 -265.5t-366 -107.5q-112 0 -194.5 28.5t-128 78.5t-65.5 111t-15 132l206 148q-102 48 -102 155q0 71 47.5 129t130.5 94
q-65 75 -65 185q0 170 133.5 291.5t322.5 121.5q138 0 228 -65q51 23 107.5 63t94.5 80l76 -114q-90 -77 -198 -123q30 -59 30 -137q0 -166 -133 -285t-323 -119q-108 0 -183 37zM643 907q-109 0 -188.5 -76t-79.5 -180q0 -76 48.5 -123t133.5 -47q108 0 186 76t78 184
q0 77 -47 121.5t-131 44.5zM715 -82q0 38 -16 64.5t-43 40t-55 19t-60 5.5h-183l-206 -147q5 -85 64 -137t187 -52q132 0 222 60t90 147z" />
    <glyph glyph-name="uni01F8" unicode="&#x1f8;" horiz-adv-x="1511" 
d="M969 1843l80 -297h-140l-92 297h152zM1348 1434h182l-305 -1434h-181l-540 1118h-15l-237 -1118h-182l305 1434h182l539 -1119h14z" />
    <glyph glyph-name="uni01F9" unicode="&#x1f9;" horiz-adv-x="1148" 
d="M696 1434l80 -297h-139l-92 297h151zM737 1044q170 0 253 -106t42 -301l-135 -637h-178l127 604q31 140 -20 211.5t-158 71.5q-112 0 -205 -76.5t-125 -226.5l-125 -584h-178l217 1024h162l-8 -123h12q42 44 79.5 71.5t101 49.5t138.5 22z" />
    <glyph glyph-name="AEacute" unicode="&#x1fc;" horiz-adv-x="2066" 
d="M1978 1843l-221 -297h-153l204 297h170zM2109 1268h-692l-98 -459h598l-35 -162h-598l-100 -481h710l-34 -166h-893l82 391h-543l-334 -391h-227l1220 1434h979zM1083 551l140 663h-13l-567 -663h440z" />
    <glyph glyph-name="aeacute" unicode="&#x1fd;" horiz-adv-x="1505" 
d="M1171 1434l-221 -297h-153l204 297h170zM1380 465h-557q-69 -344 129 -344q71 0 134 41t94 135h166q-50 -160 -158 -238.5t-248 -78.5q-217 0 -270 172q-108 -172 -344 -172q-122 0 -198.5 60.5t-76.5 164.5q0 184 142 288.5t387 104.5h90l22 100q19 94 -11.5 147.5
t-115.5 53.5q-84 0 -141.5 -45t-79.5 -129l-172 4q40 151 146 233t260 82q96 0 163.5 -40t96.5 -115q127 155 299 155q57 0 106 -17t90 -52.5t64.5 -99.5t23.5 -150q0 -145 -41 -260zM1118 903q-81 0 -156 -77t-112 -228h393q34 162 -4 233.5t-121 71.5zM612 334l29 131h-80
q-159 0 -246.5 -60t-87.5 -172q0 -55 37.5 -83.5t100.5 -28.5q38 0 74.5 11t71.5 34.5t61.5 66.5t39.5 101z" />
    <glyph glyph-name="Oslashacute" unicode="&#x1fe;" horiz-adv-x="1697" 
d="M1368 1843l-221 -297h-154l205 297h170zM1663 1444l-176 -189q133 -158 133 -393q0 -170 -70 -332t-186 -282.5t-275 -194t-329 -73.5q-219 0 -367 108l-172 -182l-100 84l176 188q-131 156 -131 391q0 134 44 266t124 242.5t185.5 195.5t236.5 133t268 48
q214 0 365 -108l172 184zM352 584q0 -154 74 -267l840 897q-107 74 -252 74q-129 0 -252 -60.5t-212.5 -158t-143.5 -226t-54 -259.5zM1434 848q0 158 -76 270l-840 -897q105 -76 252 -76q129 0 252 60t212.5 157t144.5 225.5t55 260.5z" />
    <glyph glyph-name="oslashacute" unicode="&#x1ff;" horiz-adv-x="1255" 
d="M1061 1434l-221 -297h-154l205 297h170zM1223 1040l-152 -155q84 -117 84 -273q0 -122 -50.5 -238.5t-134 -202.5t-199 -138.5t-239.5 -52.5q-153 0 -260 75l-143 -147l-92 74l149 155q-86 113 -86 277t84 309t228.5 233t310.5 88q154 0 264 -77l143 147zM276 424
q0 -90 35 -158l559 580q-65 47 -159 47q-113 0 -214 -66t-161 -174.5t-60 -228.5zM981 604q0 81 -33 152l-559 -580q64 -45 156 -45q112 0 213.5 66.5t162 176t60.5 230.5z" />
    <glyph glyph-name="uni0218" unicode="&#x218;" horiz-adv-x="1243" 
d="M1081 436q0 -197 -151 -326.5t-395 -129.5q-220 0 -335 114.5t-87 315.5h182q-11 -129 56 -199t202 -70q148 0 242 78.5t94 198.5q0 25 -5.5 47.5t-12 39.5t-22 33.5t-25.5 27t-34.5 23.5t-35.5 19t-41 17.5t-40 15t-44 14.5l-51 17q-44 15 -80.5 31t-77.5 44.5
t-68.5 61.5t-46 83t-18.5 109q0 122 68 225.5t190.5 165.5t271.5 62q204 0 314 -114.5t81 -290.5h-180q11 107 -46.5 175t-180.5 68q-133 0 -230.5 -79t-97.5 -185q0 -31 8.5 -57.5t27.5 -46.5t37.5 -34.5t49 -28t51 -21t54.5 -19.5q8 -3 12 -4l43 -14q45 -15 80 -29.5
t83.5 -45.5t80 -68t54.5 -95.5t23 -128.5zM477 -123q54 0 86.5 -31.5t32.5 -85.5q0 -95 -76.5 -193t-200.5 -163l-38 59q134 91 157 187q-41 0 -66.5 25.5t-25.5 68.5q0 60 37 96.5t94 36.5z" />
    <glyph glyph-name="uni0219" unicode="&#x219;" horiz-adv-x="983" 
d="M827 326q0 -159 -113 -252.5t-304 -93.5t-280 90.5t-67 240.5h173q-11 -100 41 -145t147 -45q97 0 161 48t64 126q0 32 -14 57.5t-41 43.5t-52 29.5t-61 23.5l-51 16q-246 72 -246 242q0 147 114.5 242t285.5 95q90 0 157 -25t103.5 -67t51 -93t7.5 -107h-172
q8 68 -35.5 109.5t-124.5 41.5q-88 0 -149.5 -49.5t-61.5 -122.5q0 -12 2.5 -22.5t6 -19t11 -16.5t13 -13.5t17.5 -12.5t18.5 -10.5t22.5 -9.5t23 -9t25 -9.5t25 -8.5l41 -12q54 -17 97 -38t82.5 -51.5t61 -74.5t21.5 -98zM348 -123q54 0 86.5 -31.5t32.5 -85.5
q0 -95 -76.5 -193t-200.5 -163l-38 59q134 91 157 187q-41 0 -66.5 25.5t-25.5 68.5q0 60 36.5 96.5t94.5 36.5z" />
    <glyph glyph-name="uni021A" unicode="&#x21a;" horiz-adv-x="1177" 
d="M1292 1434l-35 -168h-415l-269 -1266h-186l270 1266h-415l37 168h1013zM430 -123q54 0 86.5 -31.5t32.5 -85.5q0 -95 -76.5 -193t-200.5 -163l-39 59q135 92 158 187q-41 0 -66.5 25.5t-25.5 68.5q0 60 36.5 96.5t94.5 36.5z" />
    <glyph glyph-name="uni021B" unicode="&#x21b;" horiz-adv-x="733" 
d="M803 1024l-33 -145h-254l-131 -623q-28 -129 100 -129q52 0 105 16l-29 -141q-86 -22 -143 -22q-51 0 -91 10.5t-65 29t-41.5 42t-22.5 52.5t-6 57.5t7 59.5l137 648h-217l31 145h69q88 0 132.5 32.5t64.5 119.5l26 127h164l-59 -279h256zM305 -123q54 0 86.5 -31.5
t32.5 -85.5q0 -95 -76.5 -193t-200.5 -163l-38 59q134 91 157 187q-41 0 -66.5 25.5t-25.5 68.5q0 60 37 96.5t94 36.5z" />
    <glyph glyph-name="uni021E" unicode="&#x21e;" horiz-adv-x="1427" 
d="M1112 1843h170l-268 -289h-160l-147 289h153l84 -176h10zM1262 1434h184l-305 -1434h-185l136 641h-701l-135 -641h-186l305 1434h186l-133 -625h698z" />
    <glyph glyph-name="uni0226" unicode="&#x226;" horiz-adv-x="1335" 
d="M928 1597q-50 0 -85.5 35t-35.5 84t35.5 83t85.5 34q48 0 82 -34t34 -83t-34.5 -84t-81.5 -35zM981 0l-49 391h-565l-215 -391h-207l805 1434h229l195 -1434h-193zM453 551h458l-82 663h-12z" />
    <glyph glyph-name="uni0227" unicode="&#x227;" horiz-adv-x="1236" 
d="M774 1188q-50 0 -85.5 35t-35.5 84t35.5 82.5t85.5 33.5q48 0 82.5 -33.5t34.5 -82.5t-34.5 -84t-82.5 -35zM1022 1024h180l-219 -1024h-147l14 145h-12q-151 -165 -355 -165q-174 0 -279.5 112t-105.5 305q0 170 77.5 319t213.5 238.5t297 89.5q118 0 197 -47.5
t108 -115.5zM524 137q80 0 155 39.5t128.5 105t86 153t32.5 179.5q0 129 -62 201t-174 72q-108 0 -202.5 -66t-149.5 -175t-55 -230q0 -130 64 -204.5t177 -74.5z" />
    <glyph glyph-name="uni0228" unicode="&#x228;" horiz-adv-x="1200" 
d="M1245 1268h-723l-98 -459h635l-35 -162h-635l-102 -481h743l-35 -166h-403l-82 -90q66 5 118 -35t52 -106q0 -90 -66.5 -144.5t-173.5 -54.5q-95 0 -145 43l53 82q57 -33 101 -33q52 0 88 30.5t36 74.5q0 29 -23.5 47t-68.5 18q-29 0 -75 -16l-50 51l121 133h-407
l305 1434h905z" />
    <glyph glyph-name="uni0229" unicode="&#x229;" horiz-adv-x="1169" 
d="M1047 469h-764q-28 -154 38 -248t207 -94q100 0 178.5 44t120.5 128h181q-64 -147 -187 -231t-289 -88l-63 -70q66 5 118 -35t52 -106q0 -90 -66.5 -144.5t-173.5 -54.5q-95 0 -145 43l53 82q57 -33 101 -33q52 0 88 30.5t36 74.5q0 29 -23.5 47t-68.5 18q-29 0 -75 -16
l-50 51l109 121q-150 26 -239 132t-89 261q0 177 80 330t218 243t300 90q169 0 277 -98t108 -276q0 -110 -32 -201zM682 897q-125 0 -228.5 -87t-140.5 -210h590q26 132 -34.5 214.5t-186.5 82.5z" />
    <glyph glyph-name="uni022E" unicode="&#x22e;" horiz-adv-x="1697" 
d="M1108 1597q-50 0 -85.5 35t-35.5 84t35.5 83t85.5 34q48 0 82.5 -34t34.5 -83t-34.5 -84t-82.5 -35zM760 -20q-266 0 -430 163t-164 426q0 134 44 266t124 242.5t185.5 195.5t236.5 133t268 48q266 0 431 -164.5t165 -427.5q0 -170 -70 -332t-186 -282.5t-275 -194
t-329 -73.5zM772 152q127 0 248.5 59.5t210 155.5t142.5 222.5t54 256.5q0 195 -113.5 315.5t-301.5 120.5q-127 0 -248.5 -59.5t-209.5 -156t-142 -223.5t-54 -257q0 -193 113 -313.5t301 -120.5z" />
    <glyph glyph-name="uni022F" unicode="&#x22f;" horiz-adv-x="1255" 
d="M801 1188q-50 0 -85.5 35t-35.5 84t35.5 82.5t85.5 33.5q48 0 82.5 -33.5t34.5 -82.5t-34.5 -84t-82.5 -35zM535 -20q-195 0 -315 120t-120 314q0 164 84 309t228.5 233t310.5 88q194 0 313 -119.5t119 -312.5q0 -164 -83.5 -309.5t-227.5 -234t-309 -88.5zM547 137
q110 0 209.5 65.5t159 173t59.5 226.5q0 125 -71.5 205t-194.5 80q-110 0 -208.5 -65t-157 -172t-58.5 -226q0 -128 69.5 -207.5t192.5 -79.5z" />
    <glyph glyph-name="uni0232" unicode="&#x232;" horiz-adv-x="1327" 
d="M614 1731h617l-27 -132h-616zM1235 1434h235l-677 -756l-144 -678h-186l145 678l-358 756h215l260 -553h12z" />
    <glyph glyph-name="uni0233" unicode="&#x233;" horiz-adv-x="1087" 
d="M406 1321h616l-27 -131h-616zM1153 1024l-682 -1184q-18 -31 -23.5 -41t-30 -46t-42.5 -54t-52.5 -47t-68 -43.5t-81.5 -26.5t-101 -12q-75 0 -152 22l29 138q66 -15 106 -15q149 0 244 152l82 133h-53l-176 1024h178l137 -838h14l475 838h197z" />
    <glyph glyph-name="uni0237" unicode="&#x237;" horiz-adv-x="466" 
d="M-258 -270q58 -15 98 -15q132 0 160 129l252 1180h178l-254 -1202q-55 -252 -305 -252q-81 0 -158 22z" />
    <glyph glyph-name="circumflex" unicode="&#x2c6;" horiz-adv-x="933" 
d="M485 1145h-172l269 289h159l148 -289h-152l-84 176h-12z" />
    <glyph glyph-name="caron" unicode="&#x2c7;" horiz-adv-x="933" 
d="M780 1434h170l-268 -289h-160l-147 289h153l84 -177h11z" />
    <glyph glyph-name="breve" unicode="&#x2d8;" horiz-adv-x="897" 
d="M915 1434q-21 -105 -113 -185t-210 -80q-119 0 -178.5 80t-38.5 185h139q-14 -62 13 -104t85 -42q57 0 100.5 41.5t55.5 104.5h147z" />
    <glyph glyph-name="dotaccent" unicode="&#x2d9;" horiz-adv-x="600" 
d="M469 1188q-48 0 -83.5 35t-35.5 84t35.5 82.5t83.5 33.5q50 0 84.5 -33.5t34.5 -82.5t-35 -84t-84 -35z" />
    <glyph glyph-name="ring" unicode="&#x2da;" horiz-adv-x="759" 
d="M549 1108q-81 0 -139 58t-58 137q0 80 57.5 137t139.5 57q80 0 138 -57.5t58 -136.5q0 -78 -58.5 -136.5t-137.5 -58.5zM551 1212q34 0 59 27t25 64q0 35 -25 61.5t-59 26.5q-38 0 -63 -26t-25 -62q0 -37 25 -64t63 -27z" />
    <glyph glyph-name="ogonek" unicode="&#x2db;" horiz-adv-x="694" 
d="M297 41l45 -41q-81 -27 -129.5 -73t-48.5 -99q0 -34 27.5 -51t72.5 -17q40 0 94 13l-24 -113q-41 -14 -105 -14q-88 0 -144 38.5t-56 108.5q0 44 19.5 81.5t39.5 59.5t65.5 46.5t63.5 31.5t67 24q9 4 13 5z" />
    <glyph glyph-name="tilde" unicode="&#x2dc;" horiz-adv-x="1062" 
d="M1065 1366q-27 -104 -89 -173t-153 -69q-43 0 -77 13.5t-56 32t-41 37.5t-41 32.5t-47 13.5q-83 0 -121 -112h-127q31 107 91.5 175t152.5 68q44 0 79 -13.5t56 -33t39.5 -38.5t40 -32.5t47.5 -13.5q43 0 74.5 33t44.5 80h127z" />
    <glyph glyph-name="hungarumlaut" unicode="&#x2dd;" horiz-adv-x="950" 
d="M492 1434h163l-192 -297h-154zM807 1434h164l-195 -297h-151z" />
    <glyph glyph-name="uni1E02" unicode="&#x1e02;" horiz-adv-x="1257" 
d="M899 1597q-50 0 -85.5 35t-35.5 84t35.5 83t85.5 34q48 0 82.5 -34t34.5 -83t-34.5 -84t-82.5 -35zM952 748q174 -78 174 -293q0 -201 -139.5 -328t-372.5 -127h-544l305 1434h502q173 0 265.5 -80t92.5 -217q0 -129 -79 -229.5t-204 -149.5v-10zM524 1280l-98 -465h317
q126 0 211.5 80.5t85.5 200.5q0 88 -51.5 136t-140.5 48h-324zM614 154q143 0 233.5 83t90.5 209q0 97 -58.5 156.5t-158.5 59.5h-328l-108 -508h329z" />
    <glyph glyph-name="uni1E03" unicode="&#x1e03;" horiz-adv-x="1234" 
d="M489 1597q-50 0 -85 35t-35 84t35 83t85 34q48 0 82.5 -34t34.5 -83t-34.5 -84t-82.5 -35zM752 1044q173 0 279 -110t106 -303q0 -127 -45.5 -246.5t-123 -208.5t-187 -142.5t-230.5 -53.5q-118 0 -195.5 49.5t-113.5 115.5h-13l-47 -145h-147l309 1454h178l-121 -565
q142 155 351 155zM545 137q108 0 203 66t150.5 175t55.5 230q0 129 -64.5 204t-178.5 75q-106 0 -199 -66t-147 -175.5t-54 -233.5q0 -130 62 -202.5t172 -72.5z" />
    <glyph glyph-name="uni1E0A" unicode="&#x1e0a;" horiz-adv-x="1454" 
d="M971 1597q-50 0 -85.5 35t-35.5 84t35.5 83t85.5 34q48 0 82 -34t34 -83t-34.5 -84t-81.5 -35zM801 1434q281 0 427 -142t146 -413q0 -144 -38.5 -276.5t-113 -241.5t-176.5 -190t-235.5 -126t-284.5 -45h-456l305 1434h426zM539 168q187 0 335.5 95.5t228 254
t79.5 348.5q0 105 -29 182.5t-70.5 118t-102 64.5t-106.5 29.5t-102 5.5h-248l-233 -1098h248z" />
    <glyph glyph-name="uni1E0B" unicode="&#x1e0b;" horiz-adv-x="1234" 
d="M1262 1833q48 0 82 -34t34 -83t-34.5 -84t-81.5 -35q-50 0 -85.5 35t-35.5 84t35.5 83t85.5 34zM991 879l123 575h178l-309 -1454h-147l14 145h-12q-151 -165 -355 -165q-174 0 -279.5 112.5t-105.5 306.5q0 170 77 318t213 237.5t298 89.5q119 0 195.5 -48.5
t109.5 -116.5zM524 137q80 0 155 39.5t128.5 105t86 153t32.5 179.5q0 129 -62 201t-174 72q-108 0 -202.5 -66t-149.5 -175t-55 -230q0 -130 64 -204.5t177 -74.5z" />
    <glyph glyph-name="uni1E10" unicode="&#x1e10;" horiz-adv-x="1454" 
d="M801 1434q281 0 427 -142t146 -413q0 -144 -38.5 -276.5t-113 -241.5t-176.5 -190t-235.5 -126t-284.5 -45h-456l305 1434h426zM539 168q187 0 335.5 95.5t228 254t79.5 348.5q0 105 -29 182.5t-70.5 118t-102 64.5t-106.5 29.5t-102 5.5h-248l-233 -1098h248zM555 -123
q54 0 86.5 -31.5t32.5 -85.5q0 -95 -76.5 -193t-200.5 -163l-39 59q135 92 158 187q-41 0 -66.5 25.5t-25.5 68.5q0 60 37 96.5t94 36.5z" />
    <glyph glyph-name="uni1E11" unicode="&#x1e11;" horiz-adv-x="1234" 
d="M1114 1454h178l-309 -1454h-147l14 145h-12q-151 -165 -355 -165q-174 0 -279.5 112.5t-105.5 306.5q0 170 77 318t213 237.5t298 89.5q119 0 195.5 -48.5t109.5 -116.5zM524 137q80 0 155 39.5t128.5 105t86 153t32.5 179.5q0 129 -62 201t-174 72q-108 0 -202.5 -66
t-149.5 -175t-55 -230q0 -130 64 -204.5t177 -74.5zM459 -123q54 0 86.5 -31.5t32.5 -85.5q0 -95 -76.5 -193t-200.5 -163l-39 59q135 92 158 187q-41 0 -66.5 25.5t-25.5 68.5q0 60 37 96.5t94 36.5z" />
    <glyph glyph-name="uni1E1E" unicode="&#x1e1e;" horiz-adv-x="1136" 
d="M877 1597q-50 0 -85.5 35t-35.5 84t35.5 83t85.5 34q48 0 82 -34t34 -83t-34.5 -84t-81.5 -35zM1217 1262h-693l-100 -474h602l-35 -163h-602l-133 -625h-186l305 1434h878z" />
    <glyph glyph-name="uni1E1F" unicode="&#x1e1f;" horiz-adv-x="729" 
d="M727 1597q-50 0 -85.5 35t-35.5 84t35.5 83t85.5 34q48 0 82.5 -34t34.5 -83t-34.5 -84t-82.5 -35zM727 1305q-64 0 -104 -33.5t-52 -95.5l-32 -152h239l-30 -145h-240l-189 -879h-178l187 879h-209l31 145h210l35 168q26 126 111 194t211 68q96 0 164 -31l-60 -133
q-47 15 -94 15z" />
    <glyph glyph-name="uni1E20" unicode="&#x1e20;" horiz-adv-x="1617" 
d="M772 1731h617l-27 -132h-617zM858 745h631l-160 -745h-147l12 166h-14q-29 -25 -53 -44t-71.5 -48t-94.5 -47.5t-114.5 -32.5t-139.5 -14q-254 0 -399.5 150.5t-145.5 408.5q0 177 68.5 344.5t184 293t278.5 201.5t341 76q232 0 370.5 -121t135.5 -307h-192
q-12 115 -100.5 185.5t-233.5 70.5q-130 0 -252 -60.5t-211 -160t-143 -232.5t-54 -272q0 -191 101.5 -300.5t292.5 -109.5q113 0 216 37t183.5 118.5t103.5 195.5l21 98h-414v149z" />
    <glyph glyph-name="uni1E22" unicode="&#x1e22;" horiz-adv-x="1427" 
d="M969 1597q-50 0 -85.5 35t-35.5 84t35.5 83t85.5 34q48 0 82 -34t34 -83t-34.5 -84t-81.5 -35zM1262 1434h184l-305 -1434h-185l136 641h-701l-135 -641h-186l305 1434h186l-133 -625h698z" />
    <glyph glyph-name="uni1E23" unicode="&#x1e23;" horiz-adv-x="1148" 
d="M494 1597q-50 0 -85.5 35t-35.5 84t35.5 83t85.5 34q48 0 82 -34t34 -83t-34.5 -84t-81.5 -35zM737 1044q170 0 253 -106t42 -301l-135 -637h-178l127 604q31 140 -20 211.5t-158 71.5q-112 0 -205 -76.5t-125 -226.5l-125 -584h-178l309 1454h178l-116 -553h12
q42 44 79.5 71.5t101 49.5t138.5 22z" />
    <glyph glyph-name="uni1E26" unicode="&#x1e26;" horiz-adv-x="1427" 
d="M729 1569q-51 0 -88 36t-37 87t37 87t88 36q50 0 86.5 -36t36.5 -87t-36.5 -87t-86.5 -36zM1198 1569q-50 0 -85.5 36t-35.5 87t35.5 87t85.5 36q51 0 87 -36t36 -87t-36 -87t-87 -36zM1262 1434h184l-305 -1434h-185l136 641h-701l-135 -641h-186l305 1434h186
l-133 -625h698z" />
    <glyph glyph-name="uni1E27" unicode="&#x1e27;" horiz-adv-x="1148" 
d="M297 1552q-46 0 -79.5 33.5t-33.5 79.5q0 47 33.5 80t79.5 33t78.5 -33t32.5 -80q0 -46 -32.5 -79.5t-78.5 -33.5zM670 1552q-44 0 -77.5 33.5t-33.5 79.5q0 47 33 80t78 33q46 0 78 -33t32 -80q0 -46 -32.5 -79.5t-77.5 -33.5zM737 1044q170 0 253 -106t42 -301
l-135 -637h-178l127 604q31 140 -20 211.5t-158 71.5q-112 0 -205 -76.5t-125 -226.5l-125 -584h-178l309 1454h178l-116 -553h12q42 44 79.5 71.5t101 49.5t138.5 22z" />
    <glyph glyph-name="uni1E28" unicode="&#x1e28;" horiz-adv-x="1427" 
d="M1262 1434h184l-305 -1434h-185l136 641h-701l-135 -641h-37l-82 -90q66 5 118 -35t52 -106q0 -90 -66 -144.5t-173 -54.5q-45 0 -85 12.5t-61 30.5l53 82q57 -33 101 -33q53 0 89 30.5t36 74.5q0 29 -23.5 47t-68.5 18q-30 0 -76 -16l-49 51l120 133h-34l305 1434h186
l-133 -625h698z" />
    <glyph glyph-name="uni1E29" unicode="&#x1e29;" horiz-adv-x="1148" 
d="M737 1044q170 0 253 -106t42 -301l-135 -637h-178l127 604q31 140 -20 211.5t-158 71.5q-112 0 -205 -76.5t-125 -226.5l-125 -584h-29l-82 -90q66 5 118 -35t52 -106q0 -90 -66 -144.5t-173 -54.5q-45 0 -85 12.5t-61 30.5l54 82q57 -33 100 -33q53 0 89 30.5t36 74.5
q0 29 -23.5 47t-68.5 18q-30 0 -76 -16l-49 51l121 133h-35l309 1454h178l-116 -553h12q42 44 79.5 71.5t101 49.5t138.5 22z" />
    <glyph glyph-name="uni1E40" unicode="&#x1e40;" horiz-adv-x="1798" 
d="M1157 1597q-50 0 -85.5 35t-35.5 84t35.5 83t85.5 34q48 0 82.5 -34t34.5 -83t-34.5 -84t-82.5 -35zM1815 1434l-306 -1434h-182l236 1102h-15l-620 -938h-201l-225 938h-15l-235 -1102h-182l305 1434h227l250 -1076h14l705 1076h244z" />
    <glyph glyph-name="uni1E41" unicode="&#x1e41;" horiz-adv-x="1697" 
d="M1018 1188q-50 0 -85.5 35t-35.5 84t35.5 82.5t85.5 33.5q48 0 82.5 -33.5t34.5 -82.5t-34.5 -84t-82.5 -35zM1321 1044q156 0 231.5 -93.5t38.5 -268.5l-145 -682h-180l139 651q25 115 -22 175.5t-136 60.5q-100 0 -179.5 -73t-104.5 -189l-134 -625h-180l135 637
q26 120 -19.5 185t-133.5 65q-89 0 -173 -67.5t-110 -190.5l-135 -629h-178l217 1024h162l-8 -123h12q128 143 297 143q116 0 176.5 -54t75.5 -126h10q55 77 141 128.5t203 51.5z" />
    <glyph glyph-name="uni1E44" unicode="&#x1e44;" horiz-adv-x="1511" 
d="M1014 1597q-50 0 -85.5 35t-35.5 84t35.5 83t85.5 34q48 0 82 -34t34 -83t-34.5 -84t-81.5 -35zM1348 1434h182l-305 -1434h-181l-540 1118h-15l-237 -1118h-182l305 1434h182l539 -1119h14z" />
    <glyph glyph-name="uni1E45" unicode="&#x1e45;" horiz-adv-x="1148" 
d="M743 1188q-50 0 -85 35t-35 84t35 82.5t85 33.5q48 0 82.5 -33.5t34.5 -82.5t-34.5 -84t-82.5 -35zM737 1044q170 0 253 -106t42 -301l-135 -637h-178l127 604q31 140 -20 211.5t-158 71.5q-112 0 -205 -76.5t-125 -226.5l-125 -584h-178l217 1024h162l-8 -123h12
q42 44 79.5 71.5t101 49.5t138.5 22z" />
    <glyph glyph-name="uni1E56" unicode="&#x1e56;" horiz-adv-x="1296" 
d="M909 1597q-50 0 -85.5 35t-35.5 84t35.5 83t85.5 34q48 0 82.5 -34t34.5 -83t-34.5 -84t-82.5 -35zM879 1434q181 0 287 -95.5t106 -255.5q0 -144 -68 -261t-195.5 -186t-291.5 -69h-346l-121 -567h-180l305 1434h504zM721 733q160 0 259 92t99 230q0 104 -61.5 158.5
t-167.5 54.5h-330l-114 -535h315z" />
    <glyph glyph-name="uni1E57" unicode="&#x1e57;" horiz-adv-x="1234" 
d="M889 1188q-50 0 -85.5 35t-35.5 84t35.5 82.5t85.5 33.5q48 0 82.5 -33.5t34.5 -82.5t-34.5 -84t-82.5 -35zM752 1044q175 0 280 -112t105 -307q0 -170 -76.5 -318t-212.5 -237.5t-299 -89.5q-118 0 -195 49t-110 116l-119 -555h-178l305 1434h147l-14 -145h14
q144 165 353 165zM545 137q108 0 203 66t150.5 175t55.5 230q0 130 -65 204.5t-178 74.5q-80 0 -155 -39.5t-128.5 -105t-86 -153t-32.5 -179.5q0 -129 62.5 -201t173.5 -72z" />
    <glyph glyph-name="uni1E58" unicode="&#x1e58;" horiz-adv-x="1275" 
d="M911 1597q-50 0 -85 35t-35 84t35 83t85 34q48 0 82.5 -34t34.5 -83t-34.5 -84t-82.5 -35zM1251 1090q0 -168 -109 -295t-294 -168l239 -627h-190l-225 602h-291l-129 -602h-182l305 1434h485q183 0 287 -90t104 -254zM713 764q155 0 251.5 88.5t96.5 218.5
q0 98 -63 149.5t-177 51.5h-299l-108 -508h299z" />
    <glyph glyph-name="uni1E59" unicode="&#x1e59;" horiz-adv-x="729" 
d="M586 1188q-50 0 -85.5 35t-35.5 84t35.5 82.5t85.5 33.5q48 0 82 -33.5t34 -82.5t-34.5 -84t-81.5 -35zM731 1044h70l-37 -180q-31 4 -92 4q-127 0 -220 -92t-124 -239l-115 -537h-178l217 1024h162l-13 -141h15q64 81 134 121t181 40z" />
    <glyph glyph-name="uni1E60" unicode="&#x1e60;" horiz-adv-x="1243" 
d="M895 1597q-50 0 -85.5 35t-35.5 84t35.5 83t85.5 34q48 0 82.5 -34t34.5 -83t-34.5 -84t-82.5 -35zM1081 436q0 -197 -151 -326.5t-395 -129.5q-220 0 -335 114.5t-87 315.5h182q-11 -129 56 -199t202 -70q148 0 242 78.5t94 198.5q0 25 -5.5 47.5t-12 39.5t-22 33.5
t-25.5 27t-34.5 23.5t-35.5 19t-41 17.5t-40 15t-44 14.5l-51 17q-44 15 -80.5 31t-77.5 44.5t-68.5 61.5t-46 83t-18.5 109q0 122 68 225.5t190.5 165.5t271.5 62q204 0 314 -114.5t81 -290.5h-180q11 107 -46.5 175t-180.5 68q-133 0 -230.5 -79t-97.5 -185
q0 -31 8.5 -57.5t27.5 -46.5t37.5 -34.5t49 -28t51 -21t54.5 -19.5q8 -3 12 -4l43 -14q45 -15 80 -29.5t83.5 -45.5t80 -68t54.5 -95.5t23 -128.5z" />
    <glyph glyph-name="uni1E61" unicode="&#x1e61;" horiz-adv-x="983" 
d="M641 1188q-50 0 -85.5 35t-35.5 84t35.5 82.5t85.5 33.5q48 0 82.5 -33.5t34.5 -82.5t-34.5 -84t-82.5 -35zM827 326q0 -159 -113 -252.5t-304 -93.5t-280 90.5t-67 240.5h173q-11 -100 41 -145t147 -45q97 0 161 48t64 126q0 32 -14 57.5t-41 43.5t-52 29.5t-61 23.5
l-51 16q-246 72 -246 242q0 147 114.5 242t285.5 95q90 0 157 -25t103.5 -67t51 -93t7.5 -107h-172q8 68 -35.5 109.5t-124.5 41.5q-88 0 -149.5 -49.5t-61.5 -122.5q0 -12 2.5 -22.5t6 -19t11 -16.5t13 -13.5t17.5 -12.5t18.5 -10.5t22.5 -9.5t23 -9t25 -9.5t25 -8.5
l41 -12q54 -17 97 -38t82.5 -51.5t61 -74.5t21.5 -98z" />
    <glyph glyph-name="uni1E7C" unicode="&#x1e7c;" horiz-adv-x="1349" 
d="M1296 1776q-29 -105 -90 -173.5t-151 -68.5q-43 0 -77 13.5t-56 32t-41 37.5t-41 32.5t-47 13.5q-87 0 -121 -113h-129q33 108 93.5 176t151.5 68q44 0 79 -13.5t56.5 -33t39.5 -38.5t39.5 -32.5t46.5 -13.5q44 0 74.5 32.5t45.5 80.5h127zM1280 1434h211l-811 -1434
h-229l-201 1434h190l160 -1190h14z" />
    <glyph glyph-name="uni1E7D" unicode="&#x1e7d;" horiz-adv-x="1087" 
d="M1077 1366q-29 -105 -90 -173.5t-151 -68.5q-43 0 -77 13.5t-56 32t-41.5 37.5t-41.5 32.5t-47 13.5q-86 0 -120 -112h-129q33 108 93.5 175.5t151.5 67.5q44 0 79 -13.5t56 -33t39 -38.5t39.5 -32.5t46.5 -13.5q44 0 75 32.5t46 80.5h127zM961 1024h192l-606 -1024h-223
l-172 1024h180l131 -838h12z" />
    <glyph glyph-name="Wgrave" unicode="&#x1e80;" horiz-adv-x="1832" 
d="M1128 1843l80 -297h-139l-92 297h151zM1790 1434h184l-624 -1434h-215l-86 1096h-15l-553 -1096h-215l-16 1434h176v-1172h12l541 1069h209l82 -1069h14z" />
    <glyph glyph-name="wgrave" unicode="&#x1e81;" horiz-adv-x="1474" 
d="M860 1434l80 -297h-139l-92 297h151zM1364 1024h178l-479 -1024h-209l-57 752h-15l-383 -752h-206l-41 1024h161l19 -817h14l377 743h199l61 -743h14z" />
    <glyph glyph-name="Wacute" unicode="&#x1e82;" horiz-adv-x="1832" 
d="M1266 1843h170l-222 -297h-153zM1790 1434h184l-624 -1434h-215l-86 1096h-15l-553 -1096h-215l-16 1434h176v-1172h12l541 1069h209l82 -1069h14z" />
    <glyph glyph-name="wacute" unicode="&#x1e83;" horiz-adv-x="1474" 
d="M997 1434h170l-221 -297h-153zM1364 1024h178l-479 -1024h-209l-57 752h-15l-383 -752h-206l-41 1024h161l19 -817h14l377 743h199l61 -743h14z" />
    <glyph glyph-name="Wdieresis" unicode="&#x1e84;" horiz-adv-x="1832" 
d="M936 1569q-51 0 -88 36t-37 87t37 87t88 36q50 0 86.5 -36t36.5 -87t-36.5 -87t-86.5 -36zM1405 1569q-50 0 -85.5 36t-35.5 87t35.5 87t85.5 36q51 0 87 -36t36 -87t-36 -87t-87 -36zM1790 1434h184l-624 -1434h-215l-86 1096h-15l-553 -1096h-215l-16 1434h176v-1172
h12l541 1069h209l82 -1069h14z" />
    <glyph glyph-name="wdieresis" unicode="&#x1e85;" horiz-adv-x="1474" 
d="M711 1143q-46 0 -79.5 33t-33.5 79q0 47 33.5 80t79.5 33t78 -33t32 -80q0 -46 -32 -79t-78 -33zM1083 1143q-44 0 -77 33t-33 79q0 47 32.5 80t77.5 33q46 0 78.5 -33t32.5 -80q0 -46 -32.5 -79t-78.5 -33zM1364 1024h178l-479 -1024h-209l-57 752h-15l-383 -752h-206
l-41 1024h161l19 -817h14l377 743h199l61 -743h14z" />
    <glyph glyph-name="uni1E8C" unicode="&#x1e8c;" horiz-adv-x="1267" 
d="M653 1569q-51 0 -88 36t-37 87t37 87t88 36q50 0 86.5 -36t36.5 -87t-36.5 -87t-86.5 -36zM1122 1569q-50 0 -85.5 36t-35.5 87t35.5 87t85.5 36q51 0 87 -36t36 -87t-36 -87t-87 -36zM901 0l-229 582h-15l-477 -582h-235l614 739l-287 695h207l217 -541h15l450 541h228
l-582 -695l299 -739h-205z" />
    <glyph glyph-name="uni1E8D" unicode="&#x1e8d;" horiz-adv-x="1021" 
d="M483 1143q-46 0 -79 33t-33 79q0 47 33 80t79 33t78.5 -33t32.5 -80q0 -46 -32.5 -79t-78.5 -33zM856 1143q-44 0 -77.5 33.5t-33.5 78.5q0 47 33 80t78 33q46 0 78.5 -33t32.5 -80q0 -46 -32.5 -79t-78.5 -33zM674 0l-170 391h-15l-339 -391h-216l469 530l-223 494h195
l153 -352h15l299 352h213l-424 -494l239 -530h-196z" />
    <glyph glyph-name="uni1E90" unicode="&#x1e90;" horiz-adv-x="1263" 
d="M752 1554h-170l268 289h160l147 -289h-153l-82 177h-13zM346 168h703l-37 -168h-985l22 104l959 1151v11h-670l37 168h938l-23 -105l-944 -1151v-10z" />
    <glyph glyph-name="uni1E97" unicode="&#x1e97;" horiz-adv-x="733" 
d="M389 1421q-46 0 -79.5 33.5t-33.5 79.5q0 47 33.5 80t79.5 33t78.5 -33t32.5 -80q0 -46 -32.5 -79.5t-78.5 -33.5zM762 1421q-44 0 -77.5 33.5t-33.5 79.5q0 47 33 80t78 33q46 0 78 -33t32 -80q0 -46 -32.5 -79.5t-77.5 -33.5zM803 1024l-33 -145h-254l-131 -623
q-28 -129 100 -129q52 0 105 16l-29 -141q-86 -22 -143 -22q-51 0 -91 10.5t-65 29t-41.5 42t-22.5 52.5t-6 57.5t7 59.5l137 648h-217l31 145h69q88 0 132.5 32.5t64.5 119.5l26 127h164l-59 -279h256z" />
    <glyph glyph-name="uni1E98" unicode="&#x1e98;" horiz-adv-x="1474" 
d="M907 1108q-81 0 -138.5 58t-57.5 137q0 80 57.5 137t138.5 57q80 0 138.5 -57.5t58.5 -136.5q0 -78 -59 -136.5t-138 -58.5zM909 1212q34 0 59 27t25 64q0 35 -25 61.5t-59 26.5q-38 0 -63 -26t-25 -62q0 -37 25 -64t63 -27zM1364 1024h178l-479 -1024h-209l-57 752h-15
l-383 -752h-206l-41 1024h161l19 -817h14l377 743h199l61 -743h14z" />
    <glyph glyph-name="uni1E99" unicode="&#x1e99;" horiz-adv-x="1087" 
d="M713 1108q-81 0 -139 58t-58 137q0 80 57.5 137t139.5 57q80 0 138 -57.5t58 -136.5q0 -78 -58.5 -136.5t-137.5 -58.5zM715 1212q34 0 59 27t25 64q0 35 -25 61.5t-59 26.5q-38 0 -63 -26t-25 -62q0 -37 25 -64t63 -27zM1153 1024l-682 -1184q-18 -31 -23.5 -41t-30 -46
t-42.5 -54t-52.5 -47t-68 -43.5t-81.5 -26.5t-101 -12q-75 0 -152 22l29 138q66 -15 106 -15q149 0 244 152l82 133h-53l-176 1024h178l137 -838h14l475 838h197z" />
    <glyph glyph-name="uni1E9E" unicode="&#x1e9e;" horiz-adv-x="2465" 
d="M1081 436q0 -197 -151 -326.5t-395 -129.5q-220 0 -335 114.5t-87 315.5h182q-11 -129 56 -199t202 -70q148 0 242 78.5t94 198.5q0 25 -5.5 47.5t-12 39.5t-22 33.5t-25.5 27t-34.5 23.5t-35.5 19t-41 17.5t-40 15t-44 14.5l-51 17q-44 15 -80.5 31t-77.5 44.5
t-68.5 61.5t-46 83t-18.5 109q0 122 68 225.5t190.5 165.5t271.5 62q204 0 314 -114.5t81 -290.5h-180q11 107 -46.5 175t-180.5 68q-133 0 -230.5 -79t-97.5 -185q0 -31 8.5 -57.5t27.5 -46.5t37.5 -34.5t49 -28t51 -21t54.5 -19.5q8 -3 12 -4l43 -14q45 -15 80 -29.5
t83.5 -45.5t80 -68t54.5 -95.5t23 -128.5zM2302 436q0 -197 -151.5 -326.5t-395.5 -129.5q-220 0 -335 114.5t-87 315.5h183q-11 -129 56 -199t202 -70q148 0 241.5 78.5t93.5 198.5q0 25 -5.5 47.5t-12 39.5t-22 33.5t-25.5 27t-34.5 23.5t-35.5 19t-41 17.5t-40 15
t-44 14.5l-51 17q-44 15 -80.5 31t-77.5 44.5t-68.5 61.5t-46 83t-18.5 109q0 122 68.5 225.5t191 165.5t271.5 62q204 0 314 -114.5t81 -290.5h-180q11 107 -46.5 175t-181.5 68q-133 0 -230 -79t-97 -185q0 -38 14.5 -68.5t33.5 -50t54.5 -38t59.5 -27.5t65 -23
q8 -3 12 -4l43 -14q45 -15 80 -29.5t83.5 -45.5t80.5 -67.5t55 -95.5t23 -129z" />
    <glyph glyph-name="uni1EA0" unicode="&#x1ea0;" horiz-adv-x="1335" 
d="M1174 0h-193l-49 391h-565l-215 -391h-207l805 1434h229zM453 551h458l-82 663h-12zM502 -164q50 0 84.5 -34t34.5 -83t-34.5 -83.5t-84.5 -34.5t-85.5 34.5t-35.5 83.5t35.5 83t85.5 34z" />
    <glyph glyph-name="uni1EA1" unicode="&#x1ea1;" horiz-adv-x="1236" 
d="M1022 1024h180l-219 -1024h-147l14 145h-12q-151 -165 -355 -165q-174 0 -279.5 112t-105.5 305q0 170 77.5 319t213.5 238.5t297 89.5q118 0 197 -47.5t108 -115.5zM524 137q80 0 155 39.5t128.5 105t86 153t32.5 179.5q0 129 -62 201t-174 72q-108 0 -202.5 -66
t-149.5 -175t-55 -230q0 -130 64 -204.5t177 -74.5zM451 -164q50 0 84 -34t34 -83t-34.5 -83.5t-83.5 -34.5q-50 0 -85.5 34.5t-35.5 83.5t35.5 83t85.5 34z" />
    <glyph glyph-name="uni1EB8" unicode="&#x1eb8;" horiz-adv-x="1200" 
d="M287 166h743l-35 -166h-925l305 1434h905l-35 -166h-723l-98 -459h635l-35 -162h-635zM475 -399q-50 0 -85.5 34.5t-35.5 83.5t35.5 83t85.5 34t84.5 -34t34.5 -83t-34.5 -83.5t-84.5 -34.5z" />
    <glyph glyph-name="uni1EB9" unicode="&#x1eb9;" horiz-adv-x="1169" 
d="M1047 469h-764q-28 -154 38 -248t207 -94q100 0 178.5 44t120.5 128h181q-66 -152 -193 -235.5t-301 -83.5q-187 0 -302.5 111t-115.5 290q0 177 80 330t218 243t300 90q169 0 277 -98t108 -276q0 -110 -32 -201zM682 897q-125 0 -228.5 -87t-140.5 -210h590
q26 132 -34.5 214.5t-186.5 82.5zM434 -164q50 0 84.5 -34t34.5 -83t-34.5 -83.5t-84.5 -34.5t-85.5 34.5t-35.5 83.5t35.5 83t85.5 34z" />
    <glyph glyph-name="uni1EBC" unicode="&#x1ebc;" horiz-adv-x="1200" 
d="M1253 1776q-29 -105 -90 -173.5t-151 -68.5q-43 0 -77 13.5t-56 32t-41 37.5t-41 32.5t-47 13.5q-87 0 -121 -113h-129q33 108 93.5 176t151.5 68q44 0 79 -13.5t56.5 -33t39.5 -38.5t39.5 -32.5t46.5 -13.5q44 0 74.5 32.5t45.5 80.5h127zM287 166h743l-35 -166h-925
l305 1434h905l-35 -166h-723l-98 -459h635l-35 -162h-635z" />
    <glyph glyph-name="uni1EBD" unicode="&#x1ebd;" horiz-adv-x="1169" 
d="M633 1253q-87 0 -121 -112h-129q33 108 93.5 175.5t152.5 67.5q44 0 79 -13.5t56 -33t39 -38.5t39.5 -32.5t46.5 -13.5q44 0 75 32.5t46 80.5h127q-29 -105 -90.5 -173.5t-151.5 -68.5q-43 0 -77 13.5t-56 32t-41 37.5t-41 32.5t-47 13.5zM694 1044q169 0 277 -98
t108 -276q0 -110 -32 -201h-764q-28 -154 38 -248t207 -94q100 0 178.5 44t120.5 128h181q-66 -152 -193 -235.5t-301 -83.5q-187 0 -302.5 111t-115.5 290q0 177 80 330t218 243t300 90zM682 897q-125 0 -228.5 -87t-140.5 -210h590q26 132 -34.5 214.5t-186.5 82.5z" />
    <glyph glyph-name="uni1ECA" unicode="&#x1eca;" horiz-adv-x="542" 
d="M561 1434l-305 -1434h-186l305 1434h186zM104 -399q-50 0 -85 34.5t-35 83.5t35 83t85 34t84.5 -34t34.5 -83t-34.5 -83.5t-84.5 -34.5z" />
    <glyph glyph-name="uni1ECB" unicode="&#x1ecb;" horiz-adv-x="464" 
d="M403 1188q-50 0 -85 35t-35 84t35 82.5t85 33.5q48 0 82.5 -33.5t34.5 -82.5t-34.5 -84t-82.5 -35zM430 1024l-217 -1024h-178l217 1024h178zM66 -399q-50 0 -85.5 34.5t-35.5 83.5t35.5 83t85.5 34t84 -34t34 -83t-34 -83.5t-84 -34.5z" />
    <glyph glyph-name="uni1ECC" unicode="&#x1ecc;" horiz-adv-x="1697" 
d="M760 -20q-266 0 -430 163t-164 426q0 134 44 266t124 242.5t185.5 195.5t236.5 133t268 48q266 0 431 -164.5t165 -427.5q0 -170 -70 -332t-186 -282.5t-275 -194t-329 -73.5zM772 152q127 0 248.5 59.5t210 155.5t142.5 222.5t54 256.5q0 195 -113.5 315.5t-301.5 120.5
q-127 0 -248.5 -59.5t-209.5 -156t-142 -223.5t-54 -257q0 -193 113 -313.5t301 -120.5zM684 -399q-50 0 -85.5 34.5t-35.5 83.5t35.5 83t85.5 34t84.5 -34t34.5 -83t-34.5 -83.5t-84.5 -34.5z" />
    <glyph glyph-name="uni1ECD" unicode="&#x1ecd;" horiz-adv-x="1255" 
d="M535 -20q-195 0 -315 120t-120 314q0 164 84 309t228.5 233t310.5 88q194 0 313 -119.5t119 -312.5q0 -164 -83.5 -309.5t-227.5 -234t-309 -88.5zM547 137q110 0 209.5 65.5t159 173t59.5 226.5q0 125 -71.5 205t-194.5 80q-110 0 -208.5 -65t-157 -172t-58.5 -226
q0 -128 69.5 -207.5t192.5 -79.5zM463 -399q-50 0 -85.5 34.5t-35.5 83.5t35.5 83t85.5 34t84.5 -34t34.5 -83t-34.5 -83.5t-84.5 -34.5z" />
    <glyph glyph-name="uni1EE4" unicode="&#x1ee4;" horiz-adv-x="1470" 
d="M1487 1434l-191 -893q-57 -272 -231.5 -416.5t-423.5 -144.5q-123 0 -219 35.5t-159.5 106t-84 175.5t7.5 244l189 893h186l-186 -881q-41 -194 40.5 -297.5t246.5 -103.5q166 0 288.5 103t163.5 298l186 881h187zM567 -399q-50 0 -85.5 34.5t-35.5 83.5t35.5 83t85.5 34
t84.5 -34t34.5 -83t-34.5 -83.5t-84.5 -34.5z" />
    <glyph glyph-name="uni1EE5" unicode="&#x1ee5;" horiz-adv-x="1148" 
d="M412 -20q-170 0 -253 106t-42 301l135 637h178l-127 -604q-31 -140 20 -211.5t158 -71.5q113 0 205.5 76t124.5 227l125 584h178l-217 -1024h-162l8 123h-12q-42 -44 -79.5 -71.5t-101 -49.5t-138.5 -22zM408 -399q-50 0 -85.5 34.5t-35.5 83.5t35.5 83t85.5 34t84 -34
t34 -83t-34 -83.5t-84 -34.5z" />
    <glyph glyph-name="Ygrave" unicode="&#x1ef2;" horiz-adv-x="1327" 
d="M874 1843l80 -297h-139l-92 297h151zM1235 1434h235l-677 -756l-144 -678h-186l145 678l-358 756h215l260 -553h12z" />
    <glyph glyph-name="ygrave" unicode="&#x1ef3;" horiz-adv-x="1087" 
d="M668 1434l80 -297h-140l-92 297h152zM1153 1024l-682 -1184q-18 -31 -23.5 -41t-30 -46t-42.5 -54t-52.5 -47t-68 -43.5t-81.5 -26.5t-101 -12q-75 0 -152 22l29 138q66 -15 106 -15q149 0 244 152l82 133h-53l-176 1024h178l137 -838h14l475 838h197z" />
    <glyph glyph-name="uni1EF8" unicode="&#x1ef8;" horiz-adv-x="1327" 
d="M1286 1776q-29 -105 -90.5 -173.5t-151.5 -68.5q-43 0 -77 13.5t-56 32t-41 37.5t-41 32.5t-47 13.5q-86 0 -120 -113h-130q33 108 94 176t152 68q44 0 79 -13.5t56 -33t39 -38.5t39.5 -32.5t46.5 -13.5q44 0 75 32.5t46 80.5h127zM1235 1434h235l-677 -756l-144 -678
h-186l145 678l-358 756h215l260 -553h12z" />
    <glyph glyph-name="uni1EF9" unicode="&#x1ef9;" horiz-adv-x="1087" 
d="M1077 1366q-29 -105 -90 -173.5t-151 -68.5q-43 0 -77 13.5t-56 32t-41.5 37.5t-41.5 32.5t-47 13.5q-86 0 -120 -112h-129q33 108 93.5 175.5t151.5 67.5q44 0 79 -13.5t56 -33t39 -38.5t39.5 -32.5t46.5 -13.5q44 0 75 32.5t46 80.5h127zM1153 1024l-682 -1184
q-18 -31 -23.5 -41t-30 -46t-42.5 -54t-52.5 -47t-68 -43.5t-81.5 -26.5t-101 -12q-75 0 -152 22l29 138q66 -15 106 -15q149 0 244 152l82 133h-53l-176 1024h178l137 -838h14l475 838h197z" />
    <glyph glyph-name="uni200B" unicode="&#x200b;" horiz-adv-x="0" 
 />
    <glyph glyph-name="endash" unicode="&#x2013;" horiz-adv-x="1290" 
d="M123 711h1128l-30 -148h-1129z" />
    <glyph glyph-name="emdash" unicode="&#x2014;" horiz-adv-x="1665" 
d="M123 707h1503l-31 -140h-1503z" />
    <glyph glyph-name="quoteleft" unicode="&#x2018;" horiz-adv-x="468" 
d="M348 973q-51 0 -83 33t-32 88q0 98 75 199t196 167l37 -63q-130 -91 -154 -189q40 -2 65 -28t25 -70q0 -61 -36 -99t-93 -38z" />
    <glyph glyph-name="quoteright" unicode="&#x2019;" horiz-adv-x="468" 
d="M418 1454q53 0 83.5 -33t30.5 -90q0 -96 -74.5 -197t-193.5 -167l-39 61q131 96 154 191q-40 0 -65 26.5t-25 71.5q0 60 36 98.5t93 38.5z" />
    <glyph glyph-name="quotesinglbase" unicode="&#x201a;" horiz-adv-x="495" 
d="M170 225q52 0 83.5 -33.5t31.5 -89.5q0 -96 -75 -197t-194 -167l-39 61q134 95 154 189q-39 2 -64.5 28.5t-25.5 69.5q0 61 36.5 100t92.5 39z" />
    <glyph glyph-name="quotedblleft" unicode="&#x201c;" horiz-adv-x="794" 
d="M354 973q-53 0 -84.5 33t-31.5 88q0 97 75 198t195 168l37 -63q-131 -92 -152 -189q39 -2 64.5 -28.5t25.5 -69.5q0 -61 -36.5 -99t-92.5 -38zM680 973q-53 0 -84 33t-31 88q0 98 75 198.5t194 167.5l38 -63q-129 -90 -153 -189q40 -2 65 -28t25 -70q0 -61 -36 -99
t-93 -38z" />
    <glyph glyph-name="quotedblright" unicode="&#x201d;" horiz-adv-x="796" 
d="M418 1454q53 0 83.5 -33t30.5 -90q0 -96 -74.5 -197t-193.5 -167l-39 61q131 96 154 191q-40 0 -65 26.5t-25 71.5q0 60 36 98.5t93 38.5zM745 1454q52 0 83.5 -33.5t31.5 -89.5q0 -97 -75 -197.5t-195 -166.5l-37 61q131 96 154 191q-40 0 -65.5 26.5t-25.5 71.5
q0 60 36 98.5t93 38.5z" />
    <glyph glyph-name="quotedblbase" unicode="&#x201e;" horiz-adv-x="821" 
d="M170 225q52 0 83.5 -33.5t31.5 -89.5q0 -96 -75 -197t-194 -167l-39 61q134 95 154 189q-39 2 -64.5 28.5t-25.5 69.5q0 61 36.5 100t92.5 39zM496 225q52 0 84 -33.5t32 -89.5q0 -97 -75 -197.5t-195 -166.5l-37 61q132 96 152 189q-39 2 -63.5 28t-24.5 70
q0 61 35.5 100t91.5 39z" />
    <glyph glyph-name="dagger" unicode="&#x2020;" horiz-adv-x="1218" 
d="M1155 1053l-33 -154h-346l-192 -899h-166l190 899h-346l33 154h346l82 381h166l-80 -381h346z" />
    <glyph glyph-name="daggerdbl" unicode="&#x2021;" horiz-adv-x="1220" 
d="M1122 899h-346l-78 -364h346l-30 -154h-348l-82 -381h-166l82 381h-348l32 154h346l78 364h-346l33 154h348l80 381h166l-80 -381h348z" />
    <glyph glyph-name="bullet" unicode="&#x2022;" horiz-adv-x="411" 
d="M233 514q-51 0 -86.5 35.5t-35.5 85.5q0 52 35.5 88.5t86.5 36.5t86 -36t35 -89q0 -50 -35 -85.5t-86 -35.5z" />
    <glyph glyph-name="ellipsis" unicode="&#x2026;" horiz-adv-x="1449" 
d="M164 -10q-51 0 -88 36t-37 85q0 52 36.5 87t88.5 35q50 0 85.5 -35t35.5 -87q0 -49 -35.5 -85t-85.5 -36zM641 -10q-51 0 -87 35.5t-36 85.5q0 52 36 87t87 35t86 -35t35 -87q0 -50 -35 -85.5t-86 -35.5zM1120 -10q-51 0 -88 36t-37 85q0 52 36.5 87t88.5 35
q50 0 84.5 -35t34.5 -87q0 -50 -35 -85.5t-84 -35.5z" />
    <glyph glyph-name="perthousand" unicode="&#x2030;" horiz-adv-x="2228" 
d="M561 711q-128 0 -219.5 91t-91.5 218q0 128 92 219.5t219 91.5q126 0 217.5 -92t91.5 -219t-91.5 -218t-217.5 -91zM1401 1311h207l-1170 -1311h-209zM559 1184q-69 0 -114.5 -46.5t-45.5 -117.5q0 -70 45.5 -116t114.5 -46q72 0 118 45.5t46 116.5t-46 117.5t-118 46.5z
M1757 600q126 0 217.5 -91t91.5 -218t-91.5 -219t-217.5 -92q-70 0 -132 29t-105 81q-43 -51 -105.5 -80.5t-130.5 -29.5q-128 0 -219.5 92t-91.5 219t91.5 218t219.5 91q68 0 130.5 -29.5t105.5 -81.5q43 52 105.5 81.5t131.5 29.5zM1282 127q72 0 118 46.5t46 117.5
t-46 116.5t-118 45.5q-68 0 -114 -46t-46 -116t46 -117t114 -47zM1755 127q72 0 118 46.5t46 117.5t-46 116.5t-118 45.5q-69 0 -114.5 -46t-45.5 -116q0 -71 45.5 -117.5t114.5 -46.5z" />
    <glyph glyph-name="guilsinglleft" unicode="&#x2039;" horiz-adv-x="636" 
d="M254 197l-180 413l356 414h209l-369 -422l179 -405h-195z" />
    <glyph glyph-name="guilsinglright" unicode="&#x203a;" horiz-adv-x="636" 
d="M424 1024l180 -414l-356 -413h-209l369 421l-179 406h195z" />
    <glyph glyph-name="uni2042" unicode="&#x2042;" horiz-adv-x="1742" 
d="M1098 874l-211 130l8 -246h-121l8 246l-213 -130l-59 105l217 117l-217 116l59 105l213 -129l-8 246h121l-8 -246l211 129l59 -105l-215 -116l215 -117zM682 559l59 -104l-217 -117l217 -117l-59 -104l-211 131l6 -248h-119l9 248l-213 -131l-60 104l217 119l-217 115
l60 104l213 -129l-9 246h119l-6 -246zM1573 455l-215 -115l215 -119l-60 -104l-210 129l8 -246h-121l8 246l-211 -129l-59 104l217 117l-217 117l59 104l211 -129l-8 246h121l-8 -246l210 129z" />
    <glyph glyph-name="fraction" unicode="&#x2044;" horiz-adv-x="624" 
d="M944 1434l-1020 -1434h-151l1020 1434h151z" />
    <glyph glyph-name="uni2051" unicode="&#x2051;" horiz-adv-x="1089" 
d="M911 1253l-217 -116l217 -117l-59 -105l-211 129l6 -245h-119l7 243l-211 -127l-60 105l217 117l-217 116l60 105l211 -129l-7 246h119l-6 -246l211 129zM852 518l59 -104l-217 -117l217 -117l-59 -104l-211 131l6 -248h-119l7 246l-211 -129l-60 104l217 119l-217 115
l60 104l211 -129l-7 246h119l-6 -246z" />
    <glyph glyph-name="uni2070" unicode="&#x2070;" horiz-adv-x="798" 
d="M530 686q-139 0 -222 103.5t-83 302.5q0 196 83 299.5t222 103.5q138 0 221 -104.5t83 -303.5q0 -196 -82.5 -298.5t-221.5 -102.5zM530 795q77 0 123.5 73.5t46.5 221.5t-46.5 221t-123.5 73t-124.5 -72.5t-47.5 -221.5t47.5 -222t124.5 -73z" />
    <glyph glyph-name="uni2074" unicode="&#x2074;" horiz-adv-x="755" 
d="M780 971v-99h-145v-176h-121v176h-379v64l369 549h131v-514h145zM283 971h231v346h-10z" />
    <glyph glyph-name="uni2075" unicode="&#x2075;" horiz-adv-x="786" 
d="M541 1206q116 0 188 -73.5t72 -184.5q0 -119 -81 -190.5t-210 -71.5q-123 0 -197 64.5t-80 175.5h121q7 -65 49.5 -101.5t106.5 -36.5q74 0 119 43t45 113q0 71 -43.5 118.5t-116.5 47.5q-48 0 -88.5 -21.5t-63.5 -60.5l-112 27l43 430h471v-107h-361l-26 -225
q64 53 164 53z" />
    <glyph glyph-name="uni2076" unicode="&#x2076;" horiz-adv-x="745" 
d="M502 1198q110 0 183 -70.5t73 -181.5q0 -116 -80 -188t-205 -72q-128 0 -206.5 74t-78.5 196q0 75 28 138.5t75 130.5l182 260h154l-230 -309q49 22 105 22zM473 791q73 0 115.5 44.5t42.5 112.5q0 66 -42 110t-114 44q-74 0 -117 -44t-43 -110q0 -67 43.5 -112
t114.5 -45z" />
    <glyph glyph-name="uni2077" unicode="&#x2077;" horiz-adv-x="671" 
d="M252 1485h559v-74q-132 -144 -210.5 -316t-94.5 -399h-131q19 226 83.5 384t172.5 292v6h-379v107z" />
    <glyph glyph-name="uni2078" unicode="&#x2078;" horiz-adv-x="798" 
d="M662 1112q59 -21 101 -74t42 -129q0 -99 -78 -161t-211 -62q-132 0 -211.5 63t-79.5 162q0 76 43.5 128.5t100.5 72.5v6q-115 51 -115 168q0 93 74 151t190 58q112 0 185 -56.5t73 -150.5q0 -120 -114 -170v-6zM518 1401q-62 0 -100.5 -32t-38.5 -87t39 -88t98 -33
t97 32.5t38 88.5q0 54 -37.5 86.5t-95.5 32.5zM516 782q67 0 112.5 38t45.5 98q0 62 -42.5 102.5t-115.5 40.5q-75 0 -117.5 -40.5t-42.5 -100.5q0 -62 45.5 -100t114.5 -38z" />
    <glyph glyph-name="uni2079" unicode="&#x2079;" horiz-adv-x="743" 
d="M500 983q-110 0 -182 70.5t-72 181.5q0 117 79 188.5t205 71.5q128 0 206.5 -74t78.5 -196q0 -74 -28 -137.5t-76 -131.5l-183 -260h-153l229 310q-51 -23 -104 -23zM528 1391q-72 0 -114.5 -45t-42.5 -113q0 -67 42 -110.5t115 -43.5t115.5 44.5t42.5 109.5
q0 68 -43 113t-115 45z" />
    <glyph glyph-name="uni2080" unicode="&#x2080;" horiz-adv-x="798" 
d="M338 -215q-139 0 -222 103t-83 302q0 196 83 300t222 104q138 0 220.5 -104.5t82.5 -303.5q0 -196 -82.5 -298.5t-220.5 -102.5zM338 -106q77 0 123.5 73t46.5 221t-47 221.5t-123 73.5q-77 0 -124.5 -73t-47.5 -222t47.5 -221.5t124.5 -72.5z" />
    <glyph glyph-name="uni2081" unicode="&#x2081;" horiz-adv-x="528" 
d="M195 -205v545h-166v102h77q51 0 77 27.5t26 73.5v41h115v-789h-129z" />
    <glyph glyph-name="uni2082" unicode="&#x2082;" horiz-adv-x="796" 
d="M315 61q-107 -68 -116 -159h395v-107h-545v47q0 182 174 297l125 78q28 19 42 29t35 30t30.5 42.5t9.5 48.5q0 53 -36.5 85.5t-94.5 32.5q-68 0 -108 -44t-42 -99h-133q5 99 81 175.5t208 76.5q115 0 185.5 -60t70.5 -161q0 -38 -12 -72t-24.5 -54.5t-38.5 -43.5
t-35.5 -30t-34.5 -23z" />
    <glyph glyph-name="uni2083" unicode="&#x2083;" horiz-adv-x="794" 
d="M475 201q63 -21 100 -70t37 -117q0 -99 -83 -164t-214 -65q-126 0 -199.5 62.5t-82.5 172.5h127q10 -59 48 -92.5t107 -33.5q73 0 118.5 34.5t45.5 91.5q0 58 -41.5 94t-111.5 36h-80v98h73q61 0 99.5 32.5t38.5 88.5q0 55 -39 87.5t-101 32.5q-57 0 -97 -29t-52 -83
h-125q7 96 88.5 156.5t190.5 60.5q111 0 186.5 -60t75.5 -159q0 -108 -109 -168v-6z" />
    <glyph glyph-name="uni2084" unicode="&#x2084;" horiz-adv-x="755" 
d="M588 70v-99h-146v-176h-120v176h-379v64l368 549h131v-514h146zM90 70h232v346h-11z" />
    <glyph glyph-name="uni2085" unicode="&#x2085;" horiz-adv-x="786" 
d="M348 305q116 0 188 -73.5t72 -184.5q0 -119 -81 -190.5t-210 -71.5q-122 0 -196 64.5t-80 175.5h121q7 -65 49 -101.5t106 -36.5q74 0 119 43t45 113q0 71 -43 118.5t-116 47.5q-48 0 -88.5 -21.5t-63.5 -60.5l-113 27l43 430h471v-107h-360l-27 -225q64 53 164 53z" />
    <glyph glyph-name="uni2086" unicode="&#x2086;" horiz-adv-x="745" 
d="M309 297q110 0 183 -70.5t73 -181.5q0 -116 -79.5 -188t-204.5 -72q-128 0 -206.5 74t-78.5 196q0 123 102 269l183 260h153l-229 -310q51 23 104 23zM281 -111q73 0 115 45t42 113q0 67 -41.5 110.5t-113.5 43.5q-74 0 -117 -44t-43 -110q0 -67 43.5 -112.5t114.5 -45.5
z" />
    <glyph glyph-name="uni2087" unicode="&#x2087;" horiz-adv-x="671" 
d="M59 584h559v-74q-132 -144 -210.5 -316t-94.5 -399h-131q19 226 83.5 384t172.5 292v6h-379v107z" />
    <glyph glyph-name="uni2088" unicode="&#x2088;" horiz-adv-x="798" 
d="M469 211q59 -21 101 -74t42 -129q0 -99 -77.5 -161t-210.5 -62q-132 0 -211.5 63t-79.5 162q0 77 43 129t100 72v6q-115 51 -115 168q0 93 74.5 151t190.5 58q112 0 185 -56.5t73 -150.5q0 -120 -115 -170v-6zM326 500q-62 0 -101 -32t-39 -87t39.5 -88t98.5 -33t97 32.5
t38 88.5q0 54 -37.5 86.5t-95.5 32.5zM324 -119q67 0 112 37.5t45 97.5q0 62 -42 103t-115 41q-75 0 -117.5 -41t-42.5 -101q0 -62 45.5 -99.5t114.5 -37.5z" />
    <glyph glyph-name="uni2089" unicode="&#x2089;" horiz-adv-x="743" 
d="M307 82q-110 0 -182 70.5t-72 181.5q0 117 79 188.5t206 71.5q128 0 206.5 -74t78.5 -196q0 -74 -28.5 -137t-76.5 -132l-182 -260h-154l230 309q-49 -22 -105 -22zM336 489q-72 0 -115 -44.5t-43 -112.5q0 -67 42.5 -110.5t115.5 -43.5t115.5 44.5t42.5 109.5
q0 68 -43 112.5t-115 44.5z" />
    <glyph glyph-name="Euro" unicode="&#x20ac;" horiz-adv-x="1308" 
d="M1032 1180q-147 0 -269.5 -72.5t-203.5 -200.5h610l-61 -139h-616q-37 -97 -46 -215h545l-59 -137h-483q19 -134 108.5 -207.5t251.5 -73.5q191 0 336 88l20 -139q-174 -104 -383 -104q-225 0 -361 118t-153 318h-174l29 137h147q5 100 39 215h-141l31 139h168
q99 196 274.5 310t392.5 114q113 0 210 -26.5t153 -67.5l-86 -135q-129 78 -279 78z" />
    <glyph glyph-name="uni2113" unicode="&#x2113;" horiz-adv-x="923" 
d="M412 530l-41 -186q-48 -219 178 -219q80 0 160 29l-29 -142q-77 -32 -182 -32q-76 0 -135.5 21t-100.5 64.5t-54 109t5 153.5l33 155q-99 -22 -178 -32l30 141q96 18 181 43l79 369q32 149 118 238t218 89q108 0 172 -63t64 -158q0 -198 -136.5 -346.5t-381.5 -233.5z
M508 983l-62 -289q160 73 247 172t87 213q0 52 -26.5 84.5t-75.5 32.5q-60 0 -104 -55t-66 -158z" />
    <glyph glyph-name="trademark" unicode="&#x2122;" horiz-adv-x="1599" 
d="M780 1317h-207l-127 -600h-131l127 600h-204l24 117h543zM1536 1434h168l-152 -717h-129l105 483h-8l-275 -401h-127l-102 401h-6l-105 -483h-127l152 717h147l125 -488h8z" />
    <glyph glyph-name="uni2153" unicode="&#x2153;" horiz-adv-x="1943" 
d="M512 645v545h-166v102h78q50 0 76 27.5t26 73.5v41h115v-789h-129zM1528 1434l-1020 -1434h-152l1020 1434h152zM1563 406q63 -21 100 -70t37 -117q0 -99 -83 -164t-214 -65q-126 0 -200 62.5t-83 172.5h127q10 -59 48.5 -93t107.5 -34q72 0 118 35t46 92
q0 58 -42.5 93.5t-113.5 35.5h-78v99h74q61 0 98 32t37 88q0 55 -37.5 88t-99.5 33q-57 0 -97.5 -29t-52.5 -83h-125q7 96 88.5 156.5t190.5 60.5q111 0 186.5 -60t75.5 -159q0 -109 -108 -168v-6z" />
    <glyph glyph-name="uni2154" unicode="&#x2154;" horiz-adv-x="2107" 
d="M590 911q-106 -69 -117 -159h395v-107h-542v47q0 183 172 297l127 78q27 18 41.5 29t34 30.5t29 42t9.5 48.5q0 53 -36.5 85.5t-94.5 32.5q-68 0 -107 -43.5t-42 -99.5h-131q3 99 78.5 175.5t209.5 76.5q115 0 184.5 -60t69.5 -161q0 -38 -12 -72.5t-24 -54t-39 -44.5
t-34.5 -30t-33.5 -23zM1692 1434l-1020 -1434h-152l1020 1434h152zM1724 406q63 -21 100.5 -70t37.5 -117q0 -99 -82.5 -164t-212.5 -65q-126 0 -200 62.5t-85 172.5h127q9 -58 49 -92.5t109 -34.5q71 0 117.5 35.5t46.5 91.5q0 58 -42.5 93.5t-113.5 35.5h-78v99h72
q61 0 99 32t38 88q0 55 -38.5 88t-100.5 33q-56 0 -97 -29t-53 -83h-123q6 96 87.5 156.5t191.5 60.5q109 0 185.5 -60.5t76.5 -158.5q0 -107 -111 -168v-6z" />
    <glyph glyph-name="arrowup" unicode="&#x2191;" horiz-adv-x="1462" 
d="M1438 903l-111 -112l-432 432v-1237h-160v1241l-432 -436l-113 112l615 598h18z" />
    <glyph glyph-name="arrowdown" unicode="&#x2193;" horiz-adv-x="1462" 
d="M1245 629l113 -113l-617 -598h-16l-616 598l112 113l432 -432v1237h160v-1237z" />
    <glyph glyph-name="arrowboth" unicode="&#x2194;" horiz-adv-x="2103" 
d="M1493 1341l598 -616v-16l-598 -617l-113 113l435 432h-1438l434 -432l-113 -113l-598 617v16l598 616l113 -112l-434 -432h1438l-435 432z" />
    <glyph glyph-name="arrowupdn" unicode="&#x2195;" horiz-adv-x="1605" 
d="M924 43l430 430l112 -113l-616 -598h-16l-615 598l111 113l432 -432v1313l-432 -432l-111 112l615 598h16l616 -598l-112 -112l-430 430v-1309z" />
    <glyph glyph-name="uni2196" unicode="&#x2196;" horiz-adv-x="1280" 
d="M1286 223l-119 -119l-876 879v-629h-148v881l17 14h880v-149h-632z" />
    <glyph glyph-name="uni2197" unicode="&#x2197;" horiz-adv-x="1280" 
d="M1120 1249l17 -14v-881h-148v629l-876 -879l-119 119l878 877h-632v149h880z" />
    <glyph glyph-name="uni2198" unicode="&#x2198;" horiz-adv-x="1519" 
d="M1210 1145h150v-883l-17 -16h-880v149h627l-875 877l117 119l878 -881v635z" />
    <glyph glyph-name="uni2199" unicode="&#x2199;" horiz-adv-x="1519" 
d="M1305 1272l-875 -877h627v-149h-881l-16 16v883h149v-635l879 881z" />
    <glyph glyph-name="partialdiff" unicode="&#x2202;" horiz-adv-x="1280" 
d="M1210 1001q0 -294 -80.5 -524t-237.5 -363.5t-368 -133.5q-172 0 -289.5 107t-117.5 275q0 153 75 283.5t204.5 206.5t283.5 76q120 0 217 -57t121 -136h14q23 177 12.5 302.5t-74 193t-182.5 67.5q-78 0 -148.5 -35.5t-111 -79t-63.5 -89.5h-164q23 67 69 130t109.5 115
t148.5 83.5t177 31.5q198 0 301.5 -119t103.5 -334zM545 131q155 0 275 123t120 281q0 110 -73.5 175.5t-192.5 65.5q-158 0 -273.5 -117t-115.5 -278q0 -113 71.5 -181.5t188.5 -68.5z" />
    <glyph glyph-name="emptyset" unicode="&#x2205;" horiz-adv-x="1646" 
d="M1645 1229l-183 -152q84 -133 84 -293q0 -155 -68 -303t-180 -257.5t-263 -176.5t-310 -67q-237 0 -395 155l-189 -155l-75 102l184 154q-84 136 -84 294q0 103 31.5 204.5t86 189t132 163.5t167.5 129.5t193.5 84t208.5 30.5q238 0 399 -155l187 155zM330 543
q0 -114 47 -203l880 731q-116 107 -292 107q-119 0 -235.5 -54t-204 -141.5t-141.5 -204t-54 -235.5zM1382 770q0 115 -47 201l-880 -731q113 -107 288 -107q120 0 237 54t205 141.5t142.5 205t54.5 236.5z" />
    <glyph glyph-name="product" unicode="&#x220f;" horiz-adv-x="1390" 
d="M1409 1434l-305 -1434h-189l271 1270h-658l-270 -1270h-188l305 1434h1034z" />
    <glyph glyph-name="summation" unicode="&#x2211;" horiz-adv-x="1169" 
d="M319 1329l23 105h905l-33 -150h-651l-2 -10l352 -522l-18 -80l-557 -512v-10h657l-32 -150h-936l22 104l670 623v10z" />
    <glyph glyph-name="minus" unicode="&#x2212;" 
d="M168 649h862l-33 -151h-862z" />
    <glyph glyph-name="radical" unicode="&#x221a;" horiz-adv-x="1411" 
d="M1526 1434l-33 -154h-244l-725 -1280h-229l-143 1024h188l104 -780h15l667 1190h400z" />
    <glyph glyph-name="infinity" unicode="&#x221e;" horiz-adv-x="1681" 
d="M1321 1051q118 0 206.5 -84t88.5 -211q0 -112 -58 -211.5t-156 -159t-208 -59.5q-234 0 -336 235h-12q-107 -126 -206 -180.5t-206 -54.5q-118 0 -206.5 84t-88.5 211q0 84 35 163.5t92 137.5t135 93.5t160 35.5q110 0 198 -57.5t140 -176.5h12q108 123 205.5 178.5
t204.5 55.5zM471 471q161 0 330 217q-73 217 -240 217q-101 0 -180.5 -81.5t-79.5 -184.5q0 -77 49 -122.5t121 -45.5zM1194 471q101 0 180.5 81.5t79.5 184.5q0 77 -48 122.5t-120 45.5q-163 0 -332 -217q76 -217 240 -217z" />
    <glyph glyph-name="integral" unicode="&#x222b;" horiz-adv-x="1089" 
d="M1016 1454q64 0 117 -23t84 -63l-89 -125q-24 30 -50 45t-66 15q-55 0 -99.5 -35t-66.5 -105l-422 -1321q-43 -134 -137 -203t-213 -69q-66 0 -119 23.5t-84 62.5l90 125q44 -60 117 -60q54 0 99 35t67 105l422 1321q42 136 137 204t213 68z" />
    <glyph glyph-name="approxequal" unicode="&#x2248;" horiz-adv-x="1185" 
d="M1182 954q-21 -69 -52 -128t-74 -107.5t-101.5 -76.5t-125.5 -28q-49 0 -90 12t-69 31t-52 42t-44.5 45.5t-41.5 41.5t-48 31t-58 12q-72 0 -124 -53.5t-77 -136.5h-147q21 69 52 128t74 107.5t101.5 76.5t126.5 28q57 0 103 -16t74 -40t55.5 -51.5t49 -51.5t52.5 -40
t68 -16q74 0 125 54t77 136h146zM1137 506q-44 -147 -134 -243.5t-221 -96.5q-49 0 -90 12t-68.5 31t-51.5 42t-44.5 45.5t-41.5 41.5t-48 31t-59 12q-72 0 -123 -53.5t-78 -137.5h-147q22 69 53 127.5t74 107.5t101.5 77t125.5 28q57 0 103 -16t74 -40t55.5 -51.5t49 -51.5
t52.5 -40t67 -16q74 0 125.5 54.5t77.5 136.5h148z" />
    <glyph glyph-name="notequal" unicode="&#x2260;" 
d="M1063 723h-287l-252 -299h475l-32 -152h-570l-178 -211l-92 64l125 147h-186l30 152h283l252 299h-471l33 154h567l180 215l92 -66l-127 -149h189z" />
    <glyph glyph-name="lessequal" unicode="&#x2264;" 
d="M961 250l-818 371l43 202l975 371l-39 -176l-786 -297v-12l657 -297zM907 0h-895l31 150h895z" />
    <glyph glyph-name="greaterequal" unicode="&#x2265;" 
d="M264 1194l817 -371l-43 -205l-975 -368l39 174l787 299v12l-658 297zM12 0l31 150h895l-31 -150h-895z" />
    <glyph glyph-name="lozenge" unicode="&#x25ca;" horiz-adv-x="1243" 
d="M633 1167l567 -594l-567 -593l-567 593zM633 944l-342 -371l342 -370l346 370z" />
    <glyph glyph-name="smileface" unicode="&#x263a;" horiz-adv-x="1775" 
d="M1669 717q0 -151 -58 -287.5t-156.5 -235t-235 -156.5t-287.5 -58q-152 0 -289 59t-235 158.5t-155.5 235.5t-57.5 284q0 150 58 286.5t157 235.5t235.5 157t286.5 58q153 0 290 -59t235 -158t155 -235t57 -285zM547 1092v-93h90v-262h94v262h90v93h-274zM1042 1092v-93
h93v-262h92v262h92v93h-277zM932 166q146 0 271 71t199.5 193t78.5 266l-95 17q0 -123 -60.5 -227.5t-165 -165t-228.5 -60.5q-188 0 -320.5 133t-132.5 320l-94 -17q4 -144 78.5 -266t199 -193t269.5 -71z" />
    <glyph glyph-name="uni2731" unicode="&#x2731;" 
d="M1042 737l-327 -164l258 -163l-96 -123l-252 172l-68 -336h-141l76 336l-326 -172l-43 123l328 163l-258 164l96 123l252 -172l65 336h144l-76 -336l325 172z" />
    <glyph glyph-name="uni2780" unicode="&#x2780;" horiz-adv-x="1775" 
d="M932 -20q-200 0 -369.5 97.5t-268.5 267.5t-99 372t99 372t268.5 267.5t369.5 97.5q149 0 285 -57.5t235 -156t158 -235.5t59 -288t-59 -288t-158 -235.5t-235 -156t-285 -57.5zM930 98q124 0 238 49.5t197 132.5t132 197.5t49 239.5q0 167 -83 309.5t-225 225.5t-308 83
q-165 0 -306.5 -83t-224 -225.5t-82.5 -309.5q0 -125 49 -239.5t131 -197.5t195.5 -132.5t237.5 -49.5zM879 322v544h-166v103h78q51 0 76.5 27t25.5 73v41h115v-788h-129z" />
    <glyph glyph-name="uni2781" unicode="&#x2781;" horiz-adv-x="1775" 
d="M932 -20q-200 0 -369.5 97.5t-268.5 267.5t-99 372t99 372t268.5 267.5t369.5 97.5q149 0 285 -57.5t235 -156t158 -235.5t59 -288t-59 -288t-158 -235.5t-235 -156t-285 -57.5zM930 98q124 0 238 49.5t197 132.5t132 197.5t49 239.5q0 167 -83 309.5t-225 225.5t-308 83
q-165 0 -306.5 -83t-224 -225.5t-82.5 -309.5q0 -125 49 -239.5t131 -197.5t195.5 -132.5t237.5 -49.5zM922 604q-108 -68 -117 -160h395v-106h-545v47q0 182 174 297l125 78q29 19 42 29t34.5 30t31 42t9.5 48q0 53 -36.5 86t-94.5 33q-68 0 -107.5 -44t-41.5 -99h-134
q5 99 81 175.5t208 76.5q115 0 185.5 -60.5t70.5 -161.5q0 -38 -12 -72t-24.5 -54.5t-38.5 -43.5t-35.5 -30t-34.5 -23z" />
    <glyph glyph-name="uni2782" unicode="&#x2782;" horiz-adv-x="1775" 
d="M932 -20q-200 0 -369.5 97.5t-268.5 267.5t-99 372t99 372t268.5 267.5t369.5 97.5q149 0 285 -57.5t235 -156t158 -235.5t59 -288t-59 -288t-158 -235.5t-235 -156t-285 -57.5zM930 98q124 0 238 49.5t197 132.5t132 197.5t49 239.5q0 167 -83 309.5t-225 225.5t-308 83
q-165 0 -306.5 -83t-224 -225.5t-82.5 -309.5q0 -125 49 -239.5t131 -197.5t195.5 -132.5t237.5 -49.5zM1083 727q63 -21 100.5 -70t37.5 -116q0 -99 -83 -164.5t-214 -65.5q-126 0 -200 63t-83 173h127q10 -59 48.5 -93t107.5 -34q72 0 117.5 35t45.5 92q0 58 -41.5 93.5
t-111.5 35.5h-80v98h74q61 0 99 32.5t38 88.5q0 55 -38.5 88t-100.5 33q-57 0 -97.5 -29.5t-52.5 -83.5h-125q7 96 88.5 156.5t190.5 60.5q111 0 186.5 -60t75.5 -159q0 -108 -109 -168v-6z" />
    <glyph glyph-name="uni2783" unicode="&#x2783;" horiz-adv-x="1775" 
d="M932 -20q-200 0 -369.5 97.5t-268.5 267.5t-99 372t99 372t268.5 267.5t369.5 97.5q149 0 285 -57.5t235 -156t158 -235.5t59 -288t-59 -288t-158 -235.5t-235 -156t-285 -57.5zM930 98q124 0 238 49.5t197 132.5t132 197.5t49 239.5q0 167 -83 309.5t-225 225.5t-308 83
q-165 0 -306.5 -83t-224 -225.5t-82.5 -309.5q0 -125 49 -239.5t131 -197.5t195.5 -132.5t237.5 -49.5zM1227 596v-98h-146v-176h-120v176h-379v63l368 549h131v-514h146zM729 596h232v346h-11z" />
    <glyph glyph-name="uni2784" unicode="&#x2784;" horiz-adv-x="1775" 
d="M932 -20q-200 0 -369.5 97.5t-268.5 267.5t-99 372t99 372t268.5 267.5t369.5 97.5q149 0 285 -57.5t235 -156t158 -235.5t59 -288t-59 -288t-158 -235.5t-235 -156t-285 -57.5zM930 98q124 0 238 49.5t197 132.5t132 197.5t49 239.5q0 167 -83 309.5t-225 225.5t-308 83
q-165 0 -306.5 -83t-224 -225.5t-82.5 -309.5q0 -125 49 -239.5t131 -197.5t195.5 -132.5t237.5 -49.5zM948 815q116 0 188 -73.5t72 -184.5q0 -119 -80.5 -190.5t-209.5 -71.5q-123 0 -197 64.5t-80 175.5h121q7 -65 49.5 -101.5t106.5 -36.5q74 0 118.5 43t44.5 113
q0 71 -43 118.5t-116 47.5q-48 0 -88.5 -21.5t-63.5 -60.5l-113 27l43 430h471v-107h-360l-27 -225q64 53 164 53z" />
    <glyph glyph-name="uni2785" unicode="&#x2785;" horiz-adv-x="1775" 
d="M932 -20q-200 0 -369.5 97.5t-268.5 267.5t-99 372t99 372t268.5 267.5t369.5 97.5q149 0 285 -57.5t235 -156t158 -235.5t59 -288t-59 -288t-158 -235.5t-235 -156t-285 -57.5zM930 98q124 0 238 49.5t197 132.5t132 197.5t49 239.5q0 167 -83 309.5t-225 225.5t-308 83
q-165 0 -306.5 -83t-224 -225.5t-82.5 -309.5q0 -125 49 -239.5t131 -197.5t195.5 -132.5t237.5 -49.5zM954 823q110 0 183 -70.5t73 -181.5q0 -116 -79.5 -188t-204.5 -72q-128 0 -206.5 74t-78.5 197q0 75 27.5 138t74.5 130l183 260h153l-229 -309q49 22 104 22zM926 416
q73 0 115 44.5t42 112.5q0 67 -41.5 110.5t-113.5 43.5q-74 0 -117 -44t-43 -110q0 -67 43.5 -112t114.5 -45z" />
    <glyph glyph-name="uni2786" unicode="&#x2786;" horiz-adv-x="1775" 
d="M932 -20q-200 0 -369.5 97.5t-268.5 267.5t-99 372t99 372t268.5 267.5t369.5 97.5q149 0 285 -57.5t235 -156t158 -235.5t59 -288t-59 -288t-158 -235.5t-235 -156t-285 -57.5zM930 98q124 0 238 49.5t197 132.5t132 197.5t49 239.5q0 167 -83 309.5t-225 225.5t-308 83
q-165 0 -306.5 -83t-224 -225.5t-82.5 -309.5q0 -125 49 -239.5t131 -197.5t195.5 -132.5t237.5 -49.5zM655 1094h559v-74q-132 -144 -210.5 -316t-94.5 -399h-131q19 226 83.5 384t172.5 292v6h-379v107z" />
    <glyph glyph-name="uni2787" unicode="&#x2787;" horiz-adv-x="1775" 
d="M932 -20q-200 0 -369.5 97.5t-268.5 267.5t-99 372t99 372t268.5 267.5t369.5 97.5q149 0 285 -57.5t235 -156t158 -235.5t59 -288t-59 -288t-158 -235.5t-235 -156t-285 -57.5zM930 98q124 0 238 49.5t197 132.5t132 197.5t49 239.5q0 167 -83 309.5t-225 225.5t-308 83
q-165 0 -306.5 -83t-224 -225.5t-82.5 -309.5q0 -125 49 -239.5t131 -197.5t195.5 -132.5t237.5 -49.5zM1079 737q59 -21 101.5 -73.5t42.5 -128.5q0 -99 -78 -161.5t-211 -62.5q-132 0 -211.5 63t-79.5 163q0 76 43 128t100 72v6q-114 50 -114 168q0 93 74 151t190 58
q112 0 185 -56.5t73 -150.5q0 -120 -115 -170v-6zM936 1026q-62 0 -100.5 -32t-38.5 -87t39 -88t98 -33t97 32.5t38 88.5q0 54 -37.5 86.5t-95.5 32.5zM934 408q67 0 112.5 37.5t45.5 97.5q0 62 -42.5 102.5t-115.5 40.5q-75 0 -117.5 -40.5t-42.5 -100.5q0 -62 45.5 -99.5
t114.5 -37.5z" />
    <glyph glyph-name="uni2788" unicode="&#x2788;" horiz-adv-x="1775" 
d="M932 -20q-200 0 -369.5 97.5t-268.5 267.5t-99 372t99 372t268.5 267.5t369.5 97.5q149 0 285 -57.5t235 -156t158 -235.5t59 -288t-59 -288t-158 -235.5t-235 -156t-285 -57.5zM930 98q124 0 238 49.5t197 132.5t132 197.5t49 239.5q0 167 -83 309.5t-225 225.5t-308 83
q-165 0 -306.5 -83t-224 -225.5t-82.5 -309.5q0 -125 49 -239.5t131 -197.5t195.5 -132.5t237.5 -49.5zM909 610q-110 0 -182 70.5t-72 181.5q0 117 79 188.5t206 71.5q128 0 206.5 -74t78.5 -196q0 -52 -17.5 -105t-37 -86t-50.5 -77l-182 -260h-154l230 309
q-51 -23 -105 -23zM938 1018q-72 0 -115 -45t-43 -113q0 -66 42.5 -109.5t115.5 -43.5t115.5 44t42.5 109q0 68 -43 113t-115 45z" />
    <glyph glyph-name="uni2789" unicode="&#x2789;" horiz-adv-x="1775" 
d="M932 -20q-200 0 -369.5 97.5t-268.5 267.5t-99 372t99 372t268.5 267.5t369.5 97.5q149 0 285 -57.5t235 -156t158 -235.5t59 -288t-59 -288t-158 -235.5t-235 -156t-285 -57.5zM930 98q124 0 238 49.5t197 132.5t132 197.5t49 239.5q0 167 -83 309.5t-225 225.5t-308 83
q-165 0 -306.5 -83t-224 -225.5t-82.5 -309.5q0 -125 49 -239.5t131 -197.5t195.5 -132.5t237.5 -49.5zM1120 352q-116 0 -187 93t-71 272q0 174 71 268t185 94t184 -94.5t70 -271.5q0 -175 -69.5 -268t-182.5 -93zM635 360v484h-137v100h63q41 0 63.5 24t22.5 68v35h103
v-711h-115zM1118 457q61 0 98 63t37 195q0 135 -37 197.5t-98 62.5t-98 -62t-37 -196q0 -136 37 -198t98 -62z" />
    <glyph glyph-name="uni278A" unicode="&#x278a;" horiz-adv-x="1775" 
d="M932 -20q149 0 285 57.5t235 156t158 235.5t59 288t-59 288t-158 235.5t-235 156t-285 57.5q-200 0 -369.5 -97.5t-268.5 -267.5t-99 -372t99 -372t268.5 -267.5t369.5 -97.5zM879 322v544h-166v103h78q51 0 76.5 27t25.5 73v41h115v-788h-129z" />
    <glyph glyph-name="uni278B" unicode="&#x278b;" horiz-adv-x="1775" 
d="M932 -20q149 0 285 57.5t235 156t158 235.5t59 288t-59 288t-158 235.5t-235 156t-285 57.5q-200 0 -369.5 -97.5t-268.5 -267.5t-99 -372t99 -372t268.5 -267.5t369.5 -97.5zM922 604q-108 -68 -117 -160h395v-106h-545v47q0 182 174 297l125 78q29 19 42 29t34.5 30
t31 42t9.5 48q0 53 -36.5 86t-94.5 33q-68 0 -107.5 -44t-41.5 -99h-134q5 99 81 175.5t208 76.5q115 0 185.5 -60.5t70.5 -161.5q0 -38 -12 -72t-24.5 -54.5t-38.5 -43.5t-35.5 -30t-34.5 -23z" />
    <glyph glyph-name="uni278C" unicode="&#x278c;" horiz-adv-x="1775" 
d="M932 -20q149 0 285 57.5t235 156t158 235.5t59 288t-59 288t-158 235.5t-235 156t-285 57.5q-200 0 -369.5 -97.5t-268.5 -267.5t-99 -372t99 -372t268.5 -267.5t369.5 -97.5zM1083 727q63 -21 100.5 -70t37.5 -116q0 -99 -83 -164.5t-214 -65.5q-126 0 -200 63t-83 173
h127q10 -59 48.5 -93t107.5 -34q72 0 117.5 35t45.5 92q0 58 -41.5 93.5t-111.5 35.5h-80v98h74q61 0 99 32.5t38 88.5q0 55 -38.5 88t-100.5 33q-57 0 -97.5 -29.5t-52.5 -83.5h-125q7 96 88.5 156.5t190.5 60.5q111 0 186.5 -60t75.5 -159q0 -108 -109 -168v-6z" />
    <glyph glyph-name="uni278D" unicode="&#x278d;" horiz-adv-x="1775" 
d="M932 -20q149 0 285 57.5t235 156t158 235.5t59 288t-59 288t-158 235.5t-235 156t-285 57.5q-200 0 -369.5 -97.5t-268.5 -267.5t-99 -372t99 -372t268.5 -267.5t369.5 -97.5zM1227 596v-98h-146v-176h-120v176h-379v63l368 549h131v-514h146zM729 596h232v346h-11z" />
    <glyph glyph-name="uni278E" unicode="&#x278e;" horiz-adv-x="1775" 
d="M932 -20q149 0 285 57.5t235 156t158 235.5t59 288t-59 288t-158 235.5t-235 156t-285 57.5q-200 0 -369.5 -97.5t-268.5 -267.5t-99 -372t99 -372t268.5 -267.5t369.5 -97.5zM948 815q116 0 188 -73.5t72 -184.5q0 -119 -80.5 -190.5t-209.5 -71.5q-123 0 -197 64.5
t-80 175.5h121q7 -65 49.5 -101.5t106.5 -36.5q74 0 118.5 43t44.5 113q0 71 -43 118.5t-116 47.5q-48 0 -88.5 -21.5t-63.5 -60.5l-113 27l43 430h471v-107h-360l-27 -225q64 53 164 53z" />
    <glyph glyph-name="uni278F" unicode="&#x278f;" horiz-adv-x="1775" 
d="M932 -20q149 0 285 57.5t235 156t158 235.5t59 288t-59 288t-158 235.5t-235 156t-285 57.5q-200 0 -369.5 -97.5t-268.5 -267.5t-99 -372t99 -372t268.5 -267.5t369.5 -97.5zM954 823q110 0 183 -70.5t73 -181.5q0 -116 -79.5 -188t-204.5 -72q-128 0 -206.5 74
t-78.5 197q0 75 27.5 138t74.5 130l183 260h153l-229 -309q49 22 104 22zM926 416q73 0 115 44.5t42 112.5q0 67 -41.5 110.5t-113.5 43.5q-74 0 -117 -44t-43 -110q0 -67 43.5 -112t114.5 -45z" />
    <glyph glyph-name="uni2790" unicode="&#x2790;" horiz-adv-x="1775" 
d="M932 -20q149 0 285 57.5t235 156t158 235.5t59 288t-59 288t-158 235.5t-235 156t-285 57.5q-200 0 -369.5 -97.5t-268.5 -267.5t-99 -372t99 -372t268.5 -267.5t369.5 -97.5zM655 1094h559v-74q-132 -144 -210.5 -316t-94.5 -399h-131q19 226 83.5 384t172.5 292v6h-379
v107z" />
    <glyph glyph-name="uni2791" unicode="&#x2791;" horiz-adv-x="1775" 
d="M932 -20q149 0 285 57.5t235 156t158 235.5t59 288t-59 288t-158 235.5t-235 156t-285 57.5q-200 0 -369.5 -97.5t-268.5 -267.5t-99 -372t99 -372t268.5 -267.5t369.5 -97.5zM1079 737q59 -21 101.5 -73.5t42.5 -128.5q0 -99 -78 -161.5t-211 -62.5q-132 0 -211.5 63
t-79.5 163q0 76 43 128t100 72v6q-114 50 -114 168q0 93 74 151t190 58q112 0 185 -56.5t73 -150.5q0 -120 -115 -170v-6zM936 1026q-62 0 -100.5 -32t-38.5 -87t39 -88t98 -33t97 32.5t38 88.5q0 54 -37.5 86.5t-95.5 32.5zM934 408q67 0 112.5 37.5t45.5 97.5
q0 62 -42.5 102.5t-115.5 40.5q-75 0 -117.5 -40.5t-42.5 -100.5q0 -62 45.5 -99.5t114.5 -37.5z" />
    <glyph glyph-name="uni2792" unicode="&#x2792;" horiz-adv-x="1775" 
d="M932 -20q149 0 285 57.5t235 156t158 235.5t59 288t-59 288t-158 235.5t-235 156t-285 57.5q-200 0 -369.5 -97.5t-268.5 -267.5t-99 -372t99 -372t268.5 -267.5t369.5 -97.5zM909 610q-110 0 -182 70.5t-72 181.5q0 117 79 188.5t206 71.5q128 0 206.5 -74t78.5 -196
q0 -52 -17.5 -105t-37 -86t-50.5 -77l-182 -260h-154l230 309q-51 -23 -105 -23zM938 1018q-72 0 -115 -45t-43 -113q0 -66 42.5 -109.5t115.5 -43.5t115.5 44t42.5 109q0 68 -43 113t-115 45z" />
    <glyph glyph-name="uni2793" unicode="&#x2793;" horiz-adv-x="1775" 
d="M932 -20q149 0 285 57.5t235 156t158 235.5t59 288t-59 288t-158 235.5t-235 156t-285 57.5q-200 0 -369.5 -97.5t-268.5 -267.5t-99 -372t99 -372t268.5 -267.5t369.5 -97.5zM1120 352q-116 0 -187 93t-71 272q0 174 71 268t185 94t184 -94.5t70 -271.5
q0 -175 -69.5 -268t-182.5 -93zM635 360v484h-137v100h63q41 0 63.5 24t22.5 68v35h103v-711h-115zM1118 457q61 0 98 63t37 195q0 135 -37 197.5t-98 62.5t-98 -62t-37 -196q0 -136 37 -198t98 -62z" />
    <glyph glyph-name="Aacute.ss01" horiz-adv-x="1335" 
d="M1139 1843l-199 -297h-100l190 297h109zM981 0l-49 391h-565l-215 -391h-207l805 1434h229l195 -1434h-193zM453 551h458l-82 663h-12z" />
    <glyph glyph-name="Abreve.ss01" horiz-adv-x="1335" 
d="M899 1591q-49 0 -87.5 15.5t-60 41.5t-35.5 59t-14 68t5 68h88q-17 -76 15.5 -124t100.5 -48q67 0 118.5 47.5t68.5 124.5h96q-9 -43 -33 -86t-60.5 -80.5t-89.5 -61.5t-112 -24zM750 1434h229l195 -1434h-193l-49 391h-565l-215 -391h-207zM453 551h458l-82 663h-12z
" />
    <glyph glyph-name="uni01CD.ss01" horiz-adv-x="1335" 
d="M948 1573h-100l-154 270h101l108 -192h6l189 192h116zM750 1434h229l195 -1434h-193l-49 391h-565l-215 -391h-207zM453 551h458l-82 663h-12z" />
    <glyph glyph-name="Acircumflex.ss01" horiz-adv-x="1335" 
d="M942 1765l-188 -192h-119l266 270h103l153 -270h-102l-107 192h-6zM981 0l-49 391h-565l-215 -391h-207l805 1434h229l195 -1434h-193zM453 551h458l-82 663h-12z" />
    <glyph glyph-name="Agrave.ss01" horiz-adv-x="1335" 
d="M932 1546h-86l-72 297h94zM981 0l-49 391h-565l-215 -391h-207l805 1434h229l195 -1434h-193zM453 551h458l-82 663h-12z" />
    <glyph glyph-name="Amacron.ss01" horiz-adv-x="1335" 
d="M618 1706h609l-17 -80h-608zM750 1434h229l195 -1434h-193l-49 391h-565l-215 -391h-207zM453 551h458l-82 663h-12z" />
    <glyph glyph-name="Aogonek.ss01" horiz-adv-x="1335" 
d="M1085 -262q45 0 95 12l-15 -78q-44 -14 -92 -14q-78 0 -132 35t-54 102q0 136 176 205h-82l-49 391h-565l-215 -391h-207l805 1434h229l195 -1434q-87 -29 -140 -80.5t-53 -107.5q0 -37 29.5 -55.5t74.5 -18.5zM453 551h458l-82 663h-12z" />
    <glyph glyph-name="Aring.ss01" horiz-adv-x="1335" 
d="M930 1536q-76 0 -132.5 53.5t-56.5 130.5t56.5 131t132.5 54t130 -54t54 -131t-54 -130.5t-130 -53.5zM930 1831q-46 0 -77.5 -32t-31.5 -79t31.5 -78.5t77.5 -31.5q43 0 74.5 31.5t31.5 78.5t-31.5 79t-74.5 32zM981 0l-49 391h-565l-215 -391h-207l805 1434h229
l195 -1434h-193zM453 551h458l-82 663h-12z" />
    <glyph glyph-name="Atilde.ss01" horiz-adv-x="1335" 
d="M791 1686q-48 0 -81.5 -34.5t-50.5 -86.5h-84q68 202 213 202q42 0 74 -13.5t51.5 -33t37 -39.5t39 -33.5t48.5 -13.5q47 0 81 34t50 85h82q-24 -85 -77.5 -143t-131.5 -58q-41 0 -72.5 14t-51.5 33.5t-38 39t-40 33.5t-49 14zM750 1434h229l195 -1434h-193l-49 391h-565
l-215 -391h-207zM453 551h458l-82 663h-12z" />
    <glyph glyph-name="AEacute.ss01" horiz-adv-x="2066" 
d="M1929 1843l-198 -297h-101l191 297h108zM2109 1268h-692l-98 -459h598l-35 -162h-598l-100 -481h710l-34 -166h-893l82 391h-543l-334 -391h-227l1220 1434h979zM1083 551l140 663h-13l-567 -663h440z" />
    <glyph glyph-name="uni01E2.ss01" horiz-adv-x="2066" 
d="M2017 1706l-16 -80h-608l16 80h608zM2109 1268h-692l-98 -459h598l-35 -162h-598l-100 -481h710l-34 -166h-893l82 391h-543l-334 -391h-227l1220 1434h979zM1083 551l140 663h-13l-567 -663h440z" />
    <glyph glyph-name="Cacute.ss01" horiz-adv-x="1548" 
d="M1184 1843h108l-198 -297h-101zM1425 436q-83 -208 -267.5 -332t-424.5 -124q-262 0 -415.5 154.5t-153.5 418.5q0 175 67 340.5t179.5 288.5t269.5 197.5t328 74.5q149 0 266 -54.5t184.5 -162t63.5 -252.5h-191q-8 135 -100 216t-240 81q-163 0 -310 -100t-235 -265
t-88 -346q0 -194 103.5 -306.5t286.5 -112.5q154 0 278.5 77.5t194.5 206.5h204z" />
    <glyph glyph-name="Ccaron.ss01" horiz-adv-x="1548" 
d="M1249 1843h117l-266 -270h-101l-153 270h100l109 -192h6zM1425 436q-83 -208 -267.5 -332t-424.5 -124q-262 0 -415.5 154.5t-153.5 418.5q0 175 67 340.5t179.5 288.5t269.5 197.5t328 74.5q149 0 266 -54.5t184.5 -162t63.5 -252.5h-191q-8 135 -100 216t-240 81
q-163 0 -310 -100t-235 -265t-88 -346q0 -194 103.5 -306.5t286.5 -112.5q154 0 278.5 77.5t194.5 206.5h204z" />
    <glyph glyph-name="Ccedilla.ss01" horiz-adv-x="1548" 
d="M991 1282q-163 0 -310 -100t-235 -265t-88 -346q0 -194 103.5 -306.5t286.5 -112.5q154 0 278.5 77.5t194.5 206.5h204q-80 -206 -263.5 -329.5t-420.5 -126.5l-67 -72q65 5 117.5 -32.5t52.5 -104.5q0 -89 -65 -145t-167 -56q-39 0 -75 11.5t-54 27.5l43 61
q44 -28 92 -28q62 0 104 36t42 91q0 77 -111 77q-37 0 -82 -18l-30 35l114 121q-229 23 -360 174t-131 395q0 175 67 340.5t179.5 288.5t269.5 197.5t328 74.5q149 0 266 -54.5t184.5 -162t63.5 -252.5h-191q-8 135 -100 216t-240 81z" />
    <glyph glyph-name="Ccircumflex.ss01" horiz-adv-x="1548" 
d="M907 1573h-119l267 270h102l154 -270h-103l-106 192h-6zM1425 436q-83 -208 -267.5 -332t-424.5 -124q-262 0 -415.5 154.5t-153.5 418.5q0 175 67 340.5t179.5 288.5t269.5 197.5t328 74.5q149 0 266 -54.5t184.5 -162t63.5 -252.5h-191q-8 135 -100 216t-240 81
q-163 0 -310 -100t-235 -265t-88 -346q0 -194 103.5 -306.5t286.5 -112.5q154 0 278.5 77.5t194.5 206.5h204z" />
    <glyph glyph-name="Eth.ss01" horiz-adv-x="1454" 
d="M801 1434q281 0 427 -142t146 -413q0 -144 -38.5 -276.5t-113 -241.5t-176.5 -190t-235.5 -126t-284.5 -45h-456l143 674h-238l17 82h239l144 678h426zM539 168q187 0 335.5 95.5t228 254t79.5 348.5q0 105 -29 182.5t-70.5 118t-102 64.5t-106.5 29.5t-102 5.5h-248
l-108 -510h362l-16 -82h-363l-108 -506h248z" />
    <glyph glyph-name="Dcaron.ss01" horiz-adv-x="1454" 
d="M1141 1843h116l-266 -270h-100l-154 270h101l108 -192h6zM801 1434q281 0 427 -142t146 -413q0 -144 -38.5 -276.5t-113 -241.5t-176.5 -190t-235.5 -126t-284.5 -45h-456l305 1434h426zM539 168q187 0 335.5 95.5t228 254t79.5 348.5q0 105 -29 182.5t-70.5 118
t-102 64.5t-106.5 29.5t-102 5.5h-248l-233 -1098h248z" />
    <glyph glyph-name="Dcroat.ss01" horiz-adv-x="1454" 
d="M801 1434q281 0 427 -142t146 -413q0 -144 -38.5 -276.5t-113 -241.5t-176.5 -190t-235.5 -126t-284.5 -45h-456l143 674h-238l17 82h239l144 678h426zM539 168q187 0 335.5 95.5t228 254t79.5 348.5q0 105 -29 182.5t-70.5 118t-102 64.5t-106.5 29.5t-102 5.5h-248
l-108 -510h362l-16 -82h-363l-108 -506h248z" />
    <glyph glyph-name="Eacute.ss01" horiz-adv-x="1200" 
d="M993 1843h109l-199 -297h-100zM287 166h743l-35 -166h-925l305 1434h905l-35 -166h-723l-98 -459h635l-35 -162h-635z" />
    <glyph glyph-name="Ebreve.ss01" horiz-adv-x="1200" 
d="M1157 1843q-9 -43 -33 -86t-60.5 -80.5t-89.5 -61.5t-112 -24q-49 0 -87.5 15.5t-60 41.5t-35.5 59t-14 68t5 68h88q-17 -76 15.5 -124t100.5 -48q67 0 118.5 47.5t68.5 124.5h96zM287 166h743l-35 -166h-925l305 1434h905l-35 -166h-723l-98 -459h635l-35 -162h-635z
" />
    <glyph glyph-name="Ecaron.ss01" horiz-adv-x="1200" 
d="M1061 1843h117l-267 -270h-100l-154 270h101l108 -192h6zM287 166h743l-35 -166h-925l305 1434h905l-35 -166h-723l-98 -459h635l-35 -162h-635z" />
    <glyph glyph-name="uni0228.ss01" horiz-adv-x="1200" 
d="M1245 1268h-723l-98 -459h635l-35 -162h-635l-102 -481h743l-35 -166h-415l-88 -92q65 5 117.5 -32.5t52.5 -104.5q0 -89 -65 -145t-167 -56q-39 0 -75 11.5t-54 27.5l43 61q44 -28 92 -28q62 0 104 36t42 91q0 77 -111 77q-37 0 -82 -18l-31 35l131 137h-419l305 1434
h905z" />
    <glyph glyph-name="Ecircumflex.ss01" horiz-adv-x="1200" 
d="M717 1573h-119l266 270h103l153 -270h-102l-107 192h-6zM287 166h743l-35 -166h-925l305 1434h905l-35 -166h-723l-98 -459h635l-35 -162h-635z" />
    <glyph glyph-name="Egrave.ss01" horiz-adv-x="1200" 
d="M831 1843l64 -297h-86l-72 297h94zM287 166h743l-35 -166h-925l305 1434h905l-35 -166h-723l-98 -459h635l-35 -162h-635z" />
    <glyph glyph-name="Emacron.ss01" horiz-adv-x="1200" 
d="M582 1706h608l-16 -80h-609zM287 166h743l-35 -166h-925l305 1434h905l-35 -166h-723l-98 -459h635l-35 -162h-635z" />
    <glyph glyph-name="Eogonek.ss01" horiz-adv-x="1200" 
d="M1245 1268h-723l-98 -459h635l-35 -162h-635l-102 -481h743l-35 -166q-87 -29 -139.5 -80.5t-52.5 -107.5q0 -37 29.5 -55.5t74.5 -18.5t94 12l-14 -78q-44 -14 -92 -14q-78 0 -132 35t-54 102q0 136 176 205h-815l305 1434h905z" />
    <glyph glyph-name="uni1EBC.ss01" horiz-adv-x="1200" 
d="M1214 1753q-24 -86 -77.5 -143.5t-130.5 -57.5q-50 0 -87.5 21t-57 46t-47.5 46t-60 21q-48 0 -81 -34.5t-50 -86.5h-84q68 202 213 202q42 0 73.5 -13.5t51 -33t37 -39.5t39 -33.5t48.5 -13.5q47 0 81.5 34t50.5 85h81zM287 166h743l-35 -166h-925l305 1434h905
l-35 -166h-723l-98 -459h635l-35 -162h-635z" />
    <glyph glyph-name="uni01F4.ss01" horiz-adv-x="1617" 
d="M1182 1843h108l-198 -297h-101zM858 745h631l-160 -745h-147l12 166h-14q-29 -25 -53 -44t-71.5 -48t-94.5 -47.5t-114.5 -32.5t-139.5 -14q-254 0 -399.5 150.5t-145.5 408.5q0 177 68.5 344.5t184 293t278.5 201.5t341 76q232 0 370.5 -121t135.5 -307h-192
q-12 115 -100.5 185.5t-233.5 70.5q-130 0 -252 -60.5t-211 -160t-143 -232.5t-54 -272q0 -191 101.5 -300.5t292.5 -109.5q113 0 216 37t183.5 118.5t103.5 195.5l21 98h-414v149z" />
    <glyph glyph-name="Gbreve.ss01" horiz-adv-x="1617" 
d="M1346 1843q-9 -43 -33 -86t-60.5 -80.5t-89.5 -61.5t-112 -24q-49 0 -87.5 15.5t-60.5 41.5t-36 59t-14 68t5 68h88q-17 -76 16 -124t101 -48q67 0 118 47.5t68 124.5h97zM858 745h631l-160 -745h-147l12 166h-14q-29 -25 -53 -44t-71.5 -48t-94.5 -47.5t-114.5 -32.5
t-139.5 -14q-254 0 -399.5 150.5t-145.5 408.5q0 177 68.5 344.5t184 293t278.5 201.5t341 76q232 0 370.5 -121t135.5 -307h-192q-12 115 -100.5 185.5t-233.5 70.5q-130 0 -252 -60.5t-211 -160t-143 -232.5t-54 -272q0 -191 101.5 -300.5t292.5 -109.5q113 0 216 37
t183.5 118.5t103.5 195.5l21 98h-414v149z" />
    <glyph glyph-name="Gcaron.ss01" horiz-adv-x="1617" 
d="M1249 1843h117l-266 -270h-101l-153 270h100l109 -192h6zM858 745h631l-160 -745h-147l12 166h-14q-29 -25 -53 -44t-71.5 -48t-94.5 -47.5t-114.5 -32.5t-139.5 -14q-254 0 -399.5 150.5t-145.5 408.5q0 177 68.5 344.5t184 293t278.5 201.5t341 76q232 0 370.5 -121
t135.5 -307h-192q-12 115 -100.5 185.5t-233.5 70.5q-130 0 -252 -60.5t-211 -160t-143 -232.5t-54 -272q0 -191 101.5 -300.5t292.5 -109.5q113 0 216 37t183.5 118.5t103.5 195.5l21 98h-414v149z" />
    <glyph glyph-name="Gcircumflex.ss01" horiz-adv-x="1617" 
d="M905 1573h-119l267 270h102l154 -270h-103l-106 192h-6zM858 745h631l-160 -745h-147l12 166h-14q-29 -25 -53 -44t-71.5 -48t-94.5 -47.5t-114.5 -32.5t-139.5 -14q-254 0 -399.5 150.5t-145.5 408.5q0 177 68.5 344.5t184 293t278.5 201.5t341 76q232 0 370.5 -121
t135.5 -307h-192q-12 115 -100.5 185.5t-233.5 70.5q-130 0 -252 -60.5t-211 -160t-143 -232.5t-54 -272q0 -191 101.5 -300.5t292.5 -109.5q113 0 216 37t183.5 118.5t103.5 195.5l21 98h-414v149z" />
    <glyph glyph-name="uni0122.ss01" horiz-adv-x="1617" 
d="M858 745h631l-160 -745h-147l12 166h-14q-29 -25 -53 -44t-71.5 -48t-94.5 -47.5t-114.5 -32.5t-139.5 -14q-254 0 -399.5 150.5t-145.5 408.5q0 177 68.5 344.5t184 293t278.5 201.5t341 76q232 0 370.5 -121t135.5 -307h-192q-12 115 -100.5 185.5t-233.5 70.5
q-130 0 -252 -60.5t-211 -160t-143 -232.5t-54 -272q0 -191 101.5 -300.5t292.5 -109.5q113 0 216 37t183.5 118.5t103.5 195.5l21 98h-414v149zM662 -123q54 0 86 -31.5t32 -85.5q0 -197 -274 -350l-35 55q49 32 77 52.5t63.5 56.5t54.5 72q-14 -4 -35 -4q-46 0 -73.5 33
t-27.5 71q0 58 37.5 94.5t94.5 36.5z" />
    <glyph glyph-name="uni1E20.ss01" horiz-adv-x="1617" 
d="M770 1706h608l-16 -80h-608zM858 745h631l-160 -745h-147l12 166h-14q-29 -25 -53 -44t-71.5 -48t-94.5 -47.5t-114.5 -32.5t-139.5 -14q-254 0 -399.5 150.5t-145.5 408.5q0 177 68.5 344.5t184 293t278.5 201.5t341 76q232 0 370.5 -121t135.5 -307h-192
q-12 115 -100.5 185.5t-233.5 70.5q-130 0 -252 -60.5t-211 -160t-143 -232.5t-54 -272q0 -191 101.5 -300.5t292.5 -109.5q113 0 216 37t183.5 118.5t103.5 195.5l21 98h-414v149z" />
    <glyph glyph-name="Hbar.ss01" horiz-adv-x="1427" 
d="M1262 1434h184l-305 -1434h-185l136 641h-701l-135 -641h-186l305 1434h186l-57 -273h698zM1126 809l58 266h-699l-57 -266h698z" />
    <glyph glyph-name="uni021E.ss01" horiz-adv-x="1427" 
d="M1139 1843h116l-266 -270h-100l-154 270h101l108 -192h6zM1262 1434h184l-305 -1434h-185l136 641h-701l-135 -641h-186l305 1434h186l-133 -625h698z" />
    <glyph glyph-name="uni1E28.ss01" horiz-adv-x="1427" 
d="M1262 1434h184l-305 -1434h-185l136 641h-701l-135 -641h-47l-88 -92q65 5 117.5 -32.5t52.5 -104.5q0 -89 -65 -145t-167 -56q-39 0 -75 11.5t-54 27.5l43 61q44 -28 93 -28q62 0 103.5 36t41.5 91q0 77 -111 77q-37 0 -82 -18l-30 35l131 137h-49l305 1434h186
l-133 -625h698z" />
    <glyph glyph-name="Hcircumflex.ss01" horiz-adv-x="1427" 
d="M797 1573h-119l266 270h103l153 -270h-102l-107 192h-6zM1262 1434h184l-305 -1434h-185l136 641h-701l-135 -641h-186l305 1434h186l-133 -625h698z" />
    <glyph glyph-name="Iacute.ss01" horiz-adv-x="542" 
d="M633 1843h108l-198 -297h-101zM561 1434l-305 -1434h-186l305 1434h186z" />
    <glyph glyph-name="Ibreve.ss01" horiz-adv-x="542" 
d="M797 1843q-9 -43 -33 -86t-60.5 -80.5t-89.5 -61.5t-112 -24q-49 0 -87.5 15.5t-60.5 41.5t-36 59t-14 68t5 68h88q-17 -76 16 -124t101 -48q67 0 118 47.5t68 124.5h97zM561 1434l-305 -1434h-186l305 1434h186z" />
    <glyph glyph-name="uni01CF.ss01" horiz-adv-x="542" 
d="M700 1843h117l-266 -270h-100l-154 270h100l109 -192h6zM561 1434l-305 -1434h-186l305 1434h186z" />
    <glyph glyph-name="Icircumflex.ss01" horiz-adv-x="542" 
d="M356 1573h-118l266 270h102l154 -270h-103l-106 192h-6zM561 1434l-305 -1434h-186l305 1434h186z" />
    <glyph glyph-name="Igrave.ss01" horiz-adv-x="542" 
d="M473 1843l64 -297h-86l-72 297h94zM561 1434l-305 -1434h-186l305 1434h186z" />
    <glyph glyph-name="Imacron.ss01" horiz-adv-x="542" 
d="M221 1706h608l-16 -80h-608zM561 1434l-305 -1434h-186l305 1434h186z" />
    <glyph glyph-name="Iogonek.ss01" horiz-adv-x="542" 
d="M63 -188q0 -37 30 -55.5t75 -18.5q44 0 94 12l-14 -78q-44 -14 -92 -14q-78 0 -132.5 35t-54.5 102q0 136 176 205h-75l305 1434h186l-305 -1434q-87 -29 -140 -80.5t-53 -107.5z" />
    <glyph glyph-name="Itilde.ss01" horiz-adv-x="542" 
d="M854 1753q-24 -85 -77.5 -143t-131.5 -58q-50 0 -87.5 21t-57 46t-47.5 46t-60 21q-48 0 -81 -34.5t-50 -86.5h-84q68 202 213 202q42 0 74 -13.5t51.5 -33t37 -39.5t39 -33.5t48.5 -13.5q47 0 81 34t50 85h82zM561 1434l-305 -1434h-186l305 1434h186z" />
    <glyph glyph-name="Jcircumflex.ss01" horiz-adv-x="1101" 
d="M915 1573h-118l266 270h102l154 -270h-102l-107 192h-6zM252 412q-20 -112 27 -186t153 -74q105 0 182 71t107 213l213 998h186l-215 -1008q-46 -218 -177 -332t-318 -114q-198 0 -291.5 120t-59.5 312h193z" />
    <glyph glyph-name="uni0136.ss01" horiz-adv-x="1275" 
d="M903 0l-399 651h-111l-137 -651h-186l305 1434h186l-131 -615h109l604 615h221l-682 -705v-10l430 -719h-209zM526 -123q54 0 86.5 -31.5t32.5 -85.5q0 -197 -274 -350l-35 55q48 32 76.5 53t63.5 56.5t54 71.5q-14 -4 -34 -4q-46 0 -73.5 33t-27.5 71q0 58 37 94.5
t94 36.5z" />
    <glyph glyph-name="Lacute.ss01" horiz-adv-x="1179" 
d="M625 1843h108l-198 -297h-101zM289 168h737l-37 -168h-919l305 1434h182z" />
    <glyph glyph-name="Lcaron.ss01" horiz-adv-x="1179" 
d="M874 1450q51 0 82 -33t31 -88q0 -109 -78 -201t-190 -153l-31 49q69 48 117 91.5t74 96.5q-14 -4 -33 -4q-44 0 -70 34.5t-26 72.5q0 60 34.5 97.5t89.5 37.5zM289 168h737l-37 -168h-919l305 1434h182z" />
    <glyph glyph-name="uni013B.ss01" horiz-adv-x="1179" 
d="M289 168h737l-37 -168h-919l305 1434h182zM475 -123q54 0 86.5 -31.5t32.5 -85.5q0 -197 -275 -350l-34 55q48 32 76.5 53t63.5 56.5t54 71.5q-14 -4 -35 -4q-46 0 -73 33t-27 71q0 58 37 94.5t94 36.5z" />
    <glyph glyph-name="Lslash.ss01" horiz-adv-x="1179" 
d="M289 168h737l-37 -168h-919l125 584l-265 -119l21 100l264 121l160 748h182l-139 -658l405 185l-22 -101l-404 -184z" />
    <glyph glyph-name="Nacute.ss01" horiz-adv-x="1511" 
d="M1118 1843h109l-199 -297h-100zM1348 1434h182l-305 -1434h-181l-540 1118h-15l-237 -1118h-182l305 1434h182l539 -1119h14z" />
    <glyph glyph-name="Ncaron.ss01" horiz-adv-x="1511" 
d="M1184 1843h116l-266 -270h-100l-154 270h101l108 -192h6zM1348 1434h182l-305 -1434h-181l-540 1118h-15l-237 -1118h-182l305 1434h182l539 -1119h14z" />
    <glyph glyph-name="uni0145.ss01" horiz-adv-x="1511" 
d="M1348 1434h182l-305 -1434h-181l-540 1118h-15l-237 -1118h-182l305 1434h182l539 -1119h14zM598 -123q54 0 86.5 -31.5t32.5 -85.5q0 -197 -275 -350l-34 55q48 32 76.5 53t63.5 56.5t54 71.5q-14 -4 -35 -4q-46 0 -73 33t-27 71q0 58 37 94.5t94 36.5z" />
    <glyph glyph-name="uni01F8.ss01" horiz-adv-x="1511" 
d="M956 1843l64 -297h-86l-72 297h94zM1348 1434h182l-305 -1434h-181l-540 1118h-15l-237 -1118h-182l305 1434h182l539 -1119h14z" />
    <glyph glyph-name="Ntilde.ss01" horiz-adv-x="1511" 
d="M1337 1753q-24 -85 -77.5 -143t-131.5 -58q-41 0 -72.5 14t-51.5 33.5t-38 39t-40 33.5t-49 14q-48 0 -81.5 -34.5t-50.5 -86.5h-83q68 202 212 202q42 0 74 -13.5t51.5 -33t37 -39.5t39 -33.5t48.5 -13.5q47 0 81 34t50 85h82zM1348 1434h182l-305 -1434h-181l-540 1118
h-15l-237 -1118h-182l305 1434h182l539 -1119h14z" />
    <glyph glyph-name="Oacute.ss01" horiz-adv-x="1697" 
d="M1210 1843h109l-199 -297h-100zM760 -20q-266 0 -430 163t-164 426q0 134 44 266t124 242.5t185.5 195.5t236.5 133t268 48q266 0 431 -164.5t165 -427.5q0 -170 -70 -332t-186 -282.5t-275 -194t-329 -73.5zM772 152q127 0 248.5 59.5t210 155.5t142.5 222.5t54 256.5
q0 195 -113.5 315.5t-301.5 120.5q-127 0 -248.5 -59.5t-209.5 -156t-142 -223.5t-54 -257q0 -193 113 -313.5t301 -120.5z" />
    <glyph glyph-name="Obreve.ss01" horiz-adv-x="1697" 
d="M1374 1843q-9 -43 -33 -86t-60.5 -80.5t-89.5 -61.5t-112 -24q-49 0 -87.5 15.5t-60 41.5t-35.5 59t-14 68t5 68h88q-17 -76 16 -124t101 -48q67 0 118 47.5t68 124.5h96zM760 -20q-266 0 -430 163t-164 426q0 134 44 266t124 242.5t185.5 195.5t236.5 133t268 48
q266 0 431 -164.5t165 -427.5q0 -170 -70 -332t-186 -282.5t-275 -194t-329 -73.5zM772 152q127 0 248.5 59.5t210 155.5t142.5 222.5t54 256.5q0 195 -113.5 315.5t-301.5 120.5q-127 0 -248.5 -59.5t-209.5 -156t-142 -223.5t-54 -257q0 -193 113 -313.5t301 -120.5z" />
    <glyph glyph-name="uni01D1.ss01" horiz-adv-x="1697" 
d="M1278 1843h117l-267 -270h-100l-154 270h101l108 -192h7zM760 -20q-266 0 -430 163t-164 426q0 134 44 266t124 242.5t185.5 195.5t236.5 133t268 48q266 0 431 -164.5t165 -427.5q0 -170 -70 -332t-186 -282.5t-275 -194t-329 -73.5zM772 152q127 0 248.5 59.5
t210 155.5t142.5 222.5t54 256.5q0 195 -113.5 315.5t-301.5 120.5q-127 0 -248.5 -59.5t-209.5 -156t-142 -223.5t-54 -257q0 -193 113 -313.5t301 -120.5z" />
    <glyph glyph-name="Ocircumflex.ss01" horiz-adv-x="1697" 
d="M934 1573h-119l266 270h103l153 -270h-102l-107 192h-6zM760 -20q-266 0 -430 163t-164 426q0 134 44 266t124 242.5t185.5 195.5t236.5 133t268 48q266 0 431 -164.5t165 -427.5q0 -170 -70 -332t-186 -282.5t-275 -194t-329 -73.5zM772 152q127 0 248.5 59.5t210 155.5
t142.5 222.5t54 256.5q0 195 -113.5 315.5t-301.5 120.5q-127 0 -248.5 -59.5t-209.5 -156t-142 -223.5t-54 -257q0 -193 113 -313.5t301 -120.5z" />
    <glyph glyph-name="Ograve.ss01" horiz-adv-x="1697" 
d="M1051 1843l63 -297h-86l-72 297h95zM760 -20q-266 0 -430 163t-164 426q0 134 44 266t124 242.5t185.5 195.5t236.5 133t268 48q266 0 431 -164.5t165 -427.5q0 -170 -70 -332t-186 -282.5t-275 -194t-329 -73.5zM772 152q127 0 248.5 59.5t210 155.5t142.5 222.5
t54 256.5q0 195 -113.5 315.5t-301.5 120.5q-127 0 -248.5 -59.5t-209.5 -156t-142 -223.5t-54 -257q0 -193 113 -313.5t301 -120.5z" />
    <glyph glyph-name="Ohungarumlaut.ss01" horiz-adv-x="1697" 
d="M1063 1843h106l-190 -297h-96zM1341 1843h107l-193 -297h-94zM760 -20q-266 0 -430 163t-164 426q0 134 44 266t124 242.5t185.5 195.5t236.5 133t268 48q266 0 431 -164.5t165 -427.5q0 -170 -70 -332t-186 -282.5t-275 -194t-329 -73.5zM772 152q127 0 248.5 59.5
t210 155.5t142.5 222.5t54 256.5q0 195 -113.5 315.5t-301.5 120.5q-127 0 -248.5 -59.5t-209.5 -156t-142 -223.5t-54 -257q0 -193 113 -313.5t301 -120.5z" />
    <glyph glyph-name="Omacron.ss01" horiz-adv-x="1697" 
d="M799 1706h608l-16 -80h-609zM760 -20q-266 0 -430 163t-164 426q0 134 44 266t124 242.5t185.5 195.5t236.5 133t268 48q266 0 431 -164.5t165 -427.5q0 -170 -70 -332t-186 -282.5t-275 -194t-329 -73.5zM772 152q127 0 248.5 59.5t210 155.5t142.5 222.5t54 256.5
q0 195 -113.5 315.5t-301.5 120.5q-127 0 -248.5 -59.5t-209.5 -156t-142 -223.5t-54 -257q0 -193 113 -313.5t301 -120.5z" />
    <glyph glyph-name="uni01EA.ss01" horiz-adv-x="1697" 
d="M930 -2q-86 -29 -137.5 -79.5t-51.5 -106.5q0 -37 30 -55.5t75 -18.5q44 0 94 12l-14 -78q-44 -14 -92 -14q-78 0 -132.5 35t-54.5 102q0 119 131 185h-18q-266 0 -430 163t-164 426q0 134 44 266t124 242.5t185.5 195.5t236.5 133t268 48q266 0 431 -164.5t165 -427.5
q0 -148 -54 -292t-146.5 -258.5t-220 -197.5t-269.5 -116zM358 586q0 -193 113 -313.5t301 -120.5q127 0 248.5 59.5t210 155.5t142.5 222.5t54 256.5q0 195 -113.5 315.5t-301.5 120.5q-127 0 -248.5 -59.5t-209.5 -156t-142 -223.5t-54 -257z" />
    <glyph glyph-name="Oslash.ss01" horiz-adv-x="1697" 
d="M1642 1460l-174 -184q152 -165 152 -414q0 -170 -70 -332t-186 -282.5t-275 -194t-329 -73.5q-232 0 -387 124l-172 -182l-62 49l174 187q-147 163 -147 411q0 134 44 266t124 242.5t185.5 195.5t236.5 133t268 48q227 0 385 -123l170 180zM358 586q0 -171 88 -285
l834 891q-111 90 -268 90q-127 0 -248.5 -59.5t-209.5 -156t-142 -223.5t-54 -257zM1427 846q0 169 -90 289l-835 -891q109 -92 270 -92q127 0 248.5 59.5t210 155.5t142.5 222.5t54 256.5z" />
    <glyph glyph-name="Oslashacute.ss01" horiz-adv-x="1697" 
d="M1319 1843l-199 -297h-100l190 297h109zM1642 1460l-174 -184q152 -165 152 -414q0 -170 -70 -332t-186 -282.5t-275 -194t-329 -73.5q-232 0 -387 124l-172 -182l-62 49l174 187q-147 163 -147 411q0 134 44 266t124 242.5t185.5 195.5t236.5 133t268 48q227 0 385 -123
l170 180zM358 586q0 -171 88 -285l834 891q-111 90 -268 90q-127 0 -248.5 -59.5t-209.5 -156t-142 -223.5t-54 -257zM1427 846q0 169 -90 289l-835 -891q109 -92 270 -92q127 0 248.5 59.5t210 155.5t142.5 222.5t54 256.5z" />
    <glyph glyph-name="Otilde.ss01" horiz-adv-x="1697" 
d="M1432 1753q-24 -85 -77.5 -143t-131.5 -58q-50 0 -87.5 21t-57 46t-47.5 46t-60 21q-48 0 -81 -34.5t-50 -86.5h-84q68 202 213 202q42 0 74 -13.5t51.5 -33t37 -39.5t39 -33.5t48.5 -13.5q47 0 81 34t50 85h82zM760 -20q-266 0 -430 163t-164 426q0 134 44 266
t124 242.5t185.5 195.5t236.5 133t268 48q266 0 431 -164.5t165 -427.5q0 -170 -70 -332t-186 -282.5t-275 -194t-329 -73.5zM772 152q127 0 248.5 59.5t210 155.5t142.5 222.5t54 256.5q0 195 -113.5 315.5t-301.5 120.5q-127 0 -248.5 -59.5t-209.5 -156t-142 -223.5
t-54 -257q0 -193 113 -313.5t301 -120.5z" />
    <glyph glyph-name="Racute.ss01" horiz-adv-x="1275" 
d="M1122 1843l-198 -297h-101l191 297h108zM1251 1090q0 -168 -109 -295t-294 -168l239 -627h-190l-225 602h-291l-129 -602h-182l305 1434h485q183 0 287 -90t104 -254zM713 764q155 0 251.5 88.5t96.5 218.5q0 98 -63 149.5t-177 51.5h-299l-108 -508h299z" />
    <glyph glyph-name="Rcaron.ss01" horiz-adv-x="1275" 
d="M930 1573h-101l-153 270h100l109 -192h6l188 192h117zM1251 1090q0 -168 -109 -295t-294 -168l239 -627h-190l-225 602h-291l-129 -602h-182l305 1434h485q183 0 287 -90t104 -254zM713 764q155 0 251.5 88.5t96.5 218.5q0 98 -63 149.5t-177 51.5h-299l-108 -508h299z
" />
    <glyph glyph-name="uni0156.ss01" horiz-adv-x="1275" 
d="M1251 1090q0 -168 -109 -295t-294 -168l239 -627h-190l-225 602h-291l-129 -602h-182l305 1434h485q183 0 287 -90t104 -254zM713 764q155 0 251.5 88.5t96.5 218.5q0 98 -63 149.5t-177 51.5h-299l-108 -508h299zM518 -123q54 0 86.5 -31.5t32.5 -85.5q0 -197 -275 -350
l-34 55q48 32 76.5 53t63.5 56.5t54 71.5q-14 -4 -35 -4q-46 0 -73 33t-27 71q0 58 37 94.5t94 36.5z" />
    <glyph glyph-name="Sacute.ss01" horiz-adv-x="1243" 
d="M997 1843h109l-199 -297h-100zM1081 436q0 -197 -151 -326.5t-395 -129.5q-220 0 -335 114.5t-87 315.5h182q-11 -129 56 -199t202 -70q148 0 242 78.5t94 198.5q0 25 -5.5 47.5t-12 39.5t-22 33.5t-25.5 27t-34.5 23.5t-35.5 19t-41 17.5t-40 15t-44 14.5l-51 17
q-44 15 -80.5 31t-77.5 44.5t-68.5 61.5t-46 83t-18.5 109q0 122 68 225.5t190.5 165.5t271.5 62q204 0 314 -114.5t81 -290.5h-180q11 107 -46.5 175t-180.5 68q-133 0 -230.5 -79t-97.5 -185q0 -31 8.5 -57.5t27.5 -46.5t37.5 -34.5t49 -28t51 -21t54.5 -19.5q8 -3 12 -4
l43 -14q45 -15 80 -29.5t83.5 -45.5t80 -68t54.5 -95.5t23 -128.5z" />
    <glyph glyph-name="Scaron.ss01" horiz-adv-x="1243" 
d="M1063 1843h117l-267 -270h-100l-154 270h101l108 -192h6zM1081 436q0 -197 -151 -326.5t-395 -129.5q-220 0 -335 114.5t-87 315.5h182q-11 -129 56 -199t202 -70q148 0 242 78.5t94 198.5q0 25 -5.5 47.5t-12 39.5t-22 33.5t-25.5 27t-34.5 23.5t-35.5 19t-41 17.5
t-40 15t-44 14.5l-51 17q-44 15 -80.5 31t-77.5 44.5t-68.5 61.5t-46 83t-18.5 109q0 122 68 225.5t190.5 165.5t271.5 62q204 0 314 -114.5t81 -290.5h-180q11 107 -46.5 175t-180.5 68q-133 0 -230.5 -79t-97.5 -185q0 -31 8.5 -57.5t27.5 -46.5t37.5 -34.5t49 -28t51 -21
t54.5 -19.5q8 -3 12 -4l43 -14q45 -15 80 -29.5t83.5 -45.5t80 -68t54.5 -95.5t23 -128.5z" />
    </font>
</defs>
</svg>
