<?xml version="1.0" standalone="no"?>
<!DOCTYPE svg PUBLIC "-//W3C//DTD SVG 1.1//EN" "http://www.w3.org/Graphics/SVG/1.1/DTD/svg11.dtd" >
<svg xmlns="http://www.w3.org/2000/svg" xmlns:xlink="http://www.w3.org/1999/xlink" version="1.1">
<metadata>
Created by FontForge 20201107 at Fri Oct 18 17:20:27 2024
 By 
(c) TIGHTYPE 2019
</metadata>
<defs>
<font id="Moderat-Bold" horiz-adv-x="1189" >
  <font-face 
    font-family="Moderat"
    font-weight="700"
    font-stretch="normal"
    units-per-em="2048"
    panose-1="0 0 8 0 0 0 0 0 0 0"
    ascent="1638"
    descent="-410"
    x-height="1024"
    cap-height="1434"
    bbox="-283 -678 2370 1907"
    underline-thickness="102"
    underline-position="-204"
    unicode-range="U+0020-2793"
  />
<missing-glyph horiz-adv-x="1687" 
d="M1581 717q0 -151 -58 -287.5t-156.5 -235t-235 -156.5t-287.5 -58q-152 0 -289.5 59t-235.5 158.5t-155.5 235.5t-57.5 284q0 150 58.5 286.5t157 235.5t235.5 157t287 58q153 0 290 -59t235 -158t155 -235t57 -285zM459 1092v-93h90v-262h94v262h90v93h-274zM954 1092
v-93h93v-262h92v262h92v93h-277zM844 166q146 0 271 71t199.5 193t78.5 266l-95 17q0 -123 -60.5 -227.5t-165 -165t-228.5 -60.5q-188 0 -320.5 133t-132.5 320l-94 -17q4 -144 78.5 -266t199 -193t269.5 -71z" />
    <glyph glyph-name="arrowleft" unicode="&#x3c;&#x2d;" horiz-adv-x="1622" 
d="M1559 831v-231h-1125l381 -383l-153 -154l-619 642v24l619 641l153 -153l-383 -386h1127z" />
    <glyph glyph-name="arrowright" unicode="&#x2d;&#x3e;" horiz-adv-x="1622" 
d="M963 1370l616 -641v-24l-616 -642l-156 154l381 383h-1125v231h1127l-383 386z" />
    <glyph glyph-name="f_f" unicode="ff" horiz-adv-x="1482" 
d="M1174 1120v-96h260v-207h-260v-817h-263v817h-401v-817h-262v817h-215v207h215v111q0 155 93 237t249 82q74 0 149 -22l-37 -197q-29 10 -61 10q-62 0 -96.5 -31t-34.5 -94v-96h401v111q0 156 92.5 237.5t249.5 81.5q92 0 195 -35l-43 -190q-47 16 -105 16
q-126 0 -126 -125z" />
    <glyph glyph-name="f_f_i" unicode="ffi" horiz-adv-x="1966" 
d="M1720 1155q-64 0 -111.5 47.5t-47.5 110.5q0 67 47 113.5t112 46.5t111.5 -46.5t46.5 -113.5q0 -63 -47 -110.5t-111 -47.5zM1851 1024v-1024h-262v817h-403v-817h-262v817h-414v-817h-262v817h-215v207h215v111q0 155 93 237t249 82q74 0 149 -22l-37 -197
q-29 10 -61 10q-62 0 -96.5 -31t-34.5 -94v-96h414v111q0 156 92.5 237.5t249.5 81.5q74 0 149 -22l-37 -197q-29 10 -63 10q-61 0 -95 -31t-34 -94v-96h665z" />
    <glyph glyph-name="f_f_j" unicode="ffj" horiz-adv-x="1951" 
d="M1720 1155q-64 0 -112.5 47.5t-48.5 110.5q0 67 48 113.5t113 46.5t110.5 -46.5t45.5 -113.5q0 -64 -46 -111t-110 -47zM1851 1024v-1155q0 -40 -5.5 -75t-26 -78.5t-53.5 -73.5t-94.5 -51t-143.5 -21q-79 0 -178 22v195q46 -12 100 -12q139 0 139 125v917h-415v-817
h-263v817h-401v-817h-262v817h-215v207h215v111q0 155 93 237t249 82q74 0 149 -22l-37 -197q-29 10 -61 10q-62 0 -96.5 -31t-34.5 -94v-96h401v111q0 156 92.5 237.5t249.5 81.5q75 0 150 -22l-37 -197q-29 10 -63 10q-129 0 -129 -125v-96h677z" />
    <glyph glyph-name="f_i" unicode="fi" horiz-adv-x="1290" 
d="M1047 1155q-66 0 -114 47.5t-48 110.5q0 67 47.5 113.5t114.5 46.5q64 0 109.5 -46.5t45.5 -113.5q0 -63 -46 -110.5t-109 -47.5zM1176 1024v-1024h-263v817h-403v-817h-262v817h-215v207h215v111q0 155 93 237t249 82q74 0 149 -22l-37 -197q-29 10 -61 10
q-62 0 -96.5 -31t-34.5 -94v-96h666z" />
    <glyph glyph-name="f_j" unicode="fj" horiz-adv-x="1290" 
d="M1057 1155q-65 0 -113.5 47.5t-48.5 110.5q0 67 48.5 113.5t113.5 46.5t111 -46.5t46 -113.5q0 -63 -46.5 -110.5t-110.5 -47.5zM1188 1024v-1155q0 -40 -5.5 -75t-26 -78t-54 -73.5t-95 -51.5t-143.5 -21q-79 0 -178 22v195q46 -12 100 -12q82 0 111 36t29 89v917h-416
v-817h-262v817h-215v207h215v111q0 155 93 237t249 82q74 0 149 -22l-37 -197q-29 10 -61 10q-62 0 -96.5 -31t-34.5 -94v-96h678z" />
    <glyph glyph-name=".notdef" horiz-adv-x="1687" 
d="M1581 717q0 -151 -58 -287.5t-156.5 -235t-235 -156.5t-287.5 -58q-152 0 -289.5 59t-235.5 158.5t-155.5 235.5t-57.5 284q0 150 58.5 286.5t157 235.5t235.5 157t287 58q153 0 290 -59t235 -158t155 -235t57 -285zM459 1092v-93h90v-262h94v262h90v93h-274zM954 1092
v-93h93v-262h92v262h92v93h-277zM844 166q146 0 271 71t199.5 193t78.5 266l-95 17q0 -123 -60.5 -227.5t-165 -165t-228.5 -60.5q-188 0 -320.5 133t-132.5 320l-94 -17q4 -144 78.5 -266t199 -193t269.5 -71z" />
    <glyph glyph-name=".null" horiz-adv-x="0" 
 />
    <glyph glyph-name="nonmarkingreturn" horiz-adv-x="682" 
 />
    <glyph glyph-name="space" unicode=" " horiz-adv-x="552" 
 />
    <glyph glyph-name="exclam" unicode="!" horiz-adv-x="546" 
d="M141 1434h265l-39 -1014h-183zM274 -10q-63 0 -109 45.5t-46 109.5q0 66 46 112t109 46q65 0 110.5 -46t45.5 -112q0 -64 -45.5 -109.5t-110.5 -45.5z" />
    <glyph glyph-name="quotedbl" unicode="&#x22;" horiz-adv-x="790" 
d="M317 1151l-45 -297h-118l-50 299q-20 127 -20 156q0 65 35.5 100t91.5 35q58 0 93.5 -35t35.5 -100q0 -36 -23 -158zM686 1151l-47 -297h-119l-47 299q-20 102 -20 156q0 65 34.5 100t92.5 35t92.5 -35t34.5 -100q0 -19 -21 -158z" />
    <glyph glyph-name="numbersign" unicode="#" horiz-adv-x="1460" 
d="M1397 786h-230l-59 -264h178v-209h-223l-70 -313h-233l69 313h-350l-69 -313h-232l70 313h-185v209h230l59 264h-176v211h221l70 314h231l-69 -314h350l70 314h233l-70 -314h185v-211zM874 522l60 264h-350l-60 -264h350z" />
    <glyph glyph-name="dollar" unicode="$" horiz-adv-x="1191" 
d="M1081 348q0 -154 -102 -245.5t-266 -114.5v-172h-213v170q-183 26 -285.5 137t-108.5 285h269q9 -100 68.5 -152.5t164.5 -52.5q84 0 140.5 36t56.5 105q0 67 -51 114.5t-160 86.5l-150 55q-142 52 -221.5 136t-79.5 220q0 149 98 245t259 122v172h213v-172
q162 -26 256.5 -128t97.5 -253h-252q-9 78 -62.5 122t-148.5 44q-80 0 -132 -38t-52 -99q0 -60 45 -98.5t147 -75.5l140 -52q165 -62 247 -154.5t82 -242.5z" />
    <glyph glyph-name="percent" unicode="%" horiz-adv-x="1628" 
d="M422 702q-129 0 -221 93.5t-92 222.5t92 221t221 92q128 0 220.5 -92t92.5 -221t-92.5 -222.5t-220.5 -93.5zM1391 1311l-885 -1311h-281l885 1311h281zM420 899q52 0 85.5 34t33.5 85t-33.5 84t-85.5 33q-50 0 -82.5 -33t-32.5 -84t33 -85t82 -34zM1206 -20
q-128 0 -220.5 92t-92.5 221t92.5 222t220.5 93t222 -93t94 -222q0 -128 -94 -220.5t-222 -92.5zM1206 176q52 0 84.5 33t32.5 84q0 52 -32.5 85.5t-84.5 33.5q-49 0 -81.5 -34t-32.5 -85t32 -84t82 -33z" />
    <glyph glyph-name="ampersand" unicode="&#x26;" horiz-adv-x="1433" 
d="M1372 0h-278l-160 174q-89 -94 -189.5 -144t-232.5 -50q-175 0 -290.5 95t-115.5 253q0 71 20.5 131.5t60 107.5t78.5 80t95 70l46 28l-3 3q-90 97 -118 137q-74 106 -74 219q0 150 117.5 250t294.5 100q181 0 295 -90.5t114 -241.5q0 -113 -60 -195.5t-179 -166.5
l-68 -47l197 -215l165 207h265l-285 -369zM582 870l2 -4l57 39q78 51 117 96.5t39 104.5q0 67 -49.5 107t-122.5 40q-77 0 -125.5 -43t-48.5 -110q0 -60 30.5 -108.5t100.5 -121.5zM530 193q75 0 135.5 34.5t120.5 104.5l-235 256l-43 -29q-74 -53 -112 -101t-38 -112
q0 -67 49 -110t123 -43z" />
    <glyph glyph-name="quotesingle" unicode="'" horiz-adv-x="423" 
d="M317 1151l-45 -297h-118l-50 299q-20 127 -20 156q0 65 35.5 100t91.5 35q58 0 93.5 -35t35.5 -100q0 -36 -23 -158z" />
    <glyph glyph-name="parenleft" unicode="(" horiz-adv-x="647" 
d="M604 -250l-158 -112q-150 181 -245 436t-95 561t95 562t245 437l158 -112q-131 -182 -202.5 -407t-71.5 -480q0 -500 274 -885z" />
    <glyph glyph-name="parenright" unicode=")" horiz-adv-x="647" 
d="M43 -250q274 385 274 885q0 255 -71.5 480t-202.5 407l158 112q150 -181 245 -437t95 -562t-95 -561t-245 -436z" />
    <glyph glyph-name="asterisk" unicode="*" horiz-adv-x="849" 
d="M766 1192l-205 -107l205 -104l-78 -137l-194 125l10 -230h-158l12 230l-194 -125l-80 137l207 104l-207 107l80 137l194 -127l-12 232h158l-10 -232l194 127z" />
    <glyph glyph-name="plus" unicode="+" 
d="M1073 680v-213h-362v-344h-230v344h-366v213h366v344h230v-344h362z" />
    <glyph glyph-name="comma" unicode="," horiz-adv-x="536" 
d="M266 301q77 0 121.5 -58.5t44.5 -152.5q0 -72 -22 -137.5t-60 -114.5t-78 -85t-86 -64l-67 80q134 111 137 221q-54 -7 -99.5 34.5t-45.5 118.5q0 72 44 115t111 43z" />
    <glyph glyph-name="hyphen" unicode="-" horiz-adv-x="905" 
d="M63 745h779v-217h-779v217z" />
    <glyph glyph-name="period" unicode="." horiz-adv-x="524" 
d="M262 -10q-63 0 -109.5 45.5t-46.5 109.5q0 65 46 111.5t110 46.5q65 0 110.5 -46t45.5 -112q0 -64 -45.5 -109.5t-110.5 -45.5z" />
    <glyph glyph-name="slash" unicode="/" horiz-adv-x="1046" 
d="M1004 1536l-711 -1638h-250l713 1638h248z" />
    <glyph glyph-name="zero" unicode="0" horiz-adv-x="1253" 
d="M631 -20q-241 0 -383 172t-142 505q0 330 141.5 503t381.5 173t378 -172.5t138 -505.5q0 -334 -137.5 -504.5t-376.5 -170.5zM631 203q110 0 173.5 109t63.5 341q0 235 -64 346t-173 111q-110 0 -178 -110.5t-68 -344.5q0 -233 68 -342.5t178 -109.5z" />
    <glyph glyph-name="one" unicode="1" horiz-adv-x="804" 
d="M393 0v856h-287v215h134q182 0 182 178v62h242v-1311h-271z" />
    <glyph glyph-name="two" unicode="2" horiz-adv-x="1142" 
d="M582 432q-71 -48 -110.5 -98t-51.5 -113h610v-221h-924v88q0 162 74.5 290t202.5 212l211 139q39 27 60.5 43.5t51 45.5t43 61t13.5 69q0 71 -48.5 116.5t-123.5 45.5q-93 0 -147.5 -61.5t-59.5 -143.5h-274q2 61 22 121t61 115.5t97.5 98t137.5 68t177 25.5
q196 0 313 -101.5t117 -275.5q0 -63 -17.5 -119.5t-39.5 -92.5t-58 -72t-57 -51.5t-53 -36.5z" />
    <glyph glyph-name="three" unicode="3" horiz-adv-x="1200" 
d="M872 678q103 -38 161.5 -116.5t58.5 -190.5q0 -168 -138.5 -279.5t-359.5 -111.5q-224 0 -350.5 112t-137.5 305h265q34 -194 221 -194q101 0 162 52t61 130q0 87 -61.5 136.5t-167.5 49.5h-119v199h113q94 0 149 46t55 130q0 79 -53.5 127.5t-138.5 48.5
q-79 0 -135.5 -44t-73.5 -126h-258q6 169 144.5 275t332.5 106q120 0 221 -42t164.5 -127t63.5 -199q0 -185 -179 -275v-12z" />
    <glyph glyph-name="four" unicode="4" horiz-adv-x="1234" 
d="M1169 487v-200h-227v-287h-252v287h-627v131l611 893h268v-824h227zM369 487h321v474h-18z" />
    <glyph glyph-name="five" unicode="5" horiz-adv-x="1175" 
d="M647 854q189 0 305.5 -121.5t116.5 -308.5q0 -202 -139 -323t-355 -121q-204 0 -331.5 110t-137.5 301h261q7 -93 65 -145.5t148 -52.5q99 0 160 61t61 164q0 104 -58 170.5t-157 66.5q-68 0 -122 -29t-85 -83l-242 53l70 715h801v-219h-570l-35 -314q92 76 244 76z" />
    <glyph glyph-name="six" unicode="6" horiz-adv-x="1124" 
d="M631 840q175 0 291 -118t116 -304q0 -199 -133.5 -318.5t-341.5 -119.5q-215 0 -347 125t-132 333q0 90 29.5 181.5t61 146.5t81.5 129l283 416h321l-362 -490q65 19 133 19zM565 193q98 0 156.5 65t58.5 164q0 97 -57.5 160t-155.5 63q-99 0 -157 -62.5t-58 -160.5
q0 -99 58.5 -164t154.5 -65z" />
    <glyph glyph-name="seven" unicode="7" horiz-adv-x="1105" 
d="M106 1311h936v-158q-432 -494 -477 -1153h-274q15 189 51 353t90 295t112 231.5t132 197.5v13h-570v221z" />
    <glyph glyph-name="eight" unicode="8" horiz-adv-x="1185" 
d="M852 690q41 -16 79.5 -43.5t72.5 -67.5t54.5 -97.5t20.5 -123.5q0 -170 -129 -274t-354 -104q-226 0 -358 104.5t-132 273.5q0 66 21 123.5t55.5 98t73.5 68t80 42.5v12q-180 86 -180 273q0 161 123.5 259.5t318.5 98.5q192 0 313 -95.5t121 -258.5q0 -187 -180 -277v-12
zM596 1145q-81 0 -132.5 -47t-51.5 -129q0 -81 53 -128.5t131 -47.5q77 0 127.5 47.5t50.5 128.5t-50 128.5t-128 47.5zM596 176q90 0 149.5 54.5t59.5 146.5q0 93 -57 151t-154 58q-98 0 -155.5 -57.5t-57.5 -147.5q0 -94 61.5 -149.5t153.5 -55.5z" />
    <glyph glyph-name="nine" unicode="9" horiz-adv-x="1124" 
d="M561 1331q215 0 346 -125.5t131 -333.5q0 -69 -14.5 -134.5t-42.5 -125.5t-52.5 -101.5t-60.5 -94.5l-282 -416h-324l363 489q-62 -18 -131 -18q-175 0 -292.5 118.5t-117.5 303.5q0 199 134 318.5t343 119.5zM557 666q99 0 157 62.5t58 160.5q0 99 -58.5 164t-154.5 65
q-98 0 -156.5 -65t-58.5 -164q0 -97 57.5 -160t155.5 -63z" />
    <glyph glyph-name="colon" unicode=":" horiz-adv-x="524" 
d="M262 721q-63 0 -109.5 46t-46.5 110q0 65 46 111t110 46q65 0 110.5 -45.5t45.5 -111.5q0 -65 -46 -110.5t-110 -45.5zM262 -10q-63 0 -109.5 45.5t-46.5 109.5q0 65 46 111.5t110 46.5q65 0 110.5 -46t45.5 -112q0 -64 -45.5 -109.5t-110.5 -45.5z" />
    <glyph glyph-name="semicolon" unicode=";" horiz-adv-x="536" 
d="M272 721q-64 0 -110.5 46.5t-46.5 109.5q0 66 46 111.5t111 45.5t110.5 -45.5t45.5 -111.5q0 -63 -46 -109.5t-110 -46.5zM266 301q77 0 121.5 -58.5t44.5 -152.5q0 -72 -22 -137.5t-60 -114.5t-78 -85t-86 -64l-67 80q134 111 137 221q-54 -7 -99.5 34.5t-45.5 118.5
q0 72 44 115t111 43z" />
    <glyph glyph-name="less" unicode="&#x3c;" 
d="M1024 1178v-275l-584 -303v-12l584 -305v-273l-856 451v264z" />
    <glyph glyph-name="equal" unicode="=" 
d="M113 918h962v-224h-962v224zM113 453h962v-222h-962v222z" />
    <glyph glyph-name="greater" unicode="&#x3e;" 
d="M166 1178l856 -453v-264l-856 -451v273l584 305v12l-584 303v275z" />
    <glyph glyph-name="question" unicode="?" horiz-adv-x="964" 
d="M297 506q0 117 36.5 203t143.5 163q95 69 128.5 112.5t33.5 102.5q0 66 -43.5 106t-118.5 40q-80 0 -124 -46t-54 -124h-236q2 58 16 111.5t46 105.5t78 90t116.5 61t157.5 23q188 0 295 -93.5t107 -258.5q0 -60 -12.5 -107t-41 -87.5t-62 -73t-87.5 -74.5
q-79 -59 -112.5 -118.5t-33.5 -152.5v-69h-233v86zM420 -10q-63 0 -109.5 45.5t-46.5 109.5q0 65 46 111.5t110 46.5q65 0 110 -46t45 -112q0 -65 -45.5 -110t-109.5 -45z" />
    <glyph glyph-name="at" unicode="@" horiz-adv-x="2031" 
d="M1016 1454q255 0 461.5 -110.5t327 -315.5t120.5 -467t-103 -404.5t-296 -142.5q-108 0 -184.5 40t-104.5 112q-35 -64 -107 -108t-186 -44q-173 0 -294.5 133t-121.5 345q0 227 119 369.5t295 142.5q88 0 151.5 -34.5t96.5 -95.5h16l19 111h192v-631q0 -68 34.5 -104.5
t92.5 -36.5q83 0 125.5 74.5t42.5 249.5q0 215 -88.5 378t-247 250.5t-364.5 87.5q-144 0 -271 -55t-220 -153t-147.5 -241.5t-54.5 -311.5q0 -154 55 -288t151 -229.5t233 -150.5t295 -55q223 0 397 106l84 -170q-85 -58 -212 -96.5t-284 -38.5q-192 0 -361.5 64
t-296.5 180.5t-200.5 291t-73.5 383.5q0 151 34.5 285t95.5 239t146 189t186 139t215 84t233 29zM983 227q95 0 159 74.5t64 202.5q0 127 -64 201.5t-159 74.5q-97 0 -160 -74t-63 -202t63 -202.5t160 -74.5z" />
    <glyph glyph-name="A" unicode="A" horiz-adv-x="1433" 
d="M1102 0l-117 346h-536l-117 -346h-289l512 1434h326l510 -1434h-289zM522 569h389l-186 553h-16z" />
    <glyph glyph-name="B" unicode="B" horiz-adv-x="1275" 
d="M950 756q43 -15 81.5 -41.5t76 -68t60 -106t22.5 -143.5q0 -188 -122.5 -292.5t-340.5 -104.5h-586v1434h590q206 0 312 -97.5t106 -261.5q0 -213 -199 -307v-12zM406 1217v-371h284q91 0 140 50t49 136t-50.5 135.5t-134.5 49.5h-288zM702 217q101 0 156 55t55 146
q0 93 -56.5 152t-154.5 59h-296v-412h296z" />
    <glyph glyph-name="C" unicode="C" horiz-adv-x="1550" 
d="M1464 461q-23 -150 -116 -260t-231.5 -165.5t-305.5 -55.5q-215 0 -376 95t-245 260t-84 376q0 215 87.5 384t248.5 264t369 95q250 0 422.5 -128.5t208.5 -360.5h-291q-34 112 -122.5 175.5t-217.5 63.5q-125 0 -223.5 -65t-151.5 -177t-53 -251q0 -214 121.5 -348
t306.5 -134q137 0 233 63t130 169h290z" />
    <glyph glyph-name="D" unicode="D" horiz-adv-x="1447" 
d="M643 1434q327 0 512.5 -191.5t185.5 -525.5q0 -331 -186 -524t-512 -193h-502v1434h502zM633 242q110 0 194 36t135.5 101.5t77 152t25.5 193.5q0 216 -107 341.5t-325 125.5h-221v-950h221z" />
    <glyph glyph-name="E" unicode="E" horiz-adv-x="1200" 
d="M406 236h716v-236h-981v1434h961v-236h-696v-356h600v-230h-600v-376z" />
    <glyph glyph-name="F" unicode="F" horiz-adv-x="1169" 
d="M1106 1186h-694v-381h602v-236h-602v-569h-271v1434h965v-248z" />
    <glyph glyph-name="G" unicode="G" horiz-adv-x="1611" 
d="M821 778h649v-778h-215l-26 137h-17q-25 -25 -59.5 -49t-87 -50t-126 -42t-155.5 -16q-204 0 -358.5 91.5t-237 253.5t-82.5 371q0 162 53.5 302t148.5 240.5t231 158t295 57.5q266 0 429.5 -129t194.5 -330h-295q-33 98 -118 153.5t-211 55.5q-204 0 -327.5 -142.5
t-123.5 -365.5q0 -212 116.5 -343.5t319.5 -131.5q168 0 275.5 74t107.5 211v61h-381v211z" />
    <glyph glyph-name="H" unicode="H" horiz-adv-x="1425" 
d="M1014 1434h270v-1434h-270v604h-602v-604h-271v1434h271v-586h602v586z" />
    <glyph glyph-name="I" unicode="I" horiz-adv-x="552" 
d="M412 1434v-1434h-271v1434h271z" />
    <glyph glyph-name="J" unicode="J" horiz-adv-x="1124" 
d="M348 432q5 -91 51 -147t131 -56q88 0 136.5 56t48.5 164v985h268v-994q0 -222 -122.5 -341t-328.5 -119q-219 0 -341.5 121.5t-127.5 330.5h285z" />
    <glyph glyph-name="K" unicode="K" horiz-adv-x="1327" 
d="M977 0l-461 614h-104v-614h-271v1434h271v-576h104l406 576h303l-486 -680v-15l545 -739h-307z" />
    <glyph glyph-name="L" unicode="L" horiz-adv-x="1185" 
d="M406 242h714v-242h-979v1434h265v-1192z" />
    <glyph glyph-name="M" unicode="M" horiz-adv-x="1830" 
d="M1690 1434v-1434h-265v952h-16l-356 -788h-273l-358 788h-16v-952h-265v1434h332l436 -983h17l434 983h330z" />
    <glyph glyph-name="N" unicode="N" horiz-adv-x="1484" 
d="M1079 1434h264v-1434h-276l-645 958h-16v-958h-265v1434h277l645 -965h16v965z" />
    <glyph glyph-name="O" unicode="O" horiz-adv-x="1679" 
d="M840 -20q-208 0 -376 95.5t-263 264.5t-95 377q0 155 55.5 292t152 234.5t233.5 154t293 56.5t292.5 -56.5t233 -154t152 -234.5t55.5 -292q0 -124 -35 -237t-100.5 -203.5t-155 -157.5t-203 -103t-239.5 -36zM842 229q196 0 325 139t129 349q0 209 -130 348t-326 139
t-326.5 -139t-130.5 -348q0 -210 130.5 -349t328.5 -139z" />
    <glyph glyph-name="P" unicode="P" horiz-adv-x="1302" 
d="M717 1434q219 0 349 -126t130 -329q0 -208 -132 -332.5t-355 -124.5h-306v-522h-262v1434h576zM682 758q116 0 177 59.5t61 161.5q0 100 -62 159.5t-170 59.5h-285v-440h279z" />
    <glyph glyph-name="Q" unicode="Q" horiz-adv-x="1679" 
d="M1090 18q59 -79 219 -79q66 0 155 14v-195q-115 -22 -211 -22q-154 0 -255 57.5t-154 186.5h-4q-208 0 -376 95.5t-263 264.5t-95 377q0 155 55.5 292t152 234.5t233.5 154t293 56.5t292.5 -56.5t233 -154t152 -234.5t55.5 -292q0 -246 -132 -435.5t-351 -263.5zM383 717
q0 -210 130.5 -349t328.5 -139q196 0 325 139t129 349q0 209 -130 348t-326 139t-326.5 -139t-130.5 -348z" />
    <glyph glyph-name="R" unicode="R" horiz-adv-x="1288" 
d="M1225 0h-287l-299 559h-233v-559h-265v1434h568q213 0 337.5 -115.5t124.5 -306.5q0 -144 -73 -249t-203 -155zM406 1204v-416h272q103 0 163 58.5t60 150.5q0 96 -59.5 151.5t-163.5 55.5h-272z" />
    <glyph glyph-name="S" unicode="S" horiz-adv-x="1249" 
d="M1139 393q0 -102 -40.5 -182.5t-110 -130t-158 -75t-189.5 -25.5q-251 0 -389 123.5t-146 334.5h267q9 -109 78 -169t190 -60q99 0 162 43.5t63 132.5q0 42 -17 76.5t-40 56.5t-64 42t-71.5 30.5t-79.5 25.5l-82 25q-360 108 -360 399q0 188 137 301t348 113
q218 0 350.5 -118t138.5 -304h-266q-9 88 -65.5 140.5t-155.5 52.5q-96 0 -155.5 -47t-59.5 -125q0 -36 15 -65t35.5 -48t58 -37t64.5 -27.5t73 -23.5l71 -23q36 -11 65 -21.5t72 -30.5t76.5 -42.5t69.5 -57t60 -74t39.5 -94t15.5 -116.5z" />
    <glyph glyph-name="T" unicode="T" horiz-adv-x="1210" 
d="M1145 1434v-242h-406v-1192h-270v1192h-406v242h1082z" />
    <glyph glyph-name="U" unicode="U" horiz-adv-x="1460" 
d="M1319 1434v-879q0 -142 -44.5 -253t-123.5 -181t-185 -105.5t-233 -35.5q-128 0 -234.5 35.5t-187 105.5t-125.5 181t-45 253v879h271v-871q0 -159 88.5 -246.5t232.5 -87.5q143 0 229.5 87.5t86.5 246.5v871h270z" />
    <glyph glyph-name="V" unicode="V" horiz-adv-x="1390" 
d="M1059 1434h289l-490 -1434h-326l-489 1434h291l356 -1072h17z" />
    <glyph glyph-name="W" unicode="W" horiz-adv-x="1886" 
d="M1583 1434h260l-311 -1434h-299l-283 985h-16l-279 -985h-299l-313 1434h262l211 -1037h16l269 934h286l265 -934h16z" />
    <glyph glyph-name="X" unicode="X" horiz-adv-x="1366" 
d="M1010 0l-312 516h-18l-311 -516h-326l459 739l-436 695h321l293 -476h18l293 476h307l-436 -695l461 -739h-313z" />
    <glyph glyph-name="Y" unicode="Y" horiz-adv-x="1388" 
d="M1024 1434h322l-517 -801v-633h-270v633l-516 801h319l324 -506h16z" />
    <glyph glyph-name="Z" unicode="Z" horiz-adv-x="1282" 
d="M504 242h667v-242h-1065v158l672 1020v14h-637v242h1010v-158l-647 -1020v-14z" />
    <glyph glyph-name="bracketleft" unicode="[" horiz-adv-x="626" 
d="M141 1583h441v-184h-222v-1561h222v-184h-441v1929z" />
    <glyph glyph-name="backslash" unicode="\" horiz-adv-x="1046" 
d="M43 1536h248l713 -1638h-250z" />
    <glyph glyph-name="bracketright" unicode="]" horiz-adv-x="624" 
d="M483 1583v-1929h-440v184h221v1561h-221v184h440z" />
    <glyph glyph-name="asciicircum" unicode="^" 
d="M821 737l-215 428h-16l-221 -428h-269l351 697h288l351 -697h-269z" />
    <glyph glyph-name="underscore" unicode="_" horiz-adv-x="1032" 
d="M63 0h906v-221h-906v221z" />
    <glyph glyph-name="grave" unicode="`" horiz-adv-x="659" 
d="M362 1434l156 -297h-199l-178 297h221z" />
    <glyph glyph-name="a" unicode="a" horiz-adv-x="1120" 
d="M1061 197h24v-197h-110q-161 0 -207 123q-114 -143 -338 -143q-163 0 -262.5 77t-99.5 224q0 140 93.5 218.5t244.5 92.5l319 33v43q0 82 -47 125t-125 43q-157 0 -184 -154h-263q15 163 134.5 262.5t312.5 99.5q92 0 169.5 -23.5t137.5 -70.5t93.5 -124t33.5 -177v-375
q0 -77 74 -77zM725 395v49l-229 -24q-75 -8 -120.5 -40t-45.5 -89q0 -111 145 -111q45 0 86.5 11.5t79.5 35t61 67t23 101.5z" />
    <glyph glyph-name="b" unicode="b" horiz-adv-x="1239" 
d="M672 1044q207 0 344 -143t137 -387q0 -241 -136 -387.5t-345 -146.5q-109 0 -185 41t-120 100h-19l-22 -121h-213v1454h262v-526q45 50 122 83t175 33zM631 207q117 0 188.5 84.5t71.5 222.5q0 135 -71.5 219t-188.5 84q-116 0 -186 -83.5t-70 -219.5q0 -139 69.5 -223
t186.5 -84z" />
    <glyph glyph-name="c" unicode="c" horiz-adv-x="1183" 
d="M621 -20q-238 0 -387.5 147.5t-149.5 380.5q0 158 70.5 281t191.5 189t270 66q91 0 173.5 -24.5t151 -72t114 -124.5t57.5 -174h-262q-18 73 -81 120.5t-153 47.5q-118 0 -194 -86.5t-76 -222.5t75 -218.5t200 -82.5q179 0 231 147h264q-26 -171 -160.5 -272.5
t-334.5 -101.5z" />
    <glyph glyph-name="d" unicode="d" horiz-adv-x="1239" 
d="M864 1454h262v-1454h-213l-22 121h-19q-44 -59 -120 -100t-185 -41q-209 0 -345 146.5t-136 387.5q0 244 137 387t344 143q98 0 175 -33t122 -83v526zM608 207q117 0 186.5 84t69.5 223q0 136 -70 219.5t-186 83.5q-117 0 -188.5 -84t-71.5 -219q0 -138 71.5 -222.5
t188.5 -84.5z" />
    <glyph glyph-name="e" unicode="e" horiz-adv-x="1177" 
d="M836 324h251q-31 -160 -157.5 -252t-319.5 -92q-231 0 -378.5 144t-147.5 378q0 124 41 227t111 171.5t164 106t200 37.5q97 0 182.5 -31.5t154 -93t108.5 -165t40 -236.5q0 -18 -4 -76h-737q8 -113 78.5 -183.5t187.5 -70.5q87 0 145.5 35t80.5 101zM600 836
q-103 0 -171.5 -61.5t-82.5 -156.5h490q-5 96 -70 157t-166 61z" />
    <glyph glyph-name="f" unicode="f" horiz-adv-x="819" 
d="M510 1120v-96h260v-207h-260v-817h-262v817h-215v207h215v111q0 155 93 237t249 82q89 0 196 -35l-45 -190q-47 16 -104 16q-59 0 -93 -31t-34 -94z" />
    <glyph glyph-name="g" unicode="g" horiz-adv-x="1140" 
d="M1106 995q-57 -61 -166 -112q66 -84 66 -193q0 -159 -121.5 -251.5t-309.5 -92.5q-88 0 -172 23q-49 -24 -49 -68q0 -41 38 -59.5t97 -18.5h201q181 0 277 -81t96 -222q0 -164 -129 -257t-352 -93q-230 0 -356 98t-142 246l156 137q-55 30 -86 79t-31 110q0 124 137 200
q-121 94 -121 250q0 154 115.5 254t308.5 100q136 0 238 -51q107 54 176 146zM575 537q83 0 132 44t49 113q0 72 -49 117t-132 45q-85 0 -135.5 -45t-50.5 -117q0 -69 50.5 -113t135.5 -44zM813 -94q0 59 -45 85.5t-111 26.5h-186l-135 -114q19 -60 81 -98.5t167 -38.5
q99 0 164 36t65 103z" />
    <glyph glyph-name="h" unicode="h" horiz-adv-x="1204" 
d="M692 1044q185 0 292.5 -112t107.5 -311v-621h-263v567q0 121 -61 185.5t-158 64.5q-101 0 -168 -66.5t-67 -195.5v-555h-262v1454h262v-551h16q51 67 122 104t179 37z" />
    <glyph glyph-name="i" unicode="i" horiz-adv-x="487" 
d="M244 1155q-65 0 -113.5 47.5t-48.5 110.5q0 67 48.5 113.5t113.5 46.5t111 -46.5t46 -113.5q0 -63 -46.5 -110.5t-110.5 -47.5zM113 0v1024h262v-1024h-262z" />
    <glyph glyph-name="j" unicode="j" horiz-adv-x="487" 
d="M244 1155q-65 0 -113.5 47.5t-48.5 110.5q0 67 48.5 113.5t113.5 46.5t111 -46.5t46 -113.5q0 -63 -46.5 -110.5t-110.5 -47.5zM53 -430q-81 0 -180 22v195q46 -12 100 -12q82 0 111 36t29 89v1124h262v-1155q0 -40 -5.5 -75t-25.5 -78.5t-53 -73.5t-94.5 -51t-143.5 -21
z" />
    <glyph glyph-name="k" unicode="k" horiz-adv-x="1107" 
d="M1075 1024l-418 -408l418 -616h-289l-305 444l-106 -102v-342h-262v1454h262v-784h16l369 354h315z" />
    <glyph glyph-name="l" unicode="l" horiz-adv-x="487" 
d="M113 0v1454h262v-1454h-262z" />
    <glyph glyph-name="m" unicode="m" horiz-adv-x="1734" 
d="M113 0v1024h239l23 -121h16q102 141 281 141q192 0 268 -161h16q111 161 320 161q162 0 254 -96t92 -278v-670h-262v621q0 94 -49.5 145t-126.5 51q-84 0 -135.5 -57.5t-51.5 -153.5v-606h-262v612q0 98 -48.5 151.5t-125.5 53.5q-76 0 -131 -54.5t-55 -154.5v-608h-262z
" />
    <glyph glyph-name="n" unicode="n" horiz-adv-x="1204" 
d="M113 0v1024h239l23 -121h16q51 67 122 104t179 37q185 0 292.5 -112t107.5 -311v-621h-263v567q0 121 -61 185.5t-158 64.5q-101 0 -168 -66.5t-67 -195.5v-555h-262z" />
    <glyph glyph-name="o" unicode="o" horiz-adv-x="1251" 
d="M625 -20q-151 0 -274.5 67t-195 190t-71.5 277q0 155 71 276.5t194 187.5t276 66q152 0 275 -66.5t194 -188t71 -275.5q0 -156 -70.5 -278t-193.5 -189t-276 -67zM625 207q125 0 202.5 87.5t77.5 219.5q0 130 -78 216.5t-202 86.5t-201.5 -86.5t-77.5 -216.5
q0 -131 77.5 -219t201.5 -88z" />
    <glyph glyph-name="p" unicode="p" horiz-adv-x="1239" 
d="M672 1044q209 0 345 -146.5t136 -387.5q0 -244 -137 -387t-344 -143q-98 0 -175 33t-122 83v-506h-262v1434h213l22 -121h19q44 59 120 100t185 41zM631 207q117 0 188.5 84t71.5 219q0 138 -71.5 222.5t-188.5 84.5t-186.5 -84t-69.5 -223q0 -136 70 -219.5t186 -83.5z
" />
    <glyph glyph-name="q" unicode="q" horiz-adv-x="1239" 
d="M913 1024h213v-1434h-262v506q-45 -50 -122 -83t-175 -33q-207 0 -344 143t-137 387q0 241 136 387.5t345 146.5q109 0 185 -41t120 -100h19zM608 207q116 0 186 83.5t70 219.5q0 139 -69.5 223t-186.5 84t-188.5 -84.5t-71.5 -222.5q0 -135 71.5 -219t188.5 -84z" />
    <glyph glyph-name="r" unicode="r" horiz-adv-x="802" 
d="M113 0v1024h237l25 -145h16q52 85 118 125t187 40h74v-262q-56 9 -111 9q-65 0 -115.5 -19t-82 -49t-51.5 -72t-27.5 -84.5t-7.5 -89.5v-477h-262z" />
    <glyph glyph-name="s" unicode="s" horiz-adv-x="1021" 
d="M539 -20q-212 0 -328 93t-127 255h252q10 -79 64 -116.5t137 -37.5q65 0 107 26.5t42 78.5q0 55 -44 85t-136 54l-96 24q-49 12 -84 23.5t-77.5 34.5t-69 52t-44.5 75t-18 104q0 147 111 230t272 83q196 0 301.5 -88.5t116.5 -224.5h-252q-8 56 -50.5 87.5t-113.5 31.5
q-61 0 -98 -28t-37 -77q0 -21 9.5 -37.5t20 -26.5t38.5 -21t43 -15.5t57 -15.5l96 -25q147 -37 226 -110t79 -209q0 -102 -55 -172t-142.5 -101.5t-199.5 -31.5z" />
    <glyph glyph-name="t" unicode="t" horiz-adv-x="815" 
d="M571 -20q-319 0 -319 299v538h-219v207h69q94 0 134 36.5t40 119.5v123h238v-279h268v-207h-268v-504q0 -25 4.5 -44.5t17.5 -40t42 -31.5t73 -11q43 0 101 15v-199q-99 -22 -181 -22z" />
    <glyph glyph-name="u" unicode="u" horiz-adv-x="1204" 
d="M1092 1024v-1024h-240l-23 121h-16q-51 -67 -122 -104t-179 -37q-185 0 -292 112t-107 311v621h262v-567q0 -121 61.5 -185.5t159.5 -64.5q100 0 166.5 66.5t66.5 195.5v555h263z" />
    <glyph glyph-name="v" unicode="v" horiz-adv-x="1165" 
d="M426 0l-391 1024h270l273 -752h16l268 752h268l-391 -1024h-313z" />
    <glyph glyph-name="w" unicode="w" horiz-adv-x="1587" 
d="M307 0l-272 1024h241l175 -725h16l192 659h273l190 -661h17l172 727h243l-276 -1024h-287l-188 668h-17l-192 -668h-287z" />
    <glyph glyph-name="x" unicode="x" horiz-adv-x="1110" 
d="M35 0l354 526l-336 498h297l197 -301h18l195 301h297l-334 -498l354 -526h-301l-211 332h-16l-217 -332h-297z" />
    <glyph glyph-name="y" unicode="y" horiz-adv-x="1165" 
d="M307 -430q-80 0 -166 22v195q59 -12 107 -12q170 0 225 137l35 88h-82l-391 1024h270l279 -756h16l260 756h270l-413 -1151q-9 -26 -17 -45.5t-25.5 -53.5t-37.5 -59t-53 -54t-70.5 -47.5t-91 -31t-115.5 -12.5z" />
    <glyph glyph-name="z" unicode="z" horiz-adv-x="1026" 
d="M84 0v131l479 678v12h-454v203h813v-131l-473 -678v-12h489v-203h-854z" />
    <glyph glyph-name="braceleft" unicode="{" horiz-adv-x="610" 
d="M410 854q0 -84 -42.5 -141t-101.5 -88v-13q59 -31 101.5 -87.5t42.5 -141.5v-434q0 -111 100 -111h57v-184h-102q-131 0 -201.5 66t-70.5 190v450q0 85 -33.5 126.5t-116.5 48.5v165q83 7 116.5 49t33.5 128v450q0 124 70.5 190t201.5 66h102v-184h-57q-100 0 -100 -111
v-434z" />
    <glyph glyph-name="bar" unicode="|" horiz-adv-x="520" 
d="M379 1577v-1864h-238v1864h238z" />
    <glyph glyph-name="braceright" unicode="}" horiz-adv-x="610" 
d="M201 854v434q0 111 -101 111h-57v184h102q131 0 202 -66t71 -190v-450q0 -86 33.5 -128t115.5 -49v-165q-83 -7 -116 -48t-33 -127v-450q0 -124 -71 -190t-202 -66h-102v184h57q101 0 101 111v434q0 85 42.5 141.5t100.5 87.5v13q-58 31 -100.5 87.5t-42.5 141.5z" />
    <glyph glyph-name="asciitilde" unicode="~" 
d="M1149 756q-7 -108 -43.5 -194t-110 -141.5t-174.5 -55.5q-72 0 -129 20.5t-93.5 50t-68 59t-67 50t-74.5 20.5q-65 0 -97.5 -48.5t-39.5 -123.5h-209q6 81 28.5 150t62 123.5t101 86t138.5 31.5q71 0 128 -20.5t93 -50t67.5 -59t67 -50t74.5 -20.5q65 0 97.5 48.5
t39.5 123.5h209z" />
    <glyph glyph-name="uni00A0" unicode="&#xa0;" horiz-adv-x="512" 
 />
    <glyph glyph-name="exclamdown" unicode="&#xa1;" horiz-adv-x="546" 
d="M276 1034q63 0 109.5 -45.5t46.5 -109.5q0 -65 -46 -111.5t-110 -46.5q-65 0 -110 46t-45 112q0 65 45.5 110t109.5 45zM410 -410h-265l39 1014h183z" />
    <glyph glyph-name="cent" unicode="&#xa2;" horiz-adv-x="1112" 
d="M1055 512q-20 -143 -122 -235.5t-259 -114.5v-162h-215v168q-175 37 -279 168.5t-104 318.5q0 191 107 325.5t276 172.5v160h215v-152q151 -25 255.5 -119t123.5 -251h-250q-18 70 -77 114.5t-144 44.5q-113 0 -184.5 -82.5t-71.5 -212.5q0 -128 70 -206t188 -78
q171 0 223 141h248z" />
    <glyph glyph-name="sterling" unicode="&#xa3;" horiz-adv-x="1263" 
d="M496 219v-14h647v-205h-1037v162q57 18 104.5 43t90 61t66.5 86t24 109q0 33 -10 71h-275v187h162q-86 120 -86 233q0 119 71 207t183 130t248 42q159 0 282 -61.5t185 -163.5l-176 -148q-50 70 -115 109t-164 39q-103 0 -167 -51t-64 -131q0 -25 5 -46t21.5 -46.5
t22.5 -34.5t35.5 -42t32.5 -36h405v-187h-315q2 -14 2 -45q0 -150 -178 -268z" />
    <glyph glyph-name="currency" unicode="&#xa4;" horiz-adv-x="1263" 
d="M1083 512q0 -123 -65 -231l160 -158l-158 -156l-160 160q-105 -59 -227 -59q-126 0 -232 61l-159 -162l-156 156l158 160q-64 106 -64 229q0 126 64 229l-158 160l156 156l159 -162q106 61 232 61q121 0 229 -59l158 160l158 -156l-160 -158q65 -108 65 -231zM633 303
q90 0 151.5 61.5t61.5 147.5t-61.5 147.5t-151.5 61.5t-152.5 -61.5t-62.5 -147.5t62.5 -147.5t152.5 -61.5z" />
    <glyph glyph-name="yen" unicode="&#xa5;" horiz-adv-x="1271" 
d="M1229 1311l-316 -461h232v-199h-367v-184h367v-197h-367v-270h-284v270h-365v197h365v184h-365v199h229l-315 461h307l277 -412h16l277 412h309z" />
    <glyph glyph-name="brokenbar" unicode="&#xa6;" horiz-adv-x="520" 
d="M141 1577h238v-727h-238v727zM141 -287v727h238v-727h-238z" />
    <glyph glyph-name="section" unicode="&#xa7;" horiz-adv-x="1247" 
d="M915 211q91 -38 146 -101.5t55 -170.5q0 -171 -136.5 -270t-356.5 -99q-235 0 -372.5 117.5t-137.5 304.5h245q6 -95 79.5 -150t191.5 -55q105 0 169 40.5t64 111.5q0 29 -11.5 53t-34 41t-47.5 29.5t-62 22t-67 15t-71 11.5q-463 70 -463 389q0 113 66.5 188.5
t159.5 112.5v12q-91 38 -146 101.5t-55 170.5q0 171 137 270t359 99q234 0 372 -118t136 -304h-246q-6 95 -79 150t-192 55q-104 0 -167.5 -41.5t-63.5 -112.5q0 -34 17.5 -61.5t43.5 -44t68 -30t78 -20.5t86 -14q461 -70 461 -389q0 -113 -66.5 -188.5t-159.5 -112.5v-12z
M641 317q109 0 176.5 52.5t67.5 142.5q0 87 -82.5 141t-194.5 54q-109 0 -176 -52.5t-67 -142.5q0 -87 82 -141t194 -54z" />
    <glyph glyph-name="dieresis" unicode="&#xa8;" horiz-adv-x="974" 
d="M285 1116q-59 0 -101.5 43t-42.5 101q0 59 42.5 99t101.5 40t100 -40t41 -99t-41.5 -101.5t-99.5 -42.5zM692 1116q-57 0 -99 43t-42 101q0 59 41.5 99t99.5 40q60 0 101 -39.5t41 -99.5q0 -59 -41.5 -101.5t-100.5 -42.5z" />
    <glyph glyph-name="copyright" unicode="&#xa9;" horiz-adv-x="1708" 
d="M854 -20q-153 0 -291.5 58t-238.5 156.5t-159 235t-59 287.5t59 287.5t159 235t238.5 156.5t291.5 58q203 0 375 -98t272.5 -268t100.5 -371t-100.5 -371t-272.5 -268t-375 -98zM854 137q158 0 292 75t213 209t79 296q0 122 -46.5 230t-125.5 184.5t-186.5 120.5
t-225.5 44t-225.5 -44t-186.5 -120.5t-125.5 -184.5t-46.5 -230q0 -162 79 -296t213 -209t292 -75zM1174 600q-10 -125 -100 -189.5t-216 -64.5q-162 0 -253 100t-91 269q0 168 95.5 268t246.5 100q126 0 209.5 -62.5t97.5 -193.5h-190q-25 91 -119 91q-65 0 -104 -56
t-39 -153q0 -95 39.5 -146t109.5 -51q50 0 83.5 24.5t41.5 63.5h189z" />
    <glyph glyph-name="guillemotleft" unicode="&#xab;" horiz-adv-x="1183" 
d="M317 1024h289l-278 -414l278 -413h-289l-274 413zM811 1024h287l-277 -414l277 -413h-287l-274 413z" />
    <glyph glyph-name="logicalnot" unicode="&#xac;" 
d="M1053 279h-222v387h-718v202h940v-589z" />
    <glyph glyph-name="uni00AD" unicode="&#xad;" horiz-adv-x="905" 
d="M63 745h779v-217h-779v217z" />
    <glyph glyph-name="registered" unicode="&#xae;" horiz-adv-x="1708" 
d="M854 1454q203 0 375 -98t272.5 -268t100.5 -371t-100.5 -371t-272.5 -268t-375 -98q-153 0 -291.5 58t-238.5 156.5t-159 235t-59 287.5t59 287.5t159 235t238.5 156.5t291.5 58zM854 137q158 0 292 75t213 209t79 296q0 122 -46.5 230t-125.5 184.5t-186.5 120.5
t-225.5 44t-225.5 -44t-186.5 -120.5t-125.5 -184.5t-46.5 -230q0 -162 79 -296t213 -209t292 -75zM1124 850q0 -63 -30 -115t-84 -80l153 -297h-186l-131 256h-82v-256h-172v717h303q106 0 167.5 -61.5t61.5 -163.5zM764 926v-164h102q40 0 62 23.5t22 60.5q0 80 -84 80
h-102z" />
    <glyph glyph-name="macron" unicode="&#xaf;" horiz-adv-x="960" 
d="M141 1343h678v-178h-678v178z" />
    <glyph glyph-name="degree" unicode="&#xb0;" horiz-adv-x="856" 
d="M428 774q-141 0 -242.5 98.5t-101.5 241.5q0 141 101.5 240.5t242.5 99.5q139 0 240.5 -99.5t101.5 -240.5q0 -143 -101 -241.5t-241 -98.5zM428 965q65 0 106 42t41 107t-40.5 106.5t-106.5 41.5q-65 0 -107 -42t-42 -106t42.5 -106.5t106.5 -42.5z" />
    <glyph glyph-name="plusminus" unicode="&#xb1;" 
d="M711 842h356v-203h-356v-303h-232v303h-356v203h356v301h232v-301zM123 0v213h944v-213h-944z" />
    <glyph glyph-name="uni00B2" unicode="&#xb2;" horiz-adv-x="704" 
d="M362 958q-82 -50 -96 -116h377v-144h-582v56q0 198 172 305l134 80q30 20 47 32.5t34 38t17 52.5q0 40 -29.5 66t-73.5 26q-54 0 -85 -35t-33 -82h-181q1 46 20.5 90.5t55.5 83t97 62.5t137 24q123 0 197.5 -61.5t74.5 -167.5q0 -39 -11.5 -73.5t-24.5 -55t-37.5 -42
t-35.5 -29t-34 -21.5z" />
    <glyph glyph-name="uni00B3" unicode="&#xb3;" horiz-adv-x="745" 
d="M553 1104q63 -24 98 -70.5t35 -109.5q0 -102 -88.5 -170t-228.5 -68q-141 0 -220.5 68.5t-87.5 185.5h172q22 -111 136 -111q62 0 99.5 29.5t37.5 73.5q0 50 -37 77t-100 27h-80v127h76q55 0 88.5 25.5t33.5 73.5q0 44 -32.5 70t-85.5 26q-47 0 -82.5 -25t-44.5 -69h-170
q4 102 92.5 166.5t210.5 64.5q119 0 203 -60t84 -161q0 -108 -109 -162v-8z" />
    <glyph glyph-name="acute" unicode="&#xb4;" horiz-adv-x="659" 
d="M297 1434h221l-176 -297h-201z" />
    <glyph glyph-name="uni00B5" unicode="&#xb5;" horiz-adv-x="1204" 
d="M829 1024h263v-1024h-240l-23 121h-16q-51 -67 -122 -104t-179 -37q-82 0 -147 30v-420h-252v1434h262v-567q0 -121 61.5 -185.5t159.5 -64.5q100 0 166.5 66.5t66.5 195.5v555z" />
    <glyph glyph-name="paragraph" unicode="&#xb6;" horiz-adv-x="1435" 
d="M84 1049q0 170 121 277.5t303 107.5h864v-222h-176v-1212h-238v1212h-208v-1212h-242v662q-178 0 -301 108t-123 279z" />
    <glyph glyph-name="periodcentered" unicode="&#xb7;" horiz-adv-x="440" 
d="M221 481q-65 0 -111.5 46t-46.5 110t46.5 110t111.5 46t110.5 -45.5t45.5 -110.5t-45.5 -110.5t-110.5 -45.5z" />
    <glyph glyph-name="cedilla" unicode="&#xb8;" horiz-adv-x="667" 
d="M186 -276q60 -37 117 -37q39 0 61.5 17.5t22.5 45.5q0 29 -21.5 46.5t-62.5 17.5q-24 0 -63 -13l-86 68l92 151h135v-20l-57 -88q79 3 140.5 -41.5t61.5 -126.5q0 -80 -58 -127t-161 -47q-99 0 -166 49z" />
    <glyph glyph-name="uni00B9" unicode="&#xb9;" horiz-adv-x="507" 
d="M244 696v502h-183v139h82q119 0 119 111v37h154v-789h-172z" />
    <glyph glyph-name="guillemotright" unicode="&#xbb;" horiz-adv-x="1183" 
d="M373 197h-289l278 413l-278 414h289l274 -414zM866 197h-288l278 413l-278 414h288l275 -414z" />
    <glyph glyph-name="onequarter" unicode="&#xbc;" horiz-adv-x="1744" 
d="M324 645v502h-183v139h84q117 0 117 111v37h156v-789h-174zM1470 1434l-1030 -1434h-202l1028 1434h204zM1604 299v-129h-146v-170h-164v170h-389v84l381 534h172v-489h146zM1104 299h190v266h-10z" />
    <glyph glyph-name="onehalf" unicode="&#xbd;" horiz-adv-x="1810" 
d="M324 645v502h-183v139h84q117 0 117 111v37h156v-789h-174zM1470 1434l-1028 -1434h-204l1030 1434h202zM1389 260q-86 -50 -97 -117h377v-143h-584v55q0 98 46.5 176t128.5 129l133 80q22 14 35 24t29 25.5t24 34t8 39.5q0 40 -29 66t-74 26q-54 0 -85 -34.5t-33 -81.5
h-181q2 46 21.5 90.5t56 83t97.5 62.5t137 24q123 0 196.5 -62t73.5 -168q0 -39 -11.5 -73.5t-24.5 -55t-37.5 -42t-35.5 -29t-34 -21.5z" />
    <glyph glyph-name="threequarters" unicode="&#xbe;" horiz-adv-x="1884" 
d="M633 1053q64 -23 98.5 -70t34.5 -111q0 -102 -88.5 -169.5t-228.5 -67.5q-141 0 -220.5 68.5t-87.5 185.5h172q22 -111 138 -111q60 0 98.5 29.5t38.5 73.5q0 50 -37.5 77t-99.5 27h-80v127h75q55 0 88 25t33 73q0 44 -32.5 70.5t-85.5 26.5q-46 0 -81.5 -25.5
t-45.5 -69.5h-168q3 102 91.5 167t211.5 65q117 0 200.5 -60t83.5 -161q0 -111 -108 -162v-8zM1610 1434l-1028 -1434h-205l1028 1434h205zM1743 299v-129h-148v-170h-163v170h-388v84l379 534h172v-489h148zM1241 299h191v266h-11z" />
    <glyph glyph-name="questiondown" unicode="&#xbf;" horiz-adv-x="964" 
d="M522 1034q65 0 111.5 -45.5t46.5 -109.5q0 -66 -46.5 -112t-111.5 -46t-110 46t-45 112q0 65 45.5 110t109.5 45zM647 518q0 -117 -37 -203t-145 -163q-94 -69 -127 -112.5t-33 -102.5q0 -67 43 -106.5t117 -39.5q81 0 125.5 46t54.5 124h234q-1 -58 -15 -111.5t-46 -105
t-78 -90t-117 -61.5t-158 -23q-188 0 -295 93.5t-107 258.5q0 60 12.5 107t41 87.5t62 73t87.5 74.5q80 59 114 119t34 152v69h233v-86z" />
    <glyph glyph-name="Agrave" unicode="&#xc0;" horiz-adv-x="1433" 
d="M817 1546h-199l-178 297h222zM1102 0l-117 346h-536l-117 -346h-289l512 1434h326l510 -1434h-289zM522 569h389l-186 553h-16z" />
    <glyph glyph-name="Aacute" unicode="&#xc1;" horiz-adv-x="1433" 
d="M993 1843l-176 -297h-201l156 297h221zM1102 0l-117 346h-536l-117 -346h-289l512 1434h326l510 -1434h-289zM522 569h389l-186 553h-16z" />
    <glyph glyph-name="Acircumflex" unicode="&#xc2;" horiz-adv-x="1433" 
d="M709 1698l-105 -158h-219l221 303h219l222 -303h-220l-104 158h-14zM1102 0l-117 346h-536l-117 -346h-289l512 1434h326l510 -1434h-289zM522 569h389l-186 553h-16z" />
    <glyph glyph-name="Atilde" unicode="&#xc3;" horiz-adv-x="1433" 
d="M590 1642q-78 0 -90 -106h-174q8 123 68.5 204t168.5 81q48 0 87 -13t63 -31.5t44.5 -37.5t43 -32t47.5 -13q42 0 63.5 29.5t24.5 74.5h174q-8 -121 -68.5 -201.5t-167.5 -80.5q-45 0 -83 13t-63 31.5t-46.5 37t-44.5 31.5t-47 13zM1102 0l-117 346h-536l-117 -346h-289
l512 1434h326l510 -1434h-289zM522 569h389l-186 553h-16z" />
    <glyph glyph-name="Adieresis" unicode="&#xc4;" horiz-adv-x="1433" 
d="M477 1544q-66 0 -113 46.5t-47 109.5q0 66 47 112t113 46q62 0 108 -46.5t46 -111.5q0 -63 -46 -109.5t-108 -46.5zM963 1544q-62 0 -108 46.5t-46 109.5q0 65 46 111.5t108 46.5q66 0 111.5 -46t45.5 -112q0 -64 -46 -110t-111 -46zM1102 0l-117 346h-536l-117 -346
h-289l512 1434h326l510 -1434h-289zM522 569h389l-186 553h-16z" />
    <glyph glyph-name="Aring" unicode="&#xc5;" horiz-adv-x="1433" 
d="M715 1503q-85 0 -146 59.5t-61 141.5q0 83 61 143t146 60q86 0 148.5 -60t62.5 -143q0 -82 -62.5 -141.5t-148.5 -59.5zM719 1767q-29 0 -48.5 -18.5t-19.5 -44.5q0 -25 19.5 -44.5t48.5 -19.5q25 0 44 19.5t19 44.5q0 26 -19 44.5t-44 18.5zM1102 0l-117 346h-536
l-117 -346h-289l512 1434h326l510 -1434h-289zM522 569h389l-186 553h-16z" />
    <glyph glyph-name="AE" unicode="&#xc6;" horiz-adv-x="2142" 
d="M1380 236h686v-236h-948v344h-530l-226 -344h-319l932 1434h1071v-236h-666v-356h570v-230h-570v-376zM737 569h381v553h-18z" />
    <glyph glyph-name="Ccedilla" unicode="&#xc7;" horiz-adv-x="1550" 
d="M1464 461q-33 -210 -195 -337t-395 -142l-45 -70q80 3 141.5 -41.5t61.5 -126.5q0 -80 -58 -127t-161 -47q-99 0 -166 49l45 105q63 -37 117 -37q39 0 61.5 17.5t22.5 45.5q0 29 -21.5 46.5t-62.5 17.5q-25 0 -64 -13l-86 68l72 115q-289 26 -457 226t-168 501
q0 215 87.5 384t248.5 264t369 95q250 0 422.5 -128.5t208.5 -360.5h-291q-34 112 -122.5 175.5t-217.5 63.5q-125 0 -223.5 -65t-151.5 -177t-53 -251q0 -214 121.5 -348t306.5 -134q137 0 233 63t130 169h290z" />
    <glyph glyph-name="Egrave" unicode="&#xc8;" horiz-adv-x="1200" 
d="M567 1843l156 -297h-199l-178 297h221zM406 236h716v-236h-981v1434h961v-236h-696v-356h600v-230h-600v-376z" />
    <glyph glyph-name="Eacute" unicode="&#xc9;" horiz-adv-x="1200" 
d="M678 1843h221l-176 -297h-201zM406 236h716v-236h-981v1434h961v-236h-696v-356h600v-230h-600v-376z" />
    <glyph glyph-name="Ecircumflex" unicode="&#xca;" horiz-adv-x="1200" 
d="M510 1540h-219l221 303h219l221 -303h-219l-104 158h-15zM406 236h716v-236h-981v1434h961v-236h-696v-356h600v-230h-600v-376z" />
    <glyph glyph-name="Edieresis" unicode="&#xcb;" horiz-adv-x="1200" 
d="M381 1544q-66 0 -113 46.5t-47 109.5q0 66 47 112t113 46q62 0 108 -46.5t46 -111.5q0 -63 -46 -109.5t-108 -46.5zM866 1544q-62 0 -107.5 46.5t-45.5 109.5q0 65 45.5 111.5t107.5 46.5q66 0 112 -46t46 -112q0 -64 -46 -110t-112 -46zM406 236h716v-236h-981v1434h961
v-236h-696v-356h600v-230h-600v-376z" />
    <glyph glyph-name="Igrave" unicode="&#xcc;" horiz-adv-x="552" 
d="M221 1843l156 -297h-199l-178 297h221zM412 1434v-1434h-271v1434h271z" />
    <glyph glyph-name="Iacute" unicode="&#xcd;" horiz-adv-x="552" 
d="M332 1843h221l-176 -297h-201zM412 1434v-1434h-271v1434h271z" />
    <glyph glyph-name="Icircumflex" unicode="&#xce;" horiz-adv-x="552" 
d="M164 1540h-219l221 303h219l221 -303h-219l-104 158h-15zM412 1434v-1434h-271v1434h271z" />
    <glyph glyph-name="Idieresis" unicode="&#xcf;" horiz-adv-x="552" 
d="M37 1544q-66 0 -113 46.5t-47 109.5q0 66 47 112t113 46q62 0 107.5 -46.5t45.5 -111.5q0 -63 -45.5 -109.5t-107.5 -46.5zM522 1544q-62 0 -107.5 46.5t-45.5 109.5q0 65 45.5 111.5t107.5 46.5q66 0 112 -46t46 -112q0 -64 -46 -110t-112 -46zM412 1434v-1434h-271
v1434h271z" />
    <glyph glyph-name="Eth" unicode="&#xd0;" horiz-adv-x="1447" 
d="M643 1434q327 0 512.5 -191.5t185.5 -525.5q0 -331 -186 -524t-512 -193h-502v616h-227v199h227v619h502zM633 242q110 0 194 36t135.5 101.5t77 152t25.5 193.5q0 216 -107 341.5t-325 125.5h-221v-377h362v-199h-362v-374h221z" />
    <glyph glyph-name="Ntilde" unicode="&#xd1;" horiz-adv-x="1484" 
d="M1135 1798q-8 -121 -68.5 -201.5t-167.5 -80.5q-45 0 -83 13t-63.5 31.5t-47 37t-44.5 31.5t-47 13q-78 0 -90 -106h-174q8 123 69 204t169 81q59 0 104.5 -20t68.5 -43.5t52 -43.5t59 -20q42 0 64 29.5t25 74.5h174zM1079 1434h264v-1434h-276l-645 958h-16v-958h-265
v1434h277l645 -965h16v965z" />
    <glyph glyph-name="Ograve" unicode="&#xd2;" horiz-adv-x="1679" 
d="M784 1843l156 -297h-199l-178 297h221zM840 -20q-208 0 -376 95.5t-263 264.5t-95 377q0 155 55.5 292t152 234.5t233.5 154t293 56.5t292.5 -56.5t233 -154t152 -234.5t55.5 -292q0 -124 -35 -237t-100.5 -203.5t-155 -157.5t-203 -103t-239.5 -36zM842 229
q196 0 325 139t129 349q0 209 -130 348t-326 139t-326.5 -139t-130.5 -348q0 -210 130.5 -349t328.5 -139z" />
    <glyph glyph-name="Oacute" unicode="&#xd3;" horiz-adv-x="1679" 
d="M895 1843h221l-176 -297h-201zM840 -20q-208 0 -376 95.5t-263 264.5t-95 377q0 155 55.5 292t152 234.5t233.5 154t293 56.5t292.5 -56.5t233 -154t152 -234.5t55.5 -292q0 -124 -35 -237t-100.5 -203.5t-155 -157.5t-203 -103t-239.5 -36zM842 229q196 0 325 139
t129 349q0 209 -130 348t-326 139t-326.5 -139t-130.5 -348q0 -210 130.5 -349t328.5 -139z" />
    <glyph glyph-name="Ocircumflex" unicode="&#xd4;" horiz-adv-x="1679" 
d="M727 1540h-219l221 303h219l221 -303h-219l-104 158h-15zM840 -20q-208 0 -376 95.5t-263 264.5t-95 377q0 155 55.5 292t152 234.5t233.5 154t293 56.5t292.5 -56.5t233 -154t152 -234.5t55.5 -292q0 -124 -35 -237t-100.5 -203.5t-155 -157.5t-203 -103t-239.5 -36z
M842 229q196 0 325 139t129 349q0 209 -130 348t-326 139t-326.5 -139t-130.5 -348q0 -210 130.5 -349t328.5 -139z" />
    <glyph glyph-name="Otilde" unicode="&#xd5;" horiz-adv-x="1679" 
d="M1233 1798q-8 -121 -68.5 -201.5t-167.5 -80.5q-45 0 -83 13t-63 31.5t-46.5 37t-44.5 31.5t-47 13q-78 0 -90 -106h-174q8 123 68.5 204t168.5 81q48 0 87 -13t63 -31.5t44.5 -37.5t43 -32t47.5 -13q42 0 63.5 29.5t24.5 74.5h174zM840 -20q-208 0 -376 95.5t-263 264.5
t-95 377q0 155 55.5 292t152 234.5t233.5 154t293 56.5t292.5 -56.5t233 -154t152 -234.5t55.5 -292q0 -124 -35 -237t-100.5 -203.5t-155 -157.5t-203 -103t-239.5 -36zM842 229q196 0 325 139t129 349q0 209 -130 348t-326 139t-326.5 -139t-130.5 -348q0 -210 130.5 -349
t328.5 -139z" />
    <glyph glyph-name="Odieresis" unicode="&#xd6;" horiz-adv-x="1679" 
d="M600 1544q-66 0 -113 46.5t-47 109.5q0 66 47 112t113 46q62 0 108 -46.5t46 -111.5q0 -63 -46 -109.5t-108 -46.5zM1085 1544q-62 0 -107.5 46.5t-45.5 109.5q0 65 45.5 111.5t107.5 46.5q66 0 112 -46t46 -112q0 -64 -46.5 -110t-111.5 -46zM840 -20q-208 0 -376 95.5
t-263 264.5t-95 377q0 155 55.5 292t152 234.5t233.5 154t293 56.5t292.5 -56.5t233 -154t152 -234.5t55.5 -292q0 -124 -35 -237t-100.5 -203.5t-155 -157.5t-203 -103t-239.5 -36zM842 229q196 0 325 139t129 349q0 209 -130 348t-326 139t-326.5 -139t-130.5 -348
q0 -210 130.5 -349t328.5 -139z" />
    <glyph glyph-name="multiply" unicode="&#xd7;" 
d="M1069 877l-317 -304l317 -303l-151 -155l-322 307l-322 -307l-153 155l317 303l-317 304l151 153l324 -307l322 307z" />
    <glyph glyph-name="Oslash" unicode="&#xd8;" horiz-adv-x="1679" 
d="M1364 1245q100 -101 154.5 -236.5t54.5 -291.5q0 -124 -35 -237t-100.5 -203.5t-155 -157.5t-203 -103t-239.5 -36q-200 0 -361 88l-131 -177l-160 119l131 176q-101 100 -157 237t-56 294q0 155 55.5 292t152 234.5t233.5 154t293 56.5q197 0 358 -88l129 174l166 -123z
M371 717q0 -185 102 -324l578 776q-98 50 -211 50q-202 0 -335.5 -143t-133.5 -359zM842 215q202 0 334.5 143t132.5 359q0 181 -101 319l-579 -772q100 -49 213 -49z" />
    <glyph glyph-name="Ugrave" unicode="&#xd9;" horiz-adv-x="1460" 
d="M674 1843l155 -297h-198l-178 297h221zM1319 1434v-879q0 -142 -44.5 -253t-123.5 -181t-185 -105.5t-233 -35.5q-128 0 -234.5 35.5t-187 105.5t-125.5 181t-45 253v879h271v-871q0 -159 88.5 -246.5t232.5 -87.5q143 0 229.5 87.5t86.5 246.5v871h270z" />
    <glyph glyph-name="Uacute" unicode="&#xda;" horiz-adv-x="1460" 
d="M784 1843h222l-177 -297h-200zM1319 1434v-879q0 -142 -44.5 -253t-123.5 -181t-185 -105.5t-233 -35.5q-128 0 -234.5 35.5t-187 105.5t-125.5 181t-45 253v879h271v-871q0 -159 88.5 -246.5t232.5 -87.5q143 0 229.5 87.5t86.5 246.5v871h270z" />
    <glyph glyph-name="Ucircumflex" unicode="&#xdb;" horiz-adv-x="1460" 
d="M616 1540h-219l221 303h220l221 -303h-219l-105 158h-14zM1319 1434v-879q0 -142 -44.5 -253t-123.5 -181t-185 -105.5t-233 -35.5q-128 0 -234.5 35.5t-187 105.5t-125.5 181t-45 253v879h271v-871q0 -159 88.5 -246.5t232.5 -87.5q143 0 229.5 87.5t86.5 246.5v871h270
z" />
    <glyph glyph-name="Udieresis" unicode="&#xdc;" horiz-adv-x="1460" 
d="M489 1544q-66 0 -112.5 46.5t-46.5 109.5q0 66 46.5 112t112.5 46q62 0 108 -46.5t46 -111.5q0 -63 -46 -109.5t-108 -46.5zM975 1544q-62 0 -108 46.5t-46 109.5q0 65 46 111.5t108 46.5q66 0 112 -46t46 -112q0 -64 -46.5 -110t-111.5 -46zM1319 1434v-879
q0 -142 -44.5 -253t-123.5 -181t-185 -105.5t-233 -35.5q-128 0 -234.5 35.5t-187 105.5t-125.5 181t-45 253v879h271v-871q0 -159 88.5 -246.5t232.5 -87.5q143 0 229.5 87.5t86.5 246.5v871h270z" />
    <glyph glyph-name="Yacute" unicode="&#xdd;" horiz-adv-x="1388" 
d="M750 1843h221l-176 -297h-201zM1024 1434h322l-517 -801v-633h-270v633l-516 801h319l324 -506h16z" />
    <glyph glyph-name="Thorn" unicode="&#xde;" horiz-adv-x="1288" 
d="M700 1171q221 0 351.5 -125.5t130.5 -328.5q0 -207 -132.5 -332t-355.5 -125h-291v-260h-262v1434h262v-263h297zM666 498q116 0 177.5 59.5t61.5 161.5q0 99 -62 158t-169 59h-271v-438h263z" />
    <glyph glyph-name="germandbls" unicode="&#xdf;" horiz-adv-x="1175" 
d="M825 762q127 -40 197 -126.5t70 -246.5q0 -199 -110 -304t-310 -105q-87 0 -193 28v197q77 -23 146 -23q104 0 163.5 58t59.5 168q0 231 -266 231h-103v201h78q102 0 161.5 52.5t59.5 147.5q0 90 -52 145.5t-146 55.5t-149.5 -54.5t-55.5 -162.5v-1024h-262v1014
q0 209 119.5 324.5t342.5 115.5q207 0 331 -98.5t124 -270.5q0 -219 -205 -311v-12z" />
    <glyph glyph-name="agrave" unicode="&#xe0;" horiz-adv-x="1120" 
d="M639 1137h-199l-178 297h221zM1061 197h24v-197h-110q-161 0 -207 123q-114 -143 -338 -143q-163 0 -262.5 77t-99.5 224q0 140 93.5 218.5t244.5 92.5l319 33v43q0 82 -47 125t-125 43q-157 0 -184 -154h-263q15 163 134.5 262.5t312.5 99.5q92 0 169.5 -23.5
t137.5 -70.5t93.5 -124t33.5 -177v-375q0 -77 74 -77zM725 395v49l-229 -24q-75 -8 -120.5 -40t-45.5 -89q0 -111 145 -111q45 0 86.5 11.5t79.5 35t61 67t23 101.5z" />
    <glyph glyph-name="aacute" unicode="&#xe1;" horiz-adv-x="1120" 
d="M815 1434l-176 -297h-201l156 297h221zM1061 197h24v-197h-110q-161 0 -207 123q-114 -143 -338 -143q-163 0 -262.5 77t-99.5 224q0 140 93.5 218.5t244.5 92.5l319 33v43q0 82 -47 125t-125 43q-157 0 -184 -154h-263q15 163 134.5 262.5t312.5 99.5q92 0 169.5 -23.5
t137.5 -70.5t93.5 -124t33.5 -177v-375q0 -77 74 -77zM725 395v49l-229 -24q-75 -8 -120.5 -40t-45.5 -89q0 -111 145 -111q45 0 86.5 11.5t79.5 35t61 67t23 101.5z" />
    <glyph glyph-name="acircumflex" unicode="&#xe2;" horiz-adv-x="1120" 
d="M530 1288l-104 -158h-219l221 304h219l221 -304h-219l-104 158h-15zM1061 197h24v-197h-110q-161 0 -207 123q-114 -143 -338 -143q-163 0 -262.5 77t-99.5 224q0 140 93.5 218.5t244.5 92.5l319 33v43q0 82 -47 125t-125 43q-157 0 -184 -154h-263q15 163 134.5 262.5
t312.5 99.5q92 0 169.5 -23.5t137.5 -70.5t93.5 -124t33.5 -177v-375q0 -77 74 -77zM725 395v49l-229 -24q-75 -8 -120.5 -40t-45.5 -89q0 -111 145 -111q45 0 86.5 11.5t79.5 35t61 67t23 101.5z" />
    <glyph glyph-name="atilde" unicode="&#xe3;" horiz-adv-x="1120" 
d="M412 1233q-78 0 -90 -107h-175q8 123 69 204t169 81q48 0 87 -13t63 -31.5t44.5 -37.5t43 -32t47.5 -13q42 0 63.5 30t24.5 75h174q-8 -121 -68.5 -202t-167.5 -81q-55 0 -100.5 20t-70 43.5t-54.5 43.5t-59 20zM1061 197h24v-197h-110q-161 0 -207 123
q-114 -143 -338 -143q-163 0 -262.5 77t-99.5 224q0 140 93.5 218.5t244.5 92.5l319 33v43q0 82 -47 125t-125 43q-157 0 -184 -154h-263q15 163 134.5 262.5t312.5 99.5q92 0 169.5 -23.5t137.5 -70.5t93.5 -124t33.5 -177v-375q0 -77 74 -77zM725 395v49l-229 -24
q-75 -8 -120.5 -40t-45.5 -89q0 -111 145 -111q45 0 86.5 11.5t79.5 35t61 67t23 101.5z" />
    <glyph glyph-name="adieresis" unicode="&#xe4;" horiz-adv-x="1120" 
d="M336 1116q-58 0 -100.5 42.5t-42.5 101.5t42 99t101 40t100 -40t41 -99t-41.5 -101.5t-99.5 -42.5zM743 1116q-57 0 -99 43t-42 101q0 59 41.5 99t99.5 40q60 0 101 -39.5t41 -99.5q0 -59 -41.5 -101.5t-100.5 -42.5zM1061 197h24v-197h-110q-161 0 -207 123
q-114 -143 -338 -143q-163 0 -262.5 77t-99.5 224q0 140 93.5 218.5t244.5 92.5l319 33v43q0 82 -47 125t-125 43q-157 0 -184 -154h-263q15 163 134.5 262.5t312.5 99.5q92 0 169.5 -23.5t137.5 -70.5t93.5 -124t33.5 -177v-375q0 -77 74 -77zM725 395v49l-229 -24
q-75 -8 -120.5 -40t-45.5 -89q0 -111 145 -111q45 0 86.5 11.5t79.5 35t61 67t23 101.5z" />
    <glyph glyph-name="aring" unicode="&#xe5;" horiz-adv-x="1120" 
d="M537 1094q-85 0 -146 59t-61 141q0 83 61 143t146 60q86 0 148.5 -60t62.5 -143q0 -82 -62.5 -141t-148.5 -59zM541 1358q-29 0 -48.5 -18.5t-19.5 -45.5q0 -25 19.5 -44t48.5 -19q25 0 44 19t19 44q0 26 -19 45t-44 19zM1061 197h24v-197h-110q-161 0 -207 123
q-114 -143 -338 -143q-163 0 -262.5 77t-99.5 224q0 140 93.5 218.5t244.5 92.5l319 33v43q0 82 -47 125t-125 43q-157 0 -184 -154h-263q15 163 134.5 262.5t312.5 99.5q92 0 169.5 -23.5t137.5 -70.5t93.5 -124t33.5 -177v-375q0 -77 74 -77zM725 395v49l-229 -24
q-75 -8 -120.5 -40t-45.5 -89q0 -111 145 -111q45 0 86.5 11.5t79.5 35t61 67t23 101.5z" />
    <glyph glyph-name="ae" unicode="&#xe6;" horiz-adv-x="1548" 
d="M1225 324h235q-11 -115 -67.5 -194t-139.5 -114.5t-188 -35.5q-224 0 -320 149q-89 -149 -337 -149q-157 0 -248.5 74t-91.5 214q0 169 119.5 257.5t332.5 88.5h107v76q0 72 -36.5 112t-105.5 40q-72 0 -111 -37.5t-42 -108.5l-250 9q9 161 113.5 250t277.5 89
q199 0 297 -131q102 131 291 131q62 0 117 -15.5t107 -53.5t89 -96t59.5 -150t22.5 -209q0 -53 -2 -86h-567q5 -256 174 -256q146 0 164 146zM1057 846q-74 0 -120 -57t-50 -175h327q0 123 -43.5 177.5t-113.5 54.5zM449 178q33 0 62 8t56.5 26t43.5 52.5t16 81.5v88h-103
q-211 0 -211 -139q0 -58 37.5 -87.5t98.5 -29.5z" />
    <glyph glyph-name="ccedilla" unicode="&#xe7;" horiz-adv-x="1183" 
d="M1116 354q-25 -159 -143.5 -258.5t-298.5 -113.5l-45 -70q80 3 141 -41t61 -127q0 -80 -58 -127t-161 -47q-99 0 -166 49l46 105q63 -37 116 -37q39 0 61.5 17.5t22.5 45.5q0 29 -21.5 46.5t-62.5 17.5q-24 0 -63 -13l-86 68l71 117q-201 28 -323.5 170.5t-122.5 351.5
q0 158 70.5 281t191.5 189t270 66q91 0 173.5 -24.5t151 -72t114 -124.5t57.5 -174h-262q-18 73 -81 120.5t-153 47.5q-118 0 -194 -86.5t-76 -222.5t75 -218.5t200 -82.5q179 0 231 147h264z" />
    <glyph glyph-name="egrave" unicode="&#xe8;" horiz-adv-x="1177" 
d="M700 1137h-198l-178 297h221zM836 324h251q-31 -160 -157.5 -252t-319.5 -92q-231 0 -378.5 144t-147.5 378q0 124 41 227t111 171.5t164 106t200 37.5q97 0 182.5 -31.5t154 -93t108.5 -165t40 -236.5q0 -18 -4 -76h-737q8 -113 78.5 -183.5t187.5 -70.5q87 0 145.5 35
t80.5 101zM600 836q-103 0 -171.5 -61.5t-82.5 -156.5h490q-5 96 -70 157t-166 61z" />
    <glyph glyph-name="eacute" unicode="&#xe9;" horiz-adv-x="1177" 
d="M877 1434l-177 -297h-200l155 297h222zM836 324h251q-31 -160 -157.5 -252t-319.5 -92q-231 0 -378.5 144t-147.5 378q0 124 41 227t111 171.5t164 106t200 37.5q97 0 182.5 -31.5t154 -93t108.5 -165t40 -236.5q0 -18 -4 -76h-737q8 -113 78.5 -183.5t187.5 -70.5
q87 0 145.5 35t80.5 101zM600 836q-103 0 -171.5 -61.5t-82.5 -156.5h490q-5 96 -70 157t-166 61z" />
    <glyph glyph-name="ecircumflex" unicode="&#xea;" horiz-adv-x="1177" 
d="M592 1288l-105 -158h-219l221 304h220l221 -304h-219l-105 158h-14zM836 324h251q-31 -160 -157.5 -252t-319.5 -92q-231 0 -378.5 144t-147.5 378q0 124 41 227t111 171.5t164 106t200 37.5q97 0 182.5 -31.5t154 -93t108.5 -165t40 -236.5q0 -18 -4 -76h-737
q8 -113 78.5 -183.5t187.5 -70.5q87 0 145.5 35t80.5 101zM600 836q-103 0 -171.5 -61.5t-82.5 -156.5h490q-5 96 -70 157t-166 61z" />
    <glyph glyph-name="edieresis" unicode="&#xeb;" horiz-adv-x="1177" 
d="M397 1116q-58 0 -100.5 42.5t-42.5 101.5t42 99t101 40t100.5 -40t41.5 -99t-42 -101.5t-100 -42.5zM805 1116q-57 0 -99 43t-42 101q0 59 41.5 99t99.5 40q60 0 100.5 -39.5t40.5 -99.5q0 -59 -41 -101.5t-100 -42.5zM836 324h251q-31 -160 -157.5 -252t-319.5 -92
q-231 0 -378.5 144t-147.5 378q0 124 41 227t111 171.5t164 106t200 37.5q97 0 182.5 -31.5t154 -93t108.5 -165t40 -236.5q0 -18 -4 -76h-737q8 -113 78.5 -183.5t187.5 -70.5q87 0 145.5 35t80.5 101zM600 836q-103 0 -171.5 -61.5t-82.5 -156.5h490q-5 96 -70 157
t-166 61z" />
    <glyph glyph-name="igrave" unicode="&#xec;" horiz-adv-x="487" 
d="M188 1434l156 -297h-199l-178 297h221zM113 0v1024h262v-1024h-262z" />
    <glyph glyph-name="iacute" unicode="&#xed;" horiz-adv-x="487" 
d="M299 1434h221l-176 -297h-201zM113 0v1024h262v-1024h-262z" />
    <glyph glyph-name="icircumflex" unicode="&#xee;" horiz-adv-x="487" 
d="M131 1130h-219l221 304h219l221 -304h-219l-104 158h-14zM113 0v1024h262v-1024h-262z" />
    <glyph glyph-name="idieresis" unicode="&#xef;" horiz-adv-x="487" 
d="M41 1116q-58 0 -100.5 42.5t-42.5 101.5t42 99t101 40t100 -40t41 -99t-41.5 -101.5t-99.5 -42.5zM449 1116q-57 0 -99.5 43t-42.5 101q0 59 42 99t100 40q60 0 100.5 -39.5t40.5 -99.5q0 -59 -41 -101.5t-100 -42.5zM113 0v1024h262v-1024h-262z" />
    <glyph glyph-name="eth" unicode="&#xf0;" horiz-adv-x="1234" 
d="M897 1188q231 -293 231 -639q0 -276 -145.5 -422.5t-386.5 -146.5q-217 0 -364.5 138t-147.5 353q0 203 132 337t341 134q87 0 163 -31t120 -80h16q-49 149 -168 295l-323 -92l-39 137l256 72q-90 94 -220 191h291q76 -63 142 -129l211 59l36 -135zM598 197
q121 0 197.5 77.5t76.5 194.5q0 114 -78.5 185t-199.5 71q-120 0 -195 -72.5t-75 -189.5q0 -115 77.5 -190.5t196.5 -75.5z" />
    <glyph glyph-name="ntilde" unicode="&#xf1;" horiz-adv-x="1204" 
d="M995 1389q-8 -121 -68.5 -202t-166.5 -81q-55 0 -101 20t-70.5 43.5t-54.5 43.5t-59 20q-78 0 -90 -107h-174q8 123 69 204t169 81q59 0 104.5 -20t68.5 -43.5t52 -43.5t59 -20q42 0 63.5 30t24.5 75h174zM113 0v1024h239l23 -121h16q51 67 122 104t179 37
q185 0 292.5 -112t107.5 -311v-621h-263v567q0 121 -61 185.5t-158 64.5q-101 0 -168 -66.5t-67 -195.5v-555h-262z" />
    <glyph glyph-name="ograve" unicode="&#xf2;" horiz-adv-x="1251" 
d="M571 1434l156 -297h-199l-178 297h221zM625 -20q-151 0 -274.5 67t-195 190t-71.5 277q0 155 71 276.5t194 187.5t276 66q152 0 275 -66.5t194 -188t71 -275.5q0 -156 -70.5 -278t-193.5 -189t-276 -67zM625 207q125 0 202.5 87.5t77.5 219.5q0 130 -78 216.5t-202 86.5
t-201.5 -86.5t-77.5 -216.5q0 -131 77.5 -219t201.5 -88z" />
    <glyph glyph-name="oacute" unicode="&#xf3;" horiz-adv-x="1251" 
d="M682 1434h221l-176 -297h-201zM625 -20q-151 0 -274.5 67t-195 190t-71.5 277q0 155 71 276.5t194 187.5t276 66q152 0 275 -66.5t194 -188t71 -275.5q0 -156 -70.5 -278t-193.5 -189t-276 -67zM625 207q125 0 202.5 87.5t77.5 219.5q0 130 -78 216.5t-202 86.5
t-201.5 -86.5t-77.5 -216.5q0 -131 77.5 -219t201.5 -88z" />
    <glyph glyph-name="ocircumflex" unicode="&#xf4;" horiz-adv-x="1251" 
d="M514 1130h-219l221 304h219l221 -304h-219l-104 158h-15zM625 -20q-151 0 -274.5 67t-195 190t-71.5 277q0 155 71 276.5t194 187.5t276 66q152 0 275 -66.5t194 -188t71 -275.5q0 -156 -70.5 -278t-193.5 -189t-276 -67zM625 207q125 0 202.5 87.5t77.5 219.5
q0 130 -78 216.5t-202 86.5t-201.5 -86.5t-77.5 -216.5q0 -131 77.5 -219t201.5 -88z" />
    <glyph glyph-name="otilde" unicode="&#xf5;" horiz-adv-x="1251" 
d="M1018 1389q-8 -121 -68.5 -202t-167.5 -81q-55 0 -100.5 20t-70 43.5t-54.5 43.5t-59 20q-78 0 -90 -107h-175q8 123 69 204t169 81q48 0 87 -13t63 -31.5t44.5 -37.5t43 -32t47.5 -13q42 0 63.5 30t24.5 75h174zM625 -20q-151 0 -274.5 67t-195 190t-71.5 277
q0 155 71 276.5t194 187.5t276 66q152 0 275 -66.5t194 -188t71 -275.5q0 -156 -70.5 -278t-193.5 -189t-276 -67zM625 207q125 0 202.5 87.5t77.5 219.5q0 130 -78 216.5t-202 86.5t-201.5 -86.5t-77.5 -216.5q0 -131 77.5 -219t201.5 -88z" />
    <glyph glyph-name="odieresis" unicode="&#xf6;" horiz-adv-x="1251" 
d="M424 1116q-58 0 -100.5 42.5t-42.5 101.5t42 99t101 40t100 -40t41 -99t-41.5 -101.5t-99.5 -42.5zM831 1116q-57 0 -99 43t-42 101q0 59 41.5 99t99.5 40q60 0 101 -39.5t41 -99.5q0 -59 -41.5 -101.5t-100.5 -42.5zM625 -20q-151 0 -274.5 67t-195 190t-71.5 277
q0 155 71 276.5t194 187.5t276 66q152 0 275 -66.5t194 -188t71 -275.5q0 -156 -70.5 -278t-193.5 -189t-276 -67zM625 207q125 0 202.5 87.5t77.5 219.5q0 130 -78 216.5t-202 86.5t-201.5 -86.5t-77.5 -216.5q0 -131 77.5 -219t201.5 -88z" />
    <glyph glyph-name="divide" unicode="&#xf7;" 
d="M596 782q-65 0 -111.5 46t-46.5 110t46.5 110t111.5 46q64 0 110 -46t46 -110t-46 -110t-110 -46zM102 682h985v-217h-985v217zM596 43q-64 0 -111 46.5t-47 109.5q0 66 46.5 111.5t111.5 45.5t110.5 -45.5t45.5 -111.5q0 -63 -46 -109.5t-110 -46.5z" />
    <glyph glyph-name="oslash" unicode="&#xf8;" horiz-adv-x="1251" 
d="M1022 887q143 -149 143 -373q0 -156 -70.5 -278t-193.5 -189t-276 -67q-133 0 -252 55l-105 -137l-143 100l106 139q-147 150 -147 377q0 155 71 276.5t194 187.5t276 66q140 0 254 -57l104 137l143 -100zM332 514q0 -105 47 -182l362 475q-55 22 -116 22
q-130 0 -211.5 -89.5t-81.5 -225.5zM625 195q130 0 211.5 91.5t81.5 227.5q0 98 -46 176l-360 -473q52 -22 113 -22z" />
    <glyph glyph-name="ugrave" unicode="&#xf9;" horiz-adv-x="1204" 
d="M547 1434l155 -297h-198l-178 297h221zM1092 1024v-1024h-240l-23 121h-16q-51 -67 -122 -104t-179 -37q-185 0 -292 112t-107 311v621h262v-567q0 -121 61.5 -185.5t159.5 -64.5q100 0 166.5 66.5t66.5 195.5v555h263z" />
    <glyph glyph-name="uacute" unicode="&#xfa;" horiz-adv-x="1204" 
d="M657 1434h222l-177 -297h-200zM1092 1024v-1024h-240l-23 121h-16q-51 -67 -122 -104t-179 -37q-185 0 -292 112t-107 311v621h262v-567q0 -121 61.5 -185.5t159.5 -64.5q100 0 166.5 66.5t66.5 195.5v555h263z" />
    <glyph glyph-name="ucircumflex" unicode="&#xfb;" horiz-adv-x="1204" 
d="M489 1130h-219l222 304h219l221 -304h-219l-105 158h-14zM1092 1024v-1024h-240l-23 121h-16q-51 -67 -122 -104t-179 -37q-185 0 -292 112t-107 311v621h262v-567q0 -121 61.5 -185.5t159.5 -64.5q100 0 166.5 66.5t66.5 195.5v555h263z" />
    <glyph glyph-name="udieresis" unicode="&#xfc;" horiz-adv-x="1204" 
d="M399 1116q-58 0 -100.5 42.5t-42.5 101.5t42 99t101 40t100.5 -40t41.5 -99t-42 -101.5t-100 -42.5zM807 1116q-57 0 -99 43t-42 101q0 59 41.5 99t99.5 40q60 0 100.5 -39.5t40.5 -99.5q0 -59 -41 -101.5t-100 -42.5zM1092 1024v-1024h-240l-23 121h-16
q-51 -67 -122 -104t-179 -37q-185 0 -292 112t-107 311v621h262v-567q0 -121 61.5 -185.5t159.5 -64.5q100 0 166.5 66.5t66.5 195.5v555h263z" />
    <glyph glyph-name="yacute" unicode="&#xfd;" horiz-adv-x="1165" 
d="M639 1434h221l-176 -297h-201zM307 -430q-80 0 -166 22v195q59 -12 107 -12q170 0 225 137l35 88h-82l-391 1024h270l279 -756h16l260 756h270l-413 -1151q-9 -26 -17 -45.5t-25.5 -53.5t-37.5 -59t-53 -54t-70.5 -47.5t-91 -31t-115.5 -12.5z" />
    <glyph glyph-name="thorn" unicode="&#xfe;" horiz-adv-x="1239" 
d="M672 1044q209 0 345 -146.5t136 -387.5q0 -244 -137 -387t-344 -143q-182 0 -297 124v-514h-262v1864h235v-551h19q44 59 120 100t185 41zM631 207q117 0 188.5 84t71.5 219q0 138 -71.5 222.5t-188.5 84.5t-186.5 -84t-69.5 -223q0 -136 70 -219.5t186 -83.5z" />
    <glyph glyph-name="ydieresis" unicode="&#xff;" horiz-adv-x="1165" 
d="M381 1116q-58 0 -100.5 42.5t-42.5 101.5t42 99t101 40t100 -40t41 -99t-41.5 -101.5t-99.5 -42.5zM788 1116q-57 0 -99 43t-42 101q0 59 41.5 99t99.5 40q60 0 101 -39.5t41 -99.5q0 -59 -41.5 -101.5t-100.5 -42.5zM307 -430q-80 0 -166 22v195q59 -12 107 -12
q170 0 225 137l35 88h-82l-391 1024h270l279 -756h16l260 756h270l-413 -1151q-9 -26 -17 -45.5t-25.5 -53.5t-37.5 -59t-53 -54t-70.5 -47.5t-91 -31t-115.5 -12.5z" />
    <glyph glyph-name="Amacron" unicode="&#x100;" horiz-adv-x="1433" 
d="M1057 1753v-178h-678v178h678zM1102 0l-117 346h-536l-117 -346h-289l512 1434h326l510 -1434h-289zM522 569h389l-186 553h-16z" />
    <glyph glyph-name="amacron" unicode="&#x101;" horiz-adv-x="1120" 
d="M879 1343v-178h-678v178h678zM1061 197h24v-197h-110q-161 0 -207 123q-114 -143 -338 -143q-163 0 -262.5 77t-99.5 224q0 140 93.5 218.5t244.5 92.5l319 33v43q0 82 -47 125t-125 43q-157 0 -184 -154h-263q15 163 134.5 262.5t312.5 99.5q92 0 169.5 -23.5
t137.5 -70.5t93.5 -124t33.5 -177v-375q0 -77 74 -77zM725 395v49l-229 -24q-75 -8 -120.5 -40t-45.5 -89q0 -111 145 -111q45 0 86.5 11.5t79.5 35t61 67t23 101.5z" />
    <glyph glyph-name="Abreve" unicode="&#x102;" horiz-adv-x="1433" 
d="M717 1571q-127 0 -215 79t-88 193h194q0 -49 30 -84t81 -35q49 0 76.5 34.5t27.5 84.5h193q0 -114 -86 -193t-213 -79zM1102 0l-117 346h-536l-117 -346h-289l512 1434h326l510 -1434h-289zM522 569h389l-186 553h-16z" />
    <glyph glyph-name="abreve" unicode="&#x103;" horiz-adv-x="1120" 
d="M539 1161q-127 0 -215 79.5t-88 193.5h194q0 -49 30 -84t81 -35q49 0 76.5 34.5t27.5 84.5h193q0 -115 -86 -194t-213 -79zM1061 197h24v-197h-110q-161 0 -207 123q-114 -143 -338 -143q-163 0 -262.5 77t-99.5 224q0 140 93.5 218.5t244.5 92.5l319 33v43q0 82 -47 125
t-125 43q-157 0 -184 -154h-263q15 163 134.5 262.5t312.5 99.5q92 0 169.5 -23.5t137.5 -70.5t93.5 -124t33.5 -177v-375q0 -77 74 -77zM725 395v49l-229 -24q-75 -8 -120.5 -40t-45.5 -89q0 -111 145 -111q45 0 86.5 11.5t79.5 35t61 67t23 101.5z" />
    <glyph glyph-name="Aogonek" unicode="&#x104;" horiz-adv-x="1433" 
d="M1370 -217q48 0 94 12v-143q-56 -17 -123 -17q-115 0 -182 49.5t-67 141.5q0 103 114 174h-104l-117 346h-536l-117 -346h-289l512 1434h326l510 -1434q-138 -43 -138 -135q0 -82 117 -82zM522 569h389l-186 553h-16z" />
    <glyph glyph-name="aogonek" unicode="&#x105;" horiz-adv-x="1120" 
d="M1065 -217q47 0 94 12v-143q-56 -17 -123 -17q-115 0 -182.5 49.5t-67.5 141.5q0 110 125 180q-105 16 -143 117q-114 -143 -338 -143q-163 0 -262.5 77t-99.5 224q0 140 93.5 218.5t244.5 92.5l319 33v43q0 82 -47 125t-125 43q-157 0 -184 -154h-263
q15 163 134.5 262.5t312.5 99.5q92 0 169.5 -23.5t137.5 -70.5t93.5 -124t33.5 -177v-375q0 -77 74 -77h24v-197q-137 -43 -137 -135q0 -82 117 -82zM725 395v49l-229 -24q-75 -8 -120.5 -40t-45.5 -89q0 -111 145 -111q45 0 86.5 11.5t79.5 35t61 67t23 101.5z" />
    <glyph glyph-name="Cacute" unicode="&#x106;" horiz-adv-x="1550" 
d="M870 1843h222l-177 -297h-200zM1464 461q-23 -150 -116 -260t-231.5 -165.5t-305.5 -55.5q-215 0 -376 95t-245 260t-84 376q0 215 87.5 384t248.5 264t369 95q250 0 422.5 -128.5t208.5 -360.5h-291q-34 112 -122.5 175.5t-217.5 63.5q-125 0 -223.5 -65t-151.5 -177
t-53 -251q0 -214 121.5 -348t306.5 -134q137 0 233 63t130 169h290z" />
    <glyph glyph-name="cacute" unicode="&#x107;" horiz-adv-x="1183" 
d="M670 1434h221l-176 -297h-201zM621 -20q-238 0 -387.5 147.5t-149.5 380.5q0 158 70.5 281t191.5 189t270 66q91 0 173.5 -24.5t151 -72t114 -124.5t57.5 -174h-262q-18 73 -81 120.5t-153 47.5q-118 0 -194 -86.5t-76 -222.5t75 -218.5t200 -82.5q179 0 231 147h264
q-26 -171 -160.5 -272.5t-334.5 -101.5z" />
    <glyph glyph-name="Ccircumflex" unicode="&#x108;" horiz-adv-x="1550" 
d="M702 1540h-219l222 303h219l221 -303h-219l-105 158h-14zM1464 461q-23 -150 -116 -260t-231.5 -165.5t-305.5 -55.5q-215 0 -376 95t-245 260t-84 376q0 215 87.5 384t248.5 264t369 95q250 0 422.5 -128.5t208.5 -360.5h-291q-34 112 -122.5 175.5t-217.5 63.5
q-125 0 -223.5 -65t-151.5 -177t-53 -251q0 -214 121.5 -348t306.5 -134q137 0 233 63t130 169h290z" />
    <glyph glyph-name="ccircumflex" unicode="&#x109;" horiz-adv-x="1183" 
d="M502 1130h-219l221 304h219l221 -304h-219l-104 158h-15zM621 -20q-238 0 -387.5 147.5t-149.5 380.5q0 158 70.5 281t191.5 189t270 66q91 0 173.5 -24.5t151 -72t114 -124.5t57.5 -174h-262q-18 73 -81 120.5t-153 47.5q-118 0 -194 -86.5t-76 -222.5t75 -218.5
t200 -82.5q179 0 231 147h264q-26 -171 -160.5 -272.5t-334.5 -101.5z" />
    <glyph glyph-name="Cdotaccent" unicode="&#x10a;" horiz-adv-x="1550" 
d="M815 1565q-65 0 -113.5 47t-48.5 110q0 67 48.5 113.5t113.5 46.5t111.5 -46.5t46.5 -113.5q0 -63 -47 -110t-111 -47zM1464 461q-23 -150 -116 -260t-231.5 -165.5t-305.5 -55.5q-215 0 -376 95t-245 260t-84 376q0 215 87.5 384t248.5 264t369 95q250 0 422.5 -128.5
t208.5 -360.5h-291q-34 112 -122.5 175.5t-217.5 63.5q-125 0 -223.5 -65t-151.5 -177t-53 -251q0 -214 121.5 -348t306.5 -134q137 0 233 63t130 169h290z" />
    <glyph glyph-name="cdotaccent" unicode="&#x10b;" horiz-adv-x="1183" 
d="M614 1155q-64 0 -112.5 47.5t-48.5 110.5q0 67 48 113.5t113 46.5t111.5 -46.5t46.5 -113.5q0 -63 -47 -110.5t-111 -47.5zM621 -20q-238 0 -387.5 147.5t-149.5 380.5q0 158 70.5 281t191.5 189t270 66q91 0 173.5 -24.5t151 -72t114 -124.5t57.5 -174h-262
q-18 73 -81 120.5t-153 47.5q-118 0 -194 -86.5t-76 -222.5t75 -218.5t200 -82.5q179 0 231 147h264q-26 -171 -160.5 -272.5t-334.5 -101.5z" />
    <glyph glyph-name="Ccaron" unicode="&#x10c;" horiz-adv-x="1550" 
d="M926 1843h219l-221 -303h-219l-222 303h219l105 -157h16zM1464 461q-23 -150 -116 -260t-231.5 -165.5t-305.5 -55.5q-215 0 -376 95t-245 260t-84 376q0 215 87.5 384t248.5 264t369 95q250 0 422.5 -128.5t208.5 -360.5h-291q-34 112 -122.5 175.5t-217.5 63.5
q-125 0 -223.5 -65t-151.5 -177t-53 -251q0 -214 121.5 -348t306.5 -134q137 0 233 63t130 169h290z" />
    <glyph glyph-name="ccaron" unicode="&#x10d;" horiz-adv-x="1183" 
d="M725 1434h219l-221 -304h-219l-221 304h219l104 -158h17zM621 -20q-238 0 -387.5 147.5t-149.5 380.5q0 158 70.5 281t191.5 189t270 66q91 0 173.5 -24.5t151 -72t114 -124.5t57.5 -174h-262q-18 73 -81 120.5t-153 47.5q-118 0 -194 -86.5t-76 -222.5t75 -218.5
t200 -82.5q179 0 231 147h264q-26 -171 -160.5 -272.5t-334.5 -101.5z" />
    <glyph glyph-name="Dcaron" unicode="&#x10e;" horiz-adv-x="1447" 
d="M817 1843h219l-221 -303h-219l-221 303h219l104 -157h17zM643 1434q327 0 512.5 -191.5t185.5 -525.5q0 -331 -186 -524t-512 -193h-502v1434h502zM633 242q110 0 194 36t135.5 101.5t77 152t25.5 193.5q0 216 -107 341.5t-325 125.5h-221v-950h221z" />
    <glyph glyph-name="dcaron" unicode="&#x10f;" horiz-adv-x="1239" 
d="M864 928v526h262v-1454h-213l-22 121h-19q-44 -59 -120 -100t-185 -41q-209 0 -345 146.5t-136 387.5q0 244 137 387t344 143q98 0 175 -33t122 -83zM1450 1448q71 0 112.5 -57t41.5 -146q0 -70 -21 -133t-56.5 -110t-73.5 -81.5t-81 -60.5l-61 76q123 104 129 213
q-51 -7 -94 33t-43 112q0 71 41.5 112.5t105.5 41.5zM608 207q117 0 186.5 84t69.5 223q0 136 -70 219.5t-186 83.5q-117 0 -188.5 -84t-71.5 -219q0 -138 71.5 -222.5t188.5 -84.5z" />
    <glyph glyph-name="Dcroat" unicode="&#x110;" horiz-adv-x="1447" 
d="M643 1434q327 0 512.5 -191.5t185.5 -525.5q0 -331 -186 -524t-512 -193h-502v616h-227v199h227v619h502zM633 242q110 0 194 36t135.5 101.5t77 152t25.5 193.5q0 216 -107 341.5t-325 125.5h-221v-377h362v-199h-362v-374h221z" />
    <glyph glyph-name="dcroat" unicode="&#x111;" horiz-adv-x="1239" 
d="M1343 1325v-188h-217v-1137h-213l-22 121h-19q-44 -59 -120 -100t-185 -41q-209 0 -345 146.5t-136 387.5q0 244 137 387t344 143q98 0 175 -33t122 -83v209h-260v188h260v129h262v-129h217zM608 207q117 0 186.5 84t69.5 223q0 136 -70 219.5t-186 83.5
q-117 0 -188.5 -84t-71.5 -219q0 -138 71.5 -222.5t188.5 -84.5z" />
    <glyph glyph-name="Emacron" unicode="&#x112;" horiz-adv-x="1200" 
d="M285 1753h678v-178h-678v178zM406 236h716v-236h-981v1434h961v-236h-696v-356h600v-230h-600v-376z" />
    <glyph glyph-name="emacron" unicode="&#x113;" horiz-adv-x="1177" 
d="M940 1343v-178h-678v178h678zM836 324h251q-31 -160 -157.5 -252t-319.5 -92q-231 0 -378.5 144t-147.5 378q0 124 41 227t111 171.5t164 106t200 37.5q97 0 182.5 -31.5t154 -93t108.5 -165t40 -236.5q0 -18 -4 -76h-737q8 -113 78.5 -183.5t187.5 -70.5q87 0 145.5 35
t80.5 101zM600 836q-103 0 -171.5 -61.5t-82.5 -156.5h490q-5 96 -70 157t-166 61z" />
    <glyph glyph-name="Ebreve" unicode="&#x114;" horiz-adv-x="1200" 
d="M922 1843q0 -114 -86 -193t-213 -79t-215.5 79t-88.5 193h195q0 -49 30 -84t81 -35q49 0 76.5 34.5t27.5 84.5h193zM406 236h716v-236h-981v1434h961v-236h-696v-356h600v-230h-600v-376z" />
    <glyph glyph-name="ebreve" unicode="&#x115;" horiz-adv-x="1177" 
d="M598 1161q-127 0 -215 79.5t-88 193.5h194q0 -49 30 -84t81 -35q49 0 77 34.5t28 84.5h192q0 -115 -86 -194t-213 -79zM836 324h251q-31 -160 -157.5 -252t-319.5 -92q-231 0 -378.5 144t-147.5 378q0 124 41 227t111 171.5t164 106t200 37.5q97 0 182.5 -31.5t154 -93
t108.5 -165t40 -236.5q0 -18 -4 -76h-737q8 -113 78.5 -183.5t187.5 -70.5q87 0 145.5 35t80.5 101zM600 836q-103 0 -171.5 -61.5t-82.5 -156.5h490q-5 96 -70 157t-166 61z" />
    <glyph glyph-name="Edotaccent" unicode="&#x116;" horiz-adv-x="1200" 
d="M623 1565q-65 0 -113.5 47t-48.5 110q0 67 48.5 113.5t113.5 46.5t111 -46.5t46 -113.5q0 -63 -46.5 -110t-110.5 -47zM406 236h716v-236h-981v1434h961v-236h-696v-356h600v-230h-600v-376z" />
    <glyph glyph-name="edotaccent" unicode="&#x117;" horiz-adv-x="1177" 
d="M600 1155q-65 0 -113.5 47.5t-48.5 110.5q0 67 48.5 113.5t113.5 46.5t111.5 -46.5t46.5 -113.5q0 -63 -47 -110.5t-111 -47.5zM836 324h251q-31 -160 -157.5 -252t-319.5 -92q-231 0 -378.5 144t-147.5 378q0 124 41 227t111 171.5t164 106t200 37.5q97 0 182.5 -31.5
t154 -93t108.5 -165t40 -236.5q0 -18 -4 -76h-737q8 -113 78.5 -183.5t187.5 -70.5q87 0 145.5 35t80.5 101zM600 836q-103 0 -171.5 -61.5t-82.5 -156.5h490q-5 96 -70 157t-166 61z" />
    <glyph glyph-name="Eogonek" unicode="&#x118;" horiz-adv-x="1200" 
d="M1102 -217q48 0 94 12v-143q-56 -17 -123 -17q-115 0 -182.5 49.5t-67.5 141.5q0 103 115 174h-797v1434h961v-236h-696v-356h600v-230h-600v-376h716v-236q-137 -43 -137 -135q0 -82 117 -82z" />
    <glyph glyph-name="eogonek" unicode="&#x119;" horiz-adv-x="1177" 
d="M760 -4q-125 -41 -125 -131q0 -82 117 -82q48 0 94 12v-143q-56 -17 -123 -17q-115 0 -182.5 49.5t-67.5 141.5q0 91 86 156q-212 17 -343.5 158.5t-131.5 361.5q0 124 41 227t111 171.5t164 106t200 37.5q97 0 182.5 -31.5t154 -93t108.5 -165t40 -236.5q0 -18 -4 -76
h-737q8 -113 78.5 -183.5t187.5 -70.5q87 0 145.5 35t80.5 101h251q-25 -126 -110 -211.5t-217 -116.5zM600 836q-103 0 -171.5 -61.5t-82.5 -156.5h490q-5 96 -70 157t-166 61z" />
    <glyph glyph-name="Ecaron" unicode="&#x11a;" horiz-adv-x="1200" 
d="M735 1843h219l-221 -303h-219l-221 303h219l104 -157h17zM406 236h716v-236h-981v1434h961v-236h-696v-356h600v-230h-600v-376z" />
    <glyph glyph-name="ecaron" unicode="&#x11b;" horiz-adv-x="1177" 
d="M709 1130h-220l-221 304h219l105 -158h16l103 158h219zM836 324h251q-31 -160 -157.5 -252t-319.5 -92q-231 0 -378.5 144t-147.5 378q0 124 41 227t111 171.5t164 106t200 37.5q97 0 182.5 -31.5t154 -93t108.5 -165t40 -236.5q0 -18 -4 -76h-737q8 -113 78.5 -183.5
t187.5 -70.5q87 0 145.5 35t80.5 101zM600 836q-103 0 -171.5 -61.5t-82.5 -156.5h490q-5 96 -70 157t-166 61z" />
    <glyph glyph-name="Gcircumflex" unicode="&#x11c;" horiz-adv-x="1611" 
d="M692 1540h-219l221 303h219l222 -303h-220l-104 158h-14zM821 778h649v-778h-215l-26 137h-17q-25 -25 -59.5 -49t-87 -50t-126 -42t-155.5 -16q-204 0 -358.5 91.5t-237 253.5t-82.5 371q0 162 53.5 302t148.5 240.5t231 158t295 57.5q266 0 429.5 -129t194.5 -330h-295
q-33 98 -118 153.5t-211 55.5q-204 0 -327.5 -142.5t-123.5 -365.5q0 -212 116.5 -343.5t319.5 -131.5q168 0 275.5 74t107.5 211v61h-381v211z" />
    <glyph glyph-name="gcircumflex" unicode="&#x11d;" horiz-adv-x="1140" 
d="M565 1288l-104 -158h-219l221 304h219l221 -304h-219l-104 158h-15zM1106 995q-57 -61 -166 -112q66 -84 66 -193q0 -159 -121.5 -251.5t-309.5 -92.5q-88 0 -172 23q-49 -24 -49 -68q0 -41 38 -59.5t97 -18.5h201q181 0 277 -81t96 -222q0 -164 -129 -257t-352 -93
q-230 0 -356 98t-142 246l156 137q-55 30 -86 79t-31 110q0 124 137 200q-121 94 -121 250q0 154 115.5 254t308.5 100q136 0 238 -51q107 54 176 146zM575 537q83 0 132 44t49 113q0 72 -49 117t-132 45q-85 0 -135.5 -45t-50.5 -117q0 -69 50.5 -113t135.5 -44zM813 -94
q0 59 -45 85.5t-111 26.5h-186l-135 -114q19 -60 81 -98.5t167 -38.5q99 0 164 36t65 103z" />
    <glyph glyph-name="Gbreve" unicode="&#x11e;" horiz-adv-x="1611" 
d="M1102 1843q0 -114 -86 -193t-213 -79t-215 79t-88 193h194q0 -49 30 -84t81 -35q49 0 76.5 34.5t27.5 84.5h193zM821 778h649v-778h-215l-26 137h-17q-25 -25 -59.5 -49t-87 -50t-126 -42t-155.5 -16q-204 0 -358.5 91.5t-237 253.5t-82.5 371q0 162 53.5 302
t148.5 240.5t231 158t295 57.5q266 0 429.5 -129t194.5 -330h-295q-33 98 -118 153.5t-211 55.5q-204 0 -327.5 -142.5t-123.5 -365.5q0 -212 116.5 -343.5t319.5 -131.5q168 0 275.5 74t107.5 211v61h-381v211z" />
    <glyph glyph-name="gbreve" unicode="&#x11f;" horiz-adv-x="1140" 
d="M573 1161q-127 0 -215 79.5t-88 193.5h195q0 -50 29.5 -84.5t80.5 -34.5q49 0 77 34.5t28 84.5h192q0 -115 -86 -194t-213 -79zM1106 995q-57 -61 -166 -112q66 -84 66 -193q0 -159 -121.5 -251.5t-309.5 -92.5q-88 0 -172 23q-49 -24 -49 -68q0 -41 38 -59.5t97 -18.5
h201q181 0 277 -81t96 -222q0 -164 -129 -257t-352 -93q-230 0 -356 98t-142 246l156 137q-55 30 -86 79t-31 110q0 124 137 200q-121 94 -121 250q0 154 115.5 254t308.5 100q136 0 238 -51q107 54 176 146zM575 537q83 0 132 44t49 113q0 72 -49 117t-132 45
q-85 0 -135.5 -45t-50.5 -117q0 -69 50.5 -113t135.5 -44zM813 -94q0 59 -45 85.5t-111 26.5h-186l-135 -114q19 -60 81 -98.5t167 -38.5q99 0 164 36t65 103z" />
    <glyph glyph-name="Gdotaccent" unicode="&#x120;" horiz-adv-x="1611" 
d="M805 1565q-65 0 -113.5 47t-48.5 110q0 67 48.5 113.5t113.5 46.5t111.5 -46.5t46.5 -113.5q0 -63 -47 -110t-111 -47zM821 778h649v-778h-215l-26 137h-17q-25 -25 -59.5 -49t-87 -50t-126 -42t-155.5 -16q-204 0 -358.5 91.5t-237 253.5t-82.5 371q0 162 53.5 302
t148.5 240.5t231 158t295 57.5q266 0 429.5 -129t194.5 -330h-295q-33 98 -118 153.5t-211 55.5q-204 0 -327.5 -142.5t-123.5 -365.5q0 -212 116.5 -343.5t319.5 -131.5q168 0 275.5 74t107.5 211v61h-381v211z" />
    <glyph glyph-name="gdotaccent" unicode="&#x121;" horiz-adv-x="1140" 
d="M573 1155q-64 0 -112.5 47.5t-48.5 110.5q0 67 48 113.5t113 46.5t111.5 -46.5t46.5 -113.5q0 -63 -47 -110.5t-111 -47.5zM1106 995q-57 -61 -166 -112q66 -84 66 -193q0 -159 -121.5 -251.5t-309.5 -92.5q-88 0 -172 23q-49 -24 -49 -68q0 -41 38 -59.5t97 -18.5h201
q181 0 277 -81t96 -222q0 -164 -129 -257t-352 -93q-230 0 -356 98t-142 246l156 137q-55 30 -86 79t-31 110q0 124 137 200q-121 94 -121 250q0 154 115.5 254t308.5 100q136 0 238 -51q107 54 176 146zM575 537q83 0 132 44t49 113q0 72 -49 117t-132 45q-85 0 -135.5 -45
t-50.5 -117q0 -69 50.5 -113t135.5 -44zM813 -94q0 59 -45 85.5t-111 26.5h-186l-135 -114q19 -60 81 -98.5t167 -38.5q99 0 164 36t65 103z" />
    <glyph glyph-name="uni0122" unicode="&#x122;" horiz-adv-x="1611" 
d="M821 778h649v-778h-215l-26 137h-17q-25 -25 -59.5 -49t-87 -50t-126 -42t-155.5 -16q-204 0 -358.5 91.5t-237 253.5t-82.5 371q0 162 53.5 302t148.5 240.5t231 158t295 57.5q266 0 429.5 -129t194.5 -330h-295q-33 98 -118 153.5t-211 55.5q-204 0 -327.5 -142.5
t-123.5 -365.5q0 -212 116.5 -343.5t319.5 -131.5q168 0 275.5 74t107.5 211v61h-381v211zM799 -104q78 0 125 -56.5t47 -144.5q0 -67 -23 -128t-62.5 -107t-81.5 -79.5t-89 -58.5l-72 68q140 116 143 196q-65 -3 -108 38t-43 114t46.5 115.5t117.5 42.5z" />
    <glyph glyph-name="uni0123" unicode="&#x123;" horiz-adv-x="1140" 
d="M578 1128q-78 0 -125 56.5t-47 144.5q0 67 23 128t62.5 107t81.5 79.5t89 58.5l71 -68q-140 -116 -143 -196q65 3 108 -38t43 -114t-46 -115.5t-117 -42.5zM1106 995q-57 -61 -166 -112q66 -84 66 -193q0 -159 -121.5 -251.5t-309.5 -92.5q-88 0 -172 23q-49 -24 -49 -68
q0 -41 38 -59.5t97 -18.5h201q181 0 277 -81t96 -222q0 -164 -129 -257t-352 -93q-230 0 -356 98t-142 246l156 137q-55 30 -86 79t-31 110q0 124 137 200q-121 94 -121 250q0 154 115.5 254t308.5 100q136 0 238 -51q107 54 176 146zM575 537q83 0 132 44t49 113
q0 72 -49 117t-132 45q-85 0 -135.5 -45t-50.5 -117q0 -69 50.5 -113t135.5 -44zM813 -94q0 59 -45 85.5t-111 26.5h-186l-135 -114q19 -60 81 -98.5t167 -38.5q99 0 164 36t65 103z" />
    <glyph glyph-name="Hcircumflex" unicode="&#x124;" horiz-adv-x="1425" 
d="M594 1540h-219l221 303h219l221 -303h-219l-104 158h-15zM1014 1434h270v-1434h-270v604h-602v-604h-271v1434h271v-586h602v586z" />
    <glyph glyph-name="hcircumflex" unicode="&#x125;" horiz-adv-x="1204" 
d="M137 1540h-219l221 303h219l222 -303h-220l-104 158h-14zM692 1044q185 0 292.5 -112t107.5 -311v-621h-263v567q0 121 -61 185.5t-158 64.5q-101 0 -168 -66.5t-67 -195.5v-555h-262v1454h262v-551h16q51 67 122 104t179 37z" />
    <glyph glyph-name="Hbar" unicode="&#x126;" horiz-adv-x="1425" 
d="M1014 1434h270v-1434h-270v604h-602v-604h-271v1434h271v-195h602v195zM412 848h602v192h-602v-192z" />
    <glyph glyph-name="hbar" unicode="&#x127;" horiz-adv-x="1204" 
d="M692 1044q185 0 292.5 -112t107.5 -311v-621h-263v567q0 121 -61 185.5t-158 64.5q-101 0 -168 -66.5t-67 -195.5v-555h-262v1135h-209v188h209v131h262v-131h268v-188h-268v-232h16q51 67 122 104t179 37z" />
    <glyph glyph-name="Itilde" unicode="&#x128;" horiz-adv-x="552" 
d="M670 1798q-8 -121 -68.5 -201.5t-167.5 -80.5q-45 0 -83 13t-63 31.5t-46.5 37t-44.5 31.5t-47 13q-79 0 -91 -106h-174q8 123 69 204t169 81q48 0 87 -13t63 -31.5t44.5 -37.5t43 -32t47.5 -13q42 0 63.5 29.5t24.5 74.5h174zM412 1434v-1434h-271v1434h271z" />
    <glyph glyph-name="itilde" unicode="&#x129;" horiz-adv-x="487" 
d="M637 1389q-8 -121 -68.5 -202t-167.5 -81q-55 0 -100.5 20t-70 43.5t-54.5 43.5t-59 20q-78 0 -90 -107h-174q8 123 68.5 204t168.5 81q48 0 87 -13t63 -31.5t44.5 -37.5t43 -32t47.5 -13q42 0 63.5 30t24.5 75h174zM113 0v1024h262v-1024h-262z" />
    <glyph glyph-name="Imacron" unicode="&#x12a;" horiz-adv-x="552" 
d="M-61 1753h677v-178h-677v178zM412 1434v-1434h-271v1434h271z" />
    <glyph glyph-name="imacron" unicode="&#x12b;" horiz-adv-x="487" 
d="M-94 1343h678v-178h-678v178zM113 0v1024h262v-1024h-262z" />
    <glyph glyph-name="Ibreve" unicode="&#x12c;" horiz-adv-x="552" 
d="M575 1843q0 -114 -86 -193t-213 -79t-215 79t-88 193h195q0 -49 30 -84t81 -35q49 0 76.5 34.5t27.5 84.5h192zM412 1434v-1434h-271v1434h271z" />
    <glyph glyph-name="ibreve" unicode="&#x12d;" horiz-adv-x="487" 
d="M543 1434q0 -115 -86 -194t-213 -79t-215 79.5t-88 193.5h194q0 -49 30 -84t81 -35q49 0 76.5 34.5t27.5 84.5h193zM113 0v1024h262v-1024h-262z" />
    <glyph glyph-name="Iogonek" unicode="&#x12e;" horiz-adv-x="552" 
d="M391 -217q47 0 94 12v-143q-56 -17 -123 -17q-115 0 -182 49.5t-67 141.5q0 103 114 174h-86v1434h271v-1434q-138 -43 -138 -135q0 -82 117 -82z" />
    <glyph glyph-name="iogonek" unicode="&#x12f;" horiz-adv-x="487" 
d="M244 1155q-65 0 -113.5 47.5t-48.5 110.5q0 67 48.5 113.5t113.5 46.5t111 -46.5t46 -113.5q0 -63 -46.5 -110.5t-110.5 -47.5zM354 -217q48 0 95 12v-143q-56 -17 -123 -17q-115 0 -182.5 49.5t-67.5 141.5q0 103 114 174h-77v1024h262v-1024q-137 -43 -137 -135
q0 -82 116 -82z" />
    <glyph glyph-name="Idotaccent" unicode="&#x130;" horiz-adv-x="552" 
d="M279 1565q-65 0 -113.5 47t-48.5 110q0 67 48.5 113.5t113.5 46.5t111 -46.5t46 -113.5q0 -63 -46.5 -110t-110.5 -47zM412 1434v-1434h-271v1434h271z" />
    <glyph glyph-name="dotlessi" unicode="&#x131;" horiz-adv-x="487" 
d="M113 0v1024h262v-1024h-262z" />
    <glyph glyph-name="IJ" unicode="&#x132;" horiz-adv-x="1654" 
d="M412 1434v-1434h-271v1434h271zM879 432q5 -91 51 -147t131 -56q88 0 136 55.5t48 164.5v985h268v-994q0 -222 -122 -341t-328 -119q-219 0 -341.5 121.5t-127.5 330.5h285z" />
    <glyph glyph-name="ij" unicode="&#x133;" horiz-adv-x="993" 
d="M244 1155q-65 0 -113.5 47.5t-48.5 110.5q0 67 48.5 113.5t113.5 46.5t111 -46.5t46 -113.5q0 -63 -46.5 -110.5t-110.5 -47.5zM735 1155q-66 0 -114 47.5t-48 110.5q0 67 47.5 113.5t114.5 46.5q65 0 110.5 -46.5t45.5 -113.5q0 -64 -46 -111t-110 -47zM113 0v1024h262
v-1024h-262zM543 -430q-82 0 -181 22v195q46 -12 101 -12q44 0 73.5 11t42.5 31.5t18 39.5t5 43v1124h262v-1155q0 -40 -5.5 -75t-25.5 -78.5t-53 -73.5t-94 -51t-143 -21z" />
    <glyph glyph-name="Jcircumflex" unicode="&#x134;" horiz-adv-x="1124" 
d="M735 1540h-219l221 303h219l222 -303h-220l-104 158h-14zM348 432q5 -91 51 -147t131 -56q88 0 136.5 56t48.5 164v985h268v-994q0 -222 -122.5 -341t-328.5 -119q-219 0 -341.5 121.5t-127.5 330.5h285z" />
    <glyph glyph-name="jcircumflex" unicode="&#x135;" horiz-adv-x="487" 
d="M131 1130h-219l221 304h219l221 -304h-219l-104 158h-14zM53 -430q-81 0 -180 22v195q46 -12 100 -12q82 0 111 36t29 89v1124h262v-1155q0 -40 -5.5 -75t-25.5 -78.5t-53 -73.5t-94.5 -51t-143.5 -21z" />
    <glyph glyph-name="uni0136" unicode="&#x136;" horiz-adv-x="1327" 
d="M977 0l-461 614h-104v-614h-271v1434h271v-576h104l406 576h303l-486 -680v-15l545 -739h-307zM690 -104q78 0 125 -56.5t47 -144.5q0 -67 -23 -128t-62.5 -107t-81.5 -79.5t-89 -58.5l-71 68q140 116 143 196q-65 -3 -108.5 38t-43.5 114t46.5 115.5t117.5 42.5z" />
    <glyph glyph-name="uni0137" unicode="&#x137;" horiz-adv-x="1107" 
d="M1075 1024l-418 -408l418 -616h-289l-305 444l-106 -102v-342h-262v1454h262v-784h16l369 354h315zM575 -104q78 0 125.5 -56.5t47.5 -144.5q0 -67 -23 -128t-62.5 -107t-81.5 -79.5t-89 -58.5l-72 68q140 116 143 196q-65 -3 -108 38t-43 114t46 115.5t117 42.5z" />
    <glyph glyph-name="Lacute" unicode="&#x139;" horiz-adv-x="1185" 
d="M317 1843h222l-177 -297h-200zM406 242h714v-242h-979v1434h265v-1192z" />
    <glyph glyph-name="lacute" unicode="&#x13a;" horiz-adv-x="487" 
d="M299 1843h221l-176 -297h-201zM113 0v1454h262v-1454h-262z" />
    <glyph glyph-name="uni013B" unicode="&#x13b;" horiz-adv-x="1185" 
d="M406 242h714v-242h-979v1434h265v-1192zM614 -104q78 0 125 -56.5t47 -144.5q0 -67 -23 -128t-62.5 -107t-81.5 -79.5t-89 -58.5l-71 68q140 116 143 196q-65 -3 -108 38t-43 114t46 115.5t117 42.5z" />
    <glyph glyph-name="uni013C" unicode="&#x13c;" horiz-adv-x="487" 
d="M113 0v1454h262v-1454h-262zM240 -104q78 0 125 -56.5t47 -144.5q0 -67 -23 -128t-62.5 -107t-81.5 -79.5t-89 -58.5l-72 68q140 116 143 196q-65 -3 -108 38t-43 114t46.5 115.5t117.5 42.5z" />
    <glyph glyph-name="Lcaron" unicode="&#x13d;" horiz-adv-x="1185" 
d="M729 1448q71 0 112.5 -57t41.5 -146q0 -70 -21 -133t-56.5 -110t-73.5 -81.5t-81 -60.5l-61 76q123 104 129 213q-51 -7 -94 33t-43 112q0 71 41.5 112.5t105.5 41.5zM406 242h714v-242h-979v1434h265v-1192z" />
    <glyph glyph-name="lcaron" unicode="&#x13e;" horiz-adv-x="487" 
d="M113 0v1454h262v-1454h-262zM700 1448q71 0 112.5 -57t41.5 -146q0 -70 -21 -133t-56.5 -110t-73 -81.5t-80.5 -60.5l-62 76q123 104 129 213q-51 -7 -94 33t-43 112q0 71 41.5 112.5t105.5 41.5z" />
    <glyph glyph-name="Ldot" unicode="&#x13f;" horiz-adv-x="1185" 
d="M406 242h714v-242h-979v1434h265v-1192zM766 690q-65 0 -113.5 47.5t-48.5 110.5q0 67 48.5 113.5t113.5 46.5t111.5 -46.5t46.5 -113.5q0 -63 -47 -110.5t-111 -47.5z" />
    <glyph glyph-name="ldot" unicode="&#x140;" horiz-adv-x="487" 
d="M244 1565q-65 0 -113.5 47t-48.5 110q0 67 48.5 113.5t113.5 46.5t111 -46.5t46 -113.5q0 -63 -46.5 -110t-110.5 -47zM113 0v1454h262v-1454h-262z" />
    <glyph glyph-name="Lslash" unicode="&#x141;" horiz-adv-x="1185" 
d="M406 242h714v-242h-979v516l-223 -106v233l223 107v684h265v-557l366 176v-234l-366 -176v-401z" />
    <glyph glyph-name="lslash" unicode="&#x142;" horiz-adv-x="487" 
d="M561 1014v-232l-186 -100v-682h-262v539l-183 -99v230l183 100v684h262v-543z" />
    <glyph glyph-name="Nacute" unicode="&#x143;" horiz-adv-x="1484" 
d="M797 1843h221l-176 -297h-201zM1079 1434h264v-1434h-276l-645 958h-16v-958h-265v1434h277l645 -965h16v965z" />
    <glyph glyph-name="nacute" unicode="&#x144;" horiz-adv-x="1204" 
d="M657 1434h222l-177 -297h-200zM113 0v1024h239l23 -121h16q51 67 122 104t179 37q185 0 292.5 -112t107.5 -311v-621h-263v567q0 121 -61 185.5t-158 64.5q-101 0 -168 -66.5t-67 -195.5v-555h-262z" />
    <glyph glyph-name="uni0145" unicode="&#x145;" horiz-adv-x="1484" 
d="M1079 1434h264v-1434h-276l-645 958h-16v-958h-265v1434h277l645 -965h16v965zM737 -104q78 0 125 -56.5t47 -144.5q0 -67 -23 -128t-62.5 -107t-81.5 -79.5t-89 -58.5l-71 68q140 116 143 196q-65 -3 -108.5 38t-43.5 114t46.5 115.5t117.5 42.5z" />
    <glyph glyph-name="uni0146" unicode="&#x146;" horiz-adv-x="1204" 
d="M113 0v1024h239l23 -121h16q51 67 122 104t179 37q185 0 292.5 -112t107.5 -311v-621h-263v567q0 121 -61 185.5t-158 64.5q-101 0 -168 -66.5t-67 -195.5v-555h-262zM596 -104q78 0 125 -56.5t47 -144.5q0 -67 -23 -128t-62.5 -107t-81.5 -79.5t-89 -58.5l-72 68
q141 116 144 196q-65 -3 -108.5 38t-43.5 114t46.5 115.5t117.5 42.5z" />
    <glyph glyph-name="Ncaron" unicode="&#x147;" horiz-adv-x="1484" 
d="M854 1843h219l-221 -303h-219l-221 303h219l104 -157h17zM1079 1434h264v-1434h-276l-645 958h-16v-958h-265v1434h277l645 -965h16v965z" />
    <glyph glyph-name="ncaron" unicode="&#x148;" horiz-adv-x="1204" 
d="M713 1434h219l-221 -304h-219l-222 304h219l105 -158h16zM113 0v1024h239l23 -121h16q51 67 122 104t179 37q185 0 292.5 -112t107.5 -311v-621h-263v567q0 121 -61 185.5t-158 64.5q-101 0 -168 -66.5t-67 -195.5v-555h-262z" />
    <glyph glyph-name="Eng" unicode="&#x14a;" horiz-adv-x="1484" 
d="M1079 1434h264v-1547q0 -160 -88.5 -238.5t-234.5 -78.5q-87 0 -186 22v195q56 -12 106 -12q66 0 103.5 32t37.5 99v76l-659 976h-16v-958h-265v1434h277l645 -965h16v965z" />
    <glyph glyph-name="eng" unicode="&#x14b;" horiz-adv-x="1204" 
d="M692 1044q185 0 292.5 -112t107.5 -311v-734q0 -160 -89 -238.5t-237 -78.5q-85 0 -184 22v195q56 -12 106 -12q66 0 103.5 32t37.5 99v661q0 121 -61 185.5t-158 64.5q-101 0 -168 -66.5t-67 -195.5v-555h-262v1024h239l23 -121h16q51 67 122 104t179 37z" />
    <glyph glyph-name="Omacron" unicode="&#x14c;" horiz-adv-x="1679" 
d="M502 1753h678v-178h-678v178zM840 -20q-208 0 -376 95.5t-263 264.5t-95 377q0 155 55.5 292t152 234.5t233.5 154t293 56.5t292.5 -56.5t233 -154t152 -234.5t55.5 -292q0 -124 -35 -237t-100.5 -203.5t-155 -157.5t-203 -103t-239.5 -36zM842 229q196 0 325 139
t129 349q0 209 -130 348t-326 139t-326.5 -139t-130.5 -348q0 -210 130.5 -349t328.5 -139z" />
    <glyph glyph-name="omacron" unicode="&#x14d;" horiz-adv-x="1251" 
d="M289 1343h678v-178h-678v178zM625 -20q-151 0 -274.5 67t-195 190t-71.5 277q0 155 71 276.5t194 187.5t276 66q152 0 275 -66.5t194 -188t71 -275.5q0 -156 -70.5 -278t-193.5 -189t-276 -67zM625 207q125 0 202.5 87.5t77.5 219.5q0 130 -78 216.5t-202 86.5
t-201.5 -86.5t-77.5 -216.5q0 -131 77.5 -219t201.5 -88z" />
    <glyph glyph-name="Obreve" unicode="&#x14e;" horiz-adv-x="1679" 
d="M1139 1843q0 -114 -86 -193t-213 -79t-215 79t-88 193h194q0 -49 30 -84t81 -35q49 0 76.5 34.5t27.5 84.5h193zM840 -20q-208 0 -376 95.5t-263 264.5t-95 377q0 155 55.5 292t152 234.5t233.5 154t293 56.5t292.5 -56.5t233 -154t152 -234.5t55.5 -292q0 -124 -35 -237
t-100.5 -203.5t-155 -157.5t-203 -103t-239.5 -36zM842 229q196 0 325 139t129 349q0 209 -130 348t-326 139t-326.5 -139t-130.5 -348q0 -210 130.5 -349t328.5 -139z" />
    <glyph glyph-name="obreve" unicode="&#x14f;" horiz-adv-x="1251" 
d="M924 1434q0 -115 -86 -194t-213 -79t-215 79.5t-88 193.5h194q0 -49 30 -84t81 -35q49 0 76.5 34.5t27.5 84.5h193zM625 -20q-151 0 -274.5 67t-195 190t-71.5 277q0 155 71 276.5t194 187.5t276 66q152 0 275 -66.5t194 -188t71 -275.5q0 -156 -70.5 -278t-193.5 -189
t-276 -67zM625 207q125 0 202.5 87.5t77.5 219.5q0 130 -78 216.5t-202 86.5t-201.5 -86.5t-77.5 -216.5q0 -131 77.5 -219t201.5 -88z" />
    <glyph glyph-name="Ohungarumlaut" unicode="&#x150;" horiz-adv-x="1679" 
d="M680 1843h215l-135 -297h-203zM1044 1843h216l-136 -297h-202zM840 -20q-208 0 -376 95.5t-263 264.5t-95 377q0 155 55.5 292t152 234.5t233.5 154t293 56.5t292.5 -56.5t233 -154t152 -234.5t55.5 -292q0 -124 -35 -237t-100.5 -203.5t-155 -157.5t-203 -103
t-239.5 -36zM842 229q196 0 325 139t129 349q0 209 -130 348t-326 139t-326.5 -139t-130.5 -348q0 -210 130.5 -349t328.5 -139z" />
    <glyph glyph-name="ohungarumlaut" unicode="&#x151;" horiz-adv-x="1251" 
d="M465 1434h215l-135 -297h-203zM829 1434h215l-135 -297h-202zM625 -20q-151 0 -274.5 67t-195 190t-71.5 277q0 155 71 276.5t194 187.5t276 66q152 0 275 -66.5t194 -188t71 -275.5q0 -156 -70.5 -278t-193.5 -189t-276 -67zM625 207q125 0 202.5 87.5t77.5 219.5
q0 130 -78 216.5t-202 86.5t-201.5 -86.5t-77.5 -216.5q0 -131 77.5 -219t201.5 -88z" />
    <glyph glyph-name="OE" unicode="&#x152;" horiz-adv-x="2267" 
d="M1503 236h686v-236h-948v160q-84 -86 -197.5 -133t-242.5 -47q-148 0 -277 55.5t-220.5 152.5t-144.5 234.5t-53 294.5t52.5 294t144 234t221 153t277.5 56q259 0 440 -178v158h928v-236h-666v-356h570v-230h-570v-376zM809 229q185 0 304.5 136t119.5 352t-120 351.5
t-304 135.5q-186 0 -306 -135t-120 -352q0 -216 120.5 -352t305.5 -136z" />
    <glyph glyph-name="oe" unicode="&#x153;" horiz-adv-x="1654" 
d="M1329 324h238q-11 -115 -68 -194t-140 -114.5t-188 -35.5q-215 0 -323 131q-116 -131 -305 -131q-200 0 -329.5 146t-129.5 388q0 243 129 386.5t330 143.5q192 0 309 -135q105 135 311 135q63 0 118.5 -15.5t108 -53.5t90 -96t60.5 -150t23 -209q0 -53 -2 -86h-568
q5 -256 172 -256q149 0 164 146zM1163 846q-76 0 -121 -57t-49 -175h326q1 123 -42.5 177.5t-113.5 54.5zM545 188q90 0 143 87t53 239t-53 237t-143 85q-92 0 -145.5 -85t-53.5 -237q0 -153 53.5 -239.5t145.5 -86.5z" />
    <glyph glyph-name="Racute" unicode="&#x154;" horiz-adv-x="1288" 
d="M930 1843l-176 -297h-201l156 297h221zM1225 0h-287l-299 559h-233v-559h-265v1434h568q213 0 337.5 -115.5t124.5 -306.5q0 -144 -73 -249t-203 -155zM406 1204v-416h272q103 0 163 58.5t60 150.5q0 96 -59.5 151.5t-163.5 55.5h-272z" />
    <glyph glyph-name="racute" unicode="&#x155;" horiz-adv-x="802" 
d="M496 1434h221l-176 -297h-201zM113 0v1024h237l25 -145h16q52 85 118 125t187 40h74v-262q-56 9 -111 9q-65 0 -115.5 -19t-82 -49t-51.5 -72t-27.5 -84.5t-7.5 -89.5v-477h-262z" />
    <glyph glyph-name="uni0156" unicode="&#x156;" horiz-adv-x="1288" 
d="M895 608l330 -608h-287l-299 559h-233v-559h-265v1434h568q213 0 337.5 -115.5t124.5 -306.5q0 -144 -73 -249t-203 -155zM406 1204v-416h272q103 0 163 58.5t60 150.5q0 96 -59.5 151.5t-163.5 55.5h-272zM666 -104q78 0 125 -56.5t47 -144.5q0 -67 -23 -128t-62.5 -107
t-81.5 -79.5t-89 -58.5l-72 68q140 116 143 196q-65 -3 -108 38t-43 114t46.5 115.5t117.5 42.5z" />
    <glyph glyph-name="uni0157" unicode="&#x157;" horiz-adv-x="802" 
d="M113 0v1024h237l25 -145h16q52 85 118 125t187 40h74v-262q-56 9 -111 9q-65 0 -115.5 -19t-82 -49t-51.5 -72t-27.5 -84.5t-7.5 -89.5v-477h-262zM238 -104q78 0 125 -56.5t47 -144.5q0 -67 -23 -128t-62.5 -107t-81.5 -79.5t-89 -58.5l-72 68q140 116 143 196
q-65 -3 -108 38t-43 114t46.5 115.5t117.5 42.5z" />
    <glyph glyph-name="Rcaron" unicode="&#x158;" horiz-adv-x="1288" 
d="M762 1540h-219l-221 303h219l104 -157h17l102 157h219zM1225 0h-287l-299 559h-233v-559h-265v1434h568q213 0 337.5 -115.5t124.5 -306.5q0 -144 -73 -249t-203 -155zM406 1204v-416h272q103 0 163 58.5t60 150.5q0 96 -59.5 151.5t-163.5 55.5h-272z" />
    <glyph glyph-name="rcaron" unicode="&#x159;" horiz-adv-x="802" 
d="M553 1434h219l-221 -304h-219l-221 304h219l104 -158h17zM113 0v1024h237l25 -145h16q52 85 118 125t187 40h74v-262q-56 9 -111 9q-65 0 -115.5 -19t-82 -49t-51.5 -72t-27.5 -84.5t-7.5 -89.5v-477h-262z" />
    <glyph glyph-name="Sacute" unicode="&#x15a;" horiz-adv-x="1249" 
d="M692 1843h221l-176 -297h-200zM1139 393q0 -102 -40.5 -182.5t-110 -130t-158 -75t-189.5 -25.5q-251 0 -389 123.5t-146 334.5h267q9 -109 78 -169t190 -60q99 0 162 43.5t63 132.5q0 42 -17 76.5t-40 56.5t-64 42t-71.5 30.5t-79.5 25.5l-82 25q-360 108 -360 399
q0 188 137 301t348 113q218 0 350.5 -118t138.5 -304h-266q-9 88 -65.5 140.5t-155.5 52.5q-96 0 -155.5 -47t-59.5 -125q0 -36 15 -65t35.5 -48t58 -37t64.5 -27.5t73 -23.5l71 -23q36 -11 65 -21.5t72 -30.5t76.5 -42.5t69.5 -57t60 -74t39.5 -94t15.5 -116.5z" />
    <glyph glyph-name="sacute" unicode="&#x15b;" horiz-adv-x="1021" 
d="M549 1434h221l-176 -297h-201zM539 -20q-212 0 -328 93t-127 255h252q10 -79 64 -116.5t137 -37.5q65 0 107 26.5t42 78.5q0 55 -44 85t-136 54l-96 24q-49 12 -84 23.5t-77.5 34.5t-69 52t-44.5 75t-18 104q0 147 111 230t272 83q196 0 301.5 -88.5t116.5 -224.5h-252
q-8 56 -50.5 87.5t-113.5 31.5q-61 0 -98 -28t-37 -77q0 -21 9.5 -37.5t20 -26.5t38.5 -21t43 -15.5t57 -15.5l96 -25q147 -37 226 -110t79 -209q0 -102 -55 -172t-142.5 -101.5t-199.5 -31.5z" />
    <glyph glyph-name="Scircumflex" unicode="&#x15c;" horiz-adv-x="1249" 
d="M524 1540h-219l221 303h219l222 -303h-219l-105 158h-14zM1139 393q0 -102 -40.5 -182.5t-110 -130t-158 -75t-189.5 -25.5q-251 0 -389 123.5t-146 334.5h267q9 -109 78 -169t190 -60q99 0 162 43.5t63 132.5q0 42 -17 76.5t-40 56.5t-64 42t-71.5 30.5t-79.5 25.5
l-82 25q-360 108 -360 399q0 188 137 301t348 113q218 0 350.5 -118t138.5 -304h-266q-9 88 -65.5 140.5t-155.5 52.5q-96 0 -155.5 -47t-59.5 -125q0 -36 15 -65t35.5 -48t58 -37t64.5 -27.5t73 -23.5l71 -23q36 -11 65 -21.5t72 -30.5t76.5 -42.5t69.5 -57t60 -74
t39.5 -94t15.5 -116.5z" />
    <glyph glyph-name="scircumflex" unicode="&#x15d;" horiz-adv-x="1021" 
d="M381 1130h-219l221 304h219l221 -304h-219l-104 158h-15zM539 -20q-212 0 -328 93t-127 255h252q10 -79 64 -116.5t137 -37.5q65 0 107 26.5t42 78.5q0 55 -44 85t-136 54l-96 24q-49 12 -84 23.5t-77.5 34.5t-69 52t-44.5 75t-18 104q0 147 111 230t272 83
q196 0 301.5 -88.5t116.5 -224.5h-252q-8 56 -50.5 87.5t-113.5 31.5q-61 0 -98 -28t-37 -77q0 -21 9.5 -37.5t20 -26.5t38.5 -21t43 -15.5t57 -15.5l96 -25q147 -37 226 -110t79 -209q0 -102 -55 -172t-142.5 -101.5t-199.5 -31.5z" />
    <glyph glyph-name="Scedilla" unicode="&#x15e;" horiz-adv-x="1249" 
d="M1139 393q0 -95 -35 -171t-96 -125.5t-140 -78.5t-172 -36l-45 -70q80 3 141.5 -41.5t61.5 -126.5q0 -80 -58 -127t-161 -47q-99 0 -166 49l45 105q63 -37 117 -37q39 0 61.5 17.5t22.5 45.5q0 29 -21.5 46.5t-62.5 17.5q-25 0 -64 -13l-86 68l72 115q-210 23 -324.5 143
t-122.5 311h267q9 -109 78 -169t190 -60q99 0 162 43.5t63 132.5q0 42 -17 76.5t-40 56.5t-64 42t-71.5 30.5t-79.5 25.5l-82 25q-360 108 -360 399q0 188 137 301t348 113q218 0 350.5 -118t138.5 -304h-266q-9 88 -65.5 140.5t-155.5 52.5q-96 0 -155.5 -47t-59.5 -125
q0 -36 15 -65t35.5 -48t58 -37t64.5 -27.5t73 -23.5l71 -23q36 -11 65 -21.5t72 -30.5t76.5 -42.5t69.5 -57t60 -74t39.5 -94t15.5 -116.5z" />
    <glyph glyph-name="scedilla" unicode="&#x15f;" horiz-adv-x="1021" 
d="M936 285q0 -138 -94.5 -215t-247.5 -88l-45 -70q80 3 141.5 -41.5t61.5 -126.5q0 -80 -58.5 -127t-161.5 -47q-98 0 -165 49l45 105q63 -37 116 -37q39 0 61.5 17.5t22.5 45.5q0 29 -21.5 46.5t-62.5 17.5q-24 0 -63 -13l-86 68l72 115q-170 20 -264 110t-103 234h252
q10 -79 64 -116.5t137 -37.5q65 0 107 26.5t42 78.5q0 55 -44 85t-136 54l-96 24q-49 12 -84 23.5t-77.5 34.5t-69 52t-44.5 75t-18 104q0 147 111 230t272 83q196 0 301.5 -88.5t116.5 -224.5h-252q-8 56 -50.5 87.5t-113.5 31.5q-61 0 -98 -28t-37 -77q0 -21 9.5 -37.5
t20 -26.5t38.5 -21t43 -15.5t57 -15.5l96 -25q147 -37 226 -110t79 -209z" />
    <glyph glyph-name="Scaron" unicode="&#x160;" horiz-adv-x="1249" 
d="M748 1843h219l-222 -303h-219l-221 303h219l105 -157h16zM1139 393q0 -102 -40.5 -182.5t-110 -130t-158 -75t-189.5 -25.5q-251 0 -389 123.5t-146 334.5h267q9 -109 78 -169t190 -60q99 0 162 43.5t63 132.5q0 42 -17 76.5t-40 56.5t-64 42t-71.5 30.5t-79.5 25.5
l-82 25q-360 108 -360 399q0 188 137 301t348 113q218 0 350.5 -118t138.5 -304h-266q-9 88 -65.5 140.5t-155.5 52.5q-96 0 -155.5 -47t-59.5 -125q0 -36 15 -65t35.5 -48t58 -37t64.5 -27.5t73 -23.5l71 -23q36 -11 65 -21.5t72 -30.5t76.5 -42.5t69.5 -57t60 -74
t39.5 -94t15.5 -116.5z" />
    <glyph glyph-name="scaron" unicode="&#x161;" horiz-adv-x="1021" 
d="M604 1434h219l-221 -304h-219l-221 304h219l104 -158h17zM539 -20q-212 0 -328 93t-127 255h252q10 -79 64 -116.5t137 -37.5q65 0 107 26.5t42 78.5q0 55 -44 85t-136 54l-96 24q-49 12 -84 23.5t-77.5 34.5t-69 52t-44.5 75t-18 104q0 147 111 230t272 83
q196 0 301.5 -88.5t116.5 -224.5h-252q-8 56 -50.5 87.5t-113.5 31.5q-61 0 -98 -28t-37 -77q0 -21 9.5 -37.5t20 -26.5t38.5 -21t43 -15.5t57 -15.5l96 -25q147 -37 226 -110t79 -209q0 -102 -55 -172t-142.5 -101.5t-199.5 -31.5z" />
    <glyph glyph-name="uni0162" unicode="&#x162;" horiz-adv-x="1210" 
d="M739 0h-61l-57 -88q80 3 141 -41t61 -127q0 -80 -58 -127t-161 -47q-99 0 -166 49l45 105q63 -37 117 -37q39 0 61.5 17.5t22.5 45.5q0 29 -21.5 46.5t-62.5 17.5q-24 0 -63 -13l-86 68l81 131h-63v1192h-406v242h1082v-242h-406v-1192z" />
    <glyph glyph-name="uni0163" unicode="&#x163;" horiz-adv-x="815" 
d="M782 817h-268v-504q0 -25 4.5 -44.5t17.5 -40t42 -31.5t73 -11q43 0 101 15v-199q-99 -22 -181 -22h-8l-45 -68q80 3 141.5 -41.5t61.5 -126.5q0 -80 -58 -127t-161 -47q-99 0 -166 49l45 105q63 -37 117 -37q39 0 61.5 17.5t22.5 45.5q0 29 -21.5 46.5t-62.5 17.5
q-25 0 -64 -13l-86 68l82 131q-178 57 -178 279v538h-219v207h69q94 0 134 36.5t40 119.5v123h238v-279h268v-207z" />
    <glyph glyph-name="Tcaron" unicode="&#x164;" horiz-adv-x="1210" 
d="M715 1540h-219l-222 303h220l104 -157h16l103 157h219zM1145 1434v-242h-406v-1192h-270v1192h-406v242h1082z" />
    <glyph glyph-name="tcaron" unicode="&#x165;" horiz-adv-x="815" 
d="M817 1624q68 0 107 -49t39 -127q0 -115 -64 -200.5t-154 -137.5l-57 68q118 95 121 186q-47 -5 -87 29.5t-40 97.5q0 61 38 97t97 36zM571 -20q-319 0 -319 299v538h-219v207h69q94 0 134 36.5t40 119.5v123h238v-279h268v-207h-268v-504q0 -25 4.5 -44.5t17.5 -40
t42 -31.5t73 -11q43 0 101 15v-199q-99 -22 -181 -22z" />
    <glyph glyph-name="Tbar" unicode="&#x166;" horiz-adv-x="1210" 
d="M1145 1192h-406v-410h295v-198h-295v-584h-270v584h-295v198h295v410h-406v242h1082v-242z" />
    <glyph glyph-name="tbar" unicode="&#x167;" horiz-adv-x="815" 
d="M782 817h-268v-184h262v-189h-262v-131q0 -25 4.5 -44.5t17.5 -40t42 -31.5t73 -11q43 0 101 15v-199q-99 -22 -181 -22q-319 0 -319 299v165h-215v189h215v184h-219v207h69q94 0 134 36.5t40 119.5v123h238v-279h268v-207z" />
    <glyph glyph-name="Utilde" unicode="&#x168;" horiz-adv-x="1460" 
d="M1122 1798q-8 -121 -68 -201.5t-167 -80.5q-45 0 -83 13t-63.5 31.5t-47 37t-44.5 31.5t-47 13q-78 0 -90 -106h-174q8 123 68.5 204t168.5 81q48 0 87 -13t63 -31.5t44.5 -37.5t43 -32t47.5 -13q42 0 63.5 29.5t24.5 74.5h174zM1319 1434v-879q0 -142 -44.5 -253
t-123.5 -181t-185 -105.5t-233 -35.5q-128 0 -234.5 35.5t-187 105.5t-125.5 181t-45 253v879h271v-871q0 -159 88.5 -246.5t232.5 -87.5q143 0 229.5 87.5t86.5 246.5v871h270z" />
    <glyph glyph-name="utilde" unicode="&#x169;" horiz-adv-x="1204" 
d="M995 1389q-8 -121 -68.5 -202t-166.5 -81q-55 0 -101 20t-70.5 43.5t-54.5 43.5t-59 20q-78 0 -90 -107h-174q8 123 69 204t169 81q59 0 104.5 -20t68.5 -43.5t52 -43.5t59 -20q42 0 63.5 30t24.5 75h174zM1092 1024v-1024h-240l-23 121h-16q-51 -67 -122 -104t-179 -37
q-185 0 -292 112t-107 311v621h262v-567q0 -121 61.5 -185.5t159.5 -64.5q100 0 166.5 66.5t66.5 195.5v555h263z" />
    <glyph glyph-name="Umacron" unicode="&#x16a;" horiz-adv-x="1460" 
d="M393 1753h678v-178h-678v178zM1319 1434v-879q0 -142 -44.5 -253t-123.5 -181t-185 -105.5t-233 -35.5q-128 0 -234.5 35.5t-187 105.5t-125.5 181t-45 253v879h271v-871q0 -159 88.5 -246.5t232.5 -87.5q143 0 229.5 87.5t86.5 246.5v871h270z" />
    <glyph glyph-name="umacron" unicode="&#x16b;" horiz-adv-x="1204" 
d="M264 1343h678v-178h-678v178zM1092 1024v-1024h-240l-23 121h-16q-51 -67 -122 -104t-179 -37q-185 0 -292 112t-107 311v621h262v-567q0 -121 61.5 -185.5t159.5 -64.5q100 0 166.5 66.5t66.5 195.5v555h263z" />
    <glyph glyph-name="Ubreve" unicode="&#x16c;" horiz-adv-x="1460" 
d="M1028 1843q0 -114 -86 -193t-213 -79t-215 79t-88 193h195q0 -50 29.5 -84.5t80.5 -34.5q49 0 77 34.5t28 84.5h192zM1319 1434v-879q0 -142 -44.5 -253t-123.5 -181t-185 -105.5t-233 -35.5q-128 0 -234.5 35.5t-187 105.5t-125.5 181t-45 253v879h271v-871
q0 -159 88.5 -246.5t232.5 -87.5q143 0 229.5 87.5t86.5 246.5v871h270z" />
    <glyph glyph-name="ubreve" unicode="&#x16d;" horiz-adv-x="1204" 
d="M901 1434q0 -115 -86 -194t-213 -79t-215 79.5t-88 193.5h195q0 -50 30 -84.5t80 -34.5q49 0 77 34.5t28 84.5h192zM1092 1024v-1024h-240l-23 121h-16q-51 -67 -122 -104t-179 -37q-185 0 -292 112t-107 311v621h262v-567q0 -121 61.5 -185.5t159.5 -64.5
q100 0 166.5 66.5t66.5 195.5v555h263z" />
    <glyph glyph-name="Uring" unicode="&#x16e;" horiz-adv-x="1460" 
d="M727 1503q-85 0 -146 59.5t-61 141.5q0 83 61 143t146 60q86 0 148.5 -60t62.5 -143q0 -82 -62.5 -141.5t-148.5 -59.5zM731 1640q25 0 44.5 19.5t19.5 44.5q0 26 -19.5 44.5t-44.5 18.5q-29 0 -48 -18t-19 -45q0 -26 19 -45t48 -19zM1319 1434v-879q0 -142 -44.5 -253
t-123.5 -181t-185 -105.5t-233 -35.5q-128 0 -234.5 35.5t-187 105.5t-125.5 181t-45 253v879h271v-871q0 -159 88.5 -246.5t232.5 -87.5q143 0 229.5 87.5t86.5 246.5v871h270z" />
    <glyph glyph-name="uring" unicode="&#x16f;" horiz-adv-x="1204" 
d="M600 1094q-85 0 -146 59t-61 141q0 83 61 143t146 60q86 0 148.5 -60t62.5 -143q0 -82 -62.5 -141t-148.5 -59zM604 1231q25 0 44.5 19t19.5 44q0 26 -19.5 45t-44.5 19q-29 0 -48 -18.5t-19 -45.5q0 -25 19 -44t48 -19zM1092 1024v-1024h-240l-23 121h-16
q-51 -67 -122 -104t-179 -37q-185 0 -292 112t-107 311v621h262v-567q0 -121 61.5 -185.5t159.5 -64.5q100 0 166.5 66.5t66.5 195.5v555h263z" />
    <glyph glyph-name="Uhungarumlaut" unicode="&#x170;" horiz-adv-x="1460" 
d="M569 1843h215l-135 -297h-203zM934 1843h215l-135 -297h-203zM1319 1434v-879q0 -142 -44.5 -253t-123.5 -181t-185 -105.5t-233 -35.5q-128 0 -234.5 35.5t-187 105.5t-125.5 181t-45 253v879h271v-871q0 -159 88.5 -246.5t232.5 -87.5q143 0 229.5 87.5t86.5 246.5v871
h270z" />
    <glyph glyph-name="uhungarumlaut" unicode="&#x171;" horiz-adv-x="1204" 
d="M442 1434h215l-135 -297h-203zM807 1434h215l-135 -297h-203zM1092 1024v-1024h-240l-23 121h-16q-51 -67 -122 -104t-179 -37q-185 0 -292 112t-107 311v621h262v-567q0 -121 61.5 -185.5t159.5 -64.5q100 0 166.5 66.5t66.5 195.5v555h263z" />
    <glyph glyph-name="Uogonek" unicode="&#x172;" horiz-adv-x="1460" 
d="M1049 1434h270v-879q0 -231 -112 -372.5t-304 -184.5q-129 -42 -129 -133q0 -82 117 -82q47 0 94 12v-143q-56 -17 -123 -17q-115 0 -182.5 49.5t-67.5 141.5q0 94 84 154q-121 5 -221 43.5t-175 108t-117 178t-42 245.5v879h271v-871q0 -159 88.5 -246.5t232.5 -87.5
q143 0 229.5 87.5t86.5 246.5v871z" />
    <glyph glyph-name="uogonek" unicode="&#x173;" horiz-adv-x="1204" 
d="M1071 -217q47 0 94 12v-143q-56 -17 -123 -17q-115 0 -182 49.5t-67 141.5q0 103 114 174h-55l-23 121h-16q-51 -67 -122 -104t-179 -37q-185 0 -292 112t-107 311v621h262v-567q0 -121 61.5 -185.5t159.5 -64.5q100 0 166.5 66.5t66.5 195.5v555h263v-1024
q-138 -43 -138 -135q0 -82 117 -82z" />
    <glyph glyph-name="Wcircumflex" unicode="&#x174;" horiz-adv-x="1886" 
d="M831 1540h-219l222 303h219l221 -303h-219l-105 158h-14zM1583 1434h260l-311 -1434h-299l-283 985h-16l-279 -985h-299l-313 1434h262l211 -1037h16l269 934h286l265 -934h16z" />
    <glyph glyph-name="wcircumflex" unicode="&#x175;" horiz-adv-x="1587" 
d="M682 1130h-219l221 304h219l221 -304h-219l-104 158h-15zM307 0l-272 1024h241l175 -725h16l192 659h273l190 -661h17l172 727h243l-276 -1024h-287l-188 668h-17l-192 -668h-287z" />
    <glyph glyph-name="Ycircumflex" unicode="&#x176;" horiz-adv-x="1388" 
d="M582 1540h-220l222 303h219l221 -303h-219l-105 158h-14zM1024 1434h322l-517 -801v-633h-270v633l-516 801h319l324 -506h16z" />
    <glyph glyph-name="ycircumflex" unicode="&#x177;" horiz-adv-x="1165" 
d="M471 1130h-219l221 304h219l221 -304h-219l-104 158h-15zM307 -430q-80 0 -166 22v195q59 -12 107 -12q170 0 225 137l35 88h-82l-391 1024h270l279 -756h16l260 756h270l-413 -1151q-9 -26 -17 -45.5t-25.5 -53.5t-37.5 -59t-53 -54t-70.5 -47.5t-91 -31t-115.5 -12.5z
" />
    <glyph glyph-name="Ydieresis" unicode="&#x178;" horiz-adv-x="1388" 
d="M453 1544q-66 0 -113 46.5t-47 109.5q0 66 47 112t113 46q62 0 107.5 -46.5t45.5 -111.5q0 -63 -45.5 -109.5t-107.5 -46.5zM938 1544q-62 0 -108 46.5t-46 109.5q0 65 46 111.5t108 46.5q66 0 112 -46t46 -112q0 -64 -46 -110t-112 -46zM1024 1434h322l-517 -801v-633
h-270v633l-516 801h319l324 -506h16z" />
    <glyph glyph-name="Zacute" unicode="&#x179;" horiz-adv-x="1282" 
d="M700 1843h222l-177 -297h-200zM504 242h667v-242h-1065v158l672 1020v14h-637v242h1010v-158l-647 -1020v-14z" />
    <glyph glyph-name="zacute" unicode="&#x17a;" horiz-adv-x="1026" 
d="M571 1434h222l-177 -297h-200zM84 0v131l479 678v12h-454v203h813v-131l-473 -678v-12h489v-203h-854z" />
    <glyph glyph-name="Zdotaccent" unicode="&#x17b;" horiz-adv-x="1282" 
d="M647 1565q-65 0 -113.5 47t-48.5 110q0 67 48.5 113.5t113.5 46.5t111.5 -46.5t46.5 -113.5q0 -63 -47 -110t-111 -47zM504 242h667v-242h-1065v158l672 1020v14h-637v242h1010v-158l-647 -1020v-14z" />
    <glyph glyph-name="zdotaccent" unicode="&#x17c;" horiz-adv-x="1026" 
d="M516 1155q-65 0 -113.5 47.5t-48.5 110.5q0 67 48.5 113.5t113.5 46.5t111.5 -46.5t46.5 -113.5q0 -63 -47 -110.5t-111 -47.5zM84 0v131l479 678v12h-454v203h813v-131l-473 -678v-12h489v-203h-854z" />
    <glyph glyph-name="Zcaron" unicode="&#x17d;" horiz-adv-x="1282" 
d="M758 1843h219l-221 -303h-219l-222 303h220l104 -157h16zM504 242h667v-242h-1065v158l672 1020v14h-637v242h1010v-158l-647 -1020v-14z" />
    <glyph glyph-name="zcaron" unicode="&#x17e;" horiz-adv-x="1026" 
d="M627 1434h219l-221 -304h-219l-222 304h219l105 -158h16zM84 0v131l479 678v12h-454v203h813v-131l-473 -678v-12h489v-203h-854z" />
    <glyph glyph-name="florin" unicode="&#x192;" horiz-adv-x="1140" 
d="M899 1130q-118 0 -137 -118l-41 -219h274v-187h-309l-63 -346q-26 -136 -118 -208t-229 -72q-145 0 -233 71l72 172q57 -43 129 -43q53 0 90 29.5t47 89.5l57 307h-254v187h289l47 258q26 136 116.5 208t227.5 72q139 0 234 -71l-70 -173q-64 43 -129 43z" />
    <glyph glyph-name="uni01CD" unicode="&#x1cd;" horiz-adv-x="1433" 
d="M827 1540h-219l-221 303h219l105 -157h16l102 157h220zM1102 0l-117 346h-536l-117 -346h-289l512 1434h326l510 -1434h-289zM522 569h389l-186 553h-16z" />
    <glyph glyph-name="uni01CE" unicode="&#x1ce;" horiz-adv-x="1120" 
d="M649 1130h-219l-221 304h219l104 -158h17l102 158h219zM1061 197h24v-197h-110q-161 0 -207 123q-114 -143 -338 -143q-163 0 -262.5 77t-99.5 224q0 140 93.5 218.5t244.5 92.5l319 33v43q0 82 -47 125t-125 43q-157 0 -184 -154h-263q15 163 134.5 262.5t312.5 99.5
q92 0 169.5 -23.5t137.5 -70.5t93.5 -124t33.5 -177v-375q0 -77 74 -77zM725 395v49l-229 -24q-75 -8 -120.5 -40t-45.5 -89q0 -111 145 -111q45 0 86.5 11.5t79.5 35t61 67t23 101.5z" />
    <glyph glyph-name="uni01CF" unicode="&#x1cf;" horiz-adv-x="552" 
d="M389 1843h219l-221 -303h-219l-221 303h219l104 -157h17zM412 1434v-1434h-271v1434h271z" />
    <glyph glyph-name="uni01D0" unicode="&#x1d0;" horiz-adv-x="487" 
d="M356 1434h219l-221 -304h-219l-221 304h219l105 -158h16zM113 0v1024h262v-1024h-262z" />
    <glyph glyph-name="uni01D1" unicode="&#x1d1;" horiz-adv-x="1679" 
d="M952 1843h219l-221 -303h-219l-221 303h219l105 -157h16zM840 -20q-208 0 -376 95.5t-263 264.5t-95 377q0 155 55.5 292t152 234.5t233.5 154t293 56.5t292.5 -56.5t233 -154t152 -234.5t55.5 -292q0 -124 -35 -237t-100.5 -203.5t-155 -157.5t-203 -103t-239.5 -36z
M842 229q196 0 325 139t129 349q0 209 -130 348t-326 139t-326.5 -139t-130.5 -348q0 -210 130.5 -349t328.5 -139z" />
    <glyph glyph-name="uni01D2" unicode="&#x1d2;" horiz-adv-x="1251" 
d="M737 1434h219l-221 -304h-219l-221 304h219l104 -158h17zM625 -20q-151 0 -274.5 67t-195 190t-71.5 277q0 155 71 276.5t194 187.5t276 66q152 0 275 -66.5t194 -188t71 -275.5q0 -156 -70.5 -278t-193.5 -189t-276 -67zM625 207q125 0 202.5 87.5t77.5 219.5
q0 130 -78 216.5t-202 86.5t-201.5 -86.5t-77.5 -216.5q0 -131 77.5 -219t201.5 -88z" />
    <glyph glyph-name="uni01D3" unicode="&#x1d3;" horiz-adv-x="1460" 
d="M842 1843h219l-221 -303h-219l-222 303h219l105 -157h16zM1319 1434v-879q0 -142 -44.5 -253t-123.5 -181t-185 -105.5t-233 -35.5q-128 0 -234.5 35.5t-187 105.5t-125.5 181t-45 253v879h271v-871q0 -159 88.5 -246.5t232.5 -87.5q143 0 229.5 87.5t86.5 246.5v871h270
z" />
    <glyph glyph-name="uni01D4" unicode="&#x1d4;" horiz-adv-x="1204" 
d="M715 1434h219l-221 -304h-219l-222 304h220l104 -158h16zM1092 1024v-1024h-240l-23 121h-16q-51 -67 -122 -104t-179 -37q-185 0 -292 112t-107 311v621h262v-567q0 -121 61.5 -185.5t159.5 -64.5q100 0 166.5 66.5t66.5 195.5v555h263z" />
    <glyph glyph-name="uni01E2" unicode="&#x1e2;" horiz-adv-x="2142" 
d="M1851 1753v-178h-677v178h677zM1380 236h686v-236h-948v344h-530l-226 -344h-319l932 1434h1071v-236h-666v-356h570v-230h-570v-376zM737 569h381v553h-18z" />
    <glyph glyph-name="uni01E3" unicode="&#x1e3;" horiz-adv-x="1548" 
d="M1094 1343v-178h-678v178h678zM1225 324h235q-11 -115 -67.5 -194t-139.5 -114.5t-188 -35.5q-224 0 -320 149q-89 -149 -337 -149q-157 0 -248.5 74t-91.5 214q0 169 119.5 257.5t332.5 88.5h107v76q0 72 -36.5 112t-105.5 40q-72 0 -111 -37.5t-42 -108.5l-250 9
q9 161 113.5 250t277.5 89q199 0 297 -131q102 131 291 131q62 0 117 -15.5t107 -53.5t89 -96t59.5 -150t22.5 -209q0 -53 -2 -86h-567q5 -256 174 -256q146 0 164 146zM1057 846q-74 0 -120 -57t-50 -175h327q0 123 -43.5 177.5t-113.5 54.5zM449 178q33 0 62 8t56.5 26
t43.5 52.5t16 81.5v88h-103q-211 0 -211 -139q0 -58 37.5 -87.5t98.5 -29.5z" />
    <glyph glyph-name="Gcaron" unicode="&#x1e6;" horiz-adv-x="1611" 
d="M915 1843h220l-222 -303h-219l-221 303h219l105 -157h16zM821 778h649v-778h-215l-26 137h-17q-25 -25 -59.5 -49t-87 -50t-126 -42t-155.5 -16q-204 0 -358.5 91.5t-237 253.5t-82.5 371q0 162 53.5 302t148.5 240.5t231 158t295 57.5q266 0 429.5 -129t194.5 -330h-295
q-33 98 -118 153.5t-211 55.5q-204 0 -327.5 -142.5t-123.5 -365.5q0 -212 116.5 -343.5t319.5 -131.5q168 0 275.5 74t107.5 211v61h-381v211z" />
    <glyph glyph-name="gcaron" unicode="&#x1e7;" horiz-adv-x="1140" 
d="M682 1130h-219l-221 304h219l104 -158h17l102 158h219zM1106 995q-57 -61 -166 -112q66 -84 66 -193q0 -159 -121.5 -251.5t-309.5 -92.5q-88 0 -172 23q-49 -24 -49 -68q0 -41 38 -59.5t97 -18.5h201q181 0 277 -81t96 -222q0 -164 -129 -257t-352 -93q-230 0 -356 98
t-142 246l156 137q-55 30 -86 79t-31 110q0 124 137 200q-121 94 -121 250q0 154 115.5 254t308.5 100q136 0 238 -51q107 54 176 146zM575 537q83 0 132 44t49 113q0 72 -49 117t-132 45q-85 0 -135.5 -45t-50.5 -117q0 -69 50.5 -113t135.5 -44zM813 -94q0 59 -45 85.5
t-111 26.5h-186l-135 -114q19 -60 81 -98.5t167 -38.5q99 0 164 36t65 103z" />
    <glyph glyph-name="uni01EA" unicode="&#x1ea;" horiz-adv-x="1679" 
d="M1010 -2q-129 -46 -129 -133q0 -82 116 -82q49 0 95 12v-143q-56 -17 -123 -17q-115 0 -182.5 49.5t-67.5 141.5q0 94 84 154q-199 9 -358.5 106.5t-249 263t-89.5 367.5q0 155 55.5 292t152 234.5t233.5 154t293 56.5t292.5 -56.5t233 -154t152 -234.5t55.5 -292
q0 -269 -155.5 -467t-407.5 -252zM383 717q0 -210 130.5 -349t328.5 -139q196 0 325 139t129 349q0 209 -130 348t-326 139t-326.5 -139t-130.5 -348z" />
    <glyph glyph-name="uni01EB" unicode="&#x1eb;" horiz-adv-x="1251" 
d="M768 -4q-125 -42 -125 -131q0 -82 117 -82q48 0 94 12v-143q-56 -17 -123 -17q-115 0 -182.5 49.5t-67.5 141.5t88 156q-212 19 -348.5 166t-136.5 366q0 155 71 276.5t194 187.5t276 66q152 0 275 -66.5t194 -188t71 -275.5q0 -197 -108.5 -336t-288.5 -182zM346 514
q0 -131 77.5 -219t201.5 -88q125 0 202.5 87.5t77.5 219.5q0 130 -78 216.5t-202 86.5t-201.5 -86.5t-77.5 -216.5z" />
    <glyph glyph-name="uni01F4" unicode="&#x1f4;" horiz-adv-x="1611" 
d="M860 1843h221l-176 -297h-200zM821 778h649v-778h-215l-26 137h-17q-25 -25 -59.5 -49t-87 -50t-126 -42t-155.5 -16q-204 0 -358.5 91.5t-237 253.5t-82.5 371q0 162 53.5 302t148.5 240.5t231 158t295 57.5q266 0 429.5 -129t194.5 -330h-295q-33 98 -118 153.5
t-211 55.5q-204 0 -327.5 -142.5t-123.5 -365.5q0 -212 116.5 -343.5t319.5 -131.5q168 0 275.5 74t107.5 211v61h-381v211z" />
    <glyph glyph-name="uni01F5" unicode="&#x1f5;" horiz-adv-x="1140" 
d="M850 1434l-176 -297h-201l156 297h221zM1106 995q-57 -61 -166 -112q66 -84 66 -193q0 -159 -121.5 -251.5t-309.5 -92.5q-88 0 -172 23q-49 -24 -49 -68q0 -41 38 -59.5t97 -18.5h201q181 0 277 -81t96 -222q0 -164 -129 -257t-352 -93q-230 0 -356 98t-142 246l156 137
q-55 30 -86 79t-31 110q0 124 137 200q-121 94 -121 250q0 154 115.5 254t308.5 100q136 0 238 -51q107 54 176 146zM575 537q83 0 132 44t49 113q0 72 -49 117t-132 45q-85 0 -135.5 -45t-50.5 -117q0 -69 50.5 -113t135.5 -44zM813 -94q0 59 -45 85.5t-111 26.5h-186
l-135 -114q19 -60 81 -98.5t167 -38.5q99 0 164 36t65 103z" />
    <glyph glyph-name="uni01F8" unicode="&#x1f8;" horiz-adv-x="1484" 
d="M686 1843l156 -297h-199l-178 297h221zM1079 1434h264v-1434h-276l-645 958h-16v-958h-265v1434h277l645 -965h16v965z" />
    <glyph glyph-name="uni01F9" unicode="&#x1f9;" horiz-adv-x="1204" 
d="M547 1434l155 -297h-198l-178 297h221zM113 0v1024h239l23 -121h16q51 67 122 104t179 37q185 0 292.5 -112t107.5 -311v-621h-263v567q0 121 -61 185.5t-158 64.5q-101 0 -168 -66.5t-67 -195.5v-555h-262z" />
    <glyph glyph-name="AEacute" unicode="&#x1fc;" horiz-adv-x="2142" 
d="M1788 1843l-176 -297h-201l156 297h221zM1380 236h686v-236h-948v344h-530l-226 -344h-319l932 1434h1071v-236h-666v-356h570v-230h-570v-376zM737 569h381v553h-18z" />
    <glyph glyph-name="aeacute" unicode="&#x1fd;" horiz-adv-x="1548" 
d="M1030 1434l-176 -297h-201l156 297h221zM1225 324h235q-11 -115 -67.5 -194t-139.5 -114.5t-188 -35.5q-224 0 -320 149q-89 -149 -337 -149q-157 0 -248.5 74t-91.5 214q0 169 119.5 257.5t332.5 88.5h107v76q0 72 -36.5 112t-105.5 40q-72 0 -111 -37.5t-42 -108.5
l-250 9q9 161 113.5 250t277.5 89q199 0 297 -131q102 131 291 131q62 0 117 -15.5t107 -53.5t89 -96t59.5 -150t22.5 -209q0 -53 -2 -86h-567q5 -256 174 -256q146 0 164 146zM1057 846q-74 0 -120 -57t-50 -175h327q0 123 -43.5 177.5t-113.5 54.5zM449 178q33 0 62 8
t56.5 26t43.5 52.5t16 81.5v88h-103q-211 0 -211 -139q0 -58 37.5 -87.5t98.5 -29.5z" />
    <glyph glyph-name="Oslashacute" unicode="&#x1fe;" horiz-adv-x="1679" 
d="M1116 1843l-176 -297h-201l156 297h221zM1364 1245q100 -101 154.5 -236.5t54.5 -291.5q0 -124 -35 -237t-100.5 -203.5t-155 -157.5t-203 -103t-239.5 -36q-200 0 -361 88l-131 -177l-160 119l131 176q-101 100 -157 237t-56 294q0 155 55.5 292t152 234.5t233.5 154
t293 56.5q197 0 358 -88l129 174l166 -123zM371 717q0 -185 102 -324l578 776q-98 50 -211 50q-202 0 -335.5 -143t-133.5 -359zM842 215q202 0 334.5 143t132.5 359q0 181 -101 319l-579 -772q100 -49 213 -49z" />
    <glyph glyph-name="oslashacute" unicode="&#x1ff;" horiz-adv-x="1251" 
d="M903 1434l-176 -297h-201l156 297h221zM1022 887q143 -149 143 -373q0 -156 -70.5 -278t-193.5 -189t-276 -67q-133 0 -252 55l-105 -137l-143 100l106 139q-147 150 -147 377q0 155 71 276.5t194 187.5t276 66q140 0 254 -57l104 137l143 -100zM332 514q0 -105 47 -182
l362 475q-55 22 -116 22q-130 0 -211.5 -89.5t-81.5 -225.5zM625 195q130 0 211.5 91.5t81.5 227.5q0 98 -46 176l-360 -473q52 -22 113 -22z" />
    <glyph glyph-name="uni0218" unicode="&#x218;" horiz-adv-x="1249" 
d="M1139 393q0 -102 -40.5 -182.5t-110 -130t-158 -75t-189.5 -25.5q-251 0 -389 123.5t-146 334.5h267q9 -109 78 -169t190 -60q99 0 162 43.5t63 132.5q0 42 -17 76.5t-40 56.5t-64 42t-71.5 30.5t-79.5 25.5l-82 25q-360 108 -360 399q0 188 137 301t348 113
q218 0 350.5 -118t138.5 -304h-266q-9 88 -65.5 140.5t-155.5 52.5q-96 0 -155.5 -47t-59.5 -125q0 -36 15 -65t35.5 -48t58 -37t64.5 -27.5t73 -23.5l71 -23q36 -11 65 -21.5t72 -30.5t76.5 -42.5t69.5 -57t60 -74t39.5 -94t15.5 -116.5zM631 -104q78 0 125 -56.5
t47 -144.5q0 -67 -23 -128t-62.5 -107t-81.5 -79.5t-89 -58.5l-72 68q140 116 143 196q-65 -3 -108 38t-43 114t46.5 115.5t117.5 42.5z" />
    <glyph glyph-name="uni0219" unicode="&#x219;" horiz-adv-x="1021" 
d="M539 -20q-212 0 -328 93t-127 255h252q10 -79 64 -116.5t137 -37.5q65 0 107 26.5t42 78.5q0 55 -44 85t-136 54l-96 24q-49 12 -84 23.5t-77.5 34.5t-69 52t-44.5 75t-18 104q0 147 111 230t272 83q196 0 301.5 -88.5t116.5 -224.5h-252q-8 56 -50.5 87.5t-113.5 31.5
q-61 0 -98 -28t-37 -77q0 -21 9.5 -37.5t20 -26.5t38.5 -21t43 -15.5t57 -15.5l96 -25q147 -37 226 -110t79 -209q0 -102 -55 -172t-142.5 -101.5t-199.5 -31.5zM526 -104q78 0 125 -56.5t47 -144.5q0 -67 -23 -128t-62.5 -107t-81.5 -79.5t-89 -58.5l-71 68
q140 116 143 196q-65 -3 -108.5 38t-43.5 114t46.5 115.5t117.5 42.5z" />
    <glyph glyph-name="uni021A" unicode="&#x21a;" horiz-adv-x="1210" 
d="M63 1434h1082v-242h-406v-1192h-270v1192h-406v242zM600 -104q78 0 125 -56.5t47 -144.5q0 -67 -23 -128t-62.5 -107t-81.5 -79.5t-89 -58.5l-72 68q141 116 144 196q-65 -3 -108.5 38t-43.5 114t46.5 115.5t117.5 42.5z" />
    <glyph glyph-name="uni021B" unicode="&#x21b;" horiz-adv-x="815" 
d="M571 -20q-319 0 -319 299v538h-219v207h69q94 0 134 36.5t40 119.5v123h238v-279h268v-207h-268v-504q0 -25 4.5 -44.5t17.5 -40t42 -31.5t73 -11q43 0 101 15v-199q-99 -22 -181 -22zM498 -104q78 0 125 -56.5t47 -144.5q0 -67 -23 -128t-62.5 -107t-81.5 -79.5
t-89 -58.5l-72 68q140 116 143 196q-65 -3 -108 38t-43 114t46.5 115.5t117.5 42.5z" />
    <glyph glyph-name="uni021E" unicode="&#x21e;" horiz-adv-x="1425" 
d="M817 1843h219l-221 -303h-219l-221 303h219l104 -157h17zM1014 1434h270v-1434h-270v604h-602v-604h-271v1434h271v-586h602v586z" />
    <glyph glyph-name="uni0226" unicode="&#x226;" horiz-adv-x="1433" 
d="M719 1565q-65 0 -113.5 47t-48.5 110q0 67 48.5 113.5t113.5 46.5t111.5 -46.5t46.5 -113.5q0 -63 -47 -110t-111 -47zM1102 0l-117 346h-536l-117 -346h-289l512 1434h326l510 -1434h-289zM522 569h389l-186 553h-16z" />
    <glyph glyph-name="uni0227" unicode="&#x227;" horiz-adv-x="1120" 
d="M541 1155q-65 0 -113.5 47.5t-48.5 110.5q0 67 48.5 113.5t113.5 46.5t111 -46.5t46 -113.5q0 -63 -46.5 -110.5t-110.5 -47.5zM1061 197h24v-197h-110q-161 0 -207 123q-114 -143 -338 -143q-163 0 -262.5 77t-99.5 224q0 140 93.5 218.5t244.5 92.5l319 33v43
q0 82 -47 125t-125 43q-157 0 -184 -154h-263q15 163 134.5 262.5t312.5 99.5q92 0 169.5 -23.5t137.5 -70.5t93.5 -124t33.5 -177v-375q0 -77 74 -77zM725 395v49l-229 -24q-75 -8 -120.5 -40t-45.5 -89q0 -111 145 -111q45 0 86.5 11.5t79.5 35t61 67t23 101.5z" />
    <glyph glyph-name="uni0228" unicode="&#x228;" horiz-adv-x="1200" 
d="M1122 0h-415l-58 -88q80 3 141.5 -41.5t61.5 -126.5q0 -80 -58 -127t-161 -47q-99 0 -166 49l45 105q63 -37 117 -37q39 0 61.5 17.5t22.5 45.5q0 29 -21.5 46.5t-62.5 17.5q-25 0 -64 -13l-86 68l82 131h-420v1434h961v-236h-696v-356h600v-230h-600v-376h716v-236z" />
    <glyph glyph-name="uni0229" unicode="&#x229;" horiz-adv-x="1177" 
d="M1087 324q-29 -149 -141.5 -239.5t-286.5 -102.5l-45 -70q80 3 141.5 -41.5t61.5 -126.5q0 -80 -58 -127t-161 -47q-99 0 -166 49l45 105q63 -37 117 -37q39 0 61.5 17.5t22.5 45.5q0 29 -21.5 46.5t-62.5 17.5q-25 0 -64 -13l-86 68l74 117q-195 30 -314.5 168.5
t-119.5 347.5q0 124 41 227t111 171.5t164 106t200 37.5q97 0 182.5 -31.5t154 -93t108.5 -165t40 -236.5q0 -18 -4 -76h-737q8 -113 78.5 -183.5t187.5 -70.5q87 0 145.5 35t80.5 101h251zM600 836q-103 0 -171.5 -61.5t-82.5 -156.5h490q-5 96 -70 157t-166 61z" />
    <glyph glyph-name="uni022E" unicode="&#x22e;" horiz-adv-x="1679" 
d="M840 1565q-65 0 -113.5 47t-48.5 110q0 67 48.5 113.5t113.5 46.5t111 -46.5t46 -113.5q0 -63 -46.5 -110t-110.5 -47zM840 -20q-208 0 -376 95.5t-263 264.5t-95 377q0 155 55.5 292t152 234.5t233.5 154t293 56.5t292.5 -56.5t233 -154t152 -234.5t55.5 -292
q0 -124 -35 -237t-100.5 -203.5t-155 -157.5t-203 -103t-239.5 -36zM842 229q196 0 325 139t129 349q0 209 -130 348t-326 139t-326.5 -139t-130.5 -348q0 -210 130.5 -349t328.5 -139z" />
    <glyph glyph-name="uni022F" unicode="&#x22f;" horiz-adv-x="1251" 
d="M627 1155q-65 0 -113.5 47.5t-48.5 110.5q0 67 48.5 113.5t113.5 46.5t111 -46.5t46 -113.5q0 -63 -46.5 -110.5t-110.5 -47.5zM625 -20q-151 0 -274.5 67t-195 190t-71.5 277q0 155 71 276.5t194 187.5t276 66q152 0 275 -66.5t194 -188t71 -275.5q0 -156 -70.5 -278
t-193.5 -189t-276 -67zM625 207q125 0 202.5 87.5t77.5 219.5q0 130 -78 216.5t-202 86.5t-201.5 -86.5t-77.5 -216.5q0 -131 77.5 -219t201.5 -88z" />
    <glyph glyph-name="uni0232" unicode="&#x232;" horiz-adv-x="1388" 
d="M356 1753h678v-178h-678v178zM1024 1434h322l-517 -801v-633h-270v633l-516 801h319l324 -506h16z" />
    <glyph glyph-name="uni0233" unicode="&#x233;" horiz-adv-x="1165" 
d="M246 1343h678v-178h-678v178zM307 -430q-80 0 -166 22v195q59 -12 107 -12q170 0 225 137l35 88h-82l-391 1024h270l279 -756h16l260 756h270l-413 -1151q-9 -26 -17 -45.5t-25.5 -53.5t-37.5 -59t-53 -54t-70.5 -47.5t-91 -31t-115.5 -12.5z" />
    <glyph glyph-name="uni0237" unicode="&#x237;" horiz-adv-x="487" 
d="M53 -430q-81 0 -180 22v195q46 -12 100 -12q82 0 111 36t29 89v1124h262v-1155q0 -40 -5.5 -75t-25.5 -78.5t-53 -73.5t-94.5 -51t-143.5 -21z" />
    <glyph glyph-name="circumflex" unicode="&#x2c6;" horiz-adv-x="944" 
d="M360 1130h-219l221 304h220l221 -304h-219l-105 158h-16z" />
    <glyph glyph-name="caron" unicode="&#x2c7;" horiz-adv-x="944" 
d="M584 1434h219l-219 -304h-219l-224 304h219l105 -158h16z" />
    <glyph glyph-name="breve" unicode="&#x2d8;" horiz-adv-x="884" 
d="M743 1434q0 -115 -86 -194t-213 -79t-215 79.5t-88 193.5h195q0 -49 29.5 -84t78.5 -35q50 0 78.5 34.5t28.5 84.5h192z" />
    <glyph glyph-name="dotaccent" unicode="&#x2d9;" horiz-adv-x="602" 
d="M303 1155q-65 0 -113.5 47.5t-48.5 110.5q0 67 48.5 113.5t113.5 46.5t110.5 -46.5t45.5 -113.5q0 -64 -46 -111t-110 -47z" />
    <glyph glyph-name="ring" unicode="&#x2da;" horiz-adv-x="700" 
d="M348 1094q-85 0 -146 59t-61 141q0 83 61 143t146 60q86 0 148.5 -60t62.5 -143q0 -82 -62.5 -141t-148.5 -59zM352 1231q25 0 44.5 19t19.5 44q0 26 -19.5 45t-44.5 19q-29 0 -48 -18.5t-19 -45.5q0 -25 19 -44t48 -19z" />
    <glyph glyph-name="ogonek" unicode="&#x2db;" horiz-adv-x="653" 
d="M371 53l69 -53q-137 -43 -137 -135q0 -41 31 -61.5t84 -20.5q50 0 94 12v-143q-56 -17 -121 -17q-115 0 -182.5 49.5t-67.5 141.5q0 46 19 83t56 64t70.5 43.5t84.5 36.5z" />
    <glyph glyph-name="tilde" unicode="&#x2dc;" horiz-adv-x="1067" 
d="M926 1389q-6 -120 -67.5 -201.5t-168.5 -81.5q-55 0 -100.5 20t-70 43.5t-54.5 43.5t-59 20q-79 0 -91 -107h-174q10 123 70 204t168 81q48 0 87 -13t63.5 -31.5t45 -37.5t43 -32t46.5 -13q80 0 88 105h174z" />
    <glyph glyph-name="hungarumlaut" unicode="&#x2dd;" horiz-adv-x="987" 
d="M264 1434h217l-137 -297h-203zM629 1434h217l-137 -297h-203z" />
    <glyph glyph-name="uni1E02" unicode="&#x1e02;" horiz-adv-x="1275" 
d="M643 1565q-65 0 -113.5 47t-48.5 110q0 67 48.5 113.5t113.5 46.5t111.5 -46.5t46.5 -113.5q0 -63 -47 -110t-111 -47zM950 756q43 -15 81.5 -41.5t76 -68t60 -106t22.5 -143.5q0 -188 -122.5 -292.5t-340.5 -104.5h-586v1434h590q206 0 312 -97.5t106 -261.5
q0 -213 -199 -307v-12zM406 1217v-371h284q91 0 140 50t49 136t-50.5 135.5t-134.5 49.5h-288zM702 217q101 0 156 55t55 146q0 93 -56.5 152t-154.5 59h-296v-412h296z" />
    <glyph glyph-name="uni1E03" unicode="&#x1e03;" horiz-adv-x="1239" 
d="M242 1567q-65 0 -113.5 47t-48.5 110q0 67 48.5 113.5t113.5 46.5t111 -46.5t46 -113.5q0 -63 -46.5 -110t-110.5 -47zM672 1044q207 0 344 -143t137 -387q0 -241 -136 -387.5t-345 -146.5q-109 0 -185 41t-120 100h-19l-22 -121h-213v1454h262v-526q45 50 122 83t175 33
zM631 207q117 0 188.5 84.5t71.5 222.5q0 135 -71.5 219t-188.5 84q-116 0 -186 -83.5t-70 -219.5q0 -139 69.5 -223t186.5 -84z" />
    <glyph glyph-name="uni1E0A" unicode="&#x1e0a;" horiz-adv-x="1447" 
d="M707 1565q-65 0 -113.5 47t-48.5 110q0 67 48.5 113.5t113.5 46.5t111 -46.5t46 -113.5q0 -63 -46.5 -110t-110.5 -47zM643 1434q327 0 512.5 -191.5t185.5 -525.5q0 -331 -186 -524t-512 -193h-502v1434h502zM633 242q110 0 194 36t135.5 101.5t77 152t25.5 193.5
q0 216 -107 341.5t-325 125.5h-221v-950h221z" />
    <glyph glyph-name="uni1E0B" unicode="&#x1e0b;" horiz-adv-x="1239" 
d="M999 1567q-65 0 -113 47t-48 110q0 67 48 113.5t113 46.5t111.5 -46.5t46.5 -113.5q0 -63 -47 -110t-111 -47zM864 928v526h262v-1454h-213l-22 121h-19q-44 -59 -120 -100t-185 -41q-209 0 -345 146.5t-136 387.5q0 244 137 387t344 143q98 0 175 -33t122 -83zM608 207
q117 0 186.5 84t69.5 223q0 136 -70 219.5t-186 83.5q-117 0 -188.5 -84t-71.5 -219q0 -138 71.5 -222.5t188.5 -84.5z" />
    <glyph glyph-name="uni1E10" unicode="&#x1e10;" horiz-adv-x="1447" 
d="M643 1434q327 0 512.5 -191.5t185.5 -525.5q0 -331 -186 -524t-512 -193h-502v1434h502zM633 242q110 0 194 36t135.5 101.5t77 152t25.5 193.5q0 216 -107 341.5t-325 125.5h-221v-950h221zM700 -104q78 0 125 -56.5t47 -144.5q0 -67 -23 -128t-62.5 -107t-81.5 -79.5
t-89 -58.5l-71 68q140 116 143 196q-65 -3 -108 38t-43 114t46 115.5t117 42.5z" />
    <glyph glyph-name="uni1E11" unicode="&#x1e11;" horiz-adv-x="1239" 
d="M864 1454h262v-1454h-213l-22 121h-19q-44 -59 -120 -100t-185 -41q-209 0 -345 146.5t-136 387.5q0 244 137 387t344 143q98 0 175 -33t122 -83v526zM608 207q117 0 186.5 84t69.5 223q0 136 -70 219.5t-186 83.5q-117 0 -188.5 -84t-71.5 -219q0 -138 71.5 -222.5
t188.5 -84.5zM612 -104q78 0 125 -56.5t47 -144.5q0 -67 -23 -128t-62.5 -107t-81.5 -79.5t-89 -58.5l-71 68q140 116 143 196q-65 -3 -108 38t-43 114t46 115.5t117 42.5z" />
    <glyph glyph-name="uni1E1E" unicode="&#x1e1e;" horiz-adv-x="1169" 
d="M625 1565q-65 0 -113.5 47t-48.5 110q0 67 48.5 113.5t113.5 46.5t111 -46.5t46 -113.5q0 -63 -46.5 -110t-110.5 -47zM1106 1186h-694v-381h602v-236h-602v-569h-271v1434h965v-248z" />
    <glyph glyph-name="uni1E1F" unicode="&#x1e1f;" horiz-adv-x="819" 
d="M518 1565q-65 0 -113.5 47t-48.5 110q0 67 48.5 113.5t113.5 46.5t111.5 -46.5t46.5 -113.5q0 -63 -47 -110t-111 -47zM510 1120v-96h260v-207h-260v-817h-262v817h-215v207h215v111q0 155 93 237t249 82q89 0 196 -35l-45 -190q-47 16 -104 16q-59 0 -93 -31t-34 -94z
" />
    <glyph glyph-name="uni1E20" unicode="&#x1e20;" horiz-adv-x="1611" 
d="M467 1753h678v-178h-678v178zM821 778h649v-778h-215l-26 137h-17q-25 -25 -59.5 -49t-87 -50t-126 -42t-155.5 -16q-204 0 -358.5 91.5t-237 253.5t-82.5 371q0 162 53.5 302t148.5 240.5t231 158t295 57.5q266 0 429.5 -129t194.5 -330h-295q-33 98 -118 153.5
t-211 55.5q-204 0 -327.5 -142.5t-123.5 -365.5q0 -212 116.5 -343.5t319.5 -131.5q168 0 275.5 74t107.5 211v61h-381v211z" />
    <glyph glyph-name="uni1E22" unicode="&#x1e22;" horiz-adv-x="1425" 
d="M707 1565q-65 0 -113.5 47t-48.5 110q0 67 48.5 113.5t113.5 46.5t111 -46.5t46 -113.5q0 -63 -46.5 -110t-110.5 -47zM1014 1434h270v-1434h-270v604h-602v-604h-271v1434h271v-586h602v586z" />
    <glyph glyph-name="uni1E23" unicode="&#x1e23;" horiz-adv-x="1204" 
d="M250 1565q-65 0 -113.5 47t-48.5 110q0 67 48.5 113.5t113.5 46.5t111.5 -46.5t46.5 -113.5q0 -63 -47 -110t-111 -47zM692 1044q185 0 292.5 -112t107.5 -311v-621h-263v567q0 121 -61 185.5t-158 64.5q-101 0 -168 -66.5t-67 -195.5v-555h-262v1454h262v-551h16
q51 67 122 104t179 37z" />
    <glyph glyph-name="uni1E26" unicode="&#x1e26;" horiz-adv-x="1425" 
d="M465 1544q-66 0 -113 46.5t-47 109.5q0 66 47 112t113 46q62 0 107.5 -46.5t45.5 -111.5q0 -63 -45.5 -109.5t-107.5 -46.5zM950 1544q-62 0 -107.5 46.5t-45.5 109.5q0 65 45.5 111.5t107.5 46.5q66 0 112 -46t46 -112q0 -64 -46 -110t-112 -46zM1014 1434h270v-1434
h-270v604h-602v-604h-271v1434h271v-586h602v586z" />
    <glyph glyph-name="uni1E27" unicode="&#x1e27;" horiz-adv-x="1204" 
d="M47 1526q-59 0 -101 42t-42 101t42 99t101 40t100 -40t41 -99t-41.5 -101t-99.5 -42zM455 1526q-57 0 -99.5 42.5t-42.5 100.5q0 59 42 99t100 40q60 0 100.5 -39.5t40.5 -99.5q0 -59 -41 -101t-100 -42zM692 1044q185 0 292.5 -112t107.5 -311v-621h-263v567
q0 121 -61 185.5t-158 64.5q-101 0 -168 -66.5t-67 -195.5v-555h-262v1454h262v-551h16q51 67 122 104t179 37z" />
    <glyph glyph-name="uni1E28" unicode="&#x1e28;" horiz-adv-x="1425" 
d="M1014 1434h270v-1434h-270v604h-602v-604h-64l-57 -88q80 3 141.5 -41.5t61.5 -126.5q0 -80 -58.5 -127t-161.5 -47q-98 0 -165 49l45 105q63 -37 116 -37q39 0 61.5 17.5t22.5 45.5q0 29 -21.5 46.5t-62.5 17.5q-24 0 -63 -13l-86 68l82 131h-62v1434h271v-586h602v586z
" />
    <glyph glyph-name="uni1E29" unicode="&#x1e29;" horiz-adv-x="1204" 
d="M692 1044q185 0 292.5 -112t107.5 -311v-621h-263v567q0 121 -61 185.5t-158 64.5q-101 0 -168 -66.5t-67 -195.5v-555h-53l-58 -88q80 3 141.5 -41.5t61.5 -126.5q0 -80 -58 -127t-161 -47q-99 0 -166 49l45 105q63 -37 117 -37q39 0 61.5 17.5t22.5 45.5
q0 29 -21.5 46.5t-62.5 17.5q-25 0 -64 -13l-86 68l82 131h-63v1454h262v-551h16q51 67 122 104t179 37z" />
    <glyph glyph-name="uni1E40" unicode="&#x1e40;" horiz-adv-x="1830" 
d="M915 1565q-65 0 -113 47t-48 110q0 67 48 113.5t113 46.5t111.5 -46.5t46.5 -113.5q0 -63 -47 -110t-111 -47zM1690 1434v-1434h-265v952h-16l-356 -788h-273l-358 788h-16v-952h-265v1434h332l436 -983h17l434 983h330z" />
    <glyph glyph-name="uni1E41" unicode="&#x1e41;" horiz-adv-x="1734" 
d="M868 1155q-64 0 -112.5 47.5t-48.5 110.5q0 67 48 113.5t113 46.5t111.5 -46.5t46.5 -113.5q0 -63 -47 -110.5t-111 -47.5zM113 0v1024h239l23 -121h16q102 141 281 141q192 0 268 -161h16q111 161 320 161q162 0 254 -96t92 -278v-670h-262v621q0 94 -49.5 145
t-126.5 51q-84 0 -135.5 -57.5t-51.5 -153.5v-606h-262v612q0 98 -48.5 151.5t-125.5 53.5q-76 0 -131 -54.5t-55 -154.5v-608h-262z" />
    <glyph glyph-name="uni1E44" unicode="&#x1e44;" horiz-adv-x="1484" 
d="M743 1565q-65 0 -113 47t-48 110q0 67 48 113.5t113 46.5t111.5 -46.5t46.5 -113.5q0 -63 -47 -110t-111 -47zM1079 1434h264v-1434h-276l-645 958h-16v-958h-265v1434h277l645 -965h16v965z" />
    <glyph glyph-name="uni1E45" unicode="&#x1e45;" horiz-adv-x="1204" 
d="M602 1155q-65 0 -113.5 47.5t-48.5 110.5q0 67 48.5 113.5t113.5 46.5t111.5 -46.5t46.5 -113.5q0 -63 -47 -110.5t-111 -47.5zM113 0v1024h239l23 -121h16q51 67 122 104t179 37q185 0 292.5 -112t107.5 -311v-621h-263v567q0 121 -61 185.5t-158 64.5
q-101 0 -168 -66.5t-67 -195.5v-555h-262z" />
    <glyph glyph-name="uni1E56" unicode="&#x1e56;" horiz-adv-x="1302" 
d="M653 1565q-65 0 -113 47t-48 110q0 67 48 113.5t113 46.5t111.5 -46.5t46.5 -113.5q0 -63 -47 -110t-111 -47zM717 1434q219 0 349 -126t130 -329q0 -208 -132 -332.5t-355 -124.5h-306v-522h-262v1434h576zM682 758q116 0 177 59.5t61 161.5q0 100 -62 159.5t-170 59.5
h-285v-440h279z" />
    <glyph glyph-name="uni1E57" unicode="&#x1e57;" horiz-adv-x="1239" 
d="M621 1155q-65 0 -113.5 47.5t-48.5 110.5q0 67 48.5 113.5t113.5 46.5t111 -46.5t46 -113.5q0 -63 -46.5 -110.5t-110.5 -47.5zM672 1044q209 0 345 -146.5t136 -387.5q0 -244 -137 -387t-344 -143q-98 0 -175 33t-122 83v-506h-262v1434h213l22 -121h19q44 59 120 100
t185 41zM631 207q117 0 188.5 84t71.5 219q0 138 -71.5 222.5t-188.5 84.5t-186.5 -84t-69.5 -223q0 -136 70 -219.5t186 -83.5z" />
    <glyph glyph-name="uni1E58" unicode="&#x1e58;" horiz-adv-x="1288" 
d="M653 1565q-65 0 -113 47t-48 110q0 67 48 113.5t113 46.5t111.5 -46.5t46.5 -113.5q0 -63 -47 -110t-111 -47zM1225 0h-287l-299 559h-233v-559h-265v1434h568q213 0 337.5 -115.5t124.5 -306.5q0 -144 -73 -249t-203 -155zM406 1204v-416h272q103 0 163 58.5t60 150.5
q0 96 -59.5 151.5t-163.5 55.5h-272z" />
    <glyph glyph-name="uni1E59" unicode="&#x1e59;" horiz-adv-x="802" 
d="M440 1155q-64 0 -112.5 47.5t-48.5 110.5q0 67 48 113.5t113 46.5t111.5 -46.5t46.5 -113.5q0 -63 -47 -110.5t-111 -47.5zM113 0v1024h237l25 -145h16q52 85 118 125t187 40h74v-262q-56 9 -111 9q-65 0 -115.5 -19t-82 -49t-51.5 -72t-27.5 -84.5t-7.5 -89.5v-477h-262
z" />
    <glyph glyph-name="uni1E60" unicode="&#x1e60;" horiz-adv-x="1249" 
d="M637 1565q-65 0 -113.5 47t-48.5 110q0 67 48.5 113.5t113.5 46.5t111.5 -46.5t46.5 -113.5q0 -63 -47 -110t-111 -47zM1139 393q0 -102 -40.5 -182.5t-110 -130t-158 -75t-189.5 -25.5q-251 0 -389 123.5t-146 334.5h267q9 -109 78 -169t190 -60q99 0 162 43.5t63 132.5
q0 42 -17 76.5t-40 56.5t-64 42t-71.5 30.5t-79.5 25.5l-82 25q-360 108 -360 399q0 188 137 301t348 113q218 0 350.5 -118t138.5 -304h-266q-9 88 -65.5 140.5t-155.5 52.5q-96 0 -155.5 -47t-59.5 -125q0 -36 15 -65t35.5 -48t58 -37t64.5 -27.5t73 -23.5l71 -23
q36 -11 65 -21.5t72 -30.5t76.5 -42.5t69.5 -57t60 -74t39.5 -94t15.5 -116.5z" />
    <glyph glyph-name="uni1E61" unicode="&#x1e61;" horiz-adv-x="1021" 
d="M494 1155q-65 0 -113.5 47.5t-48.5 110.5q0 67 48.5 113.5t113.5 46.5t111 -46.5t46 -113.5q0 -63 -46.5 -110.5t-110.5 -47.5zM539 -20q-212 0 -328 93t-127 255h252q10 -79 64 -116.5t137 -37.5q65 0 107 26.5t42 78.5q0 55 -44 85t-136 54l-96 24q-49 12 -84 23.5
t-77.5 34.5t-69 52t-44.5 75t-18 104q0 147 111 230t272 83q196 0 301.5 -88.5t116.5 -224.5h-252q-8 56 -50.5 87.5t-113.5 31.5q-61 0 -98 -28t-37 -77q0 -21 9.5 -37.5t20 -26.5t38.5 -21t43 -15.5t57 -15.5l96 -25q147 -37 226 -110t79 -209q0 -102 -55 -172
t-142.5 -101.5t-199.5 -31.5z" />
    <glyph glyph-name="uni1E7C" unicode="&#x1e7c;" horiz-adv-x="1390" 
d="M1090 1798q-8 -121 -68.5 -201.5t-167.5 -80.5q-45 0 -83 13t-63.5 31.5t-47 37t-44.5 31.5t-47 13q-78 0 -90 -106h-174q8 123 69 204t169 81q59 0 104.5 -20t68.5 -43.5t52 -43.5t59 -20q42 0 63.5 29.5t24.5 74.5h175zM1059 1434h289l-490 -1434h-326l-489 1434h291
l356 -1072h17z" />
    <glyph glyph-name="uni1E7D" unicode="&#x1e7d;" horiz-adv-x="1165" 
d="M975 1389q-8 -121 -68.5 -202t-167.5 -81q-55 0 -100.5 20t-70 43.5t-54.5 43.5t-59 20q-78 0 -90 -107h-175q8 123 69 204t169 81q48 0 87 -13t63 -31.5t44.5 -37.5t43 -32t47.5 -13q42 0 63.5 30t24.5 75h174zM426 0l-391 1024h270l273 -752h16l268 752h268l-391 -1024
h-313z" />
    <glyph glyph-name="Wgrave" unicode="&#x1e80;" horiz-adv-x="1886" 
d="M889 1843l155 -297h-198l-178 297h221zM1583 1434h260l-311 -1434h-299l-283 985h-16l-279 -985h-299l-313 1434h262l211 -1037h16l269 934h286l265 -934h16z" />
    <glyph glyph-name="wgrave" unicode="&#x1e81;" horiz-adv-x="1587" 
d="M739 1434l156 -297h-199l-178 297h221zM307 0l-272 1024h241l175 -725h16l192 659h273l190 -661h17l172 727h243l-276 -1024h-287l-188 668h-17l-192 -668h-287z" />
    <glyph glyph-name="Wacute" unicode="&#x1e82;" horiz-adv-x="1886" 
d="M999 1843h222l-177 -297h-200zM1583 1434h260l-311 -1434h-299l-283 985h-16l-279 -985h-299l-313 1434h262l211 -1037h16l269 934h286l265 -934h16z" />
    <glyph glyph-name="wacute" unicode="&#x1e83;" horiz-adv-x="1587" 
d="M850 1434h221l-176 -297h-201zM307 0l-272 1024h241l175 -725h16l192 659h273l190 -661h17l172 727h243l-276 -1024h-287l-188 668h-17l-192 -668h-287z" />
    <glyph glyph-name="Wdieresis" unicode="&#x1e84;" horiz-adv-x="1886" 
d="M702 1544q-66 0 -112.5 46.5t-46.5 109.5q0 66 46.5 112t112.5 46q62 0 108 -46.5t46 -111.5q0 -63 -46 -109.5t-108 -46.5zM1188 1544q-62 0 -108 46.5t-46 109.5q0 65 46 111.5t108 46.5q66 0 112 -46t46 -112q0 -64 -46 -110t-112 -46zM1583 1434h260l-311 -1434h-299
l-283 985h-16l-279 -985h-299l-313 1434h262l211 -1037h16l269 934h286l265 -934h16z" />
    <glyph glyph-name="wdieresis" unicode="&#x1e85;" horiz-adv-x="1587" 
d="M592 1116q-58 0 -100.5 42.5t-42.5 101.5t42 99t101 40t100 -40t41 -99t-41.5 -101.5t-99.5 -42.5zM999 1116q-57 0 -99 43t-42 101q0 59 41.5 99t99.5 40q60 0 101 -39.5t41 -99.5q0 -59 -41.5 -101.5t-100.5 -42.5zM307 0l-272 1024h241l175 -725h16l192 659h273
l190 -661h17l172 727h243l-276 -1024h-287l-188 668h-17l-192 -668h-287z" />
    <glyph glyph-name="uni1E8C" unicode="&#x1e8c;" horiz-adv-x="1366" 
d="M442 1544q-66 0 -112.5 46.5t-46.5 109.5q0 66 46.5 112t112.5 46q62 0 108 -46.5t46 -111.5q0 -63 -46 -109.5t-108 -46.5zM928 1544q-62 0 -108 46.5t-46 109.5q0 65 46 111.5t108 46.5q66 0 111.5 -46t45.5 -112q0 -64 -46 -110t-111 -46zM1010 0l-312 516h-18
l-311 -516h-326l459 739l-436 695h321l293 -476h18l293 476h307l-436 -695l461 -739h-313z" />
    <glyph glyph-name="uni1E8D" unicode="&#x1e8d;" horiz-adv-x="1110" 
d="M352 1116q-58 0 -100.5 42.5t-42.5 101.5t42 99t101 40t100.5 -40t41.5 -99t-42 -101.5t-100 -42.5zM760 1116q-57 0 -99.5 43t-42.5 101q0 59 42 99t100 40q60 0 100.5 -39.5t40.5 -99.5q0 -59 -41 -101.5t-100 -42.5zM35 0l354 526l-336 498h297l197 -301h18l195 301
h297l-334 -498l354 -526h-301l-211 332h-16l-217 -332h-297z" />
    <glyph glyph-name="uni1E90" unicode="&#x1e90;" horiz-adv-x="1282" 
d="M532 1540h-219l222 303h219l221 -303h-219l-105 158h-14zM504 242h667v-242h-1065v158l672 1020v14h-637v242h1010v-158l-647 -1020v-14z" />
    <glyph glyph-name="uni1E97" unicode="&#x1e97;" horiz-adv-x="815" 
d="M193 1395q-59 0 -101.5 42.5t-42.5 100.5q0 59 42.5 99t101.5 40t100 -40t41 -99t-41.5 -101t-99.5 -42zM600 1395q-57 0 -99 42.5t-42 100.5q0 59 41.5 99t99.5 40q60 0 100.5 -39.5t40.5 -99.5q0 -59 -41 -101t-100 -42zM571 -20q-319 0 -319 299v538h-219v207h69
q94 0 134 36.5t40 119.5v123h238v-279h268v-207h-268v-504q0 -25 4.5 -44.5t17.5 -40t42 -31.5t73 -11q43 0 101 15v-199q-99 -22 -181 -22z" />
    <glyph glyph-name="uni1E98" unicode="&#x1e98;" horiz-adv-x="1587" 
d="M793 1094q-85 0 -146 59t-61 141q0 83 61 143t146 60q86 0 148.5 -60t62.5 -143q0 -82 -62.5 -141t-148.5 -59zM797 1231q25 0 44 19t19 44q0 26 -19 45t-44 19q-29 0 -48.5 -18.5t-19.5 -45.5q0 -25 19.5 -44t48.5 -19zM307 0l-272 1024h241l175 -725h16l192 659h273
l190 -661h17l172 727h243l-276 -1024h-287l-188 668h-17l-192 -668h-287z" />
    <glyph glyph-name="uni1E99" unicode="&#x1e99;" horiz-adv-x="1165" 
d="M580 1094q-85 0 -146 59t-61 141q0 83 61 143t146 60q86 0 148.5 -60t62.5 -143q0 -82 -62.5 -141t-148.5 -59zM584 1231q25 0 44 19t19 44q0 26 -19 45t-44 19q-29 0 -48.5 -18.5t-19.5 -45.5q0 -25 19.5 -44t48.5 -19zM307 -430q-80 0 -166 22v195q59 -12 107 -12
q170 0 225 137l35 88h-82l-391 1024h270l279 -756h16l260 756h270l-413 -1151q-9 -26 -17 -45.5t-25.5 -53.5t-37.5 -59t-53 -54t-70.5 -47.5t-91 -31t-115.5 -12.5z" />
    <glyph glyph-name="uni1E9E" unicode="&#x1e9e;" horiz-adv-x="2480" 
d="M1139 393q0 -102 -40.5 -182.5t-110 -130t-158 -75t-189.5 -25.5q-251 0 -389 123.5t-146 334.5h267q9 -109 78 -169t190 -60q99 0 162 43.5t63 132.5q0 42 -17 76.5t-40 56.5t-64 42t-71.5 30.5t-79.5 25.5l-82 25q-360 108 -360 399q0 188 137 301t348 113
q218 0 350.5 -118t138.5 -304h-266q-9 88 -65.5 140.5t-155.5 52.5q-96 0 -155.5 -47t-59.5 -125q0 -36 15 -65t35.5 -48t58 -37t64.5 -27.5t73 -23.5l71 -23q36 -11 65 -21.5t72 -30.5t76.5 -42.5t69.5 -57t60 -74t39.5 -94t15.5 -116.5zM2370 393q0 -102 -40.5 -182.5
t-110 -130t-158 -75t-189.5 -25.5q-251 0 -389 123.5t-146 334.5h267q9 -109 78 -169t190 -60q99 0 162 43.5t63 132.5q0 42 -17 76.5t-40 56.5t-64 42t-71.5 30.5t-79.5 25.5l-82 25q-361 109 -361 399q0 188 137.5 301t348.5 113q218 0 350.5 -118t138.5 -304h-266
q-9 88 -65.5 140.5t-155.5 52.5q-96 0 -155.5 -47t-59.5 -125q0 -36 15 -65t35.5 -48t58 -37t64.5 -27.5t73 -23.5l71 -23q36 -11 65 -21.5t72 -30.5t76.5 -42.5t69.5 -57t60 -74t39.5 -94t15.5 -116.5z" />
    <glyph glyph-name="uni1EA0" unicode="&#x1ea0;" horiz-adv-x="1433" 
d="M1391 0h-289l-117 346h-536l-117 -346h-289l512 1434h326zM522 569h389l-186 553h-16zM719 -131q65 0 111.5 -46t46.5 -112q0 -64 -47 -112t-111 -48t-113 48.5t-49 111.5q0 65 48.5 111.5t113.5 46.5z" />
    <glyph glyph-name="uni1EA1" unicode="&#x1ea1;" horiz-adv-x="1120" 
d="M1061 197h24v-197h-110q-161 0 -207 123q-114 -143 -338 -143q-163 0 -262.5 77t-99.5 224q0 140 93.5 218.5t244.5 92.5l319 33v43q0 82 -47 125t-125 43q-157 0 -184 -154h-263q15 163 134.5 262.5t312.5 99.5q92 0 169.5 -23.5t137.5 -70.5t93.5 -124t33.5 -177v-375
q0 -77 74 -77zM725 395v49l-229 -24q-75 -8 -120.5 -40t-45.5 -89q0 -111 145 -111q45 0 86.5 11.5t79.5 35t61 67t23 101.5zM575 -131q65 0 111.5 -46t46.5 -112q0 -64 -47 -112t-111 -48t-112.5 48.5t-48.5 111.5q0 65 48 111.5t113 46.5z" />
    <glyph glyph-name="uni1EB8" unicode="&#x1eb8;" horiz-adv-x="1200" 
d="M406 236h716v-236h-981v1434h961v-236h-696v-356h600v-230h-600v-376zM635 -449q-64 0 -113 48.5t-49 111.5q0 65 48.5 111.5t113.5 46.5t111.5 -46t46.5 -112q0 -64 -47 -112t-111 -48z" />
    <glyph glyph-name="uni1EB9" unicode="&#x1eb9;" horiz-adv-x="1177" 
d="M836 324h251q-31 -160 -157.5 -252t-319.5 -92q-231 0 -378.5 144t-147.5 378q0 124 41 227t111 171.5t164 106t200 37.5q97 0 182.5 -31.5t154 -93t108.5 -165t40 -236.5q0 -18 -4 -76h-737q8 -113 78.5 -183.5t187.5 -70.5q87 0 145.5 35t80.5 101zM600 836
q-103 0 -171.5 -61.5t-82.5 -156.5h490q-5 96 -70 157t-166 61zM602 -131q65 0 111.5 -46t46.5 -112q0 -64 -47 -112t-111 -48t-113 48.5t-49 111.5q0 65 48.5 111.5t113.5 46.5z" />
    <glyph glyph-name="uni1EBC" unicode="&#x1ebc;" horiz-adv-x="1200" 
d="M1016 1798q-8 -121 -68.5 -201.5t-167.5 -80.5q-45 0 -83 13t-63 31.5t-46.5 37t-44.5 31.5t-47 13q-78 0 -90 -106h-175q8 123 69 204t169 81q48 0 87 -13t63 -31.5t44.5 -37.5t43 -32t47.5 -13q42 0 63.5 29.5t24.5 74.5h174zM406 236h716v-236h-981v1434h961v-236
h-696v-356h600v-230h-600v-376z" />
    <glyph glyph-name="uni1EBD" unicode="&#x1ebd;" horiz-adv-x="1177" 
d="M471 1233q-78 0 -90 -107h-174q8 123 68.5 204t168.5 81q48 0 87 -13t63 -31.5t44.5 -37.5t43 -32t47.5 -13q42 0 63.5 30t24.5 75h174q-8 -121 -68.5 -202t-166.5 -81q-55 0 -101 20t-70.5 43.5t-54.5 43.5t-59 20zM836 324h251q-31 -160 -157.5 -252t-319.5 -92
q-231 0 -378.5 144t-147.5 378q0 124 41 227t111 171.5t164 106t200 37.5q97 0 182.5 -31.5t154 -93t108.5 -165t40 -236.5q0 -18 -4 -76h-737q8 -113 78.5 -183.5t187.5 -70.5q87 0 145.5 35t80.5 101zM600 836q-103 0 -171.5 -61.5t-82.5 -156.5h490q-5 96 -70 157
t-166 61z" />
    <glyph glyph-name="uni1ECA" unicode="&#x1eca;" horiz-adv-x="552" 
d="M412 1434v-1434h-271v1434h271zM279 -449q-64 0 -113 48.5t-49 111.5q0 65 48.5 111.5t113.5 46.5t111 -46t46 -112q0 -64 -46.5 -112t-110.5 -48z" />
    <glyph glyph-name="uni1ECB" unicode="&#x1ecb;" horiz-adv-x="487" 
d="M244 1155q-65 0 -113.5 47.5t-48.5 110.5q0 67 48.5 113.5t113.5 46.5t111 -46.5t46 -113.5q0 -63 -46.5 -110.5t-110.5 -47.5zM113 0v1024h262v-1024h-262zM246 -449q-64 0 -113 48.5t-49 111.5q0 65 48.5 111.5t113.5 46.5t111 -46t46 -112q0 -64 -46.5 -112
t-110.5 -48z" />
    <glyph glyph-name="uni1ECC" unicode="&#x1ecc;" horiz-adv-x="1679" 
d="M840 -20q-208 0 -376 95.5t-263 264.5t-95 377q0 155 55.5 292t152 234.5t233.5 154t293 56.5t292.5 -56.5t233 -154t152 -234.5t55.5 -292q0 -124 -35 -237t-100.5 -203.5t-155 -157.5t-203 -103t-239.5 -36zM842 229q196 0 325 139t129 349q0 209 -130 348t-326 139
t-326.5 -139t-130.5 -348q0 -210 130.5 -349t328.5 -139zM842 -449q-64 0 -113 48.5t-49 111.5q0 65 48.5 111.5t113.5 46.5t111 -46t46 -112q0 -64 -46.5 -112t-110.5 -48z" />
    <glyph glyph-name="uni1ECD" unicode="&#x1ecd;" horiz-adv-x="1251" 
d="M625 -20q-151 0 -274.5 67t-195 190t-71.5 277q0 155 71 276.5t194 187.5t276 66q152 0 275 -66.5t194 -188t71 -275.5q0 -156 -70.5 -278t-193.5 -189t-276 -67zM625 207q125 0 202.5 87.5t77.5 219.5q0 130 -78 216.5t-202 86.5t-201.5 -86.5t-77.5 -216.5
q0 -131 77.5 -219t201.5 -88zM627 -449q-64 0 -113 48.5t-49 111.5q0 65 48.5 111.5t113.5 46.5t111 -46t46 -112q0 -64 -46.5 -112t-110.5 -48z" />
    <glyph glyph-name="uni1EE4" unicode="&#x1ee4;" horiz-adv-x="1460" 
d="M1319 1434v-879q0 -142 -44.5 -253t-123.5 -181t-185 -105.5t-233 -35.5q-128 0 -234.5 35.5t-187 105.5t-125.5 181t-45 253v879h271v-871q0 -159 88.5 -246.5t232.5 -87.5q143 0 229.5 87.5t86.5 246.5v871h270zM731 -449q-64 0 -113 48.5t-49 111.5q0 65 48.5 111.5
t113.5 46.5t111.5 -46t46.5 -112q0 -64 -47 -112t-111 -48z" />
    <glyph glyph-name="uni1EE5" unicode="&#x1ee5;" horiz-adv-x="1204" 
d="M1092 1024v-1024h-240l-23 121h-16q-51 -67 -122 -104t-179 -37q-185 0 -292 112t-107 311v621h262v-567q0 -121 61.5 -185.5t159.5 -64.5q100 0 166.5 66.5t66.5 195.5v555h263zM604 -449q-64 0 -113 48.5t-49 111.5q0 65 48.5 111.5t113.5 46.5t111.5 -46t46.5 -112
q0 -64 -47 -112t-111 -48z" />
    <glyph glyph-name="Ygrave" unicode="&#x1ef2;" horiz-adv-x="1388" 
d="M639 1843l156 -297h-199l-178 297h221zM1024 1434h322l-517 -801v-633h-270v633l-516 801h319l324 -506h16z" />
    <glyph glyph-name="ygrave" unicode="&#x1ef3;" horiz-adv-x="1165" 
d="M528 1434l156 -297h-199l-178 297h221zM307 -430q-80 0 -166 22v195q59 -12 107 -12q170 0 225 137l35 88h-82l-391 1024h270l279 -756h16l260 756h270l-413 -1151q-9 -26 -17 -45.5t-25.5 -53.5t-37.5 -59t-53 -54t-70.5 -47.5t-91 -31t-115.5 -12.5z" />
    <glyph glyph-name="uni1EF8" unicode="&#x1ef8;" horiz-adv-x="1388" 
d="M1087 1798q-8 -121 -68 -201.5t-167 -80.5q-45 0 -83 13t-63.5 31.5t-47 37t-44.5 31.5t-47 13q-78 0 -90 -106h-174q8 123 69 204t169 81q59 0 104.5 -20t68.5 -43.5t52 -43.5t59 -20q42 0 63.5 29.5t24.5 74.5h174zM1024 1434h322l-517 -801v-633h-270v633l-516 801
h319l324 -506h16z" />
    <glyph glyph-name="uni1EF9" unicode="&#x1ef9;" horiz-adv-x="1165" 
d="M975 1389q-8 -121 -68.5 -202t-167.5 -81q-55 0 -100.5 20t-70 43.5t-54.5 43.5t-59 20q-78 0 -90 -107h-175q8 123 69 204t169 81q48 0 87 -13t63 -31.5t44.5 -37.5t43 -32t47.5 -13q42 0 63.5 30t24.5 75h174zM307 -430q-80 0 -166 22v195q59 -12 107 -12
q170 0 225 137l35 88h-82l-391 1024h270l279 -756h16l260 756h270l-413 -1151q-9 -26 -17 -45.5t-25.5 -53.5t-37.5 -59t-53 -54t-70.5 -47.5t-91 -31t-115.5 -12.5z" />
    <glyph glyph-name="uni200B" unicode="&#x200b;" horiz-adv-x="0" 
 />
    <glyph glyph-name="endash" unicode="&#x2013;" horiz-adv-x="1294" 
d="M63 739h1168v-204h-1168v204z" />
    <glyph glyph-name="emdash" unicode="&#x2014;" horiz-adv-x="1683" 
d="M63 733h1557v-192h-1557v192z" />
    <glyph glyph-name="quoteleft" unicode="&#x2018;" horiz-adv-x="475" 
d="M238 868q-72 0 -114 57.5t-42 147.5q0 70 21 133.5t56.5 111t73.5 82.5t82 62l64 -76q-125 -106 -131 -215q52 7 95.5 -33.5t43.5 -113.5q0 -71 -42.5 -113.5t-106.5 -42.5z" />
    <glyph glyph-name="quoteright" unicode="&#x2019;" horiz-adv-x="475" 
d="M236 1450q72 0 114.5 -56.5t42.5 -146.5q0 -70 -21 -133.5t-57 -111.5t-74 -82t-81 -62l-64 76q125 109 131 215q-52 -7 -95.5 33.5t-43.5 113.5q0 70 42.5 112t105.5 42z" />
    <glyph glyph-name="quotesinglbase" unicode="&#x201a;" horiz-adv-x="516" 
d="M258 291q72 0 114 -56.5t42 -146.5q0 -70 -21 -133.5t-57 -111t-74 -82.5t-82 -62l-63 76q125 106 131 215q-52 -7 -95.5 33.5t-43.5 113.5q0 70 42 112t107 42z" />
    <glyph glyph-name="quotedblleft" unicode="&#x201c;" horiz-adv-x="849" 
d="M238 868q-72 0 -114 57.5t-42 147.5q0 70 21 133.5t56.5 111t73.5 82.5t82 62l64 -76q-125 -106 -131 -215q52 7 95.5 -33.5t43.5 -113.5q0 -71 -42.5 -113.5t-106.5 -42.5zM614 868q-72 0 -114.5 57.5t-42.5 147.5q0 70 21 133.5t57 111.5t74 82t81 62l64 -76
q-125 -106 -131 -215q52 7 95.5 -33.5t43.5 -113.5q0 -70 -42.5 -113t-105.5 -43z" />
    <glyph glyph-name="quotedblright" unicode="&#x201d;" horiz-adv-x="851" 
d="M236 1450q72 0 114.5 -56.5t42.5 -146.5q0 -70 -21 -133.5t-57 -111.5t-74 -82t-81 -62l-64 76q125 109 131 215q-52 -7 -95.5 33.5t-43.5 113.5q0 70 42.5 112t105.5 42zM612 1450q72 0 114 -56.5t42 -146.5q0 -70 -21 -133.5t-56.5 -111t-73.5 -82.5t-82 -62l-62 76
q125 109 131 215q-52 -7 -95.5 33.5t-43.5 113.5q0 71 41.5 112.5t105.5 41.5z" />
    <glyph glyph-name="quotedblbase" unicode="&#x201e;" horiz-adv-x="890" 
d="M258 291q72 0 114 -56.5t42 -146.5q0 -70 -21 -133.5t-57 -111t-74 -82.5t-82 -62l-63 76q125 106 131 215q-52 -7 -95.5 33.5t-43.5 113.5q0 70 42 112t107 42zM633 291q72 0 113.5 -56.5t41.5 -146.5q0 -70 -21 -133.5t-56.5 -111t-73.5 -82.5t-82 -62l-63 76
q125 106 131 215q-52 -7 -95 33.5t-43 113.5q0 71 41.5 112.5t106.5 41.5z" />
    <glyph glyph-name="dagger" unicode="&#x2020;" horiz-adv-x="1187" 
d="M1047 1094v-222h-336v-872h-234v872h-336v222h336v340h234v-340h336z" />
    <glyph glyph-name="daggerdbl" unicode="&#x2021;" horiz-adv-x="1187" 
d="M1047 872h-336v-311h336v-221h-336v-340h-234v340h-336v221h336v311h-336v222h336v340h234v-340h336v-222z" />
    <glyph glyph-name="bullet" unicode="&#x2022;" horiz-adv-x="440" 
d="M221 481q-65 0 -111.5 46t-46.5 110t46.5 110t111.5 46t110.5 -45.5t45.5 -110.5t-45.5 -110.5t-110.5 -45.5z" />
    <glyph glyph-name="ellipsis" unicode="&#x2026;" horiz-adv-x="1497" 
d="M262 -10q-63 0 -109.5 45.5t-46.5 109.5q0 65 46 111.5t110 46.5q65 0 110.5 -46t45.5 -112q0 -64 -45.5 -109.5t-110.5 -45.5zM750 -10q-65 0 -111.5 45.5t-46.5 109.5q0 66 46.5 112t111.5 46t110 -46t45 -112q0 -65 -45.5 -110t-109.5 -45zM1235 -10
q-65 0 -111.5 45.5t-46.5 109.5q0 66 46.5 112t111.5 46t110.5 -46t45.5 -112q0 -64 -45.5 -109.5t-110.5 -45.5z" />
    <glyph glyph-name="perthousand" unicode="&#x2030;" horiz-adv-x="2035" 
d="M735 1018q0 -129 -92.5 -222.5t-220.5 -93.5q-129 0 -221 93.5t-92 222.5t92 221t221 92q128 0 220.5 -92t92.5 -221zM1110 1311h281l-885 -1311h-281zM305 1018q0 -51 33 -85t82 -34q52 0 85.5 34t33.5 85t-33.5 84t-85.5 33q-50 0 -82.5 -33t-32.5 -84zM1636 608
q128 0 222 -93t94 -222q0 -128 -94 -220.5t-222 -92.5q-123 0 -215 86q-92 -86 -215 -86q-128 0 -220.5 92t-92.5 221t92.5 222t220.5 93q124 0 215 -88q91 88 215 88zM1206 176q52 0 84.5 33t32.5 84q0 52 -32.5 85.5t-84.5 33.5q-49 0 -81.5 -34t-32.5 -85t32 -84t82 -33z
M1636 176q51 0 84 33t33 84t-33 85t-84 34q-49 0 -81.5 -34t-32.5 -85t32 -84t82 -33z" />
    <glyph glyph-name="guilsinglleft" unicode="&#x2039;" horiz-adv-x="690" 
d="M317 197l-274 413l274 414h289l-278 -414l278 -413h-289z" />
    <glyph glyph-name="guilsinglright" unicode="&#x203a;" horiz-adv-x="690" 
d="M373 197h-289l278 413l-278 414h289l274 -414z" />
    <glyph glyph-name="uni2042" unicode="&#x2042;" horiz-adv-x="1677" 
d="M578 844l-80 137l207 104l-207 107l80 137l194 -127l-12 232h158l-11 -232l193 127l80 -137l-205 -107l205 -104l-80 -137l-193 125l11 -230h-158l12 230zM688 590l78 -137l-205 -105l205 -106l-78 -138l-194 127l10 -231h-158l12 231l-194 -127l-80 138l207 106
l-207 105l80 137l194 -125l-12 229h158l-10 -229zM1593 453l-207 -105l207 -106l-80 -138l-192 125l10 -229h-157l12 231l-197 -127l-78 138l207 106l-207 105l78 137l197 -127l-12 231h157l-10 -229l192 125z" />
    <glyph glyph-name="fraction" unicode="&#x2044;" horiz-adv-x="665" 
d="M948 1434l-1028 -1434h-203l1028 1434h203z" />
    <glyph glyph-name="uni2051" unicode="&#x2051;" horiz-adv-x="849" 
d="M766 1233l-205 -107l205 -104l-78 -137l-194 125l10 -230h-158l12 230l-194 -125l-80 137l207 104l-207 107l80 137l194 -127l-12 232h158l-10 -232l194 127zM688 549l78 -137l-205 -105l205 -106l-78 -138l-194 127l10 -231h-158l12 231l-194 -127l-80 138l207 106
l-207 105l80 137l194 -125l-12 229h158l-10 -229z" />
    <glyph glyph-name="uni2070" unicode="&#x2070;" horiz-adv-x="768" 
d="M387 686q-149 0 -237.5 104.5t-88.5 301.5q0 195 88 299t238 104q149 0 235.5 -104.5t86.5 -300.5t-86.5 -300t-235.5 -104zM389 829q139 0 139 258q0 263 -141 263q-65 0 -105 -63t-40 -197q0 -135 40.5 -198t106.5 -63z" />
    <glyph glyph-name="uni2074" unicode="&#x2074;" horiz-adv-x="794" 
d="M758 995v-129h-146v-170h-163v170h-388v84l379 535h172v-490h146zM258 995h191v267h-11z" />
    <glyph glyph-name="uni2075" unicode="&#x2075;" horiz-adv-x="727" 
d="M401 1212q121 0 194 -73t73 -185q0 -122 -87 -195t-223 -73q-131 0 -211 67.5t-86 184.5h168q4 -54 40 -84.5t91 -30.5q60 0 97 34.5t37 92.5q0 59 -35.5 97t-96.5 38q-86 0 -124 -63l-158 35l41 428h510v-142h-361l-18 -174q50 43 149 43z" />
    <glyph glyph-name="uni2076" unicode="&#x2076;" horiz-adv-x="727" 
d="M410 1204q109 0 182.5 -71t73.5 -185q0 -120 -84.5 -191t-216.5 -71q-137 0 -220.5 75.5t-83.5 201.5q0 130 111 278l180 244h207l-233 -295q35 14 84 14zM367 823q60 0 95.5 36t35.5 93q0 55 -35.5 91t-95.5 36q-62 0 -98 -36t-36 -91q0 -57 36 -93t98 -36z" />
    <glyph glyph-name="uni2077" unicode="&#x2077;" horiz-adv-x="690" 
d="M61 1485h592v-103q-117 -130 -198 -303.5t-97 -382.5h-178q34 388 236 637v8h-355v144z" />
    <glyph glyph-name="uni2078" unicode="&#x2078;" horiz-adv-x="739" 
d="M539 1110q55 -20 97 -71.5t42 -127.5q0 -101 -81 -163t-226 -62q-144 0 -227 62t-83 163q0 77 42.5 127.5t99.5 71.5v8q-113 52 -113 162q0 96 79 155.5t204 59.5q124 0 200 -57.5t76 -153.5q0 -112 -110 -166v-8zM373 1374q-51 0 -84 -27t-33 -71q0 -45 33.5 -72.5
t83.5 -27.5t80 27t30 73q0 44 -30 71t-80 27zM371 813q57 0 94 31t37 82q0 52 -35 84t-96 32t-97 -32t-36 -82q0 -53 37.5 -84t95.5 -31z" />
    <glyph glyph-name="uni2079" unicode="&#x2079;" horiz-adv-x="727" 
d="M317 977q-109 0 -182.5 71t-73.5 185q0 121 84 191.5t217 70.5q137 0 220.5 -75t83.5 -201q0 -54 -19.5 -110.5t-40 -90.5t-51.5 -78l-180 -244h-207l233 295q-35 -14 -84 -14zM360 1358q-60 0 -95.5 -36t-35.5 -93q0 -55 35.5 -91t95.5 -36q62 0 98 36t36 91
q0 57 -36 93t-98 36z" />
    <glyph glyph-name="uni2080" unicode="&#x2080;" horiz-adv-x="768" 
d="M387 -215q-149 0 -237.5 104t-88.5 301q0 195 88 299.5t238 104.5q148 0 235 -104.5t87 -301.5q0 -196 -86.5 -299.5t-235.5 -103.5zM389 -72q139 0 139 258q0 263 -141 263q-65 0 -105 -63t-40 -198t40 -197.5t107 -62.5z" />
    <glyph glyph-name="uni2081" unicode="&#x2081;" horiz-adv-x="507" 
d="M244 -205v502h-183v139h82q119 0 119 111v37h154v-789h-172z" />
    <glyph glyph-name="uni2082" unicode="&#x2082;" horiz-adv-x="704" 
d="M362 55q-82 -50 -96 -116h377v-144h-582v55q0 99 45 177t127 129l134 80q23 15 35.5 24t29.5 25t25 34t8 39q0 40 -29.5 66.5t-73.5 26.5q-54 0 -85 -35t-33 -82h-181q1 46 20.5 90.5t55.5 83t97 62.5t137 24q123 0 197.5 -61.5t74.5 -167.5q0 -48 -14 -86.5t-41.5 -66.5
t-43.5 -40t-44 -29z" />
    <glyph glyph-name="uni2083" unicode="&#x2083;" horiz-adv-x="745" 
d="M553 203q63 -24 98 -70.5t35 -109.5q0 -102 -88.5 -170t-228.5 -68q-141 0 -220.5 68.5t-87.5 185.5h172q22 -111 136 -111q62 0 99.5 29.5t37.5 73.5q0 50 -37 77t-100 27h-80v127h76q55 0 88.5 25t33.5 73q0 44 -32.5 70.5t-85.5 26.5q-47 0 -82.5 -25.5t-44.5 -69.5
h-170q4 102 92.5 167t210.5 65q119 0 203 -60t84 -161q0 -108 -109 -162v-8z" />
    <glyph glyph-name="uni2084" unicode="&#x2084;" horiz-adv-x="794" 
d="M758 94v-129h-146v-170h-163v170h-388v84l379 535h172v-490h146zM258 94h191v266h-11z" />
    <glyph glyph-name="uni2085" unicode="&#x2085;" horiz-adv-x="727" 
d="M401 311q121 0 194 -73t73 -185q0 -122 -87 -195t-223 -73q-131 0 -211 67.5t-86 184.5h168q4 -54 40 -84.5t91 -30.5q60 0 97 34.5t37 92.5q0 59 -35.5 97t-96.5 38q-86 0 -124 -63l-158 35l41 428h510v-142h-361l-18 -174q50 43 149 43z" />
    <glyph glyph-name="uni2086" unicode="&#x2086;" horiz-adv-x="727" 
d="M410 303q109 0 182.5 -71t73.5 -185q0 -121 -84.5 -191.5t-216.5 -70.5q-137 0 -220.5 75t-83.5 201q0 131 111 279l180 244h207l-233 -295q35 14 84 14zM367 -78q60 0 95.5 36t35.5 93q0 55 -35.5 91t-95.5 36q-62 0 -98 -36t-36 -91q0 -57 36 -93t98 -36z" />
    <glyph glyph-name="uni2087" unicode="&#x2087;" horiz-adv-x="690" 
d="M61 584h592v-103q-117 -130 -198 -303.5t-97 -382.5h-178q34 388 236 637v8h-355v144z" />
    <glyph glyph-name="uni2088" unicode="&#x2088;" horiz-adv-x="739" 
d="M539 209q55 -20 97 -71.5t42 -127.5q0 -101 -81 -163t-226 -62q-144 0 -227 62t-83 163q0 77 42.5 127.5t99.5 71.5v8q-113 52 -113 162q0 96 79 155.5t204 59.5q124 0 200 -57.5t76 -153.5q0 -112 -110 -166v-8zM373 473q-51 0 -84 -27t-33 -71q0 -45 33.5 -73t83.5 -28
t80 27.5t30 73.5q0 44 -30 71t-80 27zM371 -88q57 0 94 31t37 82q0 52 -35 84t-96 32t-97 -32t-36 -82q0 -53 37.5 -84t95.5 -31z" />
    <glyph glyph-name="uni2089" unicode="&#x2089;" horiz-adv-x="727" 
d="M317 76q-109 0 -182.5 71t-73.5 185q0 121 84 191.5t217 70.5q137 0 220.5 -75.5t83.5 -201.5q0 -54 -19.5 -110.5t-39.5 -90t-52 -77.5l-180 -244h-207l233 295q-35 -14 -84 -14zM360 457q-60 0 -95.5 -36t-35.5 -93q0 -55 35.5 -91t95.5 -36q62 0 98 36t36 91
q0 57 -36 93t-98 36z" />
    <glyph glyph-name="Euro" unicode="&#x20ac;" horiz-adv-x="1325" 
d="M1223 279l59 -201q-153 -98 -381 -98q-231 0 -392 107.5t-224 305.5h-172v185h137q-2 23 -2 69q0 30 4 88h-139v187h178q67 192 225 300.5t385 108.5q218 0 371 -92l-70 -197q-148 72 -287 72q-268 0 -366 -192h553l-43 -187h-559q-4 -50 -4 -78q0 -29 4 -79h487
l-37 -185h-399q95 -192 364 -192q192 0 308 78z" />
    <glyph glyph-name="uni2113" unicode="&#x2113;" horiz-adv-x="964" 
d="M455 387q0 -105 60.5 -156t166.5 -51q86 0 166 29v-195q-28 -13 -86.5 -23.5t-126.5 -10.5q-182 0 -287.5 100t-105.5 299v65q-93 -20 -179 -28v194q100 17 179 39v332q0 166 87.5 258t229.5 92q146 0 234 -82t88 -225q0 -180 -113 -310.5t-313 -207.5v-119zM455 961
v-232q219 109 219 279q0 61 -29.5 96t-79.5 35q-52 0 -81 -45t-29 -133z" />
    <glyph glyph-name="trademark" unicode="&#x2122;" horiz-adv-x="1660" 
d="M51 1278v156h588v-156h-207v-561h-176v561h-205zM1384 1434h205v-717h-170v407h-8l-160 -325h-166l-159 325h-8v-407h-170v717h204l215 -441h9z" />
    <glyph glyph-name="uni2153" unicode="&#x2153;" horiz-adv-x="1853" 
d="M324 645v502h-183v139h84q117 0 117 111v37h156v-789h-174zM1468 1434l-1028 -1434h-202l1028 1434h202zM1579 408q64 -23 98.5 -70t34.5 -111q0 -102 -88.5 -169.5t-228.5 -67.5q-141 0 -220.5 68.5t-87.5 185.5h173q22 -111 135 -111q62 0 100.5 29.5t38.5 73.5
q0 50 -37.5 77t-99.5 27h-80v127h74q56 0 89 25t33 73q0 44 -32.5 70.5t-85.5 26.5q-46 0 -82 -25.5t-45 -69.5h-168q3 102 91.5 167t211.5 65q117 0 201 -60t84 -161q0 -110 -109 -162v-8z" />
    <glyph glyph-name="uni2154" unicode="&#x2154;" horiz-adv-x="2035" 
d="M444 905q-84 -49 -96 -117h377v-143h-584v55q0 99 46 177t128 129l131 79q31 20 47.5 32.5t34 38t17.5 52.5q0 40 -29 66t-74 26q-54 0 -85 -34.5t-33 -81.5h-181q2 46 21.5 90.5t56 83t97.5 62.5t137 24q123 0 196.5 -62t73.5 -168q0 -39 -11.5 -73.5t-24.5 -55
t-37.5 -42t-35.5 -29t-34 -21.5zM1653 1434l-1028 -1434h-205l1028 1434h205zM1761 408q64 -23 98.5 -70t34.5 -111q0 -102 -88.5 -169.5t-228.5 -67.5q-141 0 -220 68.5t-87 185.5h172q22 -111 135 -111q62 0 100.5 29.5t38.5 73.5q0 50 -37.5 77t-99.5 27h-82v127h76
q56 0 89.5 25t33.5 73q0 44 -33 70.5t-86 26.5q-46 0 -82 -25.5t-45 -69.5h-168q3 102 91.5 167t211.5 65q117 0 201 -60t84 -161q0 -110 -109 -162v-8z" />
    <glyph glyph-name="arrowup" unicode="&#x2191;" horiz-adv-x="1478" 
d="M1393 891l-154 -156l-383 381v-1124h-231v1126l-385 -383l-156 156l643 616h25z" />
    <glyph glyph-name="arrowdown" unicode="&#x2193;" horiz-adv-x="1478" 
d="M1239 690l154 -155l-641 -617h-25l-643 617l156 155l383 -381v1125h231v-1127z" />
    <glyph glyph-name="arrowboth" unicode="&#x2194;" horiz-adv-x="1970" 
d="M1311 1370l616 -641v-24l-616 -642l-156 154l381 383h-1102l381 -383l-153 -154l-619 642v24l619 641l153 -153l-383 -386h1106l-383 386z" />
    <glyph glyph-name="arrowupdn" unicode="&#x2195;" horiz-adv-x="1478" 
d="M856 150l383 380l154 -153l-641 -619h-25l-643 619l156 153l385 -383v1100l-385 -383l-156 154l643 618h25l641 -618l-154 -154l-383 381v-1095z" />
    <glyph glyph-name="uni2196" unicode="&#x2196;" horiz-adv-x="1296" 
d="M1253 246l-166 -166l-794 801v-564h-207v912l23 20h911v-207h-563z" />
    <glyph glyph-name="uni2197" unicode="&#x2197;" horiz-adv-x="1296" 
d="M1188 1249l22 -20v-912h-206v564l-795 -801l-166 166l797 796h-564v207h912z" />
    <glyph glyph-name="uni2198" unicode="&#x2198;" horiz-adv-x="1296" 
d="M1004 1120h208v-911l-20 -25h-911v207h561l-799 795l166 166l795 -795v563z" />
    <glyph glyph-name="uni2199" unicode="&#x2199;" horiz-adv-x="1296" 
d="M1253 1186l-798 -795h561v-207h-912l-20 25v911h209v-565l794 797z" />
    <glyph glyph-name="partialdiff" unicode="&#x2202;" horiz-adv-x="1277" 
d="M1171 676q0 -186 -42 -323.5t-118.5 -217.5t-174 -117.5t-218.5 -37.5q-217 0 -364.5 138t-147.5 353q0 203 132.5 337t341.5 134q122 0 216.5 -47t139.5 -115h16q-24 221 -102 335t-229 114q-96 0 -158 -52t-82 -122h-234q7 75 43.5 146.5t95.5 128t146 90.5t186 34
q270 0 411.5 -198.5t141.5 -579.5zM621 197q121 0 197.5 77.5t76.5 194.5q0 114 -79 185t-200 71q-120 0 -195 -72.5t-75 -189.5q0 -115 78 -190.5t197 -75.5z" />
    <glyph glyph-name="emptyset" unicode="&#x2205;" horiz-adv-x="1617" 
d="M1501 1190l-141 -137q129 -175 129 -398q0 -138 -53.5 -263t-144.5 -215.5t-216.5 -143.5t-263.5 -53q-232 0 -416 141l-147 -141l-131 141l143 139q-129 178 -129 395q0 138 53.5 263.5t144.5 215.5t217 143.5t265 53.5q236 0 414 -139l145 139zM354 655q0 -128 66 -241
l647 624q-116 80 -258 80q-123 0 -228 -62t-166 -168.5t-61 -232.5zM1266 655q0 131 -66 244l-649 -627q115 -79 258 -79q122 0 227.5 61.5t167.5 168t62 232.5z" />
    <glyph glyph-name="product" unicode="&#x220f;" horiz-adv-x="1386" 
d="M1245 1434v-1434h-272v1198h-559v-1198h-273v1434h1104z" />
    <glyph glyph-name="summation" unicode="&#x2211;" horiz-adv-x="1148" 
d="M117 1276v158h936v-205h-570v-15l377 -419v-156l-385 -420v-12h598v-207h-967v158l502 553v12z" />
    <glyph glyph-name="minus" unicode="&#x2212;" 
d="M152 682h884v-217h-884v217z" />
    <glyph glyph-name="radical" unicode="&#x221a;" horiz-adv-x="1445" 
d="M1382 1434v-222h-258l-415 -1212h-326l-348 1024h289l217 -662h16l352 1072h473z" />
    <glyph glyph-name="infinity" unicode="&#x221e;" horiz-adv-x="1640" 
d="M1196 1057q147 0 253.5 -103t106.5 -266t-106.5 -266t-253.5 -103q-227 0 -369 203h-14q-139 -203 -369 -203q-147 0 -253.5 103t-106.5 266t106.5 266t253.5 103q230 0 369 -203h14q142 203 369 203zM477 524q66 0 127 40.5t105 123.5q-44 83 -105 123.5t-127 40.5
q-70 0 -119 -46.5t-49 -117.5t49 -117.5t119 -46.5zM1163 524q70 0 119 46.5t49 117.5t-49 117.5t-119 46.5q-66 0 -126.5 -40.5t-104.5 -123.5q44 -83 104.5 -123.5t126.5 -40.5z" />
    <glyph glyph-name="integral" unicode="&#x222b;" horiz-adv-x="1140" 
d="M864 1454q140 0 234 -80l-70 -176q-63 49 -129 49q-54 0 -93 -32.5t-46 -98.5l-137 -1245q-17 -145 -111.5 -223t-235.5 -78q-142 0 -233 80l72 176q56 -49 129 -49q52 0 92 32.5t47 98.5l137 1245q17 147 111 224t233 77z" />
    <glyph glyph-name="approxequal" unicode="&#x2248;" 
d="M1149 983q-5 -79 -27.5 -147.5t-62 -123.5t-100.5 -86.5t-138 -31.5q-72 0 -129 20.5t-93.5 50t-68 58.5t-67 49.5t-74.5 20.5q-65 0 -97.5 -48.5t-39.5 -123.5h-209q6 81 28.5 150t62 123.5t101 86t138.5 31.5q71 0 128 -20.5t93 -50t67.5 -58.5t67 -49.5t74.5 -20.5
q65 0 97.5 47.5t39.5 122.5h209zM1149 524q-7 -108 -43.5 -194t-110 -141.5t-174.5 -55.5q-72 0 -129 20.5t-93.5 50t-68 58.5t-67 49.5t-74.5 20.5q-65 0 -97.5 -47.5t-39.5 -122.5h-209q6 81 28.5 149.5t62 123t101 85.5t138.5 31q71 0 128 -20.5t93 -49.5t67.5 -58.5
t67 -50t74.5 -20.5q65 0 97.5 48.5t39.5 123.5h209z" />
    <glyph glyph-name="notequal" unicode="&#x2260;" 
d="M1075 694h-311l-148 -241h459v-222h-594l-133 -217l-141 86l80 131h-174v222h309l147 241h-456v224h592l133 217l141 -88l-78 -129h174v-224z" />
    <glyph glyph-name="lessequal" unicode="&#x2264;" 
d="M1067 1208v-231l-698 -215v-14l698 -216v-231l-944 299v309zM1067 0h-944v213h944v-213z" />
    <glyph glyph-name="greaterequal" unicode="&#x2265;" 
d="M123 1208l944 -299v-309l-944 -299v231l698 216v14l-698 215v231zM123 0v213h944v-213h-944z" />
    <glyph glyph-name="lozenge" unicode="&#x25ca;" horiz-adv-x="1257" 
d="M629 1167l585 -594l-585 -593l-586 593zM629 850l-264 -277l264 -276l266 276z" />
    <glyph glyph-name="smileface" unicode="&#x263a;" horiz-adv-x="1687" 
d="M1581 717q0 -151 -58 -287.5t-156.5 -235t-235 -156.5t-287.5 -58q-152 0 -289.5 59t-235.5 158.5t-155.5 235.5t-57.5 284q0 150 58.5 286.5t157 235.5t235.5 157t287 58q153 0 290 -59t235 -158t155 -235t57 -285zM459 1092v-93h90v-262h94v262h90v93h-274zM954 1092
v-93h93v-262h92v262h92v93h-277zM844 166q146 0 271 71t199.5 193t78.5 266l-95 17q0 -123 -60.5 -227.5t-165 -165t-228.5 -60.5q-188 0 -320.5 133t-132.5 320l-94 -17q4 -144 78.5 -266t199 -193t269.5 -71z" />
    <glyph glyph-name="uni2731" unicode="&#x2731;" 
d="M1038 717l-264 -144l264 -143l-96 -170l-256 158l8 -295h-196l6 295l-254 -158l-98 170l264 143l-264 144l98 170l254 -158l-6 295h196l-8 -295l256 158z" />
    <glyph glyph-name="uni2780" unicode="&#x2780;" horiz-adv-x="1708" 
d="M854 -20q-153 0 -291.5 58t-238.5 156.5t-159 235t-59 287.5t59 287.5t159 235t238.5 156.5t291.5 58q203 0 375 -98t272.5 -268t100.5 -371t-100.5 -371t-272.5 -268t-375 -98zM854 137q158 0 292 75t213 209t79 296q0 122 -46.5 230t-125.5 184.5t-186.5 120.5
t-225.5 44t-225.5 -44t-186.5 -120.5t-125.5 -184.5t-46.5 -230q0 -162 79 -296t213 -209t292 -75zM786 322v501h-182v140h82q119 0 119 110v37h153v-788h-172z" />
    <glyph glyph-name="uni2781" unicode="&#x2781;" horiz-adv-x="1708" 
d="M854 -20q-153 0 -291.5 58t-238.5 156.5t-159 235t-59 287.5t59 287.5t159 235t238.5 156.5t291.5 58q203 0 375 -98t272.5 -268t100.5 -371t-100.5 -371t-272.5 -268t-375 -98zM854 137q158 0 292 75t213 209t79 296q0 122 -46.5 230t-125.5 184.5t-186.5 120.5
t-225.5 44t-225.5 -44t-186.5 -120.5t-125.5 -184.5t-46.5 -230q0 -162 79 -296t213 -209t292 -75zM862 598q-82 -50 -96 -117h377v-143h-582v55q0 198 172 305l133 80q31 20 47.5 32.5t34 38t17.5 52.5q0 40 -29.5 66t-73.5 26q-54 0 -85.5 -35t-33.5 -81h-180
q1 46 20 90.5t55.5 83t97 62.5t136.5 24q123 0 198 -62t75 -168q0 -39 -11.5 -73.5t-24.5 -55t-38 -42.5t-35.5 -28.5t-34.5 -21.5z" />
    <glyph glyph-name="uni2782" unicode="&#x2782;" horiz-adv-x="1708" 
d="M854 -20q-153 0 -291.5 58t-238.5 156.5t-159 235t-59 287.5t59 287.5t159 235t238.5 156.5t291.5 58q203 0 375 -98t272.5 -268t100.5 -371t-100.5 -371t-272.5 -268t-375 -98zM854 137q158 0 292 75t213 209t79 296q0 122 -46.5 230t-125.5 184.5t-186.5 120.5
t-225.5 44t-225.5 -44t-186.5 -120.5t-125.5 -184.5t-46.5 -230q0 -162 79 -296t213 -209t292 -75zM1034 729q63 -24 98 -70.5t35 -109.5q0 -102 -88.5 -170t-228.5 -68q-141 0 -220 68.5t-87 185.5h172q22 -110 135 -110q62 0 99.5 29t37.5 73q0 50 -37 77.5t-100 27.5h-80
v126h76q55 0 89 25.5t34 73.5q0 44 -33 70t-86 26q-47 0 -82.5 -25t-44.5 -69h-170q4 102 92.5 166.5t210.5 64.5q119 0 203 -60t84 -161q0 -108 -109 -162v-8z" />
    <glyph glyph-name="uni2783" unicode="&#x2783;" horiz-adv-x="1708" 
d="M854 -20q-153 0 -291.5 58t-238.5 156.5t-159 235t-59 287.5t59 287.5t159 235t238.5 156.5t291.5 58q203 0 375 -98t272.5 -268t100.5 -371t-100.5 -371t-272.5 -268t-375 -98zM854 137q158 0 292 75t213 209t79 296q0 122 -46.5 230t-125.5 184.5t-186.5 120.5
t-225.5 44t-225.5 -44t-186.5 -120.5t-125.5 -184.5t-46.5 -230q0 -162 79 -296t213 -209t292 -75zM1178 621v-129h-146v-170h-164v170h-387v83l379 535h172v-489h146zM678 621h190v266h-10z" />
    <glyph glyph-name="uni2784" unicode="&#x2784;" horiz-adv-x="1708" 
d="M854 -20q-153 0 -291.5 58t-238.5 156.5t-159 235t-59 287.5t59 287.5t159 235t238.5 156.5t291.5 58q203 0 375 -98t272.5 -268t100.5 -371t-100.5 -371t-272.5 -268t-375 -98zM854 137q158 0 292 75t213 209t79 296q0 122 -46.5 230t-125.5 184.5t-186.5 120.5
t-225.5 44t-225.5 -44t-186.5 -120.5t-125.5 -184.5t-46.5 -230q0 -162 79 -296t213 -209t292 -75zM881 821q121 0 193.5 -73t72.5 -185q0 -122 -86.5 -195t-222.5 -73q-131 0 -211 67.5t-86 184.5h168q4 -54 40 -84.5t91 -30.5q60 0 96.5 34.5t36.5 92.5q0 59 -35 97
t-96 38q-87 0 -125 -63l-158 35l41 428h510v-142h-360l-19 -174q50 43 150 43z" />
    <glyph glyph-name="uni2785" unicode="&#x2785;" horiz-adv-x="1708" 
d="M854 -20q-153 0 -291.5 58t-238.5 156.5t-159 235t-59 287.5t59 287.5t159 235t238.5 156.5t291.5 58q203 0 375 -98t272.5 -268t100.5 -371t-100.5 -371t-272.5 -268t-375 -98zM854 137q158 0 292 75t213 209t79 296q0 122 -46.5 230t-125.5 184.5t-186.5 120.5
t-225.5 44t-225.5 -44t-186.5 -120.5t-125.5 -184.5t-46.5 -230q0 -162 79 -296t213 -209t292 -75zM891 829q109 0 182.5 -71t73.5 -185q0 -121 -84.5 -191.5t-216.5 -70.5q-137 0 -220 75.5t-83 201.5q0 131 110 278l181 244h206l-233 -295q35 14 84 14zM848 449
q60 0 95.5 36t35.5 93q0 55 -35.5 91t-95.5 36q-62 0 -97.5 -35.5t-35.5 -91.5q0 -57 35.5 -93t97.5 -36z" />
    <glyph glyph-name="uni2786" unicode="&#x2786;" horiz-adv-x="1708" 
d="M854 -20q-153 0 -291.5 58t-238.5 156.5t-159 235t-59 287.5t59 287.5t159 235t238.5 156.5t291.5 58q203 0 375 -98t272.5 -268t100.5 -371t-100.5 -371t-272.5 -268t-375 -98zM854 137q158 0 292 75t213 209t79 296q0 122 -46.5 230t-125.5 184.5t-186.5 120.5
t-225.5 44t-225.5 -44t-186.5 -120.5t-125.5 -184.5t-46.5 -230q0 -162 79 -296t213 -209t292 -75zM559 1094h592v-103q-117 -130 -198 -303.5t-97 -382.5h-178q34 389 235 637v8h-354v144z" />
    <glyph glyph-name="uni2787" unicode="&#x2787;" horiz-adv-x="1708" 
d="M854 -20q-153 0 -291.5 58t-238.5 156.5t-159 235t-59 287.5t59 287.5t159 235t238.5 156.5t291.5 58q203 0 375 -98t272.5 -268t100.5 -371t-100.5 -371t-272.5 -268t-375 -98zM854 137q158 0 292 75t213 209t79 296q0 122 -46.5 230t-125.5 184.5t-186.5 120.5
t-225.5 44t-225.5 -44t-186.5 -120.5t-125.5 -184.5t-46.5 -230q0 -162 79 -296t213 -209t292 -75zM1024 735q56 -20 97.5 -71t41.5 -127q0 -101 -81.5 -163.5t-225.5 -62.5t-226.5 62t-82.5 164q0 77 42 127t99 71v8q-113 52 -113 162q0 96 79 155.5t204 59.5
q124 0 200.5 -57.5t76.5 -153.5q0 -112 -111 -166v-8zM858 999q-51 0 -84 -27t-33 -71q0 -45 33.5 -72.5t83.5 -27.5t80.5 27.5t30.5 72.5q0 44 -30.5 71t-80.5 27zM856 438q57 0 94 31t37 82q0 52 -35.5 84.5t-95.5 32.5q-61 0 -97 -32.5t-36 -82.5q0 -53 37.5 -84
t95.5 -31z" />
    <glyph glyph-name="uni2788" unicode="&#x2788;" horiz-adv-x="1708" 
d="M854 -20q-153 0 -291.5 58t-238.5 156.5t-159 235t-59 287.5t59 287.5t159 235t238.5 156.5t291.5 58q203 0 375 -98t272.5 -268t100.5 -371t-100.5 -371t-272.5 -268t-375 -98zM854 137q158 0 292 75t213 209t79 296q0 122 -46.5 230t-125.5 184.5t-186.5 120.5
t-225.5 44t-225.5 -44t-186.5 -120.5t-125.5 -184.5t-46.5 -230q0 -162 79 -296t213 -209t292 -75zM817 604q-109 0 -182.5 71t-73.5 185q0 121 84 191.5t217 70.5q137 0 220 -75t83 -201q0 -78 -30.5 -144.5t-79.5 -134.5l-181 -243h-206l233 294q-35 -14 -84 -14zM860 985
q-60 0 -95.5 -36t-35.5 -93q0 -55 35.5 -91t95.5 -36q62 0 97.5 35.5t35.5 91.5q0 57 -35.5 93t-97.5 36z" />
    <glyph glyph-name="uni2789" unicode="&#x2789;" horiz-adv-x="1708" 
d="M854 -20q-153 0 -291.5 58t-238.5 156.5t-159 235t-59 287.5t59 287.5t159 235t238.5 156.5t291.5 58q203 0 375 -98t272.5 -268t100.5 -371t-100.5 -371t-272.5 -268t-375 -98zM854 137q158 0 292 75t213 209t79 296q0 122 -46.5 230t-125.5 184.5t-186.5 120.5
t-225.5 44t-225.5 -44t-186.5 -120.5t-125.5 -184.5t-46.5 -230q0 -162 79 -296t213 -209t292 -75zM1053 352q-117 0 -191 95t-74 272q0 173 73 267.5t188 94.5q116 0 187 -94.5t71 -269.5q0 -176 -70.5 -270.5t-183.5 -94.5zM551 362v441h-141v135h63q94 0 94 104v31h140
v-711h-156zM1051 494q96 0 96 223q0 225 -96 225q-99 0 -99 -225q0 -223 99 -223z" />
    <glyph glyph-name="uni278A" unicode="&#x278a;" horiz-adv-x="1708" 
d="M854 -20q203 0 375 98t272.5 268t100.5 371t-100.5 371t-272.5 268t-375 98q-153 0 -291.5 -58t-238.5 -156.5t-159 -235t-59 -287.5t59 -287.5t159 -235t238.5 -156.5t291.5 -58zM786 322v501h-182v140h82q119 0 119 110v37h153v-788h-172z" />
    <glyph glyph-name="uni278B" unicode="&#x278b;" horiz-adv-x="1708" 
d="M854 -20q203 0 375 98t272.5 268t100.5 371t-100.5 371t-272.5 268t-375 98q-153 0 -291.5 -58t-238.5 -156.5t-159 -235t-59 -287.5t59 -287.5t159 -235t238.5 -156.5t291.5 -58zM862 598q-82 -50 -96 -117h377v-143h-582v55q0 198 172 305l133 80q31 20 47.5 32.5
t34 38t17.5 52.5q0 40 -29.5 66t-73.5 26q-54 0 -85.5 -35t-33.5 -81h-180q1 46 20 90.5t55.5 83t97 62.5t136.5 24q123 0 198 -62t75 -168q0 -39 -11.5 -73.5t-24.5 -55t-38 -42.5t-35.5 -28.5t-34.5 -21.5z" />
    <glyph glyph-name="uni278C" unicode="&#x278c;" horiz-adv-x="1708" 
d="M854 -20q203 0 375 98t272.5 268t100.5 371t-100.5 371t-272.5 268t-375 98q-153 0 -291.5 -58t-238.5 -156.5t-159 -235t-59 -287.5t59 -287.5t159 -235t238.5 -156.5t291.5 -58zM1034 729q63 -24 98 -70.5t35 -109.5q0 -102 -88.5 -170t-228.5 -68q-141 0 -220 68.5
t-87 185.5h172q22 -110 135 -110q62 0 99.5 29t37.5 73q0 50 -37 77.5t-100 27.5h-80v126h76q55 0 89 25.5t34 73.5q0 44 -33 70t-86 26q-47 0 -82.5 -25t-44.5 -69h-170q4 102 92.5 166.5t210.5 64.5q119 0 203 -60t84 -161q0 -108 -109 -162v-8z" />
    <glyph glyph-name="uni278D" unicode="&#x278d;" horiz-adv-x="1708" 
d="M854 -20q203 0 375 98t272.5 268t100.5 371t-100.5 371t-272.5 268t-375 98q-153 0 -291.5 -58t-238.5 -156.5t-159 -235t-59 -287.5t59 -287.5t159 -235t238.5 -156.5t291.5 -58zM1178 621v-129h-146v-170h-164v170h-387v83l379 535h172v-489h146zM678 621h190v266h-10z
" />
    <glyph glyph-name="uni278E" unicode="&#x278e;" horiz-adv-x="1708" 
d="M854 -20q203 0 375 98t272.5 268t100.5 371t-100.5 371t-272.5 268t-375 98q-153 0 -291.5 -58t-238.5 -156.5t-159 -235t-59 -287.5t59 -287.5t159 -235t238.5 -156.5t291.5 -58zM881 821q121 0 193.5 -73t72.5 -185q0 -122 -86.5 -195t-222.5 -73q-131 0 -211 67.5
t-86 184.5h168q4 -54 40 -84.5t91 -30.5q60 0 96.5 34.5t36.5 92.5q0 59 -35 97t-96 38q-87 0 -125 -63l-158 35l41 428h510v-142h-360l-19 -174q50 43 150 43z" />
    <glyph glyph-name="uni278F" unicode="&#x278f;" horiz-adv-x="1708" 
d="M854 -20q203 0 375 98t272.5 268t100.5 371t-100.5 371t-272.5 268t-375 98q-153 0 -291.5 -58t-238.5 -156.5t-159 -235t-59 -287.5t59 -287.5t159 -235t238.5 -156.5t291.5 -58zM891 829q109 0 182.5 -71t73.5 -185q0 -121 -84.5 -191.5t-216.5 -70.5q-137 0 -220 75.5
t-83 201.5q0 131 110 278l181 244h206l-233 -295q35 14 84 14zM848 449q60 0 95.5 36t35.5 93q0 55 -35.5 91t-95.5 36q-62 0 -97.5 -35.5t-35.5 -91.5q0 -57 35.5 -93t97.5 -36z" />
    <glyph glyph-name="uni2790" unicode="&#x2790;" horiz-adv-x="1708" 
d="M854 -20q203 0 375 98t272.5 268t100.5 371t-100.5 371t-272.5 268t-375 98q-153 0 -291.5 -58t-238.5 -156.5t-159 -235t-59 -287.5t59 -287.5t159 -235t238.5 -156.5t291.5 -58zM559 1094h592v-103q-117 -130 -198 -303.5t-97 -382.5h-178q34 389 235 637v8h-354v144z
" />
    <glyph glyph-name="uni2791" unicode="&#x2791;" horiz-adv-x="1708" 
d="M854 -20q203 0 375 98t272.5 268t100.5 371t-100.5 371t-272.5 268t-375 98q-153 0 -291.5 -58t-238.5 -156.5t-159 -235t-59 -287.5t59 -287.5t159 -235t238.5 -156.5t291.5 -58zM1024 735q56 -20 97.5 -71t41.5 -127q0 -101 -81.5 -163.5t-225.5 -62.5t-226.5 62
t-82.5 164q0 77 42 127t99 71v8q-113 52 -113 162q0 96 79 155.5t204 59.5q124 0 200.5 -57.5t76.5 -153.5q0 -112 -111 -166v-8zM858 999q-51 0 -84 -27t-33 -71q0 -45 33.5 -72.5t83.5 -27.5t80.5 27.5t30.5 72.5q0 44 -30.5 71t-80.5 27zM856 438q57 0 94 31t37 82
q0 52 -35.5 84.5t-95.5 32.5q-61 0 -97 -32.5t-36 -82.5q0 -53 37.5 -84t95.5 -31z" />
    <glyph glyph-name="uni2792" unicode="&#x2792;" horiz-adv-x="1708" 
d="M854 -20q203 0 375 98t272.5 268t100.5 371t-100.5 371t-272.5 268t-375 98q-153 0 -291.5 -58t-238.5 -156.5t-159 -235t-59 -287.5t59 -287.5t159 -235t238.5 -156.5t291.5 -58zM817 604q-109 0 -182.5 71t-73.5 185q0 121 84 191.5t217 70.5q137 0 220 -75t83 -201
q0 -78 -30.5 -144.5t-79.5 -134.5l-181 -243h-206l233 294q-35 -14 -84 -14zM860 985q-60 0 -95.5 -36t-35.5 -93q0 -55 35.5 -91t95.5 -36q62 0 97.5 35.5t35.5 91.5q0 57 -35.5 93t-97.5 36z" />
    <glyph glyph-name="uni2793" unicode="&#x2793;" horiz-adv-x="1708" 
d="M854 -20q203 0 375 98t272.5 268t100.5 371t-100.5 371t-272.5 268t-375 98q-153 0 -291.5 -58t-238.5 -156.5t-159 -235t-59 -287.5t59 -287.5t159 -235t238.5 -156.5t291.5 -58zM1053 352q-117 0 -191 95t-74 272q0 173 73 267.5t188 94.5q116 0 187 -94.5t71 -269.5
q0 -176 -70.5 -270.5t-183.5 -94.5zM551 362v441h-141v135h63q94 0 94 104v31h140v-711h-156zM1051 494q96 0 96 223q0 225 -96 225q-99 0 -99 -225q0 -223 99 -223z" />
    <glyph glyph-name="Aacute.ss01" horiz-adv-x="1433" 
d="M909 1843l-139 -297h-104l131 297h112zM1102 0l-117 346h-536l-117 -346h-289l512 1434h326l510 -1434h-289zM522 569h389l-186 553h-16z" />
    <glyph glyph-name="Abreve.ss01" horiz-adv-x="1433" 
d="M719 1591q-63 0 -114 24t-80.5 61.5t-45.5 80.5t-16 86h102q0 -73 42.5 -118.5t111.5 -45.5q68 0 108.5 45t40.5 119h103q0 -43 -15 -86t-44.5 -81t-79.5 -61.5t-113 -23.5zM1102 0l-117 346h-536l-117 -346h-289l512 1434h326l510 -1434h-289zM522 569h389l-186 553h-16
z" />
    <glyph glyph-name="uni01CD.ss01" horiz-adv-x="1433" 
d="M774 1573h-112l-228 270h125l156 -186h6l153 186h125zM1102 0l-117 346h-536l-117 -346h-289l512 1434h326l510 -1434h-289zM522 569h389l-186 553h-16z" />
    <glyph glyph-name="Acircumflex.ss01" horiz-adv-x="1433" 
d="M713 1759l-154 -186h-123l223 270h113l227 -270h-125l-155 186h-6zM1102 0l-117 346h-536l-117 -346h-289l512 1434h326l510 -1434h-289zM522 569h389l-186 553h-16z" />
    <glyph glyph-name="Agrave.ss01" horiz-adv-x="1433" 
d="M770 1546h-104l-140 297h113zM1102 0l-117 346h-536l-117 -346h-289l512 1434h326l510 -1434h-289zM522 569h389l-186 553h-16z" />
    <glyph glyph-name="Amacron.ss01" horiz-adv-x="1433" 
d="M1049 1710v-88h-662v88h662zM1102 0l-117 346h-536l-117 -346h-289l512 1434h326l510 -1434h-289zM522 569h389l-186 553h-16z" />
    <glyph glyph-name="Aogonek.ss01" horiz-adv-x="1433" 
d="M1362 -258q48 0 94 12v-82q-35 -14 -96 -14q-94 0 -156.5 42t-62.5 130q0 109 133 170h-172l-117 346h-536l-117 -346h-289l512 1434h326l510 -1434q-73 -25 -113.5 -68t-40.5 -96q0 -49 35 -71.5t90 -22.5zM522 569h389l-186 553h-16z" />
    <glyph glyph-name="Aring.ss01" horiz-adv-x="1433" 
d="M719 1536q-79 0 -136 52t-57 132t57 132.5t136 52.5q78 0 133 -52.5t55 -132.5t-55 -132t-133 -52zM719 1825q-43 0 -74 -29.5t-31 -73.5q0 -46 30.5 -76t74.5 -30q42 0 72 30t30 76q0 44 -30 73.5t-72 29.5zM1102 0l-117 346h-536l-117 -346h-289l512 1434h326
l510 -1434h-289zM522 569h389l-186 553h-16z" />
    <glyph glyph-name="Atilde.ss01" horiz-adv-x="1433" 
d="M588 1681q-48 0 -74 -33.5t-31 -84.5h-94q10 90 57.5 150.5t131.5 60.5q52 0 93.5 -21t64 -46t53 -46t63.5 -21q46 0 72.5 33t33.5 84h91q-6 -89 -55.5 -150t-131.5 -61q-42 0 -76.5 14t-58 34t-44 39.5t-44.5 33.5t-51 14zM1102 0l-117 346h-536l-117 -346h-289
l512 1434h326l510 -1434h-289zM522 569h389l-186 553h-16z" />
    <glyph glyph-name="AEacute.ss01" horiz-adv-x="2142" 
d="M1702 1843l-139 -297h-105l131 297h113zM1380 236h686v-236h-948v344h-530l-226 -344h-319l932 1434h1071v-236h-666v-356h570v-230h-570v-376zM737 569h381v553h-18z" />
    <glyph glyph-name="uni01E2.ss01" horiz-adv-x="2142" 
d="M1843 1710v-88h-661v88h661zM1380 236h686v-236h-948v344h-530l-226 -344h-319l932 1434h1071v-236h-666v-356h570v-230h-570v-376zM737 569h381v553h-18z" />
    <glyph glyph-name="Cacute.ss01" horiz-adv-x="1550" 
d="M893 1843h113l-140 -297h-104zM1464 461q-23 -150 -116 -260t-231.5 -165.5t-305.5 -55.5q-215 0 -376 95t-245 260t-84 376q0 215 87.5 384t248.5 264t369 95q250 0 422.5 -128.5t208.5 -360.5h-291q-34 112 -122.5 175.5t-217.5 63.5q-125 0 -223.5 -65t-151.5 -177
t-53 -251q0 -214 121.5 -348t306.5 -134q137 0 233 63t130 169h290z" />
    <glyph glyph-name="Ccaron.ss01" horiz-adv-x="1550" 
d="M973 1843h125l-226 -270h-112l-228 270h125l156 -186h6zM1464 461q-23 -150 -116 -260t-231.5 -165.5t-305.5 -55.5q-215 0 -376 95t-245 260t-84 376q0 215 87.5 384t248.5 264t369 95q250 0 422.5 -128.5t208.5 -360.5h-291q-34 112 -122.5 175.5t-217.5 63.5
q-125 0 -223.5 -65t-151.5 -177t-53 -251q0 -214 121.5 -348t306.5 -134q137 0 233 63t130 169h290z" />
    <glyph glyph-name="Ccedilla.ss01" horiz-adv-x="1550" 
d="M1464 461q-22 -144 -109 -251.5t-217 -165t-288 -64.5l-53 -70q78 5 142.5 -41t64.5 -131q0 -76 -54.5 -122t-148.5 -46q-80 0 -139 41l30 67q58 -28 105 -28q52 0 83 26t31 68q0 43 -29.5 69.5t-93.5 26.5q-34 0 -75 -18l-47 43l86 117q-198 13 -345.5 110.5t-224 257.5
t-76.5 361q0 215 87.5 384t248.5 264t369 95q250 0 422.5 -128.5t208.5 -360.5h-291q-34 112 -122.5 175.5t-217.5 63.5q-125 0 -223.5 -65t-151.5 -177t-53 -251q0 -214 121.5 -348t306.5 -134q137 0 233 63t130 169h290z" />
    <glyph glyph-name="Ccircumflex.ss01" horiz-adv-x="1550" 
d="M657 1573h-122l223 270h112l228 -270h-125l-156 186h-6zM1464 461q-23 -150 -116 -260t-231.5 -165.5t-305.5 -55.5q-215 0 -376 95t-245 260t-84 376q0 215 87.5 384t248.5 264t369 95q250 0 422.5 -128.5t208.5 -360.5h-291q-34 112 -122.5 175.5t-217.5 63.5
q-125 0 -223.5 -65t-151.5 -177t-53 -251q0 -214 121.5 -348t306.5 -134q137 0 233 63t130 169h290z" />
    <glyph glyph-name="Eth.ss01" horiz-adv-x="1447" 
d="M643 1434q327 0 512.5 -191.5t185.5 -525.5q0 -331 -186 -524t-512 -193h-502v672h-227v90h227v672h502zM633 242q110 0 194 36t135.5 101.5t77 152t25.5 193.5q0 216 -107 341.5t-325 125.5h-221v-430h362v-90h-362v-430h221z" />
    <glyph glyph-name="Dcaron.ss01" horiz-adv-x="1447" 
d="M864 1843h125l-225 -270h-113l-227 270h125l156 -186h6zM643 1434q327 0 512.5 -191.5t185.5 -525.5q0 -331 -186 -524t-512 -193h-502v1434h502zM633 242q110 0 194 36t135.5 101.5t77 152t25.5 193.5q0 216 -107 341.5t-325 125.5h-221v-950h221z" />
    <glyph glyph-name="Dcroat.ss01" horiz-adv-x="1447" 
d="M643 1434q327 0 512.5 -191.5t185.5 -525.5q0 -331 -186 -524t-512 -193h-502v672h-227v90h227v672h502zM633 242q110 0 194 36t135.5 101.5t77 152t25.5 193.5q0 216 -107 341.5t-325 125.5h-221v-430h362v-90h-362v-430h221z" />
    <glyph glyph-name="Eacute.ss01" horiz-adv-x="1200" 
d="M702 1843h113l-139 -297h-105zM406 236h716v-236h-981v1434h961v-236h-696v-356h600v-230h-600v-376z" />
    <glyph glyph-name="Ebreve.ss01" horiz-adv-x="1200" 
d="M874 1843q0 -43 -15 -86t-44 -81t-79 -61.5t-113 -23.5t-114 24t-80.5 61.5t-45.5 80.5t-16 86h102q0 -73 42.5 -118.5t111.5 -45.5q68 0 108.5 45t40.5 119h102zM406 236h716v-236h-981v1434h961v-236h-696v-356h600v-230h-600v-376z" />
    <glyph glyph-name="Ecaron.ss01" horiz-adv-x="1200" 
d="M780 1843h125l-225 -270h-113l-227 270h125l156 -186h6zM406 236h716v-236h-981v1434h961v-236h-696v-356h600v-230h-600v-376z" />
    <glyph glyph-name="uni0228.ss01" horiz-adv-x="1200" 
d="M1122 0h-438l-68 -90q78 5 142.5 -41t64.5 -131q0 -76 -54 -122t-148 -46q-81 0 -140 41l31 67q58 -28 104 -28q52 0 83.5 26t31.5 68q0 43 -29.5 69.5t-93.5 26.5q-35 0 -76 -18l-47 43l101 135h-445v1434h961v-236h-696v-356h600v-230h-600v-376h716v-236z" />
    <glyph glyph-name="Ecircumflex.ss01" horiz-adv-x="1200" 
d="M465 1573h-123l223 270h113l227 -270h-125l-155 186h-7zM406 236h716v-236h-981v1434h961v-236h-696v-356h600v-230h-600v-376z" />
    <glyph glyph-name="Egrave.ss01" horiz-adv-x="1200" 
d="M545 1843l131 -297h-105l-139 297h113zM406 236h716v-236h-981v1434h961v-236h-696v-356h600v-230h-600v-376z" />
    <glyph glyph-name="Emacron.ss01" horiz-adv-x="1200" 
d="M293 1710h661v-88h-661v88zM406 236h716v-236h-981v1434h961v-236h-696v-356h600v-230h-600v-376z" />
    <glyph glyph-name="Eogonek.ss01" horiz-adv-x="1200" 
d="M1094 -258q48 0 94 12v-82q-35 -14 -96 -14q-94 0 -157 42t-63 130q0 109 134 170h-865v1434h961v-236h-696v-356h600v-230h-600v-376h716v-236q-73 -25 -113 -67.5t-40 -96.5q0 -49 35 -71.5t90 -22.5z" />
    <glyph glyph-name="uni1EBC.ss01" horiz-adv-x="1200" 
d="M954 1757q-6 -89 -55 -150t-131 -61q-42 0 -76.5 14t-58 34t-44 39.5t-44.5 33.5t-51 14q-48 0 -74 -33.5t-31 -84.5h-94q10 90 57 150.5t131 60.5q43 0 77.5 -14t57.5 -33.5t43.5 -39t45 -33.5t51.5 -14q46 0 72.5 33t33.5 84h90zM406 236h716v-236h-981v1434h961v-236
h-696v-356h600v-230h-600v-376z" />
    <glyph glyph-name="uni01F4.ss01" horiz-adv-x="1611" 
d="M883 1843h112l-139 -297h-104zM821 778h649v-778h-215l-26 137h-17q-25 -25 -59.5 -49t-87 -50t-126 -42t-155.5 -16q-204 0 -358.5 91.5t-237 253.5t-82.5 371q0 162 53.5 302t148.5 240.5t231 158t295 57.5q266 0 429.5 -129t194.5 -330h-295q-33 98 -118 153.5
t-211 55.5q-204 0 -327.5 -142.5t-123.5 -365.5q0 -212 116.5 -343.5t319.5 -131.5q168 0 275.5 74t107.5 211v61h-381v211z" />
    <glyph glyph-name="Gbreve.ss01" horiz-adv-x="1611" 
d="M1057 1843q0 -43 -15 -86t-44.5 -81t-79.5 -61.5t-113 -23.5t-114 24t-80.5 61.5t-45.5 80.5t-16 86h102q0 -73 42.5 -118.5t111.5 -45.5q68 0 108.5 45t40.5 119h103zM821 778h649v-778h-215l-26 137h-17q-25 -25 -59.5 -49t-87 -50t-126 -42t-155.5 -16
q-204 0 -358.5 91.5t-237 253.5t-82.5 371q0 162 53.5 302t148.5 240.5t231 158t295 57.5q266 0 429.5 -129t194.5 -330h-295q-33 98 -118 153.5t-211 55.5q-204 0 -327.5 -142.5t-123.5 -365.5q0 -212 116.5 -343.5t319.5 -131.5q168 0 275.5 74t107.5 211v61h-381v211z
" />
    <glyph glyph-name="Gcaron.ss01" horiz-adv-x="1611" 
d="M963 1843h124l-225 -270h-112l-228 270h125l156 -186h6zM821 778h649v-778h-215l-26 137h-17q-25 -25 -59.5 -49t-87 -50t-126 -42t-155.5 -16q-204 0 -358.5 91.5t-237 253.5t-82.5 371q0 162 53.5 302t148.5 240.5t231 158t295 57.5q266 0 429.5 -129t194.5 -330h-295
q-33 98 -118 153.5t-211 55.5q-204 0 -327.5 -142.5t-123.5 -365.5q0 -212 116.5 -343.5t319.5 -131.5q168 0 275.5 74t107.5 211v61h-381v211z" />
    <glyph glyph-name="Gcircumflex.ss01" horiz-adv-x="1611" 
d="M647 1573h-123l224 270h112l227 -270h-124l-156 186h-6zM821 778h649v-778h-215l-26 137h-17q-25 -25 -59.5 -49t-87 -50t-126 -42t-155.5 -16q-204 0 -358.5 91.5t-237 253.5t-82.5 371q0 162 53.5 302t148.5 240.5t231 158t295 57.5q266 0 429.5 -129t194.5 -330h-295
q-33 98 -118 153.5t-211 55.5q-204 0 -327.5 -142.5t-123.5 -365.5q0 -212 116.5 -343.5t319.5 -131.5q168 0 275.5 74t107.5 211v61h-381v211z" />
    <glyph glyph-name="uni0122.ss01" horiz-adv-x="1611" 
d="M821 778h649v-778h-215l-26 137h-17q-25 -25 -59.5 -49t-87 -50t-126 -42t-155.5 -16q-204 0 -358.5 91.5t-237 253.5t-82.5 371q0 162 53.5 302t148.5 240.5t231 158t295 57.5q266 0 429.5 -129t194.5 -330h-295q-33 98 -118 153.5t-211 55.5q-204 0 -327.5 -142.5
t-123.5 -365.5q0 -212 116.5 -343.5t319.5 -131.5q168 0 275.5 74t107.5 211v61h-381v211zM799 -104q79 0 124.5 -58t45.5 -149q0 -223 -267 -367l-49 68q6 4 25.5 17.5l26 18t24 17t24 18.5t20.5 17.5t20.5 19.5t17 20t16.5 22t12.5 22.5t10.5 25.5q-25 -8 -62 -8
q-69 0 -110 46t-41 108q0 76 45 119t117 43z" />
    <glyph glyph-name="uni1E20.ss01" horiz-adv-x="1611" 
d="M475 1710h662v-88h-662v88zM821 778h649v-778h-215l-26 137h-17q-25 -25 -59.5 -49t-87 -50t-126 -42t-155.5 -16q-204 0 -358.5 91.5t-237 253.5t-82.5 371q0 162 53.5 302t148.5 240.5t231 158t295 57.5q266 0 429.5 -129t194.5 -330h-295q-33 98 -118 153.5t-211 55.5
q-204 0 -327.5 -142.5t-123.5 -365.5q0 -212 116.5 -343.5t319.5 -131.5q168 0 275.5 74t107.5 211v61h-381v211z" />
    <glyph glyph-name="Hbar.ss01" horiz-adv-x="1425" 
d="M1014 1434h270v-1434h-270v604h-602v-604h-271v1434h271v-248h602v248zM412 848h602v246h-602v-246z" />
    <glyph glyph-name="uni021E.ss01" horiz-adv-x="1425" 
d="M864 1843h125l-225 -270h-113l-227 270h125l156 -186h6zM1014 1434h270v-1434h-270v604h-602v-604h-271v1434h271v-586h602v586z" />
    <glyph glyph-name="uni1E28.ss01" horiz-adv-x="1425" 
d="M1014 1434h270v-1434h-270v604h-602v-604h-86l-68 -90q78 5 142.5 -41t64.5 -131q0 -76 -54.5 -122t-148.5 -46q-80 0 -139 41l31 67q58 -28 104 -28q52 0 83.5 26t31.5 68q0 43 -29.5 69.5t-93.5 26.5q-35 0 -76 -18l-47 43l100 135h-86v1434h271v-586h602v586z" />
    <glyph glyph-name="Hcircumflex.ss01" horiz-adv-x="1425" 
d="M549 1573h-123l223 270h113l227 -270h-125l-155 186h-7zM1014 1434h270v-1434h-270v604h-602v-604h-271v1434h271v-586h602v586z" />
    <glyph glyph-name="Iacute.ss01" horiz-adv-x="552" 
d="M356 1843h113l-139 -297h-105zM412 1434v-1434h-271v1434h271z" />
    <glyph glyph-name="Ibreve.ss01" horiz-adv-x="552" 
d="M530 1843q0 -43 -15 -86t-44 -81t-79 -61.5t-113 -23.5t-114 24t-80.5 61.5t-45.5 80.5t-16 86h102q0 -73 42.5 -118.5t111.5 -45.5q68 0 108.5 45t40.5 119h102zM412 1434v-1434h-271v1434h271z" />
    <glyph glyph-name="uni01CF.ss01" horiz-adv-x="552" 
d="M434 1843h125l-225 -270h-113l-227 270h125l155 -186h7zM412 1434v-1434h-271v1434h271z" />
    <glyph glyph-name="Icircumflex.ss01" horiz-adv-x="552" 
d="M119 1573h-123l223 270h113l227 -270h-125l-155 186h-7zM412 1434v-1434h-271v1434h271z" />
    <glyph glyph-name="Igrave.ss01" horiz-adv-x="552" 
d="M199 1843l131 -297h-105l-139 297h113zM412 1434v-1434h-271v1434h271z" />
    <glyph glyph-name="Imacron.ss01" horiz-adv-x="552" 
d="M-53 1710h661v-88h-661v88zM412 1434v-1434h-271v1434h271z" />
    <glyph glyph-name="Iogonek.ss01" horiz-adv-x="552" 
d="M383 -258q47 0 94 12v-82q-35 -14 -96 -14q-94 0 -156.5 42t-62.5 130q0 109 133 170h-154v1434h271v-1434q-73 -25 -113.5 -68t-40.5 -96q0 -49 35 -71.5t90 -22.5z" />
    <glyph glyph-name="Itilde.ss01" horiz-adv-x="552" 
d="M608 1757q-6 -89 -55 -150t-131 -61q-42 0 -77 14t-58 34t-44 39.5t-45 33.5t-51 14q-48 0 -73.5 -33.5t-30.5 -84.5h-94q10 90 57 150.5t131 60.5q43 0 77.5 -14t57.5 -33.5t43.5 -39t45 -33.5t51.5 -14q46 0 72.5 33t33.5 84h90zM412 1434v-1434h-271v1434h271z" />
    <glyph glyph-name="Jcircumflex.ss01" horiz-adv-x="1124" 
d="M690 1573h-123l224 270h112l227 -270h-124l-156 186h-6zM348 432q5 -91 51 -147t131 -56q88 0 136.5 56t48.5 164v985h268v-994q0 -222 -122.5 -341t-328.5 -119q-219 0 -341.5 121.5t-127.5 330.5h285z" />
    <glyph glyph-name="uni0136.ss01" horiz-adv-x="1327" 
d="M977 0l-461 614h-104v-614h-271v1434h271v-576h104l406 576h303l-486 -680v-15l545 -739h-307zM690 -104q80 0 125 -58t45 -149q0 -224 -266 -367l-49 68q4 3 25.5 18t26 18t23.5 16.5t24 18.5t20.5 17.5t21 19.5t16.5 19.5t16.5 22.5t12 22.5t10.5 25.5q-25 -8 -61 -8
q-69 0 -110.5 46t-41.5 108q0 76 45 119t117 43z" />
    <glyph glyph-name="Lacute.ss01" horiz-adv-x="1185" 
d="M340 1843h113l-140 -297h-104zM406 242h714v-242h-979v1434h265v-1192z" />
    <glyph glyph-name="Lcaron.ss01" horiz-adv-x="1185" 
d="M729 1450q72 0 114 -56.5t42 -146.5q0 -225 -242 -379l-47 58q71 57 116.5 107.5t63.5 111.5q-23 -6 -55 -6q-66 1 -103.5 46t-37.5 111q0 70 42 112t107 42zM406 242h714v-242h-979v1434h265v-1192z" />
    <glyph glyph-name="uni013B.ss01" horiz-adv-x="1185" 
d="M406 242h714v-242h-979v1434h265v-1192zM614 -104q80 0 125 -58t45 -149q0 -224 -266 -367l-49 68q6 4 25.5 17.5l26 18t24 17t24 18.5t20.5 17.5t20.5 19.5t17 20t16.5 22t12.5 22.5t10.5 25.5q-25 -8 -62 -8q-69 0 -110 46t-41 108q0 76 44.5 119t116.5 43z" />
    <glyph glyph-name="Lslash.ss01" horiz-adv-x="1185" 
d="M406 242h714v-242h-979v580l-223 -107v107l223 106v748h265v-621l366 176v-106l-366 -176v-465z" />
    <glyph glyph-name="Nacute.ss01" horiz-adv-x="1484" 
d="M821 1843h113l-139 -297h-105zM1079 1434h264v-1434h-276l-645 958h-16v-958h-265v1434h277l645 -965h16v965z" />
    <glyph glyph-name="Ncaron.ss01" horiz-adv-x="1484" 
d="M899 1843h125l-225 -270h-113l-227 270h125l155 -186h6zM1079 1434h264v-1434h-276l-645 958h-16v-958h-265v1434h277l645 -965h16v965z" />
    <glyph glyph-name="uni0145.ss01" horiz-adv-x="1484" 
d="M1079 1434h264v-1434h-276l-645 958h-16v-958h-265v1434h277l645 -965h16v965zM737 -104q80 0 125 -58t45 -149q0 -224 -266 -367l-49 68q4 3 25.5 18t26 18t23.5 16.5t24 18.5t20.5 17.5t21 19.5t16.5 19.5t16.5 22.5t12 22.5t10.5 25.5q-25 -8 -61 -8q-69 0 -110.5 46
t-41.5 108q0 76 45 119t117 43z" />
    <glyph glyph-name="uni01F8.ss01" horiz-adv-x="1484" 
d="M664 1843l131 -297h-105l-139 297h113zM1079 1434h264v-1434h-276l-645 958h-16v-958h-265v1434h277l645 -965h16v965z" />
    <glyph glyph-name="Ntilde.ss01" horiz-adv-x="1484" 
d="M1073 1757q-6 -89 -55 -150t-131 -61q-42 0 -77 14t-58 34t-44 39.5t-45 33.5t-51 14q-48 0 -73.5 -33.5t-30.5 -84.5h-94q10 90 57 150.5t131 60.5q43 0 77.5 -14t57.5 -33.5t43.5 -39t45 -33.5t51.5 -14q46 0 72.5 33t33.5 84h90zM1079 1434h264v-1434h-276l-645 958
h-16v-958h-265v1434h277l645 -965h16v965z" />
    <glyph glyph-name="Oacute.ss01" horiz-adv-x="1679" 
d="M920 1843h112l-139 -297h-105zM840 -20q-208 0 -376 95.5t-263 264.5t-95 377q0 155 55.5 292t152 234.5t233.5 154t293 56.5t292.5 -56.5t233 -154t152 -234.5t55.5 -292q0 -124 -35 -237t-100.5 -203.5t-155 -157.5t-203 -103t-239.5 -36zM842 229q196 0 325 139
t129 349q0 209 -130 348t-326 139t-326.5 -139t-130.5 -348q0 -210 130.5 -349t328.5 -139z" />
    <glyph glyph-name="Obreve.ss01" horiz-adv-x="1679" 
d="M1092 1843q0 -43 -15 -86t-44.5 -81t-79.5 -61.5t-113 -23.5t-114 24t-80.5 61.5t-45.5 80.5t-16 86h102q0 -73 42.5 -118.5t111.5 -45.5q68 0 108.5 45t40.5 119h103zM840 -20q-208 0 -376 95.5t-263 264.5t-95 377q0 155 55.5 292t152 234.5t233.5 154t293 56.5
t292.5 -56.5t233 -154t152 -234.5t55.5 -292q0 -124 -35 -237t-100.5 -203.5t-155 -157.5t-203 -103t-239.5 -36zM842 229q196 0 325 139t129 349q0 209 -130 348t-326 139t-326.5 -139t-130.5 -348q0 -210 130.5 -349t328.5 -139z" />
    <glyph glyph-name="uni01D1.ss01" horiz-adv-x="1679" 
d="M997 1843h125l-225 -270h-113l-227 270h125l156 -186h6zM840 -20q-208 0 -376 95.5t-263 264.5t-95 377q0 155 55.5 292t152 234.5t233.5 154t293 56.5t292.5 -56.5t233 -154t152 -234.5t55.5 -292q0 -124 -35 -237t-100.5 -203.5t-155 -157.5t-203 -103t-239.5 -36z
M842 229q196 0 325 139t129 349q0 209 -130 348t-326 139t-326.5 -139t-130.5 -348q0 -210 130.5 -349t328.5 -139z" />
    <glyph glyph-name="Ocircumflex.ss01" horiz-adv-x="1679" 
d="M682 1573h-123l223 270h113l227 -270h-125l-155 186h-6zM840 -20q-208 0 -376 95.5t-263 264.5t-95 377q0 155 55.5 292t152 234.5t233.5 154t293 56.5t292.5 -56.5t233 -154t152 -234.5t55.5 -292q0 -124 -35 -237t-100.5 -203.5t-155 -157.5t-203 -103t-239.5 -36z
M842 229q196 0 325 139t129 349q0 209 -130 348t-326 139t-326.5 -139t-130.5 -348q0 -210 130.5 -349t328.5 -139z" />
    <glyph glyph-name="Ograve.ss01" horiz-adv-x="1679" 
d="M762 1843l131 -297h-105l-139 297h113zM840 -20q-208 0 -376 95.5t-263 264.5t-95 377q0 155 55.5 292t152 234.5t233.5 154t293 56.5t292.5 -56.5t233 -154t152 -234.5t55.5 -292q0 -124 -35 -237t-100.5 -203.5t-155 -157.5t-203 -103t-239.5 -36zM842 229
q196 0 325 139t129 349q0 209 -130 348t-326 139t-326.5 -139t-130.5 -348q0 -210 130.5 -349t328.5 -139z" />
    <glyph glyph-name="Ohungarumlaut.ss01" horiz-adv-x="1679" 
d="M758 1843h110l-127 -297h-102zM1057 1843h112l-131 -297h-98zM840 -20q-208 0 -376 95.5t-263 264.5t-95 377q0 155 55.5 292t152 234.5t233.5 154t293 56.5t292.5 -56.5t233 -154t152 -234.5t55.5 -292q0 -124 -35 -237t-100.5 -203.5t-155 -157.5t-203 -103t-239.5 -36
zM842 229q196 0 325 139t129 349q0 209 -130 348t-326 139t-326.5 -139t-130.5 -348q0 -210 130.5 -349t328.5 -139z" />
    <glyph glyph-name="Omacron.ss01" horiz-adv-x="1679" 
d="M510 1710h661v-88h-661v88zM840 -20q-208 0 -376 95.5t-263 264.5t-95 377q0 155 55.5 292t152 234.5t233.5 154t293 56.5t292.5 -56.5t233 -154t152 -234.5t55.5 -292q0 -124 -35 -237t-100.5 -203.5t-155 -157.5t-203 -103t-239.5 -36zM842 229q196 0 325 139t129 349
q0 209 -130 348t-326 139t-326.5 -139t-130.5 -348q0 -210 130.5 -349t328.5 -139z" />
    <glyph glyph-name="uni01EA.ss01" horiz-adv-x="1679" 
d="M1006 -4q-68 -25 -106 -66.5t-38 -93.5q0 -49 35 -71.5t90 -22.5q47 0 94 12v-82q-35 -14 -96 -14q-94 0 -156.5 42t-62.5 130q0 91 94 150h-20q-208 0 -376 95.5t-263 264.5t-95 377q0 155 55.5 292t152 234.5t233.5 154t293 56.5t292.5 -56.5t233 -154t152 -234.5
t55.5 -292q0 -270 -156.5 -468.5t-410.5 -252.5zM383 717q0 -210 130.5 -349t328.5 -139q196 0 325 139t129 349q0 209 -130 348t-326 139t-326.5 -139t-130.5 -348z" />
    <glyph glyph-name="Oslash.ss01" horiz-adv-x="1679" 
d="M1325 1280q117 -101 182.5 -247t65.5 -316q0 -124 -35 -237t-100.5 -203.5t-155 -157.5t-203 -103t-239.5 -36q-228 0 -404 112l-129 -170l-78 58l127 172q-119 101 -184.5 247t-65.5 318q0 155 55.5 292t152 234.5t233.5 154t293 56.5q223 0 403 -113l125 168l84 -61z
M383 717q0 -213 133 -352l571 768q-110 71 -247 71q-196 0 -326.5 -139t-130.5 -348zM842 229q196 0 325 139t129 349q0 211 -131 348l-573 -762q113 -74 250 -74z" />
    <glyph glyph-name="Oslashacute.ss01" horiz-adv-x="1679" 
d="M1032 1843l-139 -297h-105l132 297h112zM1325 1280q117 -101 182.5 -247t65.5 -316q0 -124 -35 -237t-100.5 -203.5t-155 -157.5t-203 -103t-239.5 -36q-228 0 -404 112l-129 -170l-78 58l127 172q-119 101 -184.5 247t-65.5 318q0 155 55.5 292t152 234.5t233.5 154
t293 56.5q223 0 403 -113l125 168l84 -61zM383 717q0 -213 133 -352l571 768q-110 71 -247 71q-196 0 -326.5 -139t-130.5 -348zM842 229q196 0 325 139t129 349q0 211 -131 348l-573 -762q113 -74 250 -74z" />
    <glyph glyph-name="Otilde.ss01" horiz-adv-x="1679" 
d="M1171 1757q-6 -89 -55 -150t-131 -61q-42 0 -76.5 14t-58 34t-44 39.5t-44.5 33.5t-51 14q-48 0 -74 -33.5t-31 -84.5h-94q10 90 57 150.5t131 60.5q43 0 77.5 -14t57.5 -33.5t43.5 -39t45 -33.5t51.5 -14q46 0 72.5 33t33.5 84h90zM840 -20q-208 0 -376 95.5t-263 264.5
t-95 377q0 155 55.5 292t152 234.5t233.5 154t293 56.5t292.5 -56.5t233 -154t152 -234.5t55.5 -292q0 -124 -35 -237t-100.5 -203.5t-155 -157.5t-203 -103t-239.5 -36zM842 229q196 0 325 139t129 349q0 209 -130 348t-326 139t-326.5 -139t-130.5 -348q0 -210 130.5 -349
t328.5 -139z" />
    <glyph glyph-name="Racute.ss01" horiz-adv-x="1288" 
d="M844 1843l-139 -297h-105l131 297h113zM1225 0h-287l-299 559h-233v-559h-265v1434h568q213 0 337.5 -115.5t124.5 -306.5q0 -144 -73 -249t-203 -155zM406 1204v-416h272q103 0 163 58.5t60 150.5q0 96 -59.5 151.5t-163.5 55.5h-272z" />
    <glyph glyph-name="Rcaron.ss01" horiz-adv-x="1288" 
d="M711 1573h-113l-227 270h125l155 -186h6l154 186h125zM1225 0h-287l-299 559h-233v-559h-265v1434h568q213 0 337.5 -115.5t124.5 -306.5q0 -144 -73 -249t-203 -155zM406 1204v-416h272q103 0 163 58.5t60 150.5q0 96 -59.5 151.5t-163.5 55.5h-272z" />
    <glyph glyph-name="uni0156.ss01" horiz-adv-x="1288" 
d="M895 608l330 -608h-287l-299 559h-233v-559h-265v1434h568q213 0 337.5 -115.5t124.5 -306.5q0 -144 -73 -249t-203 -155zM406 1204v-416h272q103 0 163 58.5t60 150.5q0 96 -59.5 151.5t-163.5 55.5h-272zM666 -104q80 0 125 -58t45 -149q0 -223 -267 -367l-49 68
q6 4 25.5 17.5l26 18t24 17t24 18.5t20.5 17.5t20.5 19.5t17 20t16.5 22t12.5 22.5t10.5 25.5q-25 -8 -62 -8q-69 0 -110 46t-41 108q0 76 45 119t117 43z" />
    <glyph glyph-name="Sacute.ss01" horiz-adv-x="1249" 
d="M715 1843h112l-139 -297h-104zM1139 393q0 -102 -40.5 -182.5t-110 -130t-158 -75t-189.5 -25.5q-251 0 -389 123.5t-146 334.5h267q9 -109 78 -169t190 -60q99 0 162 43.5t63 132.5q0 42 -17 76.5t-40 56.5t-64 42t-71.5 30.5t-79.5 25.5l-82 25q-360 108 -360 399
q0 188 137 301t348 113q218 0 350.5 -118t138.5 -304h-266q-9 88 -65.5 140.5t-155.5 52.5q-96 0 -155.5 -47t-59.5 -125q0 -36 15 -65t35.5 -48t58 -37t64.5 -27.5t73 -23.5l71 -23q36 -11 65 -21.5t72 -30.5t76.5 -42.5t69.5 -57t60 -74t39.5 -94t15.5 -116.5z" />
    <glyph glyph-name="Scaron.ss01" horiz-adv-x="1249" 
d="M795 1843h125l-226 -270h-112l-228 270h125l156 -186h6zM1139 393q0 -102 -40.5 -182.5t-110 -130t-158 -75t-189.5 -25.5q-251 0 -389 123.5t-146 334.5h267q9 -109 78 -169t190 -60q99 0 162 43.5t63 132.5q0 42 -17 76.5t-40 56.5t-64 42t-71.5 30.5t-79.5 25.5
l-82 25q-360 108 -360 399q0 188 137 301t348 113q218 0 350.5 -118t138.5 -304h-266q-9 88 -65.5 140.5t-155.5 52.5q-96 0 -155.5 -47t-59.5 -125q0 -36 15 -65t35.5 -48t58 -37t64.5 -27.5t73 -23.5l71 -23q36 -11 65 -21.5t72 -30.5t76.5 -42.5t69.5 -57t60 -74
t39.5 -94t15.5 -116.5z" />
    <glyph glyph-name="Scedilla.ss01" horiz-adv-x="1249" 
d="M1139 393q0 -98 -37 -176.5t-102 -128t-148.5 -77t-179.5 -31.5l-54 -70q78 5 142.5 -41t64.5 -131q0 -76 -54 -122t-148 -46q-81 0 -140 41l31 67q58 -28 104 -28q52 0 83.5 26t31.5 68q0 43 -29.5 69.5t-93.5 26.5q-34 0 -75 -18l-48 43l86 117q-220 17 -339.5 138.5
t-127.5 317.5h267q9 -109 78 -169t190 -60q99 0 162 43.5t63 132.5q0 42 -17 76.5t-40 56.5t-64 42t-71.5 30.5t-79.5 25.5l-82 25q-360 108 -360 399q0 188 137 301t348 113q218 0 350.5 -118t138.5 -304h-266q-9 88 -65.5 140.5t-155.5 52.5q-96 0 -155.5 -47t-59.5 -125
q0 -36 15 -65t35.5 -48t58 -37t64.5 -27.5t73 -23.5l71 -23q36 -11 65 -21.5t72 -30.5t76.5 -42.5t69.5 -57t60 -74t39.5 -94t15.5 -116.5z" />
    <glyph glyph-name="Scircumflex.ss01" horiz-adv-x="1249" 
d="M479 1573h-123l224 270h112l228 -270h-125l-156 186h-6zM1139 393q0 -102 -40.5 -182.5t-110 -130t-158 -75t-189.5 -25.5q-251 0 -389 123.5t-146 334.5h267q9 -109 78 -169t190 -60q99 0 162 43.5t63 132.5q0 42 -17 76.5t-40 56.5t-64 42t-71.5 30.5t-79.5 25.5
l-82 25q-360 108 -360 399q0 188 137 301t348 113q218 0 350.5 -118t138.5 -304h-266q-9 88 -65.5 140.5t-155.5 52.5q-96 0 -155.5 -47t-59.5 -125q0 -36 15 -65t35.5 -48t58 -37t64.5 -27.5t73 -23.5l71 -23q36 -11 65 -21.5t72 -30.5t76.5 -42.5t69.5 -57t60 -74
t39.5 -94t15.5 -116.5z" />
    <glyph glyph-name="uni0218.ss01" horiz-adv-x="1249" 
d="M1139 393q0 -102 -40.5 -182.5t-110 -130t-158 -75t-189.5 -25.5q-251 0 -389 123.5t-146 334.5h267q9 -109 78 -169t190 -60q99 0 162 43.5t63 132.5q0 42 -17 76.5t-40 56.5t-64 42t-71.5 30.5t-79.5 25.5l-82 25q-360 108 -360 399q0 188 137 301t348 113
q218 0 350.5 -118t138.5 -304h-266q-9 88 -65.5 140.5t-155.5 52.5q-96 0 -155.5 -47t-59.5 -125q0 -36 15 -65t35.5 -48t58 -37t64.5 -27.5t73 -23.5l71 -23q36 -11 65 -21.5t72 -30.5t76.5 -42.5t69.5 -57t60 -74t39.5 -94t15.5 -116.5zM631 -104q79 0 124.5 -58
t45.5 -149q0 -224 -266 -367l-50 68q6 4 25.5 17.5l26 18t24 17t24 18.5t20.5 17.5t20.5 19.5t17 20t16.5 22t12.5 22.5t10.5 25.5q-25 -8 -61 -8q-69 0 -110.5 46t-41.5 108q0 76 45 119t117 43z" />
    <glyph glyph-name="Tbar.ss01" horiz-adv-x="1210" 
d="M1145 1192h-406v-463h295v-90h-295v-639h-270v639h-295v90h295v463h-406v242h1082v-242z" />
    <glyph glyph-name="Tcaron.ss01" horiz-adv-x="1210" 
d="M662 1573h-113l-227 270h124l156 -186h6l154 186h125zM1145 1434v-242h-406v-1192h-270v1192h-406v242h1082z" />
    <glyph glyph-name="uni0162.ss01" horiz-adv-x="1210" 
d="M739 0h-84l-67 -90q78 5 142.5 -41t64.5 -131q0 -76 -54.5 -122t-148.5 -46q-80 0 -139 41l30 67q58 -28 105 -28q52 0 83 26t31 68q0 43 -29 69.5t-93 26.5q-35 0 -76 -18l-47 43l100 135h-88v1192h-406v242h1082v-242h-406v-1192z" />
    <glyph glyph-name="uni021A.ss01" horiz-adv-x="1210" 
d="M63 1434h1082v-242h-406v-1192h-270v1192h-406v242zM600 -104q80 0 125 -58t45 -149q0 -224 -266 -367l-49 68q4 3 25.5 18t26 18t23.5 16.5t24 18.5t20.5 17.5t21 19.5t16.5 19.5t16.5 22.5t12 22.5t10.5 25.5q-25 -8 -61 -8q-69 0 -110.5 46t-41.5 108q0 76 45 119
t117 43z" />
    <glyph glyph-name="Uacute.ss01" horiz-adv-x="1460" 
d="M809 1843h113l-140 -297h-104zM1319 1434v-879q0 -142 -44.5 -253t-123.5 -181t-185 -105.5t-233 -35.5q-128 0 -234.5 35.5t-187 105.5t-125.5 181t-45 253v879h271v-871q0 -159 88.5 -246.5t232.5 -87.5q143 0 229.5 87.5t86.5 246.5v871h270z" />
    <glyph glyph-name="Ubreve.ss01" horiz-adv-x="1460" 
d="M983 1843q0 -43 -15 -86t-44.5 -81t-79.5 -61.5t-113 -23.5t-114 24t-80.5 61.5t-45.5 80.5t-16 86h103q0 -74 42 -119t111 -45t109.5 45t40.5 119h102zM1319 1434v-879q0 -142 -44.5 -253t-123.5 -181t-185 -105.5t-233 -35.5q-128 0 -234.5 35.5t-187 105.5t-125.5 181
t-45 253v879h271v-871q0 -159 88.5 -246.5t232.5 -87.5q143 0 229.5 87.5t86.5 246.5v871h270z" />
    <glyph glyph-name="uni01D3.ss01" horiz-adv-x="1460" 
d="M889 1843h125l-226 -270h-112l-227 270h124l156 -186h6zM1319 1434v-879q0 -142 -44.5 -253t-123.5 -181t-185 -105.5t-233 -35.5q-128 0 -234.5 35.5t-187 105.5t-125.5 181t-45 253v879h271v-871q0 -159 88.5 -246.5t232.5 -87.5q143 0 229.5 87.5t86.5 246.5v871h270z
" />
    <glyph glyph-name="Ucircumflex.ss01" horiz-adv-x="1460" 
d="M571 1573h-122l223 270h112l228 -270h-125l-156 186h-6zM1319 1434v-879q0 -142 -44.5 -253t-123.5 -181t-185 -105.5t-233 -35.5q-128 0 -234.5 35.5t-187 105.5t-125.5 181t-45 253v879h271v-871q0 -159 88.5 -246.5t232.5 -87.5q143 0 229.5 87.5t86.5 246.5v871h270z
" />
    <glyph glyph-name="Ugrave.ss01" horiz-adv-x="1460" 
d="M651 1843l131 -297h-104l-139 297h112zM1319 1434v-879q0 -142 -44.5 -253t-123.5 -181t-185 -105.5t-233 -35.5q-128 0 -234.5 35.5t-187 105.5t-125.5 181t-45 253v879h271v-871q0 -159 88.5 -246.5t232.5 -87.5q143 0 229.5 87.5t86.5 246.5v871h270z" />
    <glyph glyph-name="Uhungarumlaut.ss01" horiz-adv-x="1460" 
d="M647 1843h111l-127 -297h-103zM946 1843h113l-131 -297h-99zM1319 1434v-879q0 -142 -44.5 -253t-123.5 -181t-185 -105.5t-233 -35.5q-128 0 -234.5 35.5t-187 105.5t-125.5 181t-45 253v879h271v-871q0 -159 88.5 -246.5t232.5 -87.5q143 0 229.5 87.5t86.5 246.5v871
h270z" />
    <glyph glyph-name="Umacron.ss01" horiz-adv-x="1460" 
d="M401 1710h662v-88h-662v88zM1319 1434v-879q0 -142 -44.5 -253t-123.5 -181t-185 -105.5t-233 -35.5q-128 0 -234.5 35.5t-187 105.5t-125.5 181t-45 253v879h271v-871q0 -159 88.5 -246.5t232.5 -87.5q143 0 229.5 87.5t86.5 246.5v871h270z" />
    <glyph glyph-name="Uogonek.ss01" horiz-adv-x="1460" 
d="M1049 1434h270v-879q0 -232 -111 -373t-303 -184q-69 -25 -108 -67.5t-39 -94.5q0 -49 35 -71.5t90 -22.5q47 0 94 12v-82q-35 -14 -96 -14q-94 0 -156.5 42t-62.5 130q0 95 94 150h-23q-128 0 -234.5 35.5t-187 105.5t-125.5 181t-45 253v879h271v-871
q0 -159 88.5 -246.5t232.5 -87.5q143 0 229.5 87.5t86.5 246.5v871z" />
    <glyph glyph-name="Uring.ss01" horiz-adv-x="1460" 
d="M733 1536q-79 0 -135.5 52t-56.5 132t57 132.5t135 52.5t133.5 -52.5t55.5 -132.5t-55.5 -132t-133.5 -52zM733 1616q42 0 72.5 30t30.5 76q0 44 -30.5 73.5t-72.5 29.5q-43 0 -73.5 -29.5t-30.5 -73.5q0 -46 30 -76t74 -30zM1319 1434v-879q0 -142 -44.5 -253
t-123.5 -181t-185 -105.5t-233 -35.5q-128 0 -234.5 35.5t-187 105.5t-125.5 181t-45 253v879h271v-871q0 -159 88.5 -246.5t232.5 -87.5q143 0 229.5 87.5t86.5 246.5v871h270z" />
    <glyph glyph-name="Utilde.ss01" horiz-adv-x="1460" 
d="M1061 1757q-6 -89 -55.5 -150t-131.5 -61q-42 0 -76.5 14t-58 34t-44 39.5t-44.5 33.5t-51 14q-48 0 -73.5 -33.5t-30.5 -84.5h-95q10 90 57.5 150.5t131.5 60.5q52 0 93.5 -21t64 -46t53 -46t63.5 -21q46 0 73 33.5t34 83.5h90zM1319 1434v-879q0 -142 -44.5 -253
t-123.5 -181t-185 -105.5t-233 -35.5q-128 0 -234.5 35.5t-187 105.5t-125.5 181t-45 253v879h271v-871q0 -159 88.5 -246.5t232.5 -87.5q143 0 229.5 87.5t86.5 246.5v871h270z" />
    <glyph glyph-name="uni1E7C.ss01" horiz-adv-x="1390" 
d="M1026 1757q-6 -89 -55 -150t-131 -61q-42 0 -77 14t-58 34t-44 39.5t-45 33.5t-51 14q-48 0 -73.5 -33.5t-30.5 -84.5h-94q10 90 57 150.5t131 60.5q52 0 93.5 -21t64 -46t53 -46t63.5 -21q46 0 73 33.5t34 83.5h90zM1059 1434h289l-490 -1434h-326l-489 1434h291
l356 -1072h17z" />
    </font>
</defs>
</svg>
