<?xml version="1.0" standalone="no"?>
<!DOCTYPE svg PUBLIC "-//W3C//DTD SVG 1.1//EN" "http://www.w3.org/Graphics/SVG/1.1/DTD/svg11.dtd" >
<svg xmlns="http://www.w3.org/2000/svg" xmlns:xlink="http://www.w3.org/1999/xlink" version="1.1">
<metadata>
Created by FontForge 20201107 at Fri Oct 18 17:20:26 2024
 By 
Copyright (c) 2017 Swiss Typefaces Sarl. All rights reserved.
</metadata>
<defs>
<font id="SangBleuKingdom-Italic" horiz-adv-x="0" >
  <font-face 
    font-family="SangBleu Kingdom"
    font-weight="400"
    font-style="italic"
    font-stretch="normal"
    units-per-em="2048"
    panose-1="2 4 5 4 8 0 0 0 0 4"
    ascent="1638"
    descent="-410"
    x-height="1028"
    cap-height="1552"
    bbox="-936 -825 3027 2169"
    underline-thickness="96"
    underline-position="-266"
    slope="-17"
    unicode-range="U+0020-FEFF"
  />
<missing-glyph horiz-adv-x="1310" 
d="M143 0v1552h1024v-1552h-1024zM211 1513l444 -702l445 702h-889zM182 1491v-1430l453 715zM678 776l450 -715v1430zM211 39h889l-445 702z" />
    <glyph glyph-name="f_f006" unicode="ff" horiz-adv-x="1359" 
d="M784 133l172 791h-464l-101 -455q-42 -190 -92.5 -343.5t-98 -255.5t-101 -177.5t-98.5 -116.5t-94.5 -65t-84 -30.5t-72.5 -6.5q-53 0 -84 27t-31 69q0 40 26 66t65 28q113 -70 186 -70q40 0 68.5 33t60 128t72.5 278l194 891h-160l17 47q95 6 120 14q52 17 98 85
q32 48 83 149q43 90 99 157t113.5 103.5t110.5 53.5t103 17q67 0 97 -29t30 -75q0 -33 -20 -63.5t-54 -47.5q-101 49 -186 49q-113 0 -183.5 -74.5t-70.5 -172.5q0 -52 17.5 -80.5t66.5 -28.5h315q19 0 35 3t31 13t25.5 16.5t24 25t20 27t20 34.5t18 35t19 41t18.5 41
q43 90 99 157t113.5 103.5t110.5 53.5t103 17q67 0 97 -29t30 -75q0 -33 -20 -63.5t-54 -47.5q-103 50 -186 50q-116 0 -185 -79.5t-69 -199.5q0 -123 84 -123h297l-64 -104h-329l-78 -355q-42 -191 -92 -345t-97.5 -256t-101.5 -177.5t-98.5 -116t-94.5 -64t-84 -30
t-73 -6.5q-53 0 -84 27t-31 69q0 41 25.5 66.5t64.5 27.5q111 -69 187 -69q40 0 68 33t59.5 127t72.5 278z" />
    <glyph glyph-name="fi007" unicode="fi" horiz-adv-x="1230" 
d="M1094 1479q0 51 39 90t90 39q54 0 93.5 -39t39.5 -90q0 -54 -39.5 -93.5t-93.5 -39.5q-51 0 -90 39.5t-39 93.5zM-250 -526q-53 0 -84 27t-31 69q0 40 26 66t65 28q113 -70 186 -70q40 0 68.5 33t60 128t72.5 278l194 891h-160l17 47q40 3 65.5 7t51.5 18.5t42.5 30.5
t41 53t45 75.5t55.5 108.5q43 90 99 157t113.5 103.5t110.5 53.5t103 17q67 0 97 -29t30 -75q0 -33 -20 -63.5t-54 -47.5q-103 50 -186 50q-116 0 -185 -79.5t-69 -199.5q0 -123 84 -123h590l-324 -842q-20 -52 -25.5 -81t2.5 -40.5t29 -11.5q35 0 82 26.5t108.5 93.5
t112.5 163l43 -19q-180 -342 -452 -342q-96 0 -117 52.5t20 150.5l287 746h-452l-101 -455q-42 -190 -92.5 -343.5t-98 -255.5t-101 -177.5t-98.5 -116.5t-94.5 -65t-84 -30.5t-72.5 -6.5z" />
    <glyph glyph-name="f_f_i008" unicode="ffi" horiz-adv-x="1880" 
d="M1745 1479q0 51 39 90t90 39q54 0 92.5 -39t38.5 -90q0 -54 -38.5 -93.5t-92.5 -39.5q-51 0 -90 39.5t-39 93.5zM-250 -526q-53 0 -84 27t-31 69q0 40 26 66t65 28q113 -70 186 -70q40 0 68.5 33t60 128t72.5 278l194 891h-160l17 47q95 6 120 14q52 17 98 85
q32 48 83 149q43 90 99 157t113.5 103.5t110.5 53.5t103 17q67 0 97 -29t30 -75q0 -33 -20 -63.5t-54 -47.5q-101 49 -186 49q-113 0 -183.5 -74.5t-70.5 -172.5q0 -52 17.5 -80.5t66.5 -28.5h315q19 0 35 3t31 13t25.5 16.5t24 25t20 27t20 34.5t18 35t19 41t18.5 41
q43 90 99 157t113.5 103.5t110.5 53.5t103 17q67 0 97 -29t30 -75q0 -33 -20 -63.5t-54 -47.5q-103 50 -186 50q-116 0 -185 -79.5t-69 -199.5q0 -123 84 -123h592l-326 -842q-30 -78 -27.5 -105.5t35.5 -27.5q35 0 82 26.5t109 93.5t113 163l40 -19q-180 -342 -452 -342
q-94 0 -114.5 52.5t20.5 150.5l286 746h-454l-78 -355q-42 -191 -92 -345t-97.5 -256t-101.5 -177.5t-98.5 -116t-94.5 -64t-84 -30t-73 -6.5q-53 0 -84 27t-31 69q0 41 25.5 66.5t64.5 27.5q111 -69 187 -69q40 0 68 33t59.5 127t72.5 278l172 791h-464l-101 -455
q-42 -190 -92.5 -343.5t-98 -255.5t-101 -177.5t-98.5 -116.5t-94.5 -65t-84 -30.5t-72.5 -6.5z" />
    <glyph glyph-name="fl009" unicode="fl" horiz-adv-x="1263" 
d="M-250 -526q-53 0 -84 27t-31 69q0 40 26 66t65 28q113 -70 186 -70q40 0 68.5 33t60 128t72.5 278l194 891h-160l17 47q40 3 65.5 7t51.5 18.5t42.5 30.5t41 53t45 75.5t55.5 108.5q43 90 99 157t113.5 103.5t110.5 53.5t103 17q98 0 123 -69l372 82l-487 -1422
q-29 -80 -27 -106.5t33 -26.5q35 0 82 26.5t108.5 93.5t112.5 163l43 -19q-180 -342 -452 -342q-95 0 -114.5 52.5t17.5 150.5l428 1247l-112 56q-5 -33 -24 -60.5t-50 -40.5q-103 50 -186 50q-116 0 -185 -79.5t-69 -199.5q0 -123 84 -123h297l-64 -104h-329l-101 -455
q-42 -190 -92.5 -343.5t-98 -255.5t-101 -177.5t-98.5 -116.5t-94.5 -65t-84 -30.5t-72.5 -6.5z" />
    <glyph glyph-name="f_f_l010" unicode="ffl" horiz-adv-x="1912" 
d="M-250 -526q-53 0 -84 27t-31 69q0 40 26 66t65 28q113 -70 186 -70q40 0 68.5 33t60 128t72.5 278l194 891h-160l17 47q95 6 120 14q52 17 98 85q32 48 83 149q43 90 99 157t113.5 103.5t110.5 53.5t103 17q67 0 97 -29t30 -75q0 -33 -20 -63.5t-54 -47.5
q-101 49 -186 49q-113 0 -183.5 -74.5t-70.5 -172.5q0 -52 17.5 -80.5t66.5 -28.5h315q19 0 35 3t31 13t25.5 16.5t24 25t20 27t20 34.5t18 35t19 41t18.5 41q43 90 99 157t113.5 103.5t110.5 53.5t103 17q98 0 123 -69l373 82l-488 -1422q-29 -80 -27 -106.5t33 -26.5
q35 0 82 26.5t109 93.5t113 163l43 -19q-180 -342 -453 -342q-95 0 -114 52.5t18 150.5l428 1247l-113 56q-5 -33 -24 -60.5t-50 -40.5q-103 50 -186 50q-116 0 -185 -79.5t-69 -199.5q0 -123 84 -123h297l-64 -104h-329l-78 -355q-42 -191 -92 -345t-97.5 -256
t-101.5 -177.5t-98.5 -116t-94.5 -64t-84 -30t-73 -6.5q-53 0 -84 27t-31 69q0 41 25.5 66.5t64.5 27.5q111 -69 187 -69q40 0 68 33t59.5 127t72.5 278l172 791h-464l-101 -455q-42 -190 -92.5 -343.5t-98 -255.5t-101 -177.5t-98.5 -116.5t-94.5 -65t-84 -30.5t-72.5 -6.5
z" />
    <glyph glyph-name=".notdef" horiz-adv-x="1310" 
d="M143 0v1552h1024v-1552h-1024zM211 1513l444 -702l445 702h-889zM182 1491v-1430l453 715zM678 776l450 -715v1430zM211 39h889l-445 702z" />
    <glyph glyph-name=".null" 
 />
    <glyph glyph-name="nonmarkingreturn" horiz-adv-x="682" 
 />
    <glyph glyph-name="space" unicode=" " horiz-adv-x="491" 
 />
    <glyph glyph-name="exclam" unicode="!" horiz-adv-x="604" 
d="M297 446h-49q69 241 105 437.5t63 348t78 310.5q8 29 69.5 39.5t116 -4t45.5 -47.5q-38 -126 -88 -249t-94.5 -217t-112 -260.5t-133.5 -357.5zM186 -25q-55 0 -94 40.5t-39 97.5q0 56 39 95.5t94 39.5q59 0 98.5 -39.5t39.5 -95.5q0 -58 -39.5 -98t-98.5 -40z" />
    <glyph glyph-name="quotedbl" unicode="&#x22;" horiz-adv-x="854" 
d="M309 981l117 532q11 43 34 58.5t81 15.5q60 0 72.5 -21.5t-13.5 -78.5l-233 -506h-58zM739 981l117 532q11 43 34 58.5t81 15.5q60 0 72.5 -21.5t-13.5 -78.5l-233 -506h-58z" />
    <glyph glyph-name="numbersign" unicode="#" horiz-adv-x="1648" 
d="M252 0l170 420h-373l41 98h373l211 520h-373l39 99h373l184 452h107l-185 -452h469l185 452h104l-184 -452h372l-39 -99h-372l-211 -520h370l-38 -98h-373l-170 -420h-105l170 420h-469l-170 -420h-106zM569 518h469l211 520h-469z" />
    <glyph glyph-name="dollar" unicode="$" horiz-adv-x="1171" 
d="M971 1815h67l-71 -228q153 -4 249.5 -71t96.5 -166q0 -69 -55 -109t-144 -27q24 138 -17.5 220t-148.5 92l-196 -635l32 -31q66 -59 106 -99.5t77.5 -92t54 -104.5t16.5 -115q0 -188 -159 -324t-412 -148l-70 -223h-67l69 221q-164 5 -280.5 84.5t-116.5 188.5
q0 69 55 108.5t148 22.5q-26 -153 29 -240.5t184 -101.5l213 684l-80 70q-96 87 -141 171.5t-45 186.5q0 117 74 214t194.5 153.5t265.5 68.5zM690 944l8 -6l183 588q-151 -12 -252 -94.5t-101 -204.5q0 -140 162 -283zM864 373q0 84 -46 152t-134 149l-199 -639
q164 5 271.5 96.5t107.5 241.5z" />
    <glyph glyph-name="percent" unicode="%" horiz-adv-x="1984" 
d="M139 0l1712 1552h142l-1710 -1552h-144zM496 680q-123 0 -188.5 82t-65.5 207q0 100 41.5 209.5t107.5 197t154.5 144.5t175.5 57q123 0 188.5 -82t65.5 -205q0 -101 -41.5 -210.5t-107.5 -197.5t-154.5 -145t-175.5 -57zM498 723q63 0 127 70t108.5 170t72.5 209t28 190
q0 172 -117 172q-64 0 -127.5 -69.5t-107.5 -170t-71.5 -209t-27.5 -188.5q0 -174 115 -174zM1430 -18q-123 0 -188.5 82t-65.5 206q0 100 41.5 209.5t107.5 197.5t154.5 145t175.5 57q123 0 188.5 -82t65.5 -205q0 -101 -41.5 -210.5t-107.5 -197.5t-154.5 -145t-175.5 -57
zM1432 25q63 0 126.5 70t108 170t72.5 209t28 190q0 172 -116 172q-64 0 -127.5 -69.5t-107.5 -170t-71.5 -209t-27.5 -188.5q0 -174 115 -174z" />
    <glyph glyph-name="ampersand" unicode="&#x26;" horiz-adv-x="2162" 
d="M1171 535q-80 0 -130 46.5t-50 125.5q0 85 45 169.5t125.5 140.5t171.5 56q119 0 250 -88l213 -143q8 -6 38.5 -26t40.5 -26t35 -21.5t38 -20.5t33.5 -13.5t38.5 -11t36 -2.5q49 0 80.5 29t46.5 67q6 14 6 23.5t-10 23t-35 25t-73.5 25.5t-120.5 28q-19 81 23 133.5
t106 52.5q80 0 130 -46.5t50 -125.5q0 -85 -45 -169.5t-125.5 -140.5t-171.5 -56q-116 0 -258 98l-41 27q-39 -77 -72 -137t-85 -141t-102 -141.5t-119.5 -124t-141 -104t-162.5 -66.5t-188 -26q-118 0 -216.5 36t-166 97t-115 142.5t-69 170t-21.5 181.5q0 123 28 233.5
t73.5 189.5t101 137.5t112.5 87t107 28.5q52 0 91.5 -25.5t58 -67t24.5 -93.5t-8 -105l63 47q84 63 138.5 125.5t85 135.5t43.5 143.5t20 171.5q51 41 110 41q40 0 63 -19.5t23 -50.5q0 -85 -116.5 -250t-243.5 -258l-619 -461q49 -196 196 -311t345 -115q223 0 410.5 142.5
t316.5 410.5l-129 88q-87 60 -143.5 87.5t-116.5 27.5q-49 0 -80.5 -29t-46.5 -67q-3 -13 -5 -24t9 -23.5t35 -24t72.5 -25.5t121.5 -28q16 -82 -24 -134t-105 -52zM297 778q0 -54 10 -119l133 101l-2 -2q79 62 115 166.5t17.5 184t-76.5 79.5q-49 0 -89 -41t-62.5 -105
t-34 -132.5t-11.5 -131.5z" />
    <glyph glyph-name="quotesingle" unicode="'" horiz-adv-x="423" 
d="M309 981l117 532q11 43 34 58.5t81 15.5q60 0 72.5 -21.5t-13.5 -78.5l-233 -506h-58z" />
    <glyph glyph-name="parenleft" unicode="(" horiz-adv-x="669" 
d="M326 -463l-37 -26q-106 137 -171 317.5t-65 380.5q0 394 244 784t692 688l29 -36q-188 -143 -344 -337.5t-256.5 -400t-155.5 -413t-55 -390.5q0 -345 119 -567z" />
    <glyph glyph-name="parenright" unicode=")" horiz-adv-x="669" 
d="M397 1655l37 26q106 -137 171 -317.5t65 -380.5q0 -394 -244 -784t-692 -688l-29 36q188 143 344 337.5t256.5 399.5t155.5 412.5t55 390.5q0 346 -119 568z" />
    <glyph glyph-name="asterisk" unicode="*" horiz-adv-x="972" 
d="M377 993l-25 33l252 215l-235 229l24 33l283 -174l143 295l39 -12l-78 -322l326 -49v-41l-330 -24l55 -324l-38 -12l-125 307z" />
    <glyph glyph-name="plus" unicode="+" horiz-adv-x="1337" 
d="M625 0v485h-490v101h490v471h106v-471h488v-101h-488v-485h-106z" />
    <glyph glyph-name="comma" unicode="," horiz-adv-x="544" 
d="M-125 -395l-22 47q133 83 206.5 173t73.5 163q0 89 -113 116q11 68 54.5 103t101.5 35q59 0 98 -38t39 -104q0 -48 -26 -107t-77 -124.5t-138 -135t-197 -128.5z" />
    <glyph glyph-name="hyphen" unicode="-" horiz-adv-x="894" 
d="M135 481l37 109h602l-37 -109h-602z" />
    <glyph glyph-name="period" unicode="." horiz-adv-x="516" 
d="M154 -25q-55 0 -94.5 40.5t-39.5 97.5q0 56 39.5 95.5t94.5 39.5q59 0 98 -39.5t39 -95.5q0 -58 -39 -98t-98 -40z" />
    <glyph glyph-name="slash" unicode="/" horiz-adv-x="1122" 
d="M-111 -106l1352 1732h145l-1353 -1732h-144z" />
    <glyph glyph-name="zero" unicode="0" horiz-adv-x="1382" 
d="M567 -25q-108 0 -191 39t-133.5 109.5t-76 161.5t-25.5 200q0 117 31.5 246t86.5 250.5t134 232.5t170 193t200 131t218 49q108 0 191 -39.5t134 -109.5t77 -161.5t26 -199.5q0 -118 -31.5 -247t-87 -250.5t-135.5 -232t-171 -193t-200 -131t-217 -48.5zM582 37
q90 0 177 57.5t155 152.5t126.5 215.5t97 248t60 249.5t21.5 220q0 164 -63 255t-189 91q-90 0 -177 -57.5t-155 -152.5t-126.5 -215.5t-97 -248t-60 -249.5t-21.5 -220q0 -164 63 -255t189 -91z" />
    <glyph glyph-name="one" unicode="1" horiz-adv-x="768" 
d="M190 123l453 1309l-348 -127l18 61l572 209l-502 -1452q-13 -37 0 -53t57 -21l66 -4l-14 -45h-529l14 45l107 6q48 5 70.5 19.5t35.5 52.5z" />
    <glyph glyph-name="two" unicode="2" horiz-adv-x="1228" 
d="M-139 0l2 10q343 241 567 414.5t378 322t220 262t66 216.5q0 115 -65.5 184.5t-190.5 69.5q-144 0 -257.5 -94.5t-152.5 -280.5h-49q32 223 174.5 353t357.5 130q190 0 286.5 -86t96.5 -237q0 -99 -42 -189.5t-142 -193.5t-240 -209.5t-362 -255.5l-371 -246h602
q90 0 129 14t80 68l121 154h49l-250 -406h-1007z" />
    <glyph glyph-name="three" unicode="3" horiz-adv-x="1165" 
d="M1067 573q0 -112 -53 -221t-141.5 -192t-213 -134t-258.5 -51q-100 0 -181.5 27t-130 70.5t-74 92.5t-25.5 97q0 67 52.5 102.5t135.5 18.5q18 -346 285 -346q177 0 298.5 124t121.5 322q0 168 -90 265.5t-213 97.5q-50 0 -86 -8l-7 53l91 18q213 44 337.5 133t124.5 224
q0 99 -67.5 156t-188.5 57q-46 0 -89.5 -9.5t-88 -31.5t-81 -55.5t-66.5 -86t-45 -118.5h-49q35 197 167 303t328 106q173 0 272 -76t99 -196q0 -126 -115.5 -224t-298.5 -135v-6q116 -48 183 -147.5t67 -229.5z" />
    <glyph glyph-name="four" unicode="4" horiz-adv-x="1382" 
d="M672 0l143 414h-833l1249 1142h170l-346 -1001h299l-49 -141h-297l-144 -414h-192zM225 555h637l291 842z" />
    <glyph glyph-name="five" unicode="5" horiz-adv-x="1136" 
d="M389 -25q-81 0 -150.5 18t-116.5 47.5t-80.5 67.5t-49 77t-15.5 77q0 67 53 102.5t136 18.5q17 -332 297 -332q108 0 198 39t148.5 122.5t58.5 197.5q0 160 -139 293.5t-412 230.5l349 618h680l-103 -180h-614l-154 -276q274 -100 408.5 -248.5t134.5 -327.5
q0 -122 -53 -226t-141 -173t-201 -107.5t-234 -38.5z" />
    <glyph glyph-name="six" unicode="6" horiz-adv-x="1282" 
d="M557 -25q-209 0 -333 134.5t-124 357.5q0 133 62 276t185 283.5t291.5 262t398 217t487.5 143.5l8 -47q-383 -74 -681 -293t-439 -500q77 64 172.5 96.5t191.5 32.5q174 0 283.5 -104t109.5 -283q0 -123 -54.5 -232.5t-141.5 -183.5t-196.5 -117t-219.5 -43zM309 416
q0 -176 66 -278.5t200 -102.5q113 0 202.5 67t136.5 175.5t47 236.5q0 158 -86.5 245t-217.5 87q-138 0 -268 -84q-80 -177 -80 -346z" />
    <glyph glyph-name="seven" unicode="7" horiz-adv-x="1245" 
d="M528 1552h1033l-867 -878q-126 -129 -229 -251.5t-141.5 -174.5t-118.5 -166q-38 -53 -62 -70t-63 -22l-94 -13q-25 -3 -37 5.5t-5.5 29.5t33.5 51q298 310 600.5 605t737.5 704h-662q-93 0 -132 -17t-93 -83l-106 -133h-50z" />
    <glyph glyph-name="eight" unicode="8" horiz-adv-x="1228" 
d="M524 -25q-209 0 -338 108.5t-129 283.5q0 168 142.5 292t384.5 168q-160 178 -160 363q0 168 133.5 281.5t341.5 113.5q183 0 295.5 -89t112.5 -232q0 -75 -39 -141.5t-106 -116t-147 -85.5t-169 -57l20 -20q106 -106 163.5 -202.5t57.5 -207.5q0 -122 -73.5 -227.5
t-203.5 -168.5t-286 -63zM203 385q0 -166 96 -254t250 -88q165 0 270 81.5t105 211.5q0 151 -207 358l-107 107q-192 -43 -299.5 -157t-107.5 -259zM768 944l51 -51q160 42 258.5 138t98.5 220q0 125 -77 197t-216 72q-137 0 -221 -65t-84 -175q0 -87 46.5 -162.5
t143.5 -173.5z" />
    <glyph glyph-name="nine" unicode="9" horiz-adv-x="1257" 
d="M27 -88l-9 49q196 42 364.5 124.5t291.5 191.5t210.5 230.5t143.5 256.5q-175 -139 -393 -139q-172 0 -282.5 110t-110.5 291q0 156 87.5 286.5t224.5 202.5t288 72q212 0 339.5 -138t127.5 -378q0 -100 -34 -209.5t-100 -224t-173.5 -224.5t-245 -206t-325.5 -173.5
t-404 -121.5zM451 1061q0 -161 85.5 -252.5t217.5 -91.5q159 0 290 92q58 162 58 315q0 198 -69 301t-204 103q-167 0 -272.5 -134t-105.5 -333z" />
    <glyph glyph-name="colon" unicode=":" horiz-adv-x="604" 
d="M162 -25q-55 0 -94 40.5t-39 97.5q0 56 39 95.5t94 39.5q59 0 98 -39.5t39 -95.5q0 -58 -39 -98t-98 -40zM444 788q-55 0 -94 40.5t-39 97.5q0 56 39 95.5t94 39.5q59 0 98.5 -39.5t39.5 -95.5q0 -58 -39.5 -98t-98.5 -40z" />
    <glyph glyph-name="semicolon" unicode=";" horiz-adv-x="628" 
d="M-109 -395l-22 47q133 84 207 173.5t74 162.5q0 89 -113 116q11 68 54.5 103t101.5 35q59 0 98 -38t39 -104q0 -48 -26 -107t-77.5 -124.5t-138.5 -135t-197 -128.5zM453 788q-55 0 -94.5 40.5t-39.5 97.5q0 56 39.5 95.5t94.5 39.5q59 0 98 -39.5t39 -95.5
q0 -58 -39 -98t-98 -40z" />
    <glyph glyph-name="less" unicode="&#x3c;" horiz-adv-x="1337" 
d="M92 487v95l1053 462v-110l-912 -399l912 -402v-110z" />
    <glyph glyph-name="equal" unicode="=" horiz-adv-x="1337" 
d="M156 717v100h1030v-100h-1030zM156 238v100h1030v-100h-1030z" />
    <glyph glyph-name="greater" unicode="&#x3e;" horiz-adv-x="1337" 
d="M1260 582v-95l-1053 -464v110l911 402l-911 399v110z" />
    <glyph glyph-name="question" unicode="?" horiz-adv-x="1220" 
d="M834 1522q-86 0 -152.5 -25t-113.5 -83.5t-60 -147.5q-68 -8 -121 18.5t-53 85.5q0 97 130 157t320 60q235 0 383 -119t148 -329q0 -321 -414 -377l-295 -37q-54 -8 -70.5 -20t-37.5 -66l-78 -203h-47l80 324q12 53 28 85t44.5 50t57.5 25t85 14l229 24q172 19 250 79
t78 171q0 91 -55.5 164t-144.5 111.5t-191 38.5zM324 -25q-55 0 -94.5 40.5t-39.5 97.5q0 56 39.5 95.5t94.5 39.5q59 0 98 -39.5t39 -95.5q0 -58 -39 -98t-98 -40z" />
    <glyph glyph-name="at" unicode="@" horiz-adv-x="1910" 
d="M1249 334q-108 0 -108 57q0 33 37 121l65 166h-8q-100 -156 -223.5 -249t-245.5 -93q-95 0 -152 53.5t-57 153.5q0 123 77.5 256t191.5 233.5t249 166t246 65.5q29 0 57 -4.5t60 -15t49 -17t54 -22.5t44 -19l-264 -666q-29 -76 -29 -90q0 -12 8 -18t35 -6q59 0 128 21
t142 69t132 114.5t97 167.5t38 219q0 130 -52.5 233.5t-142.5 166.5t-202 96t-238 33q-187 0 -360.5 -75t-298.5 -199t-200 -291.5t-75 -346.5q0 -187 81.5 -325t224.5 -208.5t329 -70.5q252 0 453 96l18 -43q-224 -110 -485 -110q-155 0 -291.5 45t-239 127.5t-162 207
t-59.5 275.5q0 184 88.5 363.5t233 314t342 218t403.5 83.5q108 0 209.5 -22.5t191.5 -70t157.5 -116t107 -166.5t39.5 -215q0 -147 -59 -273t-156 -210.5t-222 -132t-258 -47.5zM848 434q48 0 109 29t125.5 83t128 144t106.5 199l110 282q-33 39 -116 39q-90 0 -194.5 -60
t-189 -151t-141.5 -207t-57 -219q0 -139 119 -139z" />
    <glyph glyph-name="A" unicode="A" horiz-adv-x="1671" 
d="M-289 0l17 49l90 6q105 10 168 70l1622 1477h37l-365 -1473q-10 -40 6 -54.5t64 -19.5l90 -6l-15 -49h-577l14 49l94 6q53 5 79 19.5t36 54.5l113 442h-600l-488 -446q-19 -17 -28 -28t-10 -20.5t10.5 -14.5t35.5 -7l123 -6l-16 -49h-500zM674 653h530l162 633z" />
    <glyph glyph-name="B" unicode="B" horiz-adv-x="1529" 
d="M-45 0l14 49l94 6q52 5 77 19.5t38 54.5l395 1294q13 40 -4 54.5t-65 19.5l-90 6l16 49h571q270 0 406.5 -63.5t136.5 -210.5q-2 -80 -41.5 -155t-110 -136t-177 -102.5t-234.5 -53.5v-2q95 -4 174.5 -24t142.5 -56.5t98.5 -95t35.5 -133.5q0 -97 -52 -188t-150.5 -166
t-258.5 -120.5t-357 -45.5h-659zM608 852h242q93 0 172.5 27.5t133.5 72t92.5 101t56.5 114.5t18 113q0 112 -79.5 160.5t-239.5 48.5h-203zM365 63h239q126 0 229 29t170 76.5t112.5 111t65 129.5t19.5 134q0 129 -93 187t-271 58h-248z" />
    <glyph glyph-name="C" unicode="C" horiz-adv-x="1624" 
d="M786 -25q-101 0 -192 22.5t-170.5 71.5t-137 120t-91 175t-33.5 230q0 194 85.5 377.5t226.5 318t332.5 216t393.5 81.5q134 0 267.5 -29.5t207.5 -74.5l6 -432h-36l-132 305q-34 79 -58.5 105.5t-76.5 41.5q-64 19 -170 19q-182 0 -334.5 -79t-254 -215t-157.5 -319
t-56 -391q0 -234 100 -355.5t291 -121.5q117 0 180 16q38 8 90 54l444 403h37l-282 -453q-78 -34 -214.5 -60t-265.5 -26z" />
    <glyph glyph-name="D" unicode="D" horiz-adv-x="1751" 
d="M-45 0l14 49l94 6q52 5 77 19.5t38 54.5l395 1294q13 40 -4 54.5t-65 19.5l-90 6l16 49h516q385 0 600 -142t215 -419q0 -203 -92 -385.5t-250.5 -315.5t-384.5 -211.5t-483 -78.5h-596zM365 63h198q211 0 393 77t307 207.5t196 306.5t71 370q0 232 -148.5 348.5
t-427.5 116.5h-153z" />
    <glyph glyph-name="E" unicode="E" horiz-adv-x="1538" 
d="M-45 0l14 49l94 6q52 5 78 19.5t37 54.5l397 1294q11 40 -5.5 54.5t-63.5 19.5l-90 6l14 49h1141l-72 -454h-37l-94 356q-6 23 -14 28t-35 5h-518l-197 -641h307q26 0 34.5 4.5t19.5 21.5l155 242h37l-184 -608h-37l-10 239q0 18 -6 22.5t-31 4.5h-307l-215 -706h606
q24 0 34 4.5t31 23.5l400 365h37l-281 -459h-1239z" />
    <glyph glyph-name="F" unicode="F" horiz-adv-x="1441" 
d="M-45 0l14 49l94 6q52 5 78 19.5t37 54.5l397 1294q11 40 -5.5 54.5t-63.5 19.5l-90 6l14 49h1208l-69 -454h-37l-96 356q-6 23 -14 28t-33 5h-588l-197 -641h324q25 0 33.5 4.5t19.5 21.5l154 242h36l-184 -608h-37l-8 239q0 17 -6.5 22t-30.5 5h-323l-197 -643
q-11 -41 6.5 -55.5t67.5 -16.5l174 -4l-17 -53h-661z" />
    <glyph glyph-name="G" unicode="G" horiz-adv-x="1792" 
d="M834 -25q-105 0 -201 22.5t-182 71.5t-149.5 120t-100.5 175t-37 230q0 194 86 377t228.5 318t338.5 216.5t406 81.5q131 0 260.5 -29.5t204.5 -74.5l6 -432h-37l-131 305q-34 79 -58.5 105.5t-76.5 41.5q-64 19 -160 19q-189 0 -345.5 -79t-260 -215t-160.5 -319
t-57 -391q0 -230 119.5 -352.5t322.5 -122.5q192 0 377 82l170 459q16 40 -1.5 54.5t-66.5 16.5l-285 7l21 57h774l-20 -62l-187 -2l-157 -422l-43 -145q-96 -11 -288 -62t-310 -51z" />
    <glyph glyph-name="H" unicode="H" horiz-adv-x="1839" 
d="M-45 0l14 49l94 6q52 5 77 19.5t38 54.5l395 1294q13 40 -4 54.5t-65 19.5l-90 6l16 49h578l-17 -49l-94 -6q-52 -5 -78 -19.5t-37 -54.5l-172 -567h832l174 567q13 40 -5 54.5t-67 19.5l-88 6l14 49h578l-14 -49l-95 -6q-52 -5 -77.5 -19.5t-38.5 -54.5l-396 -1294
q-13 -40 4.5 -54.5t65.5 -19.5l90 -6l-14 -49h-578l15 49l94 6q52 5 77 19.5t38 54.5l198 645h-833l-199 -645q-13 -40 5 -54.5t67 -19.5l90 -6l-15 -49h-577z" />
    <glyph glyph-name="I" unicode="I" horiz-adv-x="796" 
d="M-45 0l14 49l94 6q52 5 77 19.5t38 54.5l395 1294q13 40 -4 54.5t-65 19.5l-90 6l16 49h578l-17 -49l-94 -6q-52 -5 -77 -19.5t-38 -54.5l-397 -1294q-13 -40 5 -54.5t67 -19.5l90 -6l-15 -49h-577z" />
    <glyph glyph-name="J" unicode="J" horiz-adv-x="794" 
d="M-184 -236l-27 50q75 47 109 69t85.5 57t72.5 53t53.5 48.5t46.5 52.5t34 56.5t32.5 69.5t27.5 83l344 1124q11 39 -5.5 51.5t-64.5 14.5l-102 4l18 55h592l-16 -55l-105 -4q-51 -2 -74 -14.5t-34 -51.5l-330 -1069q-49 -165 -112 -244t-228 -182q-71 -43 -317 -168z" />
    <glyph glyph-name="K" unicode="K" horiz-adv-x="1695" 
d="M-45 0l14 49l94 6q52 5 77 19.5t38 54.5l395 1294q13 40 -4 54.5t-65 19.5l-90 6l16 49h578l-17 -49l-94 -6q-52 -5 -77 -19.5t-38 -54.5l-196 -643l1003 668q56 40 -39 49l-129 6l17 49h553l-15 -49l-108 -6q-61 -4 -98 -16.5t-80 -42.5l-895 -594l755 -844h-260
l-708 770l-197 -641q-13 -40 5 -54.5t67 -19.5l90 -6l-15 -49h-577z" />
    <glyph glyph-name="L" unicode="L" horiz-adv-x="1435" 
d="M-45 0l14 49l94 6q52 5 78 19.5t37 54.5l397 1294q11 40 -5.5 54.5t-63.5 19.5l-90 6l14 49h578l-15 -49l-94 -6q-53 -5 -79.5 -19.5t-37.5 -54.5l-415 -1357h526q24 0 34 4.5t31 23.5l400 365h37l-281 -459h-1159z" />
    <glyph glyph-name="M" unicode="M" horiz-adv-x="2113" 
d="M-45 0l14 49l94 6q52 5 77 19.5t38 54.5l395 1294q13 40 -4 54.5t-65 19.5l-90 6l16 49h428l211 -999l817 999h436l-16 -49l-94 -6q-52 -5 -77 -19.5t-38 -54.5l-397 -1294q-13 -40 5 -54.5t67 -19.5l90 -6l-15 -49h-577l14 49l94 6q52 5 77 19.5t38 54.5l408 1337
l-977 -1204h-13l-245 1202l-408 -1335q-13 -40 4.5 -54.5t65.5 -19.5l90 -6l-15 -49h-448z" />
    <glyph glyph-name="N" unicode="N" horiz-adv-x="1812" 
d="M1364 -39l-719 1436l-387 -1268q-13 -40 4.5 -54.5t65.5 -19.5l90 -6l-15 -49h-448l14 49l94 6q52 5 77 19.5t38 54.5l397 1294q13 40 -4 54.5t-65 19.5l-90 6l14 49h375l598 -1208l334 1079q13 40 -4.5 54.5t-65.5 19.5l-90 6l16 49h449l-17 -49l-94 -6
q-51 -5 -76 -19.5t-38 -54.5l-447 -1462h-6z" />
    <glyph glyph-name="O" unicode="O" horiz-adv-x="1804" 
d="M760 -25q-170 0 -307 67t-220 201t-83 314q0 115 36 236.5t100.5 235.5t161 216t211 177.5t257.5 120t294 44.5q127 0 237.5 -39t194 -111.5t131.5 -183.5t48 -247q0 -115 -36 -236.5t-100.5 -235.5t-161 -216t-211 -178t-258 -120.5t-294.5 -44.5zM797 35
q155 0 299.5 80.5t250 213.5t169 312.5t63.5 368.5q0 237 -106.5 376.5t-298.5 139.5q-155 0 -300 -80.5t-250.5 -213t-169 -311.5t-63.5 -368q0 -238 107 -378t299 -140z" />
    <glyph glyph-name="P" unicode="P" horiz-adv-x="1484" 
d="M-45 0l14 49l94 6q52 5 77 19.5t38 54.5l395 1294q13 40 -4 54.5t-65 19.5l-90 6l16 49h633q99 0 180.5 -9t154.5 -31t122.5 -56.5t78.5 -88.5t29 -124q0 -111 -52.5 -206t-152 -166.5t-254.5 -112.5t-348 -41h-203l19 65h192q139 0 249.5 38.5t179 104.5t104 148.5
t35.5 175.5q0 240 -353 240h-243l-416 -1360q-13 -40 5.5 -55t66.5 -17l176 -6l-17 -51h-661z" />
    <glyph glyph-name="Q" unicode="Q" horiz-adv-x="1804" 
d="M760 -25q-48 0 -123 11l-430 -154q89 25 205 25q88 0 165.5 -18t134 -43.5t107.5 -51t108.5 -43.5t114.5 -18q101 0 188 51t173 176l45 -27q-110 -179 -231.5 -273.5t-239.5 -94.5q-55 0 -106.5 16.5t-93.5 42.5t-83 57.5t-82.5 63.5t-84 58t-95 42.5t-108.5 16.5
q-80 0 -136 -23q-34 -104 -104 -104q-23 0 -36 13t-13 34q0 40 67 85.5t226 102.5l231 82q-186 55 -297.5 198t-111.5 357q0 115 36 236.5t100.5 235.5t161 216t211 177.5t257.5 120t294 44.5q127 0 237.5 -39t194 -111.5t131.5 -183.5t48 -247q0 -115 -36 -236.5
t-100.5 -235.5t-161 -216t-211 -178t-258 -120.5t-294.5 -44.5zM797 35q155 0 299.5 80.5t250 213.5t169 312.5t63.5 368.5q0 237 -106.5 376.5t-298.5 139.5q-155 0 -300 -80.5t-250.5 -213t-169 -311.5t-63.5 -368q0 -238 107 -378t299 -140z" />
    <glyph glyph-name="R" unicode="R" horiz-adv-x="1576" 
d="M-45 0l14 49l94 6q52 5 77 19.5t38 54.5l395 1294q13 40 -4 54.5t-65 19.5l-90 6l16 49h574q264 0 411.5 -74.5t147.5 -232.5q0 -186 -158 -309t-438 -148l530 -788h-252l-508 764h-155l-197 -635q-13 -40 5 -54.5t67 -19.5l90 -6l-15 -49h-577zM600 827h182
q135 0 241.5 34.5t172.5 94.5t100.5 137t34.5 164q0 232 -348 232h-182z" />
    <glyph glyph-name="S" unicode="S" horiz-adv-x="1247" 
d="M414 -25q-102 0 -217.5 30t-202.5 85l119 420h37l40 -360q7 -63 62 -82q89 -29 197 -29q73 0 146 20t135.5 58t102 101t39.5 140q0 83 -34.5 153t-114.5 167l-137 160q-75 88 -112.5 163.5t-37.5 161.5q0 122 79.5 221t203 151t260.5 52q259 0 395 -102l-80 -385h-37
l-75 327q-7 34 -20.5 50t-37.5 24q-59 21 -133 21q-92 0 -172.5 -26t-137 -85t-56.5 -141q0 -53 18 -101t38 -76t62 -79l138 -160q102 -116 149 -197t47 -176q0 -96 -49 -187t-134.5 -162t-211 -114t-268.5 -43z" />
    <glyph glyph-name="T" unicode="T" horiz-adv-x="1550" 
d="M301 0l16 51l123 6q53 5 78.5 18.5t36.5 53.5l418 1364h-348q-28 0 -39.5 -5.5t-28.5 -27.5l-309 -387h-37l197 479h1374l-96 -479h-37l-54 387q-4 22 -13.5 27.5t-35.5 5.5h-366l-416 -1364q-13 -40 4.5 -53.5t67.5 -18.5l120 -6l-16 -51h-639z" />
    <glyph glyph-name="U" unicode="U" horiz-adv-x="1767" 
d="M776 -25q-156 0 -268 38t-180 117.5t-76.5 202t41.5 292.5l244 798q11 40 -6 54.5t-66 19.5l-88 6l14 49h578l-15 -49l-94 -6q-52 -5 -78 -19.5t-39 -54.5l-249 -821q-78 -258 2 -382t327 -124q490 0 650 525l245 802q13 40 -4 54.5t-65 19.5l-103 6l15 49h460l-14 -49
l-94 -6q-52 -5 -77 -19.5t-38 -54.5l-250 -815q-99 -318 -285.5 -475.5t-486.5 -157.5z" />
    <glyph glyph-name="V" unicode="V" horiz-adv-x="1658" 
d="M188 -49l365 1472q10 40 -6.5 54.5t-63.5 19.5l-90 6l15 49h577l-14 -49l-94 -6q-53 -5 -79 -19.5t-36 -54.5l-291 -1151l1255 1155q25 23 33.5 36.5t0 22t-39.5 11.5l-125 6l15 49h504l-17 -49l-90 -6q-105 -10 -168 -70l-1614 -1476h-37z" />
    <glyph glyph-name="W" unicode="W" horiz-adv-x="2572" 
d="M188 -49l365 1472q10 40 -6.5 54.5t-63.5 19.5l-90 6l15 49h577l-14 -49l-94 -6q-53 -5 -79 -19.5t-36 -54.5l-291 -1151l915 840l109 440h453l-15 -49l-143 -6q-50 -2 -77.5 -17.5t-37.5 -56.5l-291 -1151l1256 1155q25 23 33.5 36.5t0 22t-39.5 11.5l-125 6l14 49h504
l-16 -49l-91 -6q-104 -10 -167 -70l-1614 -1476h-37l252 1030l-1129 -1030h-37z" />
    <glyph glyph-name="X" unicode="X" horiz-adv-x="1728" 
d="M-215 0l22 49l89 6q96 6 172 70l817 659l-189 643q-10 35 -30.5 50t-61.5 20l-86 6l23 49h575l-22 -49l-105 -8q-52 -5 -71 -19.5t-9 -48.5l148 -505l629 505q28 22 37 35.5t-0.5 21.5t-41.5 11l-98 8l23 49h479l-23 -49l-88 -6q-94 -6 -170 -70l-725 -583l211 -719
q10 -35 30.5 -50t63.5 -20l84 -6l-22 -49h-576l23 49l104 8q53 5 72.5 19.5t9.5 48.5l-170 582l-723 -582q-29 -25 -38 -37.5t-0.5 -20t40.5 -10.5l101 -8l-23 -49h-481z" />
    <glyph glyph-name="Y" unicode="Y" horiz-adv-x="1595" 
d="M324 0l16 51l123 6q53 5 77.5 18.5t37.5 53.5l176 571l-287 727q-14 39 -29.5 52.5t-60.5 17.5l-88 6l16 49h580l-17 -49l-102 -6q-53 -5 -75 -21t-9 -49l252 -645l649 645q35 35 26.5 50t-57.5 20l-125 6l15 49h497l-16 -49l-90 -6q-46 -4 -75.5 -19t-67.5 -51
l-729 -727l-177 -571q-13 -40 5.5 -55t66.5 -17l123 -6l-16 -51h-639z" />
    <glyph glyph-name="Z" unicode="Z" horiz-adv-x="1521" 
d="M-98 0l6 20l1526 1469h-650q-6 0 -11 -0.5t-8.5 -0.5t-7.5 -1t-6.5 -1.5t-6 -3t-5.5 -3t-6 -4.5t-6 -5.5t-7.5 -6.5t-8.5 -7l-381 -362h-37l282 458h1160l-9 -22l-1519 -1467h741q29 0 40 5t34 28l381 363h37l-283 -459h-1255z" />
    <glyph glyph-name="bracketleft" unicode="[" horiz-adv-x="630" 
d="M-119 -465l733 2130h338l-16 -49l-88 -4q-73 -5 -107 -28.5t-57 -88.5l-616 -1792q-23 -66 -6 -89t90 -28l86 -4l-19 -47h-338z" />
    <glyph glyph-name="backslash" unicode="\" horiz-adv-x="1503" 
d="M1282 -106h-133l-776 1732h133z" />
    <glyph glyph-name="bracketright" unicode="]" horiz-adv-x="630" 
d="M805 1665l-733 -2130h-338l16 49l88 4q73 5 107 28.5t57 88.5l616 1792q23 66 6 89t-89 28l-86 4l18 47h338z" />
    <glyph glyph-name="asciicircum" unicode="^" horiz-adv-x="1337" 
d="M264 739l721 850h102l136 -850h-101l-116 738l-625 -738h-117z" />
    <glyph glyph-name="underscore" unicode="_" horiz-adv-x="1173" 
d="M-193 -209l33 96h1116l-32 -96h-1117z" />
    <glyph glyph-name="grave" unicode="`" 
d="M121 1223h-35l-231 352l6 14h174z" />
    <glyph glyph-name="a" unicode="a" horiz-adv-x="1161" 
d="M211 -25q-91 0 -141 57.5t-50 157.5q0 108 44.5 232t120 235t167 203t194 146.5t191.5 54.5q68 0 104.5 -42t41.5 -104h2l49 136h180l-317 -865q-19 -51 -23.5 -80.5t3.5 -41t28 -11.5q55 0 132.5 70t156.5 213l41 -19q-89 -170 -195 -256t-242 -86q-39 0 -63 9.5
t-34.5 26t-10 44t8.5 57.5t24 72l73 195h-4q-126 -203 -243.5 -303.5t-237.5 -100.5zM313 80q69 0 160.5 84t175 216t137.5 275q66 189 51 274t-100 85t-179 -83.5t-165 -204.5t-117.5 -262t-46.5 -251q0 -64 21.5 -98.5t62.5 -34.5z" />
    <glyph glyph-name="b" unicode="b" horiz-adv-x="1128" 
d="M313 -25q-56 0 -98.5 8t-79 30.5t-53.5 59.5t-13.5 99t31.5 145l381 1108l-157 80l4 13l409 90l-258 -750l-96 -233h4q259 434 524 434q105 0 156 -60t51 -163q0 -92 -35.5 -194.5t-95 -196.5t-140.5 -180.5t-169 -150t-183.5 -101.5t-181.5 -38zM346 23q89 0 191 80.5
t181 198.5t132 259t53 256q0 137 -100 137q-72 0 -170.5 -85t-188 -221t-137.5 -275q-49 -132 -60 -207.5t12.5 -109t86.5 -33.5z" />
    <glyph glyph-name="c" unicode="c" horiz-adv-x="925" 
d="M328 -25q-130 0 -202.5 79.5t-72.5 226.5q0 138 59.5 280t153.5 251t219.5 178t249.5 69q100 0 152.5 -45t52.5 -121q0 -77 -51.5 -119t-140.5 -29q36 113 24.5 190t-74.5 77q-72 0 -150 -59.5t-140.5 -154t-103 -222.5t-40.5 -254q0 -125 51 -188.5t127 -63.5
q87 0 164.5 72t153.5 233l41 -17q-90 -202 -203.5 -292.5t-269.5 -90.5z" />
    <glyph glyph-name="d" unicode="d" horiz-adv-x="1204" 
d="M221 -25q-93 0 -145.5 60t-52.5 168q0 134 70 289t175 279t234.5 207t240.5 83q70 0 109 -39t47 -107h2l172 510l-166 80l4 13l416 90l-481 -1422q-15 -40 -21.5 -65.5t-5 -40.5t9.5 -21t25 -6q56 0 134.5 70.5t154.5 212.5l41 -19q-89 -170 -195.5 -256t-243.5 -86
q-39 0 -62.5 9.5t-34 25.5t-9.5 44.5t8 57t21 72.5l71 205h-4q-126 -212 -250 -313t-264 -101zM342 80q68 0 161 83t177.5 213.5t132.5 264.5q64 186 44.5 279.5t-109.5 93.5q-88 0 -183 -79.5t-166 -197t-117 -255.5t-46 -251q0 -151 106 -151z" />
    <glyph glyph-name="e" unicode="e" horiz-adv-x="952" 
d="M324 -25q-130 0 -202.5 79.5t-72.5 226.5q0 141 68 285.5t171 251t229 174t239 67.5q111 0 164 -50t53 -135q0 -66 -42.5 -131.5t-117.5 -105.5l-487 -4q-66 -155 -66 -311q0 -126 49.5 -189t124.5 -63q180 0 340 313l43 -14q-100 -204 -215 -299t-278 -95zM748 1014
q-107 0 -220.5 -95.5t-185.5 -246.5h111q174 0 288.5 74t114.5 176q0 92 -108 92z" />
    <glyph glyph-name="f" unicode="f" horiz-adv-x="710" 
d="M-250 -526q-53 0 -84 27t-31 69q0 40 26 66t65 28q113 -70 186 -70q40 0 68.5 33t60 128t72.5 278l194 891h-160l17 47q40 3 65.5 7t51.5 18.5t42.5 30.5t41 53t45 75.5t55.5 108.5q43 90 99 157t113.5 103.5t110.5 53.5t103 17q67 0 97 -29t30 -75q0 -33 -20 -63.5
t-54 -47.5q-103 50 -186 50q-116 0 -185 -79.5t-69 -199.5q0 -123 84 -123h297l-64 -104h-329l-101 -455q-42 -190 -92.5 -343.5t-98 -255.5t-101 -177.5t-98.5 -116.5t-94.5 -65t-84 -30.5t-72.5 -6.5z" />
    <glyph glyph-name="g" unicode="g" horiz-adv-x="1013" 
d="M449 336q-66 0 -109 14l-143 -139l315 -191q131 -79 185.5 -134.5t54.5 -137.5q0 -90 -74.5 -155.5t-184 -95t-235.5 -29.5q-233 0 -375.5 70.5t-142.5 187.5q0 49 30 91t90 77.5t133 64t175 59.5l-84 152l203 199q-70 33 -110 91.5t-40 135.5q0 119 72.5 227t190 172
t245.5 64q140 0 229 -76l74 133h215l-84 -149h-186q70 -70 70 -168q0 -119 -74 -227t-193 -172t-247 -64zM485 385q110 0 192.5 112t82.5 285q0 107 -39 168.5t-113 61.5q-111 0 -192.5 -112.5t-81.5 -285.5q0 -108 38.5 -168.5t112.5 -60.5zM-96 -246q0 -108 106 -174.5
t289 -66.5q133 0 216 39.5t83 111.5q0 45 -39.5 87.5t-144.5 107.5l-219 133q-154 -61 -222.5 -111.5t-68.5 -126.5z" />
    <glyph glyph-name="h" unicode="h" horiz-adv-x="1153" 
d="M541 -25q-80 0 -133.5 39.5t-53.5 104.5q0 55 46 86.5t106 25.5q41 -146 53 -175t31 -29q70 0 143 117.5t118.5 284.5t45.5 310q0 115 -25 165t-79 50q-77 0 -171 -97.5t-173 -235t-140 -291.5q-103 -265 -119 -316l-196 -34l500 1443l-152 82l6 13l402 90l-261 -750
l-106 -274h4q133 249 253.5 362t260.5 113q98 0 151.5 -70t53.5 -209q0 -119 -52.5 -262.5t-132.5 -262.5t-183.5 -199.5t-196.5 -80.5z" />
    <glyph glyph-name="i" unicode="i" horiz-adv-x="663" 
d="M526 1479q0 51 39 90t92 39t92 -39t39 -90q0 -54 -38.5 -93.5t-92.5 -39.5t-92.5 39.5t-38.5 93.5zM186 -25q-94 0 -114.5 52.5t20.5 150.5l295 766l-188 8l16 43l410 66l-338 -875q-30 -78 -27.5 -105.5t35.5 -27.5q56 0 134.5 70.5t154.5 212.5l41 -19
q-89 -170 -195.5 -256t-243.5 -86z" />
    <glyph glyph-name="j" unicode="j" horiz-adv-x="583" 
d="M-449 -532l-16 34q81 52 120.5 78.5t94.5 68.5t84.5 75.5t67 84.5t67 111.5t62.5 142.5l356 881l-186 8l16 43l410 66l-416 -1028q-27 -65 -42.5 -100.5t-38 -77.5t-42 -65.5t-49 -51.5t-64.5 -49.5t-84 -46.5zM545 1479q0 51 38.5 90t92.5 39t92.5 -39t38.5 -90
q0 -54 -38.5 -93.5t-92.5 -39.5t-92.5 39.5t-38.5 93.5z" />
    <glyph glyph-name="k" unicode="k" horiz-adv-x="1196" 
d="M834 -78q-79 0 -138 52.5t-123 175.5l-192 372q135 0 253 44t192.5 128.5t74.5 190.5q0 53 -23 82.5t-69 29.5q-76 0 -170 -88.5t-169.5 -211t-117.5 -240.5l-65 -189l-82 -250l-211 -38l498 1445l-160 80l6 13l410 90l-224 -647l-98 -259h4q55 92 103 155.5t104.5 115
t120 76t137.5 24.5q98 0 143 -46.5t45 -117.5q0 -82 -69 -160.5t-175 -135t-237 -93.5l221 -420q36 -70 54.5 -90t44.5 -20q36 0 80 47.5t83 167.5l43 -12q-51 -156 -119 -213.5t-175 -57.5z" />
    <glyph glyph-name="l" unicode="l" horiz-adv-x="630" 
d="M164 -25q-48 0 -76.5 13t-37.5 40t-3.5 63t23.5 87l428 1247l-160 80l6 13l410 90l-490 -1422q-14 -42 -20 -66t-5 -40t8.5 -21.5t24.5 -5.5q56 0 134.5 70.5t154.5 212.5l41 -19q-89 -170 -195 -256t-243 -86z" />
    <glyph glyph-name="m" unicode="m" horiz-adv-x="1832" 
d="M1341 -25q-98 0 -123 54.5t21 148.5l221 471q102 218 87 278q-8 34 -52 34q-57 0 -125.5 -65.5t-165.5 -195.5q-112 -148 -223 -338t-170 -344l-203 -38l260 669q37 96 53.5 142t26 92t-2 62t-42.5 16q-55 0 -123 -64t-166 -192q-113 -152 -223.5 -342.5t-169.5 -344.5
l-209 -38l371 964l-186 8l16 43l408 66l-291 -733h2q117 228 272 442q112 152 206 220.5t196 68.5q63 0 94.5 -26t33.5 -80.5t-18 -126.5t-63 -175l-133 -323h2q112 218 274 442q112 152 205.5 220.5t195.5 68.5q252 0 60 -408l-217 -465q-23 -50 -27.5 -80.5t4.5 -41.5
t31 -11q58 0 136.5 70t154.5 213l41 -19q-89 -170 -195.5 -256t-243.5 -86z" />
    <glyph glyph-name="n" unicode="n" horiz-adv-x="1243" 
d="M752 -25q-98 0 -123.5 54.5t20.5 148.5l221 471q104 222 85 281q-10 31 -52 31q-55 0 -123 -64t-166 -192q-113 -152 -223.5 -342.5t-169.5 -344.5l-209 -38l371 964l-186 8l16 43l408 66l-291 -733h2q117 228 272 442q112 152 206 220.5t196 68.5q253 0 61 -408
l-217 -465q-23 -50 -27.5 -80.5t4.5 -41.5t31 -11q56 0 134 70t157 213l41 -19q-89 -170 -195 -256t-243 -86z" />
    <glyph glyph-name="o" unicode="o" horiz-adv-x="1112" 
d="M375 -25q-146 0 -232 89t-86 231q0 136 58 274.5t151.5 246t220 175.5t254.5 68q146 0 232 -88.5t86 -229.5q0 -137 -57.5 -276t-150.5 -246.5t-219.5 -175.5t-256.5 -68zM440 33q56 0 114 34t110 99t93 150t65 196t24 229q0 131 -43 195.5t-123 64.5q-71 0 -144 -54
t-131.5 -145.5t-95.5 -225.5t-37 -281q0 -132 44 -197t124 -65z" />
    <glyph glyph-name="p" unicode="p" horiz-adv-x="1165" 
d="M-125 -508l500 1452l-189 8l17 43l405 66l-57 -166q66 75 155 119.5t175 44.5q122 0 190 -68.5t68 -191.5q0 -116 -47 -238t-132.5 -228t-196 -188.5t-249 -127t-278.5 -37.5l-168 -488h-193zM754 948q-121 0 -217 -96l-285 -827q88 -6 176.5 24.5t161 85.5t136 129.5
t107 156.5t68.5 165.5t25 156.5q0 205 -172 205z" />
    <glyph glyph-name="q" unicode="q" horiz-adv-x="1128" 
d="M408 -508l221 647l80 199h-4q-124 -188 -239.5 -275.5t-244.5 -87.5q-93 0 -145.5 60t-52.5 168q0 134 70 289t175 279t234.5 207t240.5 83q71 0 112.5 -39t49.5 -107h4l47 136h181l-537 -1559h-192zM236 231q0 -151 106 -151q68 0 161 83t177.5 213.5t132.5 264.5
q64 186 44.5 279.5t-109.5 93.5q-88 0 -183 -79.5t-166 -197t-117 -255.5t-46 -251z" />
    <glyph glyph-name="r" unicode="r" horiz-adv-x="919" 
d="M14 -20l371 964l-188 8l16 43l408 66l-271 -696h2q168 326 250 448q87 130 158.5 188t146.5 58q54 0 85.5 -37t31.5 -90q0 -56 -35.5 -98.5t-103.5 -49.5l-92 179q-46 -36 -98 -101t-111 -163t-103 -176t-113 -206.5t-102 -187.5l-43 -111z" />
    <glyph glyph-name="s" unicode="s" horiz-adv-x="800" 
d="M229 -25q-114 0 -180.5 52t-66.5 127q0 56 50 88t118 26q48 -176 62.5 -208.5t41.5 -32.5q28 0 61.5 10t67 29.5t56 56.5t22.5 84q0 46 -17.5 83.5t-60.5 98.5l-90 121q-86 115 -86 217q0 90 58.5 167.5t151.5 121t195 43.5q92 0 147.5 -41t55.5 -107q0 -57 -41 -90.5
t-119 -29.5q-37 158 -48.5 186.5t-39.5 28.5q-71 0 -142 -43t-71 -109q0 -75 78 -182l90 -121q92 -127 92 -229q0 -77 -36 -143.5t-92.5 -110t-124 -68.5t-132.5 -25z" />
    <glyph glyph-name="t" unicode="t" horiz-adv-x="772" 
d="M190 -25q-96 0 -117 53t21 150l301 746h-243l41 104h245l92 232h193l-92 -232h293l-41 -104h-295l-295 -736q-21 -52 -27 -81.5t2 -41.5t29 -12q58 0 141 71t158 212l41 -19q-180 -342 -447 -342z" />
    <glyph glyph-name="u" unicode="u" horiz-adv-x="1241" 
d="M635 1061l-289 -674q-37 -87 -56 -142t-25.5 -95.5t5 -58t41.5 -17.5q56 0 125 66t166 196q107 146 216.5 334t176.5 348l203 31l-332 -863q-20 -52 -25.5 -81t2.5 -40.5t29 -11.5q56 0 134.5 70.5t154.5 212.5l43 -19q-89 -170 -195 -256t-243 -86q-96 0 -117 52.5
t21 150.5l200 508h-2q-116 -229 -260 -420q-112 -153 -204 -222t-195 -69q-126 0 -140 99.5t78 310.5l238 559l-188 8l16 43z" />
    <glyph glyph-name="v" unicode="v" horiz-adv-x="1146" 
d="M1102 866q0 -134 -36.5 -267t-102.5 -244t-152 -197t-192.5 -134.5t-215.5 -48.5q-130 0 -197 69t-67 177q0 141 121.5 307t337.5 328h-410l-96 -166h-45l152 338h637q-89 -73 -156 -131.5t-139.5 -133t-119 -139t-76.5 -137.5t-30 -139q0 -192 199 -192q172 0 321 148.5
t205 391.5l-161 217q-10 66 23 106t83 40q55 0 86 -42.5t31 -150.5z" />
    <glyph glyph-name="w" unicode="w" horiz-adv-x="1679" 
d="M350 -25q-104 0 -157.5 60t-53.5 168q0 144 117 310t348 343h-418l-96 -166h-45l152 338h647q-58 -48 -88.5 -73.5t-84 -72t-83 -75.5t-73.5 -73.5t-69 -77.5t-54.5 -76.5t-44.5 -80t-25.5 -78.5t-10.5 -83q0 -87 48.5 -134.5t140.5 -47.5q110 0 231 71q-22 90 -22 179
q0 148 60 301.5t154.5 252.5t186.5 99q55 0 85 -34.5t30 -102.5q0 -90 -48.5 -220t-156.5 -268q-77 -99 -160 -182q84 -96 225 -96q80 0 157.5 37.5t141.5 105.5t110 171t62 226l-161 217q-10 66 23 106t83 40q55 0 86 -42.5t31 -150.5q0 -151 -43.5 -307.5t-119 -287
t-191 -213.5t-246.5 -83q-180 0 -262 183q-226 -183 -406 -183zM774 512q0 -126 53 -215q80 71 146 154q162 196 162 337q0 54 -27.5 83.5t-73.5 29.5q-93 0 -176.5 -114t-83.5 -275z" />
    <glyph glyph-name="x" unicode="x" horiz-adv-x="1200" 
d="M80 -25q-63 0 -100 36.5t-37 86.5q0 64 43 110t114 50q11 -105 24.5 -146.5t39.5 -41.5q60 0 154.5 106t199.5 277l-49 370q-7 44 -10.5 63.5t-11.5 44.5t-19.5 34.5t-28.5 9.5q-47 0 -111.5 -64.5t-131.5 -175.5l-37 27q92 147 177 222t185 75q34 0 58 -7.5t48.5 -30
t41 -70t26.5 -120.5l23 -176q135 215 244.5 309.5t207.5 94.5q63 0 100.5 -36.5t37.5 -86.5q0 -64 -43.5 -110t-114.5 -50q-11 106 -24 147.5t-39 41.5q-110 0 -359 -390l47 -362q6 -41 10.5 -63t12.5 -45.5t20 -33.5t29 -10q47 0 112.5 64t133.5 174l34 -25
q-92 -147 -178 -223t-184 -76q-34 0 -58 8t-48 31t-41 70t-27 119l-23 170q-134 -213 -242.5 -305.5t-205.5 -92.5z" />
    <glyph glyph-name="y" unicode="y" horiz-adv-x="1177" 
d="M-188 -532q-152 0 -152 110q0 63 61 103q39 -36 77 -52t91 -16q89 0 190.5 72.5t254.5 271.5l-10 979h-181l2 43l371 82l4 -858l369 485q61 82 94 124.5t73.5 93t63 73t49.5 44.5t47.5 29t43.5 7q38 0 63 -25t25 -65q0 -55 -29 -78q-139 -41 -226.5 -98t-197.5 -199
l-494 -641q-370 -485 -589 -485z" />
    <glyph glyph-name="z" unicode="z" horiz-adv-x="1044" 
d="M170 674l139 354h830l-654 -551l123 -274q51 -115 88 -158t84 -43q44 0 71 33.5t31 108.5t-38 196l39 16q69 -207 27.5 -312t-179.5 -105q-104 0 -183 59.5t-157 212.5l-65 129l-193 -162q-39 -33 -42 -72.5t18 -109.5q-59 -29 -111.5 -11.5t-52.5 62.5q0 26 20 54t78 75
l805 680h-545l-92 -182h-41z" />
    <glyph glyph-name="braceleft" unicode="{" horiz-adv-x="708" 
d="M326 -442l-17 -41q-68 10 -126.5 37.5t-101 75t-61.5 108.5t-6 143t62 174l110 209q44 86 56 149.5t-7.5 103.5t-59 63t-103.5 34l18 50q147 22 236.5 102t117.5 248l33 209q18 117 70 205t129 139.5t167.5 76.5t194.5 25l2 -45q-176 -4 -261.5 -86.5t-112.5 -259.5
l-27 -180q-16 -108 -58 -191.5t-103 -136.5t-130.5 -84.5t-150.5 -44.5v-6q69 -13 117.5 -44t75.5 -83.5t13 -136.5t-73 -191l-99 -180q-95 -170 -70.5 -291.5t165.5 -150.5z" />
    <glyph glyph-name="bar" unicode="|" horiz-adv-x="677" 
d="M307 -465v2130h123v-2130h-123z" />
    <glyph glyph-name="braceright" unicode="}" horiz-adv-x="708" 
d="M436 1626l17 41q68 -10 126.5 -38t101 -75.5t61.5 -108t6 -143t-62 -174.5l-111 -208q-44 -86 -56 -149.5t8 -104t59.5 -63.5t103.5 -34l-18 -49q-147 -22 -237 -102t-118 -248l-32 -209q-18 -117 -70 -205t-129 -139.5t-167.5 -76.5t-194.5 -25l-3 45q176 4 262 86.5
t113 259.5l27 180q16 108 58 191.5t103 136.5t130.5 84.5t150.5 44.5v6q-69 13 -117.5 44t-75.5 83.5t-13 136.5t73 191l98 180q95 170 71 291.5t-165 150.5z" />
    <glyph glyph-name="asciitilde" unicode="~" horiz-adv-x="1337" 
d="M434 678q62 0 120.5 -19.5t103.5 -48t87 -56.5t87.5 -47.5t89.5 -19.5q166 0 186 183h102q-11 -132 -93.5 -203.5t-196.5 -71.5q-55 0 -109 19.5t-98 47t-87 55.5t-93 47.5t-99 19.5q-167 0 -186 -181h-103q13 131 94 203t195 72z" />
    <glyph glyph-name="uni00A0" unicode="&#xa0;" horiz-adv-x="491" 
 />
    <glyph glyph-name="exclamdown" unicode="&#xa1;" horiz-adv-x="565" 
d="M289 596h59q-69 -243 -107.5 -434t-67 -342t-75.5 -309q-8 -28 -69.5 -40t-116 2.5t-45.5 49.5q48 156 111 300.5t145.5 337t165.5 435.5zM403 1061q56 0 95 -40t39 -97q0 -56 -39.5 -96t-94.5 -40q-59 0 -98 40t-39 96q0 58 39 97.5t98 39.5z" />
    <glyph glyph-name="cent" unicode="&#xa2;" horiz-adv-x="927" 
d="M197 -246l79 226q-107 14 -166 91t-59 210q0 174 89 346.5t234.5 289.5t303.5 138l80 215h65l-80 -211q96 -4 145.5 -48t49.5 -118q0 -77 -52 -119t-141 -29q36 113 25 190t-74 77q-72 0 -150 -59.5t-140.5 -154t-103 -222.5t-40.5 -254q0 -125 51 -188.5t127 -63.5
q87 0 164.5 72t153.5 233l41 -17q-90 -199 -199 -288.5t-260 -94.5l-78 -221h-65z" />
    <glyph glyph-name="sterling" unicode="&#xa3;" horiz-adv-x="1275" 
d="M-82 0l2 8l307 213q179 125 256.5 227t77.5 203v17h-362l24 75h326q-3 10 -6.5 21t-8.5 24t-8 21l-51 131q-43 115 -43 209q0 115 90 217t236 161.5t305 59.5q155 0 241.5 -54t86.5 -136q0 -62 -51.5 -100t-139.5 -31q11 124 -59.5 189t-182.5 65q-131 0 -229 -80
t-98 -209q0 -73 35 -160l51 -131q45 -113 45 -190v-7h379l-25 -75h-366q-26 -91 -119 -191t-273 -221l-137 -92h864l-96 -164h-1071z" />
    <glyph glyph-name="yen" unicode="&#xa5;" horiz-adv-x="1712" 
d="M412 0l14 47l92 2q94 3 113 74l80 262h-432l22 76h434l47 155h-434l23 76h436l2 8l-285 734q-15 38 -28.5 50.5t-55.5 16.5l-88 6l15 45h569l-14 -45l-105 -6q-53 -5 -77 -19.5t-11 -47.5l250 -652l651 652q23 23 22 37t-18 20.5t-51 9.5l-100 6l14 45h467l-14 -45
l-92 -6q-45 -4 -65.5 -16t-59.5 -51l-732 -734l-2 -8h433l-23 -76h-434l-47 -155h434l-23 -76h-436l-80 -262q-10 -37 7 -54.5t61 -19.5l92 -2l-14 -47h-557z" />
    <glyph glyph-name="brokenbar" unicode="&#xa6;" horiz-adv-x="677" 
d="M307 825v840h123v-840h-123zM307 -465v840h123v-840h-123z" />
    <glyph glyph-name="section" unicode="&#xa7;" horiz-adv-x="1261" 
d="M520 406l-92 153q-63 104 -95 200t-32 204q0 166 101 310t272.5 229t369.5 85q179 0 272 -70.5t93 -158.5q0 -83 -68.5 -120t-154.5 -24q78 312 -197 312q-146 0 -222.5 -85t-76.5 -222q0 -145 117 -342l90 -154q84 -145 125 -246.5t41 -214.5q0 -124 -61 -245
t-162.5 -213t-242 -148.5t-290.5 -56.5q-96 0 -176.5 25t-131 66t-78 90t-27.5 99q1 84 63.5 123t159.5 31q-18 -77 -13 -146t27.5 -121.5t73.5 -83t125 -30.5q75 0 137.5 32t102 84t61.5 117.5t22 134.5q0 90 -32 180t-101 206zM555 -307q184 80 290.5 231.5t106.5 313.5
q0 182 -155 436l-92 155q-107 183 -107 322q0 207 162 328q-164 -72 -259 -206.5t-95 -283.5q0 -171 106 -346l94 -156q82 -143 116 -225t34 -176q0 -102 -49 -206.5t-152 -186.5z" />
    <glyph glyph-name="dieresis" unicode="&#xa8;" 
d="M-238 1315q-54 0 -92.5 39.5t-38.5 93.5q0 52 38.5 90.5t92.5 38.5t93 -39t39 -90q0 -54 -39 -93.5t-93 -39.5zM238 1315q-54 0 -93 39.5t-39 93.5q0 51 39 90t93 39t92.5 -38.5t38.5 -90.5q0 -54 -38.5 -93.5t-92.5 -39.5z" />
    <glyph glyph-name="copyright" unicode="&#xa9;" horiz-adv-x="1857" 
d="M1012 -25q-170 0 -319.5 61t-255.5 167t-167 255.5t-61 321.5t61 322.5t167 256.5t255 167t320 61q226 0 409.5 -103.5t288.5 -288.5t105 -415q0 -229 -105 -413.5t-288.5 -288t-409.5 -103.5zM1012 43q147 0 278.5 52t229.5 146t155.5 233.5t57.5 305.5t-57.5 306.5
t-155.5 234.5t-229.5 146.5t-278.5 52.5t-278.5 -52.5t-229.5 -146.5t-155.5 -234.5t-57.5 -306.5t57.5 -305.5t155.5 -233.5t229.5 -146t278.5 -52zM1040 334q-220 0 -361.5 126t-141.5 333t143 332.5t367 125.5q163 0 274 -51l51 -270h-12l-135 203q-25 35 -56 51
q-43 24 -129 24q-67 0 -127.5 -22t-111.5 -66.5t-81 -121.5t-30 -177q0 -193 96 -317.5t267 -124.5q85 0 131 24q31 16 55 52l137 202h13l-62 -272q-111 -51 -287 -51z" />
    <glyph glyph-name="ordfeminine" unicode="&#xaa;" horiz-adv-x="1087" 
d="M395 725q-73 0 -114 47.5t-41 126.5q0 109 58 236t145 229t194 170t199 68q53 0 82.5 -32.5t31.5 -78.5h4l37 104h158l-256 -694q-12 -32 -17 -52.5t-4.5 -33t7.5 -17.5t20 -5q46 0 113.5 57t130.5 172l35 -16q-145 -281 -375 -281q-76 0 -88 44.5t24 129.5l58 150h-4
q-102 -169 -195 -246.5t-203 -77.5zM494 815q48 0 122 68t145 175.5t111 215.5q54 152 42 220.5t-78 68.5q-68 0 -143.5 -67t-134.5 -164t-97.5 -210.5t-38.5 -203.5q0 -103 72 -103z" />
    <glyph glyph-name="guillemotleft" unicode="&#xab;" horiz-adv-x="1136" 
d="M279 516l159 -442l-28 -15l-310 463l627 461l18 -22zM700 516l160 -442l-29 -15l-309 463l627 461l18 -22z" />
    <glyph glyph-name="uni00AD" unicode="&#xad;" horiz-adv-x="894" 
d="M135 481l37 109h602l-37 -109h-602z" />
    <glyph glyph-name="registered" unicode="&#xae;" horiz-adv-x="1857" 
d="M1012 -25q-170 0 -319.5 61t-255.5 167t-167 255.5t-61 321.5t61 322.5t167 256.5t255 167t320 61q226 0 409.5 -103.5t288.5 -288.5t105 -415q0 -229 -105 -413.5t-288.5 -288t-409.5 -103.5zM1012 43q147 0 278.5 52t229.5 146t155.5 233.5t57.5 305.5t-57.5 306.5
t-155.5 234.5t-229.5 146.5t-278.5 52.5t-278.5 -52.5t-229.5 -146.5t-155.5 -234.5t-57.5 -306.5t57.5 -305.5t155.5 -233.5t229.5 -146t278.5 -52zM612 367v34l47 5q24 4 33.5 6.5t17 12t7.5 28.5v708q0 27 -12.5 35.5t-45.5 13.5l-47 4v33h344q85 0 150 -10.5t116 -34
t78 -66t27 -102.5q0 -86 -61.5 -142.5t-178.5 -76.5l392 -448h-170l-369 432h-86v-346q0 -27 11.5 -34.5t45.5 -12.5l47 -5v-34h-346zM854 842h94q226 0 226 182q0 180 -226 180h-94v-362z" />
    <glyph glyph-name="macron" unicode="&#xaf;" 
d="M-307 1368l33 92h579l-31 -92h-581z" />
    <glyph glyph-name="degree" unicode="&#xb0;" horiz-adv-x="897" 
d="M659 895q-147 0 -247.5 100.5t-100.5 245.5t100.5 245.5t247.5 100.5t248 -100.5t101 -245.5t-101 -245.5t-248 -100.5zM659 981q103 0 177.5 72.5t74.5 187.5q0 114 -74.5 186t-177.5 72t-177 -72t-74 -186q0 -115 74 -187.5t177 -72.5z" />
    <glyph glyph-name="plusminus" unicode="&#xb1;" horiz-adv-x="1337" 
d="M580 213v383h-465v102h465v375h106v-375h463v-102h-463v-383h-106zM115 0v102h1034v-102h-1034z" />
    <glyph glyph-name="twosuperior" unicode="&#xb2;" horiz-adv-x="720" 
d="M123 821l2 6q351 252 503 402t152 268q0 62 -35.5 95.5t-101.5 33.5q-78 0 -135 -49.5t-76 -149.5h-33q12 125 91.5 199t207.5 74q102 0 159.5 -50.5t57.5 -133.5q0 -103 -94 -203.5t-334 -257.5l-178 -117h301q57 0 78 9.5t53 45.5l52 68l28 -8l-139 -232h-559z" />
    <glyph glyph-name="threesuperior" unicode="&#xb3;" horiz-adv-x="700" 
d="M807 1139q0 -129 -116.5 -232.5t-268.5 -103.5q-99 0 -162 51.5t-63 112.5q0 36 31.5 56t78.5 13q14 -186 160 -186q84 0 145.5 62t61.5 167q0 95 -46 148t-110 53q-26 0 -47 -6l-4 35l53 12q106 19 175 68.5t69 123.5q0 55 -34 84t-99 29q-67 0 -120 -38t-75 -122h-33
q19 110 93.5 172t187.5 62q99 0 154 -43t55 -109q0 -71 -58 -119.5t-161 -72.5v-2q63 -31 98 -87t35 -128z" />
    <glyph glyph-name="acute" unicode="&#xb4;" 
d="M-258 1223l295 366h227l-6 -14l-473 -352h-43z" />
    <glyph glyph-name="paragraph" unicode="&#xb6;" horiz-adv-x="1196" 
d="M309 -424l307 1010h-22q-176 0 -279.5 89.5t-103.5 239.5q0 132 63 248t176.5 202.5t282.5 136.5t369 50h321l-14 -51l-94 -6q-53 -5 -79.5 -19.5t-39.5 -54.5l-487 -1595l-170 -105l272 904q-77 -26 -125 -33l-293 -963z" />
    <glyph glyph-name="periodcentered" unicode="&#xb7;" horiz-adv-x="565" 
d="M287 399q-55 0 -94 40.5t-39 97.5q0 56 39 95.5t94 39.5q59 0 98 -39.5t39 -95.5q0 -58 -39 -98t-98 -40z" />
    <glyph glyph-name="cedilla" unicode="&#xb8;" 
d="M-70 -526q-93 0 -152 41t-59 92q0 35 27 49.5t59 -2.5q-4 -65 36 -100t104 -35q56 0 87 21t31 59q0 9 -2.5 18.5t-8.5 19t-12 17.5t-17.5 19t-20 18.5t-24.5 20t-26 20l-30 22.5t-31 23l287 223h68l-223 -176q62 -44 95.5 -87.5t33.5 -98.5q0 -72 -62 -118t-160 -46z" />
    <glyph glyph-name="onesuperior" unicode="&#xb9;" horiz-adv-x="501" 
d="M180 821l10 37l66 4q31 5 43.5 13t19.5 32l234 676l-193 -70l17 54l346 125l-270 -785q-15 -46 30 -49l56 -2l-11 -35h-348z" />
    <glyph glyph-name="ordmasculine" unicode="&#xba;" horiz-adv-x="942" 
d="M516 725q-116 0 -185 72t-69 184q0 110 46.5 222.5t122 200t179 143t209.5 55.5q117 0 185.5 -71t68.5 -183q0 -148 -78 -293t-208.5 -237.5t-270.5 -92.5zM580 776q52 0 106.5 44t99 119t73 187.5t28.5 237.5q0 90 -35 138t-94 48q-54 0 -108.5 -43.5t-99.5 -118.5
t-73 -187t-28 -238q0 -91 35 -139t96 -48z" />
    <glyph glyph-name="guillemotright" unicode="&#xbb;" horiz-adv-x="1136" 
d="M444 526l-159 443l28 14l310 -463l-627 -461l-19 23zM866 526l-159 443l28 14l309 -463l-626 -461l-19 23z" />
    <glyph glyph-name="onequarter" unicode="&#xbc;" horiz-adv-x="1781" 
d="M143 698l11 37l65 4q31 5 44 13t20 32l233 676l-192 -69l16 53l346 125l-270 -785q-15 -46 30 -49l56 -2l-10 -35h-349zM-66 0l1711 1552h143l-1712 -1552h-142zM1278 0l76 221h-441l676 633h117l-184 -537h157l-34 -96h-158l-76 -221h-133zM1069 317h320l147 428z" />
    <glyph glyph-name="onehalf" unicode="&#xbd;" horiz-adv-x="1701" 
d="M143 698l11 37l65 4q31 5 44 13t20 32l233 676l-192 -69l16 53l346 125l-270 -785q-15 -46 30 -49l56 -2l-10 -35h-349zM-66 0l1711 1552h143l-1712 -1552h-142zM854 0l2 6q351 252 503 402t152 268q0 62 -35.5 95.5t-101.5 33.5q-78 0 -135 -49.5t-76 -149.5h-33
q12 124 92 198.5t208 74.5q102 0 159.5 -51t57.5 -134q0 -103 -94 -203.5t-334 -257.5l-179 -116h301q57 0 78.5 9.5t53.5 45.5l51 68l28 -9l-139 -231h-559z" />
    <glyph glyph-name="threequarters" unicode="&#xbe;" horiz-adv-x="1910" 
d="M770 1016q0 -129 -116.5 -232.5t-268.5 -103.5q-99 0 -162 51.5t-63 112.5q0 36 31.5 56t78.5 13q14 -186 160 -186q84 0 145.5 62t61.5 167q0 95 -46 148t-110 53q-26 0 -47 -6l-4 35l53 12q106 19 175 69t69 124q0 112 -133 112q-67 0 -120 -38t-75 -122h-32
q19 110 93 172t187 62q99 0 154 -43t55 -109q0 -71 -58 -119.5t-161 -72.5v-2q63 -31 98 -87t35 -128zM63 0l1711 1552h143l-1712 -1552h-142zM1407 0l76 221h-441l676 633h117l-184 -537h157l-34 -96h-158l-76 -221h-133zM1198 317h320l147 428z" />
    <glyph glyph-name="questiondown" unicode="&#xbf;" horiz-adv-x="1208" 
d="M424 -469q86 0 152.5 25t113.5 83.5t60 147.5q68 8 121 -18t53 -84q0 -98 -128 -157.5t-323 -59.5q-235 0 -382.5 118t-147.5 328q0 326 413 377l297 37q51 5 70 19.5t39 66.5l76 192h47l-80 -311q-15 -55 -30 -86.5t-43 -49.5t-55.5 -24.5t-84.5 -13.5l-232 -27
q-172 -20 -249.5 -79.5t-77.5 -170.5q0 -91 55.5 -163.5t144.5 -111t191 -38.5zM934 1061q55 0 94 -40t39 -97q0 -56 -39 -96t-94 -40q-59 0 -98 40t-39 96q0 58 39 97.5t98 39.5z" />
    <glyph glyph-name="Agrave" unicode="&#xc0;" horiz-adv-x="1671" 
d="M-289 0l17 49l90 6q105 10 168 70l1622 1477h37l-365 -1473q-10 -40 6 -54.5t64 -19.5l90 -6l-15 -49h-577l14 49l94 6q53 5 79 19.5t36 54.5l113 442h-600l-488 -446q-19 -17 -28 -28t-10 -20.5t10.5 -14.5t35.5 -7l123 -6l-16 -49h-500zM674 653h530l162 633z
M1708 1718h-35l-334 269l2 4h234z" />
    <glyph glyph-name="Aacute" unicode="&#xc1;" horiz-adv-x="1671" 
d="M-289 0l17 49l90 6q105 10 168 70l1622 1477h37l-365 -1473q-10 -40 6 -54.5t64 -19.5l90 -6l-15 -49h-577l14 49l94 6q53 5 79 19.5t36 54.5l113 442h-600l-488 -446q-19 -17 -28 -28t-10 -20.5t10.5 -14.5t35.5 -7l123 -6l-16 -49h-500zM674 653h530l162 633z
M1563 1718l301 273h260l-2 -4l-518 -269h-41z" />
    <glyph glyph-name="Acircumflex" unicode="&#xc2;" horiz-adv-x="1671" 
d="M-289 0l17 49l90 6q105 10 168 70l1622 1477h37l-365 -1473q-10 -40 6 -54.5t64 -19.5l90 -6l-15 -49h-577l14 49l94 6q53 5 79 19.5t36 54.5l113 442h-600l-488 -446q-19 -17 -28 -28t-10 -20.5t10.5 -14.5t35.5 -7l123 -6l-16 -49h-500zM674 653h530l162 633z
M1300 1706l443 303h20l164 -303h-35l-170 149l-379 -149h-43z" />
    <glyph glyph-name="Atilde" unicode="&#xc3;" horiz-adv-x="1671" 
d="M-289 0l17 49l90 6q105 10 168 70l1622 1477h37l-365 -1473q-10 -40 6 -54.5t64 -19.5l90 -6l-15 -49h-577l14 49l94 6q53 5 79 19.5t36 54.5l113 442h-600l-488 -446q-19 -17 -28 -28t-10 -20.5t10.5 -14.5t35.5 -7l123 -6l-16 -49h-500zM674 653h530l162 633z
M1810 1704q-39 0 -74.5 14.5t-62.5 35t-53 40.5t-57 34.5t-62 14.5q-106 0 -149 -125h-35q24 127 79.5 198t139.5 71q38 0 72 -14.5t59.5 -35t50 -41t56 -35t65.5 -14.5q96 0 137 121h33q-54 -264 -199 -264z" />
    <glyph glyph-name="Adieresis" unicode="&#xc4;" horiz-adv-x="1671" 
d="M-289 0l17 49l90 6q105 10 168 70l1622 1477h37l-365 -1473q-10 -40 6 -54.5t64 -19.5l90 -6l-15 -49h-577l14 49l94 6q53 5 79 19.5t36 54.5l113 442h-600l-488 -446q-19 -17 -28 -28t-10 -20.5t10.5 -14.5t35.5 -7l123 -6l-16 -49h-500zM674 653h530l162 633z
M1913 1749q-54 0 -92.5 38.5t-38.5 92.5q0 52 39 91.5t92 39.5t92 -39.5t39 -91.5q0 -54 -38.5 -92.5t-92.5 -38.5zM1438 1749q-54 0 -92.5 38.5t-38.5 92.5q0 52 39 91.5t92 39.5t92 -39.5t39 -91.5q0 -54 -38.5 -92.5t-92.5 -38.5z" />
    <glyph glyph-name="Aring" unicode="&#xc5;" horiz-adv-x="1671" 
d="M-289 0l17 49l90 6q105 10 168 70l1622 1477h37l-365 -1473q-10 -40 6 -54.5t64 -19.5l90 -6l-15 -49h-577l14 49l94 6q53 5 79 19.5t36 54.5l113 442h-600l-488 -446q-19 -17 -28 -28t-10 -20.5t10.5 -14.5t35.5 -7l123 -6l-16 -49h-500zM674 653h530l162 633z
M1694 1710q-98 0 -167 66t-69 163q0 94 69.5 162t166.5 68q99 0 169 -68t70 -162q0 -98 -69.5 -163.5t-169.5 -65.5zM1694 1784q69 0 112 43t43 112q0 68 -43 110t-112 42q-68 0 -111 -42.5t-43 -109.5q0 -69 43 -112t111 -43z" />
    <glyph glyph-name="AE" unicode="&#xc6;" horiz-adv-x="2369" 
d="M-276 0l14 49l92 6q103 10 166 70l1452 1427h936l-72 -454h-20l-94 356q-6 23 -14.5 28t-35.5 5h-510l-196 -641h327q26 0 34.5 4.5t19.5 21.5l151 242h21l-187 -608h-20l-4 239q0 17 -6.5 22t-30.5 5h-328l-217 -706h621q23 0 34.5 5t30.5 23l402 365h20l-268 -459
h-1251l16 49l92 6q52 5 77 19.5t38 54.5l135 442h-594l-461 -446q-25 -23 -32.5 -36.5t2 -22t40.5 -11.5l123 -6l-16 -49h-487zM635 653h541l229 756z" />
    <glyph glyph-name="Ccedilla" unicode="&#xc7;" horiz-adv-x="1624" 
d="M786 -25q-101 0 -192 22.5t-170.5 71.5t-137 120t-91 175t-33.5 230q0 194 85.5 377.5t226.5 318t332.5 216t393.5 81.5q134 0 267.5 -29.5t207.5 -74.5l6 -432h-36l-132 305q-34 79 -58.5 105.5t-76.5 41.5q-64 19 -170 19q-182 0 -334.5 -79t-254 -215t-157.5 -319
t-56 -391q0 -234 100 -355.5t291 -121.5q117 0 180 16q38 8 90 54l444 403h37l-282 -453q-78 -34 -214.5 -60t-265.5 -26zM549 -526q-91 0 -150 41.5t-59 91.5q0 35 26 49.5t58 -2.5q-4 -64 38.5 -99.5t106.5 -35.5q113 0 113 80q0 9 -2.5 18.5t-8.5 19t-12 17.5t-17.5 19
t-20 18.5t-24.5 20t-26 20l-30 22.5t-31 23l278 223h76l-223 -176q129 -91 129 -174q0 -79 -61 -127.5t-160 -48.5z" />
    <glyph glyph-name="Egrave" unicode="&#xc8;" horiz-adv-x="1538" 
d="M-45 0l14 49l94 6q52 5 78 19.5t37 54.5l397 1294q11 40 -5.5 54.5t-63.5 19.5l-90 6l14 49h1141l-72 -454h-37l-94 356q-6 23 -14 28t-35 5h-518l-197 -641h307q26 0 34.5 4.5t19.5 21.5l155 242h37l-184 -608h-37l-10 239q0 18 -6 22.5t-31 4.5h-307l-215 -706h606
q24 0 34 4.5t31 23.5l400 365h37l-281 -459h-1239zM1221 1718h-35l-334 269l2 4h233z" />
    <glyph glyph-name="Eacute" unicode="&#xc9;" horiz-adv-x="1538" 
d="M-45 0l14 49l94 6q52 5 78 19.5t37 54.5l397 1294q11 40 -5.5 54.5t-63.5 19.5l-90 6l14 49h1141l-72 -454h-37l-94 356q-6 23 -14 28t-35 5h-518l-197 -641h307q26 0 34.5 4.5t19.5 21.5l155 242h37l-184 -608h-37l-10 239q0 18 -6 22.5t-31 4.5h-307l-215 -706h606
q24 0 34 4.5t31 23.5l400 365h37l-281 -459h-1239zM1075 1718l301 273h260l-2 -4l-518 -269h-41z" />
    <glyph glyph-name="Ecircumflex" unicode="&#xca;" horiz-adv-x="1538" 
d="M-45 0l14 49l94 6q52 5 78 19.5t37 54.5l397 1294q11 40 -5.5 54.5t-63.5 19.5l-90 6l14 49h1141l-72 -454h-37l-94 356q-6 23 -14 28t-35 5h-518l-197 -641h307q26 0 34.5 4.5t19.5 21.5l155 242h37l-184 -608h-37l-10 239q0 18 -6 22.5t-31 4.5h-307l-215 -706h606
q24 0 34 4.5t31 23.5l400 365h37l-281 -459h-1239zM813 1706l442 303h21l164 -303h-35l-170 149l-379 -149h-43z" />
    <glyph glyph-name="Edieresis" unicode="&#xcb;" horiz-adv-x="1538" 
d="M-45 0l14 49l94 6q52 5 78 19.5t37 54.5l397 1294q11 40 -5.5 54.5t-63.5 19.5l-90 6l14 49h1141l-72 -454h-37l-94 356q-6 23 -14 28t-35 5h-518l-197 -641h307q26 0 34.5 4.5t19.5 21.5l155 242h37l-184 -608h-37l-10 239q0 18 -6 22.5t-31 4.5h-307l-215 -706h606
q24 0 34 4.5t31 23.5l400 365h37l-281 -459h-1239zM1425 1749q-54 0 -92.5 38.5t-38.5 92.5q0 52 39 91.5t92 39.5t92 -39.5t39 -91.5q0 -54 -38.5 -92.5t-92.5 -38.5zM950 1749q-54 0 -92.5 38.5t-38.5 92.5q0 52 39 91.5t92 39.5t92 -39.5t39 -91.5q0 -54 -38.5 -92.5
t-92.5 -38.5z" />
    <glyph glyph-name="Igrave" unicode="&#xcc;" horiz-adv-x="796" 
d="M-45 0l14 49l94 6q52 5 77 19.5t38 54.5l395 1294q13 40 -4 54.5t-65 19.5l-90 6l16 49h578l-17 -49l-94 -6q-52 -5 -77 -19.5t-38 -54.5l-397 -1294q-13 -40 5 -54.5t67 -19.5l90 -6l-15 -49h-577zM868 1718h-34l-334 269l2 4h233z" />
    <glyph glyph-name="Iacute" unicode="&#xcd;" horiz-adv-x="796" 
d="M-45 0l14 49l94 6q52 5 77 19.5t38 54.5l395 1294q13 40 -4 54.5t-65 19.5l-90 6l16 49h578l-17 -49l-94 -6q-52 -5 -77 -19.5t-38 -54.5l-397 -1294q-13 -40 5 -54.5t67 -19.5l90 -6l-15 -49h-577zM723 1718l301 273h260l-2 -4l-518 -269h-41z" />
    <glyph glyph-name="Icircumflex" unicode="&#xce;" horiz-adv-x="796" 
d="M-45 0l14 49l94 6q52 5 77 19.5t38 54.5l395 1294q13 40 -4 54.5t-65 19.5l-90 6l16 49h578l-17 -49l-94 -6q-52 -5 -77 -19.5t-38 -54.5l-397 -1294q-13 -40 5 -54.5t67 -19.5l90 -6l-15 -49h-577zM461 1706l442 303h21l163 -303h-34l-170 149l-379 -149h-43z" />
    <glyph glyph-name="Idieresis" unicode="&#xcf;" horiz-adv-x="796" 
d="M-45 0l14 49l94 6q52 5 77 19.5t38 54.5l395 1294q13 40 -4 54.5t-65 19.5l-90 6l16 49h578l-17 -49l-94 -6q-52 -5 -77 -19.5t-38 -54.5l-397 -1294q-13 -40 5 -54.5t67 -19.5l90 -6l-15 -49h-577zM1073 1749q-54 0 -92.5 38.5t-38.5 92.5q0 52 39 91.5t92 39.5
t92 -39.5t39 -91.5q0 -54 -38.5 -92.5t-92.5 -38.5zM598 1749q-54 0 -92.5 38.5t-38.5 92.5q0 52 39 91.5t92 39.5t92 -39.5t39 -91.5q0 -54 -38.5 -92.5t-92.5 -38.5z" />
    <glyph glyph-name="Eth" unicode="&#xd0;" horiz-adv-x="1751" 
d="M-45 0l14 49l94 6q52 5 77 19.5t38 54.5l395 1294q13 40 -4 54.5t-65 19.5l-90 6l16 49h516q385 0 600 -142t215 -419q0 -203 -92 -385.5t-250.5 -315.5t-384.5 -211.5t-483 -78.5h-596zM365 63h198q211 0 393 77t307 207.5t196 306.5t71 370q0 232 -148.5 348.5
t-427.5 116.5h-153zM182 774l25 82h766l-27 -82h-764z" />
    <glyph glyph-name="Ntilde" unicode="&#xd1;" horiz-adv-x="1812" 
d="M1364 -39l-719 1436l-387 -1268q-13 -40 4.5 -54.5t65.5 -19.5l90 -6l-15 -49h-448l14 49l94 6q52 5 77 19.5t38 54.5l397 1294q13 40 -4 54.5t-65 19.5l-90 6l14 49h375l598 -1208l334 1079q13 40 -4.5 54.5t-65.5 19.5l-90 6l16 49h449l-17 -49l-94 -6
q-51 -5 -76 -19.5t-38 -54.5l-447 -1462h-6zM1473 1704q-39 0 -74.5 14.5t-63 35t-53.5 40.5t-57 34.5t-62 14.5q-106 0 -149 -125h-35q24 127 79.5 198t139.5 71q38 0 72 -14.5t59.5 -35t50 -41t56 -35t65.5 -14.5q96 0 137 121h33q-54 -264 -198 -264z" />
    <glyph glyph-name="Ograve" unicode="&#xd2;" horiz-adv-x="1804" 
d="M760 -25q-170 0 -307 67t-220 201t-83 314q0 115 36 236.5t100.5 235.5t161 216t211 177.5t257.5 120t294 44.5q127 0 237.5 -39t194 -111.5t131.5 -183.5t48 -247q0 -115 -36 -236.5t-100.5 -235.5t-161 -216t-211 -178t-258 -120.5t-294.5 -44.5zM797 35
q155 0 299.5 80.5t250 213.5t169 312.5t63.5 368.5q0 237 -106.5 376.5t-298.5 139.5q-155 0 -300 -80.5t-250.5 -213t-169 -311.5t-63.5 -368q0 -238 107 -378t299 -140zM1382 1718h-34l-334 269l2 4h233z" />
    <glyph glyph-name="Oacute" unicode="&#xd3;" horiz-adv-x="1804" 
d="M760 -25q-170 0 -307 67t-220 201t-83 314q0 115 36 236.5t100.5 235.5t161 216t211 177.5t257.5 120t294 44.5q127 0 237.5 -39t194 -111.5t131.5 -183.5t48 -247q0 -115 -36 -236.5t-100.5 -235.5t-161 -216t-211 -178t-258 -120.5t-294.5 -44.5zM797 35
q155 0 299.5 80.5t250 213.5t169 312.5t63.5 368.5q0 237 -106.5 376.5t-298.5 139.5q-155 0 -300 -80.5t-250.5 -213t-169 -311.5t-63.5 -368q0 -238 107 -378t299 -140zM1237 1718l301 273h260l-2 -4l-518 -269h-41z" />
    <glyph glyph-name="Ocircumflex" unicode="&#xd4;" horiz-adv-x="1804" 
d="M760 -25q-170 0 -307 67t-220 201t-83 314q0 115 36 236.5t100.5 235.5t161 216t211 177.5t257.5 120t294 44.5q127 0 237.5 -39t194 -111.5t131.5 -183.5t48 -247q0 -115 -36 -236.5t-100.5 -235.5t-161 -216t-211 -178t-258 -120.5t-294.5 -44.5zM797 35
q155 0 299.5 80.5t250 213.5t169 312.5t63.5 368.5q0 237 -106.5 376.5t-298.5 139.5q-155 0 -300 -80.5t-250.5 -213t-169 -311.5t-63.5 -368q0 -238 107 -378t299 -140zM975 1706l442 303h21l164 -303h-35l-170 149l-379 -149h-43z" />
    <glyph glyph-name="Otilde" unicode="&#xd5;" horiz-adv-x="1804" 
d="M760 -25q-170 0 -307 67t-220 201t-83 314q0 115 36 236.5t100.5 235.5t161 216t211 177.5t257.5 120t294 44.5q127 0 237.5 -39t194 -111.5t131.5 -183.5t48 -247q0 -115 -36 -236.5t-100.5 -235.5t-161 -216t-211 -178t-258 -120.5t-294.5 -44.5zM797 35
q155 0 299.5 80.5t250 213.5t169 312.5t63.5 368.5q0 237 -106.5 376.5t-298.5 139.5q-155 0 -300 -80.5t-250.5 -213t-169 -311.5t-63.5 -368q0 -238 107 -378t299 -140zM1485 1704q-39 0 -74.5 14.5t-62.5 35t-53 40.5t-57 34.5t-62 14.5q-107 0 -150 -125h-35
q24 127 79.5 198t139.5 71q38 0 72 -14.5t59.5 -35t50 -41t56 -35t65.5 -14.5q97 0 138 121h32q-54 -264 -198 -264z" />
    <glyph glyph-name="Odieresis" unicode="&#xd6;" horiz-adv-x="1804" 
d="M760 -25q-170 0 -307 67t-220 201t-83 314q0 115 36 236.5t100.5 235.5t161 216t211 177.5t257.5 120t294 44.5q127 0 237.5 -39t194 -111.5t131.5 -183.5t48 -247q0 -115 -36 -236.5t-100.5 -235.5t-161 -216t-211 -178t-258 -120.5t-294.5 -44.5zM797 35
q155 0 299.5 80.5t250 213.5t169 312.5t63.5 368.5q0 237 -106.5 376.5t-298.5 139.5q-155 0 -300 -80.5t-250.5 -213t-169 -311.5t-63.5 -368q0 -238 107 -378t299 -140zM1587 1749q-54 0 -92.5 38.5t-38.5 92.5q0 52 39 91.5t92 39.5t92 -39.5t39 -91.5q0 -54 -38.5 -92.5
t-92.5 -38.5zM1112 1749q-54 0 -92.5 38.5t-38.5 92.5q0 52 39 91.5t92 39.5t92 -39.5t39 -91.5q0 -54 -38.5 -92.5t-92.5 -38.5z" />
    <glyph glyph-name="multiply" unicode="&#xd7;" horiz-adv-x="1337" 
d="M279 66l-74 71l395 395l-395 398l74 71l395 -395l395 395l72 -71l-396 -395l396 -398l-72 -74l-395 398z" />
    <glyph glyph-name="Oslash" unicode="&#xd8;" horiz-adv-x="1804" 
d="M760 -25q-170 0 -307 67t-220 201t-83 314q0 115 36 236.5t100.5 235.5t161 216t211 177.5t257.5 120t294 44.5q127 0 237.5 -39t194 -111.5t131.5 -183.5t48 -247q0 -115 -36 -236.5t-100.5 -235.5t-161 -216t-211 -178t-258 -120.5t-294.5 -44.5zM797 35
q155 0 299.5 80.5t250 213.5t169 312.5t63.5 368.5q0 237 -106.5 376.5t-298.5 139.5q-155 0 -300 -80.5t-250.5 -213t-169 -311.5t-63.5 -368q0 -238 107 -378t299 -140zM109 -139l-62 61l1815 1784l59 -59z" />
    <glyph glyph-name="Ugrave" unicode="&#xd9;" horiz-adv-x="1767" 
d="M776 -25q-156 0 -268 38t-180 117.5t-76.5 202t41.5 292.5l244 798q11 40 -6 54.5t-66 19.5l-88 6l14 49h578l-15 -49l-94 -6q-52 -5 -78 -19.5t-39 -54.5l-249 -821q-78 -258 2 -382t327 -124q490 0 650 525l245 802q13 40 -4 54.5t-65 19.5l-103 6l15 49h460l-14 -49
l-94 -6q-52 -5 -77 -19.5t-38 -54.5l-250 -815q-99 -318 -285.5 -475.5t-486.5 -157.5zM1368 1718h-35l-334 269l2 4h234z" />
    <glyph glyph-name="Uacute" unicode="&#xda;" horiz-adv-x="1767" 
d="M776 -25q-156 0 -268 38t-180 117.5t-76.5 202t41.5 292.5l244 798q11 40 -6 54.5t-66 19.5l-88 6l14 49h578l-15 -49l-94 -6q-52 -5 -78 -19.5t-39 -54.5l-249 -821q-78 -258 2 -382t327 -124q490 0 650 525l245 802q13 40 -4 54.5t-65 19.5l-103 6l15 49h460l-14 -49
l-94 -6q-52 -5 -77 -19.5t-38 -54.5l-250 -815q-99 -318 -285.5 -475.5t-486.5 -157.5zM1223 1718l301 273h260l-2 -4l-518 -269h-41z" />
    <glyph glyph-name="Ucircumflex" unicode="&#xdb;" horiz-adv-x="1767" 
d="M776 -25q-156 0 -268 38t-180 117.5t-76.5 202t41.5 292.5l244 798q11 40 -6 54.5t-66 19.5l-88 6l14 49h578l-15 -49l-94 -6q-52 -5 -78 -19.5t-39 -54.5l-249 -821q-78 -258 2 -382t327 -124q490 0 650 525l245 802q13 40 -4 54.5t-65 19.5l-103 6l15 49h460l-14 -49
l-94 -6q-52 -5 -77 -19.5t-38 -54.5l-250 -815q-99 -318 -285.5 -475.5t-486.5 -157.5zM961 1706l442 303h20l164 -303h-35l-170 149l-378 -149h-43z" />
    <glyph glyph-name="Udieresis" unicode="&#xdc;" horiz-adv-x="1767" 
d="M776 -25q-156 0 -268 38t-180 117.5t-76.5 202t41.5 292.5l244 798q11 40 -6 54.5t-66 19.5l-88 6l14 49h578l-15 -49l-94 -6q-52 -5 -78 -19.5t-39 -54.5l-249 -821q-78 -258 2 -382t327 -124q490 0 650 525l245 802q13 40 -4 54.5t-65 19.5l-103 6l15 49h460l-14 -49
l-94 -6q-52 -5 -77 -19.5t-38 -54.5l-250 -815q-99 -318 -285.5 -475.5t-486.5 -157.5zM1573 1749q-54 0 -92.5 38.5t-38.5 92.5q0 52 39 91.5t92 39.5t92 -39.5t39 -91.5q0 -54 -38.5 -92.5t-92.5 -38.5zM1098 1749q-54 0 -92.5 38.5t-38.5 92.5q0 52 39 91.5t92 39.5
t92 -39.5t39 -91.5q0 -54 -38.5 -92.5t-92.5 -38.5z" />
    <glyph glyph-name="Yacute" unicode="&#xdd;" horiz-adv-x="1595" 
d="M324 0l16 51l123 6q53 5 77.5 18.5t37.5 53.5l176 571l-287 727q-14 39 -29.5 52.5t-60.5 17.5l-88 6l16 49h580l-17 -49l-102 -6q-53 -5 -75 -21t-9 -49l252 -645l649 645q35 35 26.5 50t-57.5 20l-125 6l15 49h497l-16 -49l-90 -6q-46 -4 -75.5 -19t-67.5 -51
l-729 -727l-177 -571q-13 -40 5.5 -55t66.5 -17l123 -6l-16 -51h-639zM1133 1718l301 273h260l-2 -4l-518 -269h-41z" />
    <glyph glyph-name="Thorn" unicode="&#xde;" horiz-adv-x="1495" 
d="M414 1503l16 49h576l-15 -49l-94 -6q-52 -5 -77.5 -18t-35.5 -47l-69 -226h239q126 0 223.5 -14.5t177.5 -48.5t122.5 -95.5t42.5 -148.5q0 -111 -52.5 -206t-152 -166.5t-254.5 -112.5t-348 -41h-252l-76 -244q-13 -40 5.5 -55t66.5 -17l176 -6l-17 -51h-661l14 49l94 6
q52 5 77 19.5t38 54.5l395 1294q13 40 -4 54.5t-65 19.5zM479 436h240q140 0 250.5 38.5t179 104.5t104 149.5t35.5 176.5q0 240 -352 240h-242z" />
    <glyph glyph-name="germandbls" unicode="&#xdf;" horiz-adv-x="1368" 
d="M-338 -532q-80 0 -127 42t-47 93q0 43 33 75.5t88 36.5q39 -69 84.5 -118.5t85.5 -49.5q37 0 65.5 26.5t63.5 100t84 215.5l356 1035h-149l14 47q79 5 120.5 22t63.5 60l17 34q38 82 78.5 150t101 137.5t128 117t159.5 77.5t196 30q147 0 229.5 -52t82.5 -148
q0 -87 -61 -147.5t-181 -114.5l-92 -41q-76 -33 -112 -66.5t-36 -73.5q0 -36 27.5 -81t87.5 -117l49 -60q77 -94 115.5 -167t38.5 -154q0 -177 -144.5 -289.5t-363.5 -112.5q-146 0 -233 63.5t-87 137.5q0 54 51 81t109 11q8 -117 55.5 -177t151.5 -60q124 0 212.5 66
t88.5 179q0 68 -33.5 130.5t-99.5 144.5l-47 59q-82 103 -112 157.5t-30 109.5q0 73 57 131t183 108l31 12q221 89 221 258q0 77 -52 119.5t-139 42.5q-134 0 -245 -96.5t-178 -288.5l-342 -989q-64 -186 -147 -328t-166.5 -221.5t-159.5 -118t-144 -38.5z" />
    <glyph glyph-name="agrave" unicode="&#xe0;" horiz-adv-x="1161" 
d="M211 -25q-91 0 -141 57.5t-50 157.5q0 108 44.5 232t120 235t167 203t194 146.5t191.5 54.5q68 0 104.5 -42t41.5 -104h2l49 136h180l-317 -865q-19 -51 -23.5 -80.5t3.5 -41t28 -11.5q55 0 132.5 70t156.5 213l41 -19q-89 -170 -195 -256t-242 -86q-39 0 -63 9.5
t-34.5 26t-10 44t8.5 57.5t24 72l73 195h-4q-126 -203 -243.5 -303.5t-237.5 -100.5zM313 80q69 0 160.5 84t175 216t137.5 275q66 189 51 274t-100 85t-179 -83.5t-165 -204.5t-117.5 -262t-46.5 -251q0 -64 21.5 -98.5t62.5 -34.5zM836 1223h-35l-232 352l6 14h175z" />
    <glyph glyph-name="aacute" unicode="&#xe1;" horiz-adv-x="1161" 
d="M211 -25q-91 0 -141 57.5t-50 157.5q0 108 44.5 232t120 235t167 203t194 146.5t191.5 54.5q68 0 104.5 -42t41.5 -104h2l49 136h180l-317 -865q-19 -51 -23.5 -80.5t3.5 -41t28 -11.5q55 0 132.5 70t156.5 213l41 -19q-89 -170 -195 -256t-242 -86q-39 0 -63 9.5
t-34.5 26t-10 44t8.5 57.5t24 72l73 195h-4q-126 -203 -243.5 -303.5t-237.5 -100.5zM313 80q69 0 160.5 84t175 216t137.5 275q66 189 51 274t-100 85t-179 -83.5t-165 -204.5t-117.5 -262t-46.5 -251q0 -64 21.5 -98.5t62.5 -34.5zM745 1223l295 366h228l-6 -14l-474 -352
h-43z" />
    <glyph glyph-name="acircumflex" unicode="&#xe2;" horiz-adv-x="1161" 
d="M211 -25q-91 0 -141 57.5t-50 157.5q0 108 44.5 232t120 235t167 203t194 146.5t191.5 54.5q68 0 104.5 -42t41.5 -104h2l49 136h180l-317 -865q-19 -51 -23.5 -80.5t3.5 -41t28 -11.5q55 0 132.5 70t156.5 213l41 -19q-89 -170 -195 -256t-242 -86q-39 0 -63 9.5
t-34.5 26t-10 44t8.5 57.5t24 72l73 195h-4q-126 -203 -243.5 -303.5t-237.5 -100.5zM313 80q69 0 160.5 84t175 216t137.5 275q66 189 51 274t-100 85t-179 -83.5t-165 -204.5t-117.5 -262t-46.5 -251q0 -64 21.5 -98.5t62.5 -34.5zM489 1223l490 395h16l140 -395h-39
l-158 215l-406 -215h-43z" />
    <glyph glyph-name="atilde" unicode="&#xe3;" horiz-adv-x="1161" 
d="M211 -25q-91 0 -141 57.5t-50 157.5q0 108 44.5 232t120 235t167 203t194 146.5t191.5 54.5q68 0 104.5 -42t41.5 -104h2l49 136h180l-317 -865q-19 -51 -23.5 -80.5t3.5 -41t28 -11.5q55 0 132.5 70t156.5 213l41 -19q-89 -170 -195 -256t-242 -86q-39 0 -63 9.5
t-34.5 26t-10 44t8.5 57.5t24 72l73 195h-4q-126 -203 -243.5 -303.5t-237.5 -100.5zM313 80q69 0 160.5 84t175 216t137.5 275q66 189 51 274t-100 85t-179 -83.5t-165 -204.5t-117.5 -262t-46.5 -251q0 -64 21.5 -98.5t62.5 -34.5zM1055 1288q-39 0 -74.5 14.5t-63 35
t-53.5 40.5t-57 34.5t-62 14.5q-107 0 -149 -124h-35q24 127 79.5 197.5t139.5 70.5q38 0 72 -14.5t59.5 -35t50 -40.5t56 -34.5t65.5 -14.5q97 0 138 120h32q-55 -264 -198 -264z" />
    <glyph glyph-name="adieresis" unicode="&#xe4;" horiz-adv-x="1161" 
d="M211 -25q-91 0 -141 57.5t-50 157.5q0 108 44.5 232t120 235t167 203t194 146.5t191.5 54.5q68 0 104.5 -42t41.5 -104h2l49 136h180l-317 -865q-19 -51 -23.5 -80.5t3.5 -41t28 -11.5q55 0 132.5 70t156.5 213l41 -19q-89 -170 -195 -256t-242 -86q-39 0 -63 9.5
t-34.5 26t-10 44t8.5 57.5t24 72l73 195h-4q-126 -203 -243.5 -303.5t-237.5 -100.5zM313 80q69 0 160.5 84t175 216t137.5 275q66 189 51 274t-100 85t-179 -83.5t-165 -204.5t-117.5 -262t-46.5 -251q0 -64 21.5 -98.5t62.5 -34.5zM666 1315q-54 0 -92.5 39.5t-38.5 93.5
q0 52 38.5 90.5t92.5 38.5t92.5 -38.5t38.5 -90.5q0 -54 -38.5 -93.5t-92.5 -39.5zM1141 1315q-54 0 -92.5 39.5t-38.5 93.5q0 52 39 90.5t92 38.5t92 -38.5t39 -90.5q0 -54 -38.5 -93.5t-92.5 -39.5z" />
    <glyph glyph-name="aring" unicode="&#xe5;" horiz-adv-x="1161" 
d="M211 -25q-91 0 -141 57.5t-50 157.5q0 108 44.5 232t120 235t167 203t194 146.5t191.5 54.5q68 0 104.5 -42t41.5 -104h2l49 136h180l-317 -865q-19 -51 -23.5 -80.5t3.5 -41t28 -11.5q55 0 132.5 70t156.5 213l41 -19q-89 -170 -195 -256t-242 -86q-39 0 -63 9.5
t-34.5 26t-10 44t8.5 57.5t24 72l73 195h-4q-126 -203 -243.5 -303.5t-237.5 -100.5zM313 80q69 0 160.5 84t175 216t137.5 275q66 189 51 274t-100 85t-179 -83.5t-165 -204.5t-117.5 -262t-46.5 -251q0 -64 21.5 -98.5t62.5 -34.5zM897 1198q-97 0 -166 66t-69 161
q0 94 69 162t166 68q99 0 169.5 -68t70.5 -162q0 -95 -70 -161t-170 -66zM897 1272q69 0 112.5 42.5t43.5 110.5t-43.5 111t-112.5 43q-67 0 -110.5 -43.5t-43.5 -110.5t43 -110t111 -43z" />
    <glyph glyph-name="ae" unicode="&#xe6;" horiz-adv-x="1527" 
d="M1350 383l43 -14q-99 -203 -215 -298.5t-279 -95.5q-118 0 -190 67.5t-82 193.5q-87 -117 -194 -189t-214 -72q-100 0 -156.5 58.5t-56.5 171.5q0 189 151 381.5t412 312.5q174 82 358 121t404 39q111 0 164 -50t53 -135q0 -66 -42 -131.5t-117 -105.5l-488 -4
q-65 -152 -65 -311q0 -126 49.5 -189t124.5 -63q180 0 340 313zM221 227q0 -147 109 -147q70 0 147.5 54.5t147.5 160.5q3 149 79 298t191 258.5t244 164.5q-291 -35 -512 -160q-195 -114 -300.5 -285t-105.5 -344zM1432 922q0 92 -109 92q-107 0 -220 -95.5t-185 -246.5
h110q175 0 289.5 74t114.5 176z" />
    <glyph glyph-name="ccedilla" unicode="&#xe7;" horiz-adv-x="925" 
d="M328 -25q-130 0 -202.5 79.5t-72.5 226.5q0 138 59.5 280t153.5 251t219.5 178t249.5 69q100 0 152.5 -45t52.5 -121q0 -77 -51.5 -119t-140.5 -29q36 113 24.5 190t-74.5 77q-72 0 -150 -59.5t-140.5 -154t-103 -222.5t-40.5 -254q0 -125 51 -188.5t127 -63.5
q87 0 164.5 72t153.5 233l41 -17q-90 -202 -203.5 -292.5t-269.5 -90.5zM115 -526q-93 0 -152 41t-59 92q0 35 27 49.5t59 -2.5q-4 -65 36 -100t103 -35q56 0 87.5 21t31.5 59q0 9 -2.5 18.5t-8.5 19t-12 17.5t-17.5 19t-20 18.5t-24.5 20t-26 20l-30 22.5t-31 23l286 223
h68l-223 -176q62 -44 95.5 -87.5t33.5 -98.5q0 -72 -61.5 -118t-159.5 -46z" />
    <glyph glyph-name="egrave" unicode="&#xe8;" horiz-adv-x="952" 
d="M324 -25q-130 0 -202.5 79.5t-72.5 226.5q0 141 68 285.5t171 251t229 174t239 67.5q111 0 164 -50t53 -135q0 -66 -42.5 -131.5t-117.5 -105.5l-487 -4q-66 -155 -66 -311q0 -126 49.5 -189t124.5 -63q180 0 340 313l43 -14q-100 -204 -215 -299t-278 -95zM748 1014
q-107 0 -220.5 -95.5t-185.5 -246.5h111q174 0 288.5 74t114.5 176q0 92 -108 92zM827 1223h-34l-232 352l6 14h174z" />
    <glyph glyph-name="eacute" unicode="&#xe9;" horiz-adv-x="952" 
d="M324 -25q-130 0 -202.5 79.5t-72.5 226.5q0 141 68 285.5t171 251t229 174t239 67.5q111 0 164 -50t53 -135q0 -66 -42.5 -131.5t-117.5 -105.5l-487 -4q-66 -155 -66 -311q0 -126 49.5 -189t124.5 -63q180 0 340 313l43 -14q-100 -204 -215 -299t-278 -95zM748 1014
q-107 0 -220.5 -95.5t-185.5 -246.5h111q174 0 288.5 74t114.5 176q0 92 -108 92zM737 1223l295 366h228l-7 -14l-473 -352h-43z" />
    <glyph glyph-name="ecircumflex" unicode="&#xea;" horiz-adv-x="952" 
d="M324 -25q-130 0 -202.5 79.5t-72.5 226.5q0 141 68 285.5t171 251t229 174t239 67.5q111 0 164 -50t53 -135q0 -66 -42.5 -131.5t-117.5 -105.5l-487 -4q-66 -155 -66 -311q0 -126 49.5 -189t124.5 -63q180 0 340 313l43 -14q-100 -204 -215 -299t-278 -95zM748 1014
q-107 0 -220.5 -95.5t-185.5 -246.5h111q174 0 288.5 74t114.5 176q0 92 -108 92zM481 1223l490 395h16l139 -395h-39l-157 215l-406 -215h-43z" />
    <glyph glyph-name="edieresis" unicode="&#xeb;" horiz-adv-x="952" 
d="M324 -25q-130 0 -202.5 79.5t-72.5 226.5q0 141 68 285.5t171 251t229 174t239 67.5q111 0 164 -50t53 -135q0 -66 -42.5 -131.5t-117.5 -105.5l-487 -4q-66 -155 -66 -311q0 -126 49.5 -189t124.5 -63q180 0 340 313l43 -14q-100 -204 -215 -299t-278 -95zM748 1014
q-107 0 -220.5 -95.5t-185.5 -246.5h111q174 0 288.5 74t114.5 176q0 92 -108 92zM657 1315q-54 0 -92.5 39.5t-38.5 93.5q0 52 39 90.5t92 38.5t92 -38.5t39 -90.5q0 -54 -38.5 -93.5t-92.5 -39.5zM1133 1315q-54 0 -93 39.5t-39 93.5q0 51 39 90t93 39q53 0 92 -38.5
t39 -90.5q0 -54 -38.5 -93.5t-92.5 -39.5z" />
    <glyph glyph-name="igrave" unicode="&#xec;" horiz-adv-x="663" 
d="M186 -25q-94 0 -114.5 52.5t20.5 150.5l295 766l-188 8l16 43l410 66l-338 -875q-30 -78 -27.5 -105.5t35.5 -27.5q56 0 134.5 70.5t154.5 212.5l41 -19q-89 -170 -195.5 -256t-243.5 -86zM575 1223h-34l-232 352l6 14h174z" />
    <glyph glyph-name="iacute" unicode="&#xed;" horiz-adv-x="663" 
d="M186 -25q-94 0 -114.5 52.5t20.5 150.5l295 766l-188 8l16 43l410 66l-338 -875q-30 -78 -27.5 -105.5t35.5 -27.5q56 0 134.5 70.5t154.5 212.5l41 -19q-89 -170 -195.5 -256t-243.5 -86zM485 1223l295 366h228l-7 -14l-473 -352h-43z" />
    <glyph glyph-name="icircumflex" unicode="&#xee;" horiz-adv-x="663" 
d="M186 -25q-94 0 -114.5 52.5t20.5 150.5l295 766l-188 8l16 43l410 66l-338 -875q-30 -78 -27.5 -105.5t35.5 -27.5q56 0 134.5 70.5t154.5 212.5l41 -19q-89 -170 -195.5 -256t-243.5 -86zM229 1223l490 395h16l139 -395h-38l-158 215l-406 -215h-43z" />
    <glyph glyph-name="idieresis" unicode="&#xef;" horiz-adv-x="663" 
d="M186 -25q-94 0 -114.5 52.5t20.5 150.5l295 766l-188 8l16 43l410 66l-338 -875q-30 -78 -27.5 -105.5t35.5 -27.5q56 0 134.5 70.5t154.5 212.5l41 -19q-89 -170 -195.5 -256t-243.5 -86zM438 1315q-54 0 -92.5 39.5t-38.5 93.5q0 52 38.5 90.5t92.5 38.5t92.5 -38.5
t38.5 -90.5q0 -54 -38.5 -93.5t-92.5 -39.5zM848 1315q-54 0 -92.5 39.5t-38.5 93.5q0 52 38.5 90.5t92.5 38.5t92.5 -38.5t38.5 -90.5q0 -54 -38.5 -93.5t-92.5 -39.5z" />
    <glyph glyph-name="eth" unicode="&#xf0;" horiz-adv-x="1079" 
d="M324 -25q-128 0 -205.5 71t-77.5 202q0 94 36 206.5t99.5 217.5t142 193t173.5 141t184 53q80 0 129 -43q-44 205 -170 350l-301 -139l-29 63l281 129q-106 101 -244 170l29 39q183 -62 315 -164l338 156l29 -61l-308 -142q141 -123 215 -278.5t74 -319.5t-60 -320.5
t-157 -270.5t-227.5 -183.5t-265.5 -69.5zM250 231q0 -95 35.5 -146.5t107.5 -51.5q62 0 124 35t116.5 104.5t96.5 164.5t66.5 225t24.5 276q0 44 -2 67q-22 111 -133 111q-108 0 -212 -133t-164 -315t-60 -337z" />
    <glyph glyph-name="ntilde" unicode="&#xf1;" horiz-adv-x="1243" 
d="M752 -25q-98 0 -123.5 54.5t20.5 148.5l221 471q104 222 85 281q-10 31 -52 31q-55 0 -123 -64t-166 -192q-113 -152 -223.5 -342.5t-169.5 -344.5l-209 -38l371 964l-186 8l16 43l408 66l-291 -733h2q117 228 272 442q112 152 206 220.5t196 68.5q253 0 61 -408
l-217 -465q-23 -50 -27.5 -80.5t4.5 -41.5t31 -11q56 0 134 70t157 213l41 -19q-89 -170 -195 -256t-243 -86zM1163 1288q-39 0 -74.5 14.5t-62.5 35t-53 40.5t-57 34.5t-62 14.5q-107 0 -149 -124h-35q24 127 79.5 197.5t139.5 70.5q38 0 72 -14.5t59.5 -35t50 -40.5
t56 -34.5t65.5 -14.5q96 0 137 120h33q-55 -264 -199 -264z" />
    <glyph glyph-name="ograve" unicode="&#xf2;" horiz-adv-x="1112" 
d="M375 -25q-146 0 -232 89t-86 231q0 136 58 274.5t151.5 246t220 175.5t254.5 68q146 0 232 -88.5t86 -229.5q0 -137 -57.5 -276t-150.5 -246.5t-219.5 -175.5t-256.5 -68zM440 33q56 0 114 34t110 99t93 150t65 196t24 229q0 131 -43 195.5t-123 64.5q-71 0 -144 -54
t-131.5 -145.5t-95.5 -225.5t-37 -281q0 -132 44 -197t124 -65zM821 1223h-35l-231 352l6 14h174z" />
    <glyph glyph-name="oacute" unicode="&#xf3;" horiz-adv-x="1112" 
d="M375 -25q-146 0 -232 89t-86 231q0 136 58 274.5t151.5 246t220 175.5t254.5 68q146 0 232 -88.5t86 -229.5q0 -137 -57.5 -276t-150.5 -246.5t-219.5 -175.5t-256.5 -68zM440 33q56 0 114 34t110 99t93 150t65 196t24 229q0 131 -43 195.5t-123 64.5q-71 0 -144 -54
t-131.5 -145.5t-95.5 -225.5t-37 -281q0 -132 44 -197t124 -65zM731 1223l295 366h227l-6 -14l-473 -352h-43z" />
    <glyph glyph-name="ocircumflex" unicode="&#xf4;" horiz-adv-x="1112" 
d="M375 -25q-146 0 -232 89t-86 231q0 136 58 274.5t151.5 246t220 175.5t254.5 68q146 0 232 -88.5t86 -229.5q0 -137 -57.5 -276t-150.5 -246.5t-219.5 -175.5t-256.5 -68zM440 33q56 0 114 34t110 99t93 150t65 196t24 229q0 131 -43 195.5t-123 64.5q-71 0 -144 -54
t-131.5 -145.5t-95.5 -225.5t-37 -281q0 -132 44 -197t124 -65zM475 1223l490 395h16l139 -395h-39l-157 215l-406 -215h-43z" />
    <glyph glyph-name="otilde" unicode="&#xf5;" horiz-adv-x="1112" 
d="M375 -25q-146 0 -232 89t-86 231q0 136 58 274.5t151.5 246t220 175.5t254.5 68q146 0 232 -88.5t86 -229.5q0 -137 -57.5 -276t-150.5 -246.5t-219.5 -175.5t-256.5 -68zM440 33q56 0 114 34t110 99t93 150t65 196t24 229q0 131 -43 195.5t-123 64.5q-71 0 -144 -54
t-131.5 -145.5t-95.5 -225.5t-37 -281q0 -132 44 -197t124 -65zM1040 1288q-39 0 -74.5 14.5t-62.5 35t-53 40.5t-57 34.5t-62 14.5q-107 0 -149 -124h-35q24 127 79.5 197.5t139.5 70.5q38 0 72 -14.5t59.5 -35t50 -40.5t56 -34.5t65.5 -14.5q97 0 137 120h33
q-55 -264 -199 -264z" />
    <glyph glyph-name="odieresis" unicode="&#xf6;" horiz-adv-x="1112" 
d="M375 -25q-146 0 -232 89t-86 231q0 136 58 274.5t151.5 246t220 175.5t254.5 68q146 0 232 -88.5t86 -229.5q0 -137 -57.5 -276t-150.5 -246.5t-219.5 -175.5t-256.5 -68zM440 33q56 0 114 34t110 99t93 150t65 196t24 229q0 131 -43 195.5t-123 64.5q-71 0 -144 -54
t-131.5 -145.5t-95.5 -225.5t-37 -281q0 -132 44 -197t124 -65zM651 1315q-54 0 -92.5 39.5t-38.5 93.5q0 52 39 90.5t92 38.5t92 -38.5t39 -90.5q0 -54 -38.5 -93.5t-92.5 -39.5zM1126 1315q-54 0 -92.5 39.5t-38.5 93.5q0 52 38.5 90.5t92.5 38.5t92.5 -38.5t38.5 -90.5
q0 -54 -38.5 -93.5t-92.5 -39.5z" />
    <glyph glyph-name="divide" unicode="&#xf7;" horiz-adv-x="1337" 
d="M680 791q-54 0 -92.5 39.5t-38.5 93.5q0 52 38.5 90.5t92.5 38.5t92.5 -38.5t38.5 -90.5q0 -54 -38.5 -93.5t-92.5 -39.5zM143 485v101h1071v-101h-1071zM680 20q-54 0 -92.5 40t-38.5 94q0 52 38.5 90.5t92.5 38.5t92.5 -38.5t38.5 -90.5q0 -54 -38.5 -94t-92.5 -40z
" />
    <glyph glyph-name="oslash" unicode="&#xf8;" horiz-adv-x="1193" 
d="M416 -25q-146 0 -232 89t-86 231q0 136 58 274.5t151.5 246t220 175.5t254.5 68q146 0 232 -88.5t86 -229.5q0 -137 -57.5 -276t-150.5 -246.5t-219.5 -175.5t-256.5 -68zM481 33q56 0 114 34t110 99t93 150t65 196t24 229q0 131 -43 195.5t-123 64.5q-71 0 -144 -54
t-131.5 -145.5t-95.5 -225.5t-37 -281q0 -132 44 -197t124 -65zM1266 1149l47 -53l-1379 -1207l-47 54z" />
    <glyph glyph-name="ugrave" unicode="&#xf9;" horiz-adv-x="1241" 
d="M635 1061l-289 -674q-37 -87 -56 -142t-25.5 -95.5t5 -58t41.5 -17.5q56 0 125 66t166 196q107 146 216.5 334t176.5 348l203 31l-332 -863q-20 -52 -25.5 -81t2.5 -40.5t29 -11.5q56 0 134.5 70.5t154.5 212.5l43 -19q-89 -170 -195 -256t-243 -86q-96 0 -117 52.5
t21 150.5l200 508h-2q-116 -229 -260 -420q-112 -153 -204 -222t-195 -69q-126 0 -140 99.5t78 310.5l238 559l-188 8l16 43zM864 1223h-35l-231 352l6 14h174z" />
    <glyph glyph-name="uacute" unicode="&#xfa;" horiz-adv-x="1241" 
d="M635 1061l-289 -674q-37 -87 -56 -142t-25.5 -95.5t5 -58t41.5 -17.5q56 0 125 66t166 196q107 146 216.5 334t176.5 348l203 31l-332 -863q-20 -52 -25.5 -81t2.5 -40.5t29 -11.5q56 0 134.5 70.5t154.5 212.5l43 -19q-89 -170 -195 -256t-243 -86q-96 0 -117 52.5
t21 150.5l200 508h-2q-116 -229 -260 -420q-112 -153 -204 -222t-195 -69q-126 0 -140 99.5t78 310.5l238 559l-188 8l16 43zM774 1223l295 366h227l-6 -14l-473 -352h-43z" />
    <glyph glyph-name="ucircumflex" unicode="&#xfb;" horiz-adv-x="1241" 
d="M635 1061l-289 -674q-37 -87 -56 -142t-25.5 -95.5t5 -58t41.5 -17.5q56 0 125 66t166 196q107 146 216.5 334t176.5 348l203 31l-332 -863q-20 -52 -25.5 -81t2.5 -40.5t29 -11.5q56 0 134.5 70.5t154.5 212.5l43 -19q-89 -170 -195 -256t-243 -86q-96 0 -117 52.5
t21 150.5l200 508h-2q-116 -229 -260 -420q-112 -153 -204 -222t-195 -69q-126 0 -140 99.5t78 310.5l238 559l-188 8l16 43zM518 1223l490 395h16l139 -395h-39l-157 215l-406 -215h-43z" />
    <glyph glyph-name="udieresis" unicode="&#xfc;" horiz-adv-x="1241" 
d="M635 1061l-289 -674q-37 -87 -56 -142t-25.5 -95.5t5 -58t41.5 -17.5q56 0 125 66t166 196q107 146 216.5 334t176.5 348l203 31l-332 -863q-20 -52 -25.5 -81t2.5 -40.5t29 -11.5q56 0 134.5 70.5t154.5 212.5l43 -19q-89 -170 -195 -256t-243 -86q-96 0 -117 52.5
t21 150.5l200 508h-2q-116 -229 -260 -420q-112 -153 -204 -222t-195 -69q-126 0 -140 99.5t78 310.5l238 559l-188 8l16 43zM694 1315q-54 0 -92.5 39.5t-38.5 93.5q0 52 38.5 90.5t92.5 38.5t92.5 -38.5t38.5 -90.5q0 -54 -38.5 -93.5t-92.5 -39.5zM1169 1315
q-54 0 -92.5 39.5t-38.5 93.5q0 52 39 90.5t92 38.5t92 -38.5t39 -90.5q0 -54 -38.5 -93.5t-92.5 -39.5z" />
    <glyph glyph-name="yacute" unicode="&#xfd;" horiz-adv-x="1177" 
d="M-188 -532q-152 0 -152 110q0 63 61 103q39 -36 77 -52t91 -16q89 0 190.5 72.5t254.5 271.5l-10 979h-181l2 43l371 82l4 -858l369 485q61 82 94 124.5t73.5 93t63 73t49.5 44.5t47.5 29t43.5 7q38 0 63 -25t25 -65q0 -55 -29 -78q-139 -41 -226.5 -98t-197.5 -199
l-494 -641q-370 -485 -589 -485zM811 1223l295 366h227l-6 -14l-473 -352h-43z" />
    <glyph glyph-name="thorn" unicode="&#xfe;" horiz-adv-x="1116" 
d="M748 1608l-244 -711q67 74 154.5 118t172.5 44q122 0 190.5 -68.5t68.5 -191.5q0 -95 -33.5 -196.5t-93 -193.5t-144.5 -173.5t-183 -140t-214.5 -90t-233.5 -25.5l-168 -488h-192l664 1933l-160 80l6 13zM705 948q-117 0 -218 -96l-284 -827q105 -5 209.5 39.5t186 121
t145.5 171.5t98.5 196t34.5 190q0 205 -172 205z" />
    <glyph glyph-name="ydieresis" unicode="&#xff;" horiz-adv-x="1177" 
d="M-188 -532q-152 0 -152 110q0 63 61 103q39 -36 77 -52t91 -16q89 0 190.5 72.5t254.5 271.5l-10 979h-181l2 43l371 82l4 -858l369 485q61 82 94 124.5t73.5 93t63 73t49.5 44.5t47.5 29t43.5 7q38 0 63 -25t25 -65q0 -55 -29 -78q-139 -41 -226.5 -98t-197.5 -199
l-494 -641q-370 -485 -589 -485zM731 1315q-54 0 -92.5 39.5t-38.5 93.5q0 52 39 90.5t92 38.5t92 -38.5t39 -90.5q0 -54 -38.5 -93.5t-92.5 -39.5zM1206 1315q-54 0 -92.5 39.5t-38.5 93.5q0 52 38.5 90.5t92.5 38.5t92.5 -38.5t38.5 -90.5q0 -54 -38.5 -93.5t-92.5 -39.5z
" />
    <glyph glyph-name="Amacron" unicode="&#x100;" horiz-adv-x="1671" 
d="M-289 0l17 49l90 6q105 10 168 70l1622 1477h37l-365 -1473q-10 -40 6 -54.5t64 -19.5l90 -6l-15 -49h-577l14 49l94 6q53 5 79 19.5t36 54.5l113 442h-600l-488 -446q-19 -17 -28 -28t-10 -20.5t10.5 -14.5t35.5 -7l123 -6l-16 -49h-500zM674 653h530l162 633z
M1360 1806l31 90h575l-31 -90h-575z" />
    <glyph glyph-name="amacron" unicode="&#x101;" horiz-adv-x="1161" 
d="M211 -25q-91 0 -141 57.5t-50 157.5q0 108 44.5 232t120 235t167 203t194 146.5t191.5 54.5q68 0 104.5 -42t41.5 -104h2l49 136h180l-317 -865q-19 -51 -23.5 -80.5t3.5 -41t28 -11.5q55 0 132.5 70t156.5 213l41 -19q-89 -170 -195 -256t-242 -86q-39 0 -63 9.5
t-34.5 26t-10 44t8.5 57.5t24 72l73 195h-4q-126 -203 -243.5 -303.5t-237.5 -100.5zM313 80q69 0 160.5 84t175 216t137.5 275q66 189 51 274t-100 85t-179 -83.5t-165 -204.5t-117.5 -262t-46.5 -251q0 -64 21.5 -98.5t62.5 -34.5zM586 1368l32 92h580l-31 -92h-581z" />
    <glyph glyph-name="Abreve" unicode="&#x102;" horiz-adv-x="1671" 
d="M-289 0l17 49l90 6q105 10 168 70l1622 1477h37l-365 -1473q-10 -40 6 -54.5t64 -19.5l90 -6l-15 -49h-577l14 49l94 6q53 5 79 19.5t36 54.5l113 442h-600l-488 -446q-19 -17 -28 -28t-10 -20.5t10.5 -14.5t35.5 -7l123 -6l-16 -49h-500zM674 653h530l162 633z
M1638 1700q-58 0 -105 16.5t-85.5 54t-48 98.5t7.5 150h76q-25 -125 20.5 -185t149.5 -60q101 0 179.5 58.5t117.5 186.5h80q-96 -319 -392 -319z" />
    <glyph glyph-name="abreve" unicode="&#x103;" horiz-adv-x="1161" 
d="M211 -25q-91 0 -141 57.5t-50 157.5q0 108 44.5 232t120 235t167 203t194 146.5t191.5 54.5q68 0 104.5 -42t41.5 -104h2l49 136h180l-317 -865q-19 -51 -23.5 -80.5t3.5 -41t28 -11.5q55 0 132.5 70t156.5 213l41 -19q-89 -170 -195 -256t-242 -86q-39 0 -63 9.5
t-34.5 26t-10 44t8.5 57.5t24 72l73 195h-4q-126 -203 -243.5 -303.5t-237.5 -100.5zM313 80q69 0 160.5 84t175 216t137.5 275q66 189 51 274t-100 85t-179 -83.5t-165 -204.5t-117.5 -262t-46.5 -251q0 -64 21.5 -98.5t62.5 -34.5zM831 1257q-57 0 -105 17t-85.5 55.5
t-48 99.5t7.5 150h76q-25 -125 20.5 -185.5t149.5 -60.5q101 0 179.5 59t117.5 187h80q-96 -322 -392 -322z" />
    <glyph glyph-name="Aogonek" unicode="&#x104;" horiz-adv-x="1671" 
d="M-289 0l17 49l90 6q105 10 168 70l1622 1477h37l-365 -1473q-10 -40 6 -54.5t64 -19.5l90 -6l-15 -49h-577l14 49l94 6q53 5 79 19.5t36 54.5l113 442h-600l-488 -446q-19 -17 -28 -28t-10 -20.5t10.5 -14.5t35.5 -7l123 -6l-16 -49h-500zM674 653h530l162 633z
M1022 -477q-78 0 -125 34.5t-47 98.5q0 45 35.5 95.5t95 96.5t117.5 82.5t121 69.5h51q-19 -15 -60.5 -45t-67 -49t-60 -49t-54.5 -53.5t-34.5 -53t-14.5 -57.5q0 -48 31.5 -73.5t91.5 -25.5q58 0 143 33l-10 -45q-42 -26 -100 -42.5t-113 -16.5z" />
    <glyph glyph-name="aogonek" unicode="&#x105;" horiz-adv-x="1161" 
d="M211 -25q-91 0 -141 57.5t-50 157.5q0 108 44.5 232t120 235t167 203t194 146.5t191.5 54.5q68 0 104.5 -42t41.5 -104h2l49 136h180l-317 -865q-19 -51 -23.5 -80.5t3.5 -41t28 -11.5q55 0 132.5 70t156.5 213l41 -19q-142 -274 -338 -329q-57 -41 -91.5 -67t-81 -68.5
t-69.5 -82t-23 -77.5q0 -48 31.5 -73.5t91.5 -25.5q59 0 144 33l-11 -45q-42 -26 -100 -42.5t-113 -16.5q-78 0 -125 34.5t-47 98.5q0 140 324 321q-10 -2 -29 -2q-39 0 -63 9.5t-34.5 26t-10 44t8.5 57.5t24 72l73 195h-4q-126 -203 -243.5 -303.5t-237.5 -100.5zM313 80
q69 0 160.5 84t175 216t137.5 275q66 189 51 274t-100 85t-179 -83.5t-165 -204.5t-117.5 -262t-46.5 -251q0 -64 21.5 -98.5t62.5 -34.5z" />
    <glyph glyph-name="Cacute" unicode="&#x106;" horiz-adv-x="1624" 
d="M786 -25q-101 0 -192 22.5t-170.5 71.5t-137 120t-91 175t-33.5 230q0 194 85.5 377.5t226.5 318t332.5 216t393.5 81.5q134 0 267.5 -29.5t207.5 -74.5l6 -432h-36l-132 305q-34 79 -58.5 105.5t-76.5 41.5q-64 19 -170 19q-182 0 -334.5 -79t-254 -215t-157.5 -319
t-56 -391q0 -234 100 -355.5t291 -121.5q117 0 180 16q38 8 90 54l444 403h37l-282 -453q-78 -34 -214.5 -60t-265.5 -26zM1276 1718l301 273h260l-2 -4l-518 -269h-41z" />
    <glyph glyph-name="cacute" unicode="&#x107;" horiz-adv-x="925" 
d="M328 -25q-130 0 -202.5 79.5t-72.5 226.5q0 138 59.5 280t153.5 251t219.5 178t249.5 69q100 0 152.5 -45t52.5 -121q0 -77 -51.5 -119t-140.5 -29q36 113 24.5 190t-74.5 77q-72 0 -150 -59.5t-140.5 -154t-103 -222.5t-40.5 -254q0 -125 51 -188.5t127 -63.5
q87 0 164.5 72t153.5 233l41 -17q-90 -202 -203.5 -292.5t-269.5 -90.5zM705 1223l294 366h228l-6 -14l-473 -352h-43z" />
    <glyph glyph-name="Ccircumflex" unicode="&#x108;" horiz-adv-x="1624" 
d="M786 -25q-101 0 -192 22.5t-170.5 71.5t-137 120t-91 175t-33.5 230q0 194 85.5 377.5t226.5 318t332.5 216t393.5 81.5q134 0 267.5 -29.5t207.5 -74.5l6 -432h-36l-132 305q-34 79 -58.5 105.5t-76.5 41.5q-64 19 -170 19q-182 0 -334.5 -79t-254 -215t-157.5 -319
t-56 -391q0 -234 100 -355.5t291 -121.5q117 0 180 16q38 8 90 54l444 403h37l-282 -453q-78 -34 -214.5 -60t-265.5 -26zM1014 1706l442 303h21l163 -303h-34l-170 149l-379 -149h-43z" />
    <glyph glyph-name="ccircumflex" unicode="&#x109;" horiz-adv-x="925" 
d="M328 -25q-130 0 -202.5 79.5t-72.5 226.5q0 138 59.5 280t153.5 251t219.5 178t249.5 69q100 0 152.5 -45t52.5 -121q0 -77 -51.5 -119t-140.5 -29q36 113 24.5 190t-74.5 77q-72 0 -150 -59.5t-140.5 -154t-103 -222.5t-40.5 -254q0 -125 51 -188.5t127 -63.5
q87 0 164.5 72t153.5 233l41 -17q-90 -202 -203.5 -292.5t-269.5 -90.5zM449 1223l489 395h16l140 -395h-39l-158 215l-405 -215h-43z" />
    <glyph glyph-name="Cdotaccent" unicode="&#x10a;" horiz-adv-x="1624" 
d="M786 -25q-101 0 -192 22.5t-170.5 71.5t-137 120t-91 175t-33.5 230q0 194 85.5 377.5t226.5 318t332.5 216t393.5 81.5q134 0 267.5 -29.5t207.5 -74.5l6 -432h-36l-132 305q-34 79 -58.5 105.5t-76.5 41.5q-64 19 -170 19q-182 0 -334.5 -79t-254 -215t-157.5 -319
t-56 -391q0 -234 100 -355.5t291 -121.5q117 0 180 16q38 8 90 54l444 403h37l-282 -453q-78 -34 -214.5 -60t-265.5 -26zM1360 1749q-54 0 -92.5 38.5t-38.5 92.5q0 52 39 91.5t92 39.5t92 -39.5t39 -91.5q0 -54 -38.5 -92.5t-92.5 -38.5z" />
    <glyph glyph-name="cdotaccent" unicode="&#x10b;" horiz-adv-x="925" 
d="M328 -25q-130 0 -202.5 79.5t-72.5 226.5q0 138 59.5 280t153.5 251t219.5 178t249.5 69q100 0 152.5 -45t52.5 -121q0 -77 -51.5 -119t-140.5 -29q36 113 24.5 190t-74.5 77q-72 0 -150 -59.5t-140.5 -154t-103 -222.5t-40.5 -254q0 -125 51 -188.5t127 -63.5
q87 0 164.5 72t153.5 233l41 -17q-90 -202 -203.5 -292.5t-269.5 -90.5zM862 1346q-54 0 -92.5 38.5t-38.5 92.5q0 52 39 91.5t92 39.5t92 -39.5t39 -91.5q0 -54 -38.5 -92.5t-92.5 -38.5z" />
    <glyph glyph-name="Ccaron" unicode="&#x10c;" horiz-adv-x="1624" 
d="M786 -25q-101 0 -192 22.5t-170.5 71.5t-137 120t-91 175t-33.5 230q0 194 85.5 377.5t226.5 318t332.5 216t393.5 81.5q134 0 267.5 -29.5t207.5 -74.5l6 -432h-36l-132 305q-34 79 -58.5 105.5t-76.5 41.5q-64 19 -170 19q-182 0 -334.5 -79t-254 -215t-157.5 -319
t-56 -391q0 -234 100 -355.5t291 -121.5q117 0 180 16q38 8 90 54l444 403h37l-282 -453q-78 -34 -214.5 -60t-265.5 -26zM1296 1706l-163 305h34l168 -149l381 149h43l-442 -305h-21z" />
    <glyph glyph-name="ccaron" unicode="&#x10d;" horiz-adv-x="925" 
d="M328 -25q-130 0 -202.5 79.5t-72.5 226.5q0 138 59.5 280t153.5 251t219.5 178t249.5 69q100 0 152.5 -45t52.5 -121q0 -77 -51.5 -119t-140.5 -29q36 113 24.5 190t-74.5 77q-72 0 -150 -59.5t-140.5 -154t-103 -222.5t-40.5 -254q0 -125 51 -188.5t127 -63.5
q87 0 164.5 72t153.5 233l41 -17q-90 -202 -203.5 -292.5t-269.5 -90.5zM737 1223l-139 395h39l156 -215l407 215h43l-489 -395h-17z" />
    <glyph glyph-name="Dcaron" unicode="&#x10e;" horiz-adv-x="1751" 
d="M-45 0l14 49l94 6q52 5 77 19.5t38 54.5l395 1294q13 40 -4 54.5t-65 19.5l-90 6l16 49h516q385 0 600 -142t215 -419q0 -203 -92 -385.5t-250.5 -315.5t-384.5 -211.5t-483 -78.5h-596zM365 63h198q211 0 393 77t307 207.5t196 306.5t71 370q0 232 -148.5 348.5
t-427.5 116.5h-153zM1245 1706l-164 305h35l168 -149l381 149h43l-442 -305h-21z" />
    <glyph glyph-name="dcaron" unicode="&#x10f;" horiz-adv-x="1275" 
d="M221 -25q-93 0 -145.5 60t-52.5 168q0 134 70 289t175 279t234.5 207t240.5 83q70 0 109 -39t47 -107h2l172 510l-166 80l4 13l416 90l-481 -1422q-15 -40 -21.5 -65.5t-5 -40.5t9.5 -21t25 -6q56 0 134.5 70.5t154.5 212.5l41 -19q-89 -170 -195.5 -256t-243.5 -86
q-39 0 -62.5 9.5t-34 25.5t-9.5 44.5t8 57t21 72.5l71 205h-4q-126 -212 -250 -313t-264 -101zM342 80q68 0 161 83t177.5 213.5t132.5 264.5q64 186 44.5 279.5t-109.5 93.5q-88 0 -183 -79.5t-166 -197t-117 -255.5t-46 -251q0 -151 106 -151zM1352 1067l-21 45
q132 79 202.5 152.5t70.5 134.5q0 38 -24.5 63.5t-68.5 36.5q-1 49 29.5 82t77.5 33q58 2 97.5 -35.5t39.5 -97.5q0 -95 -106.5 -202t-296.5 -212z" />
    <glyph glyph-name="Dcroat" unicode="&#x110;" horiz-adv-x="1751" 
d="M-45 0l14 49l94 6q52 5 77 19.5t38 54.5l395 1294q13 40 -4 54.5t-65 19.5l-90 6l16 49h516q385 0 600 -142t215 -419q0 -203 -92 -385.5t-250.5 -315.5t-384.5 -211.5t-483 -78.5h-596zM365 63h198q211 0 393 77t307 207.5t196 306.5t71 370q0 232 -148.5 348.5
t-427.5 116.5h-153zM182 774l25 82h766l-27 -82h-764z" />
    <glyph glyph-name="dcroat" unicode="&#x111;" horiz-adv-x="1204" 
d="M221 -25q-93 0 -145.5 60t-52.5 168q0 134 70 289t175 279t234.5 207t240.5 83q70 0 109 -39t47 -107h2l172 510l-166 80l4 13l416 90l-481 -1422q-15 -40 -21.5 -65.5t-5 -40.5t9.5 -21t25 -6q56 0 134.5 70.5t154.5 212.5l41 -19q-89 -170 -195.5 -256t-243.5 -86
q-39 0 -62.5 9.5t-34 25.5t-9.5 44.5t8 57t21 72.5l71 205h-4q-126 -212 -250 -313t-264 -101zM342 80q68 0 161 83t177.5 213.5t132.5 264.5q64 186 44.5 279.5t-109.5 93.5q-88 0 -183 -79.5t-166 -197t-117 -255.5t-46 -251q0 -151 106 -151zM754 1204l26 74h596l-26 -74
h-596z" />
    <glyph glyph-name="Emacron" unicode="&#x112;" horiz-adv-x="1538" 
d="M-45 0l14 49l94 6q52 5 78 19.5t37 54.5l397 1294q11 40 -5.5 54.5t-63.5 19.5l-90 6l14 49h1141l-72 -454h-37l-94 356q-6 23 -14 28t-35 5h-518l-197 -641h307q26 0 34.5 4.5t19.5 21.5l155 242h37l-184 -608h-37l-10 239q0 18 -6 22.5t-31 4.5h-307l-215 -706h606
q24 0 34 4.5t31 23.5l400 365h37l-281 -459h-1239zM872 1806l31 90h576l-31 -90h-576z" />
    <glyph glyph-name="emacron" unicode="&#x113;" horiz-adv-x="952" 
d="M324 -25q-130 0 -202.5 79.5t-72.5 226.5q0 141 68 285.5t171 251t229 174t239 67.5q111 0 164 -50t53 -135q0 -66 -42.5 -131.5t-117.5 -105.5l-487 -4q-66 -155 -66 -311q0 -126 49.5 -189t124.5 -63q180 0 340 313l43 -14q-100 -204 -215 -299t-278 -95zM748 1014
q-107 0 -220.5 -95.5t-185.5 -246.5h111q174 0 288.5 74t114.5 176q0 92 -108 92zM578 1368l32 92h580l-31 -92h-581z" />
    <glyph glyph-name="Ebreve" unicode="&#x114;" horiz-adv-x="1538" 
d="M-45 0l14 49l94 6q52 5 78 19.5t37 54.5l397 1294q11 40 -5.5 54.5t-63.5 19.5l-90 6l14 49h1141l-72 -454h-37l-94 356q-6 23 -14 28t-35 5h-518l-197 -641h307q26 0 34.5 4.5t19.5 21.5l155 242h37l-184 -608h-37l-10 239q0 18 -6 22.5t-31 4.5h-307l-215 -706h606
q24 0 34 4.5t31 23.5l400 365h37l-281 -459h-1239zM1151 1700q-58 0 -105 16.5t-85.5 54t-48 98.5t7.5 150h75q-25 -125 20.5 -185t149.5 -60q101 0 179.5 58.5t117.5 186.5h80q-96 -319 -391 -319z" />
    <glyph glyph-name="ebreve" unicode="&#x115;" horiz-adv-x="952" 
d="M324 -25q-130 0 -202.5 79.5t-72.5 226.5q0 141 68 285.5t171 251t229 174t239 67.5q111 0 164 -50t53 -135q0 -66 -42.5 -131.5t-117.5 -105.5l-487 -4q-66 -155 -66 -311q0 -126 49.5 -189t124.5 -63q180 0 340 313l43 -14q-100 -204 -215 -299t-278 -95zM748 1014
q-107 0 -220.5 -95.5t-185.5 -246.5h111q174 0 288.5 74t114.5 176q0 92 -108 92zM823 1257q-57 0 -105 17t-85.5 55.5t-48 99.5t7.5 150h76q-25 -125 20.5 -185.5t149.5 -60.5q101 0 179.5 59t117.5 187h79q-96 -322 -391 -322z" />
    <glyph glyph-name="Edotaccent" unicode="&#x116;" horiz-adv-x="1538" 
d="M-45 0l14 49l94 6q52 5 78 19.5t37 54.5l397 1294q11 40 -5.5 54.5t-63.5 19.5l-90 6l14 49h1141l-72 -454h-37l-94 356q-6 23 -14 28t-35 5h-518l-197 -641h307q26 0 34.5 4.5t19.5 21.5l155 242h37l-184 -608h-37l-10 239q0 18 -6 22.5t-31 4.5h-307l-215 -706h606
q24 0 34 4.5t31 23.5l400 365h37l-281 -459h-1239zM1159 1749q-54 0 -92.5 38.5t-38.5 92.5q0 52 39 91.5t92 39.5t92 -39.5t39 -91.5q0 -54 -38.5 -92.5t-92.5 -38.5z" />
    <glyph glyph-name="edotaccent" unicode="&#x117;" horiz-adv-x="952" 
d="M324 -25q-130 0 -202.5 79.5t-72.5 226.5q0 141 68 285.5t171 251t229 174t239 67.5q111 0 164 -50t53 -135q0 -66 -42.5 -131.5t-117.5 -105.5l-487 -4q-66 -155 -66 -311q0 -126 49.5 -189t124.5 -63q180 0 340 313l43 -14q-100 -204 -215 -299t-278 -95zM748 1014
q-107 0 -220.5 -95.5t-185.5 -246.5h111q174 0 288.5 74t114.5 176q0 92 -108 92zM895 1346q-54 0 -92.5 38.5t-38.5 92.5q0 52 39 91.5t92 39.5t92 -39.5t39 -91.5q0 -54 -38.5 -92.5t-92.5 -38.5z" />
    <glyph glyph-name="Eogonek" unicode="&#x118;" horiz-adv-x="1538" 
d="M-45 0l14 49l94 6q52 5 78 19.5t37 54.5l397 1294q11 40 -5.5 54.5t-63.5 19.5l-90 6l14 49h1141l-72 -454h-37l-94 356q-6 23 -14 28t-35 5h-518l-197 -641h307q26 0 34.5 4.5t19.5 21.5l155 242h37l-184 -608h-37l-10 239q0 18 -6 22.5t-31 4.5h-307l-215 -706h606
q24 0 34 4.5t31 23.5l400 365h37l-281 -459h-1239zM946 -477q-78 0 -125 34.5t-47 98.5q0 45 35.5 95.5t95 96.5t117.5 82.5t121 69.5h51q-19 -15 -60.5 -45t-67 -49t-60 -49t-54.5 -53.5t-34.5 -53t-14.5 -57.5q0 -48 31.5 -73.5t91.5 -25.5q58 0 143 33l-10 -45
q-42 -26 -100 -42.5t-113 -16.5z" />
    <glyph glyph-name="eogonek" unicode="&#x119;" horiz-adv-x="952" 
d="M444 -373l-10 -45q-42 -26 -100 -42.5t-113 -16.5q-78 0 -125 34.5t-47 98.5q0 44 32 91t86.5 90t108.5 77t117 66q-40 -5 -69 -5q-130 0 -202.5 79.5t-72.5 226.5q0 141 68 285.5t171 251t229 174t239 67.5q111 0 164 -50t53 -135q0 -66 -42.5 -131.5t-117.5 -105.5
l-487 -4q-66 -155 -66 -311q0 -126 49.5 -189t124.5 -63q180 0 340 313l43 -14q-70 -150 -149.5 -235.5t-188.5 -141.5q-60 -33 -106 -63.5t-94 -69.5t-74.5 -81.5t-26.5 -84.5q0 -48 31.5 -73.5t91.5 -25.5q58 0 143 33zM748 1014q-107 0 -220.5 -95.5t-185.5 -246.5h111
q174 0 288.5 74t114.5 176q0 92 -108 92z" />
    <glyph glyph-name="Ecaron" unicode="&#x11a;" horiz-adv-x="1538" 
d="M-45 0l14 49l94 6q52 5 78 19.5t37 54.5l397 1294q11 40 -5.5 54.5t-63.5 19.5l-90 6l14 49h1141l-72 -454h-37l-94 356q-6 23 -14 28t-35 5h-518l-197 -641h307q26 0 34.5 4.5t19.5 21.5l155 242h37l-184 -608h-37l-10 239q0 18 -6 22.5t-31 4.5h-307l-215 -706h606
q24 0 34 4.5t31 23.5l400 365h37l-281 -459h-1239zM1096 1706l-164 305h35l168 -149l381 149h43l-443 -305h-20z" />
    <glyph glyph-name="ecaron" unicode="&#x11b;" horiz-adv-x="952" 
d="M324 -25q-130 0 -202.5 79.5t-72.5 226.5q0 141 68 285.5t171 251t229 174t239 67.5q111 0 164 -50t53 -135q0 -66 -42.5 -131.5t-117.5 -105.5l-487 -4q-66 -155 -66 -311q0 -126 49.5 -189t124.5 -63q180 0 340 313l43 -14q-100 -204 -215 -299t-278 -95zM748 1014
q-107 0 -220.5 -95.5t-185.5 -246.5h111q174 0 288.5 74t114.5 176q0 92 -108 92zM770 1223l-139 395h39l155 -215l408 215h43l-490 -395h-16z" />
    <glyph glyph-name="Gcircumflex" unicode="&#x11c;" horiz-adv-x="1792" 
d="M834 -25q-105 0 -201 22.5t-182 71.5t-149.5 120t-100.5 175t-37 230q0 194 86 377t228.5 318t338.5 216.5t406 81.5q131 0 260.5 -29.5t204.5 -74.5l6 -432h-37l-131 305q-34 79 -58.5 105.5t-76.5 41.5q-64 19 -160 19q-189 0 -345.5 -79t-260 -215t-160.5 -319
t-57 -391q0 -230 119.5 -352.5t322.5 -122.5q192 0 377 82l170 459q16 40 -1.5 54.5t-66.5 16.5l-285 7l21 57h774l-20 -62l-187 -2l-157 -422l-43 -145q-96 -11 -288 -62t-310 -51zM1001 1706l443 303h20l164 -303h-35l-170 149l-379 -149h-43z" />
    <glyph glyph-name="gcircumflex" unicode="&#x11d;" horiz-adv-x="1013" 
d="M449 336q-66 0 -109 14l-143 -139l315 -191q131 -79 185.5 -134.5t54.5 -137.5q0 -90 -74.5 -155.5t-184 -95t-235.5 -29.5q-233 0 -375.5 70.5t-142.5 187.5q0 49 30 91t90 77.5t133 64t175 59.5l-84 152l203 199q-70 33 -110 91.5t-40 135.5q0 119 72.5 227t190 172
t245.5 64q140 0 229 -76l74 133h215l-84 -149h-186q70 -70 70 -168q0 -119 -74 -227t-193 -172t-247 -64zM485 385q110 0 192.5 112t82.5 285q0 107 -39 168.5t-113 61.5q-111 0 -192.5 -112.5t-81.5 -285.5q0 -108 38.5 -168.5t112.5 -60.5zM-96 -246q0 -108 106 -174.5
t289 -66.5q133 0 216 39.5t83 111.5q0 45 -39.5 87.5t-144.5 107.5l-219 133q-154 -61 -222.5 -111.5t-68.5 -126.5zM375 1223l489 395h17l139 -395h-39l-158 215l-405 -215h-43z" />
    <glyph glyph-name="Gbreve" unicode="&#x11e;" horiz-adv-x="1792" 
d="M834 -25q-105 0 -201 22.5t-182 71.5t-149.5 120t-100.5 175t-37 230q0 194 86 377t228.5 318t338.5 216.5t406 81.5q131 0 260.5 -29.5t204.5 -74.5l6 -432h-37l-131 305q-34 79 -58.5 105.5t-76.5 41.5q-64 19 -160 19q-189 0 -345.5 -79t-260 -215t-160.5 -319
t-57 -391q0 -230 119.5 -352.5t322.5 -122.5q192 0 377 82l170 459q16 40 -1.5 54.5t-66.5 16.5l-285 7l21 57h774l-20 -62l-187 -2l-157 -422l-43 -145q-96 -11 -288 -62t-310 -51zM1339 1700q-58 0 -105 16.5t-85.5 54t-48 98.5t7.5 150h76q-25 -125 20.5 -185t149.5 -60
q101 0 179.5 58.5t117.5 186.5h80q-96 -319 -392 -319z" />
    <glyph glyph-name="gbreve" unicode="&#x11f;" horiz-adv-x="1013" 
d="M449 336q-66 0 -109 14l-143 -139l315 -191q131 -79 185.5 -134.5t54.5 -137.5q0 -90 -74.5 -155.5t-184 -95t-235.5 -29.5q-233 0 -375.5 70.5t-142.5 187.5q0 49 30 91t90 77.5t133 64t175 59.5l-84 152l203 199q-70 33 -110 91.5t-40 135.5q0 119 72.5 227t190 172
t245.5 64q140 0 229 -76l74 133h215l-84 -149h-186q70 -70 70 -168q0 -119 -74 -227t-193 -172t-247 -64zM485 385q110 0 192.5 112t82.5 285q0 107 -39 168.5t-113 61.5q-111 0 -192.5 -112.5t-81.5 -285.5q0 -108 38.5 -168.5t112.5 -60.5zM-96 -246q0 -108 106 -174.5
t289 -66.5q133 0 216 39.5t83 111.5q0 45 -39.5 87.5t-144.5 107.5l-219 133q-154 -61 -222.5 -111.5t-68.5 -126.5zM717 1257q-57 0 -105 17t-86 55.5t-48.5 99.5t7.5 150h76q-25 -125 20.5 -185.5t149.5 -60.5q101 0 179.5 59t117.5 187h80q-96 -322 -391 -322z" />
    <glyph glyph-name="Gdotaccent" unicode="&#x120;" horiz-adv-x="1792" 
d="M834 -25q-105 0 -201 22.5t-182 71.5t-149.5 120t-100.5 175t-37 230q0 194 86 377t228.5 318t338.5 216.5t406 81.5q131 0 260.5 -29.5t204.5 -74.5l6 -432h-37l-131 305q-34 79 -58.5 105.5t-76.5 41.5q-64 19 -160 19q-189 0 -345.5 -79t-260 -215t-160.5 -319
t-57 -391q0 -230 119.5 -352.5t322.5 -122.5q192 0 377 82l170 459q16 40 -1.5 54.5t-66.5 16.5l-285 7l21 57h774l-20 -62l-187 -2l-157 -422l-43 -145q-96 -11 -288 -62t-310 -51zM1348 1749q-54 0 -92.5 38.5t-38.5 92.5q0 52 39 91.5t92 39.5t92 -39.5t39 -91.5
q0 -54 -38.5 -92.5t-92.5 -38.5z" />
    <glyph glyph-name="gdotaccent" unicode="&#x121;" horiz-adv-x="1013" 
d="M449 336q-66 0 -109 14l-143 -139l315 -191q131 -79 185.5 -134.5t54.5 -137.5q0 -90 -74.5 -155.5t-184 -95t-235.5 -29.5q-233 0 -375.5 70.5t-142.5 187.5q0 49 30 91t90 77.5t133 64t175 59.5l-84 152l203 199q-70 33 -110 91.5t-40 135.5q0 119 72.5 227t190 172
t245.5 64q140 0 229 -76l74 133h215l-84 -149h-186q70 -70 70 -168q0 -119 -74 -227t-193 -172t-247 -64zM485 385q110 0 192.5 112t82.5 285q0 107 -39 168.5t-113 61.5q-111 0 -192.5 -112.5t-81.5 -285.5q0 -108 38.5 -168.5t112.5 -60.5zM-96 -246q0 -108 106 -174.5
t289 -66.5q133 0 216 39.5t83 111.5q0 45 -39.5 87.5t-144.5 107.5l-219 133q-154 -61 -222.5 -111.5t-68.5 -126.5zM788 1346q-54 0 -92.5 38.5t-38.5 92.5q0 52 39 91.5t92 39.5t92.5 -39.5t39.5 -91.5q0 -54 -39 -92.5t-93 -38.5z" />
    <glyph glyph-name="uni0122" unicode="&#x122;" horiz-adv-x="1792" 
d="M834 -25q-105 0 -201 22.5t-182 71.5t-149.5 120t-100.5 175t-37 230q0 194 86 377t228.5 318t338.5 216.5t406 81.5q131 0 260.5 -29.5t204.5 -74.5l6 -432h-37l-131 305q-34 79 -58.5 105.5t-76.5 41.5q-64 19 -160 19q-189 0 -345.5 -79t-260 -215t-160.5 -319
t-57 -391q0 -230 119.5 -352.5t322.5 -122.5q192 0 377 82l170 459q16 40 -1.5 54.5t-66.5 16.5l-285 7l21 57h774l-20 -62l-187 -2l-157 -422l-43 -145q-96 -11 -288 -62t-310 -51zM463 -702l-21 45q273 163 273 286q0 78 -92 101q-1 49 29 81.5t77 32.5q58 2 97.5 -35.5
t39.5 -97.5q0 -95 -106 -201.5t-297 -211.5z" />
    <glyph glyph-name="uni0123" unicode="&#x123;" horiz-adv-x="1013" 
d="M449 336q-66 0 -109 14l-143 -139l315 -191q131 -79 185.5 -134.5t54.5 -137.5q0 -90 -74.5 -155.5t-184 -95t-235.5 -29.5q-233 0 -375.5 70.5t-142.5 187.5q0 49 30 91t90 77.5t133 64t175 59.5l-84 152l203 199q-70 33 -110 91.5t-40 135.5q0 119 72.5 227t190 172
t245.5 64q140 0 229 -76l74 133h215l-84 -149h-186q70 -70 70 -168q0 -119 -74 -227t-193 -172t-247 -64zM485 385q110 0 192.5 112t82.5 285q0 107 -39 168.5t-113 61.5q-111 0 -192.5 -112.5t-81.5 -285.5q0 -108 38.5 -168.5t112.5 -60.5zM-96 -246q0 -108 106 -174.5
t289 -66.5q133 0 216 39.5t83 111.5q0 45 -39.5 87.5t-144.5 107.5l-219 133q-154 -61 -222.5 -111.5t-68.5 -126.5zM983 1741l23 -43q-133 -78 -204 -152.5t-71 -136.5q0 -75 94 -98q0 -51 -30 -83t-78 -34q-58 -2 -96.5 36t-38.5 97q0 95 105.5 202t295.5 212z" />
    <glyph glyph-name="Hcircumflex" unicode="&#x124;" horiz-adv-x="1839" 
d="M-45 0l14 49l94 6q52 5 77 19.5t38 54.5l395 1294q13 40 -4 54.5t-65 19.5l-90 6l16 49h578l-17 -49l-94 -6q-52 -5 -78 -19.5t-37 -54.5l-172 -567h832l174 567q13 40 -5 54.5t-67 19.5l-88 6l14 49h578l-14 -49l-95 -6q-52 -5 -77.5 -19.5t-38.5 -54.5l-396 -1294
q-13 -40 4.5 -54.5t65.5 -19.5l90 -6l-14 -49h-578l15 49l94 6q52 5 77 19.5t38 54.5l198 645h-833l-199 -645q-13 -40 5 -54.5t67 -19.5l90 -6l-15 -49h-577zM975 1706l442 303h21l164 -303h-35l-170 149l-379 -149h-43z" />
    <glyph glyph-name="hcircumflex" unicode="&#x125;" horiz-adv-x="1153" 
d="M541 -25q-80 0 -133.5 39.5t-53.5 104.5q0 55 46 86.5t106 25.5q41 -146 53 -175t31 -29q70 0 143 117.5t118.5 284.5t45.5 310q0 115 -25 165t-79 50q-77 0 -171 -97.5t-173 -235t-140 -291.5q-103 -265 -119 -316l-196 -34l500 1443l-152 82l6 13l402 90l-261 -750
l-106 -274h4q133 249 253.5 362t260.5 113q98 0 151.5 -70t53.5 -209q0 -119 -52.5 -262.5t-132.5 -262.5t-183.5 -199.5t-196.5 -80.5zM352 1706l443 303h20l164 -303h-35l-170 149l-379 -149h-43z" />
    <glyph glyph-name="Hbar" unicode="&#x126;" horiz-adv-x="1839" 
d="M-45 0l14 49l94 6q52 5 77 19.5t38 54.5l395 1294q13 40 -4 54.5t-65 19.5l-90 6l16 49h578l-17 -49l-94 -6q-52 -5 -78 -19.5t-37 -54.5l-172 -567h832l174 567q13 40 -5 54.5t-67 19.5l-88 6l14 49h578l-14 -49l-95 -6q-52 -5 -77.5 -19.5t-38.5 -54.5l-396 -1294
q-13 -40 4.5 -54.5t65.5 -19.5l90 -6l-14 -49h-578l15 49l94 6q52 5 77 19.5t38 54.5l198 645h-833l-199 -645q-13 -40 5 -54.5t67 -19.5l90 -6l-15 -49h-577zM299 1130l25 82h1620l-27 -82h-1618z" />
    <glyph glyph-name="hbar" unicode="&#x127;" horiz-adv-x="1153" 
d="M541 -25q-80 0 -133.5 39.5t-53.5 104.5q0 55 46 86.5t106 25.5q41 -146 53 -175t31 -29q70 0 143 117.5t118.5 284.5t45.5 310q0 115 -25 165t-79 50q-77 0 -171 -97.5t-173 -235t-140 -291.5q-103 -265 -119 -316l-196 -34l500 1443l-152 82l6 13l402 90l-261 -750
l-106 -274h4q133 249 253.5 362t260.5 113q98 0 151.5 -70t53.5 -209q0 -119 -52.5 -262.5t-132.5 -262.5t-183.5 -199.5t-196.5 -80.5zM252 1204l27 74h595l-26 -74h-596z" />
    <glyph glyph-name="Itilde" unicode="&#x128;" horiz-adv-x="796" 
d="M-45 0l14 49l94 6q52 5 77 19.5t38 54.5l395 1294q13 40 -4 54.5t-65 19.5l-90 6l16 49h578l-17 -49l-94 -6q-52 -5 -77 -19.5t-38 -54.5l-397 -1294q-13 -40 5 -54.5t67 -19.5l90 -6l-15 -49h-577zM971 1704q-39 0 -74.5 14.5t-62.5 35t-53 40.5t-57 34.5t-62 14.5
q-107 0 -150 -125h-35q24 127 79.5 198t139.5 71q38 0 72 -14.5t59.5 -35t50 -41t56 -35t65.5 -14.5q97 0 138 121h32q-54 -264 -198 -264z" />
    <glyph glyph-name="itilde" unicode="&#x129;" horiz-adv-x="663" 
d="M186 -25q-94 0 -114.5 52.5t20.5 150.5l295 766l-188 8l16 43l410 66l-338 -875q-30 -78 -27.5 -105.5t35.5 -27.5q56 0 134.5 70.5t154.5 212.5l41 -19q-89 -170 -195.5 -256t-243.5 -86zM795 1288q-39 0 -74.5 14.5t-63 35t-53.5 40.5t-57 34.5t-62 14.5
q-107 0 -149 -124h-35q24 127 79.5 197.5t139.5 70.5q38 0 72 -14.5t59.5 -35t50 -40.5t56 -34.5t65.5 -14.5q97 0 138 120h32q-55 -264 -198 -264z" />
    <glyph glyph-name="Imacron" unicode="&#x12a;" horiz-adv-x="796" 
d="M-45 0l14 49l94 6q52 5 77 19.5t38 54.5l395 1294q13 40 -4 54.5t-65 19.5l-90 6l16 49h578l-17 -49l-94 -6q-52 -5 -77 -19.5t-38 -54.5l-397 -1294q-13 -40 5 -54.5t67 -19.5l90 -6l-15 -49h-577zM520 1806l31 90h575l-30 -90h-576z" />
    <glyph glyph-name="imacron" unicode="&#x12b;" horiz-adv-x="663" 
d="M186 -25q-94 0 -114.5 52.5t20.5 150.5l295 766l-188 8l16 43l410 66l-338 -875q-30 -78 -27.5 -105.5t35.5 -27.5q56 0 134.5 70.5t154.5 212.5l41 -19q-89 -170 -195.5 -256t-243.5 -86zM326 1368l32 92h580l-31 -92h-581z" />
    <glyph glyph-name="Ibreve" unicode="&#x12c;" horiz-adv-x="796" 
d="M-45 0l14 49l94 6q52 5 77 19.5t38 54.5l395 1294q13 40 -4 54.5t-65 19.5l-90 6l16 49h578l-17 -49l-94 -6q-52 -5 -77 -19.5t-38 -54.5l-397 -1294q-13 -40 5 -54.5t67 -19.5l90 -6l-15 -49h-577zM799 1700q-45 0 -85 10.5t-75.5 33.5t-55.5 60t-27 90.5t11 124.5h76
q-25 -125 20.5 -185t149.5 -60q101 0 179.5 58.5t117.5 186.5h80q-96 -319 -391 -319z" />
    <glyph glyph-name="ibreve" unicode="&#x12d;" horiz-adv-x="663" 
d="M186 -25q-94 0 -114.5 52.5t20.5 150.5l295 766l-188 8l16 43l410 66l-338 -875q-30 -78 -27.5 -105.5t35.5 -27.5q56 0 134.5 70.5t154.5 212.5l41 -19q-89 -170 -195.5 -256t-243.5 -86zM571 1257q-57 0 -105 17t-85.5 55.5t-48 99.5t7.5 150h76q-25 -125 20.5 -185.5
t149.5 -60.5q101 0 179.5 59t117.5 187h80q-96 -322 -392 -322z" />
    <glyph glyph-name="Iogonek" unicode="&#x12e;" horiz-adv-x="796" 
d="M-45 0l14 49l94 6q52 5 77 19.5t38 54.5l395 1294q13 40 -4 54.5t-65 19.5l-90 6l16 49h578l-17 -49l-94 -6q-52 -5 -77 -19.5t-38 -54.5l-397 -1294q-13 -40 5 -54.5t67 -19.5l90 -6l-15 -49h-577zM121 -477q-78 0 -125 34.5t-47 98.5q0 45 35.5 95.5t94.5 96.5t117 83
t121 69h52q-19 -15 -60.5 -45t-67 -49t-60 -49t-54.5 -53.5t-34.5 -53t-14.5 -57.5q0 -48 31.5 -73.5t91.5 -25.5q58 0 143 33l-10 -45q-42 -26 -100 -42.5t-113 -16.5z" />
    <glyph glyph-name="iogonek" unicode="&#x12f;" horiz-adv-x="663" 
d="M526 1479q0 51 39 90t92 39t92 -39t39 -90q0 -54 -38.5 -93.5t-92.5 -39.5t-92.5 39.5t-38.5 93.5zM186 -25q-94 0 -114.5 52.5t20.5 150.5l295 766l-188 8l16 43l410 66l-338 -875q-30 -78 -27.5 -105.5t35.5 -27.5q56 0 134.5 70.5t154.5 212.5l41 -19
q-89 -170 -195.5 -256t-243.5 -86zM29 -477q-78 0 -125 34.5t-47 98.5q0 45 35.5 95.5t94.5 96.5t117 83t121 69h51q-17 -13 -72 -52.5t-82 -62t-64.5 -58t-54.5 -68.5t-17 -66q0 -48 31.5 -73.5t91.5 -25.5q58 0 143 33l-10 -45q-42 -26 -100 -42.5t-113 -16.5z" />
    <glyph glyph-name="Idotaccent" unicode="&#x130;" horiz-adv-x="796" 
d="M-45 0l14 49l94 6q52 5 77 19.5t38 54.5l395 1294q13 40 -4 54.5t-65 19.5l-90 6l16 49h578l-17 -49l-94 -6q-52 -5 -77 -19.5t-38 -54.5l-397 -1294q-13 -40 5 -54.5t67 -19.5l90 -6l-15 -49h-577zM807 1749q-54 0 -92.5 38.5t-38.5 92.5q0 52 39 91.5t92 39.5t92 -39.5
t39 -91.5q0 -54 -38.5 -92.5t-92.5 -38.5z" />
    <glyph glyph-name="dotlessi" unicode="&#x131;" horiz-adv-x="663" 
d="M186 -25q-94 0 -114.5 52.5t20.5 150.5l295 766l-188 8l16 43l410 66l-338 -875q-30 -78 -27.5 -105.5t35.5 -27.5q56 0 134.5 70.5t154.5 212.5l41 -19q-89 -170 -195.5 -256t-243.5 -86z" />
    <glyph glyph-name="Jcircumflex" unicode="&#x134;" horiz-adv-x="794" 
d="M-184 -236l-27 50q75 47 109 69t85.5 57t72.5 53t53.5 48.5t46.5 52.5t34 56.5t32.5 69.5t27.5 83l344 1124q11 39 -5.5 51.5t-64.5 14.5l-102 4l18 55h592l-16 -55l-105 -4q-51 -2 -74 -14.5t-34 -51.5l-330 -1069q-49 -165 -112 -244t-228 -182q-71 -43 -317 -168z
M465 1706l442 303h21l164 -303h-35l-170 149l-379 -149h-43z" />
    <glyph glyph-name="jcircumflex" unicode="&#x135;" horiz-adv-x="583" 
d="M-449 -532l-16 34q81 52 120.5 78.5t94.5 68.5t84.5 75.5t67 84.5t67 111.5t62.5 142.5l356 881l-186 8l16 43l410 66l-416 -1028q-27 -65 -42.5 -100.5t-38 -77.5t-42 -65.5t-49 -51.5t-64.5 -49.5t-84 -46.5zM188 1223l490 395h16l140 -395h-39l-158 215l-406 -215h-43
z" />
    <glyph glyph-name="uni0136" unicode="&#x136;" horiz-adv-x="1695" 
d="M-45 0l14 49l94 6q52 5 77 19.5t38 54.5l395 1294q13 40 -4 54.5t-65 19.5l-90 6l16 49h578l-17 -49l-94 -6q-52 -5 -77 -19.5t-38 -54.5l-196 -643l1003 668q56 40 -39 49l-129 6l17 49h553l-15 -49l-108 -6q-61 -4 -98 -16.5t-80 -42.5l-895 -594l755 -844h-260
l-708 770l-197 -641q-13 -40 5 -54.5t67 -19.5l90 -6l-15 -49h-577zM496 -702l-21 45q273 163 273 286q0 78 -93 101q-1 49 29.5 81.5t77.5 32.5q58 2 97.5 -35.5t39.5 -97.5q0 -95 -106 -201.5t-297 -211.5z" />
    <glyph glyph-name="uni0137" unicode="&#x137;" horiz-adv-x="1196" 
d="M834 -78q-79 0 -138 52.5t-123 175.5l-192 372q135 0 253 44t192.5 128.5t74.5 190.5q0 53 -23 82.5t-69 29.5q-76 0 -170 -88.5t-169.5 -211t-117.5 -240.5l-65 -189l-82 -250l-211 -38l498 1445l-160 80l6 13l410 90l-224 -647l-98 -259h4q55 92 103 155.5t104.5 115
t120 76t137.5 24.5q98 0 143 -46.5t45 -117.5q0 -82 -69 -160.5t-175 -135t-237 -93.5l221 -420q36 -70 54.5 -90t44.5 -20q36 0 80 47.5t83 167.5l43 -12q-51 -156 -119 -213.5t-175 -57.5zM145 -702l-20 45q272 163 272 286q0 78 -92 101q-1 49 29.5 81.5t77.5 32.5
q58 2 97.5 -35.5t39.5 -97.5q0 -95 -106.5 -201t-297.5 -212z" />
    <glyph glyph-name="Lacute" unicode="&#x139;" horiz-adv-x="1435" 
d="M-45 0l14 49l94 6q52 5 78 19.5t37 54.5l397 1294q11 40 -5.5 54.5t-63.5 19.5l-90 6l14 49h578l-15 -49l-94 -6q-53 -5 -79.5 -19.5t-37.5 -54.5l-415 -1357h526q24 0 34 4.5t31 23.5l400 365h37l-281 -459h-1159zM700 1718l301 273h261l-2 -4l-519 -269h-41z" />
    <glyph glyph-name="lacute" unicode="&#x13a;" horiz-adv-x="626" 
d="M164 -25q-48 0 -76.5 13t-37.5 40t-3.5 63t23.5 87l428 1247l-160 80l6 13l410 90l-490 -1422q-14 -42 -20 -66t-5 -40t8.5 -21.5t24.5 -5.5q56 0 134.5 70.5t154.5 212.5l41 -19q-89 -170 -195 -256t-243 -86zM588 1747l295 367h227l-6 -15l-473 -352h-43z" />
    <glyph glyph-name="uni013B" unicode="&#x13b;" horiz-adv-x="1435" 
d="M-45 0l14 49l94 6q52 5 78 19.5t37 54.5l397 1294q11 40 -5.5 54.5t-63.5 19.5l-90 6l14 49h578l-15 -49l-94 -6q-53 -5 -79.5 -19.5t-37.5 -54.5l-415 -1357h526q24 0 34 4.5t31 23.5l400 365h37l-281 -459h-1159zM260 -702l-20 45q272 163 272 286q0 78 -92 101
q-1 49 29 81.5t77 32.5q58 2 98 -35.5t40 -97.5q0 -95 -106.5 -201t-297.5 -212z" />
    <glyph glyph-name="uni013C" unicode="&#x13c;" horiz-adv-x="626" 
d="M164 -25q-48 0 -76.5 13t-37.5 40t-3.5 63t23.5 87l428 1247l-160 80l6 13l410 90l-490 -1422q-14 -42 -20 -66t-5 -40t8.5 -21.5t24.5 -5.5q56 0 134.5 70.5t154.5 212.5l41 -19q-89 -170 -195 -256t-243 -86zM-213 -702l-20 45q272 163 272 286q0 78 -92 101
q-1 49 29 81.5t77 32.5q58 2 97.5 -35.5t39.5 -97.5q0 -95 -106 -201.5t-297 -211.5z" />
    <glyph glyph-name="Lcaron" unicode="&#x13d;" horiz-adv-x="1435" 
d="M-45 0l14 49l94 6q52 5 78 19.5t37 54.5l397 1294q11 40 -5.5 54.5t-63.5 19.5l-90 6l14 49h578l-15 -49l-94 -6q-53 -5 -79.5 -19.5t-37.5 -54.5l-415 -1357h526q24 0 34 4.5t31 23.5l400 365h37l-281 -459h-1159zM1016 1067l-21 45q132 79 202.5 152.5t70.5 134.5
q0 77 -92 100q-2 50 28.5 82.5t77.5 32.5q58 2 97.5 -35.5t39.5 -97.5q0 -95 -106.5 -202t-296.5 -212z" />
    <glyph glyph-name="lcaron" unicode="&#x13e;" horiz-adv-x="708" 
d="M164 -25q-48 0 -76.5 13t-37.5 40t-3.5 63t23.5 87l428 1247l-160 80l6 13l410 90l-490 -1422q-14 -42 -20 -66t-5 -40t8.5 -21.5t24.5 -5.5q56 0 134.5 70.5t154.5 212.5l41 -19q-89 -170 -195 -256t-243 -86zM791 1067l-21 45q272 163 272 287q0 77 -92 100
q-1 49 29.5 82t77.5 33q58 2 97.5 -35.5t39.5 -97.5q0 -95 -106.5 -202t-296.5 -212z" />
    <glyph glyph-name="Ldot" unicode="&#x13f;" horiz-adv-x="1435" 
d="M-45 0l14 49l94 6q52 5 78 19.5t37 54.5l397 1294q11 40 -5.5 54.5t-63.5 19.5l-90 6l14 49h578l-15 -49l-94 -6q-53 -5 -79.5 -19.5t-37.5 -54.5l-415 -1357h526q24 0 34 4.5t31 23.5l400 365h37l-281 -459h-1159zM1223 700q-54 0 -92.5 38.5t-38.5 92.5q0 52 39 92
t92 40t92 -40t39 -92q0 -54 -38.5 -92.5t-92.5 -38.5z" />
    <glyph glyph-name="ldot" unicode="&#x140;" horiz-adv-x="800" 
d="M164 -25q-48 0 -76.5 13t-37.5 40t-3.5 63t23.5 87l428 1247l-160 80l6 13l410 90l-490 -1422q-14 -42 -20 -66t-5 -40t8.5 -21.5t24.5 -5.5q56 0 134.5 70.5t154.5 212.5l41 -19q-89 -170 -195 -256t-243 -86zM776 678q-54 0 -92.5 38.5t-38.5 92.5q0 52 39 91.5
t92 39.5t92 -39.5t39 -91.5q0 -54 -38.5 -92.5t-92.5 -38.5z" />
    <glyph glyph-name="Lslash" unicode="&#x141;" horiz-adv-x="1435" 
d="M-45 0l14 49l94 6q52 5 78 19.5t37 54.5l397 1294q11 40 -5.5 54.5t-63.5 19.5l-90 6l14 49h578l-15 -49l-94 -6q-53 -5 -79.5 -19.5t-37.5 -54.5l-415 -1357h526q24 0 34 4.5t31 23.5l400 365h37l-281 -459h-1159zM20 481l33 109l883 463l-33 -107z" />
    <glyph glyph-name="lslash" unicode="&#x142;" horiz-adv-x="790" 
d="M246 -25q-48 0 -76.5 13t-37.5 40t-3.5 63t23.5 87l428 1247l-160 80l6 13l410 90l-490 -1422q-14 -42 -20 -66t-5 -40t8.5 -21.5t24.5 -5.5q56 0 134.5 70.5t154.5 212.5l41 -19q-89 -170 -195 -256t-243 -86zM78 565l28 99l734 374l-29 -98z" />
    <glyph glyph-name="Nacute" unicode="&#x143;" horiz-adv-x="1812" 
d="M1364 -39l-719 1436l-387 -1268q-13 -40 4.5 -54.5t65.5 -19.5l90 -6l-15 -49h-448l14 49l94 6q52 5 77 19.5t38 54.5l397 1294q13 40 -4 54.5t-65 19.5l-90 6l14 49h375l598 -1208l334 1079q13 40 -4.5 54.5t-65.5 19.5l-90 6l16 49h449l-17 -49l-94 -6
q-51 -5 -76 -19.5t-38 -54.5l-447 -1462h-6zM1225 1718l301 273h260l-2 -4l-518 -269h-41z" />
    <glyph glyph-name="nacute" unicode="&#x144;" horiz-adv-x="1243" 
d="M752 -25q-98 0 -123.5 54.5t20.5 148.5l221 471q104 222 85 281q-10 31 -52 31q-55 0 -123 -64t-166 -192q-113 -152 -223.5 -342.5t-169.5 -344.5l-209 -38l371 964l-186 8l16 43l408 66l-291 -733h2q117 228 272 442q112 152 206 220.5t196 68.5q253 0 61 -408
l-217 -465q-23 -50 -27.5 -80.5t4.5 -41.5t31 -11q56 0 134 70t157 213l41 -19q-89 -170 -195 -256t-243 -86zM854 1223l295 366h227l-6 -14l-473 -352h-43z" />
    <glyph glyph-name="uni0145" unicode="&#x145;" horiz-adv-x="1812" 
d="M1364 -39l-719 1436l-387 -1268q-13 -40 4.5 -54.5t65.5 -19.5l90 -6l-15 -49h-448l14 49l94 6q52 5 77 19.5t38 54.5l397 1294q13 40 -4 54.5t-65 19.5l-90 6l14 49h375l598 -1208l334 1079q13 40 -4.5 54.5t-65.5 19.5l-90 6l16 49h449l-17 -49l-94 -6
q-51 -5 -76 -19.5t-38 -54.5l-447 -1462h-6zM467 -702l-21 45q273 163 273 286q0 78 -92 101q-1 49 29 81.5t77 32.5q58 2 97.5 -35.5t39.5 -97.5q0 -95 -106 -201.5t-297 -211.5z" />
    <glyph glyph-name="uni0146" unicode="&#x146;" horiz-adv-x="1243" 
d="M752 -25q-98 0 -123.5 54.5t20.5 148.5l221 471q104 222 85 281q-10 31 -52 31q-55 0 -123 -64t-166 -192q-113 -152 -223.5 -342.5t-169.5 -344.5l-209 -38l371 964l-186 8l16 43l408 66l-291 -733h2q117 228 272 442q112 152 206 220.5t196 68.5q253 0 61 -408
l-217 -465q-23 -50 -27.5 -80.5t4.5 -41.5t31 -11q56 0 134 70t157 213l41 -19q-89 -170 -195 -256t-243 -86zM162 -702l-21 45q273 163 273 286q0 78 -92 101q-1 49 29 81.5t77 32.5q58 2 97.5 -35.5t39.5 -97.5q0 -95 -106 -201.5t-297 -211.5z" />
    <glyph glyph-name="Ncaron" unicode="&#x147;" horiz-adv-x="1812" 
d="M1364 -39l-719 1436l-387 -1268q-13 -40 4.5 -54.5t65.5 -19.5l90 -6l-15 -49h-448l14 49l94 6q52 5 77 19.5t38 54.5l397 1294q13 40 -4 54.5t-65 19.5l-90 6l14 49h375l598 -1208l334 1079q13 40 -4.5 54.5t-65.5 19.5l-90 6l16 49h449l-17 -49l-94 -6
q-51 -5 -76 -19.5t-38 -54.5l-447 -1462h-6zM1245 1706l-164 305h35l168 -149l381 149h43l-442 -305h-21z" />
    <glyph glyph-name="ncaron" unicode="&#x148;" horiz-adv-x="1243" 
d="M752 -25q-98 0 -123.5 54.5t20.5 148.5l221 471q104 222 85 281q-10 31 -52 31q-55 0 -123 -64t-166 -192q-113 -152 -223.5 -342.5t-169.5 -344.5l-209 -38l371 964l-186 8l16 43l408 66l-291 -733h2q117 228 272 442q112 152 206 220.5t196 68.5q253 0 61 -408
l-217 -465q-23 -50 -27.5 -80.5t4.5 -41.5t31 -11q56 0 134 70t157 213l41 -19q-89 -170 -195 -256t-243 -86zM887 1223l-139 395h38l156 -215l408 215h43l-490 -395h-16z" />
    <glyph glyph-name="Eng" unicode="&#x14a;" horiz-adv-x="1810" 
d="M1069 -358l-340 -174l-18 34q179 112 221 143q119 87 184 197q47 82 84 201l45 143l-596 1219l-391 -1276q-13 -40 4.5 -54.5t65.5 -19.5l90 -6l-15 -49h-448l14 49l94 6q52 5 77 19.5t38 54.5l397 1294q13 40 -4 54.5t-65 19.5l-90 6l14 49h375l596 -1220l336 1091
q13 40 -4.5 54.5t-65.5 19.5l-90 6l16 49h449l-17 -49l-94 -6q-51 -5 -76 -19.5t-38 -54.5l-431 -1390q-37 -118 -74.5 -184.5t-90.5 -110.5t-152 -96z" />
    <glyph glyph-name="eng" unicode="&#x14b;" horiz-adv-x="1169" 
d="M473 -358l-340 -174l-18 34q89 56 141 93t104.5 83t90 98t76 120t83.5 167l269 586q39 84 59.5 139.5t27 96t-6.5 58.5t-46 18q-106 0 -301 -261q-111 -146 -221.5 -336.5t-169.5 -345.5l-207 -32l369 958l-186 8l16 43l405 66l-290 -733h2q112 218 274 442
q111 151 208 220t200 69q84 0 116.5 -52t17.5 -141.5t-71 -214.5l-280 -616q-77 -167 -106 -212q-51 -82 -139 -138q-33 -20 -77 -43z" />
    <glyph glyph-name="Omacron" unicode="&#x14c;" horiz-adv-x="1804" 
d="M760 -25q-170 0 -307 67t-220 201t-83 314q0 115 36 236.5t100.5 235.5t161 216t211 177.5t257.5 120t294 44.5q127 0 237.5 -39t194 -111.5t131.5 -183.5t48 -247q0 -115 -36 -236.5t-100.5 -235.5t-161 -216t-211 -178t-258 -120.5t-294.5 -44.5zM797 35
q155 0 299.5 80.5t250 213.5t169 312.5t63.5 368.5q0 237 -106.5 376.5t-298.5 139.5q-155 0 -300 -80.5t-250.5 -213t-169 -311.5t-63.5 -368q0 -238 107 -378t299 -140zM1034 1806l31 90h575l-30 -90h-576z" />
    <glyph glyph-name="omacron" unicode="&#x14d;" horiz-adv-x="1112" 
d="M375 -25q-146 0 -232 89t-86 231q0 136 58 274.5t151.5 246t220 175.5t254.5 68q146 0 232 -88.5t86 -229.5q0 -137 -57.5 -276t-150.5 -246.5t-219.5 -175.5t-256.5 -68zM440 33q56 0 114 34t110 99t93 150t65 196t24 229q0 131 -43 195.5t-123 64.5q-71 0 -144 -54
t-131.5 -145.5t-95.5 -225.5t-37 -281q0 -132 44 -197t124 -65zM571 1368l33 92h580l-31 -92h-582z" />
    <glyph glyph-name="Obreve" unicode="&#x14e;" horiz-adv-x="1804" 
d="M760 -25q-170 0 -307 67t-220 201t-83 314q0 115 36 236.5t100.5 235.5t161 216t211 177.5t257.5 120t294 44.5q127 0 237.5 -39t194 -111.5t131.5 -183.5t48 -247q0 -115 -36 -236.5t-100.5 -235.5t-161 -216t-211 -178t-258 -120.5t-294.5 -44.5zM797 35
q155 0 299.5 80.5t250 213.5t169 312.5t63.5 368.5q0 237 -106.5 376.5t-298.5 139.5q-155 0 -300 -80.5t-250.5 -213t-169 -311.5t-63.5 -368q0 -238 107 -378t299 -140zM1313 1700q-45 0 -85 10.5t-75.5 33.5t-55.5 60t-27 90.5t11 124.5h76q-25 -125 20.5 -185t149.5 -60
q101 0 179.5 58.5t117.5 186.5h80q-96 -319 -391 -319z" />
    <glyph glyph-name="obreve" unicode="&#x14f;" horiz-adv-x="1112" 
d="M375 -25q-146 0 -232 89t-86 231q0 136 58 274.5t151.5 246t220 175.5t254.5 68q146 0 232 -88.5t86 -229.5q0 -137 -57.5 -276t-150.5 -246.5t-219.5 -175.5t-256.5 -68zM440 33q56 0 114 34t110 99t93 150t65 196t24 229q0 131 -43 195.5t-123 64.5q-71 0 -144 -54
t-131.5 -145.5t-95.5 -225.5t-37 -281q0 -132 44 -197t124 -65zM817 1257q-57 0 -105 17t-85.5 55.5t-48 99.5t7.5 150h76q-25 -125 20 -185.5t149 -60.5q101 0 179.5 59t117.5 187h80q-96 -322 -391 -322z" />
    <glyph glyph-name="Ohungarumlaut" unicode="&#x150;" horiz-adv-x="1804" 
d="M760 -25q-170 0 -307 67t-220 201t-83 314q0 115 36 236.5t100.5 235.5t161 216t211 177.5t257.5 120t294 44.5q127 0 237.5 -39t194 -111.5t131.5 -183.5t48 -247q0 -115 -36 -236.5t-100.5 -235.5t-161 -216t-211 -178t-258 -120.5t-294.5 -44.5zM797 35
q155 0 299.5 80.5t250 213.5t169 312.5t63.5 368.5q0 237 -106.5 376.5t-298.5 139.5q-155 0 -300 -80.5t-250.5 -213t-169 -311.5t-63.5 -368q0 -238 107 -378t299 -140zM1055 1718l305 273h260l-2 -4l-516 -269h-47zM1434 1718l303 273h260l-2 -4l-516 -269h-45z" />
    <glyph glyph-name="ohungarumlaut" unicode="&#x151;" horiz-adv-x="1112" 
d="M375 -25q-146 0 -232 89t-86 231q0 136 58 274.5t151.5 246t220 175.5t254.5 68q146 0 232 -88.5t86 -229.5q0 -137 -57.5 -276t-150.5 -246.5t-219.5 -175.5t-256.5 -68zM440 33q56 0 114 34t110 99t93 150t65 196t24 229q0 131 -43 195.5t-123 64.5q-71 0 -144 -54
t-131.5 -145.5t-95.5 -225.5t-37 -281q0 -132 44 -197t124 -65zM973 1223l295 366h229l-6 -14l-475 -352h-43zM584 1223l293 366h229l-6 -14l-475 -352h-41z" />
    <glyph glyph-name="OE" unicode="&#x152;" horiz-adv-x="2713" 
d="M1206 1587q200 0 332 -97.5t180 -275.5l103 338h905l-70 -454h-20l-94 356q-6 23 -14.5 28t-35.5 5h-510l-196 -641h328q26 0 34 4t19 22l151 242h21l-187 -608h-20l-4 239q1 17 -5.5 22t-31.5 5h-328l-215 -706h619q23 0 34.5 5t30.5 23l402 365h20l-268 -459h-1038
l90 297q-136 -148 -309 -235t-373 -87q-171 0 -307.5 64t-220 195t-83.5 311q0 115 36 237.5t100.5 238t161.5 218.5t211.5 180.5t257.5 122.5t294 45zM1575 1010q0 237 -107 376.5t-299 139.5q-155 0 -299.5 -80.5t-250 -213t-169 -311.5t-63.5 -368q0 -238 107 -378
t299 -140q155 0 299.5 80.5t250 213.5t169 312.5t63.5 368.5z" />
    <glyph glyph-name="oe" unicode="&#x153;" horiz-adv-x="1687" 
d="M375 -25q-146 0 -232 89t-86 231q0 136 58 274.5t151.5 246t220 175.5t254.5 68q121 0 198 -60t101 -165q104 104 223 164.5t228 60.5q111 0 164 -50t53 -135q0 -66 -42.5 -131.5t-117.5 -105.5l-487 -4q-49 -132 -61 -241.5t8 -178t62 -106t99 -37.5q180 0 340 313
l43 -14q-100 -204 -215 -299t-278 -95q-205 0 -258 195q-195 -195 -426 -195zM1591 922q0 92 -108 92q-107 0 -220.5 -95.5t-185.5 -246.5h111q174 0 288.5 74t114.5 176zM846 741q0 131 -43 195.5t-123 64.5q-71 0 -144 -54t-131.5 -145.5t-95.5 -225.5t-37 -281
q0 -132 44 -197t124 -65q56 0 114 34t110 99t93 150t65 196t24 229z" />
    <glyph glyph-name="Racute" unicode="&#x154;" horiz-adv-x="1576" 
d="M-45 0l14 49l94 6q52 5 77 19.5t38 54.5l395 1294q13 40 -4 54.5t-65 19.5l-90 6l16 49h574q264 0 411.5 -74.5t147.5 -232.5q0 -186 -158 -309t-438 -148l530 -788h-252l-508 764h-155l-197 -635q-13 -40 5 -54.5t67 -19.5l90 -6l-15 -49h-577zM600 827h182
q135 0 241.5 34.5t172.5 94.5t100.5 137t34.5 164q0 232 -348 232h-182zM1057 1718l301 273h260l-2 -4l-518 -269h-41z" />
    <glyph glyph-name="racute" unicode="&#x155;" horiz-adv-x="919" 
d="M14 -20l371 964l-188 8l16 43l408 66l-271 -696h2q168 326 250 448q87 130 158.5 188t146.5 58q54 0 85.5 -37t31.5 -90q0 -56 -35.5 -98.5t-103.5 -49.5l-92 179q-46 -36 -98 -101t-111 -163t-103 -176t-113 -206.5t-102 -187.5l-43 -111zM741 1223l295 366h228l-7 -14
l-473 -352h-43z" />
    <glyph glyph-name="uni0156" unicode="&#x156;" horiz-adv-x="1576" 
d="M-45 0l14 49l94 6q52 5 77 19.5t38 54.5l395 1294q13 40 -4 54.5t-65 19.5l-90 6l16 49h574q264 0 411.5 -74.5t147.5 -232.5q0 -186 -158 -309t-438 -148l530 -788h-252l-508 764h-155l-197 -635q-13 -40 5 -54.5t67 -19.5l90 -6l-15 -49h-577zM600 827h182
q135 0 241.5 34.5t172.5 94.5t100.5 137t34.5 164q0 232 -348 232h-182zM500 -702l-21 45q273 163 273 286q0 78 -93 101q-1 49 29.5 81.5t77.5 32.5q58 2 97.5 -35.5t39.5 -97.5q0 -95 -106 -201.5t-297 -211.5z" />
    <glyph glyph-name="uni0157" unicode="&#x157;" horiz-adv-x="919" 
d="M14 -20l371 964l-188 8l16 43l408 66l-271 -696h2q168 326 250 448q87 130 158.5 188t146.5 58q54 0 85.5 -37t31.5 -90q0 -56 -35.5 -98.5t-103.5 -49.5l-92 179q-46 -36 -98 -101t-111 -163t-103 -176t-113 -206.5t-102 -187.5l-43 -111zM-223 -702l-21 45
q273 163 273 286q0 78 -92 101q-1 49 29 81.5t77 32.5q58 2 97.5 -35.5t39.5 -97.5q0 -95 -106 -201.5t-297 -211.5z" />
    <glyph glyph-name="Rcaron" unicode="&#x158;" horiz-adv-x="1576" 
d="M-45 0l14 49l94 6q52 5 77 19.5t38 54.5l395 1294q13 40 -4 54.5t-65 19.5l-90 6l16 49h574q264 0 411.5 -74.5t147.5 -232.5q0 -186 -158 -309t-438 -148l530 -788h-252l-508 764h-155l-197 -635q-13 -40 5 -54.5t67 -19.5l90 -6l-15 -49h-577zM600 827h182
q135 0 241.5 34.5t172.5 94.5t100.5 137t34.5 164q0 232 -348 232h-182zM1077 1706l-164 305h35l168 -149l381 149h43l-442 -305h-21z" />
    <glyph glyph-name="rcaron" unicode="&#x159;" horiz-adv-x="919" 
d="M14 -20l371 964l-188 8l16 43l408 66l-271 -696h2q168 326 250 448q87 130 158.5 188t146.5 58q54 0 85.5 -37t31.5 -90q0 -56 -35.5 -98.5t-103.5 -49.5l-92 179q-46 -36 -98 -101t-111 -163t-103 -176t-113 -206.5t-102 -187.5l-43 -111zM774 1223l-139 395h39
l155 -215l408 215h43l-489 -395h-17z" />
    <glyph glyph-name="Sacute" unicode="&#x15a;" horiz-adv-x="1247" 
d="M414 -25q-102 0 -217.5 30t-202.5 85l119 420h37l40 -360q7 -63 62 -82q89 -29 197 -29q73 0 146 20t135.5 58t102 101t39.5 140q0 83 -34.5 153t-114.5 167l-137 160q-75 88 -112.5 163.5t-37.5 161.5q0 122 79.5 221t203 151t260.5 52q259 0 395 -102l-80 -385h-37
l-75 327q-7 34 -20.5 50t-37.5 24q-59 21 -133 21q-92 0 -172.5 -26t-137 -85t-56.5 -141q0 -53 18 -101t38 -76t62 -79l138 -160q102 -116 149 -197t47 -176q0 -96 -49 -187t-134.5 -162t-211 -114t-268.5 -43zM1014 1718l301 273h260l-2 -4l-518 -269h-41z" />
    <glyph glyph-name="sacute" unicode="&#x15b;" horiz-adv-x="800" 
d="M229 -25q-114 0 -180.5 52t-66.5 127q0 56 50 88t118 26q48 -176 62.5 -208.5t41.5 -32.5q28 0 61.5 10t67 29.5t56 56.5t22.5 84q0 46 -17.5 83.5t-60.5 98.5l-90 121q-86 115 -86 217q0 90 58.5 167.5t151.5 121t195 43.5q92 0 147.5 -41t55.5 -107q0 -57 -41 -90.5
t-119 -29.5q-37 158 -48.5 186.5t-39.5 28.5q-71 0 -142 -43t-71 -109q0 -75 78 -182l90 -121q92 -127 92 -229q0 -77 -36 -143.5t-92.5 -110t-124 -68.5t-132.5 -25zM584 1223l295 366h227l-6 -14l-473 -352h-43z" />
    <glyph glyph-name="Scircumflex" unicode="&#x15c;" horiz-adv-x="1247" 
d="M414 -25q-102 0 -217.5 30t-202.5 85l119 420h37l40 -360q7 -63 62 -82q89 -29 197 -29q73 0 146 20t135.5 58t102 101t39.5 140q0 83 -34.5 153t-114.5 167l-137 160q-75 88 -112.5 163.5t-37.5 161.5q0 122 79.5 221t203 151t260.5 52q259 0 395 -102l-80 -385h-37
l-75 327q-7 34 -20.5 50t-37.5 24q-59 21 -133 21q-92 0 -172.5 -26t-137 -85t-56.5 -141q0 -53 18 -101t38 -76t62 -79l138 -160q102 -116 149 -197t47 -176q0 -96 -49 -187t-134.5 -162t-211 -114t-268.5 -43zM752 1706l442 303h20l164 -303h-35l-169 149l-379 -149h-43z
" />
    <glyph glyph-name="scircumflex" unicode="&#x15d;" horiz-adv-x="800" 
d="M229 -25q-114 0 -180.5 52t-66.5 127q0 56 50 88t118 26q48 -176 62.5 -208.5t41.5 -32.5q28 0 61.5 10t67 29.5t56 56.5t22.5 84q0 46 -17.5 83.5t-60.5 98.5l-90 121q-86 115 -86 217q0 90 58.5 167.5t151.5 121t195 43.5q92 0 147.5 -41t55.5 -107q0 -57 -41 -90.5
t-119 -29.5q-37 158 -48.5 186.5t-39.5 28.5q-71 0 -142 -43t-71 -109q0 -75 78 -182l90 -121q92 -127 92 -229q0 -77 -36 -143.5t-92.5 -110t-124 -68.5t-132.5 -25zM328 1223l489 395h17l139 -395h-39l-158 215l-405 -215h-43z" />
    <glyph glyph-name="Scedilla" unicode="&#x15e;" horiz-adv-x="1247" 
d="M414 -25q-102 0 -217.5 30t-202.5 85l119 420h37l40 -360q7 -63 62 -82q89 -29 197 -29q73 0 146 20t135.5 58t102 101t39.5 140q0 83 -34.5 153t-114.5 167l-137 160q-75 88 -112.5 163.5t-37.5 161.5q0 122 79.5 221t203 151t260.5 52q259 0 395 -102l-80 -385h-37
l-75 327q-7 34 -20.5 50t-37.5 24q-59 21 -133 21q-92 0 -172.5 -26t-137 -85t-56.5 -141q0 -53 18 -101t38 -76t62 -79l138 -160q102 -116 149 -197t47 -176q0 -96 -49 -187t-134.5 -162t-211 -114t-268.5 -43zM266 -526q-91 0 -150 41.5t-59 91.5q0 35 26 49.5t58 -2.5
q-4 -64 39 -99.5t107 -35.5q112 0 112 80q0 9 -2.5 18.5t-8.5 19t-12 17.5t-17.5 19t-20 18.5t-24.5 20t-26 20l-30 22.5t-31 23l279 223h76l-224 -176q129 -91 129 -174q0 -79 -61 -127.5t-160 -48.5z" />
    <glyph glyph-name="scedilla" unicode="&#x15f;" horiz-adv-x="800" 
d="M229 -25q-114 0 -180.5 52t-66.5 127q0 56 50 88t118 26q48 -176 62.5 -208.5t41.5 -32.5q28 0 61.5 10t67 29.5t56 56.5t22.5 84q0 46 -17.5 83.5t-60.5 98.5l-90 121q-86 115 -86 217q0 90 58.5 167.5t151.5 121t195 43.5q92 0 147.5 -41t55.5 -107q0 -57 -41 -90.5
t-119 -29.5q-37 158 -48.5 186.5t-39.5 28.5q-71 0 -142 -43t-71 -109q0 -75 78 -182l90 -121q92 -127 92 -229q0 -77 -36 -143.5t-92.5 -110t-124 -68.5t-132.5 -25zM23 -526q-93 0 -152 41t-59 92q0 35 27 49.5t59 -2.5q-4 -65 36 -100t103 -35q56 0 87.5 21t31.5 59
q0 9 -2.5 18.5t-8.5 19t-12 17.5t-17.5 19t-20 18.5t-24.5 20t-26 20l-30 22.5t-31 23l286 223h68l-223 -176q62 -44 95.5 -87.5t33.5 -98.5q0 -72 -61.5 -118t-159.5 -46z" />
    <glyph glyph-name="Scaron" unicode="&#x160;" horiz-adv-x="1247" 
d="M414 -25q-102 0 -217.5 30t-202.5 85l119 420h37l40 -360q7 -63 62 -82q89 -29 197 -29q73 0 146 20t135.5 58t102 101t39.5 140q0 83 -34.5 153t-114.5 167l-137 160q-75 88 -112.5 163.5t-37.5 161.5q0 122 79.5 221t203 151t260.5 52q259 0 395 -102l-80 -385h-37
l-75 327q-7 34 -20.5 50t-37.5 24q-59 21 -133 21q-92 0 -172.5 -26t-137 -85t-56.5 -141q0 -53 18 -101t38 -76t62 -79l138 -160q102 -116 149 -197t47 -176q0 -96 -49 -187t-134.5 -162t-211 -114t-268.5 -43zM1034 1706l-164 305h35l168 -149l381 149h43l-442 -305h-21z
" />
    <glyph glyph-name="scaron" unicode="&#x161;" horiz-adv-x="800" 
d="M229 -25q-114 0 -180.5 52t-66.5 127q0 56 50 88t118 26q48 -176 62.5 -208.5t41.5 -32.5q28 0 61.5 10t67 29.5t56 56.5t22.5 84q0 46 -17.5 83.5t-60.5 98.5l-90 121q-86 115 -86 217q0 90 58.5 167.5t151.5 121t195 43.5q92 0 147.5 -41t55.5 -107q0 -57 -41 -90.5
t-119 -29.5q-37 158 -48.5 186.5t-39.5 28.5q-71 0 -142 -43t-71 -109q0 -75 78 -182l90 -121q92 -127 92 -229q0 -77 -36 -143.5t-92.5 -110t-124 -68.5t-132.5 -25zM616 1223l-139 395h39l156 -215l407 215h43l-489 -395h-17z" />
    <glyph glyph-name="uni0162" unicode="&#x162;" horiz-adv-x="1550" 
d="M301 0l16 51l123 6q53 5 78.5 18.5t36.5 53.5l418 1364h-348q-28 0 -39.5 -5.5t-28.5 -27.5l-309 -387h-37l197 479h1374l-96 -479h-37l-54 387q-4 22 -13.5 27.5t-35.5 5.5h-366l-416 -1364q-13 -40 4.5 -53.5t67.5 -18.5l120 -6l-16 -51h-639zM238 -702l-21 45
q272 163 272 286q0 78 -92 101q-1 49 29.5 81.5t77.5 32.5q58 2 97.5 -35.5t39.5 -97.5q0 -95 -106 -201.5t-297 -211.5z" />
    <glyph glyph-name="uni0163" unicode="&#x163;" horiz-adv-x="772" 
d="M190 -25q-96 0 -117 53t21 150l301 746h-243l41 104h245l92 232h193l-92 -232h293l-41 -104h-295l-295 -736q-21 -52 -27 -81.5t2 -41.5t29 -12q58 0 141 71t158 212l41 -19q-180 -342 -447 -342zM-188 -702l-21 45q272 163 272 286q0 78 -92 101q-1 49 29.5 81.5
t77.5 32.5q58 2 97.5 -35.5t39.5 -97.5q0 -95 -106 -201.5t-297 -211.5z" />
    <glyph glyph-name="Tcaron" unicode="&#x164;" horiz-adv-x="1550" 
d="M301 0l16 51l123 6q53 5 78.5 18.5t36.5 53.5l418 1364h-348q-28 0 -39.5 -5.5t-28.5 -27.5l-309 -387h-37l197 479h1374l-96 -479h-37l-54 387q-4 22 -13.5 27.5t-35.5 5.5h-366l-416 -1364q-13 -40 4.5 -53.5t67.5 -18.5l120 -6l-16 -51h-639zM1126 1706l-163 305h34
l168 -149l381 149h43l-442 -305h-21z" />
    <glyph glyph-name="tcaron" unicode="&#x165;" horiz-adv-x="772" 
d="M190 -25q-96 0 -117 53t21 150l301 746h-243l41 104h245l92 232h193l-92 -232h293l-41 -104h-295l-295 -736q-21 -52 -27 -81.5t2 -41.5t29 -12q58 0 141 71t158 212l41 -19q-180 -342 -447 -342zM866 1165l-20 45q272 163 272 287q0 77 -92 100q-1 49 29.5 82t77.5 33
q58 2 97.5 -35.5t39.5 -97.5q0 -95 -106.5 -202t-297.5 -212z" />
    <glyph glyph-name="Tbar" unicode="&#x166;" horiz-adv-x="1550" 
d="M301 0l16 51l123 6q53 5 78.5 18.5t36.5 53.5l418 1364h-348q-28 0 -39.5 -5.5t-28.5 -27.5l-309 -387h-37l197 479h1374l-96 -479h-37l-54 387q-4 22 -13.5 27.5t-35.5 5.5h-366l-416 -1364q-13 -40 4.5 -53.5t67.5 -18.5l120 -6l-16 -51h-639zM389 776l25 82h934
l-27 -82h-932z" />
    <glyph glyph-name="tbar" unicode="&#x167;" horiz-adv-x="854" 
d="M231 -25q-96 0 -117 53t21 150l301 746h-243l40 104h246l92 232h193l-92 -232h293l-41 -104h-295l-295 -736q-21 -52 -27 -81.5t2 -41.5t29 -12q58 0 141 71t158 212l41 -19q-180 -342 -447 -342zM86 666l31 71h731l-31 -71h-731z" />
    <glyph glyph-name="Utilde" unicode="&#x168;" horiz-adv-x="1767" 
d="M776 -25q-156 0 -268 38t-180 117.5t-76.5 202t41.5 292.5l244 798q11 40 -6 54.5t-66 19.5l-88 6l14 49h578l-15 -49l-94 -6q-52 -5 -78 -19.5t-39 -54.5l-249 -821q-78 -258 2 -382t327 -124q490 0 650 525l245 802q13 40 -4 54.5t-65 19.5l-103 6l15 49h460l-14 -49
l-94 -6q-52 -5 -77 -19.5t-38 -54.5l-250 -815q-99 -318 -285.5 -475.5t-486.5 -157.5zM1470 1704q-39 0 -74.5 14.5t-62.5 35t-53 40.5t-57 34.5t-62 14.5q-106 0 -149 -125h-35q24 127 79.5 198t139.5 71q38 0 72 -14.5t59.5 -35t50 -41t56 -35t65.5 -14.5q96 0 137 121
h33q-54 -264 -199 -264z" />
    <glyph glyph-name="utilde" unicode="&#x169;" horiz-adv-x="1241" 
d="M635 1061l-289 -674q-37 -87 -56 -142t-25.5 -95.5t5 -58t41.5 -17.5q56 0 125 66t166 196q107 146 216.5 334t176.5 348l203 31l-332 -863q-20 -52 -25.5 -81t2.5 -40.5t29 -11.5q56 0 134.5 70.5t154.5 212.5l43 -19q-89 -170 -195 -256t-243 -86q-96 0 -117 52.5
t21 150.5l200 508h-2q-116 -229 -260 -420q-112 -153 -204 -222t-195 -69q-126 0 -140 99.5t78 310.5l238 559l-188 8l16 43zM1083 1288q-39 0 -74.5 14.5t-62.5 35t-53 40.5t-57 34.5t-62 14.5q-107 0 -149 -124h-35q24 127 79.5 197.5t139.5 70.5q38 0 72 -14.5t59.5 -35
t50 -40.5t56 -34.5t65.5 -14.5q96 0 137 120h33q-55 -264 -199 -264z" />
    <glyph glyph-name="Umacron" unicode="&#x16a;" horiz-adv-x="1767" 
d="M776 -25q-156 0 -268 38t-180 117.5t-76.5 202t41.5 292.5l244 798q11 40 -6 54.5t-66 19.5l-88 6l14 49h578l-15 -49l-94 -6q-52 -5 -78 -19.5t-39 -54.5l-249 -821q-78 -258 2 -382t327 -124q490 0 650 525l245 802q13 40 -4 54.5t-65 19.5l-103 6l15 49h460l-14 -49
l-94 -6q-52 -5 -77 -19.5t-38 -54.5l-250 -815q-99 -318 -285.5 -475.5t-486.5 -157.5zM1020 1806l31 90h575l-31 -90h-575z" />
    <glyph glyph-name="umacron" unicode="&#x16b;" horiz-adv-x="1241" 
d="M635 1061l-289 -674q-37 -87 -56 -142t-25.5 -95.5t5 -58t41.5 -17.5q56 0 125 66t166 196q107 146 216.5 334t176.5 348l203 31l-332 -863q-20 -52 -25.5 -81t2.5 -40.5t29 -11.5q56 0 134.5 70.5t154.5 212.5l43 -19q-89 -170 -195 -256t-243 -86q-96 0 -117 52.5
t21 150.5l200 508h-2q-116 -229 -260 -420q-112 -153 -204 -222t-195 -69q-126 0 -140 99.5t78 310.5l238 559l-188 8l16 43zM614 1368l33 92h580l-31 -92h-582z" />
    <glyph glyph-name="Ubreve" unicode="&#x16c;" horiz-adv-x="1767" 
d="M776 -25q-156 0 -268 38t-180 117.5t-76.5 202t41.5 292.5l244 798q11 40 -6 54.5t-66 19.5l-88 6l14 49h578l-15 -49l-94 -6q-52 -5 -78 -19.5t-39 -54.5l-249 -821q-78 -258 2 -382t327 -124q490 0 650 525l245 802q13 40 -4 54.5t-65 19.5l-103 6l15 49h460l-14 -49
l-94 -6q-52 -5 -77 -19.5t-38 -54.5l-250 -815q-99 -318 -285.5 -475.5t-486.5 -157.5zM1298 1700q-58 0 -105 16.5t-85.5 54t-48 98.5t7.5 150h76q-25 -125 20.5 -185t149.5 -60q101 0 179.5 58.5t117.5 186.5h80q-96 -319 -392 -319z" />
    <glyph glyph-name="ubreve" unicode="&#x16d;" horiz-adv-x="1241" 
d="M635 1061l-289 -674q-37 -87 -56 -142t-25.5 -95.5t5 -58t41.5 -17.5q56 0 125 66t166 196q107 146 216.5 334t176.5 348l203 31l-332 -863q-20 -52 -25.5 -81t2.5 -40.5t29 -11.5q56 0 134.5 70.5t154.5 212.5l43 -19q-89 -170 -195 -256t-243 -86q-96 0 -117 52.5
t21 150.5l200 508h-2q-116 -229 -260 -420q-112 -153 -204 -222t-195 -69q-126 0 -140 99.5t78 310.5l238 559l-188 8l16 43zM860 1257q-57 0 -105 17t-85.5 55.5t-48 99.5t7.5 150h76q-25 -125 20 -185.5t149 -60.5q101 0 179.5 59t117.5 187h80q-96 -322 -391 -322z" />
    <glyph glyph-name="Uring" unicode="&#x16e;" horiz-adv-x="1767" 
d="M776 -25q-156 0 -268 38t-180 117.5t-76.5 202t41.5 292.5l244 798q11 40 -6 54.5t-66 19.5l-88 6l14 49h578l-15 -49l-94 -6q-52 -5 -78 -19.5t-39 -54.5l-249 -821q-78 -258 2 -382t327 -124q490 0 650 525l245 802q13 40 -4 54.5t-65 19.5l-103 6l15 49h460l-14 -49
l-94 -6q-52 -5 -77 -19.5t-38 -54.5l-250 -815q-99 -318 -285.5 -475.5t-486.5 -157.5zM1354 1710q-98 0 -167 66t-69 163q0 94 69.5 162t166.5 68q99 0 169 -68t70 -162q0 -98 -69.5 -163.5t-169.5 -65.5zM1354 1784q69 0 112 43t43 112q0 68 -43 110t-112 42
q-68 0 -111 -42.5t-43 -109.5q0 -69 43 -112t111 -43z" />
    <glyph glyph-name="uring" unicode="&#x16f;" horiz-adv-x="1241" 
d="M635 1061l-289 -674q-37 -87 -56 -142t-25.5 -95.5t5 -58t41.5 -17.5q56 0 125 66t166 196q107 146 216.5 334t176.5 348l203 31l-332 -863q-20 -52 -25.5 -81t2.5 -40.5t29 -11.5q56 0 134.5 70.5t154.5 212.5l43 -19q-89 -170 -195 -256t-243 -86q-96 0 -117 52.5
t21 150.5l200 508h-2q-116 -229 -260 -420q-112 -153 -204 -222t-195 -69q-126 0 -140 99.5t78 310.5l238 559l-188 8l16 43zM926 1198q-97 0 -166.5 66t-69.5 161q0 94 69.5 162t166.5 68q99 0 169 -68t70 -162q0 -95 -69.5 -161t-169.5 -66zM926 1272q69 0 112 42.5
t43 110.5t-43 111t-112 43q-68 0 -111 -43.5t-43 -110.5t43 -110t111 -43z" />
    <glyph glyph-name="Uhungarumlaut" unicode="&#x170;" horiz-adv-x="1767" 
d="M776 -25q-156 0 -268 38t-180 117.5t-76.5 202t41.5 292.5l244 798q11 40 -6 54.5t-66 19.5l-88 6l14 49h578l-15 -49l-94 -6q-52 -5 -78 -19.5t-39 -54.5l-249 -821q-78 -258 2 -382t327 -124q490 0 650 525l245 802q13 40 -4 54.5t-65 19.5l-103 6l15 49h460l-14 -49
l-94 -6q-52 -5 -77 -19.5t-38 -54.5l-250 -815q-99 -318 -285.5 -475.5t-486.5 -157.5zM1040 1718l306 273h260l-2 -4l-517 -269h-47zM1419 1718l303 273h260l-2 -4l-516 -269h-45z" />
    <glyph glyph-name="uhungarumlaut" unicode="&#x171;" horiz-adv-x="1241" 
d="M635 1061l-289 -674q-37 -87 -56 -142t-25.5 -95.5t5 -58t41.5 -17.5q56 0 125 66t166 196q107 146 216.5 334t176.5 348l203 31l-332 -863q-20 -52 -25.5 -81t2.5 -40.5t29 -11.5q56 0 134.5 70.5t154.5 212.5l43 -19q-89 -170 -195 -256t-243 -86q-96 0 -117 52.5
t21 150.5l200 508h-2q-116 -229 -260 -420q-112 -153 -204 -222t-195 -69q-126 0 -140 99.5t78 310.5l238 559l-188 8l16 43zM1016 1223l295 366h229l-6 -14l-475 -352h-43zM627 1223l293 366h229l-6 -14l-475 -352h-41z" />
    <glyph glyph-name="Uogonek" unicode="&#x172;" horiz-adv-x="1767" 
d="M616 -477q-78 0 -125 34.5t-47 98.5q0 41 29 86t78.5 87.5t102 77.5t112.5 68q-154 2 -263.5 40t-177 117t-75 201t42.5 292l244 798q11 40 -6 54.5t-66 19.5l-88 6l14 49h578l-15 -49l-94 -6q-52 -5 -78 -19.5t-39 -54.5l-249 -821q-78 -258 2 -382t327 -124
q490 0 650 525l245 802q13 40 -4 54.5t-65 19.5l-103 6l15 49h460l-14 -49l-94 -6q-52 -5 -77 -19.5t-38 -54.5l-250 -815q-94 -307 -270.5 -464t-458.5 -167q-125 -95 -167 -137q-79 -79 -79 -147q0 -48 31.5 -73.5t91.5 -25.5q59 0 144 33l-11 -45q-42 -26 -100 -42.5
t-113 -16.5z" />
    <glyph glyph-name="uogonek" unicode="&#x173;" horiz-adv-x="1241" 
d="M635 1061l-289 -674q-37 -87 -56 -142t-25.5 -95.5t5 -58t41.5 -17.5q56 0 125 66t166 196q107 146 216.5 334t176.5 348l203 31l-332 -863q-20 -52 -25.5 -81t2.5 -40.5t29 -11.5q56 0 134.5 70.5t154.5 212.5l43 -19q-75 -140 -159 -222.5t-187 -106.5
q-57 -40 -91.5 -67t-80.5 -69t-69 -81.5t-23 -77.5q0 -48 31.5 -73.5t91.5 -25.5q58 0 143 33l-10 -45q-42 -26 -100 -42.5t-113 -16.5q-78 0 -125 34.5t-47 98.5q0 137 321 321q-3 0 -10 -1t-10 -1q-96 0 -117 52.5t21 150.5l200 508h-2q-116 -229 -260 -420
q-112 -153 -204 -222t-195 -69q-126 0 -140 99.5t78 310.5l238 559l-188 8l16 43z" />
    <glyph glyph-name="Wcircumflex" unicode="&#x174;" horiz-adv-x="2572" 
d="M188 -49l365 1472q10 40 -6.5 54.5t-63.5 19.5l-90 6l15 49h577l-14 -49l-94 -6q-53 -5 -79 -19.5t-36 -54.5l-291 -1151l915 840l109 440h453l-15 -49l-143 -6q-50 -2 -77.5 -17.5t-37.5 -56.5l-291 -1151l1256 1155q25 23 33.5 36.5t0 22t-39.5 11.5l-125 6l14 49h504
l-16 -49l-91 -6q-104 -10 -167 -70l-1614 -1476h-37l252 1030l-1129 -1030h-37zM1436 1706l442 303h20l164 -303h-34l-170 149l-379 -149h-43z" />
    <glyph glyph-name="wcircumflex" unicode="&#x175;" horiz-adv-x="1679" 
d="M350 -25q-104 0 -157.5 60t-53.5 168q0 144 117 310t348 343h-418l-96 -166h-45l152 338h647q-58 -48 -88.5 -73.5t-84 -72t-83 -75.5t-73.5 -73.5t-69 -77.5t-54.5 -76.5t-44.5 -80t-25.5 -78.5t-10.5 -83q0 -87 48.5 -134.5t140.5 -47.5q110 0 231 71q-22 90 -22 179
q0 148 60 301.5t154.5 252.5t186.5 99q55 0 85 -34.5t30 -102.5q0 -90 -48.5 -220t-156.5 -268q-77 -99 -160 -182q84 -96 225 -96q80 0 157.5 37.5t141.5 105.5t110 171t62 226l-161 217q-10 66 23 106t83 40q55 0 86 -42.5t31 -150.5q0 -151 -43.5 -307.5t-119 -287
t-191 -213.5t-246.5 -83q-180 0 -262 183q-226 -183 -406 -183zM774 512q0 -126 53 -215q80 71 146 154q162 196 162 337q0 54 -27.5 83.5t-73.5 29.5q-93 0 -176.5 -114t-83.5 -275zM825 1223l490 395h16l139 -395h-38l-158 215l-406 -215h-43z" />
    <glyph glyph-name="Ycircumflex" unicode="&#x176;" horiz-adv-x="1595" 
d="M324 0l16 51l123 6q53 5 77.5 18.5t37.5 53.5l176 571l-287 727q-14 39 -29.5 52.5t-60.5 17.5l-88 6l16 49h580l-17 -49l-102 -6q-53 -5 -75 -21t-9 -49l252 -645l649 645q35 35 26.5 50t-57.5 20l-125 6l15 49h497l-16 -49l-90 -6q-46 -4 -75.5 -19t-67.5 -51
l-729 -727l-177 -571q-13 -40 5.5 -55t66.5 -17l123 -6l-16 -51h-639zM870 1706l443 303h20l164 -303h-35l-170 149l-379 -149h-43z" />
    <glyph glyph-name="ycircumflex" unicode="&#x177;" horiz-adv-x="1177" 
d="M-188 -532q-152 0 -152 110q0 63 61 103q39 -36 77 -52t91 -16q89 0 190.5 72.5t254.5 271.5l-10 979h-181l2 43l371 82l4 -858l369 485q61 82 94 124.5t73.5 93t63 73t49.5 44.5t47.5 29t43.5 7q38 0 63 -25t25 -65q0 -55 -29 -78q-139 -41 -226.5 -98t-197.5 -199
l-494 -641q-370 -485 -589 -485zM555 1223l489 395h17l139 -395h-39l-157 215l-406 -215h-43z" />
    <glyph glyph-name="Ydieresis" unicode="&#x178;" horiz-adv-x="1595" 
d="M324 0l16 51l123 6q53 5 77.5 18.5t37.5 53.5l176 571l-287 727q-14 39 -29.5 52.5t-60.5 17.5l-88 6l16 49h580l-17 -49l-102 -6q-53 -5 -75 -21t-9 -49l252 -645l649 645q35 35 26.5 50t-57.5 20l-125 6l15 49h497l-16 -49l-90 -6q-46 -4 -75.5 -19t-67.5 -51
l-729 -727l-177 -571q-13 -40 5.5 -55t66.5 -17l123 -6l-16 -51h-639zM1483 1749q-54 0 -92.5 38.5t-38.5 92.5q0 52 39 91.5t92 39.5t92 -39.5t39 -91.5q0 -54 -38.5 -92.5t-92.5 -38.5zM1008 1749q-54 0 -92.5 38.5t-38.5 92.5q0 52 39 91.5t92 39.5t92 -39.5t39 -91.5
q0 -54 -38.5 -92.5t-92.5 -38.5z" />
    <glyph glyph-name="Zacute" unicode="&#x179;" horiz-adv-x="1521" 
d="M-98 0l6 20l1526 1469h-650q-6 0 -11 -0.5t-8.5 -0.5t-7.5 -1t-6.5 -1.5t-6 -3t-5.5 -3t-6 -4.5t-6 -5.5t-7.5 -6.5t-8.5 -7l-381 -362h-37l282 458h1160l-9 -22l-1519 -1467h741q29 0 40 5t34 28l381 363h37l-283 -459h-1255zM1124 1718l301 273h261l-3 -4l-518 -269
h-41z" />
    <glyph glyph-name="zacute" unicode="&#x17a;" horiz-adv-x="1044" 
d="M170 674l139 354h830l-654 -551l123 -274q51 -115 88 -158t84 -43q44 0 71 33.5t31 108.5t-38 196l39 16q69 -207 27.5 -312t-179.5 -105q-104 0 -183 59.5t-157 212.5l-65 129l-193 -162q-39 -33 -42 -72.5t18 -109.5q-59 -29 -111.5 -11.5t-52.5 62.5q0 26 20 54t78 75
l805 680h-545l-92 -182h-41zM748 1223l294 366h228l-6 -14l-473 -352h-43z" />
    <glyph glyph-name="Zdotaccent" unicode="&#x17b;" horiz-adv-x="1521" 
d="M-98 0l6 20l1526 1469h-650q-6 0 -11 -0.5t-8.5 -0.5t-7.5 -1t-6.5 -1.5t-6 -3t-5.5 -3t-6 -4.5t-6 -5.5t-7.5 -6.5t-8.5 -7l-381 -362h-37l282 458h1160l-9 -22l-1519 -1467h741q29 0 40 5t34 28l381 363h37l-283 -459h-1255zM1208 1749q-54 0 -92.5 38.5t-38.5 92.5
q0 52 39 91.5t92 39.5t92 -39.5t39 -91.5q0 -54 -38.5 -92.5t-92.5 -38.5z" />
    <glyph glyph-name="zdotaccent" unicode="&#x17c;" horiz-adv-x="1044" 
d="M170 674l139 354h830l-654 -551l123 -274q51 -115 88 -158t84 -43q44 0 71 33.5t31 108.5t-38 196l39 16q69 -207 27.5 -312t-179.5 -105q-104 0 -183 59.5t-157 212.5l-65 129l-193 -162q-39 -33 -42 -72.5t18 -109.5q-59 -29 -111.5 -11.5t-52.5 62.5q0 26 20 54t78 75
l805 680h-545l-92 -182h-41zM905 1346q-54 0 -92.5 38.5t-38.5 92.5q0 52 39 91.5t92 39.5t92 -39.5t39 -91.5q0 -54 -38.5 -92.5t-92.5 -38.5z" />
    <glyph glyph-name="Zcaron" unicode="&#x17d;" horiz-adv-x="1521" 
d="M-98 0l6 20l1526 1469h-650q-6 0 -11 -0.5t-8.5 -0.5t-7.5 -1t-6.5 -1.5t-6 -3t-5.5 -3t-6 -4.5t-6 -5.5t-7.5 -6.5t-8.5 -7l-381 -362h-37l282 458h1160l-9 -22l-1519 -1467h741q29 0 40 5t34 28l381 363h37l-283 -459h-1255zM1145 1706l-164 305h35l168 -149l381 149
h43l-443 -305h-20z" />
    <glyph glyph-name="zcaron" unicode="&#x17e;" horiz-adv-x="1044" 
d="M170 674l139 354h830l-654 -551l123 -274q51 -115 88 -158t84 -43q44 0 71 33.5t31 108.5t-38 196l39 16q69 -207 27.5 -312t-179.5 -105q-104 0 -183 59.5t-157 212.5l-65 129l-193 -162q-39 -33 -42 -72.5t18 -109.5q-59 -29 -111.5 -11.5t-52.5 62.5q0 26 20 54t78 75
l805 680h-545l-92 -182h-41zM780 1223l-139 395h39l156 -215l407 215h43l-489 -395h-17z" />
    <glyph glyph-name="uni018F" unicode="&#x18f;" horiz-adv-x="1671" 
d="M727 -25q-291 0 -442 169.5t-121 451.5h1249q51 151 51 313q0 135 -39.5 240t-110.5 170.5t-164 99t-204 33.5q-234 0 -410 -136.5t-274 -377.5h-49q48 157 134 281.5t195 204t236.5 121.5t263.5 42q180 0 322 -70t225.5 -208.5t83.5 -325.5q0 -118 -32 -239t-90 -232.5
t-144 -209.5t-188.5 -170.5t-229.5 -114.5t-262 -42zM750 37q199 0 368 131t262 342h-1009q-17 -233 81 -353t298 -120z" />
    <glyph glyph-name="uni0218" unicode="&#x218;" horiz-adv-x="1247" 
d="M414 -25q-102 0 -217.5 30t-202.5 85l119 420h37l40 -360q7 -63 62 -82q89 -29 197 -29q73 0 146 20t135.5 58t102 101t39.5 140q0 83 -34.5 153t-114.5 167l-137 160q-75 88 -112.5 163.5t-37.5 161.5q0 122 79.5 221t203 151t260.5 52q259 0 395 -102l-80 -385h-37
l-75 327q-7 34 -20.5 50t-37.5 24q-59 21 -133 21q-92 0 -172.5 -26t-137 -85t-56.5 -141q0 -53 18 -101t38 -76t62 -79l138 -160q102 -116 149 -197t47 -176q0 -96 -49 -187t-134.5 -162t-211 -114t-268.5 -43zM133 -702l-20 45q272 163 272 286q0 78 -92 101
q-1 49 29 81.5t77 32.5q58 2 98 -35.5t40 -97.5q0 -95 -106.5 -201t-297.5 -212z" />
    <glyph glyph-name="uni0219" unicode="&#x219;" horiz-adv-x="800" 
d="M229 -25q-114 0 -180.5 52t-66.5 127q0 56 50 88t118 26q48 -176 62.5 -208.5t41.5 -32.5q28 0 61.5 10t67 29.5t56 56.5t22.5 84q0 46 -17.5 83.5t-60.5 98.5l-90 121q-86 115 -86 217q0 90 58.5 167.5t151.5 121t195 43.5q92 0 147.5 -41t55.5 -107q0 -57 -41 -90.5
t-119 -29.5q-37 158 -48.5 186.5t-39.5 28.5q-71 0 -142 -43t-71 -109q0 -75 78 -182l90 -121q92 -127 92 -229q0 -77 -36 -143.5t-92.5 -110t-124 -68.5t-132.5 -25zM-121 -702l-20 45q272 163 272 286q0 78 -92 101q-1 49 29 81.5t77 32.5q58 2 98 -35.5t40 -97.5
q0 -95 -106.5 -201t-297.5 -212z" />
    <glyph glyph-name="uni021A" unicode="&#x21a;" horiz-adv-x="1550" 
d="M301 0l16 51l123 6q53 5 78.5 18.5t36.5 53.5l418 1364h-348q-28 0 -39.5 -5.5t-28.5 -27.5l-309 -387h-37l197 479h1374l-96 -479h-37l-54 387q-4 22 -13.5 27.5t-35.5 5.5h-366l-416 -1364q-13 -40 4.5 -53.5t67.5 -18.5l120 -6l-16 -51h-639zM238 -702l-21 45
q272 163 272 286q0 78 -92 101q-1 49 29.5 81.5t77.5 32.5q58 2 97.5 -35.5t39.5 -97.5q0 -95 -106 -201.5t-297 -211.5z" />
    <glyph glyph-name="uni021B" unicode="&#x21b;" horiz-adv-x="772" 
d="M190 -25q-96 0 -117 53t21 150l301 746h-243l41 104h245l92 232h193l-92 -232h293l-41 -104h-295l-295 -736q-21 -52 -27 -81.5t2 -41.5t29 -12q58 0 141 71t158 212l41 -19q-180 -342 -447 -342zM-188 -702l-21 45q272 163 272 286q0 78 -92 101q-1 49 29.5 81.5
t77.5 32.5q58 2 97.5 -35.5t39.5 -97.5q0 -95 -106 -201.5t-297 -211.5z" />
    <glyph glyph-name="uni0232" unicode="&#x232;" horiz-adv-x="1595" 
d="M324 0l16 51l123 6q53 5 77.5 18.5t37.5 53.5l176 571l-287 727q-14 39 -29.5 52.5t-60.5 17.5l-88 6l16 49h580l-17 -49l-102 -6q-53 -5 -75 -21t-9 -49l252 -645l649 645q35 35 26.5 50t-57.5 20l-125 6l15 49h497l-16 -49l-90 -6q-46 -4 -75.5 -19t-67.5 -51
l-729 -727l-177 -571q-13 -40 5.5 -55t66.5 -17l123 -6l-16 -51h-639zM930 1806l31 90h575l-31 -90h-575z" />
    <glyph glyph-name="uni0233" unicode="&#x233;" horiz-adv-x="1177" 
d="M-188 -532q-152 0 -152 110q0 63 61 103q39 -36 77 -52t91 -16q89 0 190.5 72.5t254.5 271.5l-10 979h-181l2 43l371 82l4 -858l369 485q61 82 94 124.5t73.5 93t63 73t49.5 44.5t47.5 29t43.5 7q38 0 63 -25t25 -65q0 -55 -29 -78q-139 -41 -226.5 -98t-197.5 -199
l-494 -641q-370 -485 -589 -485zM651 1368l33 92h580l-31 -92h-582z" />
    <glyph glyph-name="uni0237" unicode="&#x237;" horiz-adv-x="583" 
d="M-449 -532l-16 34q81 52 120.5 78.5t94.5 68.5t84.5 75.5t67 84.5t67 111.5t62.5 142.5l356 881l-186 8l16 43l410 66l-416 -1028q-27 -65 -42.5 -100.5t-38 -77.5t-42 -65.5t-49 -51.5t-64.5 -49.5t-84 -46.5z" />
    <glyph glyph-name="uni0259" unicode="&#x259;" horiz-adv-x="956" 
d="M639 1061q130 0 202 -79t72 -226q0 -95 -31 -193t-84 -183t-124 -160t-148.5 -128t-160.5 -84t-158 -31q-111 0 -164 50t-53 135q0 66 42.5 131.5t117.5 105.5l487 4q65 152 65 312q0 126 -49.5 189t-124.5 63q-179 0 -340 -314l-43 15q99 203 215 298t279 95zM215 23
q107 0 220.5 95.5t185.5 246.5h-111q-175 0 -289.5 -74t-114.5 -176q0 -92 109 -92z" />
    <glyph glyph-name="uni02BB" unicode="&#x2bb;" horiz-adv-x="534" 
d="M727 1622l23 -47q-133 -84 -207 -173.5t-74 -162.5q0 -90 113 -117q-11 -68 -54.5 -102.5t-101.5 -34.5q-59 0 -98 38t-39 103q0 48 26 107t77 125t138 135.5t197 128.5z" />
    <glyph glyph-name="uni02BC" unicode="&#x2bc;" horiz-adv-x="530" 
d="M285 969l-23 47q133 84 207 173.5t74 162.5q0 89 -113 116q11 68 54.5 103t101.5 35q59 0 98 -38t39 -104q0 -48 -26 -107t-77 -124.5t-138 -135t-197 -128.5z" />
    <glyph glyph-name="circumflex" unicode="&#x2c6;" 
d="M-389 1223l489 395h17l139 -395h-39l-158 215l-405 -215h-43z" />
    <glyph glyph-name="caron" unicode="&#x2c7;" 
d="M-117 1223l-139 395h39l156 -215l407 215h43l-489 -395h-17z" />
    <glyph glyph-name="breve" unicode="&#x2d8;" 
d="M-25 1257q-57 0 -105 17t-85.5 55.5t-48 99.5t7.5 150h76q-25 -125 20.5 -185.5t149.5 -60.5q101 0 179.5 59t117.5 187h80q-96 -322 -392 -322z" />
    <glyph glyph-name="dotaccent" unicode="&#x2d9;" 
d="M-131 1346q-54 0 -92.5 38.5t-38.5 92.5q0 52 39 91.5t92 39.5t92 -39.5t39 -91.5q0 -54 -38.5 -92.5t-92.5 -38.5z" />
    <glyph glyph-name="ring" unicode="&#x2da;" 
d="M-236 1198q-97 0 -166 66t-69 161q0 94 69 162t166 68q99 0 169.5 -68t70.5 -162q0 -95 -70 -161t-170 -66zM-236 1272q69 0 112.5 42.5t43.5 110.5t-43.5 111t-112.5 43q-67 0 -110 -43t-43 -111q0 -67 42.5 -110t110.5 -43z" />
    <glyph glyph-name="ogonek" unicode="&#x2db;" 
d="M-72 -477q-78 0 -125 34.5t-47 98.5q0 45 35.5 95.5t95 96.5t117.5 82.5t121 69.5h51q-19 -15 -60.5 -45t-67 -49t-60 -49t-54.5 -53.5t-34.5 -53t-14.5 -57.5q0 -48 31.5 -73.5t91.5 -25.5q59 0 144 33l-11 -45q-42 -26 -100 -42.5t-113 -16.5z" />
    <glyph glyph-name="tilde" unicode="&#x2dc;" 
d="M145 1288q-39 0 -74.5 14.5t-62.5 35t-53 40.5t-57 34.5t-62 14.5q-107 0 -149 -124h-35q24 127 79.5 197.5t139.5 70.5q38 0 72 -14.5t59.5 -35t50 -40.5t56 -34.5t65.5 -14.5q96 0 137 120h33q-55 -264 -199 -264z" />
    <glyph glyph-name="hungarumlaut" unicode="&#x2dd;" 
d="M-82 1223l295 366h229l-6 -14l-475 -352h-43zM-471 1223l293 366h229l-6 -14l-475 -352h-41z" />
    <glyph glyph-name="uni0401" unicode="&#x401;" horiz-adv-x="1538" 
d="M-45 0l14 49l94 6q52 5 78 19.5t37 54.5l397 1294q11 40 -5.5 54.5t-63.5 19.5l-90 6l14 49h1141l-72 -454h-37l-94 356q-6 23 -14 28t-35 5h-518l-197 -641h307q26 0 34.5 4.5t19.5 21.5l155 242h37l-184 -608h-37l-10 239q0 18 -6 22.5t-31 4.5h-307l-215 -706h606
q24 0 34 4.5t31 23.5l400 365h37l-281 -459h-1239zM1425 1749q-54 0 -92.5 38.5t-38.5 92.5q0 52 39 91.5t92 39.5t92 -39.5t39 -91.5q0 -54 -38.5 -92.5t-92.5 -38.5zM950 1749q-54 0 -92.5 38.5t-38.5 92.5q0 52 39 91.5t92 39.5t92 -39.5t39 -91.5q0 -54 -38.5 -92.5
t-92.5 -38.5z" />
    <glyph glyph-name="uni0402" unicode="&#x402;" horiz-adv-x="1806" 
d="M244 0l14 51l125 6q50 2 76 16.5t39 55.5l417 1364h-288q-28 0 -41 -5.5t-29 -27.5l-309 -387h-37l197 479h1296l-84 -438h-37l-76 346q-4 22 -12.5 27.5t-34.5 5.5h-336l-235 -772q88 92 217 148.5t262 56.5q204 0 284.5 -124t12.5 -345l-31 -99q-15 -47 -32.5 -86.5
t-34 -69t-44 -60.5t-47 -51t-60 -50t-66.5 -48.5t-82 -55.5q-45 -31 -295 -177l-19 45q73 48 105.5 70t83.5 58t71.5 54.5t53.5 50t47 54t34.5 57.5t33.5 71t28 83l35 117q58 204 11 296.5t-202 92.5q-125 0 -225.5 -43.5t-163.5 -116.5l-159 -520q-13 -40 3.5 -53.5
t65.5 -18.5l121 -6l-14 -51h-639z" />
    <glyph glyph-name="uni0403" unicode="&#x403;" horiz-adv-x="1359" 
d="M-45 0l14 49l94 6q52 5 78 19.5t37 54.5l395 1294q13 40 -3.5 54.5t-65.5 19.5l-90 6l16 49h1126l-69 -454h-37l-102 356q-6 23 -14 28t-34 5h-499l-416 -1358q-11 -41 6.5 -55.5t67.5 -16.5l174 -4l-17 -53h-661zM987 1718l301 273h260l-2 -4l-518 -269h-41z" />
    <glyph glyph-name="uni0404" unicode="&#x404;" horiz-adv-x="1624" 
d="M786 -25q-101 0 -192 22.5t-170.5 71.5t-137 120t-91 175t-33.5 230q0 194 85.5 377.5t226.5 318t332.5 216t393.5 81.5q134 0 267.5 -29.5t207.5 -74.5l6 -432h-36l-132 305q-34 79 -58.5 105.5t-76.5 41.5q-64 19 -170 19q-286 0 -487 -185.5t-277 -490.5h531
q26 0 34 4t19 22l158 242h37l-187 -608h-37l-6 239q0 18 -6 22.5t-31 4.5h-528q-22 -113 -22 -254q0 -234 100 -355.5t291 -121.5q117 0 180 16q38 8 90 54l444 403h37l-282 -453q-78 -34 -214.5 -60t-265.5 -26z" />
    <glyph glyph-name="uni0405" unicode="&#x405;" horiz-adv-x="1247" 
d="M414 -25q-102 0 -217.5 30t-202.5 85l119 420h37l40 -360q7 -63 62 -82q89 -29 197 -29q73 0 146 20t135.5 58t102 101t39.5 140q0 83 -34.5 153t-114.5 167l-137 160q-75 88 -112.5 163.5t-37.5 161.5q0 122 79.5 221t203 151t260.5 52q259 0 395 -102l-80 -385h-37
l-75 327q-7 34 -20.5 50t-37.5 24q-59 21 -133 21q-92 0 -172.5 -26t-137 -85t-56.5 -141q0 -53 18 -101t38 -76t62 -79l138 -160q102 -116 149 -197t47 -176q0 -96 -49 -187t-134.5 -162t-211 -114t-268.5 -43z" />
    <glyph glyph-name="uni0406" unicode="&#x406;" horiz-adv-x="796" 
d="M-45 0l14 49l94 6q52 5 77 19.5t38 54.5l395 1294q13 40 -4 54.5t-65 19.5l-90 6l16 49h578l-17 -49l-94 -6q-52 -5 -77 -19.5t-38 -54.5l-397 -1294q-13 -40 5 -54.5t67 -19.5l90 -6l-15 -49h-577z" />
    <glyph glyph-name="uni0407" unicode="&#x407;" horiz-adv-x="796" 
d="M-45 0l14 49l94 6q52 5 77 19.5t38 54.5l395 1294q13 40 -4 54.5t-65 19.5l-90 6l16 49h578l-17 -49l-94 -6q-52 -5 -77 -19.5t-38 -54.5l-397 -1294q-13 -40 5 -54.5t67 -19.5l90 -6l-15 -49h-577zM1073 1749q-54 0 -92.5 38.5t-38.5 92.5q0 52 39 91.5t92 39.5
t92 -39.5t39 -91.5q0 -54 -38.5 -92.5t-92.5 -38.5zM598 1749q-54 0 -92.5 38.5t-38.5 92.5q0 52 39 91.5t92 39.5t92 -39.5t39 -91.5q0 -54 -38.5 -92.5t-92.5 -38.5z" />
    <glyph glyph-name="uni0408" unicode="&#x408;" horiz-adv-x="794" 
d="M-184 -236l-27 50q75 47 109 69t85.5 57t72.5 53t53.5 48.5t46.5 52.5t34 56.5t32.5 69.5t27.5 83l344 1124q11 39 -5.5 51.5t-64.5 14.5l-102 4l18 55h592l-16 -55l-105 -4q-51 -2 -74 -14.5t-34 -51.5l-330 -1069q-49 -165 -112 -244t-228 -182q-71 -43 -317 -168z" />
    <glyph glyph-name="uni0409" unicode="&#x409;" horiz-adv-x="2230" 
d="M250 129q-69 -83 -123.5 -118.5t-103.5 -35.5q-34 0 -53 18t-19 48q0 75 82.5 134.5t218.5 82.5q156 206 271.5 475t242.5 690q13 40 -4 54.5t-66 19.5l-90 6l15 49h1226l-16 -49l-135 -6q-50 -2 -77 -17.5t-40 -56.5l-158 -518h183q606 0 606 -364q0 -114 -60 -214
t-166.5 -172t-262.5 -113.5t-339 -41.5h-628l14 49l94 6q52 5 77 19.5t38 54.5l416 1360h-527q-152 -504 -290.5 -818.5t-325.5 -541.5zM1163 63h185q288 0 458 130.5t170 347.5q0 157 -101 229t-308 72h-164z" />
    <glyph glyph-name="uni040A" unicode="&#x40a;" horiz-adv-x="2390" 
d="M-45 0l14 49l94 6q52 5 77 19.5t38 54.5l395 1294q13 40 -4 54.5t-65 19.5l-90 6l16 49h578l-17 -49l-94 -6q-52 -5 -77 -19.5t-38 -54.5l-166 -546h748l168 546q13 40 -4 54.5t-66 19.5l-90 6l17 49h618l-16 -49l-136 -6q-50 -2 -77.5 -17.5t-38.5 -56.5l-166 -546h182
q309 0 462 -79t153 -257q0 -114 -60 -214t-166.5 -172t-262.5 -113.5t-339 -41.5h-629l15 49l94 6q52 5 78 19.5t37 54.5l202 666h-749l-205 -666q-13 -40 5 -54.5t67 -19.5l90 -6l-15 -49h-577zM1323 63h184q288 0 458.5 130.5t170.5 347.5q0 153 -102 212.5t-316 59.5
h-164z" />
    <glyph glyph-name="uni040B" unicode="&#x40b;" horiz-adv-x="1904" 
d="M244 0l14 51l125 6q50 2 76 16.5t39 55.5l417 1364h-288q-28 0 -41 -5.5t-29 -27.5l-309 -387h-37l197 479h1296l-84 -438h-37l-76 346q-4 22 -12.5 27.5t-34.5 5.5h-336l-235 -768q89 90 220.5 145.5t270.5 55.5q200 0 274.5 -121t6.5 -342l-102 -334q-14 -44 -4.5 -56
t63.5 -16l68 -6l-17 -51h-356l139 453q54 183 3 269.5t-206 86.5q-230 0 -383 -156l-159 -524q-13 -40 3.5 -53.5t65.5 -18.5l121 -6l-14 -51h-639z" />
    <glyph glyph-name="uni040C" unicode="&#x40c;" horiz-adv-x="1695" 
d="M-45 0l14 49l94 6q52 5 77 19.5t38 54.5l395 1294q13 40 -4 54.5t-65 19.5l-90 6l16 49h578l-17 -49l-94 -6q-52 -5 -77 -19.5t-38 -54.5l-196 -643l1003 668q56 40 -39 49l-129 6l17 49h553l-15 -49l-108 -6q-61 -4 -98 -16.5t-80 -42.5l-895 -594l755 -844h-260
l-708 770l-197 -641q-13 -40 5 -54.5t67 -19.5l90 -6l-15 -49h-577zM1192 1718l301 273h260l-2 -4l-518 -269h-41z" />
    <glyph glyph-name="uni040E" unicode="&#x40e;" horiz-adv-x="1542" 
d="M1655 1427l-1061 -1286q-77 -91 -130.5 -128.5t-101.5 -37.5q-43 0 -61.5 25t-7.5 66q24 69 98 116.5t217 77.5l115 137l-256 1030q-11 39 -26 52.5t-58 17.5l-88 6l14 49h598l-14 -49l-105 -6q-53 -5 -75.5 -20.5t-12.5 -49.5l201 -813l672 813q19 24 18.5 38.5
t-16.5 21.5t-49 10l-101 6l15 49h446l-14 -49l-92 -6q-44 -5 -70 -19t-55 -51zM1227 1698q-86 0 -148 25.5t-93 69t-44 101.5t0 123h150q-10 -78 -7 -128t24.5 -79.5t50 -41t69.5 -11.5q89 0 142.5 56t76.5 204h149q-25 -145 -127 -232t-243 -87z" />
    <glyph glyph-name="uni040F" unicode="&#x40f;" horiz-adv-x="1800" 
d="M629 -326l10 301q0 25 -45 25h-639l14 49l94 6q50 5 76 19.5t39 54.5l395 1294q13 40 -4 54.5t-65 19.5l-90 6l14 49h578l-15 -49l-94 -6q-52 -5 -77 -19.5t-38 -54.5l-415 -1360h796l416 1360q13 40 -5 54.5t-67 19.5l-90 6l15 49h577l-14 -49l-94 -6q-52 -5 -77 -19.5
t-38 -54.5l-395 -1294q-13 -40 3.5 -54.5t65.5 -19.5l90 -6l-14 -49h-639q-45 0 -61 -25l-172 -301h-35z" />
    <glyph glyph-name="uni0410" unicode="&#x410;" horiz-adv-x="1671" 
d="M-289 0l17 49l90 6q105 10 168 70l1622 1477h37l-365 -1473q-10 -40 6 -54.5t64 -19.5l90 -6l-15 -49h-577l14 49l94 6q53 5 79 19.5t36 54.5l113 442h-600l-488 -446q-19 -17 -28 -28t-10 -20.5t10.5 -14.5t35.5 -7l123 -6l-16 -49h-500zM674 653h530l162 633z" />
    <glyph glyph-name="uni0411" unicode="&#x411;" horiz-adv-x="1542" 
d="M178 129l395 1294q13 40 -3.5 54.5t-65.5 19.5l-90 6l16 49h1116l-69 -454h-37l-103 356q-6 23 -14 28t-33 5h-489l-185 -602h183q612 0 612 -355q0 -150 -102 -270.5t-291.5 -190t-433.5 -69.5h-629l14 49l94 6q52 5 78 19.5t37 54.5zM365 63h184q289 0 459 126.5
t170 340.5q0 152 -103 221.5t-313 69.5h-164z" />
    <glyph glyph-name="uni0412" unicode="&#x412;" horiz-adv-x="1529" 
d="M-45 0l14 49l94 6q52 5 77 19.5t38 54.5l395 1294q13 40 -4 54.5t-65 19.5l-90 6l16 49h571q270 0 406.5 -63.5t136.5 -210.5q-2 -80 -41.5 -155t-110 -136t-177 -102.5t-234.5 -53.5v-2q95 -4 174.5 -24t142.5 -56.5t98.5 -95t35.5 -133.5q0 -97 -52 -188t-150.5 -166
t-258.5 -120.5t-357 -45.5h-659zM608 852h242q93 0 172.5 27.5t133.5 72t92.5 101t56.5 114.5t18 113q0 112 -79.5 160.5t-239.5 48.5h-203zM365 63h239q126 0 229 29t170 76.5t112.5 111t65 129.5t19.5 134q0 129 -93 187t-271 58h-248z" />
    <glyph glyph-name="uni0413" unicode="&#x413;" horiz-adv-x="1359" 
d="M-45 0l14 49l94 6q52 5 78 19.5t37 54.5l395 1294q13 40 -3.5 54.5t-65.5 19.5l-90 6l16 49h1126l-69 -454h-37l-102 356q-6 23 -14 28t-34 5h-499l-416 -1358q-11 -41 6.5 -55.5t67.5 -16.5l174 -4l-17 -53h-661z" />
    <glyph glyph-name="uni0414" unicode="&#x414;" horiz-adv-x="1640" 
d="M135 -25l-266 -301h-35l135 389h168q325 446 604 1360q13 40 -4 54.5t-65 19.5l-90 6l14 49h1249l-14 -49l-94 -6q-52 -5 -77 -19.5t-38 -54.5l-416 -1360h213l-102 -389h-35l-61 301q-5 14 -14 19.5t-31 5.5h-979q-40 0 -62 -25zM999 63l437 1426h-594
q-314 -1005 -615 -1426h772z" />
    <glyph glyph-name="uni0415" unicode="&#x415;" horiz-adv-x="1538" 
d="M-45 0l14 49l94 6q52 5 78 19.5t37 54.5l397 1294q11 40 -5.5 54.5t-63.5 19.5l-90 6l14 49h1141l-72 -454h-37l-94 356q-6 23 -14 28t-35 5h-518l-197 -641h307q26 0 34.5 4.5t19.5 21.5l155 242h37l-184 -608h-37l-10 239q0 18 -6 22.5t-31 4.5h-307l-215 -706h606
q24 0 34 4.5t31 23.5l400 365h37l-281 -459h-1239z" />
    <glyph glyph-name="uni0416" unicode="&#x416;" horiz-adv-x="2369" 
d="M168 0h-311l1144 874l-403 564q-24 33 -48 44t-85 15l-105 6l17 49h541l-17 -49l-133 -6q-49 -3 -66 -15t-2 -34l480 -670l196 645q13 40 -3.5 54.5t-65.5 19.5l-90 6l16 49h577l-16 -49l-94 -6q-52 -5 -78 -19.5t-39 -54.5l-197 -647l76 58l90 71l2 -2l721 545
q44 34 -8 45q-12 2 -31 4l-129 6l17 49h540l-16 -49l-108 -6q-64 -5 -100.5 -16.5t-76.5 -42.5l-776 -584l598 -854h-260l-541 774l-196 -645q-11 -40 6 -54.5t66 -19.5l90 -6l-15 -49h-577l14 49l94 6q52 5 78 19.5t37 54.5l197 641z" />
    <glyph glyph-name="uni0417" unicode="&#x417;" horiz-adv-x="1460" 
d="M547 41q134 0 243 37t177.5 100.5t105.5 145t37 172.5q0 134 -83.5 213t-244.5 79h-178l21 64h170q106 0 194.5 33.5t145 90t87.5 128t31 149.5q0 120 -67.5 193.5t-196.5 73.5q-71 0 -131 -11q-38 -8 -60 -20.5t-55 -48.5l-299 -326h-36l188 418q154 55 418 55
q220 0 340.5 -94t120.5 -231q0 -73 -36.5 -144t-105 -132t-179.5 -105t-247 -58v-4q208 0 321 -91.5t113 -235.5q0 -73 -29 -145t-93 -139.5t-154.5 -119t-224 -82.5t-291.5 -31q-236 0 -385 54l63 485h37l78 -379q9 -52 57 -74q47 -20 148 -20z" />
    <glyph glyph-name="uni0418" unicode="&#x418;" horiz-adv-x="1839" 
d="M-45 0l14 49l94 6q52 5 78 19.5t37 54.5l395 1294q13 40 -3.5 54.5t-65.5 19.5l-90 6l16 49h578l-17 -49l-94 -6q-52 -5 -78 -19.5t-39 -54.5l-327 -1073l1144 1018l17 55q13 40 -4 54.5t-66 19.5l-90 6l16 49h578l-16 -49l-95 -6q-50 -5 -75.5 -19.5t-38.5 -54.5
l-396 -1294q-11 -40 6 -54.5t64 -19.5l90 -6l-14 -49h-578l15 49l94 6q52 5 78 19.5t37 54.5l340 1108l-1145 -1018l-29 -90q-11 -40 6 -54.5t66 -19.5l90 -6l-15 -49h-577z" />
    <glyph glyph-name="uni0419" unicode="&#x419;" horiz-adv-x="1839" 
d="M-45 0l14 49l94 6q52 5 78 19.5t37 54.5l395 1294q13 40 -3.5 54.5t-65.5 19.5l-90 6l16 49h578l-17 -49l-94 -6q-52 -5 -78 -19.5t-39 -54.5l-327 -1073l1144 1018l17 55q13 40 -4 54.5t-66 19.5l-90 6l16 49h578l-16 -49l-95 -6q-50 -5 -75.5 -19.5t-38.5 -54.5
l-396 -1294q-11 -40 6 -54.5t64 -19.5l90 -6l-14 -49h-578l15 49l94 6q52 5 78 19.5t37 54.5l340 1108l-1145 -1018l-29 -90q-11 -40 6 -54.5t66 -19.5l90 -6l-15 -49h-577zM1280 1698q-86 0 -148 25.5t-93 69t-44 101.5t0 123h150q-10 -78 -7 -128t24.5 -79.5t50 -41
t69.5 -11.5q89 0 142.5 56t76.5 204h150q-25 -145 -127.5 -232t-243.5 -87z" />
    <glyph glyph-name="uni041A" unicode="&#x41a;" horiz-adv-x="1695" 
d="M-45 0l14 49l94 6q52 5 77 19.5t38 54.5l395 1294q13 40 -4 54.5t-65 19.5l-90 6l16 49h578l-17 -49l-94 -6q-52 -5 -77 -19.5t-38 -54.5l-196 -643l1003 668q56 40 -39 49l-129 6l17 49h553l-15 -49l-108 -6q-61 -4 -98 -16.5t-80 -42.5l-895 -594l755 -844h-260
l-708 770l-197 -641q-13 -40 5 -54.5t67 -19.5l90 -6l-15 -49h-577z" />
    <glyph glyph-name="uni041B" unicode="&#x41b;" horiz-adv-x="1642" 
d="M250 129q-69 -83 -123.5 -118.5t-103.5 -35.5q-34 0 -53 18t-19 48q0 75 82.5 134.5t218.5 82.5q156 206 271.5 475t242.5 690q13 40 -4 54.5t-66 19.5l-90 6l15 49h1230l-14 -49l-94 -6q-50 -5 -76 -19.5t-39 -54.5l-395 -1294q-13 -40 4.5 -54.5t65.5 -19.5l90 -6
l-15 -49h-577l14 49l94 6q52 5 77 19.5t38 54.5l416 1360h-574q-152 -504 -290.5 -818.5t-325.5 -541.5z" />
    <glyph glyph-name="uni041C" unicode="&#x41c;" horiz-adv-x="2113" 
d="M-45 0l14 49l94 6q52 5 77 19.5t38 54.5l395 1294q13 40 -4 54.5t-65 19.5l-90 6l16 49h428l211 -999l817 999h436l-16 -49l-94 -6q-52 -5 -77 -19.5t-38 -54.5l-397 -1294q-13 -40 5 -54.5t67 -19.5l90 -6l-15 -49h-577l14 49l94 6q52 5 77 19.5t38 54.5l408 1337
l-977 -1204h-13l-245 1202l-408 -1335q-13 -40 4.5 -54.5t65.5 -19.5l90 -6l-15 -49h-448z" />
    <glyph glyph-name="uni041D" unicode="&#x41d;" horiz-adv-x="1839" 
d="M-45 0l14 49l94 6q52 5 77 19.5t38 54.5l395 1294q13 40 -4 54.5t-65 19.5l-90 6l16 49h578l-17 -49l-94 -6q-52 -5 -78 -19.5t-37 -54.5l-172 -567h832l174 567q13 40 -5 54.5t-67 19.5l-88 6l14 49h578l-14 -49l-95 -6q-52 -5 -77.5 -19.5t-38.5 -54.5l-396 -1294
q-13 -40 4.5 -54.5t65.5 -19.5l90 -6l-14 -49h-578l15 49l94 6q52 5 77 19.5t38 54.5l198 645h-833l-199 -645q-13 -40 5 -54.5t67 -19.5l90 -6l-15 -49h-577z" />
    <glyph glyph-name="uni041E" unicode="&#x41e;" horiz-adv-x="1804" 
d="M760 -25q-170 0 -307 67t-220 201t-83 314q0 115 36 236.5t100.5 235.5t161 216t211 177.5t257.5 120t294 44.5q127 0 237.5 -39t194 -111.5t131.5 -183.5t48 -247q0 -115 -36 -236.5t-100.5 -235.5t-161 -216t-211 -178t-258 -120.5t-294.5 -44.5zM797 35
q155 0 299.5 80.5t250 213.5t169 312.5t63.5 368.5q0 237 -106.5 376.5t-298.5 139.5q-155 0 -300 -80.5t-250.5 -213t-169 -311.5t-63.5 -368q0 -238 107 -378t299 -140z" />
    <glyph glyph-name="uni041F" unicode="&#x41f;" horiz-adv-x="1802" 
d="M430 1552h1581l-16 -49l-94 -6q-50 -5 -76 -19.5t-39 -54.5l-395 -1294q-11 -40 5.5 -54.5t63.5 -19.5l90 -6l-14 -49h-578l15 49l94 6q52 5 78 19.5t37 54.5l415 1360h-796l-416 -1360q-11 -40 6 -54.5t66 -19.5l90 -6l-15 -49h-577l14 49l94 6q52 5 78 19.5t37 54.5
l395 1294q13 40 -3.5 54.5t-65.5 19.5l-90 6z" />
    <glyph glyph-name="uni0420" unicode="&#x420;" horiz-adv-x="1484" 
d="M-45 0l14 49l94 6q52 5 77 19.5t38 54.5l395 1294q13 40 -4 54.5t-65 19.5l-90 6l16 49h633q99 0 180.5 -9t154.5 -31t122.5 -56.5t78.5 -88.5t29 -124q0 -111 -52.5 -206t-152 -166.5t-254.5 -112.5t-348 -41h-203l19 65h192q139 0 249.5 38.5t179 104.5t104 148.5
t35.5 175.5q0 240 -353 240h-243l-416 -1360q-13 -40 5.5 -55t66.5 -17l176 -6l-17 -51h-661z" />
    <glyph glyph-name="uni0421" unicode="&#x421;" horiz-adv-x="1624" 
d="M786 -25q-101 0 -192 22.5t-170.5 71.5t-137 120t-91 175t-33.5 230q0 194 85.5 377.5t226.5 318t332.5 216t393.5 81.5q134 0 267.5 -29.5t207.5 -74.5l6 -432h-36l-132 305q-34 79 -58.5 105.5t-76.5 41.5q-64 19 -170 19q-182 0 -334.5 -79t-254 -215t-157.5 -319
t-56 -391q0 -234 100 -355.5t291 -121.5q117 0 180 16q38 8 90 54l444 403h37l-282 -453q-78 -34 -214.5 -60t-265.5 -26z" />
    <glyph glyph-name="uni0422" unicode="&#x422;" horiz-adv-x="1550" 
d="M301 0l16 51l123 6q53 5 78.5 18.5t36.5 53.5l418 1364h-348q-28 0 -39.5 -5.5t-28.5 -27.5l-309 -387h-37l197 479h1374l-96 -479h-37l-54 387q-4 22 -13.5 27.5t-35.5 5.5h-366l-416 -1364q-13 -40 4.5 -53.5t67.5 -18.5l120 -6l-16 -51h-639z" />
    <glyph glyph-name="uni0423" unicode="&#x423;" horiz-adv-x="1542" 
d="M1655 1427l-1061 -1286q-77 -91 -130.5 -128.5t-101.5 -37.5q-43 0 -61.5 25t-7.5 66q24 69 98 116.5t217 77.5l115 137l-256 1030q-11 39 -26 52.5t-58 17.5l-88 6l14 49h598l-14 -49l-105 -6q-53 -5 -75.5 -20.5t-12.5 -49.5l201 -813l672 813q19 24 18.5 38.5
t-16.5 21.5t-49 10l-101 6l15 49h446l-14 -49l-92 -6q-44 -5 -70 -19t-55 -51z" />
    <glyph glyph-name="uni0424" unicode="&#x424;" horiz-adv-x="1941" 
d="M512 -41l14 49l95 6q52 5 77.5 19.5t36.5 54.5l29 96q-301 17 -469 142t-168 338q0 145 68 271t194 221.5t316.5 154.5t424.5 69l27 84q11 40 -6 54.5t-64 19.5l-90 6l15 49h577l-14 -49l-94 -6q-53 -5 -79.5 -19.5t-37.5 -54.5l-27 -84q303 -19 471.5 -143t169.5 -338
q0 -144 -69 -270.5t-195.5 -222t-318 -155t-424.5 -69.5l-29 -94q-11 -40 6 -54.5t66 -19.5l90 -6l-14 -49h-578zM356 655q0 -366 428 -405l326 1063q-179 -12 -323.5 -68t-238 -144.5t-143 -202t-49.5 -243.5zM1749 907q-3 367 -432 406l-326 -1063q180 12 324.5 67
t238.5 142.5t144.5 201.5t50.5 246z" />
    <glyph glyph-name="uni0425" unicode="&#x425;" horiz-adv-x="1728" 
d="M-215 0l22 49l89 6q96 6 172 70l817 659l-189 643q-10 35 -30.5 50t-61.5 20l-86 6l23 49h575l-22 -49l-105 -8q-52 -5 -71 -19.5t-9 -48.5l148 -505l629 505q28 22 37 35.5t-0.5 21.5t-41.5 11l-98 8l23 49h479l-23 -49l-88 -6q-94 -6 -170 -70l-725 -583l211 -719
q10 -35 30.5 -50t63.5 -20l84 -6l-22 -49h-576l23 49l104 8q53 5 72.5 19.5t9.5 48.5l-170 582l-723 -582q-29 -25 -38 -37.5t-0.5 -20t40.5 -10.5l101 -8l-23 -49h-481z" />
    <glyph glyph-name="uni0426" unicode="&#x426;" horiz-adv-x="1804" 
d="M1339 0h-1384l14 49l94 6q50 5 76 19.5t39 54.5l395 1294q13 40 -4 54.5t-65 19.5l-90 6l14 49h578l-15 -49l-94 -6q-52 -5 -77 -19.5t-38 -54.5l-415 -1360h796l416 1360q13 40 -5 54.5t-67 19.5l-90 6l15 49h577l-14 -49l-94 -6q-52 -5 -77 -19.5t-38 -54.5l-416 -1360
h213l-102 -389h-35l-62 301q-5 14 -14 19.5t-31 5.5z" />
    <glyph glyph-name="uni0427" unicode="&#x427;" horiz-adv-x="1761" 
d="M463 1184l74 239q13 40 -4 54.5t-66 19.5l-90 6l16 49h578l-17 -49l-94 -6q-52 -5 -78 -19.5t-39 -54.5l-77 -252q-30 -100 -35 -175.5t13 -127.5t61.5 -84t105 -46.5t147.5 -14.5q210 0 381 51l197 649q13 40 -4 54.5t-66 19.5l-90 6l17 49h577l-16 -49l-94 -6
q-50 -5 -76 -19.5t-39 -54.5l-395 -1294q-11 -40 5.5 -54.5t63.5 -19.5l90 -6l-14 -49h-577l14 49l94 6q52 5 78 19.5t37 54.5l176 576q-195 -58 -377 -58q-97 0 -173.5 9.5t-144.5 32.5t-111 63.5t-67 98.5t-19.5 142t38.5 191z" />
    <glyph glyph-name="uni0428" unicode="&#x428;" horiz-adv-x="2416" 
d="M2150 0h-2195l14 49l94 6q52 5 78 19.5t37 54.5l395 1294q13 40 -3.5 54.5t-65.5 19.5l-90 6l16 49h578l-17 -49l-94 -6q-50 -5 -76 -19.5t-39 -54.5l-415 -1360h604l413 1360q13 40 -3.5 54.5t-67.5 19.5l-90 6l16 49h578l-17 -49l-94 -6q-50 -5 -76 -19.5t-39 -54.5
l-413 -1360h600l415 1360q13 40 -3.5 54.5t-67.5 19.5l-90 6l16 49h578l-17 -49l-94 -6q-50 -5 -76 -19.5t-39 -54.5l-395 -1294q-11 -40 6 -54.5t64 -19.5l90 -6z" />
    <glyph glyph-name="uni0429" unicode="&#x429;" horiz-adv-x="2418" 
d="M1954 0h-1999l14 49l94 6q50 5 76 19.5t39 54.5l395 1294q13 40 -4 54.5t-65 19.5l-90 6l14 49h578l-15 -49l-94 -6q-52 -5 -77 -19.5t-38 -54.5l-415 -1360h602l415 1360q13 40 -4.5 54.5t-66.5 19.5l-90 6l14 49h578l-15 -49l-94 -6q-52 -5 -77 -19.5t-38 -54.5
l-415 -1360h602l415 1360q13 40 -4.5 54.5t-66.5 19.5l-90 6l14 49h577l-14 -49l-94 -6q-52 -5 -77 -19.5t-38 -54.5l-415 -1360h213l-103 -389h-35l-61 301q-5 14 -14 19.5t-31 5.5z" />
    <glyph glyph-name="uni042A" unicode="&#x42a;" horiz-adv-x="1687" 
d="M879 905h182q606 0 606 -364q0 -153 -102 -276t-291.5 -194t-433.5 -71h-629l14 49l94 6q52 5 77 19.5t38 54.5l416 1364h-201q-28 0 -40.5 -5.5t-28.5 -27.5l-320 -387h-37l197 479h885l-17 -49l-135 -6q-50 -2 -77 -17.5t-40 -56.5zM621 63h184q288 0 458.5 130.5
t170.5 347.5q0 157 -101 229t-309 72h-164z" />
    <glyph glyph-name="uni042B" unicode="&#x42b;" horiz-adv-x="2181" 
d="M623 905h182q606 0 606 -364q0 -153 -102 -276t-291.5 -194t-433.5 -71h-629l14 49l94 6q52 5 78 19.5t37 54.5l395 1294q13 40 -3.5 54.5t-65.5 19.5l-90 6l16 49h619l-17 -49l-135 -6q-50 -2 -77 -17.5t-40 -56.5zM365 63h184q288 0 458.5 130.5t170.5 347.5
q0 157 -101 229t-309 72h-164zM1337 0l15 49l94 6q52 5 77 19.5t38 54.5l395 1294q13 40 -4.5 54.5t-65.5 19.5l-90 6l16 49h578l-16 -49l-95 -6q-51 -5 -76 -19.5t-38 -54.5l-398 -1294q-13 -40 5 -54.5t67 -19.5l90 -6l-14 -49h-578z" />
    <glyph glyph-name="uni042C" unicode="&#x42c;" horiz-adv-x="1431" 
d="M623 905h182q606 0 606 -364q0 -153 -102 -276t-291.5 -194t-433.5 -71h-629l14 49l94 6q52 5 78 19.5t37 54.5l395 1294q13 40 -3.5 54.5t-65.5 19.5l-90 6l16 49h619l-17 -49l-135 -6q-50 -2 -77 -17.5t-40 -56.5zM365 63h184q288 0 458.5 130.5t170.5 347.5
q0 157 -101 229t-309 72h-164z" />
    <glyph glyph-name="uni042D" unicode="&#x42d;" horiz-adv-x="1667" 
d="M1051 1587q103 0 195.5 -22.5t173 -71t138.5 -120t91.5 -175t33.5 -229.5q0 -194 -85.5 -377.5t-226.5 -318.5t-332.5 -216.5t-393.5 -81.5q-299 0 -461 54l62 483h37l63 -305q16 -76 45 -103.5t90 -44.5q60 -18 156 -18q151 0 281 53.5t227 150t165 227.5t101 288h-543
q-25 0 -33.5 -4.5t-19.5 -22.5l-156 -239h-36l186 608h37l8 -242q0 -18 5.5 -22t31.5 -4h532q17 116 17 210q0 234 -100 356t-291 122q-139 0 -203 -21q-61 -20 -92 -51l-338 -340h-37l192 416q75 28 210 44.5t270 16.5z" />
    <glyph glyph-name="uni042E" unicode="&#x42e;" horiz-adv-x="2439" 
d="M-45 0l14 49l94 6q52 5 77 19.5t38 54.5l395 1294q13 40 -4 54.5t-65 19.5l-90 6l16 49h578l-17 -49l-94 -6q-52 -5 -78 -19.5t-37 -54.5l-172 -567h271q42 115 108.5 221t159 199t201 162t242 109t274.5 40q121 0 228 -39t187.5 -111.5t127.5 -183.5t47 -247
q0 -115 -35 -236.5t-98.5 -235.5t-158.5 -216t-207.5 -178t-253 -120.5t-288.5 -44.5q-163 0 -295.5 67t-213.5 201t-81 314q0 95 29 217h-270l-199 -645q-13 -40 5 -54.5t67 -19.5l90 -6l-15 -49h-577zM1452 35q121 0 236.5 51.5t209.5 144t165.5 213.5t111 268t39.5 298
q0 237 -101.5 376.5t-283.5 139.5q-150 0 -291.5 -80.5t-244 -213t-164.5 -311.5t-62 -368q0 -238 101.5 -378t283.5 -140z" />
    <glyph glyph-name="uni042F" unicode="&#x42f;" horiz-adv-x="1593" 
d="M158 0h-260l854 725q-168 25 -258.5 111.5t-90.5 226.5q0 222 214.5 355.5t576.5 133.5h608l-16 -49l-94 -6q-50 -5 -76 -19.5t-39 -54.5l-395 -1294q-11 -40 5.5 -54.5t63.5 -19.5l90 -6l-14 -49h-577l14 49l94 6q53 5 79.5 19.5t37.5 54.5l176 571h-170zM1169 764
l222 725h-172q-276 0 -432 -116.5t-156 -309.5q0 -299 368 -299h170z" />
    <glyph glyph-name="uni0430" unicode="&#x430;" horiz-adv-x="1161" 
d="M211 -25q-91 0 -141 57.5t-50 157.5q0 108 44.5 232t120 235t167 203t194 146.5t191.5 54.5q68 0 104.5 -42t41.5 -104h2l49 136h180l-317 -865q-19 -51 -23.5 -80.5t3.5 -41t28 -11.5q55 0 132.5 70t156.5 213l41 -19q-89 -170 -195 -256t-242 -86q-39 0 -63 9.5
t-34.5 26t-10 44t8.5 57.5t24 72l73 195h-4q-126 -203 -243.5 -303.5t-237.5 -100.5zM313 80q69 0 160.5 84t175 216t137.5 275q66 189 51 274t-100 85t-179 -83.5t-165 -204.5t-117.5 -262t-46.5 -251q0 -64 21.5 -98.5t62.5 -34.5z" />
    <glyph glyph-name="uni0431" unicode="&#x431;" horiz-adv-x="1114" 
d="M1057 721q0 -96 -30 -199.5t-89 -200.5t-138 -174.5t-187 -124.5t-226 -47q-332 0 -332 385q0 119 34.5 250t96 258t153.5 244.5t201 209.5t244.5 153t278.5 75q112 11 180.5 45.5t93.5 102.5h49q-24 -80 -54 -135.5t-77 -101.5t-117 -70.5t-165 -30.5
q-105 -8 -162.5 -3.5t-96.5 1.5t-71 -23q-64 -40 -135.5 -173t-132.5 -314q70 96 168.5 154.5t210.5 58.5q148 0 225.5 -95.5t77.5 -244.5zM408 33q93 0 175.5 61t137 155.5t86 205.5t31.5 213q0 128 -50 208t-149 80q-143 0 -287 -180q-82 -274 -82 -481q0 -132 37 -197
t101 -65z" />
    <glyph glyph-name="uni0432" unicode="&#x432;" horiz-adv-x="985" 
d="M858 328q0 -111 -64.5 -193t-166 -121t-224.5 -39q-176 0 -261 86.5t-85 239.5q0 99 37 207t104.5 205t153 175t191.5 124.5t211 46.5q129 0 190.5 -50t61.5 -135q0 -103 -116 -186t-333 -137q153 -4 227 -65t74 -158zM686 995q-90 0 -173 -68t-139 -174t-83 -231l117 35
q194 58 291.5 130t97.5 181q0 60 -28.5 93.5t-82.5 33.5zM268 322q0 -155 38.5 -224t125.5 -69q98 0 156.5 75t58.5 175q0 78 -25.5 131.5t-68.5 76t-99 26.5t-118 -17l-53 -15q-15 -103 -15 -159z" />
    <glyph glyph-name="uni0433" unicode="&#x433;" horiz-adv-x="1021" 
d="M442 -25q-149 0 -242.5 59t-93.5 169q0 46 10.5 84.5t25.5 67t44.5 54.5t55 43.5t70 37t76 31.5t85.5 30l49 16q130 44 195 108t65 171q0 79 -35 120.5t-94 41.5q-35 0 -69 -9q-31 -8 -64 -41l-239 -274h-37l125 330q122 45 301 45q133 0 210.5 -62t77.5 -168
q0 -76 -26 -134t-80 -101t-113 -72t-149 -61l-51 -19q-131 -45 -192.5 -101t-61.5 -155q0 -83 44 -122t120 -39q61 0 88 10q15 5 23 9t23 18t33 38l222 291h36l-126 -377q-123 -39 -306 -39z" />
    <glyph glyph-name="uni0434" unicode="&#x434;" horiz-adv-x="1110" 
d="M371 -25q-154 0 -234 84.5t-80 225.5q0 139 61.5 281t158 249.5t224 175.5t251.5 68q57 0 112 -19q0 18 1 52.5t1 52.5q0 92 -11 165.5t-35 130.5t-65 88.5t-96 31.5q-61 0 -104 -19.5t-86 -62.5l-33 37q93 106 238 106q96 0 170.5 -47t120.5 -129.5t69 -188t23 -227.5
q0 -146 -27.5 -294t-85 -285t-137.5 -243t-193 -169.5t-243 -63.5zM272 254q0 -225 123 -225q83 0 162.5 82t139.5 214.5t102.5 298.5t58.5 337q-33 45 -113 45q-104 0 -194.5 -65.5t-150.5 -171.5t-94 -240.5t-34 -274.5z" />
    <glyph glyph-name="uni0435" unicode="&#x435;" horiz-adv-x="952" 
d="M324 -25q-130 0 -202.5 79.5t-72.5 226.5q0 141 68 285.5t171 251t229 174t239 67.5q111 0 164 -50t53 -135q0 -66 -42.5 -131.5t-117.5 -105.5l-487 -4q-66 -155 -66 -311q0 -126 49.5 -189t124.5 -63q180 0 340 313l43 -14q-100 -204 -215 -299t-278 -95zM748 1014
q-107 0 -220.5 -95.5t-185.5 -246.5h111q174 0 288.5 74t114.5 176q0 92 -108 92z" />
    <glyph glyph-name="uni0436" unicode="&#x436;" horiz-adv-x="1865" 
d="M846 18l-217 -41l200 523l-202 -27q-53 -130 -131 -241t-179 -185t-198 -74q-68 0 -108 41t-40 105q0 91 51.5 136.5t139.5 31.5q-40 -135 -40 -201t48 -66q51 0 111 68t108.5 170t81.5 229.5t33 237.5q0 113 -20.5 173t-71.5 60q-61 0 -118 -72.5t-124 -228.5l-43 17
q156 385 381 385q88 0 141 -71t53 -202q0 -116 -53 -258l201 27l176 457l211 45l-178 -473l209 26q42 89 95.5 167.5t116 142.5t133.5 101.5t140 37.5q68 0 108 -41t40 -105q0 -91 -51.5 -136.5t-139.5 -31.5q40 135 40 201t-48 66q-51 0 -111 -68t-108.5 -170t-81.5 -229.5
t-33 -237.5q0 -113 20.5 -173t71.5 -60q61 0 118 72.5t124 228.5l43 -17q-156 -385 -381 -385q-89 0 -142 71.5t-53 201.5q0 140 72 307l-205 -27z" />
    <glyph glyph-name="uni0437" unicode="&#x437;" horiz-adv-x="954" 
d="M356 -25q-303 0 -303 197q0 74 52 114t141 27q-54 -135 -20.5 -212.5t143.5 -77.5q98 0 162.5 71.5t64.5 196.5q0 134 -64 180.5t-180 15.5l-30 -8l14 43l88 27q145 43 222 124t77 181q0 90 -92 90q-98 0 -197.5 -57.5t-185.5 -179.5l-41 20q206 332 512 332
q110 0 162.5 -47.5t52.5 -130.5q0 -106 -106.5 -194t-288.5 -144q134 -4 201 -60t67 -155q0 -71 -25.5 -130.5t-69 -100t-101.5 -68.5t-122.5 -41t-132.5 -13z" />
    <glyph glyph-name="uni0438" unicode="&#x438;" horiz-adv-x="1241" 
d="M635 1061l-289 -674q-37 -87 -56 -142t-25.5 -95.5t5 -58t41.5 -17.5q56 0 125 66t166 196q107 146 216.5 334t176.5 348l203 31l-332 -863q-20 -52 -25.5 -81t2.5 -40.5t29 -11.5q56 0 134.5 70.5t154.5 212.5l43 -19q-89 -170 -195 -256t-243 -86q-96 0 -117 52.5
t21 150.5l200 508h-2q-116 -229 -260 -420q-112 -153 -204 -222t-195 -69q-126 0 -140 99.5t78 310.5l238 559l-188 8l16 43z" />
    <glyph glyph-name="uni0439" unicode="&#x439;" horiz-adv-x="1241" 
d="M635 1061l-289 -674q-37 -87 -56 -142t-25.5 -95.5t5 -58t41.5 -17.5q56 0 125 66t166 196q107 146 216.5 334t176.5 348l203 31l-332 -863q-20 -52 -25.5 -81t2.5 -40.5t29 -11.5q56 0 134.5 70.5t154.5 212.5l43 -19q-89 -170 -195 -256t-243 -86q-96 0 -117 52.5
t21 150.5l200 508h-2q-116 -229 -260 -420q-112 -153 -204 -222t-195 -69q-126 0 -140 99.5t78 310.5l238 559l-188 8l16 43zM864 1262q-69 0 -122.5 16.5t-87 46t-54 70t-24 88t3.5 100.5h149q-10 -77 -7 -127.5t24 -80.5t50 -42t70 -12q89 0 142.5 56.5t76.5 205.5h150
q-25 -147 -127 -234t-244 -87z" />
    <glyph glyph-name="uni043A" unicode="&#x43a;" horiz-adv-x="1226" 
d="M221 18l-209 -38l371 964l-186 8l16 43l408 66l-205 -535l291 277q167 158 220 198q78 58 142 58q63 0 100 -36.5t37 -86.5q0 -64 -43 -110t-114 -50q-11 105 -24.5 147t-39.5 42q-12 0 -24.5 -4.5t-29 -15.5t-30 -21.5t-36 -31.5t-37 -35t-44.5 -43t-47 -46l-151 -143
l229 -525q29 -66 47 -88t41 -22q71 0 144 215l43 -12q-52 -158 -111 -214.5t-154 -56.5q-77 0 -136 55t-118 187l-157 354z" />
    <glyph glyph-name="uni043B" unicode="&#x43b;" horiz-adv-x="1183" 
d="M297 186q-68 -111 -126 -161t-120 -50q-43 0 -71.5 27.5t-28.5 63.5q0 60 24 84l261 36q131 209 350 756h-162l37 86h672l-324 -842q-20 -52 -25.5 -81t2.5 -40.5t29 -11.5q56 0 134.5 70.5t154.5 212.5l43 -19q-89 -170 -195 -256t-243 -86q-96 0 -117 53t20 150
l297 764h-264q-128 -308 -205 -478.5t-143 -277.5z" />
    <glyph glyph-name="uni043C" unicode="&#x43c;" horiz-adv-x="1611" 
d="M-4 -14q-33 0 -55.5 25t-22.5 65q0 46 25 71l227 39l397 758l-188 8l16 41l350 68l-28 -811l612 762l240 37l-332 -863q-20 -52 -25.5 -81t2.5 -40.5t29 -11.5q56 0 134.5 70.5t154.5 212.5l43 -19q-89 -170 -195 -256t-243 -86q-96 0 -117 53t20 150l291 754l-756 -948
h-45l33 835l-323 -620q-25 -47 -39.5 -72t-38.5 -56.5t-45.5 -47t-52.5 -26.5t-68 -11z" />
    <glyph glyph-name="uni043D" unicode="&#x43d;" horiz-adv-x="1220" 
d="M221 18l-209 -38l371 964l-186 8l16 43l408 66l-209 -547l391 59l172 445l203 31l-332 -863q-20 -52 -25.5 -81t2.5 -40.5t29 -11.5q56 0 134.5 70.5t154.5 212.5l43 -19q-89 -170 -195.5 -256t-243.5 -86q-96 0 -116.5 53t20.5 150l131 338l-391 -59z" />
    <glyph glyph-name="uni043E" unicode="&#x43e;" horiz-adv-x="1112" 
d="M375 -25q-146 0 -232 89t-86 231q0 136 58 274.5t151.5 246t220 175.5t254.5 68q146 0 232 -88.5t86 -229.5q0 -137 -57.5 -276t-150.5 -246.5t-219.5 -175.5t-256.5 -68zM440 33q56 0 114 34t110 99t93 150t65 196t24 229q0 131 -43 195.5t-123 64.5q-71 0 -144 -54
t-131.5 -145.5t-95.5 -225.5t-37 -281q0 -132 44 -197t124 -65z" />
    <glyph glyph-name="uni043F" unicode="&#x43f;" horiz-adv-x="1243" 
d="M752 -25q-98 0 -123.5 54.5t20.5 148.5l221 471q104 222 85 281q-10 31 -52 31q-55 0 -123 -64t-166 -192q-113 -152 -223.5 -342.5t-169.5 -344.5l-209 -38l371 964l-186 8l16 43l408 66l-291 -733h2q117 228 272 442q112 152 206 220.5t196 68.5q253 0 61 -408
l-217 -465q-23 -50 -27.5 -80.5t4.5 -41.5t31 -11q56 0 134 70t157 213l41 -19q-89 -170 -195 -256t-243 -86z" />
    <glyph glyph-name="uni0440" unicode="&#x440;" horiz-adv-x="1165" 
d="M-125 -508l500 1452l-189 8l17 43l405 66l-57 -166q66 75 155 119.5t175 44.5q122 0 190 -68.5t68 -191.5q0 -116 -47 -238t-132.5 -228t-196 -188.5t-249 -127t-278.5 -37.5l-168 -488h-193zM754 948q-121 0 -217 -96l-285 -827q88 -6 176.5 24.5t161 85.5t136 129.5
t107 156.5t68.5 165.5t25 156.5q0 205 -172 205z" />
    <glyph glyph-name="uni0441" unicode="&#x441;" horiz-adv-x="923" 
d="M328 -25q-130 0 -202.5 79.5t-72.5 226.5q0 138 59.5 280t153.5 251t219.5 178t249.5 69q100 0 152.5 -45t52.5 -121q0 -77 -51.5 -119t-140.5 -29q36 113 24.5 190t-74.5 77q-72 0 -150 -59.5t-140.5 -154t-103 -222.5t-40.5 -254q0 -125 51 -188.5t127 -63.5
q87 0 164.5 72t153.5 233l41 -17q-90 -202 -203.5 -292.5t-269.5 -90.5z" />
    <glyph glyph-name="uni0442" unicode="&#x442;" horiz-adv-x="1832" 
d="M1341 -25q-98 0 -123 54.5t21 148.5l221 471q102 218 87 278q-8 34 -52 34q-57 0 -125.5 -65.5t-165.5 -195.5q-112 -148 -223 -338t-170 -344l-203 -38l260 669q37 96 53.5 142t26 92t-2 62t-42.5 16q-55 0 -123 -64t-166 -192q-113 -152 -223.5 -342.5t-169.5 -344.5
l-209 -38l371 964l-186 8l16 43l408 66l-291 -733h2q117 228 272 442q112 152 206 220.5t196 68.5q63 0 94.5 -26t33.5 -80.5t-18 -126.5t-63 -175l-133 -323h2q112 218 274 442q112 152 205.5 220.5t195.5 68.5q252 0 60 -408l-217 -465q-23 -50 -27.5 -80.5t4.5 -41.5
t31 -11q58 0 136.5 70t154.5 213l41 -19q-89 -170 -195.5 -256t-243.5 -86z" />
    <glyph glyph-name="uni0443" unicode="&#x443;" horiz-adv-x="1177" 
d="M-188 -532q-152 0 -152 110q0 63 61 103q39 -36 77 -52t91 -16q89 0 190.5 72.5t254.5 271.5l-10 979h-181l2 43l371 82l4 -858l369 485q61 82 94 124.5t73.5 93t63 73t49.5 44.5t47.5 29t43.5 7q38 0 63 -25t25 -65q0 -55 -29 -78q-139 -41 -226.5 -98t-197.5 -199
l-494 -641q-370 -485 -589 -485z" />
    <glyph glyph-name="uni0444" unicode="&#x444;" horiz-adv-x="1511" 
d="M1227 1608l-189 -553q211 -6 315.5 -103t104.5 -268q0 -91 -34.5 -187t-103 -186.5t-161 -162.5t-219.5 -117.5t-268 -50.5l-166 -488h-199l168 488q-210 6 -314 102.5t-104 267.5q0 91 34.5 187t103 186.5t161.5 163t220 118t268 50.5l127 370l-160 80l6 13zM1255 672
q0 92 -25 165t-78.5 119.5t-129.5 51.5l-332 -977q108 7 202 50t159.5 108.5t112.5 147.5t69 167.5t22 167.5zM260 362q0 -141 60.5 -234.5t171.5 -100.5l333 977q-135 -10 -245.5 -73.5t-178.5 -157t-104.5 -200.5t-36.5 -211z" />
    <glyph glyph-name="uni0445" unicode="&#x445;" horiz-adv-x="1200" 
d="M80 -25q-63 0 -100 36.5t-37 86.5q0 64 43 110t114 50q11 -105 24.5 -146.5t39.5 -41.5q60 0 154.5 106t199.5 277l-49 370q-7 44 -10.5 63.5t-11.5 44.5t-19.5 34.5t-28.5 9.5q-47 0 -111.5 -64.5t-131.5 -175.5l-37 27q92 147 177 222t185 75q34 0 58 -7.5t48.5 -30
t41 -70t26.5 -120.5l23 -176q135 215 244.5 309.5t207.5 94.5q63 0 100.5 -36.5t37.5 -86.5q0 -64 -43.5 -110t-114.5 -50q-11 106 -24 147.5t-39 41.5q-110 0 -359 -390l47 -362q6 -41 10.5 -63t12.5 -45.5t20 -33.5t29 -10q47 0 112.5 64t133.5 174l34 -25
q-92 -147 -178 -223t-184 -76q-34 0 -58 8t-48 31t-41 70t-27 119l-23 170q-134 -213 -242.5 -305.5t-205.5 -92.5z" />
    <glyph glyph-name="uni0446" unicode="&#x446;" horiz-adv-x="1261" 
d="M635 1061l-289 -674q-37 -87 -56 -142t-25.5 -95.5t5 -58t41.5 -17.5q56 0 125 66t166 196q107 146 216.5 334t176.5 348l203 31l-332 -863q-20 -52 -25.5 -81t2.5 -40.5t29 -11.5q56 0 134.5 70.5t154.5 212.5l43 -19q-2 -3 -7.5 -13t-8.5 -15q-40 -79 -54.5 -138
t-11 -92.5t8 -97t-0.5 -127.5q-11 -101 -78.5 -154t-213.5 -63l14 49q110 11 121 137q7 101 28 169t64 143q-131 -140 -299 -140q-96 0 -117 52.5t21 150.5l200 508h-2q-116 -229 -260 -420q-112 -153 -204 -222t-195 -69q-126 0 -140 99.5t78 310.5l238 559l-188 8l16 43z
" />
    <glyph glyph-name="uni0447" unicode="&#x447;" horiz-adv-x="1200" 
d="M635 1061l-137 -318q-24 -55 -39.5 -96.5t-27 -78t-15 -61.5t0 -42.5t15 -26t31.5 -8.5q61 0 157.5 92.5t188 229.5t145.5 266l203 31l-332 -863q-20 -52 -25.5 -81t2.5 -40.5t29 -11.5q56 0 134.5 70.5t154.5 212.5l43 -19q-89 -170 -195 -256t-243 -86q-96 0 -117 52.5
t21 150.5l223 572h-2q-122 -195 -247 -306.5t-243 -111.5q-125 0 -138 101t77 308l86 203l-188 8l16 43z" />
    <glyph glyph-name="uni0448" unicode="&#x448;" horiz-adv-x="1841" 
d="M748 385l122 301h-2q-116 -229 -260 -420q-112 -153 -204 -222t-195 -69q-126 0 -140 99.5t78 310.5l238 559l-188 8l16 43l422 66l-289 -674q-37 -87 -56 -142t-25.5 -95.5t5 -58t41.5 -17.5q56 0 125 66t166 196q107 146 216.5 334t176.5 348l203 31l-254 -662
q-36 -94 -52.5 -144t-24.5 -93.5t3 -59.5t41 -16q56 0 125 66t166 196q107 146 216.5 334t176.5 348l203 31l-332 -863q-20 -52 -25 -81t3 -40.5t29 -11.5q56 0 134 70.5t154 212.5l43 -19q-89 -170 -195 -256t-243 -86q-96 0 -117 52.5t21 150.5l200 508h-2
q-116 -229 -260 -420q-112 -153 -204 -222t-195 -69q-125 0 -137.5 99.5t76.5 310.5z" />
    <glyph glyph-name="uni0449" unicode="&#x449;" horiz-adv-x="1861" 
d="M748 385l122 301h-2q-116 -229 -260 -420q-112 -153 -204 -222t-195 -69q-126 0 -140 99.5t78 310.5l238 559l-188 8l16 43l422 66l-289 -674q-37 -87 -56 -142t-25.5 -95.5t5 -58t41.5 -17.5q56 0 125 66t166 196q107 146 216.5 334t176.5 348l203 31l-254 -662
q-36 -94 -52.5 -144t-24.5 -93.5t3 -59.5t41 -16q56 0 125 66t166 196q107 146 216.5 334t176.5 348l203 31l-332 -863q-20 -52 -25 -81t3 -40.5t29 -11.5q56 0 134 70.5t154 212.5l43 -19q-2 -3 -7.5 -13t-8.5 -15q-40 -79 -54 -138t-11 -92.5t8 -97t0 -127.5
q-11 -101 -79 -154t-214 -63l14 49q110 11 121 137q7 101 28 169t64 143q-131 -140 -299 -140q-96 0 -117 52.5t21 150.5l200 508h-2q-116 -229 -260 -420q-112 -153 -204 -222t-195 -69q-125 0 -137.5 99.5t76.5 310.5z" />
    <glyph glyph-name="uni044A" unicode="&#x44a;" horiz-adv-x="1030" 
d="M424 -27q-155 0 -228 66t-73 182q0 260 495 635h-409l-96 -166h-45l151 338h637q-289 -242 -414 -469q139 74 242 74q104 0 163.5 -60.5t59.5 -164.5q0 -75 -38.5 -153t-102 -140t-154.5 -102t-188 -40zM336 172q0 -71 29 -110t81 -39q97 0 171.5 110.5t74.5 255.5
q0 78 -30 122t-91 44q-84 0 -151 -43q-84 -166 -84 -340z" />
    <glyph glyph-name="uni044B" unicode="&#x44b;" horiz-adv-x="1507" 
d="M1262 1018l202 31l-331 -863q-20 -52 -25.5 -81t2.5 -40.5t29 -11.5q56 0 134 70.5t154 212.5l43 -19q-89 -170 -195 -256t-243 -86q-96 0 -116.5 53t20.5 150zM874 428q0 -79 -40.5 -160.5t-108 -147t-164 -106.5t-199.5 -41q-172 0 -232.5 108.5t17.5 303.5l238 559
l-188 8l16 43l422 66l-201 -469q119 61 217 61q104 0 163.5 -60.5t59.5 -164.5zM416 549l-101 -238q-35 -85 -42.5 -147.5t19.5 -101.5t93 -39q72 0 135.5 54t101 143.5t37.5 189.5q0 165 -120 165q-67 0 -123 -26z" />
    <glyph glyph-name="uni044C" unicode="&#x44c;" horiz-adv-x="997" 
d="M874 428q0 -79 -40.5 -160.5t-108 -147t-164 -106.5t-199.5 -41q-172 0 -232.5 108.5t17.5 303.5l238 559l-188 8l16 43l422 66l-201 -469q119 61 217 61q104 0 163.5 -60.5t59.5 -164.5zM416 549l-101 -238q-35 -85 -42.5 -147.5t19.5 -101.5t93 -39q72 0 135.5 54
t101 143.5t37.5 189.5q0 165 -120 165q-67 0 -123 -26z" />
    <glyph glyph-name="uni044D" unicode="&#x44d;" horiz-adv-x="993" 
d="M666 1059q130 0 202 -79t72 -226q0 -138 -59.5 -280t-153.5 -251.5t-219.5 -178.5t-249.5 -69q-100 0 -152.5 45t-52.5 121q0 77 52 119t141 29q-37 -113 -26 -189.5t75 -76.5q120 0 245 151.5t169 357.5l-381 -57l22 57l369 56q10 68 10 125q0 125 -51 188.5t-127 63.5
q-81 0 -152 -60.5t-141 -197.5l-41 20q85 176 192.5 254t256.5 78z" />
    <glyph glyph-name="uni044E" unicode="&#x44e;" horiz-adv-x="1562" 
d="M221 18l-209 -38l371 964l-186 8l16 43l408 66l-207 -543l182 29q76 213 249.5 362.5t366.5 149.5q137 0 217 -88t80 -230q0 -137 -56 -276t-146 -246.5t-213 -175.5t-248 -68q-137 0 -217 89t-80 231q0 86 29 192l-187 -26zM911 33q67 0 136 54.5t124 146.5t90 226
t35 281q0 130 -38 195t-107 65q-68 0 -137 -54t-124.5 -145.5t-90.5 -225.5t-35 -281q0 -262 147 -262z" />
    <glyph glyph-name="uni044F" unicode="&#x44f;" horiz-adv-x="1105" 
d="M856 1051h180l-305 -865q-29 -78 -27 -105.5t33 -27.5q56 0 134.5 70.5t154.5 212.5l43 -19q-89 -170 -195 -256t-243 -86q-96 0 -116.5 53t20.5 150l145 381h-4l-379 -387l-37 -37t-34.5 -35t-29.5 -28.5t-29.5 -26.5t-25.5 -20t-27.5 -17.5t-25 -11t-27.5 -8.5t-28 -2
q-41 0 -63.5 27.5t-22.5 66.5q0 51 41 86l245 18l302 299q-91 -47 -177 -47q-75 0 -116 37t-41 109q0 100 76.5 213t191 189.5t215.5 76.5q55 0 93 -23t48 -65h4zM399 623q0 -101 88 -101q172 0 254 219l29 78q34 92 9.5 143.5t-97.5 51.5q-75 0 -142.5 -67t-104 -157
t-36.5 -167z" />
    <glyph glyph-name="uni0451" unicode="&#x451;" horiz-adv-x="952" 
d="M324 -25q-130 0 -202.5 79.5t-72.5 226.5q0 141 68 285.5t171 251t229 174t239 67.5q111 0 164 -50t53 -135q0 -66 -42.5 -131.5t-117.5 -105.5l-487 -4q-66 -155 -66 -311q0 -126 49.5 -189t124.5 -63q180 0 340 313l43 -14q-100 -204 -215 -299t-278 -95zM748 1014
q-107 0 -220.5 -95.5t-185.5 -246.5h111q174 0 288.5 74t114.5 176q0 92 -108 92zM657 1315q-54 0 -92.5 39.5t-38.5 93.5q0 52 39 90.5t92 38.5t92 -38.5t39 -90.5q0 -54 -38.5 -93.5t-92.5 -39.5zM1133 1315q-54 0 -93 39.5t-39 93.5q0 51 39 90t93 39q53 0 92 -38.5
t39 -90.5q0 -54 -38.5 -93.5t-92.5 -39.5z" />
    <glyph glyph-name="uni0452" unicode="&#x452;" horiz-adv-x="1134" 
d="M-6 -20l424 1224h-166l27 74h163l52 145l-152 82l6 13l402 90l-115 -330h239l-26 -74h-238l-121 -346l-190 -530h2q117 228 272 442q112 152 206 220.5t196 68.5q248 0 61 -408l-278 -616q-30 -68 -45.5 -101t-39 -77t-42.5 -66.5t-48.5 -51.5t-64 -50.5t-82.5 -46.5
l-340 -174l-18 34q89 56 141 93t104.5 83t90 98t76 120t83.5 167l267 586q38 84 59 140t26.5 96t-7.5 58t-46 18q-55 0 -122 -63.5t-166 -192.5q-113 -152 -224.5 -344t-169.5 -347z" />
    <glyph glyph-name="uni0453" unicode="&#x453;" horiz-adv-x="1021" 
d="M442 -25q-149 0 -242.5 59t-93.5 169q0 46 10.5 84.5t25.5 67t44.5 54.5t55 43.5t70 37t76 31.5t85.5 30l49 16q130 44 195 108t65 171q0 79 -35 120.5t-94 41.5q-35 0 -69 -9q-31 -8 -64 -41l-239 -274h-37l125 330q122 45 301 45q133 0 210.5 -62t77.5 -168
q0 -76 -26 -134t-80 -101t-113 -72t-149 -61l-51 -19q-131 -45 -192.5 -101t-61.5 -155q0 -83 44 -122t120 -39q61 0 88 10q15 5 23 9t23 18t33 38l222 291h36l-126 -377q-123 -39 -306 -39zM670 1223l295 366h227l-6 -14l-473 -352h-43z" />
    <glyph glyph-name="uni0454" unicode="&#x454;" horiz-adv-x="925" 
d="M328 -25q-130 0 -202.5 79.5t-72.5 226.5q0 138 59.5 280t153.5 251t219.5 178t249.5 69q100 0 152.5 -45t52.5 -121q0 -77 -51.5 -119t-140.5 -29q36 113 24.5 190t-74.5 77q-117 0 -238.5 -144.5t-170.5 -345.5l379 58l-23 -58l-369 -55q-12 -73 -12 -145
q0 -125 51 -188.5t127 -63.5q87 0 164.5 72t153.5 233l41 -17q-90 -202 -203.5 -292.5t-269.5 -90.5z" />
    <glyph glyph-name="uni0455" unicode="&#x455;" horiz-adv-x="800" 
d="M229 -25q-114 0 -180.5 52t-66.5 127q0 56 50 88t118 26q48 -176 62.5 -208.5t41.5 -32.5q28 0 61.5 10t67 29.5t56 56.5t22.5 84q0 46 -17.5 83.5t-60.5 98.5l-90 121q-86 115 -86 217q0 90 58.5 167.5t151.5 121t195 43.5q92 0 147.5 -41t55.5 -107q0 -57 -41 -90.5
t-119 -29.5q-37 158 -48.5 186.5t-39.5 28.5q-71 0 -142 -43t-71 -109q0 -75 78 -182l90 -121q92 -127 92 -229q0 -77 -36 -143.5t-92.5 -110t-124 -68.5t-132.5 -25z" />
    <glyph glyph-name="uni0456" unicode="&#x456;" horiz-adv-x="663" 
d="M526 1479q0 51 39 90t92 39t92 -39t39 -90q0 -54 -38.5 -93.5t-92.5 -39.5t-92.5 39.5t-38.5 93.5zM186 -25q-94 0 -114.5 52.5t20.5 150.5l295 766l-188 8l16 43l410 66l-338 -875q-30 -78 -27.5 -105.5t35.5 -27.5q56 0 134.5 70.5t154.5 212.5l41 -19
q-89 -170 -195.5 -256t-243.5 -86z" />
    <glyph glyph-name="uni0457" unicode="&#x457;" horiz-adv-x="679" 
d="M295 1479q0 51 38.5 90t92.5 39t92.5 -39t38.5 -90q0 -54 -38.5 -93.5t-92.5 -39.5t-92.5 39.5t-38.5 93.5zM625 1479q0 51 38.5 90t92.5 39t92.5 -39t38.5 -90q0 -54 -38.5 -93.5t-92.5 -39.5t-92.5 39.5t-38.5 93.5zM186 -25q-94 0 -114.5 52.5t20.5 150.5l295 766
l-188 8l16 43l410 66l-338 -875q-30 -78 -27.5 -105.5t35.5 -27.5q56 0 134.5 70.5t154.5 212.5l41 -19q-89 -170 -195.5 -256t-243.5 -86z" />
    <glyph glyph-name="uni0458" unicode="&#x458;" horiz-adv-x="638" 
d="M-449 -532l-16 34q81 52 120.5 78.5t94.5 68.5t84.5 75.5t67 84.5t67 111.5t62.5 142.5l356 881l-186 8l16 43l410 66l-416 -1028q-27 -65 -42.5 -100.5t-38 -77.5t-42 -65.5t-49 -51.5t-64.5 -49.5t-84 -46.5zM545 1479q0 51 38.5 90t92.5 39t92.5 -39t38.5 -90
q0 -54 -38.5 -93.5t-92.5 -39.5t-92.5 39.5t-38.5 93.5z" />
    <glyph glyph-name="uni0459" unicode="&#x459;" horiz-adv-x="1540" 
d="M909 942h-264q-128 -308 -205 -478.5t-143 -277.5q-68 -111 -126 -161t-120 -50q-43 0 -71.5 27.5t-28.5 63.5q0 60 24 84l261 36q131 209 350 756h-162l37 86h672l-170 -444q123 69 231 69q104 0 163.5 -60.5t59.5 -164.5q0 -79 -40.5 -160.5t-108 -147t-164 -106.5
t-199.5 -41q-169 0 -229 107.5t14 304.5zM946 543l-88 -232q-105 -288 70 -288q72 0 135.5 54t101 143.5t37.5 189.5q0 78 -30 121.5t-91 43.5q-75 0 -135 -32z" />
    <glyph glyph-name="uni045A" unicode="&#x45a;" horiz-adv-x="1556" 
d="M221 18l-209 -38l371 964l-186 8l16 43l408 66l-209 -547l366 55l176 449l203 31l-178 -465q123 69 231 69q104 0 164 -60.5t60 -164.5q0 -79 -40.5 -160.5t-108 -147t-164 -106.5t-199.5 -41q-169 0 -229 107.5t14 304.5l49 127l-367 -55zM963 543l-89 -232
q-105 -288 70 -288q72 0 136 54t101.5 143.5t37.5 189.5q0 78 -30 121.5t-91 43.5q-75 0 -135 -32z" />
    <glyph glyph-name="uni045B" unicode="&#x45b;" horiz-adv-x="1212" 
d="M299 328h2q117 228 272 442q112 152 206 220.5t196 68.5q253 0 61 -408l-217 -465q-23 -50 -27.5 -80.5t4.5 -41.5t31 -11q56 0 134 70t157 213l41 -19q-89 -170 -195 -256t-243 -86q-98 0 -123.5 54.5t20.5 148.5l222 471q105 224 84 282q-11 30 -52 30
q-55 0 -122 -63.5t-166 -192.5q-113 -152 -224.5 -344t-169.5 -347l-196 -34l424 1224h-166l27 74h163l52 145l-152 82l6 13l402 90l-115 -330h239l-26 -74h-238l-121 -346z" />
    <glyph glyph-name="uni045C" unicode="&#x45c;" horiz-adv-x="1226" 
d="M725 1223l295 366h227l-6 -14l-473 -352h-43zM221 18l-209 -38l371 964l-186 8l16 43l408 66l-205 -535l291 277q167 158 220 198q78 58 142 58q63 0 100 -36.5t37 -86.5q0 -64 -43 -110t-114 -50q-11 105 -24.5 147t-39.5 42q-12 0 -24.5 -4.5t-29 -15.5t-30 -21.5
t-36 -31.5t-37 -35t-44.5 -43t-47 -46l-151 -143l229 -525q29 -66 47 -88t41 -22q71 0 144 215l43 -12q-52 -158 -111 -214.5t-154 -56.5q-77 0 -136 55t-118 187l-157 354z" />
    <glyph glyph-name="uni045E" unicode="&#x45e;" horiz-adv-x="1177" 
d="M-188 -532q-152 0 -152 110q0 63 61 103q39 -36 77 -52t91 -16q89 0 190.5 72.5t254.5 271.5l-10 979h-181l2 43l371 82l4 -858l369 485q61 82 94 124.5t73.5 93t63 73t49.5 44.5t47.5 29t43.5 7q38 0 63 -25t25 -65q0 -55 -29 -78q-139 -41 -226.5 -98t-197.5 -199
l-494 -641q-370 -485 -589 -485zM872 1257q-167 0 -236.5 90.5t-47.5 231.5h149q-10 -77 -7 -127.5t24 -80.5t50 -42t70 -12q89 0 143 56.5t77 205.5h149q-25 -147 -127 -234.5t-244 -87.5z" />
    <glyph glyph-name="uni045F" unicode="&#x45f;" horiz-adv-x="1241" 
d="M512 0h41q-88 -172 -88 -276q0 -34 14.5 -48.5t50.5 -19.5l-12 -39q-119 0 -170 27.5t-51 85.5q0 24 7 47t26 49t32 42.5t47.5 46t47.5 40.5t55 45zM635 1061l-289 -674q-37 -87 -56 -142t-25.5 -95.5t5 -58t41.5 -17.5q56 0 125 66t166 196q107 146 216.5 334t176.5 348
l203 31l-332 -863q-20 -52 -25.5 -81t2.5 -40.5t29 -11.5q56 0 134.5 70.5t154.5 212.5l43 -19q-89 -170 -195 -256t-243 -86q-96 0 -117 52.5t21 150.5l200 508h-2q-116 -229 -260 -420q-112 -153 -204 -222t-195 -69q-126 0 -140 99.5t78 310.5l238 559l-188 8l16 43z" />
    <glyph glyph-name="uni0462" unicode="&#x462;" horiz-adv-x="1607" 
d="M768 743h238q282 0 431.5 -73t149.5 -238q0 -111 -64 -195.5t-176.5 -135.5t-255.5 -76t-313 -25h-628l14 49l94 6q52 5 78 19.5t37 54.5l338 1098h-256q-27 0 -38.5 -5t-31.5 -28l-279 -326h-36l176 418h481l43 137q11 40 -6 54.5t-64 19.5l-90 6l15 49h577l-14 -49
l-94 -6q-53 -5 -79.5 -19.5t-37.5 -54.5l-43 -137h481l-76 -418h-36l-84 326q-4 22 -13 27.5t-35 5.5h-253zM561 63h184q276 0 441.5 94t165.5 265q0 145 -96 201.5t-298 56.5h-208z" />
    <glyph glyph-name="uni0463" unicode="&#x463;" horiz-adv-x="1595" 
d="M221 18l-209 -38l371 964l-186 8l16 43l408 66l-291 -733h2q117 228 272 442q112 152 206 220.5t196 68.5q248 0 61 -408l-25 -55q111 57 207 57q104 0 164 -60.5t60 -164.5q0 -79 -40.5 -160.5t-108 -147t-164 -106.5t-199.5 -41q-175 0 -237.5 110t21.5 302l125 264
q115 236 81 291q-13 21 -48 21q-55 0 -123 -64t-166 -192q-113 -152 -223.5 -342.5t-169.5 -344.5zM1022 551l-111 -240q-28 -61 -39 -112t-5 -91t35.5 -62.5t80.5 -22.5q72 0 135.5 54t101 143.5t37.5 189.5q0 165 -120 165q-59 0 -115 -24z" />
    <glyph glyph-name="uni0472" unicode="&#x472;" horiz-adv-x="1804" 
d="M760 -25q-170 0 -307 67t-220 201t-83 314q0 115 36 236.5t100.5 235.5t161 216t211 177.5t257.5 120t294 44.5q127 0 237.5 -39t194 -111.5t131.5 -183.5t48 -247q0 -115 -36 -236.5t-100.5 -235.5t-161 -216t-211 -178t-258 -120.5t-294.5 -44.5zM797 35
q164 0 316.5 90t262.5 244.5t162 345.5q-113 -37 -210 -47t-168.5 1t-137 31t-129.5 41t-131.5 35t-158.5 9t-195 -35q-17 -112 -17 -197q0 -238 107 -378t299 -140zM422 815q108 37 203.5 59t167.5 28t137.5 3t113.5 -15t95.5 -26t83.5 -31.5t77.5 -31t77 -23.5t82.5 -10
t94 10q25 119 25 232q0 237 -106.5 376.5t-298.5 139.5q-170 0 -326 -95t-266.5 -256.5t-159.5 -359.5z" />
    <glyph glyph-name="uni0473" unicode="&#x473;" horiz-adv-x="1112" 
d="M375 -25q-146 0 -232 89t-86 231q0 136 58 274.5t151.5 246t220 175.5t254.5 68q146 0 232 -88.5t86 -229.5q0 -137 -57.5 -276t-150.5 -246.5t-219.5 -175.5t-256.5 -68zM299 541q66 29 121.5 43.5t93.5 15t72.5 -5.5t56.5 -19t46 -24.5t41.5 -21.5t42.5 -11.5t50 6.5
q23 118 23 217q0 131 -43 195.5t-123 64.5q-117 0 -224.5 -127t-156.5 -333zM440 33q109 0 217 124.5t156 317.5q-62 -36 -114.5 -51t-87.5 -12t-69 14t-58.5 27.5t-56 28t-62.5 16t-76 -8.5q-17 -107 -17 -194q0 -132 44 -197t124 -65z" />
    <glyph glyph-name="uni0474" unicode="&#x474;" horiz-adv-x="1673" 
d="M225 -49h-37l365 1472q10 40 -6.5 54.5t-63.5 19.5l-90 6l15 49h577l-14 -49l-94 -6q-53 -5 -79 -19.5t-36 -54.5l-291 -1151l1155 1055q171 154 247 207t134 53q80 0 80 -74q0 -73 -101.5 -137t-289.5 -80z" />
    <glyph glyph-name="uni0475" unicode="&#x475;" horiz-adv-x="1202" 
d="M500 225l501 637q87 110 138 153.5t110 43.5q72 0 72 -68q0 -156 -315 -213l-639 -801h-56l-8 959h-180l2 43l371 82z" />
    <glyph glyph-name="uni0490" unicode="&#x490;" horiz-adv-x="1331" 
d="M1534 1487h-733l-416 -1358q-11 -41 6.5 -55.5t67.5 -16.5l174 -4l-17 -53h-661l14 49l94 6q52 5 78 19.5t37 54.5l395 1294q13 40 -3.5 54.5t-65.5 19.5l-90 6l16 49h899q40 0 60 23l245 301h35z" />
    <glyph glyph-name="uni0491" unicode="&#x491;" horiz-adv-x="970" 
d="M1008 969h-426l-375 -969h-193l351 909q16 41 7 52t-59 16l-69 4l18 47h557q19 0 29.5 5t23.5 22l205 254h31z" />
    <glyph glyph-name="uni0492" unicode="&#x492;" horiz-adv-x="1359" 
d="M-45 0l14 49l94 6q52 5 78 19.5t37 54.5l395 1294q13 40 -3.5 54.5t-65.5 19.5l-90 6l16 49h1126l-69 -454h-37l-102 356q-6 23 -14 28t-34 5h-499l-416 -1358q-11 -41 6.5 -55.5t67.5 -16.5l174 -4l-17 -53h-661zM125 727l25 82h765l-26 -82h-764z" />
    <glyph glyph-name="uni0493" unicode="&#x493;" horiz-adv-x="1021" 
d="M442 -25q-158 0 -247 57.5t-89 170.5q0 115 61 181t179 112h-256l29 71h432q112 43 164.5 107.5t52.5 171.5q0 162 -115 162q-35 0 -69 -9q-31 -8 -64 -41l-268 -301h-21l138 357q122 45 301 45q139 0 213.5 -61.5t74.5 -168.5q0 -90 -38.5 -153t-114.5 -109h217l-29 -71
h-338l-65 -25l-51 -18q-126 -46 -184 -104.5t-58 -162.5q0 -79 39.5 -120t112.5 -41q61 0 88 10q38 13 79 65l256 326h21l-145 -412q-123 -39 -306 -39z" />
    <glyph glyph-name="uni0496" unicode="&#x496;" horiz-adv-x="2502" 
d="M168 0h-311l1144 874l-403 564q-24 33 -48 44t-85 15l-105 6l17 49h541l-17 -49l-133 -6q-49 -3 -66 -15t-2 -34l480 -670l196 645q13 40 -3.5 54.5t-65.5 19.5l-90 6l16 49h577l-16 -49l-94 -6q-52 -5 -78 -19.5t-39 -54.5l-197 -647l76 58l90 71l2 -2l721 545
q44 34 -8 45q-12 2 -31 4l-129 6l17 49h540l-16 -49l-108 -6q-64 -5 -100.5 -16.5t-76.5 -42.5l-776 -584l553 -791h178l-102 -389h-35l-61 301q-6 22 -33 25h-162l-541 774l-196 -645q-11 -40 6 -54.5t66 -19.5l90 -6l-15 -49h-577l14 49l94 6q52 5 78 19.5t37 54.5
l197 641z" />
    <glyph glyph-name="uni0497" unicode="&#x497;" horiz-adv-x="1865" 
d="M846 18l-217 -41l200 523l-202 -27q-53 -130 -131 -241t-179 -185t-198 -74q-68 0 -108 41t-40 105q0 91 51.5 136.5t139.5 31.5q-40 -135 -40 -201t48 -66q51 0 111 68t108.5 170t81.5 229.5t33 237.5q0 113 -20.5 173t-71.5 60q-61 0 -118 -72.5t-124 -228.5l-43 17
q156 385 381 385q88 0 141 -71t53 -202q0 -116 -53 -258l201 27l176 457l211 45l-178 -473l209 26q42 89 95.5 167.5t116 142.5t133.5 101.5t140 37.5q68 0 108 -41t40 -105q0 -91 -51.5 -136.5t-139.5 -31.5q40 135 40 201t-48 66q-51 0 -111 -68t-108.5 -170t-81.5 -229.5
t-33 -237.5q0 -113 20.5 -173t71.5 -60q61 0 118 72.5t124 228.5l43 -17l-23 -51q-27 -69 -40.5 -129.5t-15.5 -98.5t-4.5 -113t-6.5 -132q-11 -101 -79 -154t-214 -63l14 49q110 11 121 137q11 145 70 260q-93 -90 -203 -90q-89 0 -142 71.5t-53 201.5q0 140 72 307
l-205 -27z" />
    <glyph glyph-name="uni049A" unicode="&#x49a;" horiz-adv-x="1789" 
d="M-45 0l14 49l94 6q52 5 77 19.5t38 54.5l395 1294q13 40 -4 54.5t-65 19.5l-90 6l16 49h578l-17 -49l-94 -6q-52 -5 -77 -19.5t-38 -54.5l-196 -643l1003 668q56 40 -39 49l-129 6l17 49h553l-15 -49l-108 -6q-61 -4 -98 -16.5t-80 -42.5l-895 -594l698 -781h178
l-102 -389h-35l-61 301q-6 22 -33 25h-150l-708 770l-197 -641q-13 -40 5 -54.5t67 -19.5l90 -6l-15 -49h-577z" />
    <glyph glyph-name="uni049B" unicode="&#x49b;" horiz-adv-x="1226" 
d="M221 18l-209 -38l371 964l-186 8l16 43l408 66l-205 -535l291 277q167 158 220 198q78 58 142 58q63 0 100 -36.5t37 -86.5q0 -64 -43 -110t-114 -50q-11 105 -24.5 147t-39.5 42q-12 0 -24.5 -4.5t-29 -15.5t-30 -21.5t-36 -31.5t-37 -35t-44.5 -43t-47 -46l-151 -143
l229 -525q29 -66 47 -88t41 -22q71 0 144 215l43 -12q-21 -63 -22.5 -116.5t6 -100.5t-0.5 -142q-11 -101 -79 -154t-214 -63l15 49q109 10 120 137q9 91 35 154q-53 -35 -125 -35q-77 0 -136 55t-118 187l-157 354z" />
    <glyph glyph-name="uni04A2" unicode="&#x4a2;" horiz-adv-x="1841" 
d="M1407 63h188l-102 -389h-35l-61 301q-5 14 -14 19.5t-31 5.5h-357l15 49l94 6q50 5 76 19.5t39 54.5l196 645h-833l-197 -645q-13 -40 4 -54.5t68 -19.5l90 -6l-15 -49h-577l14 49l94 6q50 5 76 19.5t39 54.5l395 1294q13 40 -4 54.5t-65 19.5l-90 6l14 49h578l-15 -49
l-94 -6q-52 -5 -78 -19.5t-39 -54.5l-174 -567h834l174 567q13 40 -4.5 54.5t-65.5 19.5l-90 6l14 49h578l-14 -49l-95 -6q-51 -5 -76 -19.5t-38 -54.5z" />
    <glyph glyph-name="uni04A3" unicode="&#x4a3;" horiz-adv-x="1241" 
d="M221 18l-209 -38l371 964l-186 8l16 43l408 66l-209 -547l391 59l172 445l203 31l-332 -863q-20 -52 -25.5 -81t2.5 -40.5t29 -11.5q56 0 134.5 70.5t154.5 212.5l43 -19q-16 -27 -17 -28q-40 -79 -54 -138t-11 -92.5t8 -97t0 -127.5q-11 -101 -79 -154t-214 -63l14 49
q110 11 121 137q7 101 28 169t64 143q-131 -140 -299 -140q-96 0 -116.5 53t20.5 150l131 338l-391 -59z" />
    <glyph glyph-name="uni04AE" unicode="&#x4ae;" horiz-adv-x="1595" 
d="M324 0l16 51l123 6q53 5 77.5 18.5t37.5 53.5l176 571l-287 727q-14 39 -29.5 52.5t-60.5 17.5l-88 6l16 49h580l-17 -49l-102 -6q-53 -5 -75 -21t-9 -49l252 -645l649 645q35 35 26.5 50t-57.5 20l-125 6l15 49h497l-16 -49l-90 -6q-46 -4 -75.5 -19t-67.5 -51
l-729 -727l-177 -571q-13 -40 5.5 -55t66.5 -17l123 -6l-16 -51h-639z" />
    </font>
</defs>
</svg>
