<?xml version="1.0" standalone="no"?>
<!DOCTYPE svg PUBLIC "-//W3C//DTD SVG 1.1//EN" "http://www.w3.org/Graphics/SVG/1.1/DTD/svg11.dtd" >
<svg xmlns="http://www.w3.org/2000/svg" xmlns:xlink="http://www.w3.org/1999/xlink" version="1.1">
<metadata>
Created by FontForge 20201107 at Fri Oct 18 17:20:27 2024
 By 
Copyright (c) 2017 Swiss Typefaces Sarl. All rights reserved.
</metadata>
<defs>
<font id="SangBleuKingdom-Regular" horiz-adv-x="0" >
  <font-face 
    font-family="SangBleu Kingdom"
    font-weight="400"
    font-stretch="normal"
    units-per-em="2048"
    panose-1="2 4 5 4 8 0 0 0 0 4"
    ascent="1638"
    descent="-410"
    x-height="1028"
    cap-height="1552"
    bbox="-817 -825 2677 2169"
    underline-thickness="96"
    underline-position="-266"
    unicode-range="U+000D-FEFF"
  />
<missing-glyph horiz-adv-x="1310" 
d="M143 0v1552h1024v-1552h-1024zM211 1513l444 -702l445 702h-889zM182 1491v-1430l453 715zM678 776l450 -715v1430zM211 39h889l-445 702z" />
    <glyph glyph-name="_528" unicode="ff" horiz-adv-x="1503" 
d="M70 0v47l71 4q50 1 64 13.5t14 54.5v805h-149v47q94 6 137.5 40t60.5 122q39 228 155 337t337 109h28v-190h-200q-120 0 -183 -46t-63 -137q0 -89 68 -178h327v-104h-325v-805q0 -42 13.5 -53.5t66.5 -12.5l110 -6v-47h-532zM813 0v47l72 4q50 1 64 13.5t14 54.5v805
h-150v47q94 6 138 40t61 122q39 228 154.5 337t336.5 109h29v-190h-201q-120 0 -183 -46t-63 -137q0 -89 68 -178h399l-63 -104h-334v-805q0 -42 13.5 -53.5t66.5 -12.5l111 -6v-47h-533z" />
    <glyph glyph-name="_530" unicode="fi" horiz-adv-x="1378" 
d="M70 0v47l71 4q50 1 64 13.5t14 54.5v805h-149v47q94 6 137.5 40t60.5 122q39 228 155 337t337 109h28v-190h-200q-120 0 -183 -46t-63 -137q0 -89 68 -178h374l-63 -104h-309v-805q0 -42 13.5 -53.5t66.5 -12.5l110 -6v-47h-532zM825 0v47l72 4q49 5 63.5 16.5t14.5 51.5
v715l-150 84v12l342 131v-942q0 -40 14.5 -51.5t65.5 -16.5l70 -4v-47h-492zM940 1479q0 51 39 90t92 39t92 -39t39 -90q0 -54 -38.5 -93.5t-92.5 -39.5t-92.5 39.5t-38.5 93.5z" />
    <glyph glyph-name="_532" unicode="ffi" horiz-adv-x="2121" 
d="M70 0v47l71 4q50 1 64 13.5t14 54.5v805h-149v47q94 6 137.5 40t60.5 122q39 228 155 337t337 109h28v-190h-200q-120 0 -183 -46t-63 -137q0 -89 68 -178h327v-104h-325v-805q0 -42 13.5 -53.5t66.5 -12.5l110 -6v-47h-532zM813 0v47l72 4q50 1 64 13.5t14 54.5v805
h-150v47q94 6 138 40t61 122q39 228 154.5 337t336.5 109h29v-190h-201q-120 0 -183 -46t-63 -137q0 -89 68 -178h375l-64 -104h-309v-805q0 -42 13.5 -53.5t66.5 -12.5l111 -6v-47h-533zM1569 0v47l71 4q49 5 63.5 16.5t14.5 51.5v715l-149 84v12l342 131v-942
q0 -40 14.5 -51.5t65.5 -16.5l69 -4v-47h-491zM1683 1479q0 51 39 90t93 39q53 0 92 -39t39 -90q0 -54 -38.5 -93.5t-92.5 -39.5t-93 39.5t-39 93.5z" />
    <glyph glyph-name="_534" unicode="fl" horiz-adv-x="1382" 
d="M70 0v47l71 4q50 1 64 13.5t14 54.5v805h-149v47q94 6 137.5 40t60.5 122q39 228 155 337t337 109h28v-190h-200q-120 0 -183 -46t-63 -137q0 -89 68 -178h364l-63 -104h-299v-805q0 -42 13.5 -53.5t66.5 -12.5l110 -6v-47h-532zM829 0v47l72 4q50 1 64 13.5t14 54.5
v1274l-150 84v12l342 131v-1501q0 -42 13.5 -54.5t66.5 -13.5l70 -4v-47h-492z" />
    <glyph glyph-name="_536" unicode="ffl" horiz-adv-x="2117" 
d="M70 0v47l71 4q50 1 64 13.5t14 54.5v805h-149v47q94 6 137.5 40t60.5 122q39 228 155 337t337 109h28v-190h-200q-120 0 -183 -46t-63 -137q0 -89 68 -178h327v-104h-325v-805q0 -42 13.5 -53.5t66.5 -12.5l110 -6v-47h-532zM813 0v47l72 4q50 1 64 13.5t14 54.5v805
h-150v47q94 6 138 40t61 122q39 228 154.5 337t336.5 109h29v-190h-201q-120 0 -183 -46t-63 -137q0 -89 68 -178h365l-64 -104h-299v-805q0 -42 13.5 -53.5t66.5 -12.5l111 -6v-47h-533zM1573 0v47l72 4q50 1 63.5 13.5t13.5 54.5v1274l-149 84v12l342 131v-1501
q0 -42 13.5 -54.5t66.5 -13.5l69 -4v-47h-491z" />
    <glyph glyph-name=".notdef" horiz-adv-x="1310" 
d="M143 0v1552h1024v-1552h-1024zM211 1513l444 -702l445 702h-889zM182 1491v-1430l453 715zM678 776l450 -715v1430zM211 39h889l-445 702z" />
    <glyph glyph-name=".null" 
 />
    <glyph glyph-name="uni000D" unicode="&#xd;" horiz-adv-x="491" 
 />
    <glyph glyph-name="space" unicode=" " horiz-adv-x="491" 
 />
    <glyph glyph-name="exclam" unicode="!" horiz-adv-x="593" 
d="M324 446h-50q-7 241 -30 437t-42.5 348t-19.5 311q0 28 58.5 39.5t117 0t58.5 -39.5q0 -161 -19.5 -312.5t-42.5 -347t-30 -436.5zM291 -25q-55 0 -94 40.5t-39 97.5q0 56 39 95.5t94 39.5q59 0 98 -39.5t39 -95.5q0 -58 -39 -98t-98 -40z" />
    <glyph glyph-name="quotedbl" unicode="&#x22;" horiz-adv-x="851" 
d="M182 981l-65 532q-5 42 16 58t80 16t78 -16t14 -58l-65 -532h-58zM612 981l-65 532q-5 42 16 58t80 16t78 -16t14 -58l-65 -532h-58z" />
    <glyph glyph-name="numbersign" unicode="#" horiz-adv-x="1843" 
d="M266 0l170 420h-373l41 98h373l211 520h-373l39 99h373l184 452h107l-184 -452h469l184 452h104l-184 -452h373l-39 -99h-373l-211 -520h371l-39 -98h-373l-170 -420h-104l170 420h-469l-170 -420h-107zM584 518h469l211 520h-469z" />
    <glyph glyph-name="dollar" unicode="$" horiz-adv-x="1253" 
d="M596 -25h-18q-211 0 -352.5 87t-141.5 196q0 66 56 101t134 16q26 -168 103 -250t219 -88v682l-100 37q-180 67 -274.5 170t-94.5 262t138 272t331 125v236h66v-234q203 -4 331.5 -84t128.5 -182q0 -57 -48.5 -84.5t-131.5 -7.5q-24 135 -90 208.5t-190 86.5v-600l45 -17
q89 -34 153 -64.5t123 -72t95 -88t57.5 -109t21.5 -137.5q0 -182 -135 -309t-360 -147v-246h-66v241zM989 346q0 127 -78.5 205t-248.5 143v-655q151 12 239 95.5t88 211.5zM557 963l39 -15v578q-130 -5 -217.5 -78.5t-87.5 -185.5t65.5 -180.5t200.5 -118.5z" />
    <glyph glyph-name="percent" unicode="%" horiz-adv-x="1892" 
d="M303 0l1159 1552h125l-1159 -1552h-125zM82 1128q0 120 38.5 221t115 164.5t176.5 63.5q102 0 179 -63.5t115.5 -164.5t38.5 -221t-38.5 -220.5t-115.5 -164t-179 -63.5q-100 0 -176.5 63t-115 164t-38.5 221zM236 1128q0 -89 9.5 -160.5t30 -128t55 -87.5t81.5 -31
q63 0 104 55.5t57.5 143.5t16.5 208q0 89 -9.5 161t-30 128.5t-55.5 87.5t-83 31q-91 0 -133.5 -111t-42.5 -297zM1149 430q0 120 38.5 221t115 164.5t176.5 63.5q102 0 179 -63.5t115.5 -164.5t38.5 -221t-38.5 -220.5t-115.5 -164t-179 -63.5q-100 0 -176.5 63t-115 164
t-38.5 221zM1303 430q0 -89 9.5 -160.5t30 -128t55 -87.5t81.5 -31q63 0 104 55.5t57.5 143.5t16.5 208q0 89 -9.5 161t-30 128.5t-55.5 87.5t-83 31q-91 0 -133.5 -111t-42.5 -297z" />
    <glyph glyph-name="ampersand" unicode="&#x26;" horiz-adv-x="1824" 
d="M627 -25q-119 0 -217.5 39t-161 103t-96 143t-33.5 162q0 308 444 471q-213 188 -213 360q0 141 123 237.5t303 96.5q170 0 276.5 -73t106.5 -201q0 -66 -31.5 -123t-89.5 -100.5t-122.5 -75.5t-147.5 -62q202 -169 473 -450l213 370q60 104 -49 107l-105 2v47h461v-47
l-90 -2q-45 -1 -73 -21.5t-54 -64.5l-260 -438q130 -140 240 -273q51 -65 88 -96t76 -35l81 -6v-45h-356q-111 137 -239 285q-237 -310 -547 -310zM528 1321q0 -92 52.5 -171.5t158.5 -172.5q271 102 271 323q0 114 -64.5 175t-171.5 61q-115 0 -180.5 -58t-65.5 -157z
M324 500q0 -175 110 -296.5t277 -121.5q130 0 232.5 63t191.5 185q-300 332 -543 540q-268 -117 -268 -370z" />
    <glyph glyph-name="quotesingle" unicode="'" horiz-adv-x="421" 
d="M182 981l-65 532q-5 42 16 58t80 16t78 -16t14 -58l-65 -532h-58z" />
    <glyph glyph-name="parenleft" unicode="(" horiz-adv-x="643" 
d="M602 -459l-33 -30q-243 209 -360 485.5t-117 599.5t117 599.5t360 485.5l33 -30q-100 -104 -169 -231.5t-105 -267t-51 -272.5t-15 -284t15 -284t51 -272.5t105 -267t169 -231.5z" />
    <glyph glyph-name="parenright" unicode=")" horiz-adv-x="643" 
d="M41 1649l33 30q243 -209 360 -485.5t117 -599.5t-117 -600t-360 -486l-33 31q100 104 169 231.5t105 267t51 272.5t15 284t-15 284t-51 272.5t-105 267t-169 231.5z" />
    <glyph glyph-name="asterisk" unicode="*" horiz-adv-x="1001" 
d="M279 895l-35 23l164 288l-302 135l13 39l323 -67l37 327h39l39 -327l324 65l12 -39l-301 -137l164 -284l-35 -25l-223 244z" />
    <glyph glyph-name="plus" unicode="+" horiz-adv-x="1337" 
d="M616 0v485h-489v101h489v471h107v-471h487v-101h-487v-485h-107z" />
    <glyph glyph-name="comma" unicode="," horiz-adv-x="540" 
d="M96 -395l-26 45q188 144 188 289q0 111 -135 149q-2 64 38.5 109t106.5 45q64 0 104 -42.5t40 -121.5q0 -116 -80.5 -241.5t-235.5 -231.5z" />
    <glyph glyph-name="hyphen" unicode="-" horiz-adv-x="880" 
d="M139 481v109h602v-109h-602z" />
    <glyph glyph-name="period" unicode="." horiz-adv-x="516" 
d="M256 -25q-55 0 -94 40.5t-39 97.5q0 56 39 95.5t94 39.5q59 0 98 -39.5t39 -95.5q0 -58 -39 -98t-98 -40z" />
    <glyph glyph-name="slash" unicode="/" horiz-adv-x="1024" 
d="M57 -106l777 1732h133l-777 -1732h-133z" />
    <glyph glyph-name="zero" unicode="0" horiz-adv-x="1380" 
d="M109 780q0 159 39.5 303.5t112 257t184 179.5t245.5 67q108 0 202 -43.5t162.5 -120t118.5 -178t74.5 -220.5t24.5 -245q0 -158 -40 -302.5t-112 -256.5t-184 -179t-246 -67t-245.5 67t-184 179t-112 256.5t-39.5 302.5zM326 780q0 -222 40 -387t123 -260.5t201 -95.5
t201.5 95t123.5 260.5t40 387.5q0 224 -40 390t-123.5 261t-201.5 95t-201 -95t-123 -261t-40 -390z" />
    <glyph glyph-name="one" unicode="1" horiz-adv-x="813" 
d="M352 119v1319l-305 -127v55l498 209v-1456q0 -42 13.5 -54.5t66.5 -13.5l69 -4v-47h-528v47l108 4q50 1 64 13.5t14 54.5z" />
    <glyph glyph-name="two" unicode="2" horiz-adv-x="1210" 
d="M51 0v8q415 405 601 676.5t186 489.5q0 143 -75.5 224t-213.5 81q-142 0 -233.5 -95t-108.5 -280h-49q0 227 130.5 355t336.5 128q104 0 186 -29.5t132 -80.5t75.5 -117t25.5 -143q0 -99 -41.5 -202.5t-129 -218.5t-199 -230t-275.5 -263l-145 -133h580q89 0 123.5 14.5
t56.5 67.5l63 154h49l-110 -406h-965z" />
    <glyph glyph-name="three" unicode="3" horiz-adv-x="1200" 
d="M479 -25q-180 0 -295.5 83.5t-115.5 181.5q0 60 55 94.5t127 19.5q22 -147 93.5 -229t215.5 -82q66 0 130 23.5t118 69t87.5 121t33.5 169.5q0 91 -35 169.5t-90.5 129t-123 78.5t-134.5 28q-71 0 -162 -38l-18 53l77 28q161 59 265 162.5t104 218.5q0 107 -70 165.5
t-188 58.5q-61 0 -115 -16t-101.5 -50t-80.5 -94t-45 -141h-51q20 196 144.5 302.5t324.5 106.5q163 0 265.5 -76t102.5 -194q0 -202 -313 -328v-4q188 -33 303 -152.5t115 -293.5q0 -123 -54 -230.5t-142 -179.5t-199.5 -113t-227.5 -41z" />
    <glyph glyph-name="four" unicode="4" horiz-adv-x="1382" 
d="M842 0v414h-834l856 1138h170v-997h295v-141h-295v-414h-192zM193 555h649v854z" />
    <glyph glyph-name="five" unicode="5" horiz-adv-x="1179" 
d="M455 -25q-91 0 -170.5 24.5t-130.5 63t-80 85t-29 92.5q0 61 53.5 96t126.5 18q27 -150 98.5 -229.5t215.5 -79.5q158 0 264 102t106 254q0 388 -692 492l172 659h719l-49 -180h-656l-75 -282q368 -60 545.5 -213.5t177.5 -378.5q0 -105 -44.5 -200.5t-122 -166.5
t-189.5 -113.5t-240 -42.5z" />
    <glyph glyph-name="six" unicode="6" horiz-adv-x="1275" 
d="M1171 479q0 -144 -73 -260.5t-193.5 -180t-261.5 -63.5q-165 0 -291 76t-192 205.5t-66 290.5q0 226 133 442.5t378.5 389.5t565.5 270l17 -41q-348 -131 -567 -352.5t-285 -485.5q162 168 383 168q92 0 172.5 -29t143.5 -84t99.5 -144.5t36.5 -201.5zM309 555
q0 -230 92.5 -376t247.5 -146q138 0 222.5 110t84.5 293q0 188 -91 299t-240 111q-186 0 -301 -129q-15 -83 -15 -162z" />
    <glyph glyph-name="seven" unicode="7" horiz-adv-x="1204" 
d="M182 1552h1032l-563 -878q-78 -121 -136.5 -234.5t-83.5 -175.5t-60 -157q-6 -17 -9 -25q-23 -54 -40.5 -70.5t-53.5 -21.5l-86 -13q-38 -5 -48.5 17t16.5 69q491 750 890 1309h-675q-96 0 -129 -17t-62 -83l-55 -133h-49z" />
    <glyph glyph-name="eight" unicode="8" horiz-adv-x="1222" 
d="M602 -25q-216 0 -359 111.5t-143 288.5q0 138 94 238t279 171q-140 81 -216.5 183.5t-76.5 240.5q0 115 62 203t162 132t219 44q111 0 205.5 -35t155 -108.5t60.5 -171.5q0 -127 -88.5 -222.5t-230.5 -154.5l16 -10q88 -47 152 -92.5t118 -103t81.5 -128.5t27.5 -153
q0 -190 -149.5 -311.5t-368.5 -121.5zM608 956l80 -43q107 55 166 141t59 195q0 126 -83.5 198.5t-215.5 72.5q-130 0 -214.5 -62.5t-84.5 -171.5q0 -102 71.5 -175.5t221.5 -154.5zM256 385q0 -153 98 -247.5t254 -94.5q167 0 266 79t99 214q0 57 -23.5 106t-73.5 93
t-101 77t-134 78l-135 74q-250 -117 -250 -379z" />
    <glyph glyph-name="nine" unicode="9" horiz-adv-x="1273" 
d="M102 1083q0 108 43 203t115 160.5t169 103t202 37.5q165 0 291 -75.5t192 -205t66 -290.5q0 -169 -78 -336.5t-217.5 -311.5t-341 -262.5t-441.5 -191.5l-16 41q348 131 567 352.5t285 485.5q-162 -168 -383 -168q-92 0 -172.5 28.5t-144 84t-100 144.5t-36.5 201z
M965 1008q0 230 -92.5 376t-247.5 146q-138 0 -223 -110.5t-85 -293.5q0 -187 91.5 -298t240.5 -111q186 0 301 129q15 82 15 162z" />
    <glyph glyph-name="colon" unicode=":" horiz-adv-x="548" 
d="M272 -25q-55 0 -94 40.5t-39 97.5q0 56 39 95.5t94 39.5q59 0 98.5 -39.5t39.5 -95.5q0 -58 -39.5 -98t-98.5 -40zM272 788q-55 0 -94 40.5t-39 97.5q0 56 39 95.5t94 39.5q59 0 98.5 -39.5t39.5 -95.5q0 -58 -39.5 -98t-98.5 -40z" />
    <glyph glyph-name="semicolon" unicode=";" horiz-adv-x="610" 
d="M139 -395l-26 45q188 144 188 289q0 111 -135 149q-2 64 38.5 109t106.5 45q64 0 104 -42.5t40 -121.5q0 -116 -80.5 -241.5t-235.5 -231.5zM301 788q-55 0 -94 40.5t-39 97.5q0 56 39 95.5t94 39.5q59 0 98 -39.5t39 -95.5q0 -58 -39 -98t-98 -40z" />
    <glyph glyph-name="less" unicode="&#x3c;" horiz-adv-x="1337" 
d="M121 487v95l1053 462v-110l-912 -399l912 -402v-110z" />
    <glyph glyph-name="equal" unicode="=" horiz-adv-x="1337" 
d="M154 717v100h1030v-100h-1030zM154 238v100h1030v-100h-1030z" />
    <glyph glyph-name="greater" unicode="&#x3e;" horiz-adv-x="1337" 
d="M1217 582v-95l-1053 -464v110l911 402l-911 399v110z" />
    <glyph glyph-name="question" unicode="?" horiz-adv-x="1159" 
d="M563 1522q-137 0 -220.5 -66.5t-90.5 -202.5q-67 -5 -123.5 29t-56.5 92q0 75 122.5 144t303.5 69q265 0 423 -134.5t158 -346.5q0 -300 -350 -350l-211 -31q-49 -8 -63.5 -22t-14.5 -64l-6 -203h-47l-35 322q-6 52 0 83.5t28.5 50t50.5 26t79 14.5l209 31q136 20 196 74
t60 153q0 89 -55 165.5t-150.5 121.5t-206.5 45zM416 -25q-55 0 -94 40.5t-39 97.5q0 56 39 95.5t94 39.5q59 0 98 -39.5t39 -95.5q0 -58 -39 -98t-98 -40z" />
    <glyph glyph-name="at" unicode="@" horiz-adv-x="1951" 
d="M1180 334q-109 0 -109 57q0 33 37 121l66 166h-9q-100 -156 -223.5 -249t-245.5 -93q-95 0 -152 53.5t-57 153.5q0 123 77.5 256t191.5 233.5t249 166t246 65.5q29 0 57.5 -4.5t60 -15t50 -17t54 -22t45.5 -19.5l-265 -666q-28 -73 -28 -90q0 -13 7 -18.5t34 -5.5
q59 0 128 21t142 69t131.5 114.5t96.5 167.5t38 219q0 131 -52 234t-141 166t-201.5 96t-240.5 33q-187 0 -360.5 -75t-298.5 -199t-200 -291.5t-75 -346.5q0 -187 81.5 -325t224.5 -208.5t329 -70.5q252 0 453 96l18 -43q-224 -110 -485 -110q-155 0 -291.5 45t-239 127.5
t-162 207t-59.5 275.5q0 184 88.5 363.5t233 314t342 218t403.5 83.5q108 0 209.5 -22.5t191.5 -70t157.5 -116t107 -166.5t39.5 -215q0 -118 -37.5 -223.5t-104 -184.5t-153.5 -137t-189.5 -88t-209.5 -30zM778 434q48 0 109 29t125.5 83t128 144t106.5 199l111 282
q-33 39 -117 39q-90 0 -194.5 -60t-189 -151t-141.5 -207t-57 -219q0 -139 119 -139z" />
    <glyph glyph-name="A" unicode="A" horiz-adv-x="1564" 
d="M799 1626l602 -1501q17 -38 38 -51.5t68 -18.5l90 -6v-49h-591v49l102 6q52 5 68.5 19t-0.5 51l-177 446h-579l-176 -446q-17 -37 -1 -51t68 -19l103 -6v-49h-447v49l90 6q45 5 66.5 18.5t38.5 51.5l604 1501h33zM453 653h516l-258 656z" />
    <glyph glyph-name="B" unicode="B" horiz-adv-x="1523" 
d="M113 0v49l92 6q49 5 70.5 19.5t21.5 54.5v1294q0 40 -21.5 54.5t-70.5 19.5l-92 6v49h612q138 0 242.5 -17.5t185.5 -57.5t123.5 -109.5t42.5 -167.5q0 -153 -117 -253t-315 -120v-4q164 0 285 -39.5t191.5 -124.5t70.5 -210q0 -209 -167.5 -329t-484.5 -120h-669z
M504 852h241q171 0 263 85t92 239q0 164 -98 238.5t-295 74.5h-203v-637zM504 63h225q244 0 358.5 87.5t114.5 281.5q0 188 -114.5 272t-333.5 84h-250v-725z" />
    <glyph glyph-name="C" unicode="C" horiz-adv-x="1677" 
d="M981 -25q-257 0 -456.5 97t-313 280.5t-113.5 427.5q0 245 114.5 429t316.5 281t462 97q139 0 271.5 -22.5t220.5 -69.5l86 -444h-37l-232 372q-24 36 -42 51t-54 25q-80 23 -221 23q-103 0 -196 -24t-176.5 -78.5t-144.5 -134.5t-96.5 -199t-35.5 -265
q0 -227 77.5 -402.5t229.5 -276.5t358 -101q145 0 222 22q36 10 54 25t42 51l231 373h37l-86 -444q-88 -46 -231 -69.5t-287 -23.5z" />
    <glyph glyph-name="D" unicode="D" horiz-adv-x="1734" 
d="M113 0v49l92 6q49 5 70.5 19.5t21.5 54.5v1294q0 40 -21.5 54.5t-70.5 19.5l-92 6v49h569q133 0 253 -19.5t227 -59.5t193 -103t148.5 -146.5t96.5 -194.5t34 -243q0 -157 -48.5 -287.5t-134.5 -222t-204.5 -154.5t-258 -92.5t-296.5 -29.5h-579zM504 63h178
q161 0 288 37.5t224.5 116.5t150 212t52.5 314q0 746 -723 746h-170v-1426z" />
    <glyph glyph-name="E" unicode="E" horiz-adv-x="1536" 
d="M113 0v49l92 6q49 5 70.5 19.5t21.5 54.5v1294q0 40 -21.5 54.5t-70.5 19.5l-92 6v49h1140l68 -454h-37l-209 356q-12 23 -22 28t-37 5h-512v-641h307q26 0 33 4.5t12 21.5l82 242h37v-608h-37l-82 239q-6 18 -13 22.5t-32 4.5h-307v-706h612q25 0 35 4.5t23 23.5
l280 365h37l-139 -459h-1239z" />
    <glyph glyph-name="F" unicode="F" horiz-adv-x="1437" 
d="M113 0v49l92 6q49 5 70.5 19.5t21.5 54.5v1294q0 40 -21.5 54.5t-70.5 19.5l-92 6v49h1208l70 -454h-37l-211 356q-12 22 -22 27.5t-36 5.5h-581v-641h323q25 0 33 4.5t12 21.5l80 242h37v-608h-37l-80 239q-6 18 -13.5 22.5t-31.5 4.5h-323v-643q0 -41 22 -55.5
t72 -16.5l176 -4v-53h-661z" />
    <glyph glyph-name="G" unicode="G" horiz-adv-x="1808" 
d="M981 -25q-257 0 -456.5 97t-313 280.5t-113.5 427.5t115.5 428.5t317.5 281.5t460 97q139 0 271.5 -22.5t220.5 -69.5l86 -444h-37l-232 372q-24 36 -42 51t-54 25q-80 23 -221 23q-101 0 -193.5 -24t-176.5 -78.5t-145.5 -134.5t-97.5 -199t-36 -265q0 -226 77.5 -401
t229.5 -276t358 -101q225 0 365 74v454q0 41 -22.5 57.5t-69.5 18.5l-242 6v66h727v-74l-184 -2v-401l6 -142q-126 -53 -291 -89t-307 -36z" />
    <glyph glyph-name="H" unicode="H" horiz-adv-x="1843" 
d="M113 0v49l92 6q49 5 70.5 19.5t21.5 54.5v1294q0 40 -21.5 54.5t-70.5 19.5l-92 6v49h577v-49l-92 -6q-52 -5 -73 -19.5t-21 -54.5v-567h833v567q0 40 -21.5 54.5t-70.5 19.5l-92 6v49h578v-49l-93 -6q-49 -5 -70.5 -19.5t-21.5 -54.5v-1294q0 -40 21.5 -54.5t70.5 -19.5
l93 -6v-49h-578v49l92 6q49 5 70.5 19.5t21.5 54.5v645h-833v-645q0 -40 21 -54.5t73 -19.5l92 -6v-49h-577z" />
    <glyph glyph-name="I" unicode="I" horiz-adv-x="800" 
d="M113 0v49l92 6q49 5 70.5 19.5t21.5 54.5v1294q0 40 -21.5 54.5t-70.5 19.5l-92 6v49h577v-49l-92 -6q-52 -5 -73 -19.5t-21 -54.5v-1294q0 -40 21 -54.5t73 -19.5l92 -6v-49h-577z" />
    <glyph glyph-name="J" unicode="J" horiz-adv-x="782" 
d="M29 -240l-33 45q57 47 84.5 70.5t66 58.5t55 54t38.5 50t30 54.5t17.5 58t11.5 70t2 82.5v1124q0 39 -20.5 51.5t-69.5 14.5l-102 4v55h591v-55l-102 -4q-49 -2 -69.5 -14.5t-20.5 -51.5v-1069q0 -55 -5 -97.5t-21 -80.5t-30.5 -63.5t-48 -59.5t-58 -55.5t-75.5 -64.5
q-30 -24 -241 -177z" />
    <glyph glyph-name="K" unicode="K" horiz-adv-x="1626" 
d="M113 0v49l92 6q49 5 70.5 19.5t21.5 54.5v1294q0 40 -21.5 54.5t-70.5 19.5l-92 6v49h577v-49l-92 -6q-52 -5 -73 -19.5t-21 -54.5v-645l717 670q42 39 -47 48q-3 1 -7 1l-131 6v49h541v-49l-107 -6q-62 -5 -94.5 -16.5t-64.5 -42.5l-604 -566l938 -872h-291l-850 772
v-643q0 -40 21 -54.5t73 -19.5l92 -6v-49h-577z" />
    <glyph glyph-name="L" unicode="L" horiz-adv-x="1439" 
d="M113 0v49l92 6q49 5 70.5 19.5t21.5 54.5v1294q0 40 -21.5 54.5t-70.5 19.5l-92 6v49h577v-49l-92 -6q-52 -5 -73 -19.5t-21 -54.5v-1357h532q25 0 35 4.5t23 23.5l280 365h37l-139 -459h-1159z" />
    <glyph glyph-name="M" unicode="M" horiz-adv-x="2115" 
d="M72 0v49l90 6q48 5 69 19.5t25 54.5l82 1294q4 39 -18.5 54t-73.5 20l-92 6v49h456l459 -970l459 970h436v-49l-92 -6q-53 -5 -75.5 -19.5t-18.5 -54.5l82 -1294q4 -41 24 -55t70 -19l92 -6v-49h-578v49l91 6q53 5 75.5 19.5t18.5 54.5l-82 1337l-570 -1204h-12
l-571 1202l-82 -1335q-4 -40 18 -54.5t72 -19.5l94 -6v-49h-448z" />
    <glyph glyph-name="N" unicode="N" horiz-adv-x="1808" 
d="M119 0v49l92 6q51 5 71.5 19.5t20.5 54.5v1208l-186 211v4h270l1065 -1192v1063q0 40 -21 54.5t-73 19.5l-92 6v49h450v-49l-92 -6q-51 -5 -71.5 -19.5t-20.5 -54.5v-1462h-8l-1141 1286v-1118q0 -40 21 -54.5t73 -19.5l90 -6v-49h-448z" />
    <glyph glyph-name="O" unicode="O" horiz-adv-x="1830" 
d="M915 -25q-168 0 -317.5 58.5t-260 162t-175 255.5t-64.5 329q0 178 64.5 330t175 256t260 162.5t317.5 58.5t318 -58.5t260.5 -162.5t175 -256t64.5 -330q0 -177 -64.5 -329t-175 -255.5t-260.5 -162t-318 -58.5zM915 43q125 0 231 50t183.5 142t121.5 232.5t44 312.5
q0 174 -44 314.5t-121.5 233.5t-183.5 142.5t-231 49.5q-257 0 -419 -197t-162 -543q0 -172 44 -312t121.5 -232.5t184 -142.5t231.5 -50z" />
    <glyph glyph-name="P" unicode="P" horiz-adv-x="1466" 
d="M113 0v49l92 6q49 5 70.5 19.5t21.5 54.5v1294q0 40 -21.5 54.5t-70.5 19.5l-92 6v49h647q115 0 207 -10t178 -38t143 -73t91 -118.5t34 -171.5t-34 -172.5t-91.5 -121.5t-142.5 -76.5t-178 -41.5t-207 -12h-205v65h186q219 0 330 80.5t111 272.5q0 190 -111.5 272
t-329.5 82h-237v-1360q0 -41 22 -55.5t72 -16.5l176 -4v-53h-661z" />
    <glyph glyph-name="Q" unicode="Q" horiz-adv-x="1830" 
d="M915 -25h-4l-358 -143q83 25 197 25q88 0 171 -18t146.5 -43.5t122 -51t120 -43.5t117.5 -18q99 0 172 52.5t125 174.5l52 -16q-66 -171 -159.5 -275t-205.5 -104q-73 0 -150 30.5t-145 74t-136 87.5t-147.5 74.5t-156.5 30.5q-82 0 -129 -23q0 -53 -24.5 -76.5
t-59.5 -23.5q-23 0 -38 16t-15 41q0 43 52 80.5t185 91.5l156 66q-199 25 -358 128.5t-253 277.5t-94 390q0 178 64.5 330t175 256t260 162.5t317.5 58.5t318 -58.5t260.5 -162.5t175 -256t64.5 -330q0 -177 -64.5 -329t-175 -255.5t-260.5 -162t-318 -58.5zM915 43
q125 0 231 50t183.5 142t121.5 232.5t44 312.5q0 174 -44 314.5t-121.5 233.5t-183.5 142.5t-231 49.5q-257 0 -419 -197t-162 -543q0 -172 44 -312t121.5 -232.5t184 -142.5t231.5 -50z" />
    <glyph glyph-name="R" unicode="R" horiz-adv-x="1562" 
d="M113 0v49l92 6q49 5 70.5 19.5t21.5 54.5v1294q0 40 -21.5 54.5t-70.5 19.5l-92 6v49h587q148 0 258.5 -17.5t200.5 -59t137 -117t47 -184.5q0 -167 -117.5 -263t-334.5 -123l717 -788h-265l-690 764h-149v-635q0 -40 21 -54.5t73 -19.5l92 -6v-49h-577zM504 827h180
q207 0 317.5 78t110.5 254q0 174 -110.5 252t-317.5 78h-180v-662z" />
    <glyph glyph-name="S" unicode="S" horiz-adv-x="1288" 
d="M596 -25q-238 0 -397 54l-47 469h36l177 -363q27 -53 79 -74q56 -20 154 -20q166 0 279.5 78.5t113.5 210.5q0 72 -25 128.5t-75.5 98.5t-112.5 72.5t-149 58.5l-109 35q-377 119 -377 453q0 126 78 221.5t198.5 142.5t260.5 47q207 0 348 -55l74 -418h-37l-199 326
q-22 35 -40.5 48t-53.5 21q-54 11 -121 11q-85 0 -158.5 -32t-121 -96.5t-47.5 -148.5q0 -217 256 -299l108 -35q93 -30 162 -60.5t133.5 -72.5t105.5 -91.5t65 -117t24 -149.5q0 -131 -79 -233t-211 -156t-292 -54z" />
    <glyph glyph-name="T" unicode="T" horiz-adv-x="1548" 
d="M455 0v51l123 6q48 2 70 17t22 55v1364h-357q-28 0 -38.5 -5.5t-20.5 -27.5l-180 -387h-37l49 479h1374l51 -479h-36l-183 387q-10 22 -20.5 27.5t-36.5 5.5h-356v-1364q0 -40 20 -53.5t72 -18.5l123 -6v-51h-639z" />
    <glyph glyph-name="U" unicode="U" horiz-adv-x="1763" 
d="M889 -25q-637 0 -637 631v817q0 40 -21.5 54.5t-70.5 19.5l-92 6v49h577v-49l-92 -6q-49 -5 -70.5 -19.5t-21.5 -54.5v-821q0 -272 117 -400t364 -128q250 0 371 137t121 410v802q0 40 -21 54.5t-72 19.5l-92 6v49h449v-49l-90 -6q-52 -5 -73.5 -19.5t-21.5 -54.5v-815
q0 -312 -158 -472.5t-466 -160.5z" />
    <glyph glyph-name="V" unicode="V" horiz-adv-x="1589" 
d="M776 -51l-616 1478q-17 38 -38.5 51.5t-66.5 18.5l-90 6v49h588v-49l-102 -6q-52 -5 -68.5 -19t0.5 -51l481 -1171l484 1171q16 36 -0.5 50.5t-67.5 19.5l-102 6v49h446v-49l-90 -6q-45 -5 -66 -18.5t-38 -51.5l-619 -1478h-35z" />
    <glyph glyph-name="W" unicode="W" horiz-adv-x="2422" 
d="M776 -51l-616 1478q-17 38 -38.5 51.5t-66.5 18.5l-90 6v49h588v-49l-102 -6q-52 -5 -68.5 -19t0.5 -51l481 -1171l330 791l-190 505h532v-49l-188 -6q-51 -2 -67 -17t-3 -53l418 -1171l483 1171q17 37 0.5 51t-68.5 19l-100 6v49h447v-49l-91 -6q-47 -4 -67 -17.5
t-37 -52.5l-618 -1478h-35l-379 1003l-422 -1003h-33z" />
    <glyph glyph-name="X" unicode="X" horiz-adv-x="1642" 
d="M-8 0v49l88 6q81 6 133 70l524 645l-475 657q-25 35 -50.5 50t-68.5 20l-88 6v49h604v-49l-102 -8q-50 -5 -62.5 -19t9.5 -49l362 -499l406 499q50 62 -41 68l-103 8v49h455v-49l-88 -6q-83 -6 -135 -70l-453 -557l539 -745q25 -35 51 -50.5t70 -19.5l86 -6v-49h-604v49
l102 8q50 5 62.5 19t-9.5 49l-424 588l-477 -588q-27 -32 -17.5 -48t58.5 -20l102 -8v-49h-454z" />
    <glyph glyph-name="Y" unicode="Y" horiz-adv-x="1576" 
d="M471 0v51l123 6q48 2 70 17t22 55v571l-508 727q-27 40 -44.5 53t-59.5 17l-90 6v49h594v-49l-103 -6q-109 -10 -67 -70l452 -649l455 649q13 18 13.5 30.5t-11 20.5t-28 12.5t-42.5 6.5l-102 6v49h450v-49l-90 -6q-41 -4 -58.5 -17.5t-45.5 -52.5l-508 -727v-571
q0 -40 21 -53.5t73 -18.5l123 -6v-51h-639z" />
    <glyph glyph-name="Z" unicode="Z" horiz-adv-x="1499" 
d="M45 0v20l1094 1469h-666q-29 0 -38.5 -5t-26.5 -28l-269 -362h-37l142 458h1153v-22l-1090 -1467h766q27 0 37 5t27 28l268 363h39l-144 -459h-1255z" />
    <glyph glyph-name="bracketleft" unicode="[" horiz-adv-x="624" 
d="M219 -465v2130h338v-49l-86 -4q-73 -5 -98 -28.5t-25 -88.5v-1792q0 -65 25 -88.5t98 -28.5l86 -4v-47h-338z" />
    <glyph glyph-name="backslash" unicode="\" horiz-adv-x="1024" 
d="M967 -106h-133l-777 1732h133z" />
    <glyph glyph-name="bracketright" unicode="]" horiz-adv-x="624" 
d="M406 1665v-2130h-338v49l86 4q72 5 97 28t25 89v1792q0 66 -25 89t-97 28l-86 4v47h338z" />
    <glyph glyph-name="asciicircum" unicode="^" horiz-adv-x="1337" 
d="M188 739l430 850h101l430 -850h-111l-370 738l-371 -738h-109z" />
    <glyph glyph-name="underscore" unicode="_" horiz-adv-x="1169" 
d="M27 -209v96h1116v-96h-1116z" />
    <glyph glyph-name="grave" unicode="`" 
d="M199 1223h-41l-398 352v14h215z" />
    <glyph glyph-name="a" unicode="a" horiz-adv-x="1105" 
d="M420 -25q-141 0 -233.5 82t-92.5 195q0 35 10.5 65.5t25.5 53.5t42 45t49.5 36.5t60 31t60.5 25.5t64 24t59 22q63 24 108 45.5t73 42.5t44 37t23 39t8.5 37.5t1.5 42.5q0 90 -53.5 146t-155.5 56q-125 0 -185 -84t-30 -225q-36 -8 -78 -8q-66 0 -102.5 26t-36.5 68
q0 89 186 180q197 103 346 103q155 0 227.5 -73.5t71.5 -252.5l-6 -645h156v-45l-324 -59l-14 229q-39 -129 -116 -184.5t-189 -55.5zM502 59q88 0 152.5 74t64.5 223l4 293q-81 -60 -174 -108q-63 -34 -98 -56.5t-70.5 -55.5t-50.5 -71.5t-15 -89.5q0 -86 49 -147.5
t138 -61.5z" />
    <glyph glyph-name="b" unicode="b" horiz-adv-x="1232" 
d="M680 1059q199 0 331 -149t132 -394q0 -237 -139 -389t-351 -152q-100 0 -177.5 38.5t-127.5 103.5l-158 -140l-14 7v1409l-149 84v12l342 131v-711q51 69 133 109.5t178 40.5zM586 967q-136 0 -217 -93v-722q85 -97 213 -97q153 0 247.5 128t94.5 333q0 195 -94.5 323
t-243.5 128z" />
    <glyph glyph-name="c" unicode="c" horiz-adv-x="1134" 
d="M604 -25q-225 0 -371.5 150t-146.5 389q0 156 75.5 281.5t202 194.5t277.5 69q91 0 174.5 -26t139 -77.5t55.5 -117.5q0 -52 -37 -81.5t-96 -29.5q-14 0 -46 4q-11 141 -78 208t-173 67q-120 0 -200.5 -96.5t-84.5 -280.5q-3 -143 43.5 -263.5t138.5 -194t211 -73.5
q50 0 97.5 13t95.5 42t87 86t60 136h47q-27 -138 -96 -229.5t-162.5 -131t-212.5 -39.5z" />
    <glyph glyph-name="d" unicode="d" horiz-adv-x="1261" 
d="M551 -25q-199 0 -330 148.5t-131 394.5q0 236 139 388.5t349 152.5q89 0 162.5 -35t121.5 -96v465l-190 84v12l383 131v-1530h157v-45l-350 -63v143q-53 -68 -134.5 -109t-176.5 -41zM307 520q0 -197 94.5 -323.5t245.5 -126.5q140 0 215 92v727q-80 92 -213 92
q-153 0 -247.5 -128t-94.5 -333z" />
    <glyph glyph-name="e" unicode="e" horiz-adv-x="1181" 
d="M606 -25q-227 0 -372.5 145.5t-145.5 393.5q0 120 42.5 223t113.5 173t164.5 109.5t195.5 39.5q59 0 116.5 -14t115.5 -46t105 -79t84 -119t54 -160h-782v-39q0 -223 111 -363.5t282 -140.5q280 0 369 277h47q-46 -202 -175.5 -301t-324.5 -99zM598 1010
q-114 0 -193 -79.5t-102 -230.5h539q-5 139 -64.5 224.5t-179.5 85.5z" />
    <glyph glyph-name="f" unicode="f" horiz-adv-x="786" 
d="M70 0v47l71 4q50 1 64 13.5t14 54.5v805h-149v47q94 6 137.5 40t60.5 122q39 228 155 337t337 109h28v-190h-200q-120 0 -183 -46t-63 -137q0 -89 68 -178h399l-64 -104h-333v-805q0 -42 13.5 -53.5t66.5 -12.5l110 -6v-47h-532z" />
    <glyph glyph-name="g" unicode="g" horiz-adv-x="1206" 
d="M543 336q-75 0 -152 22l-158 -180l510 -49q207 -21 297 -75t90 -163q0 -113 -92.5 -210.5t-252 -155t-347.5 -57.5q-179 0 -286 66t-107 173q0 100 105 172t262 90q-81 21 -179.5 58t-144.5 63l254 287q-102 44 -161.5 128t-59.5 191q0 155 121.5 259t304.5 104
q155 0 270 -78l62 115h348l-72 -131h-317q62 -48 96.5 -117t34.5 -148q0 -156 -121.5 -260t-304.5 -104zM580 387q90 0 145 66.5t55 189.5q0 154 -73.5 261.5t-190.5 107.5q-91 0 -147 -66t-56 -190q0 -154 73.5 -261.5t193.5 -107.5zM506 -465q119 0 226 34.5t173 94.5
t66 129q0 89 -106 127.5t-318 38.5q-174 0 -267.5 -64t-93.5 -153q0 -95 82.5 -151t237.5 -56z" />
    <glyph glyph-name="h" unicode="h" horiz-adv-x="1249" 
d="M53 0v47l72 4q50 1 64 13.5t14 54.5v1274l-150 84v12l342 131v-844q32 140 121 211.5t221 71.5q155 0 235.5 -96.5t80.5 -311.5v-532q0 -42 13.5 -54.5t66.5 -13.5l69 -4v-47h-491v47l71 4q50 1 64 13.5t14 54.5v495q0 179 -54 253.5t-165 74.5q-109 0 -177.5 -80
t-68.5 -248v-495q0 -42 13.5 -54.5t66.5 -13.5l70 -4v-47h-492z" />
    <glyph glyph-name="i" unicode="i" horiz-adv-x="632" 
d="M80 0v47l72 4q49 5 63 16.5t14 51.5v715l-149 84v12l342 131v-942q0 -40 14.5 -51.5t65.5 -16.5l69 -4v-47h-491zM195 1479q0 51 38.5 90t92.5 39t92.5 -39t38.5 -90q0 -54 -38.5 -93.5t-92.5 -39.5t-92.5 39.5t-38.5 93.5z" />
    <glyph glyph-name="j" unicode="j" horiz-adv-x="571" 
d="M-39 -535l-24 37q58 48 89 76.5t66.5 68.5t52 75t32.5 86.5t21 112t5 142.5v771l-150 84v12l342 131v-989q0 -177 -44 -272.5t-152 -174.5q-108 -81 -238 -160zM166 1479q0 51 39 90t92 39t92 -39t39 -90q0 -54 -38.5 -93.5t-92.5 -39.5t-92.5 39.5t-38.5 93.5z" />
    <glyph glyph-name="k" unicode="k" horiz-adv-x="1208" 
d="M53 0v47l72 4q50 1 64 13.5t14 54.5v1274l-150 84v12l342 131v-1069l434 354q34 29 27 51t-59 23l-74 2v47h428v-47l-68 -4q-51 -5 -84.5 -19.5t-74.5 -50.5l-349 -278l646 -629h-263l-563 532v-413q0 -42 13.5 -54.5t66.5 -13.5l70 -4v-47h-492z" />
    <glyph glyph-name="l" unicode="l" horiz-adv-x="614" 
d="M61 0v47l72 4q50 1 64 13.5t14 54.5v1274l-150 84v12l342 131v-1501q0 -42 13.5 -54.5t66.5 -13.5l70 -4v-47h-492z" />
    <glyph glyph-name="m" unicode="m" horiz-adv-x="1925" 
d="M563 47v-47h-491v47l71 4q50 1 64 13.5t14 54.5v715l-149 84v12l342 131v-285q32 140 121 211.5t221 71.5q133 0 208.5 -65.5t98.5 -215.5q36 138 128.5 209.5t219.5 71.5q158 0 238 -96t80 -312v-532q0 -42 13 -54.5t66 -13.5l70 -4v-47h-492v47l72 4q50 1 64 13.5
t14 54.5v495q0 179 -54 253.5t-165 74.5q-109 0 -177.5 -80t-68.5 -248v-495q0 -42 13.5 -54.5t66.5 -13.5l70 -4v-47h-492v47l72 4q50 1 64 13.5t14 54.5v495q0 179 -54.5 253.5t-165.5 74.5q-109 0 -177 -80t-68 -248v-495q0 -42 13.5 -54.5t66.5 -13.5z" />
    <glyph glyph-name="n" unicode="n" horiz-adv-x="1267" 
d="M72 0v47l71 4q50 1 64 13.5t14 54.5v715l-149 84v12l342 131v-285q32 140 121 211.5t221 71.5q155 0 235 -96t80 -312v-532q0 -42 13.5 -54.5t66.5 -13.5l70 -4v-47h-492v47l72 4q50 1 64 13.5t14 54.5v495q0 179 -54.5 253.5t-165.5 74.5q-109 0 -177 -80t-68 -248v-495
q0 -42 13.5 -54.5t66.5 -13.5l69 -4v-47h-491z" />
    <glyph glyph-name="o" unicode="o" horiz-adv-x="1267" 
d="M631 -25q-146 0 -270.5 68t-199.5 192t-75 277q0 121 47 225.5t124 174t176 108.5t204 39q146 0 270.5 -68t199.5 -191.5t75 -275.5q0 -122 -46 -226.5t-122.5 -174t-176 -109t-206.5 -39.5zM635 35q65 0 121.5 27.5t102 83.5t71.5 151.5t26 220.5q0 127 -26 223t-72 152
t-102 83.5t-121 27.5q-67 0 -124 -27.5t-103 -83.5t-72.5 -152t-26.5 -223q0 -125 26.5 -220.5t72.5 -151.5t103 -83.5t124 -27.5z" />
    <glyph glyph-name="p" unicode="p" horiz-adv-x="1257" 
d="M53 -508v47l72 4q50 1 64 13.5t14 54.5v1223l-150 84v12l342 131v-152q50 69 132.5 109.5t179.5 40.5q199 0 329.5 -148.5t130.5 -394.5q0 -237 -138.5 -389t-348.5 -152q-89 0 -163 35.5t-122 98.5v-498q0 -42 13.5 -53.5t66.5 -12.5l123 -6v-47h-545zM612 967
q-136 0 -217 -93v-729q79 -90 213 -90q153 0 247.5 128t94.5 333q0 195 -94.5 323t-243.5 128z" />
    <glyph glyph-name="q" unicode="q" horiz-adv-x="1230" 
d="M551 -25q-199 0 -330 148.5t-131 394.5q0 236 139 388.5t349 152.5q100 0 179.5 -38t125.5 -101l157 137l15 -4v-1442q0 -42 14 -54.5t64 -13.5l71 -4v-47h-545v47l123 6q51 2 65.5 13.5t14.5 52.5v514q-53 -68 -134.5 -109t-176.5 -41zM307 520q0 -197 94.5 -323.5
t245.5 -126.5q140 0 215 92v721q-79 96 -213 96q-154 0 -248 -126.5t-94 -332.5z" />
    <glyph glyph-name="r" unicode="r" horiz-adv-x="851" 
d="M72 0v47l71 4q50 1 64 13.5t14 54.5v715l-149 84v12l342 131v-324q37 159 136.5 234.5t240.5 75.5h18v-195l-80 8q-315 21 -315 -235v-506q0 -42 13.5 -53.5t66.5 -12.5l110 -6v-47h-532z" />
    <glyph glyph-name="s" unicode="s" horiz-adv-x="966" 
d="M436 -25q-153 0 -276 35l-43 363h41l153 -291q21 -38 52.5 -47.5t97.5 -9.5q55 0 109.5 20.5t94.5 65.5t40 104q0 83 -53 128t-142 71l-123 32q-119 32 -189.5 114t-70.5 200q0 141 116 220t285 79q131 0 244 -45l49 -322h-43l-164 269q-17 28 -50 37.5t-83 9.5
q-84 0 -144.5 -46t-60.5 -126q0 -145 154 -187l125 -33q317 -83 317 -321q0 -139 -123.5 -229.5t-312.5 -90.5z" />
    <glyph glyph-name="t" unicode="t" horiz-adv-x="811" 
d="M420 924v-680q0 -89 34 -124.5t105 -35.5q105 0 191 45l18 -37q-51 -41 -144.5 -74.5t-181.5 -33.5q-114 0 -164.5 44.5t-50.5 161.5v734h-221v12l402 313h12v-221h397l-65 -104h-332z" />
    <glyph glyph-name="u" unicode="u" horiz-adv-x="1251" 
d="M512 -25q-157 0 -236 95.5t-79 314.5v561l-148 37v45h340v-608q0 -179 52.5 -253.5t164.5 -74.5q110 0 178 80t68 250v524l-145 37v45h337v-938h158v-45l-350 -63v276q-32 -139 -121 -211t-219 -72z" />
    <glyph glyph-name="v" unicode="v" horiz-adv-x="1161" 
d="M549 -23l-397 922q-21 46 -39 62.5t-62 17.5l-59 2v47h497v-47l-67 -2q-96 -3 -66 -74l291 -678l275 645q43 104 -60 107l-76 2v47h390v-47l-66 -2q-45 -1 -67 -20t-44 -66l-395 -916h-55z" />
    <glyph glyph-name="w" unicode="w" horiz-adv-x="1785" 
d="M549 -23l-397 922q-21 46 -39 62.5t-62 17.5l-59 2v47h497v-47l-67 -2q-96 -3 -66 -74l293 -678l215 494l-129 307h412v-47l-84 -2q-93 -3 -66 -74l277 -676l270 643q46 104 -59 107l-74 2v47h389v-47l-65 -2q-45 -1 -67 -20t-44 -66l-395 -916h-55l-279 668l-291 -668
h-55z" />
    <glyph glyph-name="x" unicode="x" horiz-adv-x="1259" 
d="M8 0v47l64 2q44 1 88 28t100 85l293 325l-322 414q-28 40 -53 58.5t-65 19.5l-60 2v47h514v-47l-65 -2q-48 -1 -60 -21t13 -51l219 -282l223 247q29 29 35.5 53.5t-8 38.5t-45.5 15l-76 2v47h424v-47l-64 -2q-43 -1 -85.5 -27t-98.5 -82l-266 -295l348 -448
q30 -40 55 -58.5t64 -19.5l57 -2v-47h-512v47l66 2q48 1 60 21t-13 51l-248 317l-254 -282q-42 -44 -35 -74.5t55 -32.5l76 -2v-47h-424z" />
    <glyph glyph-name="y" unicode="y" horiz-adv-x="1161" 
d="M289 -518q-45 0 -76 29t-31 73q0 58 57.5 106.5t188.5 71.5l109 238l-379 899q-21 46 -39 62.5t-62 17.5l-59 2v47h498v-47l-68 -2q-93 -3 -66 -74l281 -672l285 639q46 104 -60 107l-75 2v47h389v-47l-66 -2q-45 -1 -66.5 -19.5t-43.5 -66.5l-549 -1215
q-52 -116 -71 -143q-37 -53 -97 -53z" />
    <glyph glyph-name="z" unicode="z" horiz-adv-x="1081" 
d="M61 0l678 971h-323q-36 0 -55.5 -8.5t-36.5 -34.5l-201 -301h-37l96 401h811l-676 -971h336q36 0 55 9t42 38l235 306h39l-129 -410h-834z" />
    <glyph glyph-name="braceleft" unicode="{" horiz-adv-x="700" 
d="M649 -438l-8 -45q-61 9 -116 26t-107 46t-90 68t-65.5 91t-33.5 116.5t7 143.5l38 209q10 60 10 107t-13.5 83.5t-33.5 63.5t-51.5 46t-67 31t-79.5 19v49q67 11 114.5 33.5t82.5 64.5t43 103.5t-5 149.5l-38 209q-21 113 4.5 204t87.5 149t140.5 92.5t172.5 47.5l8 -45
q-317 -60 -248 -393l37 -180q20 -88 12.5 -158t-30.5 -121.5t-65 -88t-91 -58t-108 -31.5v-4q59 -10 108 -31.5t91 -58t65 -88t30.5 -121.5t-12.5 -158l-37 -180q-68 -331 248 -391z" />
    <glyph glyph-name="bar" unicode="|" horiz-adv-x="561" 
d="M219 -465v2130h123v-2130h-123z" />
    <glyph glyph-name="braceright" unicode="}" horiz-adv-x="700" 
d="M51 1622l8 45q93 -13 171.5 -47t141 -91.5t88.5 -148.5t5 -204l-39 -209q-15 -71 -9 -125.5t23.5 -93t52 -65.5t75.5 -43t94 -24v-49q-67 -11 -114.5 -33.5t-83 -64t-43.5 -103t5 -149.5l39 -209q19 -94 3 -169t-52 -131t-94.5 -96t-123.5 -63.5t-139 -33.5l-8 45
q317 60 248 393l-37 180q-20 88 -12.5 158t31 121.5t65.5 88t91 58t108 31.5v4q-59 10 -108 31.5t-91 58t-65.5 88t-31 121.5t12.5 158l37 180q68 331 -248 391z" />
    <glyph glyph-name="asciitilde" unicode="~" horiz-adv-x="1337" 
d="M422 670q59 0 116.5 -19.5t103 -47t89 -55.5t91.5 -47.5t93 -19.5q176 0 195 178h90q-8 -87 -50.5 -148t-102 -87.5t-129.5 -26.5q-54 0 -108 19.5t-98.5 47t-89 55.5t-96 47.5t-102.5 19.5q-176 0 -195 -178h-90q11 129 91.5 195.5t191.5 66.5z" />
    <glyph glyph-name="uni00A0" unicode="&#xa0;" horiz-adv-x="491" 
 />
    <glyph glyph-name="exclamdown" unicode="&#xa1;" horiz-adv-x="559" 
d="M250 590h61q7 -241 28.5 -432t39.5 -338t18 -307q0 -28 -58.5 -39.5t-116.5 0t-58 39.5q0 161 18 307t39.5 337t28.5 433zM272 1061q59 0 98.5 -39.5t39.5 -97.5q0 -56 -39.5 -96t-98.5 -40q-55 0 -94 40t-39 96q0 57 39 97t94 40z" />
    <glyph glyph-name="cent" unicode="&#xa2;" horiz-adv-x="1167" 
d="M569 -266v243q-206 18 -339.5 165.5t-133.5 373.5q0 213 135 362.5t338 174.5v258h66v-252h16q91 0 174.5 -26t139 -77.5t55.5 -117.5q0 -52 -37 -81.5t-96 -29.5q-13 0 -45 4q-20 243 -207 270v-897q30 -6 63 -6q274 0 342 326h47q-31 -224 -149 -334t-303 -115v-241
h-66zM305 629q-5 -174 66.5 -313.5t197.5 -192.5v883q-112 -8 -186 -104.5t-78 -272.5z" />
    <glyph glyph-name="sterling" unicode="&#xa3;" horiz-adv-x="1273" 
d="M76 0v8l237 211q110 98 153.5 170t43.5 146q0 66 -33 133h-340v75h301l-32 52l-78 118q-103 156 -103 273q0 155 197 287q171 114 364 114q151 0 240.5 -53t89.5 -133q0 -54 -45 -86.5t-117 -28.5q-28 105 -105 159t-175 54q-111 0 -182 -47q-107 -68 -107 -156
q0 -46 26.5 -103t88.5 -153l73 -114q76 -114 93 -183h389v-75h-381q0 -63 -16.5 -116t-74.5 -129t-163 -167l-107 -92h875l-41 -164h-1071z" />
    <glyph glyph-name="yen" unicode="&#xa5;" horiz-adv-x="1712" 
d="M326 385v76h434v155h-434v76h434v8l-508 734q-26 38 -44 50.5t-61 16.5l-90 6v45h586v-45l-102 -6q-35 -3 -53 -9.5t-26 -20.5t11 -37l449 -652l452 652q12 17 12.5 29.5t-10.5 19.5t-27.5 11.5t-41.5 6.5l-103 6v45h451v-45l-90 -6q-45 -4 -61.5 -16t-43.5 -51
l-508 -734v-8h434v-76h-434v-155h434v-76h-434v-262q0 -71 90 -74l93 -2v-47h-557v47l92 2q90 3 90 74v262h-434z" />
    <glyph glyph-name="brokenbar" unicode="&#xa6;" horiz-adv-x="561" 
d="M219 825v840h123v-840h-123zM219 -465v840h123v-840h-123z" />
    <glyph glyph-name="section" unicode="&#xa7;" horiz-adv-x="1300" 
d="M553 362l-152 152q-158 158 -224 277.5t-66 265.5q0 104 46.5 200.5t128.5 169.5t201.5 116.5t257.5 43.5q190 0 311.5 -81t121.5 -179q0 -68 -53.5 -102.5t-143.5 -14.5q-37 312 -305 312q-118 0 -182 -59t-64 -144q0 -94 68.5 -199.5t222.5 -259.5l151 -151
q87 -87 141.5 -149.5t104.5 -136t73 -146t23 -150.5q0 -142 -84.5 -264t-227.5 -193t-308 -71q-107 0 -203 27.5t-160.5 71t-102.5 97t-38 105.5q0 63 61 98t144 18q58 -360 326 -360q124 0 187.5 60t63.5 157q0 56 -20 111.5t-66.5 118t-97 118.5t-135.5 141zM846 -299
q128 63 197 161t69 216q0 131 -77 258.5t-238 288.5l-160 159q-158 158 -224.5 270t-66.5 214q0 128 105 211q-248 -125 -248 -373q0 -125 65.5 -245t214.5 -269l158 -158q168 -168 242.5 -284.5t74.5 -225.5q0 -62 -30 -124t-82 -99z" />
    <glyph glyph-name="dieresis" unicode="&#xa8;" 
d="M238 1315q-54 0 -93 39.5t-39 93.5q0 51 39 90t93 39t92.5 -38.5t38.5 -90.5q0 -54 -38.5 -93.5t-92.5 -39.5zM-238 1315q-54 0 -92.5 39.5t-38.5 93.5q0 52 38.5 90.5t92.5 38.5t93 -39t39 -90q0 -54 -39 -93.5t-93 -39.5z" />
    <glyph glyph-name="copyright" unicode="&#xa9;" horiz-adv-x="1802" 
d="M901 -25q-170 0 -319.5 61t-255.5 167t-167 255.5t-61 321.5t61 322.5t167 256.5t255 167t320 61q226 0 409.5 -103.5t288.5 -288.5t105 -415q0 -229 -105 -413.5t-288.5 -288t-409.5 -103.5zM901 43q147 0 278.5 52t229.5 146t155.5 233.5t57.5 305.5t-57.5 306.5
t-155.5 234.5t-229.5 146.5t-278.5 52.5t-278.5 -52.5t-229.5 -146.5t-155.5 -234.5t-57.5 -306.5t57.5 -305.5t155.5 -233.5t229.5 -146t278.5 -52zM930 334q-220 0 -362 126.5t-142 332.5q0 207 143 332.5t367 125.5q163 0 274 -51l52 -270h-13l-135 203q-25 36 -55 51
q-43 24 -129 24q-67 0 -127.5 -22t-111.5 -66.5t-81 -121.5t-30 -177q0 -193 95.5 -317.5t266.5 -124.5q85 0 131 24q31 16 55 52l138 202h12l-61 -272q-111 -51 -287 -51z" />
    <glyph glyph-name="ordfeminine" unicode="&#xaa;" horiz-adv-x="987" 
d="M371 725q-114 0 -187 68.5t-73 162.5q0 42 17.5 77t42 57.5t65 43t72 32t77.5 26.5q17 5 25 8q51 18 85 32.5t58 29.5t37 27t20.5 30t9 33.5t1.5 42.5q0 73 -38 117t-116 44q-103 0 -151 -73t-23 -191q-34 -10 -72 -10q-47 0 -72.5 20t-25.5 48q0 47 43.5 94t114.5 84
q148 76 256 76q128 0 187 -61.5t58 -209.5l-4 -510h119v-39l-262 -51l-12 180q-58 -188 -252 -188zM440 799q71 0 124.5 57t53.5 174l3 242q-15 -12 -33 -22.5t-28 -15.5t-40 -18.5t-39 -17.5q-96 -46 -143 -95.5t-47 -125.5q0 -71 40.5 -124.5t108.5 -53.5z" />
    <glyph glyph-name="guillemotleft" unicode="&#xab;" horiz-adv-x="1112" 
d="M268 518l312 -442l-21 -19l-469 463l469 461l21 -16zM690 518l311 -442l-20 -19l-469 463l469 461l20 -16z" />
    <glyph glyph-name="uni00AD" unicode="&#xad;" horiz-adv-x="880" 
d="M139 481v109h602v-109h-602z" />
    <glyph glyph-name="registered" unicode="&#xae;" horiz-adv-x="1802" 
d="M901 -25q-170 0 -319.5 61t-255.5 167t-167 255.5t-61 321.5t61 322.5t167 256.5t255 167t320 61q226 0 409.5 -103.5t288.5 -288.5t105 -415q0 -229 -105 -413.5t-288.5 -288t-409.5 -103.5zM901 43q147 0 278.5 52t229.5 146t155.5 233.5t57.5 305.5t-57.5 306.5
t-155.5 234.5t-229.5 146.5t-278.5 52.5t-278.5 -52.5t-229.5 -146.5t-155.5 -234.5t-57.5 -306.5t57.5 -305.5t155.5 -233.5t229.5 -146t278.5 -52zM502 367v34l47 5q19 3 26 4.5t16.5 6.5t12 13.5t2.5 22.5v708q0 27 -12 35.5t-45 13.5l-47 4v33h344q85 0 150 -10.5
t116 -34t78 -66t27 -102.5q0 -86 -61.5 -142.5t-178.5 -76.5l391 -448h-170l-369 432h-86v-346q0 -27 12 -34.5t46 -12.5l47 -5v-34h-346zM743 842h95q225 0 225 182q0 180 -225 180h-95v-362z" />
    <glyph glyph-name="macron" unicode="&#xaf;" 
d="M-305 1368v92h610v-92h-610z" />
    <glyph glyph-name="degree" unicode="&#xb0;" horiz-adv-x="884" 
d="M442 895q-147 0 -247.5 100.5t-100.5 245.5t100.5 245.5t247.5 100.5t248 -100.5t101 -245.5t-101 -245.5t-248 -100.5zM442 973q108 0 183 74t75 194q0 118 -75.5 193t-182.5 75t-182.5 -75t-75.5 -193q0 -120 75 -194t183 -74z" />
    <glyph glyph-name="plusminus" unicode="&#xb1;" horiz-adv-x="1337" 
d="M616 213v383h-464v102h464v375h107v-375h463v-102h-463v-383h-107zM152 0v102h1034v-102h-1034z" />
    <glyph glyph-name="twosuperior" unicode="&#xb2;" horiz-adv-x="702" 
d="M29 821v4q231 234 332.5 380.5t101.5 267.5q0 70 -39 111.5t-111 41.5q-76 0 -127 -50.5t-57 -150.5h-35q4 131 80 203t193 72q115 0 176 -59t61 -144q0 -52 -24.5 -107.5t-77 -118.5t-105.5 -115.5t-139 -131.5l-94 -86h295q64 0 86 8t35 41l28 68h33l-61 -234h-551z
" />
    <glyph glyph-name="threesuperior" unicode="&#xb3;" horiz-adv-x="706" 
d="M272 803q-94 0 -156.5 43.5t-62.5 101.5q0 35 29.5 59.5t75.5 14.5q39 -170 170 -170q74 0 128 49.5t54 145.5q0 100 -61 160.5t-138 60.5q-51 0 -88 -21l-14 37l31 12q99 39 156 95t57 120q0 55 -36.5 85t-97.5 30q-67 0 -117 -38.5t-61 -123.5h-32q11 116 79 176
t189 60q87 0 146 -41.5t59 -106.5q0 -121 -181 -170v-4q103 -23 167.5 -93.5t64.5 -162.5t-54.5 -167t-136.5 -113.5t-170 -38.5z" />
    <glyph glyph-name="acute" unicode="&#xb4;" 
d="M-209 1223l223 366h215v-14l-397 -352h-41z" />
    <glyph glyph-name="paragraph" unicode="&#xb6;" horiz-adv-x="1193" 
d="M596 -424v1012q-14 -2 -41 -2q-226 0 -356.5 124.5t-130.5 329.5q0 109 45 202t129 162t213 108.5t290 39.5h353v-53l-90 -4q-50 -2 -72.5 -17.5t-22.5 -56.5v-1597l-133 -105v906q-70 -22 -116 -31v-965z" />
    <glyph glyph-name="periodcentered" unicode="&#xb7;" horiz-adv-x="552" 
d="M274 399q-55 0 -94 40.5t-39 97.5q0 56 39 95.5t94 39.5q59 0 98.5 -39.5t39.5 -95.5q0 -58 -39.5 -98t-98.5 -40z" />
    <glyph glyph-name="cedilla" unicode="&#xb8;" 
d="M-39 -526q-73 0 -128.5 32t-55.5 82q0 26 22 43t56 11q1 -59 37.5 -91t97.5 -32q46 0 79 19.5t33 55.5q0 45 -60.5 85.5t-176.5 91.5l227 235h62l-166 -172q104 -52 147 -92t43 -102q0 -68 -60 -117t-157 -49z" />
    <glyph glyph-name="onesuperior" unicode="&#xb9;" horiz-adv-x="499" 
d="M207 907v680l-158 -63v47l291 121v-785q0 -44 47 -47l59 -4v-35h-348v37l62 4q29 1 38 10.5t9 34.5z" />
    <glyph glyph-name="ordmasculine" unicode="&#xba;" horiz-adv-x="1048" 
d="M522 725q-182 0 -307 123.5t-125 310.5q0 130 61.5 232.5t160.5 156.5t214 54q182 0 307 -123.5t125 -309.5q0 -130 -61.5 -233t-160.5 -157t-214 -54zM524 778q107 0 175.5 95t68.5 292t-68.5 292t-175.5 95q-109 0 -177 -94.5t-68 -292.5t68 -292.5t177 -94.5z" />
    <glyph glyph-name="guillemotright" unicode="&#xbb;" horiz-adv-x="1112" 
d="M111 76l311 442l-311 447l20 16l469 -461l-469 -463zM532 76l312 442l-312 447l21 16l469 -461l-469 -463z" />
    <glyph glyph-name="onequarter" unicode="&#xbc;" horiz-adv-x="1615" 
d="M207 784v680l-158 -63v47l291 121v-785q0 -44 47 -47l59 -4v-35h-348v37l62 4q29 1 38 10.5t9 34.5zM45 0l1159 1552h125l-1159 -1552h-125zM1280 0v221h-442l456 633h119v-537h156v-96h-156v-221h-133zM958 317h322v437z" />
    <glyph glyph-name="onehalf" unicode="&#xbd;" horiz-adv-x="1570" 
d="M207 784v680l-158 -63v47l291 121v-785q0 -44 47 -47l59 -4v-35h-348v37l62 4q29 1 38 10.5t9 34.5zM45 0l1159 1552h125l-1159 -1552h-125zM897 0v4q231 234 332.5 380t101.5 267q0 71 -38.5 112.5t-110.5 41.5q-77 0 -128 -51t-57 -150h-34q4 131 79.5 203t192.5 72
q115 0 176.5 -59.5t61.5 -143.5q0 -52 -24.5 -107.5t-77.5 -118.5t-105.5 -115.5t-139.5 -131.5l-94 -86h295q64 0 86 8t35 41l29 67h32l-61 -233h-551z" />
    <glyph glyph-name="threequarters" unicode="&#xbe;" horiz-adv-x="1822" 
d="M272 680q-94 0 -156.5 43.5t-62.5 101.5q0 35 29.5 59.5t75.5 14.5q39 -170 170 -170q74 0 128 49.5t54 145.5q0 100 -61 160.5t-138 60.5q-51 0 -88 -21l-14 37l31 13q99 39 156 95t57 120q0 54 -36.5 84t-97.5 30q-67 0 -117 -38.5t-61 -123.5h-32q11 116 79 176
t189 60q88 0 146.5 -41t58.5 -106q0 -121 -181 -170v-5q103 -23 167.5 -93.5t64.5 -162.5t-54.5 -167t-136.5 -113.5t-170 -38.5zM252 0l1159 1552h125l-1159 -1552h-125zM1487 0v221h-443l457 633h119v-537h156v-96h-156v-221h-133zM1165 317h322v437z" />
    <glyph glyph-name="questiondown" unicode="&#xbf;" horiz-adv-x="1144" 
d="M588 -467q137 0 222 64.5t95 195.5q33 0 63 -5.5t56.5 -17.5t42.5 -34.5t16 -52.5q0 -78 -123.5 -146.5t-306.5 -68.5q-264 0 -422.5 136t-158.5 349q0 147 94 234t274 114l193 29q50 8 65 22t15 62l4 186h47l33 -303q6 -52 0.5 -83.5t-28 -50t-50 -26t-78.5 -14.5
l-209 -31q-136 -20 -196 -74.5t-60 -154.5q0 -134 121.5 -232t290.5 -98zM735 1061q55 0 94 -40t39 -97q0 -56 -39 -96t-94 -40q-59 0 -98 40t-39 96q0 58 39 97.5t98 39.5z" />
    <glyph glyph-name="Agrave" unicode="&#xc0;" horiz-adv-x="1564" 
d="M799 1626l602 -1501q17 -38 38 -51.5t68 -18.5l90 -6v-49h-591v49l102 6q52 5 68.5 19t-0.5 51l-177 446h-579l-176 -446q-17 -37 -1 -51t68 -19l103 -6v-49h-447v49l90 6q45 5 66.5 18.5t38.5 51.5l604 1501h33zM453 653h516l-258 656zM877 1718h-41l-457 269v4h260z
" />
    <glyph glyph-name="Aacute" unicode="&#xc1;" horiz-adv-x="1564" 
d="M799 1626l602 -1501q17 -38 38 -51.5t68 -18.5l90 -6v-49h-591v49l102 6q52 5 68.5 19t-0.5 51l-177 446h-579l-176 -446q-17 -37 -1 -51t68 -19l103 -6v-49h-447v49l90 6q45 5 66.5 18.5t38.5 51.5l604 1501h33zM453 653h516l-258 656zM725 1718l238 273h260v-4
l-457 -269h-41z" />
    <glyph glyph-name="Acircumflex" unicode="&#xc2;" horiz-adv-x="1564" 
d="M799 1626l602 -1501q17 -38 38 -51.5t68 -18.5l90 -6v-49h-591v49l102 6q52 5 68.5 19t-0.5 51l-177 446h-579l-176 -446q-17 -37 -1 -51t68 -19l103 -6v-49h-447v49l90 6q45 5 66.5 18.5t38.5 51.5l604 1501h33zM453 653h516l-258 656zM449 1706l321 309h25l321 -309
h-39l-295 147l-295 -147h-38z" />
    <glyph glyph-name="Atilde" unicode="&#xc3;" horiz-adv-x="1564" 
d="M799 1626l602 -1501q17 -38 38 -51.5t68 -18.5l90 -6v-49h-591v49l102 6q52 5 68.5 19t-0.5 51l-177 446h-579l-176 -446q-17 -37 -1 -51t68 -19l103 -6v-49h-447v49l90 6q45 5 66.5 18.5t38.5 51.5l604 1501h33zM453 653h516l-258 656zM942 1704q-39 0 -77.5 14.5
t-69 35t-59.5 40.5t-62 34.5t-64 14.5q-105 0 -114 -127h-35q0 113 44.5 192t127.5 79q42 0 88 -22t79.5 -48t76.5 -48t81 -22q48 0 77.5 30t33.5 89h35q-1 -127 -48 -194.5t-114 -67.5z" />
    <glyph glyph-name="Adieresis" unicode="&#xc4;" horiz-adv-x="1564" 
d="M799 1626l602 -1501q17 -38 38 -51.5t68 -18.5l90 -6v-49h-591v49l102 6q52 5 68.5 19t-0.5 51l-177 446h-579l-176 -446q-17 -37 -1 -51t68 -19l103 -6v-49h-447v49l90 6q45 5 66.5 18.5t38.5 51.5l604 1501h33zM453 653h516l-258 656zM545 1749q-54 0 -92.5 38.5
t-38.5 92.5q0 52 39 91.5t92 39.5t92 -39.5t39 -91.5q0 -54 -38.5 -92.5t-92.5 -38.5zM1020 1749q-54 0 -92.5 38.5t-38.5 92.5q0 52 39 91.5t92 39.5t92 -39.5t39 -91.5q0 -54 -38.5 -92.5t-92.5 -38.5z" />
    <glyph glyph-name="Aring" unicode="&#xc5;" horiz-adv-x="1564" 
d="M799 1626l602 -1501q17 -38 38 -51.5t68 -18.5l90 -6v-49h-591v49l102 6q52 5 68.5 19t-0.5 51l-177 446h-579l-176 -446q-17 -37 -1 -51t68 -19l103 -6v-49h-447v49l90 6q45 5 66.5 18.5t38.5 51.5l604 1501h33zM453 653h516l-258 656zM782 1710q-98 0 -166.5 66
t-68.5 163q0 94 69 162t166 68q99 0 169.5 -68t70.5 -162q0 -98 -69.5 -163.5t-170.5 -65.5zM782 1784q69 0 112.5 43t43.5 112q0 67 -43.5 109.5t-112.5 42.5q-68 0 -110.5 -42.5t-42.5 -109.5q0 -69 42.5 -112t110.5 -43z" />
    <glyph glyph-name="AE" unicode="&#xc6;" horiz-adv-x="2416" 
d="M993 0v49l92 6q49 5 71 19.5t22 54.5v442h-598l-312 -446q-26 -35 -21.5 -50.5t50.5 -19.5l102 -6v-49h-450v49l88 6q102 6 145 70l996 1427h956l70 -454h-21l-227 356q-13 23 -22.5 28t-35.5 5h-512v-641h308q23 0 29.5 5t13.5 21l98 242h20v-608h-20l-98 239
q-6 18 -12.5 22.5t-30.5 4.5h-308v-706h611q25 0 34 4.5t23 23.5l297 365h21l-140 -459h-1239zM637 653h541v777z" />
    <glyph glyph-name="Ccedilla" unicode="&#xc7;" horiz-adv-x="1677" 
d="M981 -25q-257 0 -456.5 97t-313 280.5t-113.5 427.5q0 245 114.5 429t316.5 281t462 97q139 0 271.5 -22.5t220.5 -69.5l86 -444h-37l-232 372q-24 36 -42 51t-54 25q-80 23 -221 23q-103 0 -196 -24t-176.5 -78.5t-144.5 -134.5t-96.5 -199t-35.5 -265
q0 -227 77.5 -402.5t229.5 -276.5t358 -101q145 0 222 22q36 10 54 25t42 51l231 373h37l-86 -444q-88 -46 -231 -69.5t-287 -23.5zM842 -532q-74 0 -129.5 32t-55.5 82q0 26 22 40.5t56 8.5q1 -57 40.5 -87.5t94.5 -30.5q48 0 79.5 22.5t31.5 58.5q0 41 -60.5 80.5
t-175.5 89.5l228 236h67l-168 -172q102 -52 144.5 -92.5t42.5 -102.5q0 -68 -60 -116.5t-157 -48.5z" />
    <glyph glyph-name="Egrave" unicode="&#xc8;" horiz-adv-x="1536" 
d="M113 0v49l92 6q49 5 70.5 19.5t21.5 54.5v1294q0 40 -21.5 54.5t-70.5 19.5l-92 6v49h1140l68 -454h-37l-209 356q-12 23 -22 28t-37 5h-512v-641h307q26 0 33 4.5t12 21.5l82 242h37v-608h-37l-82 239q-6 18 -13 22.5t-32 4.5h-307v-706h612q25 0 35 4.5t23 23.5
l280 365h37l-139 -459h-1239zM883 1718h-41l-457 269v4h260z" />
    <glyph glyph-name="Eacute" unicode="&#xc9;" horiz-adv-x="1536" 
d="M113 0v49l92 6q49 5 70.5 19.5t21.5 54.5v1294q0 40 -21.5 54.5t-70.5 19.5l-92 6v49h1140l68 -454h-37l-209 356q-12 23 -22 28t-37 5h-512v-641h307q26 0 33 4.5t12 21.5l82 242h37v-608h-37l-82 239q-6 18 -13 22.5t-32 4.5h-307v-706h612q25 0 35 4.5t23 23.5
l280 365h37l-139 -459h-1239zM731 1718l238 273h260v-4l-457 -269h-41z" />
    <glyph glyph-name="Ecircumflex" unicode="&#xca;" horiz-adv-x="1536" 
d="M113 0v49l92 6q49 5 70.5 19.5t21.5 54.5v1294q0 40 -21.5 54.5t-70.5 19.5l-92 6v49h1140l68 -454h-37l-209 356q-12 23 -22 28t-37 5h-512v-641h307q26 0 33 4.5t12 21.5l82 242h37v-608h-37l-82 239q-6 18 -13 22.5t-32 4.5h-307v-706h612q25 0 35 4.5t23 23.5
l280 365h37l-139 -459h-1239zM455 1706l321 309h25l321 -309h-39l-295 147l-294 -147h-39z" />
    <glyph glyph-name="Edieresis" unicode="&#xcb;" horiz-adv-x="1536" 
d="M113 0v49l92 6q49 5 70.5 19.5t21.5 54.5v1294q0 40 -21.5 54.5t-70.5 19.5l-92 6v49h1140l68 -454h-37l-209 356q-12 23 -22 28t-37 5h-512v-641h307q26 0 33 4.5t12 21.5l82 242h37v-608h-37l-82 239q-6 18 -13 22.5t-32 4.5h-307v-706h612q25 0 35 4.5t23 23.5
l280 365h37l-139 -459h-1239zM551 1749q-54 0 -92.5 38.5t-38.5 92.5q0 52 39 91.5t92 39.5t92 -39.5t39 -91.5q0 -54 -38.5 -92.5t-92.5 -38.5zM1026 1749q-54 0 -92.5 38.5t-38.5 92.5q0 52 39 91.5t92 39.5t92 -39.5t39 -91.5q0 -54 -38.5 -92.5t-92.5 -38.5z" />
    <glyph glyph-name="Igrave" unicode="&#xcc;" horiz-adv-x="800" 
d="M113 0v49l92 6q49 5 70.5 19.5t21.5 54.5v1294q0 40 -21.5 54.5t-70.5 19.5l-92 6v49h577v-49l-92 -6q-52 -5 -73 -19.5t-21 -54.5v-1294q0 -40 21 -54.5t73 -19.5l92 -6v-49h-577zM496 1718h-41l-457 269v4h260z" />
    <glyph glyph-name="Iacute" unicode="&#xcd;" horiz-adv-x="800" 
d="M113 0v49l92 6q49 5 70.5 19.5t21.5 54.5v1294q0 40 -21.5 54.5t-70.5 19.5l-92 6v49h577v-49l-92 -6q-52 -5 -73 -19.5t-21 -54.5v-1294q0 -40 21 -54.5t73 -19.5l92 -6v-49h-577zM344 1718l238 273h260v-4l-457 -269h-41z" />
    <glyph glyph-name="Icircumflex" unicode="&#xce;" horiz-adv-x="800" 
d="M113 0v49l92 6q49 5 70.5 19.5t21.5 54.5v1294q0 40 -21.5 54.5t-70.5 19.5l-92 6v49h577v-49l-92 -6q-52 -5 -73 -19.5t-21 -54.5v-1294q0 -40 21 -54.5t73 -19.5l92 -6v-49h-577zM68 1706l321 309h25l321 -309h-39l-295 147l-295 -147h-38z" />
    <glyph glyph-name="Idieresis" unicode="&#xcf;" horiz-adv-x="800" 
d="M113 0v49l92 6q49 5 70.5 19.5t21.5 54.5v1294q0 40 -21.5 54.5t-70.5 19.5l-92 6v49h577v-49l-92 -6q-52 -5 -73 -19.5t-21 -54.5v-1294q0 -40 21 -54.5t73 -19.5l92 -6v-49h-577zM164 1749q-54 0 -92.5 38.5t-38.5 92.5q0 52 39 91.5t92 39.5t92 -39.5t39 -91.5
q0 -54 -38.5 -92.5t-92.5 -38.5zM639 1749q-54 0 -92.5 38.5t-38.5 92.5q0 52 39 91.5t92 39.5t92 -39.5t39 -91.5q0 -54 -38.5 -92.5t-92.5 -38.5z" />
    <glyph glyph-name="Eth" unicode="&#xd0;" horiz-adv-x="1755" 
d="M133 0v49l92 6q49 5 70.5 19.5t21.5 54.5v1294q0 40 -21.5 54.5t-70.5 19.5l-92 6v49h569q161 0 301.5 -27.5t261 -87.5t206.5 -148.5t135 -217t49 -285.5t-48.5 -287.5t-134.5 -222t-204.5 -154.5t-258 -92.5t-296.5 -29.5h-580zM524 63h178q161 0 288 37.5t224.5 116.5
t150 212t52.5 314q0 746 -723 746h-170v-1426zM133 774v82h772v-82h-772z" />
    <glyph glyph-name="Ntilde" unicode="&#xd1;" horiz-adv-x="1808" 
d="M119 0v49l92 6q51 5 71.5 19.5t20.5 54.5v1208l-186 211v4h270l1065 -1192v1063q0 40 -21 54.5t-73 19.5l-92 6v49h450v-49l-92 -6q-51 -5 -71.5 -19.5t-20.5 -54.5v-1462h-8l-1141 1286v-1118q0 -40 21 -54.5t73 -19.5l90 -6v-49h-448zM1087 1704q-39 0 -77.5 14.5
t-68.5 35t-59 40.5t-62 34.5t-64 14.5q-106 0 -115 -127h-35q0 113 44.5 192t127.5 79q42 0 88.5 -22t80 -48t76.5 -48t81 -22q48 0 77 30t33 89h35q-1 -127 -48 -194.5t-114 -67.5z" />
    <glyph glyph-name="Ograve" unicode="&#xd2;" horiz-adv-x="1830" 
d="M915 -25q-168 0 -317.5 58.5t-260 162t-175 255.5t-64.5 329q0 178 64.5 330t175 256t260 162.5t317.5 58.5t318 -58.5t260.5 -162.5t175 -256t64.5 -330q0 -177 -64.5 -329t-175 -255.5t-260.5 -162t-318 -58.5zM915 43q125 0 231 50t183.5 142t121.5 232.5t44 312.5
q0 174 -44 314.5t-121.5 233.5t-183.5 142.5t-231 49.5q-257 0 -419 -197t-162 -543q0 -172 44 -312t121.5 -232.5t184 -142.5t231.5 -50zM1010 1718h-41l-457 269v4h260z" />
    <glyph glyph-name="Oacute" unicode="&#xd3;" horiz-adv-x="1830" 
d="M915 -25q-168 0 -317.5 58.5t-260 162t-175 255.5t-64.5 329q0 178 64.5 330t175 256t260 162.5t317.5 58.5t318 -58.5t260.5 -162.5t175 -256t64.5 -330q0 -177 -64.5 -329t-175 -255.5t-260.5 -162t-318 -58.5zM915 43q125 0 231 50t183.5 142t121.5 232.5t44 312.5
q0 174 -44 314.5t-121.5 233.5t-183.5 142.5t-231 49.5q-257 0 -419 -197t-162 -543q0 -172 44 -312t121.5 -232.5t184 -142.5t231.5 -50zM858 1718l238 273h260v-4l-457 -269h-41z" />
    <glyph glyph-name="Ocircumflex" unicode="&#xd4;" horiz-adv-x="1830" 
d="M915 -25q-168 0 -317.5 58.5t-260 162t-175 255.5t-64.5 329q0 178 64.5 330t175 256t260 162.5t317.5 58.5t318 -58.5t260.5 -162.5t175 -256t64.5 -330q0 -177 -64.5 -329t-175 -255.5t-260.5 -162t-318 -58.5zM915 43q125 0 231 50t183.5 142t121.5 232.5t44 312.5
q0 174 -44 314.5t-121.5 233.5t-183.5 142.5t-231 49.5q-257 0 -419 -197t-162 -543q0 -172 44 -312t121.5 -232.5t184 -142.5t231.5 -50zM582 1706l321 309h25l321 -309h-39l-295 147l-294 -147h-39z" />
    <glyph glyph-name="Otilde" unicode="&#xd5;" horiz-adv-x="1830" 
d="M915 -25q-168 0 -317.5 58.5t-260 162t-175 255.5t-64.5 329q0 178 64.5 330t175 256t260 162.5t317.5 58.5t318 -58.5t260.5 -162.5t175 -256t64.5 -330q0 -177 -64.5 -329t-175 -255.5t-260.5 -162t-318 -58.5zM915 43q125 0 231 50t183.5 142t121.5 232.5t44 312.5
q0 174 -44 314.5t-121.5 233.5t-183.5 142.5t-231 49.5q-257 0 -419 -197t-162 -543q0 -172 44 -312t121.5 -232.5t184 -142.5t231.5 -50zM1075 1704q-39 0 -77.5 14.5t-69 35t-59.5 40.5t-62 34.5t-64 14.5q-105 0 -114 -127h-35q0 113 44.5 192t127.5 79q42 0 88.5 -22
t80 -48t76.5 -48t81 -22q48 0 77 30t33 89h35q-1 -127 -48 -194.5t-114 -67.5z" />
    <glyph glyph-name="Odieresis" unicode="&#xd6;" horiz-adv-x="1830" 
d="M915 -25q-168 0 -317.5 58.5t-260 162t-175 255.5t-64.5 329q0 178 64.5 330t175 256t260 162.5t317.5 58.5t318 -58.5t260.5 -162.5t175 -256t64.5 -330q0 -177 -64.5 -329t-175 -255.5t-260.5 -162t-318 -58.5zM915 43q125 0 231 50t183.5 142t121.5 232.5t44 312.5
q0 174 -44 314.5t-121.5 233.5t-183.5 142.5t-231 49.5q-257 0 -419 -197t-162 -543q0 -172 44 -312t121.5 -232.5t184 -142.5t231.5 -50zM678 1749q-54 0 -92.5 38.5t-38.5 92.5q0 52 39 91.5t92 39.5t92 -39.5t39 -91.5q0 -54 -38.5 -92.5t-92.5 -38.5zM1153 1749
q-54 0 -92.5 38.5t-38.5 92.5q0 52 39 91.5t92 39.5t92 -39.5t39 -91.5q0 -54 -38.5 -92.5t-92.5 -38.5z" />
    <glyph glyph-name="multiply" unicode="&#xd7;" horiz-adv-x="1337" 
d="M274 66l-73 71l395 395l-395 398l73 71l396 -395l395 395l72 -71l-396 -395l396 -398l-72 -74l-395 398z" />
    <glyph glyph-name="Oslash" unicode="&#xd8;" horiz-adv-x="1830" 
d="M915 -25q-168 0 -317.5 58.5t-260 162t-175 255.5t-64.5 329q0 178 64.5 330t175 256t260 162.5t317.5 58.5t318 -58.5t260.5 -162.5t175 -256t64.5 -330q0 -177 -64.5 -329t-175 -255.5t-260.5 -162t-318 -58.5zM915 43q125 0 231 50t183.5 142t121.5 232.5t44 312.5
q0 174 -44 314.5t-121.5 233.5t-183.5 142.5t-231 49.5q-257 0 -419 -197t-162 -543q0 -172 44 -312t121.5 -232.5t184 -142.5t231.5 -50zM162 -139l-64 55l1571 1788l64 -55z" />
    <glyph glyph-name="Ugrave" unicode="&#xd9;" horiz-adv-x="1763" 
d="M889 -25q-637 0 -637 631v817q0 40 -21.5 54.5t-70.5 19.5l-92 6v49h577v-49l-92 -6q-49 -5 -70.5 -19.5t-21.5 -54.5v-821q0 -272 117 -400t364 -128q250 0 371 137t121 410v802q0 40 -21 54.5t-72 19.5l-92 6v49h449v-49l-90 -6q-52 -5 -73.5 -19.5t-21.5 -54.5v-815
q0 -312 -158 -472.5t-466 -160.5zM1042 1718h-41l-456 269v4h260z" />
    <glyph glyph-name="Uacute" unicode="&#xda;" horiz-adv-x="1763" 
d="M889 -25q-637 0 -637 631v817q0 40 -21.5 54.5t-70.5 19.5l-92 6v49h577v-49l-92 -6q-49 -5 -70.5 -19.5t-21.5 -54.5v-821q0 -272 117 -400t364 -128q250 0 371 137t121 410v802q0 40 -21 54.5t-72 19.5l-92 6v49h449v-49l-90 -6q-52 -5 -73.5 -19.5t-21.5 -54.5v-815
q0 -312 -158 -472.5t-466 -160.5zM891 1718l237 273h261v-4l-457 -269h-41z" />
    <glyph glyph-name="Ucircumflex" unicode="&#xdb;" horiz-adv-x="1763" 
d="M889 -25q-637 0 -637 631v817q0 40 -21.5 54.5t-70.5 19.5l-92 6v49h577v-49l-92 -6q-49 -5 -70.5 -19.5t-21.5 -54.5v-821q0 -272 117 -400t364 -128q250 0 371 137t121 410v802q0 40 -21 54.5t-72 19.5l-92 6v49h449v-49l-90 -6q-52 -5 -73.5 -19.5t-21.5 -54.5v-815
q0 -312 -158 -472.5t-466 -160.5zM614 1706l322 309h25l321 -309h-39l-295 147l-295 -147h-39z" />
    <glyph glyph-name="Udieresis" unicode="&#xdc;" horiz-adv-x="1763" 
d="M889 -25q-637 0 -637 631v817q0 40 -21.5 54.5t-70.5 19.5l-92 6v49h577v-49l-92 -6q-49 -5 -70.5 -19.5t-21.5 -54.5v-821q0 -272 117 -400t364 -128q250 0 371 137t121 410v802q0 40 -21 54.5t-72 19.5l-92 6v49h449v-49l-90 -6q-52 -5 -73.5 -19.5t-21.5 -54.5v-815
q0 -312 -158 -472.5t-466 -160.5zM711 1749q-54 0 -92.5 38.5t-38.5 92.5q0 52 39 91.5t92 39.5t92 -39.5t39 -91.5q0 -54 -38.5 -92.5t-92.5 -38.5zM1186 1749q-54 0 -92.5 38.5t-38.5 92.5q0 52 39 91.5t92 39.5t92 -39.5t39 -91.5q0 -54 -38.5 -92.5t-92.5 -38.5z" />
    <glyph glyph-name="Yacute" unicode="&#xdd;" horiz-adv-x="1576" 
d="M471 0v51l123 6q48 2 70 17t22 55v571l-508 727q-27 40 -44.5 53t-59.5 17l-90 6v49h594v-49l-103 -6q-109 -10 -67 -70l452 -649l455 649q13 18 13.5 30.5t-11 20.5t-28 12.5t-42.5 6.5l-102 6v49h450v-49l-90 -6q-41 -4 -58.5 -17.5t-45.5 -52.5l-508 -727v-571
q0 -40 21 -53.5t73 -18.5l123 -6v-51h-639zM791 1718l237 273h260v-4l-457 -269h-40z" />
    <glyph glyph-name="Thorn" unicode="&#xde;" horiz-adv-x="1501" 
d="M113 0v49l92 6q49 5 70.5 19.5t21.5 54.5v1294q0 40 -21.5 54.5t-70.5 19.5l-92 6v49h577v-49l-92 -6q-52 -5 -73 -19.5t-21 -54.5v-231h264q115 0 207 -10.5t177.5 -38t143 -72.5t91.5 -118.5t34 -170.5q0 -98 -34 -173t-91.5 -122t-142.5 -76.5t-178 -41t-207 -11.5
h-264v-229q0 -41 22 -55.5t72 -16.5l176 -6v-51h-661zM504 1130v-708h246q218 0 329 81t111 271q0 191 -111.5 273.5t-328.5 82.5h-246z" />
    <glyph glyph-name="germandbls" unicode="&#xdf;" horiz-adv-x="1396" 
d="M883 -25q-166 0 -262.5 65t-96.5 142q0 50 43 82t109 19q19 -118 78 -186t178 -68q103 0 174.5 56t71.5 155q0 80 -58.5 146.5t-199.5 166.5l-70 49q-128 90 -182 152.5t-54 132.5q0 56 36.5 101t115.5 99l51 35q73 49 111.5 101t38.5 120q0 95 -66.5 149t-169.5 54
q-142 0 -230.5 -97.5t-88.5 -287.5v-1161h-342v47l71 4q50 1 64 13.5t14 54.5v805h-149v47q85 7 117 20.5t32 52.5v11q0 149 69.5 273.5t194 197.5t275.5 73q154 0 255 -58.5t101 -166.5q0 -68 -43 -120.5t-125 -106.5l-96 -64q-4 -3 -16 -11t-15.5 -10.5t-13 -9t-12 -9.5
t-9.5 -9t-9 -9.5t-6 -9.5t-5.5 -11t-2.5 -11.5t-1 -13.5q0 -43 50 -89.5t173 -135.5l84 -62q137 -100 195.5 -181.5t58.5 -184.5q0 -107 -60 -188t-159 -122t-219 -41z" />
    <glyph glyph-name="agrave" unicode="&#xe0;" horiz-adv-x="1105" 
d="M420 -25q-141 0 -233.5 82t-92.5 195q0 35 10.5 65.5t25.5 53.5t42 45t49.5 36.5t60 31t60.5 25.5t64 24t59 22q63 24 108 45.5t73 42.5t44 37t23 39t8.5 37.5t1.5 42.5q0 90 -53.5 146t-155.5 56q-125 0 -185 -84t-30 -225q-36 -8 -78 -8q-66 0 -102.5 26t-36.5 68
q0 89 186 180q197 103 346 103q155 0 227.5 -73.5t71.5 -252.5l-6 -645h156v-45l-324 -59l-14 229q-39 -129 -116 -184.5t-189 -55.5zM502 59q88 0 152.5 74t64.5 223l4 293q-81 -60 -174 -108q-63 -34 -98 -56.5t-70.5 -55.5t-50.5 -71.5t-15 -89.5q0 -86 49 -147.5
t138 -61.5zM600 1223h-41l-397 352v14h215z" />
    <glyph glyph-name="aacute" unicode="&#xe1;" horiz-adv-x="1105" 
d="M420 -25q-141 0 -233.5 82t-92.5 195q0 35 10.5 65.5t25.5 53.5t42 45t49.5 36.5t60 31t60.5 25.5t64 24t59 22q63 24 108 45.5t73 42.5t44 37t23 39t8.5 37.5t1.5 42.5q0 90 -53.5 146t-155.5 56q-125 0 -185 -84t-30 -225q-36 -8 -78 -8q-66 0 -102.5 26t-36.5 68
q0 89 186 180q197 103 346 103q155 0 227.5 -73.5t71.5 -252.5l-6 -645h156v-45l-324 -59l-14 229q-39 -129 -116 -184.5t-189 -55.5zM502 59q88 0 152.5 74t64.5 223l4 293q-81 -60 -174 -108q-63 -34 -98 -56.5t-70.5 -55.5t-50.5 -71.5t-15 -89.5q0 -86 49 -147.5
t138 -61.5zM451 1223l223 366h215v-14l-397 -352h-41z" />
    <glyph glyph-name="acircumflex" unicode="&#xe2;" horiz-adv-x="1105" 
d="M420 -25q-141 0 -233.5 82t-92.5 195q0 35 10.5 65.5t25.5 53.5t42 45t49.5 36.5t60 31t60.5 25.5t64 24t59 22q63 24 108 45.5t73 42.5t44 37t23 39t8.5 37.5t1.5 42.5q0 90 -53.5 146t-155.5 56q-125 0 -185 -84t-30 -225q-36 -8 -78 -8q-66 0 -102.5 26t-36.5 68
q0 89 186 180q197 103 346 103q155 0 227.5 -73.5t71.5 -252.5l-6 -645h156v-45l-324 -59l-14 229q-39 -129 -116 -184.5t-189 -55.5zM502 59q88 0 152.5 74t64.5 223l4 293q-81 -60 -174 -108q-63 -34 -98 -56.5t-70.5 -55.5t-50.5 -71.5t-15 -89.5q0 -86 49 -147.5
t138 -61.5zM184 1223l330 401h16l330 -401h-41l-297 225l-297 -225h-41z" />
    <glyph glyph-name="atilde" unicode="&#xe3;" horiz-adv-x="1105" 
d="M420 -25q-141 0 -233.5 82t-92.5 195q0 35 10.5 65.5t25.5 53.5t42 45t49.5 36.5t60 31t60.5 25.5t64 24t59 22q63 24 108 45.5t73 42.5t44 37t23 39t8.5 37.5t1.5 42.5q0 90 -53.5 146t-155.5 56q-125 0 -185 -84t-30 -225q-36 -8 -78 -8q-66 0 -102.5 26t-36.5 68
q0 89 186 180q197 103 346 103q155 0 227.5 -73.5t71.5 -252.5l-6 -645h156v-45l-324 -59l-14 229q-39 -129 -116 -184.5t-189 -55.5zM502 59q88 0 152.5 74t64.5 223l4 293q-81 -60 -174 -108q-63 -34 -98 -56.5t-70.5 -55.5t-50.5 -71.5t-15 -89.5q0 -86 49 -147.5
t138 -61.5zM682 1288q-39 0 -77.5 14.5t-69 35t-59.5 40.5t-62 34.5t-64 14.5q-105 0 -114 -124h-35q0 111 44.5 189.5t127.5 78.5q42 0 88 -21.5t79.5 -48t76.5 -48t81 -21.5q48 0 77.5 30.5t33.5 89.5h35q-1 -128 -48 -196t-114 -68z" />
    <glyph glyph-name="adieresis" unicode="&#xe4;" horiz-adv-x="1105" 
d="M420 -25q-141 0 -233.5 82t-92.5 195q0 35 10.5 65.5t25.5 53.5t42 45t49.5 36.5t60 31t60.5 25.5t64 24t59 22q63 24 108 45.5t73 42.5t44 37t23 39t8.5 37.5t1.5 42.5q0 90 -53.5 146t-155.5 56q-125 0 -185 -84t-30 -225q-36 -8 -78 -8q-66 0 -102.5 26t-36.5 68
q0 89 186 180q197 103 346 103q155 0 227.5 -73.5t71.5 -252.5l-6 -645h156v-45l-324 -59l-14 229q-39 -129 -116 -184.5t-189 -55.5zM502 59q88 0 152.5 74t64.5 223l4 293q-81 -60 -174 -108q-63 -34 -98 -56.5t-70.5 -55.5t-50.5 -71.5t-15 -89.5q0 -86 49 -147.5
t138 -61.5zM760 1315q-54 0 -92.5 39.5t-38.5 93.5q0 52 38.5 90.5t92.5 38.5t92.5 -38.5t38.5 -90.5q0 -54 -38.5 -93.5t-92.5 -39.5zM285 1315q-54 0 -92.5 39.5t-38.5 93.5q0 52 39 90.5t92 38.5t92 -38.5t39 -90.5q0 -54 -38.5 -93.5t-92.5 -39.5z" />
    <glyph glyph-name="aring" unicode="&#xe5;" horiz-adv-x="1105" 
d="M420 -25q-141 0 -233.5 82t-92.5 195q0 35 10.5 65.5t25.5 53.5t42 45t49.5 36.5t60 31t60.5 25.5t64 24t59 22q63 24 108 45.5t73 42.5t44 37t23 39t8.5 37.5t1.5 42.5q0 90 -53.5 146t-155.5 56q-125 0 -185 -84t-30 -225q-36 -8 -78 -8q-66 0 -102.5 26t-36.5 68
q0 89 186 180q197 103 346 103q155 0 227.5 -73.5t71.5 -252.5l-6 -645h156v-45l-324 -59l-14 229q-39 -129 -116 -184.5t-189 -55.5zM502 59q88 0 152.5 74t64.5 223l4 293q-81 -60 -174 -108q-63 -34 -98 -56.5t-70.5 -55.5t-50.5 -71.5t-15 -89.5q0 -86 49 -147.5
t138 -61.5zM522 1198q-97 0 -166 66t-69 161q0 94 69 162t166 68q99 0 169.5 -68t70.5 -162q0 -95 -70 -161t-170 -66zM522 1272q69 0 112.5 42.5t43.5 110.5t-43.5 111t-112.5 43q-67 0 -110 -43t-43 -111q0 -67 42.5 -110t110.5 -43z" />
    <glyph glyph-name="ae" unicode="&#xe6;" horiz-adv-x="1816" 
d="M1694 375h47q-46 -202 -175.5 -301t-324.5 -99q-153 0 -271 67t-184 194q-76 -261 -366 -261q-141 0 -233.5 82t-92.5 195q0 35 10.5 65.5t25.5 53.5t42 45t49.5 36.5t60 31t60.5 25.5t64 24t59 22q63 24 108 45.5t73 42.5t44 37t23 39t8.5 37.5t1.5 42.5q0 90 -53.5 146
t-155.5 56q-125 0 -185 -84t-30 -225q-36 -8 -78 -8q-66 0 -102.5 26t-36.5 68q0 89 186 180q197 103 346 103q108 0 175 -33.5t98 -109.5q150 141 352 141q59 0 116.5 -14t115.5 -46t105 -79t84 -119t54 -160h-782v-39q0 -223 111 -363.5t282 -140.5q280 0 369 277z
M1233 1010q-114 0 -193 -79.5t-102 -230.5h539q-5 139 -64.5 224.5t-179.5 85.5zM315 268q0 -86 49 -147.5t138 -61.5q99 0 170 64.5t78 204.5q-27 80 -27 186v135q-81 -60 -174 -108q-63 -34 -98 -56.5t-70.5 -55.5t-50.5 -71.5t-15 -89.5z" />
    <glyph glyph-name="ccedilla" unicode="&#xe7;" horiz-adv-x="1134" 
d="M604 -25q-225 0 -371.5 150t-146.5 389q0 156 75.5 281.5t202 194.5t277.5 69q91 0 174.5 -26t139 -77.5t55.5 -117.5q0 -52 -37 -81.5t-96 -29.5q-14 0 -46 4q-11 141 -78 208t-173 67q-120 0 -200.5 -96.5t-84.5 -280.5q-3 -143 43.5 -263.5t138.5 -194t211 -73.5
q50 0 97.5 13t95.5 42t87 86t60 136h47q-27 -138 -96 -229.5t-162.5 -131t-212.5 -39.5zM541 -526q-73 0 -129 32t-56 82q0 26 22 43t56 11q1 -59 37.5 -91t97.5 -32q47 0 80 19.5t33 55.5q0 45 -60.5 85.5t-177.5 91.5l228 235h61l-166 -172q104 -53 147.5 -92.5
t43.5 -101.5q0 -68 -60 -117t-157 -49z" />
    <glyph glyph-name="egrave" unicode="&#xe8;" horiz-adv-x="1181" 
d="M606 -25q-227 0 -372.5 145.5t-145.5 393.5q0 120 42.5 223t113.5 173t164.5 109.5t195.5 39.5q59 0 116.5 -14t115.5 -46t105 -79t84 -119t54 -160h-782v-39q0 -223 111 -363.5t282 -140.5q280 0 369 277h47q-46 -202 -175.5 -301t-324.5 -99zM598 1010
q-114 0 -193 -79.5t-102 -230.5h539q-5 139 -64.5 224.5t-179.5 85.5zM682 1223h-41l-397 352v14h215z" />
    <glyph glyph-name="eacute" unicode="&#xe9;" horiz-adv-x="1181" 
d="M606 -25q-227 0 -372.5 145.5t-145.5 393.5q0 120 42.5 223t113.5 173t164.5 109.5t195.5 39.5q59 0 116.5 -14t115.5 -46t105 -79t84 -119t54 -160h-782v-39q0 -223 111 -363.5t282 -140.5q280 0 369 277h47q-46 -202 -175.5 -301t-324.5 -99zM598 1010
q-114 0 -193 -79.5t-102 -230.5h539q-5 139 -64.5 224.5t-179.5 85.5zM532 1223l224 366h215v-14l-398 -352h-41z" />
    <glyph glyph-name="ecircumflex" unicode="&#xea;" horiz-adv-x="1181" 
d="M606 -25q-227 0 -372.5 145.5t-145.5 393.5q0 120 42.5 223t113.5 173t164.5 109.5t195.5 39.5q59 0 116.5 -14t115.5 -46t105 -79t84 -119t54 -160h-782v-39q0 -223 111 -363.5t282 -140.5q280 0 369 277h47q-46 -202 -175.5 -301t-324.5 -99zM598 1010
q-114 0 -193 -79.5t-102 -230.5h539q-5 139 -64.5 224.5t-179.5 85.5zM266 1223l330 401h16l330 -401h-41l-297 225l-297 -225h-41z" />
    <glyph glyph-name="edieresis" unicode="&#xeb;" horiz-adv-x="1181" 
d="M606 -25q-227 0 -372.5 145.5t-145.5 393.5q0 120 42.5 223t113.5 173t164.5 109.5t195.5 39.5q59 0 116.5 -14t115.5 -46t105 -79t84 -119t54 -160h-782v-39q0 -223 111 -363.5t282 -140.5q280 0 369 277h47q-46 -202 -175.5 -301t-324.5 -99zM598 1010
q-114 0 -193 -79.5t-102 -230.5h539q-5 139 -64.5 224.5t-179.5 85.5zM842 1315q-54 0 -92.5 39.5t-38.5 93.5q0 52 38.5 90.5t92.5 38.5t92.5 -38.5t38.5 -90.5q0 -54 -38.5 -93.5t-92.5 -39.5zM367 1315q-54 0 -92.5 39.5t-38.5 93.5q0 52 39 90.5t92 38.5t92 -38.5
t39 -90.5q0 -54 -38.5 -93.5t-92.5 -39.5z" />
    <glyph glyph-name="igrave" unicode="&#xec;" horiz-adv-x="632" 
d="M80 0v47l72 4q49 5 63 16.5t14 51.5v715l-149 84v12l342 131v-942q0 -40 14.5 -51.5t65.5 -16.5l69 -4v-47h-491zM383 1223h-41l-397 352v14h215z" />
    <glyph glyph-name="iacute" unicode="&#xed;" horiz-adv-x="632" 
d="M80 0v47l72 4q49 5 63 16.5t14 51.5v715l-149 84v12l342 131v-942q0 -40 14.5 -51.5t65.5 -16.5l69 -4v-47h-491zM233 1223l224 366h215v-14l-398 -352h-41z" />
    <glyph glyph-name="icircumflex" unicode="&#xee;" horiz-adv-x="632" 
d="M80 0v47l72 4q49 5 63 16.5t14 51.5v715l-149 84v12l342 131v-942q0 -40 14.5 -51.5t65.5 -16.5l69 -4v-47h-491zM-33 1223l330 401h16l330 -401h-41l-297 225l-297 -225h-41z" />
    <glyph glyph-name="idieresis" unicode="&#xef;" horiz-adv-x="632" 
d="M80 0v47l72 4q49 5 63 16.5t14 51.5v715l-149 84v12l342 131v-942q0 -40 14.5 -51.5t65.5 -16.5l69 -4v-47h-491zM100 1315q-54 0 -92.5 39.5t-38.5 93.5q0 52 38.5 90.5t92.5 38.5t92.5 -38.5t38.5 -90.5q0 -54 -38.5 -93.5t-92.5 -39.5zM510 1315q-54 0 -92.5 39.5
t-38.5 93.5q0 52 38.5 90.5t92.5 38.5t92.5 -38.5t38.5 -90.5q0 -54 -38.5 -93.5t-92.5 -39.5z" />
    <glyph glyph-name="eth" unicode="&#xf0;" horiz-adv-x="1288" 
d="M616 -25q-108 0 -203.5 37.5t-168 105.5t-114.5 171.5t-42 228.5q0 162 72 287t188 189.5t252 64.5q187 0 320 -129q-85 271 -299 452l-277 -149l-29 59l248 133q-145 105 -348 164l12 39q241 -46 432 -151l275 147l29 -57l-238 -129q221 -141 338 -351.5t117 -457.5
q0 -128 -32 -237t-87 -184.5t-127.5 -129t-153 -78.5t-164.5 -25zM303 508q0 -224 92.5 -346.5t235.5 -122.5q152 0 244 144t92 417q0 167 -39 297q-109 86 -262 86q-55 0 -106.5 -17t-98.5 -55t-82 -92t-55.5 -134.5t-20.5 -176.5z" />
    <glyph glyph-name="ntilde" unicode="&#xf1;" horiz-adv-x="1267" 
d="M72 0v47l71 4q50 1 64 13.5t14 54.5v715l-149 84v12l342 131v-285q32 140 121 211.5t221 71.5q155 0 235 -96t80 -312v-532q0 -42 13.5 -54.5t66.5 -13.5l70 -4v-47h-492v47l72 4q50 1 64 13.5t14 54.5v495q0 179 -54.5 253.5t-165.5 74.5q-109 0 -177 -80t-68 -248v-495
q0 -42 13.5 -54.5t66.5 -13.5l69 -4v-47h-491zM805 1288q-39 0 -77.5 14.5t-69 35t-59.5 40.5t-62 34.5t-64 14.5q-106 0 -115 -124h-34q0 111 44.5 189.5t127.5 78.5q42 0 88 -21.5t79.5 -48t76.5 -48t81 -21.5q48 0 77.5 30.5t33.5 89.5h35q-1 -128 -48 -196t-114 -68z
" />
    <glyph glyph-name="ograve" unicode="&#xf2;" horiz-adv-x="1267" 
d="M631 -25q-146 0 -270.5 68t-199.5 192t-75 277q0 121 47 225.5t124 174t176 108.5t204 39q146 0 270.5 -68t199.5 -191.5t75 -275.5q0 -122 -46 -226.5t-122.5 -174t-176 -109t-206.5 -39.5zM635 35q65 0 121.5 27.5t102 83.5t71.5 151.5t26 220.5q0 127 -26 223t-72 152
t-102 83.5t-121 27.5q-67 0 -124 -27.5t-103 -83.5t-72.5 -152t-26.5 -223q0 -125 26.5 -220.5t72.5 -151.5t103 -83.5t124 -27.5zM713 1223h-41l-398 352v14h215z" />
    <glyph glyph-name="oacute" unicode="&#xf3;" horiz-adv-x="1267" 
d="M631 -25q-146 0 -270.5 68t-199.5 192t-75 277q0 121 47 225.5t124 174t176 108.5t204 39q146 0 270.5 -68t199.5 -191.5t75 -275.5q0 -122 -46 -226.5t-122.5 -174t-176 -109t-206.5 -39.5zM635 35q65 0 121.5 27.5t102 83.5t71.5 151.5t26 220.5q0 127 -26 223t-72 152
t-102 83.5t-121 27.5q-67 0 -124 -27.5t-103 -83.5t-72.5 -152t-26.5 -223q0 -125 26.5 -220.5t72.5 -151.5t103 -83.5t124 -27.5zM563 1223l223 366h215v-14l-397 -352h-41z" />
    <glyph glyph-name="ocircumflex" unicode="&#xf4;" horiz-adv-x="1267" 
d="M631 -25q-146 0 -270.5 68t-199.5 192t-75 277q0 121 47 225.5t124 174t176 108.5t204 39q146 0 270.5 -68t199.5 -191.5t75 -275.5q0 -122 -46 -226.5t-122.5 -174t-176 -109t-206.5 -39.5zM635 35q65 0 121.5 27.5t102 83.5t71.5 151.5t26 220.5q0 127 -26 223t-72 152
t-102 83.5t-121 27.5q-67 0 -124 -27.5t-103 -83.5t-72.5 -152t-26.5 -223q0 -125 26.5 -220.5t72.5 -151.5t103 -83.5t124 -27.5zM297 1223l330 401h16l330 -401h-41l-297 225l-297 -225h-41z" />
    <glyph glyph-name="otilde" unicode="&#xf5;" horiz-adv-x="1267" 
d="M631 -25q-146 0 -270.5 68t-199.5 192t-75 277q0 121 47 225.5t124 174t176 108.5t204 39q146 0 270.5 -68t199.5 -191.5t75 -275.5q0 -122 -46 -226.5t-122.5 -174t-176 -109t-206.5 -39.5zM635 35q65 0 121.5 27.5t102 83.5t71.5 151.5t26 220.5q0 127 -26 223t-72 152
t-102 83.5t-121 27.5q-67 0 -124 -27.5t-103 -83.5t-72.5 -152t-26.5 -223q0 -125 26.5 -220.5t72.5 -151.5t103 -83.5t124 -27.5zM795 1288q-39 0 -77.5 14.5t-69 35t-59.5 40.5t-62 34.5t-64 14.5q-106 0 -115 -124h-35q0 111 44.5 189.5t127.5 78.5q42 0 88.5 -21.5
t80 -48t76.5 -48t81 -21.5q48 0 77.5 30.5t33.5 89.5h34q-1 -128 -48 -196t-113 -68z" />
    <glyph glyph-name="odieresis" unicode="&#xf6;" horiz-adv-x="1267" 
d="M631 -25q-146 0 -270.5 68t-199.5 192t-75 277q0 121 47 225.5t124 174t176 108.5t204 39q146 0 270.5 -68t199.5 -191.5t75 -275.5q0 -122 -46 -226.5t-122.5 -174t-176 -109t-206.5 -39.5zM635 35q65 0 121.5 27.5t102 83.5t71.5 151.5t26 220.5q0 127 -26 223t-72 152
t-102 83.5t-121 27.5q-67 0 -124 -27.5t-103 -83.5t-72.5 -152t-26.5 -223q0 -125 26.5 -220.5t72.5 -151.5t103 -83.5t124 -27.5zM872 1315q-54 0 -92.5 39.5t-38.5 93.5q0 52 38.5 90.5t92.5 38.5t93 -39t39 -90q0 -54 -39 -93.5t-93 -39.5zM397 1315q-54 0 -92.5 39.5
t-38.5 93.5q0 52 39 90.5t92 38.5t92 -38.5t39 -90.5q0 -54 -38.5 -93.5t-92.5 -39.5z" />
    <glyph glyph-name="divide" unicode="&#xf7;" horiz-adv-x="1337" 
d="M670 791q-54 0 -92.5 39.5t-38.5 93.5q0 52 38.5 90.5t92.5 38.5t92.5 -38.5t38.5 -90.5q0 -54 -38.5 -93.5t-92.5 -39.5zM133 485v101h1071v-101h-1071zM670 20q-54 0 -92.5 40t-38.5 94q0 52 38.5 90.5t92.5 38.5t92.5 -38.5t38.5 -90.5q0 -54 -38.5 -94t-92.5 -40z
" />
    <glyph glyph-name="oslash" unicode="&#xf8;" horiz-adv-x="1308" 
d="M651 -25q-146 0 -270.5 68t-199.5 192t-75 277q0 121 47 225.5t124 174t176 108.5t204 39q146 0 270.5 -68t199.5 -191.5t75 -275.5q0 -122 -46 -226.5t-122.5 -174t-176 -109t-206.5 -39.5zM655 35q65 0 121.5 27.5t102 83.5t72 151.5t26.5 220.5q0 127 -26.5 223
t-72 152t-102 83.5t-121.5 27.5q-67 0 -124 -27.5t-103 -83.5t-72 -152t-26 -223q0 -125 26 -220.5t72 -151.5t103 -83.5t124 -27.5zM1139 1153l53 -47l-1018 -1210l-53 45z" />
    <glyph glyph-name="ugrave" unicode="&#xf9;" horiz-adv-x="1251" 
d="M512 -25q-157 0 -236 95.5t-79 314.5v561l-148 37v45h340v-608q0 -179 52.5 -253.5t164.5 -74.5q110 0 178 80t68 250v524l-145 37v45h337v-938h158v-45l-350 -63v276q-32 -139 -121 -211t-219 -72zM694 1223h-41l-397 352v14h215z" />
    <glyph glyph-name="uacute" unicode="&#xfa;" horiz-adv-x="1251" 
d="M512 -25q-157 0 -236 95.5t-79 314.5v561l-148 37v45h340v-608q0 -179 52.5 -253.5t164.5 -74.5q110 0 178 80t68 250v524l-145 37v45h337v-938h158v-45l-350 -63v276q-32 -139 -121 -211t-219 -72zM545 1223l223 366h215v-14l-397 -352h-41z" />
    <glyph glyph-name="ucircumflex" unicode="&#xfb;" horiz-adv-x="1251" 
d="M512 -25q-157 0 -236 95.5t-79 314.5v561l-148 37v45h340v-608q0 -179 52.5 -253.5t164.5 -74.5q110 0 178 80t68 250v524l-145 37v45h337v-938h158v-45l-350 -63v276q-32 -139 -121 -211t-219 -72zM279 1223l329 401h17l329 -401h-41l-297 225l-297 -225h-40z" />
    <glyph glyph-name="udieresis" unicode="&#xfc;" horiz-adv-x="1251" 
d="M512 -25q-157 0 -236 95.5t-79 314.5v561l-148 37v45h340v-608q0 -179 52.5 -253.5t164.5 -74.5q110 0 178 80t68 250v524l-145 37v45h337v-938h158v-45l-350 -63v276q-32 -139 -121 -211t-219 -72zM854 1315q-54 0 -92.5 39.5t-38.5 93.5q0 52 38.5 90.5t92.5 38.5
t92.5 -38.5t38.5 -90.5q0 -54 -38.5 -93.5t-92.5 -39.5zM379 1315q-54 0 -92.5 39.5t-38.5 93.5q0 52 39 90.5t92 38.5t92 -38.5t39 -90.5q0 -54 -38.5 -93.5t-92.5 -39.5z" />
    <glyph glyph-name="yacute" unicode="&#xfd;" horiz-adv-x="1161" 
d="M289 -518q-45 0 -76 29t-31 73q0 58 57.5 106.5t188.5 71.5l109 238l-379 899q-21 46 -39 62.5t-62 17.5l-59 2v47h498v-47l-68 -2q-93 -3 -66 -74l281 -672l285 639q46 104 -60 107l-75 2v47h389v-47l-66 -2q-45 -1 -66.5 -19.5t-43.5 -66.5l-549 -1215
q-52 -116 -71 -143q-37 -53 -97 -53zM559 1223l223 366h215v-14l-397 -352h-41z" />
    <glyph glyph-name="thorn" unicode="&#xfe;" horiz-adv-x="1224" 
d="M674 1059q199 0 330 -148.5t131 -394.5q0 -236 -139 -388.5t-349 -152.5q-89 0 -163 35.5t-122 98.5v-498q0 -42 13.5 -53.5t66.5 -12.5l123 -6v-47h-545v47l72 4q50 1 64 13.5t14 54.5v1782l-150 84v12l342 131v-711q50 69 133 109.5t179 40.5zM580 967q-137 0 -218 -93
v-729q79 -90 213 -90q153 0 248 128t95 333q0 195 -94.5 323t-243.5 128z" />
    <glyph glyph-name="ydieresis" unicode="&#xff;" horiz-adv-x="1161" 
d="M289 -518q-45 0 -76 29t-31 73q0 58 57.5 106.5t188.5 71.5l109 238l-379 899q-21 46 -39 62.5t-62 17.5l-59 2v47h498v-47l-68 -2q-93 -3 -66 -74l281 -672l285 639q46 104 -60 107l-75 2v47h389v-47l-66 -2q-45 -1 -66.5 -19.5t-43.5 -66.5l-549 -1215
q-52 -116 -71 -143q-37 -53 -97 -53zM868 1315q-54 0 -92.5 39.5t-38.5 93.5q0 52 38.5 90.5t92.5 38.5t92.5 -38.5t38.5 -90.5q0 -54 -38.5 -93.5t-92.5 -39.5zM393 1315q-54 0 -92.5 39.5t-38.5 93.5q0 52 39 90.5t92 38.5t92 -38.5t39 -90.5q0 -54 -38.5 -93.5
t-92.5 -39.5z" />
    <glyph glyph-name="Amacron" unicode="&#x100;" horiz-adv-x="1564" 
d="M799 1626l602 -1501q17 -38 38 -51.5t68 -18.5l90 -6v-49h-591v49l102 6q52 5 68.5 19t-0.5 51l-177 446h-579l-176 -446q-17 -37 -1 -51t68 -19l103 -6v-49h-447v49l90 6q45 5 66.5 18.5t38.5 51.5l604 1501h33zM453 653h516l-258 656zM477 1806v90h610v-90h-610z" />
    <glyph glyph-name="amacron" unicode="&#x101;" horiz-adv-x="1105" 
d="M420 -25q-141 0 -233.5 82t-92.5 195q0 35 10.5 65.5t25.5 53.5t42 45t49.5 36.5t60 31t60.5 25.5t64 24t59 22q63 24 108 45.5t73 42.5t44 37t23 39t8.5 37.5t1.5 42.5q0 90 -53.5 146t-155.5 56q-125 0 -185 -84t-30 -225q-36 -8 -78 -8q-66 0 -102.5 26t-36.5 68
q0 89 186 180q197 103 346 103q155 0 227.5 -73.5t71.5 -252.5l-6 -645h156v-45l-324 -59l-14 229q-39 -129 -116 -184.5t-189 -55.5zM502 59q88 0 152.5 74t64.5 223l4 293q-81 -60 -174 -108q-63 -34 -98 -56.5t-70.5 -55.5t-50.5 -71.5t-15 -89.5q0 -86 49 -147.5
t138 -61.5zM217 1368v92h610v-92h-610z" />
    <glyph glyph-name="Abreve" unicode="&#x102;" horiz-adv-x="1564" 
d="M799 1626l602 -1501q17 -38 38 -51.5t68 -18.5l90 -6v-49h-591v49l102 6q52 5 68.5 19t-0.5 51l-177 446h-579l-176 -446q-17 -37 -1 -51t68 -19l103 -6v-49h-447v49l90 6q45 5 66.5 18.5t38.5 51.5l604 1501h33zM453 653h516l-258 656zM782 1698q-40 0 -79 8t-81.5 30.5
t-75.5 56.5t-57.5 92t-31.5 132h82q13 -120 77.5 -181.5t165.5 -61.5t166 61.5t78 181.5h82q-8 -74 -32.5 -132t-57 -92.5t-75 -56.5t-81.5 -30t-80 -8z" />
    <glyph glyph-name="abreve" unicode="&#x103;" horiz-adv-x="1105" 
d="M420 -25q-141 0 -233.5 82t-92.5 195q0 35 10.5 65.5t25.5 53.5t42 45t49.5 36.5t60 31t60.5 25.5t64 24t59 22q63 24 108 45.5t73 42.5t44 37t23 39t8.5 37.5t1.5 42.5q0 90 -53.5 146t-155.5 56q-125 0 -185 -84t-30 -225q-36 -8 -78 -8q-66 0 -102.5 26t-36.5 68
q0 89 186 180q197 103 346 103q155 0 227.5 -73.5t71.5 -252.5l-6 -645h156v-45l-324 -59l-14 229q-39 -129 -116 -184.5t-189 -55.5zM502 59q88 0 152.5 74t64.5 223l4 293q-81 -60 -174 -108q-63 -34 -98 -56.5t-70.5 -55.5t-50.5 -71.5t-15 -89.5q0 -86 49 -147.5
t138 -61.5zM522 1257q-40 0 -79 8t-81.5 30t-75.5 57t-57.5 93.5t-31.5 133.5h82q13 -120 77.5 -183t165.5 -63t166 63t78 183h82q-8 -75 -32.5 -133.5t-57 -93.5t-75 -57t-81.5 -30t-80 -8z" />
    <glyph glyph-name="Aogonek" unicode="&#x104;" horiz-adv-x="1564" 
d="M799 1626l602 -1501q17 -38 38 -51.5t68 -18.5l90 -6v-49h-591v49l102 6q52 5 68.5 19t-0.5 51l-177 446h-579l-176 -446q-17 -37 -1 -51t68 -19l103 -6v-49h-447v49l90 6q45 5 66.5 18.5t38.5 51.5l604 1501h33zM453 653h516l-258 656zM1286 -477q-88 0 -150.5 44.5
t-62.5 119.5q0 40 26.5 85.5t70 88t87 76t89.5 63.5h45q-193 -169 -193 -283q0 -59 43.5 -91t112.5 -32q57 0 133 31l4 -43q-37 -25 -94 -42t-111 -17z" />
    <glyph glyph-name="aogonek" unicode="&#x105;" horiz-adv-x="1105" 
d="M420 -25q-141 0 -233.5 82t-92.5 195q0 35 10.5 65.5t25.5 53.5t42 45t49.5 36.5t60 31t60.5 25.5t64 24t59 22q63 24 108 45.5t73 42.5t44 37t23 39t8.5 37.5t1.5 42.5q0 90 -53.5 146t-155.5 56q-125 0 -185 -84t-30 -225q-36 -8 -78 -8q-66 0 -102.5 26t-36.5 68
q0 89 186 180q197 103 346 103q155 0 227.5 -73.5t71.5 -252.5l-6 -645h156v-45l-170 -31q-178 -164 -178 -276q0 -59 43 -91t112 -32q58 0 134 31l4 -43q-38 -25 -94.5 -42.5t-110.5 -17.5q-88 0 -150.5 44.5t-62.5 119.5q0 119 248 297l-99 -18l-14 229
q-39 -129 -116 -184.5t-189 -55.5zM502 59q88 0 152.5 74t64.5 223l4 293q-81 -60 -174 -108q-63 -34 -98 -56.5t-70.5 -55.5t-50.5 -71.5t-15 -89.5q0 -86 49 -147.5t138 -61.5z" />
    <glyph glyph-name="Cacute" unicode="&#x106;" horiz-adv-x="1677" 
d="M981 -25q-257 0 -456.5 97t-313 280.5t-113.5 427.5q0 245 114.5 429t316.5 281t462 97q139 0 271.5 -22.5t220.5 -69.5l86 -444h-37l-232 372q-24 36 -42 51t-54 25q-80 23 -221 23q-103 0 -196 -24t-176.5 -78.5t-144.5 -134.5t-96.5 -199t-35.5 -265
q0 -227 77.5 -402.5t229.5 -276.5t358 -101q145 0 222 22q36 10 54 25t42 51l231 373h37l-86 -444q-88 -46 -231 -69.5t-287 -23.5zM926 1718l237 273h260v-4l-456 -269h-41z" />
    <glyph glyph-name="cacute" unicode="&#x107;" horiz-adv-x="1134" 
d="M604 -25q-225 0 -371.5 150t-146.5 389q0 156 75.5 281.5t202 194.5t277.5 69q91 0 174.5 -26t139 -77.5t55.5 -117.5q0 -52 -37 -81.5t-96 -29.5q-14 0 -46 4q-11 141 -78 208t-173 67q-120 0 -200.5 -96.5t-84.5 -280.5q-3 -143 43.5 -263.5t138.5 -194t211 -73.5
q50 0 97.5 13t95.5 42t87 86t60 136h47q-27 -138 -96 -229.5t-162.5 -131t-212.5 -39.5zM528 1223l224 366h215v-14l-398 -352h-41z" />
    <glyph glyph-name="Ccircumflex" unicode="&#x108;" horiz-adv-x="1677" 
d="M981 -25q-257 0 -456.5 97t-313 280.5t-113.5 427.5q0 245 114.5 429t316.5 281t462 97q139 0 271.5 -22.5t220.5 -69.5l86 -444h-37l-232 372q-24 36 -42 51t-54 25q-80 23 -221 23q-103 0 -196 -24t-176.5 -78.5t-144.5 -134.5t-96.5 -199t-35.5 -265
q0 -227 77.5 -402.5t229.5 -276.5t358 -101q145 0 222 22q36 10 54 25t42 51l231 373h37l-86 -444q-88 -46 -231 -69.5t-287 -23.5zM649 1706l322 309h24l322 -309h-39l-295 147l-295 -147h-39z" />
    <glyph glyph-name="ccircumflex" unicode="&#x109;" horiz-adv-x="1134" 
d="M604 -25q-225 0 -371.5 150t-146.5 389q0 156 75.5 281.5t202 194.5t277.5 69q91 0 174.5 -26t139 -77.5t55.5 -117.5q0 -52 -37 -81.5t-96 -29.5q-14 0 -46 4q-11 141 -78 208t-173 67q-120 0 -200.5 -96.5t-84.5 -280.5q-3 -143 43.5 -263.5t138.5 -194t211 -73.5
q50 0 97.5 13t95.5 42t87 86t60 136h47q-27 -138 -96 -229.5t-162.5 -131t-212.5 -39.5zM262 1223l330 401h16l330 -401h-41l-297 225l-297 -225h-41z" />
    <glyph glyph-name="Cdotaccent" unicode="&#x10a;" horiz-adv-x="1677" 
d="M981 -25q-257 0 -456.5 97t-313 280.5t-113.5 427.5q0 245 114.5 429t316.5 281t462 97q139 0 271.5 -22.5t220.5 -69.5l86 -444h-37l-232 372q-24 36 -42 51t-54 25q-80 23 -221 23q-103 0 -196 -24t-176.5 -78.5t-144.5 -134.5t-96.5 -199t-35.5 -265
q0 -227 77.5 -402.5t229.5 -276.5t358 -101q145 0 222 22q36 10 54 25t42 51l231 373h37l-86 -444q-88 -46 -231 -69.5t-287 -23.5zM983 1749q-54 0 -92.5 38.5t-38.5 92.5q0 52 39 91.5t92 39.5t92 -39.5t39 -91.5q0 -54 -38.5 -92.5t-92.5 -38.5z" />
    <glyph glyph-name="cdotaccent" unicode="&#x10b;" horiz-adv-x="1134" 
d="M604 -25q-225 0 -371.5 150t-146.5 389q0 156 75.5 281.5t202 194.5t277.5 69q91 0 174.5 -26t139 -77.5t55.5 -117.5q0 -52 -37 -81.5t-96 -29.5q-14 0 -46 4q-11 141 -78 208t-173 67q-120 0 -200.5 -96.5t-84.5 -280.5q-3 -143 43.5 -263.5t138.5 -194t211 -73.5
q50 0 97.5 13t95.5 42t87 86t60 136h47q-27 -138 -96 -229.5t-162.5 -131t-212.5 -39.5zM600 1346q-54 0 -92.5 38.5t-38.5 92.5q0 52 39 91.5t92 39.5t92 -39.5t39 -91.5q0 -54 -38.5 -92.5t-92.5 -38.5z" />
    <glyph glyph-name="Ccaron" unicode="&#x10c;" horiz-adv-x="1677" 
d="M981 -25q-257 0 -456.5 97t-313 280.5t-113.5 427.5q0 245 114.5 429t316.5 281t462 97q139 0 271.5 -22.5t220.5 -69.5l86 -444h-37l-232 372q-24 36 -42 51t-54 25q-80 23 -221 23q-103 0 -196 -24t-176.5 -78.5t-144.5 -134.5t-96.5 -199t-35.5 -265
q0 -227 77.5 -402.5t229.5 -276.5t358 -101q145 0 222 22q36 10 54 25t42 51l231 373h37l-86 -444q-88 -46 -231 -69.5t-287 -23.5zM649 2015h39l295 -147l295 147h39l-322 -309h-24z" />
    <glyph glyph-name="ccaron" unicode="&#x10d;" horiz-adv-x="1134" 
d="M604 -25q-225 0 -371.5 150t-146.5 389q0 156 75.5 281.5t202 194.5t277.5 69q91 0 174.5 -26t139 -77.5t55.5 -117.5q0 -52 -37 -81.5t-96 -29.5q-14 0 -46 4q-11 141 -78 208t-173 67q-120 0 -200.5 -96.5t-84.5 -280.5q-3 -143 43.5 -263.5t138.5 -194t211 -73.5
q50 0 97.5 13t95.5 42t87 86t60 136h47q-27 -138 -96 -229.5t-162.5 -131t-212.5 -39.5zM262 1624h41l297 -223l297 223h41l-330 -401h-16z" />
    <glyph glyph-name="Dcaron" unicode="&#x10e;" horiz-adv-x="1734" 
d="M113 0v49l92 6q49 5 70.5 19.5t21.5 54.5v1294q0 40 -21.5 54.5t-70.5 19.5l-92 6v49h569q133 0 253 -19.5t227 -59.5t193 -103t148.5 -146.5t96.5 -194.5t34 -243q0 -157 -48.5 -287.5t-134.5 -222t-204.5 -154.5t-258 -92.5t-296.5 -29.5h-579zM504 63h178
q161 0 288 37.5t224.5 116.5t150 212t52.5 314q0 746 -723 746h-170v-1426zM518 2015h39l295 -147l295 147h39l-322 -309h-24z" />
    <glyph glyph-name="dcaron" unicode="&#x10f;" horiz-adv-x="1343" 
d="M551 -25q-199 0 -330 148.5t-131 394.5q0 236 139 388.5t349 152.5q89 0 162.5 -35t121.5 -96v465l-190 84v12l383 131v-1530h157v-45l-350 -63v143q-53 -68 -134.5 -109t-176.5 -41zM307 520q0 -197 94.5 -323.5t245.5 -126.5q140 0 215 92v727q-80 92 -213 92
q-153 0 -247.5 -128t-94.5 -333zM1219 1079l-23 39q184 134 184 254q0 108 -129 137q-2 55 27 86t82 31q65 0 106 -47t41 -117q0 -190 -288 -383z" />
    <glyph glyph-name="Dcroat" unicode="&#x110;" horiz-adv-x="1755" 
d="M133 0v49l92 6q49 5 70.5 19.5t21.5 54.5v1294q0 40 -21.5 54.5t-70.5 19.5l-92 6v49h569q161 0 301.5 -27.5t261 -87.5t206.5 -148.5t135 -217t49 -285.5t-48.5 -287.5t-134.5 -222t-204.5 -154.5t-258 -92.5t-296.5 -29.5h-580zM524 63h178q161 0 288 37.5t224.5 116.5
t150 212t52.5 314q0 746 -723 746h-170v-1426zM133 774v82h772v-82h-772z" />
    <glyph glyph-name="dcroat" unicode="&#x111;" horiz-adv-x="1261" 
d="M551 -25q-199 0 -330 148.5t-131 394.5q0 236 139 388.5t349 152.5q89 0 162.5 -35t121.5 -96v465l-190 84v12l383 131v-1530h157v-45l-350 -63v143q-53 -68 -134.5 -109t-176.5 -41zM307 520q0 -197 94.5 -323.5t245.5 -126.5q140 0 215 92v727q-80 92 -213 92
q-153 0 -247.5 -128t-94.5 -333zM608 1204v74h604v-74h-604z" />
    <glyph glyph-name="Emacron" unicode="&#x112;" horiz-adv-x="1536" 
d="M113 0v49l92 6q49 5 70.5 19.5t21.5 54.5v1294q0 40 -21.5 54.5t-70.5 19.5l-92 6v49h1140l68 -454h-37l-209 356q-12 23 -22 28t-37 5h-512v-641h307q26 0 33 4.5t12 21.5l82 242h37v-608h-37l-82 239q-6 18 -13 22.5t-32 4.5h-307v-706h612q25 0 35 4.5t23 23.5
l280 365h37l-139 -459h-1239zM483 1806v90h611v-90h-611z" />
    <glyph glyph-name="emacron" unicode="&#x113;" horiz-adv-x="1181" 
d="M606 -25q-227 0 -372.5 145.5t-145.5 393.5q0 120 42.5 223t113.5 173t164.5 109.5t195.5 39.5q59 0 116.5 -14t115.5 -46t105 -79t84 -119t54 -160h-782v-39q0 -223 111 -363.5t282 -140.5q280 0 369 277h47q-46 -202 -175.5 -301t-324.5 -99zM598 1010
q-114 0 -193 -79.5t-102 -230.5h539q-5 139 -64.5 224.5t-179.5 85.5zM299 1368v92h610v-92h-610z" />
    <glyph glyph-name="Ebreve" unicode="&#x114;" horiz-adv-x="1536" 
d="M113 0v49l92 6q49 5 70.5 19.5t21.5 54.5v1294q0 40 -21.5 54.5t-70.5 19.5l-92 6v49h1140l68 -454h-37l-209 356q-12 23 -22 28t-37 5h-512v-641h307q26 0 33 4.5t12 21.5l82 242h37v-608h-37l-82 239q-6 18 -13 22.5t-32 4.5h-307v-706h612q25 0 35 4.5t23 23.5
l280 365h37l-139 -459h-1239zM788 1698q-40 0 -79 8t-81.5 30.5t-75.5 56.5t-57.5 92t-31.5 132h82q13 -120 77.5 -181.5t165.5 -61.5t166 61.5t78 181.5h82q-8 -74 -32.5 -132t-57 -92.5t-75 -56.5t-81.5 -30t-80 -8z" />
    <glyph glyph-name="ebreve" unicode="&#x115;" horiz-adv-x="1181" 
d="M606 -25q-227 0 -372.5 145.5t-145.5 393.5q0 120 42.5 223t113.5 173t164.5 109.5t195.5 39.5q59 0 116.5 -14t115.5 -46t105 -79t84 -119t54 -160h-782v-39q0 -223 111 -363.5t282 -140.5q280 0 369 277h47q-46 -202 -175.5 -301t-324.5 -99zM598 1010
q-114 0 -193 -79.5t-102 -230.5h539q-5 139 -64.5 224.5t-179.5 85.5zM604 1257q-40 0 -79 8t-81.5 30t-75.5 57t-57.5 93.5t-31.5 133.5h81q13 -120 78 -183t166 -63t166 63t78 183h82q-8 -75 -32.5 -133.5t-57 -93.5t-75 -57t-81.5 -30t-80 -8z" />
    <glyph glyph-name="Edotaccent" unicode="&#x116;" horiz-adv-x="1536" 
d="M113 0v49l92 6q49 5 70.5 19.5t21.5 54.5v1294q0 40 -21.5 54.5t-70.5 19.5l-92 6v49h1140l68 -454h-37l-209 356q-12 23 -22 28t-37 5h-512v-641h307q26 0 33 4.5t12 21.5l82 242h37v-608h-37l-82 239q-6 18 -13 22.5t-32 4.5h-307v-706h612q25 0 35 4.5t23 23.5
l280 365h37l-139 -459h-1239zM788 1749q-54 0 -92.5 38.5t-38.5 92.5q0 52 39 91.5t92 39.5t92.5 -39.5t39.5 -91.5q0 -54 -39 -92.5t-93 -38.5z" />
    <glyph glyph-name="edotaccent" unicode="&#x117;" horiz-adv-x="1181" 
d="M606 -25q-227 0 -372.5 145.5t-145.5 393.5q0 120 42.5 223t113.5 173t164.5 109.5t195.5 39.5q59 0 116.5 -14t115.5 -46t105 -79t84 -119t54 -160h-782v-39q0 -223 111 -363.5t282 -140.5q280 0 369 277h47q-46 -202 -175.5 -301t-324.5 -99zM598 1010
q-114 0 -193 -79.5t-102 -230.5h539q-5 139 -64.5 224.5t-179.5 85.5zM604 1346q-54 0 -92.5 38.5t-38.5 92.5q0 52 39 91.5t92 39.5t92 -39.5t39 -91.5q0 -54 -38.5 -92.5t-92.5 -38.5z" />
    <glyph glyph-name="Eogonek" unicode="&#x118;" horiz-adv-x="1536" 
d="M113 0v49l92 6q49 5 70.5 19.5t21.5 54.5v1294q0 40 -21.5 54.5t-70.5 19.5l-92 6v49h1140l68 -454h-37l-209 356q-12 23 -22 28t-37 5h-512v-641h307q26 0 33 4.5t12 21.5l82 242h37v-608h-37l-82 239q-6 18 -13 22.5t-32 4.5h-307v-706h612q25 0 35 4.5t23 23.5
l280 365h37l-139 -459h-1239zM1247 -477q-88 0 -150.5 44.5t-62.5 119.5q0 40 26.5 85.5t70 88t87 76t89.5 63.5h45q-193 -169 -193 -283q0 -59 43.5 -91t112.5 -32q57 0 133 31l4 -43q-37 -25 -94 -42t-111 -17z" />
    <glyph glyph-name="eogonek" unicode="&#x119;" horiz-adv-x="1181" 
d="M846 -375l4 -43q-37 -25 -94 -42t-111 -17q-88 0 -150.5 44.5t-62.5 119.5q0 44 25.5 87.5t71.5 82t91.5 68.5t102.5 61q-46 -11 -117 -11q-227 0 -372.5 145.5t-145.5 393.5q0 120 42.5 223t113.5 173t164.5 109.5t195.5 39.5q75 0 146.5 -22.5t137 -68t115.5 -124
t74 -182.5h-778q-2 -18 -2 -60q0 -223 111 -363.5t282 -140.5q59 0 109.5 13t103.5 46t95 100.5t67 166.5h47q-16 -92 -46 -162t-77.5 -121t-91.5 -83t-113 -72q-98 -56 -162.5 -125.5t-64.5 -143.5q0 -59 43.5 -91t112.5 -32q57 0 133 31zM598 1010q-112 0 -189.5 -73.5
t-101.5 -215.5h535q-4 60 -19 110.5t-43 91.5t-74.5 64t-107.5 23z" />
    <glyph glyph-name="Ecaron" unicode="&#x11a;" horiz-adv-x="1536" 
d="M113 0v49l92 6q49 5 70.5 19.5t21.5 54.5v1294q0 40 -21.5 54.5t-70.5 19.5l-92 6v49h1140l68 -454h-37l-209 356q-12 23 -22 28t-37 5h-512v-641h307q26 0 33 4.5t12 21.5l82 242h37v-608h-37l-82 239q-6 18 -13 22.5t-32 4.5h-307v-706h612q25 0 35 4.5t23 23.5
l280 365h37l-139 -459h-1239zM455 2015h39l294 -147l295 147h39l-321 -309h-25z" />
    <glyph glyph-name="ecaron" unicode="&#x11b;" horiz-adv-x="1181" 
d="M606 -25q-227 0 -372.5 145.5t-145.5 393.5q0 120 42.5 223t113.5 173t164.5 109.5t195.5 39.5q59 0 116.5 -14t115.5 -46t105 -79t84 -119t54 -160h-782v-39q0 -223 111 -363.5t282 -140.5q280 0 369 277h47q-46 -202 -175.5 -301t-324.5 -99zM598 1010
q-114 0 -193 -79.5t-102 -230.5h539q-5 139 -64.5 224.5t-179.5 85.5zM266 1624h41l297 -223l297 223h41l-330 -401h-16z" />
    <glyph glyph-name="Gcircumflex" unicode="&#x11c;" horiz-adv-x="1808" 
d="M981 -25q-257 0 -456.5 97t-313 280.5t-113.5 427.5t115.5 428.5t317.5 281.5t460 97q139 0 271.5 -22.5t220.5 -69.5l86 -444h-37l-232 372q-24 36 -42 51t-54 25q-80 23 -221 23q-101 0 -193.5 -24t-176.5 -78.5t-145.5 -134.5t-97.5 -199t-36 -265q0 -226 77.5 -401
t229.5 -276t358 -101q225 0 365 74v454q0 41 -22.5 57.5t-69.5 18.5l-242 6v66h727v-74l-184 -2v-401l6 -142q-126 -53 -291 -89t-307 -36zM653 1706l322 309h24l322 -309h-39l-295 147l-295 -147h-39z" />
    <glyph glyph-name="gcircumflex" unicode="&#x11d;" horiz-adv-x="1206" 
d="M543 336q-75 0 -152 22l-158 -180l510 -49q207 -21 297 -75t90 -163q0 -113 -92.5 -210.5t-252 -155t-347.5 -57.5q-179 0 -286 66t-107 173q0 100 105 172t262 90q-81 21 -179.5 58t-144.5 63l254 287q-102 44 -161.5 128t-59.5 191q0 155 121.5 259t304.5 104
q155 0 270 -78l62 115h348l-72 -131h-317q62 -48 96.5 -117t34.5 -148q0 -156 -121.5 -260t-304.5 -104zM580 387q90 0 145 66.5t55 189.5q0 154 -73.5 261.5t-190.5 107.5q-91 0 -147 -66t-56 -190q0 -154 73.5 -261.5t193.5 -107.5zM506 -465q119 0 226 34.5t173 94.5
t66 129q0 89 -106 127.5t-318 38.5q-174 0 -267.5 -64t-93.5 -153q0 -95 82.5 -151t237.5 -56zM238 1223l329 401h17l329 -401h-41l-297 225l-296 -225h-41z" />
    <glyph glyph-name="Gbreve" unicode="&#x11e;" horiz-adv-x="1808" 
d="M981 -25q-257 0 -456.5 97t-313 280.5t-113.5 427.5t115.5 428.5t317.5 281.5t460 97q139 0 271.5 -22.5t220.5 -69.5l86 -444h-37l-232 372q-24 36 -42 51t-54 25q-80 23 -221 23q-101 0 -193.5 -24t-176.5 -78.5t-145.5 -134.5t-97.5 -199t-36 -265q0 -226 77.5 -401
t229.5 -276t358 -101q225 0 365 74v454q0 41 -22.5 57.5t-69.5 18.5l-242 6v66h727v-74l-184 -2v-401l6 -142q-126 -53 -291 -89t-307 -36zM987 1698q-40 0 -79 8t-81.5 30.5t-75.5 56.5t-57.5 92t-31.5 132h81q13 -120 78 -181.5t166 -61.5t166 61.5t78 181.5h82
q-8 -74 -32.5 -132t-57 -92.5t-75 -56.5t-81.5 -30t-80 -8z" />
    <glyph glyph-name="gbreve" unicode="&#x11f;" horiz-adv-x="1206" 
d="M543 336q-75 0 -152 22l-158 -180l510 -49q207 -21 297 -75t90 -163q0 -113 -92.5 -210.5t-252 -155t-347.5 -57.5q-179 0 -286 66t-107 173q0 100 105 172t262 90q-81 21 -179.5 58t-144.5 63l254 287q-102 44 -161.5 128t-59.5 191q0 155 121.5 259t304.5 104
q155 0 270 -78l62 115h348l-72 -131h-317q62 -48 96.5 -117t34.5 -148q0 -156 -121.5 -260t-304.5 -104zM580 387q90 0 145 66.5t55 189.5q0 154 -73.5 261.5t-190.5 107.5q-91 0 -147 -66t-56 -190q0 -154 73.5 -261.5t193.5 -107.5zM506 -465q119 0 226 34.5t173 94.5
t66 129q0 89 -106 127.5t-318 38.5q-174 0 -267.5 -64t-93.5 -153q0 -95 82.5 -151t237.5 -56zM575 1257q-40 0 -79 8t-81.5 30t-75.5 57t-57.5 93.5t-31.5 133.5h82q13 -120 77.5 -183t165.5 -63t166 63t78 183h82q-8 -75 -32.5 -133.5t-57 -93.5t-75 -57t-81.5 -30t-80 -8
z" />
    <glyph glyph-name="Gdotaccent" unicode="&#x120;" horiz-adv-x="1808" 
d="M981 -25q-257 0 -456.5 97t-313 280.5t-113.5 427.5t115.5 428.5t317.5 281.5t460 97q139 0 271.5 -22.5t220.5 -69.5l86 -444h-37l-232 372q-24 36 -42 51t-54 25q-80 23 -221 23q-101 0 -193.5 -24t-176.5 -78.5t-145.5 -134.5t-97.5 -199t-36 -265q0 -226 77.5 -401
t229.5 -276t358 -101q225 0 365 74v454q0 41 -22.5 57.5t-69.5 18.5l-242 6v66h727v-74l-184 -2v-401l6 -142q-126 -53 -291 -89t-307 -36zM987 1749q-54 0 -92.5 38.5t-38.5 92.5q0 52 39 91.5t92 39.5t92 -39.5t39 -91.5q0 -54 -38.5 -92.5t-92.5 -38.5z" />
    <glyph glyph-name="gdotaccent" unicode="&#x121;" horiz-adv-x="1206" 
d="M543 336q-75 0 -152 22l-158 -180l510 -49q207 -21 297 -75t90 -163q0 -113 -92.5 -210.5t-252 -155t-347.5 -57.5q-179 0 -286 66t-107 173q0 100 105 172t262 90q-81 21 -179.5 58t-144.5 63l254 287q-102 44 -161.5 128t-59.5 191q0 155 121.5 259t304.5 104
q155 0 270 -78l62 115h348l-72 -131h-317q62 -48 96.5 -117t34.5 -148q0 -156 -121.5 -260t-304.5 -104zM580 387q90 0 145 66.5t55 189.5q0 154 -73.5 261.5t-190.5 107.5q-91 0 -147 -66t-56 -190q0 -154 73.5 -261.5t193.5 -107.5zM506 -465q119 0 226 34.5t173 94.5
t66 129q0 89 -106 127.5t-318 38.5q-174 0 -267.5 -64t-93.5 -153q0 -95 82.5 -151t237.5 -56zM575 1346q-54 0 -92.5 38.5t-38.5 92.5q0 52 39 91.5t92 39.5t92.5 -39.5t39.5 -91.5q0 -54 -39 -92.5t-93 -38.5z" />
    <glyph glyph-name="uni0122" unicode="&#x122;" horiz-adv-x="1808" 
d="M981 -25q-257 0 -456.5 97t-313 280.5t-113.5 427.5t115.5 428.5t317.5 281.5t460 97q139 0 271.5 -22.5t220.5 -69.5l86 -444h-37l-232 372q-24 36 -42 51t-54 25q-80 23 -221 23q-101 0 -193.5 -24t-176.5 -78.5t-145.5 -134.5t-97.5 -199t-36 -265q0 -226 77.5 -401
t229.5 -276t358 -101q225 0 365 74v454q0 41 -22.5 57.5t-69.5 18.5l-242 6v66h727v-74l-184 -2v-401l6 -142q-126 -53 -291 -89t-307 -36zM840 -702l-23 40q184 134 184 254q0 109 -129 138q-2 54 26.5 84t82.5 30q65 0 106 -46t41 -115q0 -192 -288 -385z" />
    <glyph glyph-name="uni0123" unicode="&#x123;" horiz-adv-x="1206" 
d="M543 336q-75 0 -152 22l-158 -180l510 -49q207 -21 297 -75t90 -163q0 -113 -92.5 -210.5t-252 -155t-347.5 -57.5q-179 0 -286 66t-107 173q0 100 105 172t262 90q-81 21 -179.5 58t-144.5 63l254 287q-102 44 -161.5 128t-59.5 191q0 155 121.5 259t304.5 104
q155 0 270 -78l62 115h348l-72 -131h-317q62 -48 96.5 -117t34.5 -148q0 -156 -121.5 -260t-304.5 -104zM580 387q90 0 145 66.5t55 189.5q0 154 -73.5 261.5t-190.5 107.5q-91 0 -147 -66t-56 -190q0 -154 73.5 -261.5t193.5 -107.5zM506 -465q119 0 226 34.5t173 94.5
t66 129q0 89 -106 127.5t-318 38.5q-174 0 -267.5 -64t-93.5 -153q0 -95 82.5 -151t237.5 -56zM715 1741l22 -41q-184 -134 -184 -254q0 -108 129 -137q1 -54 -28.5 -84.5t-80.5 -30.5q-65 0 -106 46.5t-41 115.5q0 192 289 385z" />
    <glyph glyph-name="Hcircumflex" unicode="&#x124;" horiz-adv-x="1843" 
d="M113 0v49l92 6q49 5 70.5 19.5t21.5 54.5v1294q0 40 -21.5 54.5t-70.5 19.5l-92 6v49h577v-49l-92 -6q-52 -5 -73 -19.5t-21 -54.5v-567h833v567q0 40 -21.5 54.5t-70.5 19.5l-92 6v49h578v-49l-93 -6q-49 -5 -70.5 -19.5t-21.5 -54.5v-1294q0 -40 21.5 -54.5t70.5 -19.5
l93 -6v-49h-578v49l92 6q49 5 70.5 19.5t21.5 54.5v645h-833v-645q0 -40 21 -54.5t73 -19.5l92 -6v-49h-577zM586 1706l321 309h25l321 -309h-39l-294 147l-295 -147h-39z" />
    <glyph glyph-name="hcircumflex" unicode="&#x125;" horiz-adv-x="1249" 
d="M53 0v47l72 4q50 1 64 13.5t14 54.5v1274l-150 84v12l342 131v-844q32 140 121 211.5t221 71.5q155 0 235.5 -96.5t80.5 -311.5v-532q0 -42 13.5 -54.5t66.5 -13.5l69 -4v-47h-491v47l71 4q50 1 64 13.5t14 54.5v495q0 179 -54 253.5t-165 74.5q-109 0 -177.5 -80
t-68.5 -248v-495q0 -42 13.5 -54.5t66.5 -13.5l70 -4v-47h-492zM-51 1741l321 309h25l321 -309h-38l-295 147l-295 -147h-39z" />
    <glyph glyph-name="Hbar" unicode="&#x126;" horiz-adv-x="1843" 
d="M113 0v49l92 6q49 5 70.5 19.5t21.5 54.5v1294q0 40 -21.5 54.5t-70.5 19.5l-92 6v49h577v-49l-92 -6q-52 -5 -73 -19.5t-21 -54.5v-567h833v567q0 40 -21.5 54.5t-70.5 19.5l-92 6v49h578v-49l-93 -6q-49 -5 -70.5 -19.5t-21.5 -54.5v-1294q0 -40 21.5 -54.5t70.5 -19.5
l93 -6v-49h-578v49l92 6q49 5 70.5 19.5t21.5 54.5v645h-833v-645q0 -40 21 -54.5t73 -19.5l92 -6v-49h-577zM111 1130v82h1620v-82h-1620z" />
    <glyph glyph-name="hbar" unicode="&#x127;" horiz-adv-x="1249" 
d="M53 0v47l72 4q50 1 64 13.5t14 54.5v1274l-150 84v12l342 131v-844q32 140 121 211.5t221 71.5q155 0 235.5 -96.5t80.5 -311.5v-532q0 -42 13.5 -54.5t66.5 -13.5l69 -4v-47h-491v47l71 4q50 1 64 13.5t14 54.5v495q0 179 -54 253.5t-165 74.5q-109 0 -177.5 -80
t-68.5 -248v-495q0 -42 13.5 -54.5t66.5 -13.5l70 -4v-47h-492zM43 1204v74h604v-74h-604z" />
    <glyph glyph-name="Itilde" unicode="&#x128;" horiz-adv-x="800" 
d="M113 0v49l92 6q49 5 70.5 19.5t21.5 54.5v1294q0 40 -21.5 54.5t-70.5 19.5l-92 6v49h577v-49l-92 -6q-52 -5 -73 -19.5t-21 -54.5v-1294q0 -40 21 -54.5t73 -19.5l92 -6v-49h-577zM561 1704q-39 0 -77.5 14.5t-69 35t-59.5 40.5t-62 34.5t-64 14.5q-105 0 -114 -127h-35
q0 113 44.5 192t127.5 79q42 0 88.5 -22t80 -48t76.5 -48t81 -22q48 0 77 30t33 89h35q-1 -127 -48 -194.5t-114 -67.5z" />
    <glyph glyph-name="itilde" unicode="&#x129;" horiz-adv-x="632" 
d="M80 0v47l72 4q49 5 63 16.5t14 51.5v715l-149 84v12l342 131v-942q0 -40 14.5 -51.5t65.5 -16.5l69 -4v-47h-491zM465 1288q-39 0 -77.5 14.5t-69 35t-59.5 40.5t-62 34.5t-64 14.5q-106 0 -115 -124h-34q0 111 44.5 189.5t127.5 78.5q42 0 88 -21.5t79.5 -48t76.5 -48
t81 -21.5q48 0 77.5 30.5t33.5 89.5h35q-1 -128 -48 -196t-114 -68z" />
    <glyph glyph-name="Imacron" unicode="&#x12a;" horiz-adv-x="800" 
d="M113 0v49l92 6q49 5 70.5 19.5t21.5 54.5v1294q0 40 -21.5 54.5t-70.5 19.5l-92 6v49h577v-49l-92 -6q-52 -5 -73 -19.5t-21 -54.5v-1294q0 -40 21 -54.5t73 -19.5l92 -6v-49h-577zM96 1806v90h611v-90h-611z" />
    <glyph glyph-name="imacron" unicode="&#x12b;" horiz-adv-x="632" 
d="M80 0v47l72 4q49 5 63 16.5t14 51.5v715l-149 84v12l342 131v-942q0 -40 14.5 -51.5t65.5 -16.5l69 -4v-47h-491zM0 1368v92h610v-92h-610z" />
    <glyph glyph-name="Ibreve" unicode="&#x12c;" horiz-adv-x="800" 
d="M113 0v49l92 6q49 5 70.5 19.5t21.5 54.5v1294q0 40 -21.5 54.5t-70.5 19.5l-92 6v49h577v-49l-92 -6q-52 -5 -73 -19.5t-21 -54.5v-1294q0 -40 21 -54.5t73 -19.5l92 -6v-49h-577zM401 1698q-40 0 -79 8t-81.5 30.5t-75.5 56.5t-57.5 92t-31.5 132h82
q13 -120 77.5 -181.5t165.5 -61.5t166 61.5t78 181.5h82q-8 -74 -32.5 -132t-57 -92.5t-75 -56.5t-81.5 -30t-80 -8z" />
    <glyph glyph-name="ibreve" unicode="&#x12d;" horiz-adv-x="632" 
d="M80 0v47l72 4q49 5 63 16.5t14 51.5v715l-149 84v12l342 131v-942q0 -40 14.5 -51.5t65.5 -16.5l69 -4v-47h-491zM305 1257q-40 0 -79 8t-81.5 30t-75.5 57t-57.5 93.5t-31.5 133.5h81q13 -120 78 -183t166 -63t166 63t78 183h82q-8 -75 -32.5 -133.5t-57 -93.5t-75 -57
t-81.5 -30t-80 -8z" />
    <glyph glyph-name="Iogonek" unicode="&#x12e;" horiz-adv-x="800" 
d="M113 0v49l92 6q49 5 70.5 19.5t21.5 54.5v1294q0 40 -21.5 54.5t-70.5 19.5l-92 6v49h577v-49l-92 -6q-52 -5 -73 -19.5t-21 -54.5v-1294q0 -40 21 -54.5t73 -19.5l92 -6v-49h-577zM442 -477q-88 0 -150.5 44.5t-62.5 119.5q0 40 26.5 85.5t70 88t87 76t89.5 63.5h45
q-193 -169 -193 -283q0 -59 43.5 -91t112.5 -32q57 0 133 31l4 -43q-37 -25 -94 -42t-111 -17z" />
    <glyph glyph-name="iogonek" unicode="&#x12f;" horiz-adv-x="632" 
d="M80 0v47l72 4q49 5 63 16.5t14 51.5v715l-149 84v12l342 131v-942q0 -40 14.5 -51.5t65.5 -16.5l69 -4v-47h-491zM195 1479q0 51 38.5 90t92.5 39t92.5 -39t38.5 -90q0 -54 -38.5 -93.5t-92.5 -39.5t-92.5 39.5t-38.5 93.5zM324 -477q-88 0 -150.5 44.5t-62.5 119.5
q0 40 26.5 85.5t69.5 88t86.5 76t89.5 63.5h45q-192 -169 -192 -283q0 -59 43 -91t112 -32q57 0 133 31l4 -43q-38 -25 -94 -42t-110 -17z" />
    <glyph glyph-name="Idotaccent" unicode="&#x130;" horiz-adv-x="800" 
d="M113 0v49l92 6q49 5 70.5 19.5t21.5 54.5v1294q0 40 -21.5 54.5t-70.5 19.5l-92 6v49h577v-49l-92 -6q-52 -5 -73 -19.5t-21 -54.5v-1294q0 -40 21 -54.5t73 -19.5l92 -6v-49h-577zM401 1749q-54 0 -92.5 38.5t-38.5 92.5q0 52 39 91.5t92 39.5t92 -39.5t39 -91.5
q0 -54 -38.5 -92.5t-92.5 -38.5z" />
    <glyph glyph-name="dotlessi" unicode="&#x131;" horiz-adv-x="632" 
d="M80 0v47l72 4q49 5 63 16.5t14 51.5v715l-149 84v12l342 131v-942q0 -40 14.5 -51.5t65.5 -16.5l69 -4v-47h-491z" />
    <glyph glyph-name="Jcircumflex" unicode="&#x134;" horiz-adv-x="782" 
d="M29 -240l-33 45q57 47 84.5 70.5t66 58.5t55 54t38.5 50t30 54.5t17.5 58t11.5 70t2 82.5v1124q0 39 -20.5 51.5t-69.5 14.5l-102 4v55h591v-55l-102 -4q-49 -2 -69.5 -14.5t-20.5 -51.5v-1069q0 -55 -5 -97.5t-21 -80.5t-30.5 -63.5t-48 -59.5t-58 -55.5t-75.5 -64.5
q-30 -24 -241 -177zM72 1706l321 309h25l321 -309h-39l-294 147l-295 -147h-39z" />
    <glyph glyph-name="jcircumflex" unicode="&#x135;" horiz-adv-x="571" 
d="M-39 -535l-24 37q58 48 89 76.5t66.5 68.5t52 75t32.5 86.5t21 112t5 142.5v771l-150 84v12l342 131v-989q0 -177 -44 -272.5t-152 -174.5q-108 -81 -238 -160zM-59 1223l329 401h17l329 -401h-41l-296 225l-297 -225h-41z" />
    <glyph glyph-name="uni0136" unicode="&#x136;" horiz-adv-x="1626" 
d="M113 0v49l92 6q49 5 70.5 19.5t21.5 54.5v1294q0 40 -21.5 54.5t-70.5 19.5l-92 6v49h577v-49l-92 -6q-52 -5 -73 -19.5t-21 -54.5v-645l717 670q42 39 -47 48q-3 1 -7 1l-131 6v49h541v-49l-107 -6q-62 -5 -94.5 -16.5t-64.5 -42.5l-604 -566l938 -872h-291l-850 772
v-643q0 -40 21 -54.5t73 -19.5l92 -6v-49h-577zM776 -702l-22 40q184 134 184 254q0 109 -129 138q-2 54 26.5 84t82.5 30q65 0 106 -46t41 -115q0 -192 -289 -385z" />
    <glyph glyph-name="uni0137" unicode="&#x137;" horiz-adv-x="1208" 
d="M53 0v47l72 4q50 1 64 13.5t14 54.5v1274l-150 84v12l342 131v-1069l434 354q34 29 27 51t-59 23l-74 2v47h428v-47l-68 -4q-51 -5 -84.5 -19.5t-74.5 -50.5l-349 -278l646 -629h-263l-563 532v-413q0 -42 13.5 -54.5t66.5 -13.5l70 -4v-47h-492zM537 -702l-23 40
q184 134 184 254q0 109 -129 138q-2 54 26.5 84t82.5 30q65 0 106 -46t41 -115q0 -192 -288 -385z" />
    <glyph glyph-name="Lacute" unicode="&#x139;" horiz-adv-x="1439" 
d="M113 0v49l92 6q49 5 70.5 19.5t21.5 54.5v1294q0 40 -21.5 54.5t-70.5 19.5l-92 6v49h577v-49l-92 -6q-52 -5 -73 -19.5t-21 -54.5v-1357h532q25 0 35 4.5t23 23.5l280 365h37l-139 -459h-1159zM342 1718l238 273h260v-4l-457 -269h-41z" />
    <glyph glyph-name="lacute" unicode="&#x13a;" horiz-adv-x="614" 
d="M61 0v47l72 4q50 1 64 13.5t14 54.5v1274l-150 84v12l342 131v-1501q0 -42 13.5 -54.5t66.5 -13.5l70 -4v-47h-492zM223 1747l223 367h216v-15l-398 -352h-41z" />
    <glyph glyph-name="uni013B" unicode="&#x13b;" horiz-adv-x="1439" 
d="M113 0v49l92 6q49 5 70.5 19.5t21.5 54.5v1294q0 40 -21.5 54.5t-70.5 19.5l-92 6v49h577v-49l-92 -6q-52 -5 -73 -19.5t-21 -54.5v-1357h532q25 0 35 4.5t23 23.5l280 365h37l-139 -459h-1159zM618 -702l-22 40q184 134 184 254q0 109 -129 138q-2 54 26.5 84t82.5 30
q65 0 106 -46t41 -115q0 -192 -289 -385z" />
    <glyph glyph-name="uni013C" unicode="&#x13c;" horiz-adv-x="614" 
d="M61 0v47l72 4q50 1 64 13.5t14 54.5v1274l-150 84v12l342 131v-1501q0 -42 13.5 -54.5t66.5 -13.5l70 -4v-47h-492zM141 -702l-22 40q184 134 184 254q0 109 -129 138q-2 54 26.5 84t82.5 30q65 0 106 -46t41 -115q0 -192 -289 -385z" />
    <glyph glyph-name="Lcaron" unicode="&#x13d;" horiz-adv-x="1439" 
d="M113 0v49l92 6q49 5 70.5 19.5t21.5 54.5v1294q0 40 -21.5 54.5t-70.5 19.5l-92 6v49h577v-49l-92 -6q-52 -5 -73 -19.5t-21 -54.5v-1357h532q25 0 35 4.5t23 23.5l280 365h37l-139 -459h-1159zM838 1079l-23 39q184 134 184 254q0 108 -129 137q-2 55 27 86t82 31
q65 0 106 -47t41 -117q0 -190 -288 -383z" />
    <glyph glyph-name="lcaron" unicode="&#x13e;" horiz-adv-x="696" 
d="M61 0v47l72 4q50 1 64 13.5t14 54.5v1274l-150 84v12l342 131v-1501q0 -42 13.5 -54.5t66.5 -13.5l70 -4v-47h-492zM592 1079l-23 39q185 135 185 254q0 108 -129 137q-2 55 26.5 86t81.5 31q65 0 106.5 -47t41.5 -117q0 -190 -289 -383z" />
    <glyph glyph-name="Ldot" unicode="&#x13f;" horiz-adv-x="1439" 
d="M113 0v49l92 6q49 5 70.5 19.5t21.5 54.5v1294q0 40 -21.5 54.5t-70.5 19.5l-92 6v49h577v-49l-92 -6q-52 -5 -73 -19.5t-21 -54.5v-1357h532q25 0 35 4.5t23 23.5l280 365h37l-139 -459h-1159zM1124 700q-54 0 -92.5 38.5t-38.5 92.5q0 52 39 92t92 40t92 -40t39 -92
q0 -54 -38.5 -92.5t-92.5 -38.5z" />
    <glyph glyph-name="ldot" unicode="&#x140;" horiz-adv-x="790" 
d="M61 0v47l72 4q50 1 64 13.5t14 54.5v1274l-150 84v12l342 131v-1501q0 -42 13.5 -54.5t66.5 -13.5l70 -4v-47h-492zM700 678q-54 0 -92.5 38.5t-38.5 92.5q0 52 39 91.5t92 39.5t92 -39.5t39 -91.5q0 -54 -38.5 -92.5t-92.5 -38.5z" />
    <glyph glyph-name="Lslash" unicode="&#x141;" horiz-adv-x="1439" 
d="M113 0v49l92 6q49 5 70.5 19.5t21.5 54.5v1294q0 40 -21.5 54.5t-70.5 19.5l-92 6v49h577v-49l-92 -6q-52 -5 -73 -19.5t-21 -54.5v-1357h532q25 0 35 4.5t23 23.5l280 365h37l-139 -459h-1159zM16 489v97l772 463v-95z" />
    <glyph glyph-name="lslash" unicode="&#x142;" horiz-adv-x="737" 
d="M123 0v47l72 4q50 1 63.5 13.5t13.5 54.5v1274l-149 84v12l342 131v-1501q0 -42 13.5 -54.5t66.5 -13.5l69 -4v-47h-491zM47 573v84l643 375v-86z" />
    <glyph glyph-name="Nacute" unicode="&#x143;" horiz-adv-x="1808" 
d="M119 0v49l92 6q51 5 71.5 19.5t20.5 54.5v1208l-186 211v4h270l1065 -1192v1063q0 40 -21 54.5t-73 19.5l-92 6v49h450v-49l-92 -6q-51 -5 -71.5 -19.5t-20.5 -54.5v-1462h-8l-1141 1286v-1118q0 -40 21 -54.5t73 -19.5l90 -6v-49h-448zM870 1718l238 273h260v-4
l-457 -269h-41z" />
    <glyph glyph-name="nacute" unicode="&#x144;" horiz-adv-x="1267" 
d="M72 0v47l71 4q50 1 64 13.5t14 54.5v715l-149 84v12l342 131v-285q32 140 121 211.5t221 71.5q155 0 235 -96t80 -312v-532q0 -42 13.5 -54.5t66.5 -13.5l70 -4v-47h-492v47l72 4q50 1 64 13.5t14 54.5v495q0 179 -54.5 253.5t-165.5 74.5q-109 0 -177 -80t-68 -248v-495
q0 -42 13.5 -54.5t66.5 -13.5l69 -4v-47h-491zM573 1223l224 366h215v-14l-398 -352h-41z" />
    <glyph glyph-name="uni0145" unicode="&#x145;" horiz-adv-x="1808" 
d="M119 0v49l92 6q51 5 71.5 19.5t20.5 54.5v1208l-186 211v4h270l1065 -1192v1063q0 40 -21 54.5t-73 19.5l-92 6v49h450v-49l-92 -6q-51 -5 -71.5 -19.5t-20.5 -54.5v-1462h-8l-1141 1286v-1118q0 -40 21 -54.5t73 -19.5l90 -6v-49h-448zM776 -702l-22 40q184 134 184 254
q0 109 -129 138q-2 54 26.5 84t82.5 30q65 0 106 -46t41 -115q0 -192 -289 -385z" />
    <glyph glyph-name="uni0146" unicode="&#x146;" horiz-adv-x="1267" 
d="M72 0v47l71 4q50 1 64 13.5t14 54.5v715l-149 84v12l342 131v-285q32 140 121 211.5t221 71.5q155 0 235 -96t80 -312v-532q0 -42 13.5 -54.5t66.5 -13.5l70 -4v-47h-492v47l72 4q50 1 64 13.5t14 54.5v495q0 179 -54.5 253.5t-165.5 74.5q-109 0 -177 -80t-68 -248v-495
q0 -42 13.5 -54.5t66.5 -13.5l69 -4v-47h-491zM500 -702l-23 40q185 135 185 254q0 109 -130 138q-2 54 26.5 84t82.5 30q65 0 106 -46t41 -115q0 -192 -288 -385z" />
    <glyph glyph-name="Ncaron" unicode="&#x147;" horiz-adv-x="1808" 
d="M119 0v49l92 6q51 5 71.5 19.5t20.5 54.5v1208l-186 211v4h270l1065 -1192v1063q0 40 -21 54.5t-73 19.5l-92 6v49h450v-49l-92 -6q-51 -5 -71.5 -19.5t-20.5 -54.5v-1462h-8l-1141 1286v-1118q0 -40 21 -54.5t73 -19.5l90 -6v-49h-448zM594 2015h39l295 -147l295 147h39
l-322 -309h-25z" />
    <glyph glyph-name="ncaron" unicode="&#x148;" horiz-adv-x="1267" 
d="M72 0v47l71 4q50 1 64 13.5t14 54.5v715l-149 84v12l342 131v-285q32 140 121 211.5t221 71.5q155 0 235 -96t80 -312v-532q0 -42 13.5 -54.5t66.5 -13.5l70 -4v-47h-492v47l72 4q50 1 64 13.5t14 54.5v495q0 179 -54.5 253.5t-165.5 74.5q-109 0 -177 -80t-68 -248v-495
q0 -42 13.5 -54.5t66.5 -13.5l69 -4v-47h-491zM307 1624h41l297 -223l297 223h41l-330 -401h-16z" />
    <glyph glyph-name="Eng" unicode="&#x14a;" horiz-adv-x="1808" 
d="M119 0v49l92 6q51 5 71.5 19.5t20.5 54.5v1208l-186 211v4h270l1065 -1192v1063q0 40 -21 54.5t-73 19.5l-92 6v49h450v-49l-92 -6q-51 -5 -71.5 -19.5t-20.5 -54.5v-1351q0 -121 -21 -202.5t-62 -136t-114 -108.5q-99 -73 -237 -160l-27 37q46 40 66.5 58t54.5 51t48 53
t35.5 53t29.5 62t18 70.5t13 88.5t3 105v119l-956 1085v-1118q0 -40 21 -54.5t73 -19.5l90 -6v-49h-448z" />
    <glyph glyph-name="eng" unicode="&#x14b;" horiz-adv-x="1232" 
d="M756 1059q155 0 235 -96t80 -312v-579q0 -180 -42.5 -273.5t-151.5 -173.5q-93 -70 -238 -160l-27 37q58 48 89 76.5t67 69t52.5 75t32.5 86t21 112t5 142.5v551q0 179 -54.5 253.5t-165.5 74.5q-109 0 -177 -80t-68 -248v-495q0 -42 13.5 -54.5t66.5 -13.5l69 -4v-47
h-491v47l71 4q50 1 64 13.5t14 54.5v715l-149 84v12l342 131v-285q32 140 121 211.5t221 71.5z" />
    <glyph glyph-name="Omacron" unicode="&#x14c;" horiz-adv-x="1830" 
d="M915 -25q-168 0 -317.5 58.5t-260 162t-175 255.5t-64.5 329q0 178 64.5 330t175 256t260 162.5t317.5 58.5t318 -58.5t260.5 -162.5t175 -256t64.5 -330q0 -177 -64.5 -329t-175 -255.5t-260.5 -162t-318 -58.5zM915 43q125 0 231 50t183.5 142t121.5 232.5t44 312.5
q0 174 -44 314.5t-121.5 233.5t-183.5 142.5t-231 49.5q-257 0 -419 -197t-162 -543q0 -172 44 -312t121.5 -232.5t184 -142.5t231.5 -50zM610 1806v90h611v-90h-611z" />
    <glyph glyph-name="omacron" unicode="&#x14d;" horiz-adv-x="1267" 
d="M631 -25q-146 0 -270.5 68t-199.5 192t-75 277q0 121 47 225.5t124 174t176 108.5t204 39q146 0 270.5 -68t199.5 -191.5t75 -275.5q0 -122 -46 -226.5t-122.5 -174t-176 -109t-206.5 -39.5zM635 35q65 0 121.5 27.5t102 83.5t71.5 151.5t26 220.5q0 127 -26 223t-72 152
t-102 83.5t-121 27.5q-67 0 -124 -27.5t-103 -83.5t-72.5 -152t-26.5 -223q0 -125 26.5 -220.5t72.5 -151.5t103 -83.5t124 -27.5zM330 1368v92h610v-92h-610z" />
    <glyph glyph-name="Obreve" unicode="&#x14e;" horiz-adv-x="1830" 
d="M915 -25q-168 0 -317.5 58.5t-260 162t-175 255.5t-64.5 329q0 178 64.5 330t175 256t260 162.5t317.5 58.5t318 -58.5t260.5 -162.5t175 -256t64.5 -330q0 -177 -64.5 -329t-175 -255.5t-260.5 -162t-318 -58.5zM915 43q125 0 231 50t183.5 142t121.5 232.5t44 312.5
q0 174 -44 314.5t-121.5 233.5t-183.5 142.5t-231 49.5q-257 0 -419 -197t-162 -543q0 -172 44 -312t121.5 -232.5t184 -142.5t231.5 -50zM915 1698q-40 0 -79 8t-81.5 30.5t-75.5 56.5t-57.5 92t-31.5 132h82q13 -120 77.5 -181.5t165.5 -61.5t166 61.5t78 181.5h82
q-8 -74 -32.5 -132t-57 -92.5t-75 -56.5t-81.5 -30t-80 -8z" />
    <glyph glyph-name="obreve" unicode="&#x14f;" horiz-adv-x="1267" 
d="M631 -25q-146 0 -270.5 68t-199.5 192t-75 277q0 121 47 225.5t124 174t176 108.5t204 39q146 0 270.5 -68t199.5 -191.5t75 -275.5q0 -122 -46 -226.5t-122.5 -174t-176 -109t-206.5 -39.5zM635 35q65 0 121.5 27.5t102 83.5t71.5 151.5t26 220.5q0 127 -26 223t-72 152
t-102 83.5t-121 27.5q-67 0 -124 -27.5t-103 -83.5t-72.5 -152t-26.5 -223q0 -125 26.5 -220.5t72.5 -151.5t103 -83.5t124 -27.5zM635 1257q-40 0 -79 8t-82 30t-76 57t-57.5 93.5t-31.5 133.5h82q13 -120 78 -183t166 -63t166 63t78 183h82q-8 -75 -32.5 -133.5t-57 -93.5
t-75 -57t-81.5 -30t-80 -8z" />
    <glyph glyph-name="Ohungarumlaut" unicode="&#x150;" horiz-adv-x="1830" 
d="M915 -25q-168 0 -317.5 58.5t-260 162t-175 255.5t-64.5 329q0 178 64.5 330t175 256t260 162.5t317.5 58.5t318 -58.5t260.5 -162.5t175 -256t64.5 -330q0 -177 -64.5 -329t-175 -255.5t-260.5 -162t-318 -58.5zM915 43q125 0 231 50t183.5 142t121.5 232.5t44 312.5
q0 174 -44 314.5t-121.5 233.5t-183.5 142.5t-231 49.5q-257 0 -419 -197t-162 -543q0 -172 44 -312t121.5 -232.5t184 -142.5t231.5 -50zM692 1718l238 273h260v-4l-457 -269h-41zM1114 1718l238 273h260v-4l-457 -269h-41z" />
    <glyph glyph-name="ohungarumlaut" unicode="&#x151;" horiz-adv-x="1267" 
d="M631 -25q-146 0 -270.5 68t-199.5 192t-75 277q0 121 47 225.5t124 174t176 108.5t204 39q146 0 270.5 -68t199.5 -191.5t75 -275.5q0 -122 -46 -226.5t-122.5 -174t-176 -109t-206.5 -39.5zM635 35q65 0 121.5 27.5t102 83.5t71.5 151.5t26 220.5q0 127 -26 223t-72 152
t-102 83.5t-121 27.5q-67 0 -124 -27.5t-103 -83.5t-72.5 -152t-26.5 -223q0 -125 26.5 -220.5t72.5 -151.5t103 -83.5t124 -27.5zM446 1223l222 366h215v-14l-398 -352h-39zM807 1223l223 366h215v-14l-397 -352h-41z" />
    <glyph glyph-name="OE" unicode="&#x152;" horiz-adv-x="2721" 
d="M915 -25q-168 0 -317.5 58.5t-260 162t-175 255.5t-64.5 329q0 178 64.5 330t175 256t260 162.5t317.5 58.5q195 0 349 -86t256 -239v290h919l70 -454h-21l-225 356q-13 23 -22.5 28t-36.5 5h-512v-641h307q24 0 31.5 4.5t13.5 21.5l96 242h21v-608h-21l-96 239
q-6 18 -13.5 22.5t-31.5 4.5h-307v-706h610q24 0 33.5 5t23.5 23l297 365h21l-140 -459h-1017v301q-102 -153 -256 -239.5t-349 -86.5zM915 1520q-125 0 -231.5 -49.5t-185.5 -142t-123.5 -233.5t-44.5 -315q0 -172 44.5 -312.5t123.5 -232.5t185.5 -142t231.5 -50t231.5 50
t185 142t123 232.5t44.5 312.5q0 174 -44.5 314.5t-123 233.5t-185 142.5t-231.5 49.5z" />
    <glyph glyph-name="oe" unicode="&#x153;" horiz-adv-x="2029" 
d="M625 1059q136 0 240.5 -65t166.5 -179q66 117 176 180.5t244 63.5q59 0 116.5 -14t115.5 -46t105 -79t84 -119t54 -160h-782q-6 -103 17.5 -199.5t71.5 -173.5t127 -123.5t177 -46.5q280 0 369 277h47q-46 -202 -175.5 -301t-324.5 -99q-146 0 -256.5 61t-173.5 177
q-64 -112 -169.5 -175t-236.5 -63q-109 0 -206.5 40.5t-169.5 110.5t-114 170.5t-42 215.5q0 122 45 226t120 173.5t172 108.5t202 39zM1446 1010q-114 0 -193 -79.5t-102 -230.5h539q-5 139 -64.5 224.5t-179.5 85.5zM301 518q0 -125 26 -219.5t71 -150t101.5 -82.5
t123.5 -27q66 0 121.5 27t100 82.5t70 150t25.5 219.5q0 126 -25 221t-70 150.5t-100.5 82.5t-121.5 27q-141 0 -231.5 -118t-90.5 -363z" />
    <glyph glyph-name="Racute" unicode="&#x154;" horiz-adv-x="1562" 
d="M113 0v49l92 6q49 5 70.5 19.5t21.5 54.5v1294q0 40 -21.5 54.5t-70.5 19.5l-92 6v49h587q148 0 258.5 -17.5t200.5 -59t137 -117t47 -184.5q0 -167 -117.5 -263t-334.5 -123l717 -788h-265l-690 764h-149v-635q0 -40 21 -54.5t73 -19.5l92 -6v-49h-577zM504 827h180
q207 0 317.5 78t110.5 254q0 174 -110.5 252t-317.5 78h-180v-662zM698 1718l238 273h260v-4l-457 -269h-41z" />
    <glyph glyph-name="racute" unicode="&#x155;" horiz-adv-x="851" 
d="M72 0v47l71 4q50 1 64 13.5t14 54.5v715l-149 84v12l342 131v-324q37 159 136.5 234.5t240.5 75.5h18v-195l-80 8q-315 21 -315 -235v-506q0 -42 13.5 -53.5t66.5 -12.5l110 -6v-47h-532zM457 1223l223 366h215v-14l-397 -352h-41z" />
    <glyph glyph-name="uni0156" unicode="&#x156;" horiz-adv-x="1562" 
d="M113 0v49l92 6q49 5 70.5 19.5t21.5 54.5v1294q0 40 -21.5 54.5t-70.5 19.5l-92 6v49h587q148 0 258.5 -17.5t200.5 -59t137 -117t47 -184.5q0 -167 -117.5 -263t-334.5 -123l717 -788h-265l-690 764h-149v-635q0 -40 21 -54.5t73 -19.5l92 -6v-49h-577zM504 827h180
q207 0 317.5 78t110.5 254q0 174 -110.5 252t-317.5 78h-180v-662zM795 -702l-23 40q184 134 184 254q0 109 -129 138q-2 54 26.5 84t82.5 30q65 0 106 -46t41 -115q0 -192 -288 -385z" />
    <glyph glyph-name="uni0157" unicode="&#x157;" horiz-adv-x="851" 
d="M72 0v47l71 4q50 1 64 13.5t14 54.5v715l-149 84v12l342 131v-324q37 159 136.5 234.5t240.5 75.5h18v-195l-80 8q-315 21 -315 -235v-506q0 -42 13.5 -53.5t66.5 -12.5l110 -6v-47h-532zM170 -702l-23 40q185 135 185 254q0 109 -129 138q-2 54 26 84t82 30
q65 0 106.5 -46t41.5 -115q0 -192 -289 -385z" />
    <glyph glyph-name="Rcaron" unicode="&#x158;" horiz-adv-x="1562" 
d="M113 0v49l92 6q49 5 70.5 19.5t21.5 54.5v1294q0 40 -21.5 54.5t-70.5 19.5l-92 6v49h587q148 0 258.5 -17.5t200.5 -59t137 -117t47 -184.5q0 -167 -117.5 -263t-334.5 -123l717 -788h-265l-690 764h-149v-635q0 -40 21 -54.5t73 -19.5l92 -6v-49h-577zM504 827h180
q207 0 317.5 78t110.5 254q0 174 -110.5 252t-317.5 78h-180v-662zM422 2015h39l295 -147l295 147h39l-322 -309h-25z" />
    <glyph glyph-name="rcaron" unicode="&#x159;" horiz-adv-x="851" 
d="M72 0v47l71 4q50 1 64 13.5t14 54.5v715l-149 84v12l342 131v-324q37 159 136.5 234.5t240.5 75.5h18v-195l-80 8q-315 21 -315 -235v-506q0 -42 13.5 -53.5t66.5 -12.5l110 -6v-47h-532zM190 1624h41l297 -223l297 223h41l-329 -401h-17z" />
    <glyph glyph-name="Sacute" unicode="&#x15a;" horiz-adv-x="1288" 
d="M596 -25q-238 0 -397 54l-47 469h36l177 -363q27 -53 79 -74q56 -20 154 -20q166 0 279.5 78.5t113.5 210.5q0 72 -25 128.5t-75.5 98.5t-112.5 72.5t-149 58.5l-109 35q-377 119 -377 453q0 126 78 221.5t198.5 142.5t260.5 47q207 0 348 -55l74 -418h-37l-199 326
q-22 35 -40.5 48t-53.5 21q-54 11 -121 11q-85 0 -158.5 -32t-121 -96.5t-47.5 -148.5q0 -217 256 -299l108 -35q93 -30 162 -60.5t133.5 -72.5t105.5 -91.5t65 -117t24 -149.5q0 -131 -79 -233t-211 -156t-292 -54zM588 1718l237 273h260v-4l-456 -269h-41z" />
    <glyph glyph-name="sacute" unicode="&#x15b;" horiz-adv-x="966" 
d="M436 -25q-153 0 -276 35l-43 363h41l153 -291q21 -38 52.5 -47.5t97.5 -9.5q55 0 109.5 20.5t94.5 65.5t40 104q0 83 -53 128t-142 71l-123 32q-119 32 -189.5 114t-70.5 200q0 141 116 220t285 79q131 0 244 -45l49 -322h-43l-164 269q-17 28 -50 37.5t-83 9.5
q-84 0 -144.5 -46t-60.5 -126q0 -145 154 -187l125 -33q317 -83 317 -321q0 -139 -123.5 -229.5t-312.5 -90.5zM436 1223l223 366h215v-14l-397 -352h-41z" />
    <glyph glyph-name="Scircumflex" unicode="&#x15c;" horiz-adv-x="1288" 
d="M596 -25q-238 0 -397 54l-47 469h36l177 -363q27 -53 79 -74q56 -20 154 -20q166 0 279.5 78.5t113.5 210.5q0 72 -25 128.5t-75.5 98.5t-112.5 72.5t-149 58.5l-109 35q-377 119 -377 453q0 126 78 221.5t198.5 142.5t260.5 47q207 0 348 -55l74 -418h-37l-199 326
q-22 35 -40.5 48t-53.5 21q-54 11 -121 11q-85 0 -158.5 -32t-121 -96.5t-47.5 -148.5q0 -217 256 -299l108 -35q93 -30 162 -60.5t133.5 -72.5t105.5 -91.5t65 -117t24 -149.5q0 -131 -79 -233t-211 -156t-292 -54zM311 1706l322 309h24l322 -309h-39l-295 147l-295 -147
h-39z" />
    <glyph glyph-name="scircumflex" unicode="&#x15d;" horiz-adv-x="966" 
d="M436 -25q-153 0 -276 35l-43 363h41l153 -291q21 -38 52.5 -47.5t97.5 -9.5q55 0 109.5 20.5t94.5 65.5t40 104q0 83 -53 128t-142 71l-123 32q-119 32 -189.5 114t-70.5 200q0 141 116 220t285 79q131 0 244 -45l49 -322h-43l-164 269q-17 28 -50 37.5t-83 9.5
q-84 0 -144.5 -46t-60.5 -126q0 -145 154 -187l125 -33q317 -83 317 -321q0 -139 -123.5 -229.5t-312.5 -90.5zM170 1223l330 401h16l330 -401h-41l-297 225l-297 -225h-41z" />
    <glyph glyph-name="Scedilla" unicode="&#x15e;" horiz-adv-x="1288" 
d="M596 -25q-238 0 -397 54l-47 469h36l177 -363q27 -53 79 -74q56 -20 154 -20q166 0 279.5 78.5t113.5 210.5q0 72 -25 128.5t-75.5 98.5t-112.5 72.5t-149 58.5l-109 35q-377 119 -377 453q0 126 78 221.5t198.5 142.5t260.5 47q207 0 348 -55l74 -418h-37l-199 326
q-22 35 -40.5 48t-53.5 21q-54 11 -121 11q-85 0 -158.5 -32t-121 -96.5t-47.5 -148.5q0 -217 256 -299l108 -35q93 -30 162 -60.5t133.5 -72.5t105.5 -91.5t65 -117t24 -149.5q0 -131 -79 -233t-211 -156t-292 -54zM547 -532q-74 0 -129.5 32t-55.5 82q0 26 22 40.5t56 8.5
q1 -57 40.5 -87.5t94.5 -30.5q48 0 79.5 22.5t31.5 58.5q0 41 -60 80.5t-175 89.5l227 236h67l-167 -172q101 -52 143.5 -92.5t42.5 -102.5q0 -68 -60 -116.5t-157 -48.5z" />
    <glyph glyph-name="scedilla" unicode="&#x15f;" horiz-adv-x="966" 
d="M436 -25q-153 0 -276 35l-43 363h41l153 -291q21 -38 52.5 -47.5t97.5 -9.5q55 0 109.5 20.5t94.5 65.5t40 104q0 83 -53 128t-142 71l-123 32q-119 32 -189.5 114t-70.5 200q0 141 116 220t285 79q131 0 244 -45l49 -322h-43l-164 269q-17 28 -50 37.5t-83 9.5
q-84 0 -144.5 -46t-60.5 -126q0 -145 154 -187l125 -33q317 -83 317 -321q0 -139 -123.5 -229.5t-312.5 -90.5zM385 -526q-73 0 -128.5 32t-55.5 82q0 26 22 43t56 11q1 -59 37.5 -91t97.5 -32q46 0 79 19.5t33 55.5q0 45 -60.5 85.5t-176.5 91.5l227 235h62l-166 -172
q104 -52 147 -92t43 -102q0 -68 -60 -117t-157 -49z" />
    <glyph glyph-name="Scaron" unicode="&#x160;" horiz-adv-x="1288" 
d="M596 -25q-238 0 -397 54l-47 469h36l177 -363q27 -53 79 -74q56 -20 154 -20q166 0 279.5 78.5t113.5 210.5q0 72 -25 128.5t-75.5 98.5t-112.5 72.5t-149 58.5l-109 35q-377 119 -377 453q0 126 78 221.5t198.5 142.5t260.5 47q207 0 348 -55l74 -418h-37l-199 326
q-22 35 -40.5 48t-53.5 21q-54 11 -121 11q-85 0 -158.5 -32t-121 -96.5t-47.5 -148.5q0 -217 256 -299l108 -35q93 -30 162 -60.5t133.5 -72.5t105.5 -91.5t65 -117t24 -149.5q0 -131 -79 -233t-211 -156t-292 -54zM311 2015h39l295 -147l295 147h39l-322 -309h-24z" />
    <glyph glyph-name="scaron" unicode="&#x161;" horiz-adv-x="966" 
d="M436 -25q-153 0 -276 35l-43 363h41l153 -291q21 -38 52.5 -47.5t97.5 -9.5q55 0 109.5 20.5t94.5 65.5t40 104q0 83 -53 128t-142 71l-123 32q-119 32 -189.5 114t-70.5 200q0 141 116 220t285 79q131 0 244 -45l49 -322h-43l-164 269q-17 28 -50 37.5t-83 9.5
q-84 0 -144.5 -46t-60.5 -126q0 -145 154 -187l125 -33q317 -83 317 -321q0 -139 -123.5 -229.5t-312.5 -90.5zM170 1624h41l297 -223l297 223h41l-330 -401h-16z" />
    <glyph glyph-name="uni0162" unicode="&#x162;" horiz-adv-x="1548" 
d="M455 0v51l123 6q48 2 70 17t22 55v1364h-357q-28 0 -38.5 -5.5t-20.5 -27.5l-180 -387h-37l49 479h1374l51 -479h-36l-183 387q-10 22 -20.5 27.5t-36.5 5.5h-356v-1364q0 -40 20 -53.5t72 -18.5l123 -6v-51h-639zM608 -702l-22 40q184 134 184 254q0 109 -129 138
q-2 54 26.5 84t82.5 30q65 0 106 -46t41 -115q0 -192 -289 -385z" />
    <glyph glyph-name="uni0163" unicode="&#x163;" horiz-adv-x="808" 
d="M420 924v-680q0 -89 34 -124.5t105 -35.5q105 0 191 45l18 -37q-51 -41 -144.5 -74.5t-181.5 -33.5q-114 0 -164.5 44.5t-50.5 161.5v734h-221v12l402 313h12v-221h397l-65 -104h-332zM211 -702l-23 40q185 135 185 254q0 109 -129 138q-2 54 26 84t82 30q65 0 106.5 -46
t41.5 -115q0 -192 -289 -385z" />
    <glyph glyph-name="Tcaron" unicode="&#x164;" horiz-adv-x="1548" 
d="M455 0v51l123 6q48 2 70 17t22 55v1364h-357q-28 0 -38.5 -5.5t-20.5 -27.5l-180 -387h-37l49 479h1374l51 -479h-36l-183 387q-10 22 -20.5 27.5t-36.5 5.5h-356v-1364q0 -40 20 -53.5t72 -18.5l123 -6v-51h-639zM440 2015h39l295 -147l295 147h39l-322 -309h-24z" />
    <glyph glyph-name="tcaron" unicode="&#x165;" horiz-adv-x="808" 
d="M420 924v-680q0 -89 34 -124.5t105 -35.5q105 0 191 45l18 -37q-51 -41 -144.5 -74.5t-181.5 -33.5q-114 0 -164.5 44.5t-50.5 161.5v734h-221v12l402 313h12v-221h397l-65 -104h-332zM590 1178l-23 39q185 135 185 253q0 109 -129 138q-2 55 26.5 85.5t81.5 30.5
q65 0 106.5 -46.5t41.5 -116.5q0 -190 -289 -383z" />
    <glyph glyph-name="Tbar" unicode="&#x166;" horiz-adv-x="1548" 
d="M455 0v51l123 6q48 2 70 17t22 55v1364h-357q-28 0 -38.5 -5.5t-20.5 -27.5l-180 -387h-37l49 479h1374l51 -479h-36l-183 387q-10 22 -20.5 27.5t-36.5 5.5h-356v-1364q0 -40 20 -53.5t72 -18.5l123 -6v-51h-639zM281 776v82h989v-82h-989z" />
    <glyph glyph-name="tbar" unicode="&#x167;" horiz-adv-x="890" 
d="M461 924v-680q0 -89 34 -124.5t105 -35.5q105 0 191 45l18 -37q-51 -41 -144.5 -74.5t-181.5 -33.5q-114 0 -164.5 44.5t-50.5 161.5v734h-221v12l402 313h12v-221h397l-65 -104h-332zM63 666v71h760v-71h-760z" />
    <glyph glyph-name="Utilde" unicode="&#x168;" horiz-adv-x="1763" 
d="M889 -25q-637 0 -637 631v817q0 40 -21.5 54.5t-70.5 19.5l-92 6v49h577v-49l-92 -6q-49 -5 -70.5 -19.5t-21.5 -54.5v-821q0 -272 117 -400t364 -128q250 0 371 137t121 410v802q0 40 -21 54.5t-72 19.5l-92 6v49h449v-49l-90 -6q-52 -5 -73.5 -19.5t-21.5 -54.5v-815
q0 -312 -158 -472.5t-466 -160.5zM1108 1704q-39 0 -77.5 14.5t-69 35t-59.5 40.5t-62 34.5t-64 14.5q-105 0 -114 -127h-35q0 113 44.5 192t127.5 79q42 0 88 -22t79.5 -48t76.5 -48t81 -22q48 0 77.5 30t33.5 89h35q-1 -127 -48 -194.5t-114 -67.5z" />
    <glyph glyph-name="utilde" unicode="&#x169;" horiz-adv-x="1251" 
d="M512 -25q-157 0 -236 95.5t-79 314.5v561l-148 37v45h340v-608q0 -179 52.5 -253.5t164.5 -74.5q110 0 178 80t68 250v524l-145 37v45h337v-938h158v-45l-350 -63v276q-32 -139 -121 -211t-219 -72zM776 1288q-39 0 -77.5 14.5t-69 35t-59.5 40.5t-62 34.5t-64 14.5
q-105 0 -114 -124h-35q0 111 44.5 189.5t127.5 78.5q42 0 88.5 -21.5t80 -48t76.5 -48t81 -21.5q48 0 77 30.5t33 89.5h35q-1 -128 -48 -196t-114 -68z" />
    <glyph glyph-name="Umacron" unicode="&#x16a;" horiz-adv-x="1763" 
d="M889 -25q-637 0 -637 631v817q0 40 -21.5 54.5t-70.5 19.5l-92 6v49h577v-49l-92 -6q-49 -5 -70.5 -19.5t-21.5 -54.5v-821q0 -272 117 -400t364 -128q250 0 371 137t121 410v802q0 40 -21 54.5t-72 19.5l-92 6v49h449v-49l-90 -6q-52 -5 -73.5 -19.5t-21.5 -54.5v-815
q0 -312 -158 -472.5t-466 -160.5zM643 1806v90h610v-90h-610z" />
    <glyph glyph-name="umacron" unicode="&#x16b;" horiz-adv-x="1251" 
d="M512 -25q-157 0 -236 95.5t-79 314.5v561l-148 37v45h340v-608q0 -179 52.5 -253.5t164.5 -74.5q110 0 178 80t68 250v524l-145 37v45h337v-938h158v-45l-350 -63v276q-32 -139 -121 -211t-219 -72zM311 1368v92h611v-92h-611z" />
    <glyph glyph-name="Ubreve" unicode="&#x16c;" horiz-adv-x="1763" 
d="M889 -25q-637 0 -637 631v817q0 40 -21.5 54.5t-70.5 19.5l-92 6v49h577v-49l-92 -6q-49 -5 -70.5 -19.5t-21.5 -54.5v-821q0 -272 117 -400t364 -128q250 0 371 137t121 410v802q0 40 -21 54.5t-72 19.5l-92 6v49h449v-49l-90 -6q-52 -5 -73.5 -19.5t-21.5 -54.5v-815
q0 -312 -158 -472.5t-466 -160.5zM948 1698q-40 0 -79 8t-81.5 30.5t-75.5 56.5t-57.5 92t-31.5 132h82q13 -120 77.5 -181.5t165.5 -61.5t166 61.5t78 181.5h82q-8 -74 -32.5 -132t-57 -92.5t-75 -56.5t-81.5 -30t-80 -8z" />
    <glyph glyph-name="ubreve" unicode="&#x16d;" horiz-adv-x="1251" 
d="M512 -25q-157 0 -236 95.5t-79 314.5v561l-148 37v45h340v-608q0 -179 52.5 -253.5t164.5 -74.5q110 0 178 80t68 250v524l-145 37v45h337v-938h158v-45l-350 -63v276q-32 -139 -121 -211t-219 -72zM616 1257q-40 0 -79 8t-81.5 30t-75.5 57t-57.5 93.5t-31.5 133.5h82
q13 -120 77.5 -183t165.5 -63t166 63t78 183h82q-8 -75 -32.5 -133.5t-57 -93.5t-75 -57t-81.5 -30t-80 -8z" />
    <glyph glyph-name="Uring" unicode="&#x16e;" horiz-adv-x="1763" 
d="M889 -25q-637 0 -637 631v817q0 40 -21.5 54.5t-70.5 19.5l-92 6v49h577v-49l-92 -6q-49 -5 -70.5 -19.5t-21.5 -54.5v-821q0 -272 117 -400t364 -128q250 0 371 137t121 410v802q0 40 -21 54.5t-72 19.5l-92 6v49h449v-49l-90 -6q-52 -5 -73.5 -19.5t-21.5 -54.5v-815
q0 -312 -158 -472.5t-466 -160.5zM948 1710q-98 0 -166.5 66t-68.5 163q0 94 69 162t166 68q99 0 169.5 -68t70.5 -162q0 -98 -69.5 -163.5t-170.5 -65.5zM948 1784q69 0 112.5 43t43.5 112q0 67 -43.5 109.5t-112.5 42.5q-68 0 -110.5 -42.5t-42.5 -109.5q0 -69 42.5 -112
t110.5 -43z" />
    <glyph glyph-name="uring" unicode="&#x16f;" horiz-adv-x="1251" 
d="M512 -25q-157 0 -236 95.5t-79 314.5v561l-148 37v45h340v-608q0 -179 52.5 -253.5t164.5 -74.5q110 0 178 80t68 250v524l-145 37v45h337v-938h158v-45l-350 -63v276q-32 -139 -121 -211t-219 -72zM616 1198q-97 0 -166 66t-69 161q0 94 69 162t166 68q99 0 169.5 -68
t70.5 -162q0 -95 -70 -161t-170 -66zM616 1272q69 0 112.5 42.5t43.5 110.5t-43.5 111t-112.5 43q-67 0 -110 -43t-43 -111q0 -67 42.5 -110t110.5 -43z" />
    <glyph glyph-name="Uhungarumlaut" unicode="&#x170;" horiz-adv-x="1763" 
d="M889 -25q-637 0 -637 631v817q0 40 -21.5 54.5t-70.5 19.5l-92 6v49h577v-49l-92 -6q-49 -5 -70.5 -19.5t-21.5 -54.5v-821q0 -272 117 -400t364 -128q250 0 371 137t121 410v802q0 40 -21 54.5t-72 19.5l-92 6v49h449v-49l-90 -6q-52 -5 -73.5 -19.5t-21.5 -54.5v-815
q0 -312 -158 -472.5t-466 -160.5zM725 1718l238 273h260v-4l-457 -269h-41zM1147 1718l237 273h261v-4l-457 -269h-41z" />
    <glyph glyph-name="uhungarumlaut" unicode="&#x171;" horiz-adv-x="1251" 
d="M512 -25q-157 0 -236 95.5t-79 314.5v561l-148 37v45h340v-608q0 -179 52.5 -253.5t164.5 -74.5q110 0 178 80t68 250v524l-145 37v45h337v-938h158v-45l-350 -63v276q-32 -139 -121 -211t-219 -72zM428 1223l221 366h215v-14l-397 -352h-39zM788 1223l224 366h215v-14
l-398 -352h-41z" />
    <glyph glyph-name="Uogonek" unicode="&#x172;" horiz-adv-x="1763" 
d="M889 -25q-637 0 -637 631v817q0 40 -21.5 54.5t-70.5 19.5l-92 6v49h577v-49l-92 -6q-49 -5 -70.5 -19.5t-21.5 -54.5v-821q0 -272 117 -400t364 -128q250 0 371 137t121 410v802q0 40 -21 54.5t-72 19.5l-92 6v49h449v-49l-90 -6q-52 -5 -73.5 -19.5t-21.5 -54.5v-815
q0 -262 -113 -417.5t-333 -198.5q-176 -162 -176 -275q0 -59 43.5 -91t112.5 -32q57 0 133 31l4 -43q-37 -25 -94 -42t-111 -17q-88 0 -150.5 44.5t-62.5 119.5q0 119 248 297q-62 -9 -125 -9z" />
    <glyph glyph-name="uogonek" unicode="&#x173;" horiz-adv-x="1251" 
d="M512 -25q-157 0 -236 95.5t-79 314.5v561l-148 37v45h340v-608q0 -179 52.5 -253.5t164.5 -74.5q110 0 178 80t68 250v524l-145 37v45h337v-938h158v-45l-313 -55q-166 -157 -166 -262q0 -59 43.5 -91t112.5 -32q60 0 133 30l4 -43q-37 -25 -94 -42t-111 -17
q-88 0 -150.5 44.5t-62.5 119.5q0 124 254 301v260q-32 -139 -121 -211t-219 -72z" />
    <glyph glyph-name="Wcircumflex" unicode="&#x174;" horiz-adv-x="2422" 
d="M776 -51l-616 1478q-17 38 -38.5 51.5t-66.5 18.5l-90 6v49h588v-49l-102 -6q-52 -5 -68.5 -19t0.5 -51l481 -1171l330 791l-190 505h532v-49l-188 -6q-51 -2 -67 -17t-3 -53l418 -1171l483 1171q17 37 0.5 51t-68.5 19l-100 6v49h447v-49l-91 -6q-47 -4 -67 -17.5
t-37 -52.5l-618 -1478h-35l-379 1003l-422 -1003h-33zM877 1706l321 309h25l321 -309h-39l-295 147l-295 -147h-38z" />
    <glyph glyph-name="wcircumflex" unicode="&#x175;" horiz-adv-x="1785" 
d="M549 -23l-397 922q-21 46 -39 62.5t-62 17.5l-59 2v47h497v-47l-67 -2q-96 -3 -66 -74l293 -678l215 494l-129 307h412v-47l-84 -2q-93 -3 -66 -74l277 -676l270 643q46 104 -59 107l-74 2v47h389v-47l-65 -2q-45 -1 -67 -20t-44 -66l-395 -916h-55l-279 668l-291 -668
h-55zM598 1223l330 401h16l330 -401h-41l-297 225l-297 -225h-41z" />
    <glyph glyph-name="Ycircumflex" unicode="&#x176;" horiz-adv-x="1576" 
d="M471 0v51l123 6q48 2 70 17t22 55v571l-508 727q-27 40 -44.5 53t-59.5 17l-90 6v49h594v-49l-103 -6q-109 -10 -67 -70l452 -649l455 649q13 18 13.5 30.5t-11 20.5t-28 12.5t-42.5 6.5l-102 6v49h450v-49l-90 -6q-41 -4 -58.5 -17.5t-45.5 -52.5l-508 -727v-571
q0 -40 21 -53.5t73 -18.5l123 -6v-51h-639zM514 1706l322 309h24l322 -309h-39l-295 147l-295 -147h-39z" />
    <glyph glyph-name="ycircumflex" unicode="&#x177;" horiz-adv-x="1161" 
d="M289 -518q-45 0 -76 29t-31 73q0 58 57.5 106.5t188.5 71.5l109 238l-379 899q-21 46 -39 62.5t-62 17.5l-59 2v47h498v-47l-68 -2q-93 -3 -66 -74l281 -672l285 639q46 104 -60 107l-75 2v47h389v-47l-66 -2q-45 -1 -66.5 -19.5t-43.5 -66.5l-549 -1215
q-52 -116 -71 -143q-37 -53 -97 -53zM293 1223l330 401h16l330 -401h-41l-297 225l-297 -225h-41z" />
    <glyph glyph-name="Ydieresis" unicode="&#x178;" horiz-adv-x="1576" 
d="M471 0v51l123 6q48 2 70 17t22 55v571l-508 727q-27 40 -44.5 53t-59.5 17l-90 6v49h594v-49l-103 -6q-109 -10 -67 -70l452 -649l455 649q13 18 13.5 30.5t-11 20.5t-28 12.5t-42.5 6.5l-102 6v49h450v-49l-90 -6q-41 -4 -58.5 -17.5t-45.5 -52.5l-508 -727v-571
q0 -40 21 -53.5t73 -18.5l123 -6v-51h-639zM610 1749q-54 0 -92.5 38.5t-38.5 92.5q0 52 39 91.5t92 39.5t92 -39.5t39 -91.5q0 -54 -38.5 -92.5t-92.5 -38.5zM1085 1749q-54 0 -92.5 38.5t-38.5 92.5q0 52 39 91.5t92 39.5t92.5 -39.5t39.5 -91.5q0 -54 -39 -92.5
t-93 -38.5z" />
    <glyph glyph-name="Zacute" unicode="&#x179;" horiz-adv-x="1499" 
d="M45 0v20l1094 1469h-666q-29 0 -38.5 -5t-26.5 -28l-269 -362h-37l142 458h1153v-22l-1090 -1467h766q27 0 37 5t27 28l268 363h39l-144 -459h-1255zM727 1718l238 273h260v-4l-457 -269h-41z" />
    <glyph glyph-name="zacute" unicode="&#x17a;" horiz-adv-x="1081" 
d="M61 0l678 971h-323q-36 0 -55.5 -8.5t-36.5 -34.5l-201 -301h-37l96 401h811l-676 -971h336q36 0 55 9t42 38l235 306h39l-129 -410h-834zM483 1223l224 366h215v-14l-398 -352h-41z" />
    <glyph glyph-name="Zdotaccent" unicode="&#x17b;" horiz-adv-x="1499" 
d="M45 0v20l1094 1469h-666q-29 0 -38.5 -5t-26.5 -28l-269 -362h-37l142 458h1153v-22l-1090 -1467h766q27 0 37 5t27 28l268 363h39l-144 -459h-1255zM784 1749q-54 0 -92.5 38.5t-38.5 92.5q0 52 39 91.5t92 39.5t92 -39.5t39 -91.5q0 -54 -38.5 -92.5t-92.5 -38.5z" />
    <glyph glyph-name="zdotaccent" unicode="&#x17c;" horiz-adv-x="1081" 
d="M61 0l678 971h-323q-36 0 -55.5 -8.5t-36.5 -34.5l-201 -301h-37l96 401h811l-676 -971h336q36 0 55 9t42 38l235 306h39l-129 -410h-834zM555 1346q-54 0 -92.5 38.5t-38.5 92.5q0 52 39 91.5t92 39.5t92 -39.5t39 -91.5q0 -54 -38.5 -92.5t-92.5 -38.5z" />
    <glyph glyph-name="Zcaron" unicode="&#x17d;" horiz-adv-x="1499" 
d="M45 0v20l1094 1469h-666q-29 0 -38.5 -5t-26.5 -28l-269 -362h-37l142 458h1153v-22l-1090 -1467h766q27 0 37 5t27 28l268 363h39l-144 -459h-1255zM451 2015h38l295 -147l295 147h39l-321 -309h-25z" />
    <glyph glyph-name="zcaron" unicode="&#x17e;" horiz-adv-x="1081" 
d="M61 0l678 971h-323q-36 0 -55.5 -8.5t-36.5 -34.5l-201 -301h-37l96 401h811l-676 -971h336q36 0 55 9t42 38l235 306h39l-129 -410h-834zM217 1624h41l297 -223l297 223h41l-330 -401h-16z" />
    <glyph glyph-name="uni018F" unicode="&#x18f;" horiz-adv-x="1705" 
d="M836 -23q-188 0 -345.5 73t-262.5 214.5t-132 329.5h1297q6 31 6 90q0 186 -53 334t-144.5 241t-209.5 142t-253 49q-109 0 -207 -31t-181 -92t-139.5 -161.5t-74.5 -229.5h-49q16 198 115.5 346.5t262 226.5t365.5 78q161 0 302 -56t245.5 -157.5t165 -254.5t60.5 -337
q0 -179 -58 -330t-159.5 -255t-243.5 -162t-307 -58zM836 43q201 0 353.5 129t188.5 336h-1048q41 -220 177 -342.5t329 -122.5z" />
    <glyph glyph-name="uni0218" unicode="&#x218;" horiz-adv-x="1288" 
d="M596 -25q-238 0 -397 54l-47 469h36l177 -363q27 -53 79 -74q56 -20 154 -20q166 0 279.5 78.5t113.5 210.5q0 72 -25 128.5t-75.5 98.5t-112.5 72.5t-149 58.5l-109 35q-377 119 -377 453q0 126 78 221.5t198.5 142.5t260.5 47q207 0 348 -55l74 -418h-37l-199 326
q-22 35 -40.5 48t-53.5 21q-54 11 -121 11q-85 0 -158.5 -32t-121 -96.5t-47.5 -148.5q0 -217 256 -299l108 -35q93 -30 162 -60.5t133.5 -72.5t105.5 -91.5t65 -117t24 -149.5q0 -131 -79 -233t-211 -156t-292 -54zM528 -702l-22 40q184 134 184 254q0 109 -129 138
q-2 54 26.5 84t82.5 30q65 0 106 -46t41 -115q0 -192 -289 -385z" />
    <glyph glyph-name="uni0219" unicode="&#x219;" horiz-adv-x="966" 
d="M436 -25q-153 0 -276 35l-43 363h41l153 -291q21 -38 52.5 -47.5t97.5 -9.5q55 0 109.5 20.5t94.5 65.5t40 104q0 83 -53 128t-142 71l-123 32q-119 32 -189.5 114t-70.5 200q0 141 116 220t285 79q131 0 244 -45l49 -322h-43l-164 269q-17 28 -50 37.5t-83 9.5
q-84 0 -144.5 -46t-60.5 -126q0 -145 154 -187l125 -33q317 -83 317 -321q0 -139 -123.5 -229.5t-312.5 -90.5zM356 -702l-22 40q184 134 184 254q0 109 -129 138q-2 54 26.5 84t82.5 30q65 0 106 -46t41 -115q0 -192 -289 -385z" />
    <glyph glyph-name="uni021A" unicode="&#x21a;" horiz-adv-x="1548" 
d="M455 0v51l123 6q48 2 70 17t22 55v1364h-357q-28 0 -38.5 -5.5t-20.5 -27.5l-180 -387h-37l49 479h1374l51 -479h-36l-183 387q-10 22 -20.5 27.5t-36.5 5.5h-356v-1364q0 -40 20 -53.5t72 -18.5l123 -6v-51h-639zM608 -702l-22 40q184 134 184 254q0 109 -129 138
q-2 54 26.5 84t82.5 30q65 0 106 -46t41 -115q0 -192 -289 -385z" />
    <glyph glyph-name="uni021B" unicode="&#x21b;" horiz-adv-x="808" 
d="M420 924v-680q0 -89 34 -124.5t105 -35.5q105 0 191 45l18 -37q-51 -41 -144.5 -74.5t-181.5 -33.5q-114 0 -164.5 44.5t-50.5 161.5v734h-221v12l402 313h12v-221h397l-65 -104h-332zM211 -702l-23 40q185 135 185 254q0 109 -129 138q-2 54 26 84t82 30q65 0 106.5 -46
t41.5 -115q0 -192 -289 -385z" />
    <glyph glyph-name="uni0232" unicode="&#x232;" horiz-adv-x="1576" 
d="M471 0v51l123 6q48 2 70 17t22 55v571l-508 727q-27 40 -44.5 53t-59.5 17l-90 6v49h594v-49l-103 -6q-109 -10 -67 -70l452 -649l455 649q13 18 13.5 30.5t-11 20.5t-28 12.5t-42.5 6.5l-102 6v49h450v-49l-90 -6q-41 -4 -58.5 -17.5t-45.5 -52.5l-508 -727v-571
q0 -40 21 -53.5t73 -18.5l123 -6v-51h-639zM543 1806v90h610v-90h-610z" />
    <glyph glyph-name="uni0233" unicode="&#x233;" horiz-adv-x="1161" 
d="M289 -518q-45 0 -76 29t-31 73q0 58 57.5 106.5t188.5 71.5l109 238l-379 899q-21 46 -39 62.5t-62 17.5l-59 2v47h498v-47l-68 -2q-93 -3 -66 -74l281 -672l285 639q46 104 -60 107l-75 2v47h389v-47l-66 -2q-45 -1 -66.5 -19.5t-43.5 -66.5l-549 -1215
q-52 -116 -71 -143q-37 -53 -97 -53zM326 1368v92h610v-92h-610z" />
    <glyph glyph-name="uni0237" unicode="&#x237;" horiz-adv-x="571" 
d="M-39 -535l-24 37q58 48 89 76.5t66.5 68.5t52 75t32.5 86.5t21 112t5 142.5v771l-150 84v12l342 131v-989q0 -177 -44 -272.5t-152 -174.5q-108 -81 -238 -160z" />
    <glyph glyph-name="uni0259" unicode="&#x259;" horiz-adv-x="1181" 
d="M575 1061q148 0 265 -63.5t185.5 -187t68.5 -288.5q0 -120 -42.5 -223t-113.5 -173t-164.5 -109.5t-195.5 -39.5q-59 0 -117 14t-115.5 46t-105 79t-84.5 119t-54 160h783v39q0 223 -111 363.5t-282 140.5q-280 0 -369 -276h-47q46 202 175 300.5t324 98.5zM584 27
q114 0 193 79t102 230h-539q5 -138 64.5 -223.5t179.5 -85.5z" />
    <glyph glyph-name="uni02BB" unicode="&#x2bb;" horiz-adv-x="522" 
d="M414 1622l26 -45q-188 -144 -188 -289q0 -111 135 -149q2 -64 -38.5 -109t-106.5 -45q-64 0 -104 42.5t-40 121.5q0 116 80.5 241.5t235.5 231.5z" />
    <glyph glyph-name="uni02BC" unicode="&#x2bc;" horiz-adv-x="561" 
d="M133 969l-27 45q189 144 189 289q0 111 -135 149q-2 64 38.5 109t106.5 45q64 0 104 -42.5t40 -121.5q0 -116 -80.5 -241.5t-235.5 -231.5z" />
    <glyph glyph-name="circumflex" unicode="&#x2c6;" 
d="M-338 1223l330 401h16l330 -401h-41l-297 225l-297 -225h-41z" />
    <glyph glyph-name="caron" unicode="&#x2c7;" 
d="M-338 1624h41l297 -223l297 223h41l-330 -401h-16z" />
    <glyph glyph-name="breve" unicode="&#x2d8;" 
d="M-326 1257q-40 0 -79 8t-81.5 30t-75.5 57t-57.5 93.5t-31.5 133.5h82q13 -120 77.5 -183t165.5 -63t166 63t78 183h82q-8 -75 -32.5 -133.5t-57 -93.5t-75 -57t-81.5 -30t-80 -8z" />
    <glyph glyph-name="dotaccent" unicode="&#x2d9;" 
d="M-131 1346q-54 0 -92.5 38.5t-38.5 92.5q0 52 39 91.5t92 39.5t92 -39.5t39 -91.5q0 -54 -38.5 -92.5t-92.5 -38.5z" />
    <glyph glyph-name="ring" unicode="&#x2da;" 
d="M-236 1198q-97 0 -166 66t-69 161q0 94 69 162t166 68q99 0 169.5 -68t70.5 -162q0 -95 -70 -161t-170 -66zM-236 1272q69 0 112.5 42.5t43.5 110.5t-43.5 111t-112.5 43q-67 0 -110 -43t-43 -111q0 -67 42.5 -110t110.5 -43z" />
    <glyph glyph-name="ogonek" unicode="&#x2db;" 
d="M-4 -477q-88 0 -150.5 44.5t-62.5 119.5q0 40 26.5 85.5t69.5 88t86.5 76t89.5 63.5h45q-192 -169 -192 -283q0 -59 43 -91t112 -32q58 0 134 31l4 -43q-37 -25 -94 -42t-111 -17z" />
    <glyph glyph-name="tilde" unicode="&#x2dc;" 
d="M160 1288q-39 0 -77.5 14.5t-69 35t-59.5 40.5t-62 34.5t-64 14.5q-106 0 -115 -124h-35q0 111 44.5 189.5t127.5 78.5q42 0 88.5 -21.5t80 -48t76.5 -48t81 -21.5q48 0 77.5 30.5t33.5 89.5h35q-1 -128 -48 -196t-114 -68z" />
    <glyph glyph-name="hungarumlaut" unicode="&#x2dd;" 
d="M-408 1223l222 366h215v-14l-398 -352h-39zM-47 1223l223 366h215v-14l-397 -352h-41z" />
    <glyph glyph-name="uni0401" unicode="&#x401;" horiz-adv-x="1576" 
d="M113 0v49l92 6q49 5 70.5 19.5t21.5 54.5v1294q0 40 -21.5 54.5t-70.5 19.5l-92 6v49h1140l68 -454h-37l-209 356q-12 23 -22 28t-37 5h-512v-641h307q26 0 33 4.5t12 21.5l82 242h37v-608h-37l-82 239q-6 18 -13 22.5t-32 4.5h-307v-706h612q25 0 35 4.5t23 23.5
l280 365h37l-139 -459h-1239zM551 1749q-54 0 -92.5 38.5t-38.5 92.5q0 52 39 91.5t92 39.5t92 -39.5t39 -91.5q0 -54 -38.5 -92.5t-92.5 -38.5zM1026 1749q-54 0 -92.5 38.5t-38.5 92.5q0 52 39 91.5t92 39.5t92 -39.5t39 -91.5q0 -54 -38.5 -92.5t-92.5 -38.5z" />
    <glyph glyph-name="uni0402" unicode="&#x402;" horiz-adv-x="1806" 
d="M424 0v51l123 6q48 2 70 17t22 55v1364h-295q-28 0 -38.5 -5.5t-20.5 -27.5l-181 -346h-36l49 438h1292l51 -438h-37l-182 346q-10 22 -20.5 27.5t-36.5 5.5h-336v-774q61 95 176 151t260 56q209 0 315.5 -110.5t106.5 -358.5v-99q0 -55 -5 -97.5t-21 -80.5t-30.5 -63.5
t-48 -59.5t-58 -55.5t-75.5 -64.5q-30 -24 -241 -177l-33 45q57 47 84.5 70.5t66 58.5t55 54t38.5 50t30 54.5t17.5 58t11.5 70t2 82.5v117q0 214 -75.5 301.5t-235.5 87.5q-123 0 -209.5 -44.5t-130.5 -117.5v-518q0 -40 20 -53.5t72 -18.5l123 -6v-51h-639z" />
    <glyph glyph-name="uni0403" unicode="&#x403;" horiz-adv-x="1378" 
d="M524 1487v-1358q0 -41 22 -55.5t72 -16.5l177 -4v-53h-662v49l92 6q49 5 70.5 19.5t21.5 54.5v1294q0 40 -21.5 54.5t-70.5 19.5l-92 6v49h1127l69 -454h-37l-211 356q-12 22 -21.5 27.5t-35.5 5.5h-500zM690 1718l238 273h260v-4l-457 -269h-41z" />
    <glyph glyph-name="uni0404" unicode="&#x404;" horiz-adv-x="1720" 
d="M981 -25q-257 0 -456.5 97t-313 280.5t-113.5 427.5q0 245 114.5 429t316.5 281t462 97q139 0 271.5 -22.5t220.5 -69.5l86 -444h-37l-232 372q-24 36 -42 51t-54 25q-80 23 -221 23q-102 0 -193.5 -23.5t-174.5 -76t-143.5 -129.5t-97.5 -191.5t-40 -255.5h559
q26 0 33 4.5t12 21.5l82 242h37v-608h-37l-82 239q-6 18 -13 22.5t-32 4.5h-559q6 -160 54.5 -294.5t132.5 -231.5t206.5 -151t271.5 -54q145 0 222 22q36 10 54 25t42 51l231 373h37l-86 -444q-88 -46 -231 -69.5t-287 -23.5z" />
    <glyph glyph-name="uni0405" unicode="&#x405;" horiz-adv-x="1314" 
d="M580 -25q-239 0 -398 54l-47 469h37l176 -363q27 -53 80 -74q56 -20 154 -20q166 0 279.5 78.5t113.5 210.5q0 138 -91.5 219t-271.5 139l-108 35q-377 119 -377 453q0 126 78 221.5t198.5 142.5t260.5 47q207 0 348 -55l73 -418h-36l-199 326q-22 35 -40.5 48t-53.5 21
q-54 11 -121 11q-85 0 -158.5 -32t-121.5 -96.5t-48 -148.5q0 -217 256 -299l109 -35q93 -30 162 -60.5t133.5 -72.5t105 -91.5t64.5 -117t24 -149.5q0 -131 -79 -233t-210.5 -156t-291.5 -54z" />
    <glyph glyph-name="uni0406" unicode="&#x406;" horiz-adv-x="841" 
d="M113 0v49l92 6q49 5 70.5 19.5t21.5 54.5v1294q0 40 -21.5 54.5t-70.5 19.5l-92 6v49h577v-49l-92 -6q-52 -5 -73 -19.5t-21 -54.5v-1294q0 -40 21 -54.5t73 -19.5l92 -6v-49h-577z" />
    <glyph glyph-name="uni0407" unicode="&#x407;" horiz-adv-x="841" 
d="M113 0v49l92 6q49 5 70.5 19.5t21.5 54.5v1294q0 40 -21.5 54.5t-70.5 19.5l-92 6v49h577v-49l-92 -6q-52 -5 -73 -19.5t-21 -54.5v-1294q0 -40 21 -54.5t73 -19.5l92 -6v-49h-577zM164 1749q-54 0 -92.5 38.5t-38.5 92.5q0 52 39 91.5t92 39.5t92 -39.5t39 -91.5
q0 -54 -38.5 -92.5t-92.5 -38.5zM639 1749q-54 0 -92.5 38.5t-38.5 92.5q0 52 39 91.5t92 39.5t92 -39.5t39 -91.5q0 -54 -38.5 -92.5t-92.5 -38.5z" />
    <glyph glyph-name="uni0408" unicode="&#x408;" horiz-adv-x="806" 
d="M29 -240l-33 45q57 47 84.5 70.5t66 58.5t55 54t38.5 50t30 54.5t17.5 58t11.5 70t2 82.5v1124q0 39 -20.5 51.5t-69.5 14.5l-102 4v55h591v-55l-102 -4q-49 -2 -69.5 -14.5t-20.5 -51.5v-1069q0 -55 -5 -97.5t-21 -80.5t-30.5 -63.5t-48 -59.5t-58 -55.5t-75.5 -64.5
q-30 -24 -241 -177z" />
    <glyph glyph-name="uni0409" unicode="&#x409;" horiz-adv-x="2273" 
d="M1282 905h238q347 0 519.5 -105.5t172.5 -328.5q0 -220 -178 -345.5t-514 -125.5h-629v49l92 6q49 5 70.5 19.5t21.5 54.5v1360h-532q0 -506 -42 -817.5t-159 -542.5q-76 -154 -180 -154q-43 0 -69.5 25t-26.5 66q0 67 59 117.5t182 72.5q93 210 124.5 473.5t31.5 693.5
q0 40 -21.5 54.5t-70.5 19.5l-92 6v49h1230v-49l-133 -6q-52 -5 -73 -19.5t-21 -54.5v-518zM1282 63h184q265 0 389.5 93.5t124.5 298.5q0 206 -120.5 296.5t-368.5 90.5h-209v-779z" />
    <glyph glyph-name="uni040A" unicode="&#x40a;" horiz-adv-x="2457" 
d="M133 0v49l92 6q49 5 70.5 19.5t21.5 54.5v1294q0 40 -21.5 54.5t-70.5 19.5l-92 6v49h578v-49l-93 -6q-52 -5 -73 -19.5t-21 -54.5v-546h736v546q0 40 -22 54.5t-71 19.5l-92 6v49h619v-49l-133 -6q-50 -2 -72.5 -17.5t-22.5 -56.5v-546h238q348 0 520 -101.5t172 -318.5
q0 -214 -177.5 -335.5t-514.5 -121.5h-629v49l92 6q49 5 71 19.5t22 54.5v666h-736v-666q0 -40 21 -54.5t73 -19.5l93 -6v-49h-578zM1466 63h185q264 0 389 90t125 287q0 200 -119.5 286.5t-370.5 86.5h-209v-750z" />
    <glyph glyph-name="uni040B" unicode="&#x40b;" horiz-adv-x="1904" 
d="M424 0v51l123 6q48 2 70 17t22 55v1364h-295q-28 0 -38.5 -5.5t-20.5 -27.5l-181 -346h-36l49 438h1292l51 -438h-37l-182 346q-10 22 -20.5 27.5t-36.5 5.5h-336v-774q62 95 176 151t258 56q208 0 315 -96.5t107 -311.5v-389q0 -44 13 -55.5t67 -16.5l69 -6v-51h-356
v481q0 180 -75.5 254t-235.5 74q-123 0 -208.5 -44t-129.5 -118v-518q0 -40 20 -53.5t72 -18.5l123 -6v-51h-639z" />
    <glyph glyph-name="uni040C" unicode="&#x40c;" horiz-adv-x="1701" 
d="M113 0v49l92 6q49 5 70.5 19.5t21.5 54.5v1294q0 40 -21.5 54.5t-70.5 19.5l-92 6v49h577v-49l-92 -6q-52 -5 -73 -19.5t-21 -54.5v-645l717 670q42 39 -47 48q-3 1 -7 1l-131 6v49h541v-49l-107 -6q-62 -5 -94.5 -16.5t-64.5 -42.5l-604 -566l938 -872h-291l-850 772
v-643q0 -40 21 -54.5t73 -19.5l92 -6v-49h-577zM813 1718l238 273h260v-4l-457 -269h-41z" />
    <glyph glyph-name="uni040E" unicode="&#x40e;" horiz-adv-x="1597" 
d="M1403 1427l-668 -1286q-46 -90 -88.5 -128t-91.5 -38q-43 0 -69.5 25t-26.5 66q0 68 61.5 116t194.5 78l71 137l-571 1030q-24 40 -42.5 53t-61.5 17l-91 6v49h598v-49l-102 -6q-52 -5 -68.5 -20t1.5 -50l450 -813l422 813q18 35 0.5 50t-68.5 20l-102 6v49h446v-49
l-90 -6q-44 -4 -64.5 -18.5t-39.5 -51.5zM891 1698q-162 0 -245 90t-83 229h150q0 -99 24 -158t61 -80.5t93 -21.5q89 0 133.5 56t44.5 204h150q0 -147 -89.5 -233t-238.5 -86z" />
    <glyph glyph-name="uni040F" unicode="&#x40f;" horiz-adv-x="1847" 
d="M907 -326l-82 301q-6 25 -53 25h-639v49l92 6q49 5 70.5 19.5t21.5 54.5v1294q0 40 -21.5 54.5t-70.5 19.5l-92 6v49h578v-49l-93 -6q-49 -5 -70.5 -19.5t-21.5 -54.5v-1360h797v1360q0 40 -21 54.5t-73 19.5l-92 6v49h577v-49l-92 -6q-49 -5 -70.5 -19.5t-21.5 -54.5
v-1294q0 -40 21.5 -54.5t70.5 -19.5l92 -6v-49h-639q-47 0 -53 -25l-80 -301h-35z" />
    <glyph glyph-name="uni0410" unicode="&#x410;" horiz-adv-x="1675" 
d="M799 1626l602 -1501q17 -38 38 -51.5t68 -18.5l90 -6v-49h-591v49l102 6q52 5 68.5 19t-0.5 51l-177 446h-579l-176 -446q-17 -37 -1 -51t68 -19l103 -6v-49h-447v49l90 6q45 5 66.5 18.5t38.5 51.5l604 1501h33zM453 653h516l-258 656z" />
    <glyph glyph-name="uni0411" unicode="&#x411;" horiz-adv-x="1562" 
d="M1034 1487h-510v-604h238q347 0 519.5 -102.5t172.5 -319.5q0 -215 -177 -338t-515 -123h-629v49l92 6q49 5 70.5 19.5t21.5 54.5v1294q0 40 -21.5 54.5t-70.5 19.5l-92 6v49h1137l69 -454h-36l-211 356q-12 22 -22 27.5t-36 5.5zM524 63h185q265 0 389.5 90.5
t124.5 290.5q0 199 -121 287t-369 88h-209v-756z" />
    <glyph glyph-name="uni0412" unicode="&#x412;" horiz-adv-x="1562" 
d="M113 0v49l92 6q49 5 70.5 19.5t21.5 54.5v1294q0 40 -21.5 54.5t-70.5 19.5l-92 6v49h612q138 0 242.5 -17.5t185.5 -57.5t123.5 -109.5t42.5 -167.5q0 -153 -117 -253t-315 -120v-4q164 0 285 -39.5t191.5 -124.5t70.5 -210q0 -209 -167.5 -329t-484.5 -120h-669z
M504 852h241q171 0 263 85t92 239q0 164 -98 238.5t-295 74.5h-203v-637zM504 63h225q244 0 358.5 87.5t114.5 281.5q0 188 -114.5 272t-333.5 84h-250v-725z" />
    <glyph glyph-name="uni0413" unicode="&#x413;" horiz-adv-x="1378" 
d="M524 1487v-1358q0 -41 22 -55.5t72 -16.5l177 -4v-53h-662v49l92 6q49 5 70.5 19.5t21.5 54.5v1294q0 40 -21.5 54.5t-70.5 19.5l-92 6v49h1127l69 -454h-37l-211 356q-12 22 -21.5 27.5t-35.5 5.5h-500z" />
    <glyph glyph-name="uni0414" unicode="&#x414;" horiz-adv-x="1640" 
d="M250 -25l-154 -301h-35l17 389h168q188 450 188 1360q0 40 -21.5 54.5t-70.5 19.5l-92 6v49h1249v-49l-92 -6q-49 -5 -70.5 -19.5t-21.5 -54.5v-1360h213l16 -389h-35l-153 301q-14 25 -53 25h-1000q-24 0 -34.5 -5.5t-18.5 -19.5zM1108 63v1426h-594q0 -967 -186 -1426
h780z" />
    <glyph glyph-name="uni0415" unicode="&#x415;" horiz-adv-x="1576" 
d="M113 0v49l92 6q49 5 70.5 19.5t21.5 54.5v1294q0 40 -21.5 54.5t-70.5 19.5l-92 6v49h1140l68 -454h-37l-209 356q-12 23 -22 28t-37 5h-512v-641h307q26 0 33 4.5t12 21.5l82 242h37v-608h-37l-82 239q-6 18 -13 22.5t-32 4.5h-307v-706h612q25 0 35 4.5t23 23.5
l280 365h37l-139 -459h-1239z" />
    <glyph glyph-name="uni0416" unicode="&#x416;" horiz-adv-x="2420" 
d="M324 0h-287l866 862l-588 576q-32 32 -60 43.5t-89 15.5l-107 6v49h541v-49l-131 -6q-96 -6 -53 -49l684 -670v645q0 40 -21.5 54.5t-70.5 19.5l-93 6v49h578v-49l-92 -6q-52 -5 -73 -19.5t-21 -54.5v-645l684 670q41 41 -47 49h-7l-131 6v49h541v-49l-106 -6
q-64 -5 -96.5 -16.5t-63.5 -42.5l-576 -564l879 -874h-301l-776 772v-643q0 -40 21 -54.5t73 -19.5l92 -6v-49h-578v49l93 6q49 5 70.5 19.5t21.5 54.5v643z" />
    <glyph glyph-name="uni0417" unicode="&#x417;" horiz-adv-x="1411" 
d="M625 41q219 0 332.5 90.5t113.5 284.5q0 197 -107 284.5t-311 87.5h-178v64h170q161 0 247.5 89.5t86.5 254.5t-99 244.5t-274 79.5q-34 0 -98 -11q-35 -8 -53.5 -21t-40.5 -48l-199 -326h-37l74 418q140 55 387 55q116 0 212.5 -19t176.5 -60t125 -114t45 -173
q0 -160 -117.5 -267t-314.5 -127v-4q246 0 391.5 -98.5t145.5 -292.5q0 -210 -176 -333.5t-480 -123.5q-263 0 -422 54l-84 485h37l213 -379q35 -57 80 -74q56 -20 154 -20z" />
    <glyph glyph-name="uni0418" unicode="&#x418;" horiz-adv-x="1884" 
d="M133 0v49l92 6q49 5 70.5 19.5t21.5 54.5v1294q0 40 -21.5 54.5t-70.5 19.5l-92 6v49h578v-49l-93 -6q-52 -5 -73 -19.5t-21 -54.5v-1077l834 1018v59q0 40 -21.5 54.5t-70.5 19.5l-92 6v49h577v-49l-92 -6q-49 -5 -70.5 -19.5t-21.5 -54.5v-1294q0 -40 21.5 -54.5
t70.5 -19.5l92 -6v-49h-577v49l92 6q49 5 70.5 19.5t21.5 54.5v1114l-834 -1018v-96q0 -40 21 -54.5t73 -19.5l93 -6v-49h-578z" />
    <glyph glyph-name="uni0419" unicode="&#x419;" horiz-adv-x="1884" 
d="M133 0v49l92 6q49 5 70.5 19.5t21.5 54.5v1294q0 40 -21.5 54.5t-70.5 19.5l-92 6v49h578v-49l-93 -6q-52 -5 -73 -19.5t-21 -54.5v-1077l834 1018v59q0 40 -21.5 54.5t-70.5 19.5l-92 6v49h577v-49l-92 -6q-49 -5 -70.5 -19.5t-21.5 -54.5v-1294q0 -40 21.5 -54.5
t70.5 -19.5l92 -6v-49h-577v49l92 6q49 5 70.5 19.5t21.5 54.5v1114l-834 -1018v-96q0 -40 21 -54.5t73 -19.5l93 -6v-49h-578zM944 1698q-162 0 -245 90t-83 229h150q0 -144 46 -202t132 -58q89 0 133.5 56t44.5 204h150q0 -147 -89.5 -233t-238.5 -86z" />
    <glyph glyph-name="uni041A" unicode="&#x41a;" horiz-adv-x="1701" 
d="M113 0v49l92 6q49 5 70.5 19.5t21.5 54.5v1294q0 40 -21.5 54.5t-70.5 19.5l-92 6v49h577v-49l-92 -6q-52 -5 -73 -19.5t-21 -54.5v-645l717 670q42 39 -47 48q-3 1 -7 1l-131 6v49h541v-49l-107 -6q-62 -5 -94.5 -16.5t-64.5 -42.5l-604 -566l938 -872h-291l-850 772
v-643q0 -40 21 -54.5t73 -19.5l92 -6v-49h-577z" />
    <glyph glyph-name="uni041B" unicode="&#x41b;" horiz-adv-x="1642" 
d="M342 129q-79 -154 -180 -154q-43 0 -69.5 25t-26.5 66q0 67 59 117.5t182 72.5q93 210 124.5 473.5t31.5 693.5q0 40 -21.5 54.5t-70.5 19.5l-92 6v49h1230v-49l-92 -6q-49 -5 -70.5 -19.5t-21.5 -54.5v-1294q0 -40 21.5 -54.5t70.5 -19.5l92 -6v-49h-577v49l92 6
q49 5 70.5 19.5t21.5 54.5v1360h-573q0 -511 -41.5 -822t-159.5 -538z" />
    <glyph glyph-name="uni041C" unicode="&#x41c;" horiz-adv-x="2156" 
d="M72 0v49l90 6q48 5 69 19.5t25 54.5l82 1294q4 39 -18.5 54t-73.5 20l-92 6v49h456l459 -970l459 970h436v-49l-92 -6q-53 -5 -75.5 -19.5t-18.5 -54.5l82 -1294q4 -41 24 -55t70 -19l92 -6v-49h-578v49l91 6q53 5 75.5 19.5t18.5 54.5l-82 1337l-570 -1204h-12
l-571 1202l-82 -1335q-4 -40 18 -54.5t72 -19.5l94 -6v-49h-448z" />
    <glyph glyph-name="uni041D" unicode="&#x41d;" horiz-adv-x="1884" 
d="M113 0v49l92 6q49 5 70.5 19.5t21.5 54.5v1294q0 40 -21.5 54.5t-70.5 19.5l-92 6v49h577v-49l-92 -6q-52 -5 -73 -19.5t-21 -54.5v-567h833v567q0 40 -21.5 54.5t-70.5 19.5l-92 6v49h578v-49l-93 -6q-49 -5 -70.5 -19.5t-21.5 -54.5v-1294q0 -40 21.5 -54.5t70.5 -19.5
l93 -6v-49h-578v49l92 6q49 5 70.5 19.5t21.5 54.5v645h-833v-645q0 -40 21 -54.5t73 -19.5l92 -6v-49h-577z" />
    <glyph glyph-name="uni041E" unicode="&#x41e;" horiz-adv-x="1818" 
d="M915 -25q-168 0 -317.5 58.5t-260 162t-175 255.5t-64.5 329q0 178 64.5 330t175 256t260 162.5t317.5 58.5t318 -58.5t260.5 -162.5t175 -256t64.5 -330q0 -177 -64.5 -329t-175 -255.5t-260.5 -162t-318 -58.5zM915 43q125 0 231 50t183.5 142t121.5 232.5t44 312.5
q0 174 -44 314.5t-121.5 233.5t-183.5 142.5t-231 49.5q-257 0 -419 -197t-162 -543q0 -172 44 -312t121.5 -232.5t184 -142.5t231.5 -50z" />
    <glyph glyph-name="uni041F" unicode="&#x41f;" horiz-adv-x="1847" 
d="M133 1552h1581v-49l-92 -6q-49 -5 -70.5 -19.5t-21.5 -54.5v-1294q0 -40 21.5 -54.5t70.5 -19.5l92 -6v-49h-577v49l92 6q49 5 70.5 19.5t21.5 54.5v1360h-797v-1360q0 -40 21 -54.5t73 -19.5l93 -6v-49h-578v49l92 6q49 5 70.5 19.5t21.5 54.5v1294q0 40 -21.5 54.5
t-70.5 19.5l-92 6v49z" />
    <glyph glyph-name="uni0420" unicode="&#x420;" horiz-adv-x="1490" 
d="M113 0v49l92 6q49 5 70.5 19.5t21.5 54.5v1294q0 40 -21.5 54.5t-70.5 19.5l-92 6v49h647q115 0 207 -10t178 -38t143 -73t91 -118.5t34 -171.5t-34 -172.5t-91.5 -121.5t-142.5 -76.5t-178 -41.5t-207 -12h-205v65h186q219 0 330 80.5t111 272.5q0 190 -111.5 272
t-329.5 82h-237v-1360q0 -41 22 -55.5t72 -16.5l176 -4v-53h-661z" />
    <glyph glyph-name="uni0421" unicode="&#x421;" horiz-adv-x="1720" 
d="M981 -25q-257 0 -456.5 97t-313 280.5t-113.5 427.5q0 245 114.5 429t316.5 281t462 97q139 0 271.5 -22.5t220.5 -69.5l86 -444h-37l-232 372q-24 36 -42 51t-54 25q-80 23 -221 23q-103 0 -196 -24t-176.5 -78.5t-144.5 -134.5t-96.5 -199t-35.5 -265
q0 -227 77.5 -402.5t229.5 -276.5t358 -101q145 0 222 22q36 10 54 25t42 51l231 373h37l-86 -444q-88 -46 -231 -69.5t-287 -23.5z" />
    <glyph glyph-name="uni0422" unicode="&#x422;" horiz-adv-x="1609" 
d="M455 0v51l123 6q48 2 70 17t22 55v1364h-357q-28 0 -38.5 -5.5t-20.5 -27.5l-180 -387h-37l49 479h1374l51 -479h-36l-183 387q-10 22 -20.5 27.5t-36.5 5.5h-356v-1364q0 -40 20 -53.5t72 -18.5l123 -6v-51h-639z" />
    <glyph glyph-name="uni0423" unicode="&#x423;" horiz-adv-x="1597" 
d="M1403 1427l-668 -1286q-46 -90 -88.5 -128t-91.5 -38q-43 0 -69.5 25t-26.5 66q0 68 61.5 116t194.5 78l71 137l-571 1030q-24 40 -42.5 53t-61.5 17l-91 6v49h598v-49l-102 -6q-52 -5 -68.5 -20t1.5 -50l450 -813l422 813q18 35 0.5 50t-68.5 20l-102 6v49h446v-49
l-90 -6q-44 -4 -64.5 -18.5t-39.5 -51.5z" />
    <glyph glyph-name="uni0424" unicode="&#x424;" horiz-adv-x="1941" 
d="M682 -41v49l92 6q49 5 70.5 19.5t21.5 54.5v94q-242 14 -419.5 86t-276 203t-98.5 309q0 179 99 310.5t276 203.5t419 86v84q0 40 -21.5 54.5t-70.5 19.5l-92 6v49h578v-49l-93 -6q-52 -5 -73 -19.5t-21 -54.5v-84q244 -14 421.5 -85t276.5 -202.5t99 -312.5
q0 -180 -99 -311t-276.5 -202t-421.5 -85v-94q0 -40 21 -54.5t73 -19.5l93 -6v-49h-578zM1632 780q0 251 -143.5 382.5t-415.5 150.5v-1063q559 39 559 530zM307 780q0 -491 559 -530v1063q-272 -19 -415.5 -150.5t-143.5 -382.5z" />
    <glyph glyph-name="uni0425" unicode="&#x425;" horiz-adv-x="1820" 
d="M-8 0v49l88 6q81 6 133 70l524 645l-475 657q-25 35 -50.5 50t-68.5 20l-88 6v49h604v-49l-102 -8q-50 -5 -62.5 -19t9.5 -49l362 -499l406 499q50 62 -41 68l-103 8v49h455v-49l-88 -6q-83 -6 -135 -70l-453 -557l539 -745q25 -35 51 -50.5t70 -19.5l86 -6v-49h-604v49
l102 8q50 5 62.5 19t-9.5 49l-424 588l-477 -588q-27 -32 -17.5 -48t58.5 -20l102 -8v-49h-454z" />
    <glyph glyph-name="uni0426" unicode="&#x426;" horiz-adv-x="1855" 
d="M1518 0h-1385v49l92 6q49 5 70.5 19.5t21.5 54.5v1294q0 40 -21.5 54.5t-70.5 19.5l-92 6v49h578v-49l-93 -6q-49 -5 -70.5 -19.5t-21.5 -54.5v-1360h797v1360q0 40 -21 54.5t-73 19.5l-92 6v49h577v-49l-92 -6q-49 -5 -70.5 -19.5t-21.5 -54.5v-1360h213l16 -389h-35
l-153 301q-14 25 -53 25z" />
    <glyph glyph-name="uni0427" unicode="&#x427;" horiz-adv-x="1761" 
d="M236 1118v305q0 40 -22 54.5t-71 19.5l-92 6v49h578v-49l-92 -6q-52 -5 -73.5 -19.5t-21.5 -54.5v-276q0 -128 26 -210.5t85 -130t140.5 -65.5t207.5 -18q183 0 334 51v649q0 40 -21.5 54.5t-70.5 19.5l-92 6v49h577v-49l-92 -6q-49 -5 -70.5 -19.5t-21.5 -54.5v-1294
q0 -40 21.5 -54.5t70.5 -19.5l92 -6v-49h-577v49l92 6q49 5 70.5 19.5t21.5 54.5v576q-180 -58 -381 -58q-111 0 -197.5 11t-168 42.5t-135 82.5t-85.5 136t-32 199z" />
    <glyph glyph-name="uni0428" unicode="&#x428;" horiz-adv-x="2461" 
d="M2329 0h-2196v49l92 6q49 5 70.5 19.5t21.5 54.5v1294q0 40 -21.5 54.5t-70.5 19.5l-92 6v49h578v-49l-93 -6q-49 -5 -70.5 -19.5t-21.5 -54.5v-1360h602v1360q0 40 -21 54.5t-73 19.5l-92 6v49h578v-49l-93 -6q-49 -5 -70.5 -19.5t-21.5 -54.5v-1360h602v1360
q0 40 -21 54.5t-73 19.5l-92 6v49h578v-49l-93 -6q-49 -5 -70.5 -19.5t-21.5 -54.5v-1294q0 -40 21.5 -54.5t70.5 -19.5l93 -6v-49z" />
    <glyph glyph-name="uni0429" unicode="&#x429;" horiz-adv-x="2469" 
d="M2132 0h-1999v49l92 6q49 5 70.5 19.5t21.5 54.5v1294q0 40 -21.5 54.5t-70.5 19.5l-92 6v49h578v-49l-93 -6q-49 -5 -70.5 -19.5t-21.5 -54.5v-1360h602v1360q0 40 -21 54.5t-73 19.5l-92 6v49h578v-49l-93 -6q-49 -5 -70.5 -19.5t-21.5 -54.5v-1360h602v1360
q0 40 -21 54.5t-73 19.5l-92 6v49h578v-49l-93 -6q-49 -5 -70.5 -19.5t-21.5 -54.5v-1360h213l17 -389h-35l-154 301q-14 25 -53 25z" />
    <glyph glyph-name="uni042A" unicode="&#x42a;" horiz-adv-x="1761" 
d="M770 905h238q347 0 519.5 -105.5t172.5 -328.5q0 -220 -178 -345.5t-514 -125.5h-629v49l92 6q49 5 70.5 19.5t21.5 54.5v1364h-219q-28 0 -38.5 -5.5t-20.5 -27.5l-181 -387h-36l49 479h880v-49l-133 -6q-52 -5 -73 -19.5t-21 -54.5v-518zM770 63h184q265 0 389.5 93.5
t124.5 298.5q0 206 -120.5 296.5t-368.5 90.5h-209v-779z" />
    <glyph glyph-name="uni042B" unicode="&#x42b;" horiz-adv-x="2226" 
d="M524 905h238q347 0 519.5 -105.5t172.5 -328.5q0 -220 -178 -345.5t-514 -125.5h-629v49l92 6q49 5 70.5 19.5t21.5 54.5v1294q0 40 -21.5 54.5t-70.5 19.5l-92 6v49h619v-49l-134 -6q-50 -2 -72 -17.5t-22 -56.5v-518zM524 63h185q265 0 389.5 93.5t124.5 298.5
q0 206 -121 296.5t-369 90.5h-209v-779zM1495 0v49l92 6q49 5 70.5 19.5t21.5 54.5v1294q0 40 -21.5 54.5t-70.5 19.5l-92 6v49h578v-49l-93 -6q-52 -5 -73 -19.5t-21 -54.5v-1294q0 -40 21 -54.5t73 -19.5l93 -6v-49h-578z" />
    <glyph glyph-name="uni042C" unicode="&#x42c;" horiz-adv-x="1515" 
d="M524 905h238q347 0 519.5 -105.5t172.5 -328.5q0 -220 -178 -345.5t-514 -125.5h-629v49l92 6q49 5 70.5 19.5t21.5 54.5v1294q0 40 -21.5 54.5t-70.5 19.5l-92 6v49h619v-49l-134 -6q-50 -2 -72 -17.5t-22 -56.5v-518zM524 63h185q265 0 389.5 93.5t124.5 298.5
q0 206 -121 296.5t-369 90.5h-209v-779z" />
    <glyph glyph-name="uni042D" unicode="&#x42d;" horiz-adv-x="1720" 
d="M745 -25q-146 0 -289 23t-229 70l-86 444h37l232 -373q24 -36 42 -51t54 -25q77 -22 221 -22q306 0 480 190t186 529h-582q-25 0 -32 -4.5t-13 -22.5l-82 -239h-37v608h37l82 -242q5 -17 12 -21.5t33 -4.5h582q-5 143 -42.5 259t-98.5 195t-143 132.5t-173.5 77.5
t-192.5 24q-141 0 -221 -23q-36 -10 -54 -25t-42 -51l-231 -372h-37l86 444q86 47 217.5 69.5t273.5 22.5q260 0 462 -95t316.5 -274.5t114.5 -416.5q0 -198 -65.5 -355.5t-183.5 -260t-279 -156.5t-355 -54z" />
    <glyph glyph-name="uni042E" unicode="&#x42e;" horiz-adv-x="2494" 
d="M133 0v49l92 6q49 5 70.5 19.5t21.5 54.5v1294q0 40 -21.5 54.5t-70.5 19.5l-92 6v49h578v-49l-93 -6q-52 -5 -73 -19.5t-21 -54.5v-567h287q14 163 82 300.5t174 231.5t245 146.5t294 52.5q163 0 309 -58.5t253.5 -162.5t170.5 -256t63 -330q0 -177 -63 -329
t-170.5 -255.5t-253.5 -162t-309 -58.5t-309 58.5t-254 161.5t-171 253.5t-63 325.5h-285v-645q0 -40 21 -54.5t73 -19.5l93 -6v-49h-578zM1606 43q120 0 222 50t177 142t117.5 232.5t42.5 312.5q0 174 -42.5 314.5t-117.5 233.5t-177 142.5t-222 49.5t-222.5 -49.5
t-178 -142t-118.5 -233.5t-43 -315q0 -172 43 -312.5t118.5 -232.5t178 -142t222.5 -50z" />
    <glyph glyph-name="uni042F" unicode="&#x42f;" horiz-adv-x="1593" 
d="M291 0h-260l631 725q-213 30 -333 134.5t-120 268.5q0 424 643 424h608v-49l-92 -6q-49 -5 -70.5 -19.5t-21.5 -54.5v-1294q0 -40 21.5 -54.5t70.5 -19.5l92 -6v-49h-577v49l92 6q52 5 73 19.5t21 54.5v571h-170zM1069 764v725h-172q-223 0 -340 -90t-117 -271
q0 -364 459 -364h170z" />
    <glyph glyph-name="uni0430" unicode="&#x430;" horiz-adv-x="1114" 
d="M422 -25q-141 0 -233.5 82t-92.5 195q0 35 10.5 65.5t25.5 53.5t42 45t49.5 36.5t60 31t60.5 25.5t64 24t59 22q63 24 108 45.5t73 42.5t44 37t23 39t8.5 37.5t1.5 42.5q0 90 -53.5 146t-155.5 56q-125 0 -185 -84t-30 -225q-36 -8 -78 -8q-66 0 -102.5 26t-36.5 68
q0 89 186 180q197 103 346 103q155 0 227.5 -73.5t71.5 -252.5l-6 -645h156v-45l-324 -59l-14 229q-39 -129 -116 -184.5t-189 -55.5zM504 59q88 0 152.5 74t64.5 223l4 293q-81 -60 -174 -108q-63 -34 -98 -56.5t-70.5 -55.5t-50.5 -71.5t-15 -89.5q0 -86 49 -147.5
t138 -61.5z" />
    <glyph glyph-name="uni0431" unicode="&#x431;" horiz-adv-x="1275" 
d="M1186 504q0 -150 -73 -272t-196.5 -189.5t-269.5 -67.5q-113 0 -208.5 40.5t-169.5 120.5t-116 210t-42 297q0 768 731 891q130 21 171.5 36.5t41.5 53.5h41q0 -147 -77 -212.5t-267 -65.5q-75 0 -131.5 -3t-101.5 -11t-75 -17.5t-52 -28t-34 -37t-19 -50t-9 -61.5
t-2 -77v-156q65 73 158 107.5t188 34.5q221 0 366.5 -152.5t145.5 -390.5zM649 35q143 0 230.5 125.5t87.5 343.5q0 471 -361 471q-69 0 -146 -25t-132 -86v-264q0 -293 81 -429t240 -136z" />
    <glyph glyph-name="uni0432" unicode="&#x432;" horiz-adv-x="1144" 
d="M111 47l71 4q50 1 64 13.5t14 54.5v790q0 40 -13.5 51.5t-64.5 16.5l-71 4v47h440q126 0 225 -26.5t161 -84t62 -139.5q0 -92 -66 -151t-210 -88v-2q173 -13 262.5 -80t89.5 -170q0 -137 -130 -212t-392 -75h-442v47zM539 973h-86v-416h98q231 0 231 211q0 56 -22 97.5
t-59 64t-77.5 33t-84.5 10.5zM453 508v-453h86q319 0 319 232q0 44 -14.5 81t-48 70t-97 51.5t-151.5 18.5h-94z" />
    <glyph glyph-name="uni0433" unicode="&#x433;" horiz-adv-x="1021" 
d="M752 969h-299v-850q0 -42 13 -54.5t66 -13.5l111 -4v-47h-532v47l71 4q50 1 64 13.5t14 54.5v790q0 40 -13.5 51.5t-64.5 16.5l-71 4v47h831l39 -342h-35l-147 254q-11 18 -20 23.5t-27 5.5z" />
    <glyph glyph-name="uni0434" unicode="&#x434;" horiz-adv-x="1161" 
d="M195 -27l-134 -254h-30l16 340h125q88 184 122 389.5t34 460.5q0 40 -13.5 51.5t-64.5 16.5l-72 4v47h899v-47l-69 -4q-53 -5 -66.5 -16t-13.5 -52v-850h166l16 -340h-31l-133 254q-7 17 -15.5 22t-27.5 5h-665q-19 0 -27.5 -5t-15.5 -22zM735 59v910h-348
q-5 -307 -36.5 -522t-112.5 -388h497z" />
    <glyph glyph-name="uni0435" unicode="&#x435;" horiz-adv-x="1202" 
d="M606 -25q-227 0 -372.5 145.5t-145.5 393.5q0 120 42.5 223t113.5 173t164.5 109.5t195.5 39.5q59 0 116.5 -14t115.5 -46t105 -79t84 -119t54 -160h-782v-39q0 -223 111 -363.5t282 -140.5q280 0 369 277h47q-46 -202 -175.5 -301t-324.5 -99zM598 1010
q-114 0 -193 -79.5t-102 -230.5h539q-5 139 -64.5 224.5t-179.5 85.5z" />
    <glyph glyph-name="uni0436" unicode="&#x436;" horiz-adv-x="1728" 
d="M252 0h-242l578 573l-344 334q-40 40 -68.5 52.5t-83.5 17.5l-67 4v47h428v-47l-74 -2q-52 -1 -59 -23t26 -51l414 -401v405q0 40 -13.5 51.5t-64.5 16.5l-72 4v47h492v-47l-70 -4q-53 -5 -66.5 -16t-13.5 -52v-405l414 401q33 29 26 51t-59 23l-73 2v47h428v-47l-68 -4
q-57 -5 -89 -18t-71 -52l-332 -321l590 -586h-258l-508 500v-381q0 -42 13.5 -54.5t66.5 -13.5l70 -4v-47h-492v47l72 4q50 1 64 13.5t14 54.5v381z" />
    <glyph glyph-name="uni0437" unicode="&#x437;" horiz-adv-x="1001" 
d="M440 -25q-166 0 -278.5 61t-112.5 161q0 52 37 81t96 29q13 0 45 -4q12 -144 72 -209t168 -65q110 0 174 63.5t64 188.5q0 46 -13.5 84.5t-43.5 71.5t-87 52t-137 19h-86v49h90q219 0 219 231q0 120 -51 170t-143 50q-38 0 -66 -4q-24 -5 -38 -17t-34 -47l-170 -283h-36
l57 357q134 45 287 45q191 0 301 -65t110 -195q0 -204 -284 -260v-2q164 -13 253 -84t89 -187q0 -135 -121 -213t-361 -78z" />
    <glyph glyph-name="uni0438" unicode="&#x438;" horiz-adv-x="1380" 
d="M260 119v790q0 40 -13.5 51.5t-64.5 16.5l-71 4v47h491v-47l-70 -4q-53 -5 -66 -16t-13 -52v-661l475 635v26q0 40 -13.5 51.5t-64.5 16.5l-72 4v47h492v-47l-70 -4q-53 -5 -66.5 -16t-13.5 -52v-790q0 -42 13.5 -54.5t66.5 -13.5l70 -4v-47h-492v47l72 4q50 1 64 13.5
t14 54.5v665l-475 -634v-31q0 -42 13 -54.5t66 -13.5l70 -4v-47h-491v47l71 4q50 1 64 13.5t14 54.5z" />
    <glyph glyph-name="uni0439" unicode="&#x439;" horiz-adv-x="1380" 
d="M260 119v790q0 40 -13.5 51.5t-64.5 16.5l-71 4v47h491v-47l-70 -4q-53 -5 -66 -16t-13 -52v-661l475 635v26q0 40 -13.5 51.5t-64.5 16.5l-72 4v47h492v-47l-70 -4q-53 -5 -66.5 -16t-13.5 -52v-790q0 -42 13.5 -54.5t66.5 -13.5l70 -4v-47h-492v47l72 4q50 1 64 13.5
t14 54.5v665l-475 -634v-31q0 -42 13 -54.5t66 -13.5l70 -4v-47h-491v47l71 4q50 1 64 13.5t14 54.5zM690 1257q-171 0 -259.5 91t-88.5 231h150q0 -262 198 -262q199 0 199 262h149q0 -146 -96.5 -234t-251.5 -88z" />
    <glyph glyph-name="uni043A" unicode="&#x43a;" horiz-adv-x="1290" 
d="M240 119v790q0 40 -13.5 51.5t-64.5 16.5l-72 4v47h492v-47l-70 -4q-53 -5 -66.5 -16t-13.5 -52v-399l455 395q34 29 26.5 51t-59.5 23l-74 2v47h428v-47l-67 -4q-52 -5 -85.5 -19.5t-74.5 -50.5l-375 -325l664 -582h-275l-563 494v-375q0 -42 13.5 -54.5t66.5 -13.5
l70 -4v-47h-492v47l72 4q50 1 64 13.5t14 54.5z" />
    <glyph glyph-name="uni043B" unicode="&#x43b;" horiz-adv-x="1214" 
d="M301 141q-41 -96 -82 -131t-90 -35q-41 0 -64.5 24.5t-23.5 66.5q0 53 55 95.5t172 67.5q86 226 86 680q0 40 -13.5 51.5t-64.5 16.5l-81 4v47h909v-47l-70 -4q-53 -5 -66.5 -16t-13.5 -52v-790q0 -42 13.5 -54.5t66.5 -13.5l70 -4v-47h-492v47l72 4q50 1 64 13.5
t14 54.5v850h-348q0 -280 -31 -497t-82 -331z" />
    <glyph glyph-name="uni043C" unicode="&#x43c;" horiz-adv-x="1576" 
d="M111 0v47l71 4q49 1 61 13t17 55l49 790q4 40 -10.5 51.5t-67.5 16.5l-71 4v47h358l275 -594l268 594h354v-47l-69 -4q-54 -5 -69 -16.5t-11 -51.5l51 -790q5 -43 16.5 -53.5t63.5 -14.5l69 -4v-47h-491v47l72 4q53 5 67 16.5t10 51.5l-51 809l-342 -760h-12l-350 762
l-50 -811q-4 -41 11 -53.5t69 -14.5l70 -4v-47h-358z" />
    <glyph glyph-name="uni043D" unicode="&#x43d;" horiz-adv-x="1349" 
d="M260 119v790q0 40 -13.5 51.5t-64.5 16.5l-71 4v47h491v-47l-70 -4q-53 -5 -66 -16t-13 -52v-342h444v342q0 40 -13.5 51.5t-64.5 16.5l-71 4v47h491v-47l-70 -4q-53 -5 -66 -16t-13 -52v-790q0 -42 13 -54.5t66 -13.5l70 -4v-47h-491v47l71 4q50 1 64 13.5t14 54.5v379
h-444v-379q0 -42 13 -54.5t66 -13.5l70 -4v-47h-491v47l71 4q50 1 64 13.5t14 54.5z" />
    <glyph glyph-name="uni043E" unicode="&#x43e;" horiz-adv-x="1255" 
d="M631 -25q-146 0 -270.5 68t-199.5 192t-75 277q0 121 47 225.5t124 174t176 108.5t204 39q146 0 270.5 -68t199.5 -191.5t75 -275.5q0 -122 -46 -226.5t-122.5 -174t-176 -109t-206.5 -39.5zM635 35q65 0 121.5 27.5t102 83.5t71.5 151.5t26 220.5q0 127 -26 223t-72 152
t-102 83.5t-121 27.5q-67 0 -124 -27.5t-103 -83.5t-72.5 -152t-26.5 -223q0 -125 26.5 -220.5t72.5 -151.5t103 -83.5t124 -27.5z" />
    <glyph glyph-name="uni043F" unicode="&#x43f;" horiz-adv-x="1339" 
d="M887 969h-434v-850q0 -41 12.5 -52.5t66.5 -15.5l50 -4v-47h-471v47l71 4q50 1 64 13.5t14 54.5v790q0 40 -13.5 51.5t-64.5 16.5l-71 4v47h1118v-47l-70 -4q-53 -5 -66.5 -16t-13.5 -52v-790q0 -42 13.5 -54.5t66.5 -13.5l70 -4v-47h-471v47l51 4q51 5 64.5 16t13.5 52
v850z" />
    <glyph glyph-name="uni0440" unicode="&#x440;" horiz-adv-x="1294" 
d="M53 -508v47l72 4q50 1 64 13.5t14 54.5v1223l-150 84v12l342 131v-152q50 69 132.5 109.5t179.5 40.5q199 0 329.5 -148.5t130.5 -394.5q0 -237 -138.5 -389t-348.5 -152q-89 0 -163 35.5t-122 98.5v-498q0 -42 13.5 -53.5t66.5 -12.5l123 -6v-47h-545zM612 967
q-136 0 -217 -93v-729q79 -90 213 -90q153 0 247.5 128t94.5 333q0 195 -94.5 323t-243.5 128z" />
    <glyph glyph-name="uni0441" unicode="&#x441;" horiz-adv-x="1163" 
d="M604 -25q-225 0 -371.5 150t-146.5 389q0 156 75.5 281.5t202 194.5t277.5 69q91 0 174.5 -26t139 -77.5t55.5 -117.5q0 -52 -37 -81.5t-96 -29.5q-14 0 -46 4q-11 141 -78 208t-173 67q-120 0 -200.5 -96.5t-84.5 -280.5q-3 -143 43.5 -263.5t138.5 -194t211 -73.5
q50 0 97.5 13t95.5 42t87 86t60 136h47q-27 -138 -96 -229.5t-162.5 -131t-212.5 -39.5z" />
    <glyph glyph-name="uni0442" unicode="&#x442;" horiz-adv-x="1126" 
d="M467 969h-176q-18 0 -27 -5.5t-20 -23.5l-158 -254h-35l49 342h926l49 -342h-35l-157 254q-11 18 -20 23.5t-27 5.5h-177v-850q0 -42 13.5 -54.5t66.5 -13.5l72 -4v-47h-494v47l72 4q50 1 64 13.5t14 54.5v850z" />
    <glyph glyph-name="uni0443" unicode="&#x443;" horiz-adv-x="1191" 
d="M289 -518q-45 0 -76 29t-31 73q0 58 57.5 106.5t188.5 71.5l109 238l-379 899q-21 46 -39 62.5t-62 17.5l-59 2v47h498v-47l-68 -2q-93 -3 -66 -74l281 -672l285 639q46 104 -60 107l-75 2v47h389v-47l-66 -2q-45 -1 -66.5 -19.5t-43.5 -66.5l-549 -1215
q-52 -116 -71 -143q-37 -53 -97 -53z" />
    <glyph glyph-name="uni0444" unicode="&#x444;" horiz-adv-x="1546" 
d="M526 -508v47l72 4q50 1 64 13.5t14 54.5v364q-114 4 -219.5 45t-187 109.5t-130.5 168.5t-49 214q0 121 51 224t135 170.5t187 107t213 45.5v334l-150 84v12l342 131v-561q114 -6 219.5 -47t188 -108.5t131.5 -166.5t49 -213q0 -122 -51 -225.5t-135 -172t-188 -108
t-214 -43.5v-364q0 -42 13.5 -54.5t66.5 -13.5l70 -4v-47h-492zM1237 518q0 101 -22 183t-57 135t-84 90.5t-99.5 55t-106.5 22.5v-969q71 4 133.5 32t117 82.5t86.5 149.5t32 219zM307 518q0 -124 32 -219t86.5 -149.5t117 -82.5t133.5 -32v969q-73 -6 -135.5 -35
t-116.5 -83.5t-85.5 -149t-31.5 -218.5z" />
    <glyph glyph-name="uni0445" unicode="&#x445;" horiz-adv-x="1343" 
d="M8 0v47l64 2q44 1 88 28t100 85l293 325l-322 414q-28 40 -53 58.5t-65 19.5l-60 2v47h514v-47l-65 -2q-48 -1 -60 -21t13 -51l219 -282l223 247q29 29 35.5 53.5t-8 38.5t-45.5 15l-76 2v47h424v-47l-64 -2q-43 -1 -85.5 -27t-98.5 -82l-266 -295l348 -448
q30 -40 55 -58.5t64 -19.5l57 -2v-47h-512v47l66 2q48 1 60 21t-13 51l-248 317l-254 -282q-42 -44 -35 -74.5t55 -32.5l76 -2v-47h-424z" />
    <glyph glyph-name="uni0446" unicode="&#x446;" horiz-adv-x="1312" 
d="M1055 0h-944v47l71 4q50 1 64 13.5t14 54.5v790q0 40 -13.5 51.5t-64.5 16.5l-71 4v47h471v-47l-50 -4q-54 -4 -66.5 -15.5t-12.5 -52.5v-850h434v850q0 41 -13.5 52t-64.5 16l-51 4v47h471v-47l-70 -4q-53 -5 -66.5 -16t-13.5 -52v-850h166l17 -340h-31l-133 254
q-7 17 -15.5 22t-27.5 5z" />
    <glyph glyph-name="uni0447" unicode="&#x447;" horiz-adv-x="1280" 
d="M211 713v196q0 40 -13.5 51.5t-64.5 16.5l-72 4v47h492v-47l-70 -4q-53 -5 -66.5 -16t-13.5 -52v-190q0 -120 47 -171.5t142 -51.5q132 0 235 28v385q0 41 -13.5 52t-63.5 16l-72 4v47h491v-47l-69 -4q-53 -5 -66.5 -16t-13.5 -52v-790q0 -42 13.5 -54.5t66.5 -13.5
l69 -4v-47h-512v47l93 4q50 1 63.5 13.5t13.5 54.5v338q-132 -31 -256 -31q-174 0 -267 67.5t-93 219.5z" />
    <glyph glyph-name="uni0448" unicode="&#x448;" horiz-adv-x="1925" 
d="M453 59h413v850q0 40 -13.5 51t-66.5 17l-38 4v47h430v-47l-41 -4q-51 -5 -64.5 -16t-13.5 -52v-850h414v850q0 40 -13.5 51t-66.5 17l-39 4v47h461v-47l-72 -4q-51 -5 -64.5 -16.5t-13.5 -51.5v-790q0 -42 14 -54.5t64 -13.5l72 -4v-47h-1704v47l69 4q51 1 65.5 14
t14.5 54v790q0 41 -14 52t-66 16l-69 4v47h460v-47l-41 -4q-51 -5 -64 -16t-13 -52v-850z" />
    <glyph glyph-name="uni0449" unicode="&#x449;" horiz-adv-x="1898" 
d="M1640 0h-1529v47l69 4q51 1 65.5 14t14.5 54v790q0 41 -14 52t-66 16l-69 4v47h460v-47l-41 -4q-51 -5 -64 -16t-13 -52v-850h413v850q0 40 -13.5 51t-66.5 17l-38 4v47h430v-47l-41 -4q-51 -5 -64.5 -16t-13.5 -52v-850h414v850q0 40 -13.5 51t-66.5 17l-39 4v47h461
v-47l-72 -4q-51 -5 -64.5 -16.5t-13.5 -51.5v-850h166l16 -340h-30l-134 254q-7 17 -15.5 22t-27.5 5z" />
    <glyph glyph-name="uni044A" unicode="&#x44a;" horiz-adv-x="1296" 
d="M430 969h-149q-19 0 -28 -6t-20 -23l-157 -254h-35l49 342h723v-47l-111 -4q-53 -1 -66 -13.5t-13 -54.5v-299h90q267 0 394.5 -75t127.5 -228q0 -142 -131 -224.5t-391 -82.5h-432v47l71 4q50 1 64 13.5t14 54.5v850zM623 551v-492h75q320 0 320 248q0 55 -14.5 97
t-48.5 76.5t-96.5 52.5t-151.5 18h-84z" />
    <glyph glyph-name="uni044B" unicode="&#x44b;" horiz-adv-x="1697" 
d="M1245 119v790q0 40 -13.5 51.5t-64.5 16.5l-71 4v47h491v-47l-69 -4q-53 -5 -66.5 -16t-13.5 -52v-790q0 -42 13.5 -54.5t66.5 -13.5l69 -4v-47h-491v47l71 4q50 1 64 13.5t14 54.5zM623 1028v-47l-91 -4q-53 -5 -66 -16t-13 -52v-299h90q268 0 395 -74t127 -229
q0 -145 -130 -226t-392 -81h-432v47l71 4q50 1 64 13.5t14 54.5v790q0 40 -13.5 51.5t-64.5 16.5l-71 4v47h512zM453 551v-492h75q320 0 320 248q0 119 -68.5 181.5t-242.5 62.5h-84z" />
    <glyph glyph-name="uni044C" unicode="&#x44c;" horiz-adv-x="1126" 
d="M623 1028v-47l-91 -4q-53 -5 -66 -16t-13 -52v-299h90q268 0 395 -74t127 -229q0 -145 -130 -226t-392 -81h-432v47l71 4q50 1 64 13.5t14 54.5v790q0 40 -13.5 51.5t-64.5 16.5l-71 4v47h512zM453 551v-492h75q320 0 320 248q0 119 -68.5 181.5t-242.5 62.5h-84z" />
    <glyph glyph-name="uni044D" unicode="&#x44d;" horiz-adv-x="1105" 
d="M334 498v69h461q-4 113 -32.5 200t-74.5 138.5t-102.5 77t-120.5 25.5q-59 0 -94 -9q-2 -1 -13 -4t-15 -4t-13.5 -6t-15 -10t-13 -14t-14.5 -21l-160 -283h-37l47 357q134 45 344 45q146 0 268.5 -68t194.5 -191.5t72 -275.5q0 -129 -44.5 -234.5t-120 -173.5
t-172.5 -104.5t-204 -36.5q-116 0 -212.5 26.5t-155 77.5t-58.5 118q0 52 37 81t96 29q13 0 45 -4q12 -144 77.5 -209t184.5 -65q62 0 114 24.5t96 76.5t70 146t28 222h-463z" />
    <glyph glyph-name="uni044E" unicode="&#x44e;" horiz-adv-x="1767" 
d="M260 119v790q0 40 -13.5 51.5t-64.5 16.5l-71 4v47h491v-47l-70 -4q-53 -5 -66 -16t-13 -52v-342h192q10 110 56.5 203.5t117 156t159.5 97.5t185 35q215 0 364.5 -152.5t149.5 -382.5q0 -122 -43 -226t-115 -174t-166 -109.5t-196 -39.5q-137 0 -253.5 66.5t-187 187
t-73.5 269.5h-190v-379q0 -42 13 -54.5t66 -13.5l70 -4v-47h-491v47l71 4q50 1 64 13.5t14 54.5zM1161 35q61 0 113 27.5t94 83.5t66 151.5t24 220.5q0 246 -84.5 366t-212.5 120q-132 0 -216.5 -119.5t-84.5 -366.5q0 -245 84.5 -364t216.5 -119z" />
    <glyph glyph-name="uni044F" unicode="&#x44f;" horiz-adv-x="1216" 
d="M41 0l442 465q-84 12 -151.5 42.5t-113.5 89t-46 136.5q0 295 481 295h473v-47l-69 -4q-53 -5 -66.5 -16t-13.5 -52v-790q0 -42 13.5 -54.5t66.5 -13.5l69 -4v-47h-491v47l72 4q50 1 63.5 13.5t13.5 54.5v334h-77l-435 -453h-231zM784 971h-135q-116 0 -189 -58t-73 -170
q0 -102 74.5 -167.5t187.5 -65.5h135v461z" />
    <glyph glyph-name="uni0451" unicode="&#x451;" horiz-adv-x="1208" 
d="M606 -25q-227 0 -372.5 145.5t-145.5 393.5q0 120 42.5 223t113.5 173t164.5 109.5t195.5 39.5q59 0 116.5 -14t115.5 -46t105 -79t84 -119t54 -160h-782v-39q0 -223 111 -363.5t282 -140.5q280 0 369 277h47q-46 -202 -175.5 -301t-324.5 -99zM598 1010
q-114 0 -193 -79.5t-102 -230.5h539q-5 139 -64.5 224.5t-179.5 85.5zM842 1315q-54 0 -92.5 39.5t-38.5 93.5q0 52 38.5 90.5t92.5 38.5t92.5 -38.5t38.5 -90.5q0 -54 -38.5 -93.5t-92.5 -39.5zM367 1315q-54 0 -92.5 39.5t-38.5 93.5q0 52 39 90.5t92 38.5t92 -38.5
t39 -90.5q0 -54 -38.5 -93.5t-92.5 -39.5z" />
    <glyph glyph-name="uni0452" unicode="&#x452;" horiz-adv-x="1288" 
d="M903 63v551q0 179 -54 253.5t-165 74.5q-109 0 -177.5 -80t-68.5 -248v-495q0 -42 13.5 -54.5t66.5 -13.5l70 -4v-47h-492v47l72 4q50 1 64 13.5t14 54.5v1085h-160v74h160v113l-150 84v12l342 131v-340h252v-74h-252v-428q32 140 121 211.5t221 71.5q155 0 235.5 -96.5
t80.5 -311.5v-579q0 -121 -21 -202.5t-62 -136t-114 -108.5q-113 -84 -237 -160l-25 37q58 48 89 76.5t66.5 68.5t52 75t32.5 86.5t21 112t5 142.5z" />
    <glyph glyph-name="uni0453" unicode="&#x453;" horiz-adv-x="1021" 
d="M752 969h-299v-850q0 -42 13 -54.5t66 -13.5l111 -4v-47h-532v47l71 4q50 1 64 13.5t14 54.5v790q0 40 -13.5 51.5t-64.5 16.5l-71 4v47h831l39 -342h-35l-147 254q-11 18 -20 23.5t-27 5.5zM514 1223l223 366h215v-14l-397 -352h-41z" />
    <glyph glyph-name="uni0454" unicode="&#x454;" horiz-adv-x="1163" 
d="M602 -25q-225 0 -371.5 150t-146.5 389q0 156 75.5 281.5t202 194.5t277.5 69q91 0 174.5 -26t139 -77.5t55.5 -117.5q0 -52 -37.5 -81.5t-96.5 -29.5q-13 0 -45 4q-11 141 -78 208t-173 67q-120 0 -200.5 -96.5t-84.5 -280.5v-62h422v-69h-414q30 -176 132.5 -288
t252.5 -112q50 0 97.5 13t95.5 42t87 86t60 136h47q-27 -138 -96 -229.5t-162.5 -131t-212.5 -39.5z" />
    <glyph glyph-name="uni0455" unicode="&#x455;" horiz-adv-x="1009" 
d="M436 -25q-153 0 -276 35l-43 363h41l153 -291q21 -38 52.5 -47.5t97.5 -9.5q55 0 109.5 20.5t94.5 65.5t40 104q0 83 -53 128t-142 71l-123 32q-119 32 -189.5 114t-70.5 200q0 141 116 220t285 79q131 0 244 -45l49 -322h-43l-164 269q-17 28 -50 37.5t-83 9.5
q-84 0 -144.5 -46t-60.5 -126q0 -145 154 -187l125 -33q317 -83 317 -321q0 -139 -123.5 -229.5t-312.5 -90.5z" />
    <glyph glyph-name="uni0456" unicode="&#x456;" horiz-adv-x="679" 
d="M80 0v47l72 4q49 5 63 16.5t14 51.5v715l-149 84v12l342 131v-942q0 -40 14.5 -51.5t65.5 -16.5l69 -4v-47h-491zM195 1479q0 51 38.5 90t92.5 39t92.5 -39t38.5 -90q0 -54 -38.5 -93.5t-92.5 -39.5t-92.5 39.5t-38.5 93.5z" />
    <glyph glyph-name="uni0457" unicode="&#x457;" horiz-adv-x="679" 
d="M180 1346q-54 0 -92.5 39.5t-38.5 93.5q0 51 38.5 90t92.5 39t92.5 -39t38.5 -90q0 -54 -38.5 -93.5t-92.5 -39.5zM510 1346q-54 0 -92.5 39.5t-38.5 93.5q0 51 38.5 90t92.5 39t92.5 -39t38.5 -90q0 -54 -38.5 -93.5t-92.5 -39.5zM80 0v47l72 4q49 5 63 16.5t14 51.5
v715l-149 84v12l342 131v-942q0 -40 14.5 -51.5t65.5 -16.5l69 -4v-47h-491z" />
    <glyph glyph-name="uni0458" unicode="&#x458;" horiz-adv-x="638" 
d="M-39 -535l-24 37q58 48 89 76.5t66.5 68.5t52 75t32.5 86.5t21 112t5 142.5v771l-150 84v12l342 131v-989q0 -177 -44 -272.5t-152 -174.5q-108 -81 -238 -160zM166 1479q0 51 39 90t92 39t92 -39t39 -90q0 -54 -38.5 -93.5t-92.5 -39.5t-92.5 39.5t-38.5 93.5z" />
    <glyph glyph-name="uni0459" unicode="&#x459;" horiz-adv-x="1597" 
d="M1114 1028v-47l-110 -4q-53 -1 -66.5 -13.5t-13.5 -54.5v-299h120q267 0 395 -75t128 -228q0 -142 -131.5 -224.5t-391.5 -82.5h-462v47l71 4q52 5 65 16.5t13 53.5v848h-317q0 -280 -31 -497t-82 -331q-41 -96 -82 -131t-90 -35q-41 0 -64.5 24.5t-23.5 66.5
q0 114 231 163q40 113 61 296.5t21 383.5q0 40 -13.5 51.5t-64.5 16.5l-81 4v47h919zM924 551v-492h106q320 0 320 248q0 115 -69.5 179.5t-242.5 64.5h-114z" />
    <glyph glyph-name="uni045A" unicode="&#x45a;" horiz-adv-x="1744" 
d="M260 119v790q0 40 -13.5 51.5t-64.5 16.5l-71 4v47h491v-47l-70 -4q-53 -5 -66 -16t-13 -52v-340h446v340q0 40 -13.5 51.5t-64.5 16.5l-71 4v47h512v-47l-91 -4q-53 -5 -66 -16t-13 -52v-340h100q270 0 396 -67.5t126 -214.5q0 -137 -130 -212t-392 -75h-442v47l71 4
q50 1 64 13.5t14 54.5v381h-446v-381q0 -42 13 -54.5t66 -13.5l70 -4v-47h-491v47l71 4q50 1 64 13.5t14 54.5zM1092 510v-451h86q319 0 319 228q0 109 -68.5 166t-242.5 57h-94z" />
    <glyph glyph-name="uni045B" unicode="&#x45b;" horiz-adv-x="1302" 
d="M53 0v47l72 4q50 1 64 13.5t14 54.5v1274l-150 84v12l342 131v-844q32 140 121 211.5t221 71.5q155 0 235.5 -96.5t80.5 -311.5v-532q0 -42 13.5 -54.5t66.5 -13.5l69 -4v-47h-491v47l71 4q50 1 64 13.5t14 54.5v495q0 179 -54 253.5t-165 74.5q-109 0 -177.5 -80
t-68.5 -248v-495q0 -42 13.5 -54.5t66.5 -13.5l70 -4v-47h-492zM43 1204v74h604v-74h-604z" />
    <glyph glyph-name="uni045C" unicode="&#x45c;" horiz-adv-x="1290" 
d="M651 1223l223 366h216v-14l-398 -352h-41zM240 119v790q0 40 -13.5 51.5t-64.5 16.5l-72 4v47h492v-47l-70 -4q-53 -5 -66.5 -16t-13.5 -52v-399l455 395q34 29 26.5 51t-59.5 23l-74 2v47h428v-47l-67 -4q-52 -5 -85.5 -19.5t-74.5 -50.5l-375 -325l664 -582h-275
l-563 494v-375q0 -42 13.5 -54.5t66.5 -13.5l70 -4v-47h-492v47l72 4q50 1 64 13.5t14 54.5z" />
    <glyph glyph-name="uni045E" unicode="&#x45e;" horiz-adv-x="1191" 
d="M289 -518q-45 0 -76 29t-31 73q0 58 57.5 106.5t188.5 71.5l109 238l-379 899q-21 46 -39 62.5t-62 17.5l-59 2v47h498v-47l-68 -2q-93 -3 -66 -74l281 -672l285 639q46 104 -60 107l-75 2v47h389v-47l-66 -2q-45 -1 -66.5 -19.5t-43.5 -66.5l-549 -1215
q-52 -116 -71 -143q-37 -53 -97 -53zM637 1257q-171 0 -259.5 91t-88.5 231h149q0 -262 199 -262t199 262h149q0 -146 -96.5 -234t-251.5 -88z" />
    <glyph glyph-name="uni045F" unicode="&#x45f;" horiz-adv-x="1329" 
d="M649 -281l-59 254q-6 27 -43 27h-436v47l69 4q51 1 65.5 14t14.5 54v790q0 41 -14 52t-66 16l-69 4v47h471v-47l-52 -4q-51 -5 -64 -16t-13 -52v-850h424v850q0 41 -13 52.5t-67 15.5l-49 4v47h471v-47l-72 -4q-51 -5 -64.5 -16.5t-13.5 -51.5v-790q0 -42 14 -54.5
t64 -13.5l72 -4v-47h-437q-37 0 -43 -27l-59 -254h-31z" />
    <glyph glyph-name="uni0462" unicode="&#x462;" horiz-adv-x="1748" 
d="M758 743h237q99 0 178.5 -5.5t159 -19.5t137.5 -40t104 -64t69.5 -95t23.5 -130q0 -104 -51.5 -181t-145 -121.5t-211.5 -65.5t-264 -21h-628v49l92 6q49 5 70.5 19.5t21.5 54.5v1098h-254q-27 0 -37 -5t-22 -28l-181 -326h-37l50 418h481v137q0 40 -21.5 54.5
t-70.5 19.5l-92 6v49h577v-49l-92 -6q-52 -5 -73 -19.5t-21 -54.5v-137h481l51 -418h-37l-182 326q-12 22 -21.5 27.5t-35.5 5.5h-256v-484zM758 63h184q89 0 154.5 5.5t133 24.5t110 52t69.5 90.5t27 137.5q0 60 -14 107t-36 78.5t-59 54.5t-73.5 36t-88.5 20t-95.5 9
t-102.5 2h-209v-617z" />
    <glyph glyph-name="uni0463" unicode="&#x463;" horiz-adv-x="1302" 
d="M436 119v850h-176q-18 0 -27 -5.5t-20 -23.5l-158 -233h-35l50 321h366v365l-149 84v12l342 131v-592h366l49 -321h-34l-158 233q-11 18 -20 23.5t-27 5.5h-176v-359h90q268 0 395 -74t127 -229q0 -145 -130 -226t-392 -81h-432v47l71 4q50 1 64 13.5t14 54.5zM629 551
v-492h76q160 0 239.5 61t79.5 187q0 119 -68.5 181.5t-242.5 62.5h-84z" />
    <glyph glyph-name="uni0472" unicode="&#x472;" horiz-adv-x="1830" 
d="M915 -25q-168 0 -317.5 58.5t-260 162t-175 255.5t-64.5 329q0 178 64.5 330t175 256t260 162.5t317.5 58.5t318 -58.5t260.5 -162.5t175 -256t64.5 -330q0 -177 -64.5 -329t-175 -255.5t-260.5 -162t-318 -58.5zM915 43q244 0 402.5 179t175.5 497q-104 -38 -200 -49.5
t-171.5 -0.5t-148 31t-144 41t-144.5 34.5t-163.5 7.5t-187.5 -38q4 -165 50 -298.5t123.5 -221.5t182 -135t225.5 -47zM334 813q109 42 208 64.5t176 26t146.5 -3.5t126.5 -23t109 -34.5t100.5 -35.5t94 -28t97 -11.5t103.5 14.5q0 172 -44.5 312.5t-122.5 233t-184 142.5
t-229 50q-121 0 -225.5 -47.5t-182 -136t-123.5 -223t-50 -300.5z" />
    <glyph glyph-name="uni0473" unicode="&#x473;" horiz-adv-x="1267" 
d="M631 -25q-146 0 -270.5 68t-199.5 192t-75 277q0 121 47 225.5t124 174t176 108.5t204 39q146 0 270.5 -68t199.5 -191.5t75 -275.5q0 -122 -46 -226.5t-122.5 -174t-176 -109t-206.5 -39.5zM309 528q80 40 150 57.5t120.5 15t94.5 -14.5t79.5 -28t67.5 -28t66.5 -11.5
t68.5 18.5q-2 122 -29 214t-72.5 146t-100.5 80.5t-119 26.5q-65 0 -122 -27.5t-103.5 -83t-73.5 -149.5t-27 -216zM635 35q133 0 223.5 112t97.5 338q-63 -42 -121 -59.5t-104 -14t-88.5 16.5t-82 30t-78 29.5t-83 12t-90.5 -20.5q4 -115 32 -202.5t73.5 -139t101 -77
t119.5 -25.5z" />
    <glyph glyph-name="uni0474" unicode="&#x474;" horiz-adv-x="1642" 
d="M1343 1223l-532 -1274h-35l-616 1478q-17 38 -38.5 51.5t-66.5 18.5l-90 6v49h588v-49l-102 -6q-52 -5 -68.5 -19t0.5 -51l481 -1171l402 975q38 93 75.5 160.5t67 104.5t60.5 58.5t52 27t46 5.5q43 0 69.5 -24.5t26.5 -65.5q0 -145 -283 -199q-27 -49 -37 -75z" />
    <glyph glyph-name="uni0475" unicode="&#x475;" horiz-adv-x="1181" 
d="M647 227l271 635q46 109 81.5 153t94.5 44q44 0 71 -26t27 -70q0 -60 -56.5 -111t-185.5 -74l-12 -26l-334 -775h-55l-397 922q-21 46 -39 62.5t-62 17.5l-59 2v47h497v-47l-67 -2q-96 -3 -66 -74z" />
    <glyph glyph-name="uni0490" unicode="&#x490;" horiz-adv-x="1304" 
d="M1257 1487h-733v-1358q0 -41 22 -55.5t72 -16.5l177 -4v-53h-662v49l92 6q49 5 70.5 19.5t21.5 54.5v1294q0 40 -21.5 54.5t-70.5 19.5l-92 6v49h899q23 0 34.5 5t18.5 18l154 301h35z" />
    <glyph glyph-name="uni0491" unicode="&#x491;" horiz-adv-x="970" 
d="M920 969h-467v-850q0 -42 13 -54.5t66 -13.5l111 -4v-47h-532v47l71 4q50 1 64 13.5t14 54.5v790q0 40 -13.5 51.5t-64.5 16.5l-71 4v47h618q19 0 27.5 5t15.5 22l127 254h31z" />
    <glyph glyph-name="uni0492" unicode="&#x492;" horiz-adv-x="1378" 
d="M524 1487v-1358q0 -41 22 -55.5t72 -16.5l177 -4v-53h-662v49l92 6q49 5 70.5 19.5t21.5 54.5v1294q0 40 -21.5 54.5t-70.5 19.5l-92 6v49h1127l69 -454h-37l-211 356q-12 22 -21.5 27.5t-35.5 5.5h-500zM133 725v82h772v-82h-772z" />
    <glyph glyph-name="uni0493" unicode="&#x493;" horiz-adv-x="1021" 
d="M752 969h-299v-402h274v-71h-274v-377q0 -42 13 -54.5t66 -13.5l111 -4v-47h-532v47l71 4q50 1 64 13.5t14 54.5v377h-149v71h149v342q0 40 -13.5 51.5t-64.5 16.5l-71 4v47h831l39 -342h-35l-147 254q-11 18 -20 23.5t-27 5.5z" />
    <glyph glyph-name="uni0496" unicode="&#x496;" horiz-adv-x="2502" 
d="M324 0h-287l866 862l-588 576q-32 32 -60 43.5t-89 15.5l-107 6v49h541v-49l-131 -6q-96 -6 -53 -49l684 -670v645q0 40 -21.5 54.5t-70.5 19.5l-93 6v49h578v-49l-92 -6q-52 -5 -73 -19.5t-21 -54.5v-645l684 670q41 41 -47 49h-7l-131 6v49h541v-49l-106 -6
q-64 -5 -96.5 -16.5t-63.5 -42.5l-576 -564l815 -811h166l17 -389h-35l-154 301q-16 22 -43 25h-188l-776 772v-643q0 -40 21 -54.5t73 -19.5l92 -6v-49h-578v49l93 6q49 5 70.5 19.5t21.5 54.5v643z" />
    <glyph glyph-name="uni0497" unicode="&#x497;" horiz-adv-x="1828" 
d="M252 0h-242l578 573l-344 334q-40 40 -68.5 52.5t-83.5 17.5l-67 4v47h428v-47l-74 -2q-52 -1 -59 -23t26 -51l414 -401v405q0 40 -13.5 51.5t-64.5 16.5l-72 4v47h492v-47l-70 -4q-53 -5 -66.5 -16t-13.5 -52v-405l414 401q33 29 26 51t-59 23l-73 2v47h428v-47l-68 -4
q-57 -5 -89 -18t-71 -52l-332 -321l531 -527h153l17 -340h-31l-133 254q-7 17 -15.5 22t-27.5 5h-162l-508 500v-381q0 -42 13.5 -54.5t66.5 -13.5l70 -4v-47h-492v47l72 4q50 1 64 13.5t14 54.5v381z" />
    <glyph glyph-name="uni049A" unicode="&#x49a;" horiz-adv-x="1789" 
d="M113 0v49l92 6q49 5 70.5 19.5t21.5 54.5v1294q0 40 -21.5 54.5t-70.5 19.5l-92 6v49h577v-49l-92 -6q-52 -5 -73 -19.5t-21 -54.5v-645l717 670q42 39 -47 48q-3 1 -7 1l-131 6v49h541v-49l-107 -6q-62 -5 -94.5 -16.5t-64.5 -42.5l-604 -566l868 -809h199l16 -389h-35
l-153 301q-16 22 -43 25h-205l-850 772v-643q0 -40 21 -54.5t73 -19.5l92 -6v-49h-577z" />
    <glyph glyph-name="uni049B" unicode="&#x49b;" horiz-adv-x="1366" 
d="M240 119v790q0 40 -13.5 51.5t-64.5 16.5l-72 4v47h492v-47l-70 -4q-53 -5 -66.5 -16t-13.5 -52v-399l455 395q34 29 26.5 51t-59.5 23l-74 2v47h428v-47l-67 -4q-52 -5 -85.5 -19.5t-74.5 -50.5l-375 -325l596 -523h148l16 -340h-31l-133 254q-7 17 -15.5 22t-27.5 5
h-164l-563 494v-375q0 -42 13.5 -54.5t66.5 -13.5l70 -4v-47h-492v47l72 4q50 1 64 13.5t14 54.5z" />
    <glyph glyph-name="uni04A2" unicode="&#x4a2;" horiz-adv-x="1867" 
d="M1567 63h188l17 -389h-35l-154 301q-14 25 -53 25h-356v49l92 6q49 5 70.5 19.5t21.5 54.5v645h-834v-645q0 -40 21 -54.5t73 -19.5l93 -6v-49h-578v49l92 6q49 5 70.5 19.5t21.5 54.5v1294q0 40 -21.5 54.5t-70.5 19.5l-92 6v49h578v-49l-93 -6q-52 -5 -73 -19.5
t-21 -54.5v-567h834v567q0 40 -21.5 54.5t-70.5 19.5l-92 6v49h577v-49l-92 -6q-49 -5 -70.5 -19.5t-21.5 -54.5v-1360z" />
    <glyph glyph-name="uni04A3" unicode="&#x4a3;" horiz-adv-x="1323" 
d="M260 119v790q0 40 -13.5 51.5t-64.5 16.5l-71 4v47h491v-47l-70 -4q-53 -5 -66 -16t-13 -52v-342h444v342q0 40 -13.5 51.5t-64.5 16.5l-71 4v47h491v-47l-70 -4q-53 -5 -66 -16t-13 -52v-850h165l17 -340h-31l-133 254q-7 17 -15.5 22t-27.5 5h-317v47l71 4
q50 1 64 13.5t14 54.5v379h-444v-379q0 -42 13 -54.5t66 -13.5l70 -4v-47h-491v47l71 4q50 1 64 13.5t14 54.5z" />
    <glyph glyph-name="uni04AE" unicode="&#x4ae;" horiz-adv-x="1652" 
d="M471 0v51l123 6q48 2 70 17t22 55v571l-508 727q-27 40 -44.5 53t-59.5 17l-90 6v49h594v-49l-103 -6q-109 -10 -67 -70l452 -649l455 649q13 18 13.5 30.5t-11 20.5t-28 12.5t-42.5 6.5l-102 6v49h450v-49l-90 -6q-41 -4 -58.5 -17.5t-45.5 -52.5l-508 -727v-571
q0 -40 21 -53.5t73 -18.5l123 -6v-51h-639z" />
    <glyph glyph-name="uni04AF" unicode="&#x4af;" horiz-adv-x="1191" 
d="M342 -508v47l72 4q50 1 64 13.5t14 54.5v391l-328 897q-19 45 -38 62t-63 18l-59 2v47h498v-47l-68 -2q-92 -3 -65 -74l288 -790l277 757q19 57 4 81t-64 26l-75 2v47h389v-47l-66 -2q-47 -1 -70 -19.5t-40 -66.5l-328 -897v-385q0 -43 12.5 -55t65.5 -13l72 -4v-47h-492
z" />
    <glyph glyph-name="uni04B0" unicode="&#x4b0;" horiz-adv-x="1652" 
d="M471 0v51l123 6q48 2 70 17t22 55v571l-508 727q-27 40 -44.5 53t-59.5 17l-90 6v49h594v-49l-103 -6q-109 -10 -67 -70l452 -649l455 649q13 18 13.5 30.5t-11 20.5t-28 12.5t-42.5 6.5l-102 6v49h450v-49l-90 -6q-41 -4 -58.5 -17.5t-45.5 -52.5l-508 -727v-571
q0 -40 21 -53.5t73 -18.5l123 -6v-51h-639zM319 621v81h990v-81h-990z" />
    <glyph glyph-name="uni04B1" unicode="&#x4b1;" horiz-adv-x="1191" 
d="M207 -72v72h285v2l-328 897q-19 45 -38 62t-63 18l-59 2v47h498v-47l-68 -2q-92 -3 -65 -74l288 -790l277 757q19 57 4 81t-64 26l-75 2v47h389v-47l-66 -2q-47 -1 -70 -19.5t-40 -66.5l-328 -893h283v-72h-283v-317q0 -43 12.5 -55t65.5 -13l72 -4v-47h-492v47l72 4
q50 1 64 13.5t14 54.5v317h-285z" />
    <glyph glyph-name="uni04B2" unicode="&#x4b2;" horiz-adv-x="1820" 
d="M80 0v49l88 6q81 6 133 70l524 645l-475 657q-25 35 -50.5 50t-68.5 20l-88 6v49h605v-49l-103 -8q-50 -5 -62.5 -19t9.5 -49l362 -499l406 499q50 62 -41 68l-102 8v49h454v-49l-88 -6q-83 -6 -135 -70l-453 -557l584 -807h176l17 -389h-35l-154 301q-14 25 -53 25h-393
v49l102 8q50 5 62.5 19t-9.5 49l-424 588l-477 -588q-27 -32 -17.5 -48t58.5 -20l103 -8v-49h-455z" />
    <glyph glyph-name="uni04B3" unicode="&#x4b3;" horiz-adv-x="1343" 
d="M57 0v47l64 2q44 1 88 28t100 85l293 325l-321 414q-28 39 -53.5 58t-65.5 20l-60 2v47h514v-47l-65 -2q-48 -1 -60 -21t13 -51l219 -282l223 247q29 29 35.5 53.5t-8 38.5t-45.5 15l-76 2v47h424v-47l-64 -2q-43 -1 -85.5 -27t-98.5 -82l-266 -295l401 -516h148l16 -340
h-31l-133 254q-7 17 -15.5 22t-27.5 5h-346v47l66 2q48 1 60 21t-13 51l-248 317l-254 -282q-42 -44 -34.5 -74.5t55.5 -32.5l75 -2v-47h-424z" />
    <glyph glyph-name="uni04B6" unicode="&#x4b6;" horiz-adv-x="1744" 
d="M1407 0h-356v49l92 6q49 5 70.5 19.5t21.5 54.5v576q-180 -58 -381 -58q-111 0 -197.5 11t-168 42.5t-135 82.5t-85.5 136t-32 199v305q0 40 -22 54.5t-71 19.5l-92 6v49h578v-49l-92 -6q-52 -5 -73.5 -19.5t-21.5 -54.5v-276q0 -128 26 -210.5t85 -130t140.5 -65.5
t207.5 -18q183 0 334 51v649q0 40 -21.5 54.5t-70.5 19.5l-92 6v49h577v-49l-92 -6q-49 -5 -70.5 -19.5t-21.5 -54.5v-1360h188l17 -389h-35l-154 301q-14 25 -53 25z" />
    <glyph glyph-name="uni04B7" unicode="&#x4b7;" horiz-adv-x="1253" 
d="M211 713v196q0 40 -13.5 51.5t-64.5 16.5l-72 4v47h492v-47l-70 -4q-53 -5 -66.5 -16t-13.5 -52v-190q0 -120 47 -171.5t142 -51.5q132 0 235 28v385q0 41 -13.5 52t-63.5 16l-72 4v47h491v-47l-69 -4q-53 -5 -66.5 -16t-13.5 -52v-850h166l16 -340h-31l-133 254
q-7 17 -15.5 22t-27.5 5h-338v47l93 4q50 1 63.5 13.5t13.5 54.5v338q-132 -31 -256 -31q-174 0 -267 67.5t-93 219.5z" />
    <glyph glyph-name="uni04BA" unicode="&#x4ba;" horiz-adv-x="1658" 
d="M1444 434v-305q0 -40 21.5 -54.5t70.5 -19.5l92 -6v-49h-577v49l92 6q52 5 73 19.5t21 54.5v277q0 128 -26 210.5t-85 129.5t-140.5 65t-207.5 18q-183 0 -334 -51v-649q0 -40 22 -54.5t71 -19.5l92 -6v-49h-578v49l92 6q49 5 71 19.5t22 54.5v1294q0 40 -22 54.5
t-71 19.5l-92 6v49h578v-49l-92 -6q-49 -5 -71 -19.5t-22 -54.5v-575q177 57 381 57q92 0 166 -8t146.5 -27t126.5 -54t95.5 -86t63 -125.5t21.5 -170.5z" />
    <glyph glyph-name="uni04BB" unicode="&#x4bb;" horiz-adv-x="1302" 
d="M53 0v47l72 4q50 1 64 13.5t14 54.5v1274l-150 84v12l342 131v-844q32 140 121 211.5t221 71.5q155 0 235.5 -96.5t80.5 -311.5v-532q0 -42 13.5 -54.5t66.5 -13.5l69 -4v-47h-491v47l71 4q50 1 64 13.5t14 54.5v495q0 179 -54 253.5t-165 74.5q-109 0 -177.5 -80
t-68.5 -248v-495q0 -42 13.5 -54.5t66.5 -13.5l70 -4v-47h-492z" />
    <glyph glyph-name="uni04C0" unicode="&#x4c0;" horiz-adv-x="841" 
d="M113 0v49l92 6q49 5 70.5 19.5t21.5 54.5v1294q0 40 -21.5 54.5t-70.5 19.5l-92 6v49h577v-49l-92 -6q-52 -5 -73 -19.5t-21 -54.5v-1294q0 -40 21 -54.5t73 -19.5l92 -6v-49h-577z" />
    <glyph glyph-name="uni04CF" unicode="&#x4cf;" horiz-adv-x="684" 
d="M246 119v1315q0 40 -13.5 51t-64.5 16l-72 4v47h492v-47l-70 -4q-53 -5 -66.5 -15.5t-13.5 -51.5v-1315q0 -42 13.5 -54.5t66.5 -13.5l70 -4v-47h-492v47l72 4q50 1 64 13.5t14 54.5z" />
    <glyph glyph-name="uni04D8" unicode="&#x4d8;" horiz-adv-x="1699" 
d="M836 -23q-188 0 -345.5 73t-262.5 214.5t-132 329.5h1297q6 31 6 90q0 186 -53 334t-144.5 241t-209.5 142t-253 49q-109 0 -207 -31t-181 -92t-139.5 -161.5t-74.5 -229.5h-49q16 198 115.5 346.5t262 226.5t365.5 78q161 0 302 -56t245.5 -157.5t165 -254.5t60.5 -337
q0 -179 -58 -330t-159.5 -255t-243.5 -162t-307 -58zM836 43q201 0 353.5 129t188.5 336h-1048q41 -220 177 -342.5t329 -122.5z" />
    <glyph glyph-name="uni04D9" unicode="&#x4d9;" horiz-adv-x="1196" 
d="M575 1061q148 0 265 -63.5t185.5 -187t68.5 -288.5q0 -120 -42.5 -223t-113.5 -173t-164.5 -109.5t-195.5 -39.5q-59 0 -117 14t-115.5 46t-105 79t-84.5 119t-54 160h783v39q0 223 -111 363.5t-282 140.5q-280 0 -369 -276h-47q46 202 175 300.5t324 98.5zM584 27
q114 0 193 79t102 230h-539q5 -138 64.5 -223.5t179.5 -85.5z" />
    <glyph glyph-name="uni04E2" unicode="&#x4e2;" horiz-adv-x="1884" 
d="M133 0v49l92 6q49 5 70.5 19.5t21.5 54.5v1294q0 40 -21.5 54.5t-70.5 19.5l-92 6v49h578v-49l-93 -6q-52 -5 -73 -19.5t-21 -54.5v-1077l834 1018v59q0 40 -21.5 54.5t-70.5 19.5l-92 6v49h577v-49l-92 -6q-49 -5 -70.5 -19.5t-21.5 -54.5v-1294q0 -40 21.5 -54.5
t70.5 -19.5l92 -6v-49h-577v49l92 6q49 5 70.5 19.5t21.5 54.5v1114l-834 -1018v-96q0 -40 21 -54.5t73 -19.5l93 -6v-49h-578zM653 1806v90h611v-90h-611z" />
    <glyph glyph-name="uni04E3" unicode="&#x4e3;" horiz-adv-x="1380" 
d="M260 119v790q0 40 -13.5 51.5t-64.5 16.5l-71 4v47h491v-47l-70 -4q-53 -5 -66 -16t-13 -52v-661l475 635v26q0 40 -13.5 51.5t-64.5 16.5l-72 4v47h492v-47l-70 -4q-53 -5 -66.5 -16t-13.5 -52v-790q0 -42 13.5 -54.5t66.5 -13.5l70 -4v-47h-492v47l72 4q50 1 64 13.5
t14 54.5v665l-475 -634v-31q0 -42 13 -54.5t66 -13.5l70 -4v-47h-491v47l71 4q50 1 64 13.5t14 54.5zM385 1368v92h610v-92h-610z" />
    <glyph glyph-name="uni04E8" unicode="&#x4e8;" horiz-adv-x="1818" 
d="M915 -25q-168 0 -317.5 58.5t-260 162t-175 255.5t-64.5 329q0 178 64.5 330t175 256t260 162.5t317.5 58.5t318 -58.5t260.5 -162.5t175 -256t64.5 -330q0 -177 -64.5 -329t-175 -255.5t-260.5 -162t-318 -58.5zM915 43q123 0 229 49t184 140.5t122.5 231t44.5 310.5
h-1161q0 -171 44.5 -310.5t122.5 -231t184 -140.5t230 -49zM915 1520q-240 0 -401 -176.5t-178 -487.5h1157q-20 313 -179 488.5t-399 175.5z" />
    <glyph glyph-name="uni04E9" unicode="&#x4e9;" horiz-adv-x="1255" 
d="M631 -25q-146 0 -270.5 68t-199.5 192t-75 277q0 121 47 225.5t124 174t176 108.5t204 39q146 0 270.5 -68t199.5 -191.5t75 -275.5q0 -122 -46 -226.5t-122.5 -174t-176 -109t-206.5 -39.5zM635 35q64 0 119 26t100.5 79.5t72.5 145t29 212.5h-647q2 -121 29 -212.5
t73 -145t102 -79.5t122 -26zM635 1004q-64 0 -119 -25t-100 -76t-73 -137t-34 -199h645q-11 220 -100 328.5t-219 108.5z" />
    <glyph glyph-name="uni04EE" unicode="&#x4ee;" horiz-adv-x="1597" 
d="M1403 1427l-668 -1286q-46 -90 -88.5 -128t-91.5 -38q-43 0 -69.5 25t-26.5 66q0 68 61.5 116t194.5 78l71 137l-571 1030q-24 40 -42.5 53t-61.5 17l-91 6v49h598v-49l-102 -6q-52 -5 -68.5 -20t1.5 -50l450 -813l422 813q18 35 0.5 50t-68.5 20l-102 6v49h446v-49
l-90 -6q-44 -4 -64.5 -18.5t-39.5 -51.5zM573 1806v90h611v-90h-611z" />
    <glyph glyph-name="uni04EF" unicode="&#x4ef;" horiz-adv-x="1191" 
d="M289 -518q-45 0 -76 29t-31 73q0 58 57.5 106.5t188.5 71.5l109 238l-379 899q-21 46 -39 62.5t-62 17.5l-59 2v47h498v-47l-68 -2q-93 -3 -66 -74l281 -672l285 639q46 104 -60 107l-75 2v47h389v-47l-66 -2q-45 -1 -66.5 -19.5t-43.5 -66.5l-549 -1215
q-52 -116 -71 -143q-37 -53 -97 -53zM319 1368v92h611v-92h-611z" />
    <glyph glyph-name="Wgrave" unicode="&#x1e80;" horiz-adv-x="2422" 
d="M776 -51l-616 1478q-17 38 -38.5 51.5t-66.5 18.5l-90 6v49h588v-49l-102 -6q-52 -5 -68.5 -19t0.5 -51l481 -1171l330 791l-190 505h532v-49l-188 -6q-51 -2 -67 -17t-3 -53l418 -1171l483 1171q17 37 0.5 51t-68.5 19l-100 6v49h447v-49l-91 -6q-47 -4 -67 -17.5
t-37 -52.5l-618 -1478h-35l-379 1003l-422 -1003h-33zM1305 1718h-41l-457 269v4h260z" />
    <glyph glyph-name="wgrave" unicode="&#x1e81;" horiz-adv-x="1785" 
d="M549 -23l-397 922q-21 46 -39 62.5t-62 17.5l-59 2v47h497v-47l-67 -2q-96 -3 -66 -74l293 -678l215 494l-129 307h412v-47l-84 -2q-93 -3 -66 -74l277 -676l270 643q46 104 -59 107l-74 2v47h389v-47l-65 -2q-45 -1 -67 -20t-44 -66l-395 -916h-55l-279 668l-291 -668
h-55zM1014 1223h-41l-398 352v14h216z" />
    <glyph glyph-name="Wacute" unicode="&#x1e82;" horiz-adv-x="2422" 
d="M776 -51l-616 1478q-17 38 -38.5 51.5t-66.5 18.5l-90 6v49h588v-49l-102 -6q-52 -5 -68.5 -19t0.5 -51l481 -1171l330 791l-190 505h532v-49l-188 -6q-51 -2 -67 -17t-3 -53l418 -1171l483 1171q17 37 0.5 51t-68.5 19l-100 6v49h447v-49l-91 -6q-47 -4 -67 -17.5
t-37 -52.5l-618 -1478h-35l-379 1003l-422 -1003h-33zM1153 1718l238 273h260v-4l-457 -269h-41z" />
    <glyph glyph-name="wacute" unicode="&#x1e83;" horiz-adv-x="1785" 
d="M549 -23l-397 922q-21 46 -39 62.5t-62 17.5l-59 2v47h497v-47l-67 -2q-96 -3 -66 -74l293 -678l215 494l-129 307h412v-47l-84 -2q-93 -3 -66 -74l277 -676l270 643q46 104 -59 107l-74 2v47h389v-47l-65 -2q-45 -1 -67 -20t-44 -66l-395 -916h-55l-279 668l-291 -668
h-55zM864 1223l223 366h216v-14l-398 -352h-41z" />
    <glyph glyph-name="Wdieresis" unicode="&#x1e84;" horiz-adv-x="2422" 
d="M776 -51l-616 1478q-17 38 -38.5 51.5t-66.5 18.5l-90 6v49h588v-49l-102 -6q-52 -5 -68.5 -19t0.5 -51l481 -1171l330 791l-190 505h532v-49l-188 -6q-51 -2 -67 -17t-3 -53l418 -1171l483 1171q17 37 0.5 51t-68.5 19l-100 6v49h447v-49l-91 -6q-47 -4 -67 -17.5
t-37 -52.5l-618 -1478h-35l-379 1003l-422 -1003h-33zM973 1749q-54 0 -92.5 38.5t-38.5 92.5q0 52 39 91.5t92 39.5t92 -39.5t39 -91.5q0 -54 -38.5 -92.5t-92.5 -38.5zM1448 1749q-54 0 -92.5 38.5t-38.5 92.5q0 52 39 91.5t92 39.5t92 -39.5t39 -91.5q0 -54 -38.5 -92.5
t-92.5 -38.5z" />
    <glyph glyph-name="wdieresis" unicode="&#x1e85;" horiz-adv-x="1785" 
d="M549 -23l-397 922q-21 46 -39 62.5t-62 17.5l-59 2v47h497v-47l-67 -2q-96 -3 -66 -74l293 -678l215 494l-129 307h412v-47l-84 -2q-93 -3 -66 -74l277 -676l270 643q46 104 -59 107l-74 2v47h389v-47l-65 -2q-45 -1 -67 -20t-44 -66l-395 -916h-55l-279 668l-291 -668
h-55zM1174 1315q-54 0 -93 39.5t-39 93.5q0 51 39 90t93 39t92.5 -38.5t38.5 -90.5q0 -54 -38.5 -93.5t-92.5 -39.5zM698 1315q-54 0 -92.5 39.5t-38.5 93.5q0 52 38.5 90.5t92.5 38.5t92.5 -38.5t38.5 -90.5q0 -54 -38.5 -93.5t-92.5 -39.5z" />
    <glyph glyph-name="uni1ECA" unicode="&#x1eca;" horiz-adv-x="800" 
d="M113 0v49l92 6q49 5 70.5 19.5t21.5 54.5v1294q0 40 -21.5 54.5t-70.5 19.5l-92 6v49h577v-49l-92 -6q-52 -5 -73 -19.5t-21 -54.5v-1294q0 -40 21 -54.5t73 -19.5l92 -6v-49h-577zM401 -483q-54 0 -92.5 38.5t-38.5 92.5q0 52 39 91.5t92 39.5t92 -39.5t39 -91.5
q0 -54 -38.5 -92.5t-92.5 -38.5z" />
    <glyph glyph-name="uni1ECB" unicode="&#x1ecb;" horiz-adv-x="632" 
d="M80 0v47l72 4q49 5 63 16.5t14 51.5v715l-149 84v12l342 131v-942q0 -40 14.5 -51.5t65.5 -16.5l69 -4v-47h-491zM195 1479q0 51 38.5 90t92.5 39t92.5 -39t38.5 -90q0 -54 -38.5 -93.5t-92.5 -39.5t-92.5 39.5t-38.5 93.5zM326 -479q-54 0 -92.5 38.5t-38.5 92.5
q0 52 39 91.5t92 39.5t92 -39.5t39 -91.5q0 -54 -38.5 -92.5t-92.5 -38.5z" />
    <glyph glyph-name="uni1ECC" unicode="&#x1ecc;" horiz-adv-x="1830" 
d="M915 -25q-168 0 -317.5 58.5t-260 162t-175 255.5t-64.5 329q0 178 64.5 330t175 256t260 162.5t317.5 58.5t318 -58.5t260.5 -162.5t175 -256t64.5 -330q0 -177 -64.5 -329t-175 -255.5t-260.5 -162t-318 -58.5zM915 43q125 0 231 50t183.5 142t121.5 232.5t44 312.5
q0 174 -44 314.5t-121.5 233.5t-183.5 142.5t-231 49.5q-257 0 -419 -197t-162 -543q0 -172 44 -312t121.5 -232.5t184 -142.5t231.5 -50zM915 -483q-54 0 -92.5 38.5t-38.5 92.5q0 52 39 91.5t92 39.5t92.5 -39.5t39.5 -91.5q0 -54 -39 -92.5t-93 -38.5z" />
    <glyph glyph-name="uni1ECD" unicode="&#x1ecd;" horiz-adv-x="1267" 
d="M631 -25q-146 0 -270.5 68t-199.5 192t-75 277q0 121 47 225.5t124 174t176 108.5t204 39q146 0 270.5 -68t199.5 -191.5t75 -275.5q0 -122 -46 -226.5t-122.5 -174t-176 -109t-206.5 -39.5zM635 35q65 0 121.5 27.5t102 83.5t71.5 151.5t26 220.5q0 127 -26 223t-72 152
t-102 83.5t-121 27.5q-67 0 -124 -27.5t-103 -83.5t-72.5 -152t-26.5 -223q0 -125 26.5 -220.5t72.5 -151.5t103 -83.5t124 -27.5zM633 -479q-54 0 -92.5 38.5t-38.5 92.5q0 52 39 91.5t92 39.5t92 -39.5t39 -91.5q0 -54 -38.5 -92.5t-92.5 -38.5z" />
    <glyph glyph-name="uni1EE4" unicode="&#x1ee4;" horiz-adv-x="1763" 
d="M889 -25q-637 0 -637 631v817q0 40 -21.5 54.5t-70.5 19.5l-92 6v49h577v-49l-92 -6q-49 -5 -70.5 -19.5t-21.5 -54.5v-821q0 -272 117 -400t364 -128q250 0 371 137t121 410v802q0 40 -21 54.5t-72 19.5l-92 6v49h449v-49l-90 -6q-52 -5 -73.5 -19.5t-21.5 -54.5v-815
q0 -312 -158 -472.5t-466 -160.5zM920 -483q-54 0 -93 38.5t-39 92.5q0 52 39.5 91.5t92.5 39.5t92 -39.5t39 -91.5q0 -54 -38.5 -92.5t-92.5 -38.5z" />
    <glyph glyph-name="uni1EE5" unicode="&#x1ee5;" horiz-adv-x="1251" 
d="M512 -25q-157 0 -236 95.5t-79 314.5v561l-148 37v45h340v-608q0 -179 52.5 -253.5t164.5 -74.5q110 0 178 80t68 250v524l-145 37v45h337v-938h158v-45l-350 -63v276q-32 -139 -121 -211t-219 -72zM637 -479q-54 0 -92.5 38.5t-38.5 92.5q0 52 39 91.5t92 39.5t92 -39.5
t39 -91.5q0 -54 -38.5 -92.5t-92.5 -38.5z" />
    <glyph glyph-name="Ygrave" unicode="&#x1ef2;" horiz-adv-x="1576" 
d="M471 0v51l123 6q48 2 70 17t22 55v571l-508 727q-27 40 -44.5 53t-59.5 17l-90 6v49h594v-49l-103 -6q-109 -10 -67 -70l452 -649l455 649q13 18 13.5 30.5t-11 20.5t-28 12.5t-42.5 6.5l-102 6v49h450v-49l-90 -6q-41 -4 -58.5 -17.5t-45.5 -52.5l-508 -727v-571
q0 -40 21 -53.5t73 -18.5l123 -6v-51h-639zM942 1718h-41l-457 269v4h261z" />
    <glyph glyph-name="ygrave" unicode="&#x1ef3;" horiz-adv-x="1161" 
d="M289 -518q-45 0 -76 29t-31 73q0 58 57.5 106.5t188.5 71.5l109 238l-379 899q-21 46 -39 62.5t-62 17.5l-59 2v47h498v-47l-68 -2q-93 -3 -66 -74l281 -672l285 639q46 104 -60 107l-75 2v47h389v-47l-66 -2q-45 -1 -66.5 -19.5t-43.5 -66.5l-549 -1215
q-52 -116 -71 -143q-37 -53 -97 -53zM709 1223h-41l-398 352v14h215z" />
    <glyph glyph-name="uni2007" unicode="&#x2007;" horiz-adv-x="1380" 
 />
    <glyph glyph-name="uni2008" unicode="&#x2008;" horiz-adv-x="516" 
 />
    <glyph glyph-name="uni2009" unicode="&#x2009;" horiz-adv-x="98" 
 />
    <glyph glyph-name="uni200B" unicode="&#x200b;" 
 />
    <glyph glyph-name="endash" unicode="&#x2013;" horiz-adv-x="1261" 
d="M133 485v101h995v-101h-995z" />
    <glyph glyph-name="emdash" unicode="&#x2014;" horiz-adv-x="1988" 
d="M133 485v101h1722v-101h-1722z" />
    <glyph glyph-name="quoteleft" unicode="&#x2018;" horiz-adv-x="522" 
d="M414 1622l26 -45q-188 -144 -188 -289q0 -111 135 -149q2 -64 -38.5 -109t-106.5 -45q-64 0 -104 42.5t-40 121.5q0 116 80.5 241.5t235.5 231.5z" />
    <glyph glyph-name="quoteright" unicode="&#x2019;" horiz-adv-x="526" 
d="M133 969l-27 45q189 144 189 289q0 111 -135 149q-2 64 38.5 109t106.5 45q64 0 104 -42.5t40 -121.5q0 -116 -80.5 -241.5t-235.5 -231.5z" />
    <glyph glyph-name="quotesinglbase" unicode="&#x201a;" horiz-adv-x="540" 
d="M96 -395l-26 45q188 144 188 289q0 111 -135 149q-2 64 38.5 109t106.5 45q64 0 104 -42.5t40 -121.5q0 -116 -80.5 -241.5t-235.5 -231.5z" />
    <glyph glyph-name="quotedblleft" unicode="&#x201c;" horiz-adv-x="980" 
d="M414 1622l26 -45q-188 -144 -188 -289q0 -111 135 -149q2 -64 -38.5 -109t-106.5 -45q-64 0 -104 42.5t-40 121.5q0 116 80.5 241.5t235.5 231.5zM872 1622l27 -45q-188 -144 -188 -289q0 -111 135 -149q2 -63 -39 -108.5t-107 -45.5q-64 0 -103.5 42.5t-39.5 121.5
q0 116 80 241.5t235 231.5z" />
    <glyph glyph-name="quotedblright" unicode="&#x201d;" horiz-adv-x="985" 
d="M133 969l-27 45q189 144 189 289q0 111 -135 149q-2 64 38.5 109t106.5 45q64 0 104 -42.5t40 -121.5q0 -116 -80.5 -241.5t-235.5 -231.5zM592 969l-27 45q189 144 189 289q0 111 -136 149q-2 63 39 108.5t107 45.5q64 0 103.5 -42.5t39.5 -121.5q0 -116 -80 -241.5
t-235 -231.5z" />
    <glyph glyph-name="quotedblbase" unicode="&#x201e;" horiz-adv-x="999" 
d="M96 -395l-26 45q188 144 188 289q0 111 -135 149q-2 64 38.5 109t106.5 45q64 0 104 -42.5t40 -121.5q0 -116 -80.5 -241.5t-235.5 -231.5zM555 -395l-27 45q189 144 189 289q0 111 -135 149q-2 64 38.5 109t106.5 45q64 0 103.5 -42.5t39.5 -121.5q0 -116 -80 -241.5
t-235 -231.5z" />
    <glyph glyph-name="dagger" unicode="&#x2020;" horiz-adv-x="1406" 
d="M674 -467l4 602q2 70 -4.5 130t-13 94.5t-25.5 77.5t-26.5 56t-30.5 52q1 2 17 23t19 25t16 25t16.5 31.5t12 34.5t11 44.5t5.5 50.5t3 63v137h-158q-46 0 -84.5 -5t-63 -11t-51 -19t-38.5 -20.5t-36.5 -25.5t-33.5 -24q-41 17 -77.5 52.5t-53.5 74.5q18 38 54.5 73
t76.5 52q7 -5 33.5 -24t37 -25t38 -19.5t51.5 -18.5t62.5 -10t84.5 -5h158v133q0 40 -2.5 72.5t-9.5 60t-11.5 45t-17 40t-17.5 30.5t-21.5 31t-20.5 28q17 41 52 77t72 54q39 -17 74.5 -53.5t52.5 -77.5q-5 -7 -24 -33.5t-24.5 -36t-19 -37.5t-18 -51.5t-9.5 -62.5t-5 -86
v-133h156q40 0 73 2.5t62 10t45 11.5t40 18.5t29.5 17t31 22t26.5 20.5q40 -17 77 -52t56 -73q-19 -39 -56 -74.5t-77 -52.5q-6 4 -27 20.5t-29.5 22t-30.5 18.5t-40 18.5t-45.5 13t-61 10t-73.5 2.5h-156v-137q0 -34 2.5 -63.5t5.5 -50.5t11 -43.5t12 -34.5t16 -31
t16.5 -25t19 -25t17.5 -24q-26 -43 -38.5 -67.5t-30.5 -74t-25.5 -115t-7.5 -153.5l6 -602h-59z" />
    </font>
</defs>
</svg>
