<?xml version="1.0" encoding="UTF-8"?>
<svg xmlns="http://www.w3.org/2000/svg" viewBox="0 0 558.22 61.82">
  <g id="guidelines">
    <g>
      <path d="M151.99,21.28c1.57-1.55,3.44-2.74,5.61-3.56s4.56-1.23,7.2-1.23,5.26.5,7.58,1.5c2.32,1.01,4.46,2.54,6.42,4.6l8.05-7.42c-2.63-3.04-5.87-5.36-9.71-6.96-3.84-1.6-8.16-2.4-12.96-2.4-4.33,0-8.31.69-11.91,2.05-3.61,1.37-6.76,3.31-9.44,5.84-2.68,2.53-4.76,5.5-6.23,8.9-1.47,3.41-2.21,7.15-2.21,11.22s.74,7.81,2.21,11.22,3.53,6.37,6.19,8.9c2.66,2.53,5.78,4.48,9.36,5.84,3.58,1.37,7.51,2.05,11.8,2.05,3.87,0,7.75-.59,11.65-1.78,3.89-1.19,7.31-2.89,10.25-5.11v-21.97h-11.45v15.81c-.83.43-1.66.88-2.51,1.17-2.35.8-4.76,1.2-7.23,1.2s-4.94-.42-7.08-1.24-4-2.02-5.57-3.6c-1.57-1.57-2.79-3.42-3.64-5.53-.85-2.12-1.28-4.43-1.28-6.96s.43-4.92,1.28-7.04c.85-2.12,2.07-3.95,3.64-5.49Z"/>
      <path d="M226.46,39.85c0,2.52-.42,4.63-1.24,6.3-.83,1.67-1.96,2.92-3.41,3.71s-3.09,1.2-4.95,1.2c-2.68,0-4.76-.81-6.23-2.44s-2.2-4.16-2.2-7.62v-21.74h-12.07v23.52c0,4.28.75,7.8,2.24,10.56s3.6,4.81,6.31,6.15c2.71,1.34,5.79,2.01,9.25,2.01,3.2,0,6.15-.73,8.86-2.2,1.61-.87,2.91-2.08,4.06-3.46v5.05h11.45V19.27h-12.07v20.58Z"/>
      <path d="M255.78,0c-2.22,0-4.02.65-5.41,1.94-1.39,1.28-2.09,2.88-2.09,4.79s.7,3.51,2.09,4.8c1.39,1.29,3.2,1.93,5.41,1.93s4.09-.65,5.46-1.97,2.05-2.98,2.05-4.99-.7-3.47-2.09-4.68c-1.39-1.21-3.2-1.82-5.42-1.82Z"/>
      <rect x="249.75" y="19.27" width="12.07" height="41.63"/>
      <path d="M303.37,23.68c-.97-1.06-2.03-2-3.25-2.72-2.64-1.54-5.7-2.32-9.21-2.32-3.92,0-7.46.88-10.6,2.63-3.15,1.75-5.64,4.22-7.47,7.42-1.83,3.2-2.75,6.99-2.75,11.38s.91,8.1,2.75,11.3c1.83,3.2,4.32,5.69,7.47,7.46,3.15,1.78,6.68,2.67,10.6,2.67,3.66,0,6.79-.77,9.4-2.32,1.38-.82,2.56-1.9,3.6-3.17v4.87h11.53V3.48h-12.07v20.2ZM302.17,46.23c-.96,1.73-2.23,3.06-3.83,3.99-1.6.93-3.38,1.39-5.34,1.39s-3.82-.46-5.41-1.39c-1.6-.93-2.88-2.25-3.83-3.99-.95-1.73-1.43-3.78-1.43-6.15s.48-4.49,1.43-6.2c.95-1.7,2.23-3.02,3.83-3.94,1.6-.93,3.4-1.39,5.41-1.39s3.74.46,5.34,1.39c1.6.93,2.87,2.24,3.83,3.94.96,1.71,1.43,3.77,1.43,6.2s-.47,4.42-1.43,6.15Z"/>
      <path d="M356.71,21.24c-3.27-1.73-6.95-2.59-11.03-2.59s-8.02.91-11.37,2.75c-3.36,1.83-6,4.36-7.93,7.58s-2.9,6.93-2.9,11.11.98,7.8,2.94,11.03,4.73,5.76,8.32,7.62,7.75,2.78,12.5,2.78c3.77,0,7.09-.58,9.98-1.74,2.88-1.16,5.28-2.83,7.2-4.99l-6.42-6.96c-1.4,1.34-2.93,2.35-4.6,3.02-1.68.67-3.63,1-5.84,1-2.47,0-4.63-.45-6.46-1.35-1.83-.9-3.25-2.22-4.26-3.94-.55-.94-.91-1.97-1.16-3.06h31.46c.05-.52.1-1.07.15-1.66s.08-1.12.08-1.59c0-4.49-.96-8.34-2.86-11.57s-4.5-5.7-7.78-7.43ZM340.31,29.13c1.57-.9,3.39-1.35,5.45-1.35s3.87.45,5.41,1.35c1.55.9,2.76,2.15,3.64,3.75.57,1.05.89,2.27,1.09,3.56h-20.35c.2-1.28.52-2.48,1.08-3.52.88-1.62,2.1-2.89,3.68-3.79Z"/>
      <rect x="375.4" y="3.48" width="12.07" height="57.41"/>
      <rect x="398.69" y="19.27" width="12.07" height="41.63"/>
      <path d="M404.72,0c-2.22,0-4.02.65-5.41,1.94-1.39,1.28-2.09,2.88-2.09,4.79s.7,3.51,2.09,4.8c1.39,1.29,3.2,1.93,5.41,1.93s4.09-.65,5.46-1.97c1.36-1.32,2.05-2.98,2.05-4.99s-.69-3.47-2.09-4.68c-1.39-1.21-3.2-1.82-5.41-1.82Z"/>
      <path d="M456.13,20.62c-2.61-1.32-5.56-1.97-8.86-1.97-3.56,0-6.73.75-9.52,2.24-1.68.9-3.04,2.12-4.25,3.49v-5.11h-11.53v41.63h12.07v-20.58c0-2.58.42-4.69,1.27-6.34.86-1.65,2.04-2.88,3.56-3.68,1.52-.8,3.24-1.2,5.14-1.2,2.68,0,4.76.8,6.23,2.4s2.2,4.07,2.2,7.42v21.97h12.07v-23.83c0-4.22-.75-7.69-2.24-10.4-1.5-2.71-3.55-4.72-6.15-6.04Z"/>
      <path d="M505.88,21.24c-3.27-1.73-6.95-2.59-11.03-2.59s-8.02.91-11.37,2.75c-3.36,1.83-6,4.36-7.93,7.58s-2.9,6.93-2.9,11.11.98,7.8,2.94,11.03,4.73,5.76,8.32,7.62,7.75,2.78,12.5,2.78c3.77,0,7.09-.58,9.98-1.74,2.88-1.16,5.28-2.83,7.2-4.99l-6.42-6.96c-1.4,1.34-2.93,2.35-4.6,3.02-1.68.67-3.63,1-5.84,1-2.47,0-4.63-.45-6.46-1.35-1.83-.9-3.25-2.22-4.26-3.94-.55-.94-.91-1.97-1.16-3.06h31.46c.05-.52.1-1.07.15-1.66s.08-1.12.08-1.59c0-4.49-.96-8.34-2.86-11.57s-4.5-5.7-7.78-7.43ZM489.48,29.13c1.57-.9,3.39-1.35,5.45-1.35s3.87.45,5.41,1.35c1.55.9,2.76,2.15,3.64,3.75.57,1.05.89,2.27,1.09,3.56h-20.35c.2-1.28.52-2.48,1.08-3.52.88-1.62,2.1-2.89,3.68-3.79Z"/>
      <path d="M556.83,42.52c-.93-1.47-2.13-2.63-3.6-3.48-1.47-.86-3.1-1.51-4.91-1.98-1.81-.46-3.6-.81-5.38-1.05-1.78-.23-3.42-.5-4.91-.81-1.5-.31-2.69-.72-3.6-1.23-.9-.52-1.35-1.29-1.35-2.32,0-1.13.62-2.06,1.86-2.78,1.24-.72,3.2-1.08,5.88-1.08,1.91,0,3.88.22,5.92.65,2.04.44,4.06,1.25,6.08,2.44l4.02-8.59c-1.96-1.18-4.41-2.08-7.35-2.71-2.93-.62-5.82-.93-8.66-.93-4.02,0-7.48.58-10.36,1.74-2.89,1.16-5.09,2.75-6.62,4.76-1.52,2.01-2.28,4.33-2.28,6.96,0,2.37.45,4.31,1.35,5.8.9,1.5,2.1,2.69,3.6,3.56,1.49.88,3.15,1.54,4.95,1.97,1.81.44,3.6.79,5.38,1.05,1.78.26,3.42.52,4.92.77,1.49.26,2.69.63,3.6,1.12s1.35,1.23,1.35,2.2c0,1.19-.58,2.12-1.74,2.79-1.16.67-3.14,1-5.92,1-2.53,0-5.09-.37-7.7-1.12s-4.86-1.71-6.77-2.9l-4.02,8.67c1.91,1.28,4.5,2.35,7.78,3.21,3.27.85,6.69,1.27,10.25,1.27,4.17,0,7.73-.57,10.63-1.7,2.92-1.13,5.15-2.69,6.69-4.68,1.55-1.99,2.32-4.27,2.32-6.85,0-2.37-.47-4.29-1.39-5.76Z"/>
    </g>
  </g>
  <g id="md">
    <g>
      <polygon points="50.6 6.73 30.65 40.36 10.37 6.73 0 6.73 0 60.89 11.76 60.89 11.76 29.09 27.62 55.17 33.27 55.17 49.21 28.39 49.29 60.89 61.04 60.89 60.89 6.73 50.6 6.73"/>
      <path d="M124.57,19.5c-2.53-4.02-6.04-7.16-10.52-9.4-4.49-2.24-9.67-3.37-15.55-3.37h-24.6v54.16h24.6c5.88,0,11.06-1.12,15.55-3.37,4.49-2.24,7.99-5.38,10.52-9.44,2.53-4.05,3.79-8.8,3.79-14.27s-1.26-10.29-3.79-14.31ZM113.46,42.71c-1.47,2.53-3.53,4.48-6.19,5.84s-5.79,2.05-9.4,2.05h-11.45V17.03h11.45c3.61,0,6.74.68,9.4,2.05s4.72,3.31,6.19,5.81,2.21,5.48,2.21,8.93-.74,6.37-2.21,8.9Z"/>
    </g>
  </g>
</svg>